<?xml version="1.0" encoding="UTF-8" standalone="no"?>
<!DOCTYPE svg PUBLIC "-//W3C//DTD SVG 1.1//EN"
 "http://www.w3.org/Graphics/SVG/1.1/DTD/svg11.dtd">
<!-- Generated by graphviz version 2.40.1 (20161225.0304)
 -->
<!-- Title: %3 Pages: 1 -->
<svg width="2084pt" height="1333pt"
 viewBox="0.00 0.00 2084.00 1333.32" xmlns="http://www.w3.org/2000/svg" xmlns:xlink="http://www.w3.org/1999/xlink">
<g id="graph0" class="graph" transform="scale(1 1) rotate(0) translate(4 1329.3191)">
<title>%3</title>
<polygon fill="#242424" stroke="transparent" points="-4,4 -4,-1329.3191 2080,-1329.3191 2080,4 -4,4"/>
<!-- cli -->
<g id="node1" class="node">
<title>cli</title>
<polygon fill="#343434" stroke="#343434" points="171.5,-397.3603 117.5,-397.3603 117.5,-361.3603 171.5,-361.3603 171.5,-397.3603"/>
<text text-anchor="middle" x="144.5" y="-375.6603" font-family="Courier,monospace" font-size="14.00" fill="#b6ecf3">cli</text>
</g>
<!-- shekels.core.config -->
<g id="node2" class="node">
<title>shekels.core.config</title>
<polygon fill="#343434" stroke="#343434" points="765.5,-887.3603 592.5,-887.3603 592.5,-851.3603 765.5,-851.3603 765.5,-887.3603"/>
<text text-anchor="middle" x="679" y="-865.6603" font-family="Courier,monospace" font-size="14.00" fill="#b6ecf3">shekels.core.config</text>
</g>
<!-- shekels.core.data_tools -->
<g id="node3" class="node">
<title>shekels.core.data_tools</title>
<polygon fill="#343434" stroke="#343434" points="1049,-459.3603 843,-459.3603 843,-423.3603 1049,-423.3603 1049,-459.3603"/>
<text text-anchor="middle" x="946" y="-437.6603" font-family="Courier,monospace" font-size="14.00" fill="#b6ecf3">shekels.core.data_tools</text>
</g>
<!-- shekels.core.config&#45;&gt;shekels.core.data_tools -->
<g id="edge1" class="edge">
<title>shekels.core.config&#45;&gt;shekels.core.data_tools</title>
<path fill="none" stroke="#b6ecf3" d="M713.4486,-851.1945C743.1983,-833.6094 784.7946,-804.0952 807,-766.3603 854.8035,-685.125 802.1424,-642.3014 843,-557.3603 860.3062,-521.3814 892.1077,-488.1737 915.8136,-466.5923"/>
<polygon fill="#b6ecf3" stroke="#b6ecf3" points="918.3741,-468.9986 923.5101,-459.7319 913.7163,-463.7732 918.3741,-468.9986"/>
</g>
<!-- shekels.core.database -->
<g id="node4" class="node">
<title>shekels.core.database</title>
<polygon fill="#343434" stroke="#343434" points="1308,-358.3603 1118,-358.3603 1118,-322.3603 1308,-322.3603 1308,-358.3603"/>
<text text-anchor="middle" x="1213" y="-336.6603" font-family="Courier,monospace" font-size="14.00" fill="#b6ecf3">shekels.core.database</text>
</g>
<!-- shekels.core.config&#45;&gt;shekels.core.database -->
<g id="edge2" class="edge">
<title>shekels.core.config&#45;&gt;shekels.core.database</title>
<path fill="none" stroke="#b6ecf3" d="M711.8368,-851.2479C741.1278,-833.4103 782.9862,-803.4816 807,-766.3603 841.4285,-713.1395 808.1145,-681.2826 843,-628.3603 906.8028,-531.5697 957.5284,-539.5793 1049,-468.3603 1095.37,-432.257 1149.0472,-390.3387 1182.0105,-364.5822"/>
<polygon fill="#b6ecf3" stroke="#b6ecf3" points="1184.2032,-367.3107 1189.9277,-358.3955 1179.893,-361.795 1184.2032,-367.3107"/>
</g>
<!-- shekels.server.app -->
<g id="node7" class="node">
<title>shekels.server.app</title>
<polygon fill="#343434" stroke="#343434" points="2076,-811.3603 1911,-811.3603 1911,-775.3603 2076,-775.3603 2076,-811.3603"/>
<text text-anchor="middle" x="1993.5" y="-789.6603" font-family="Courier,monospace" font-size="14.00" fill="#b6ecf3">shekels.server.app</text>
</g>
<!-- shekels.core.config&#45;&gt;shekels.server.app -->
<g id="edge3" class="edge">
<title>shekels.core.config&#45;&gt;shekels.server.app</title>
<path fill="none" stroke="#b6ecf3" d="M765.7191,-870.1373C781.1872,-874.1006 795.8869,-880.9643 807,-892.3603 880.4632,-967.694 763.1389,-1057.846 843,-1126.3603 879.4791,-1157.6564 1297.618,-1107.3715 1341,-1102.3603 1583.3416,-1074.3665 1681.8491,-1124.3764 1875,-975.3603 1928.8025,-933.8516 1965.5822,-860.5833 1982.6414,-820.8465"/>
<polygon fill="#b6ecf3" stroke="#b6ecf3" points="1985.9184,-822.082 1986.5519,-811.5061 1979.4615,-819.3786 1985.9184,-822.082"/>
</g>
<!-- shekels.server.components -->
<g id="node8" class="node">
<title>shekels.server.components</title>
<polygon fill="#343434" stroke="#343434" points="1324.5,-857.3603 1101.5,-857.3603 1101.5,-821.3603 1324.5,-821.3603 1324.5,-857.3603"/>
<text text-anchor="middle" x="1213" y="-835.6603" font-family="Courier,monospace" font-size="14.00" fill="#b6ecf3">shekels.server.components</text>
</g>
<!-- shekels.core.config&#45;&gt;shekels.server.components -->
<g id="edge4" class="edge">
<title>shekels.core.config&#45;&gt;shekels.server.components</title>
<path fill="none" stroke="#b6ecf3" d="M765.7983,-883.3691C841.0678,-893.2449 952.7382,-902.4335 1049,-888.3603 1085.3487,-883.0462 1124.835,-871.4382 1155.9525,-860.8541"/>
<polygon fill="#b6ecf3" stroke="#b6ecf3" points="1157.4424,-864.0421 1165.7469,-857.4629 1155.1522,-857.4274 1157.4424,-864.0421"/>
</g>
<!-- shekels.server.server_tools -->
<g id="node10" class="node">
<title>shekels.server.server_tools</title>
<polygon fill="#343434" stroke="#343434" points="1616,-735.3603 1377,-735.3603 1377,-699.3603 1616,-699.3603 1616,-735.3603"/>
<text text-anchor="middle" x="1496.5" y="-713.6603" font-family="Courier,monospace" font-size="14.00" fill="#b6ecf3">shekels.server.server_tools</text>
</g>
<!-- shekels.core.config&#45;&gt;shekels.server.server_tools -->
<g id="edge5" class="edge">
<title>shekels.core.config&#45;&gt;shekels.server.server_tools</title>
<path fill="none" stroke="#b6ecf3" d="M747.5943,-887.3989C872.7496,-916.4768 1143.4421,-961.4058 1341,-866.3603 1400.1706,-837.8932 1451.3372,-778.3635 1477.6356,-743.786"/>
<polygon fill="#b6ecf3" stroke="#b6ecf3" points="1480.5948,-745.6729 1483.7756,-735.5668 1474.9868,-741.4836 1480.5948,-745.6729"/>
</g>
<!-- shekels.core.data_tools&#45;&gt;shekels.core.database -->
<g id="edge6" class="edge">
<title>shekels.core.data_tools&#45;&gt;shekels.core.database</title>
<path fill="none" stroke="#b6ecf3" d="M993.7342,-423.3035C1039.1553,-406.1217 1107.5466,-380.2509 1155.8496,-361.979"/>
<polygon fill="#b6ecf3" stroke="#b6ecf3" points="1157.1148,-365.2425 1165.2297,-358.4307 1154.6381,-358.6953 1157.1148,-365.2425"/>
</g>
<!-- shekels.core.data_tools&#45;&gt;shekels.server.components -->
<g id="edge7" class="edge">
<title>shekels.core.data_tools&#45;&gt;shekels.server.components</title>
<path fill="none" stroke="#b6ecf3" d="M956.2613,-459.5812C974.9844,-492.9172 1015.818,-566.0357 1049,-628.3603 1065.4409,-659.2407 1065.0718,-669.6067 1085,-698.3603 1115.4695,-742.3234 1158.5507,-787.0349 1186.1329,-813.9895"/>
<polygon fill="#b6ecf3" stroke="#b6ecf3" points="1183.8606,-816.6613 1193.4781,-821.1059 1188.7314,-811.6338 1183.8606,-816.6613"/>
</g>
<!-- shekels.core.data_tools&#45;&gt;shekels.server.server_tools -->
<g id="edge8" class="edge">
<title>shekels.core.data_tools&#45;&gt;shekels.server.server_tools</title>
<path fill="none" stroke="#b6ecf3" d="M1049.2213,-442.3433C1133.3653,-447.4879 1252.3572,-465.0123 1341,-519.3603 1410.112,-561.7337 1460.7029,-646.6388 1483.3327,-690.205"/>
<polygon fill="#b6ecf3" stroke="#b6ecf3" points="1480.3287,-692.019 1487.9834,-699.3441 1486.5674,-688.8443 1480.3287,-692.019"/>
</g>
<!-- shekels.server.api -->
<g id="node6" class="node">
<title>shekels.server.api</title>
<polygon fill="#343434" stroke="#343434" points="1846,-589.3603 1681,-589.3603 1681,-553.3603 1846,-553.3603 1846,-589.3603"/>
<text text-anchor="middle" x="1763.5" y="-567.6603" font-family="Courier,monospace" font-size="14.00" fill="#b6ecf3">shekels.server.api</text>
</g>
<!-- shekels.core.database&#45;&gt;shekels.server.api -->
<g id="edge9" class="edge">
<title>shekels.core.database&#45;&gt;shekels.server.api</title>
<path fill="none" stroke="#b6ecf3" d="M1308.1433,-354.9803C1395.8755,-372.4835 1525.7916,-409.017 1616,-481.3603 1639.6687,-500.3415 1627.7993,-521.0622 1652,-539.3603 1657.9638,-543.8695 1664.5428,-547.7439 1671.4331,-551.0726"/>
<polygon fill="#b6ecf3" stroke="#b6ecf3" points="1670.4309,-554.4556 1680.9934,-555.2821 1673.2517,-548.0491 1670.4309,-554.4556"/>
</g>
<!-- shekels.enforce.enforce_tools -->
<g id="node5" class="node">
<title>shekels.enforce.enforce_tools</title>
<polygon fill="#343434" stroke="#343434" points="807,-297.3603 551,-297.3603 551,-261.3603 807,-261.3603 807,-297.3603"/>
<text text-anchor="middle" x="679" y="-275.6603" font-family="Courier,monospace" font-size="14.00" fill="#b6ecf3">shekels.enforce.enforce_tools</text>
</g>
<!-- shekels.enforce.enforce_tools&#45;&gt;shekels.core.data_tools -->
<g id="edge10" class="edge">
<title>shekels.enforce.enforce_tools&#45;&gt;shekels.core.data_tools</title>
<path fill="none" stroke="#b6ecf3" d="M787.0947,-297.4762C793.9871,-300.0536 800.6856,-302.9975 807,-306.3603 857.4815,-333.2441 902.2184,-383.9627 926.5756,-415.0002"/>
<polygon fill="#b6ecf3" stroke="#b6ecf3" points="924.0161,-417.4127 932.893,-423.1963 929.5603,-413.1393 924.0161,-417.4127"/>
</g>
<!-- shekels.server.api&#45;&gt;shekels.server.app -->
<g id="edge11" class="edge">
<title>shekels.server.api&#45;&gt;shekels.server.app</title>
<path fill="none" stroke="#b6ecf3" d="M1782.3219,-589.5275C1823.2783,-629.0593 1920.5589,-722.9563 1967.4043,-768.1723"/>
<polygon fill="#b6ecf3" stroke="#b6ecf3" points="1965.1148,-770.8268 1974.7406,-775.2534 1969.9762,-765.7903 1965.1148,-770.8268"/>
</g>
<!-- shekels.server.components&#45;&gt;shekels.server.app -->
<g id="edge12" class="edge">
<title>shekels.server.components&#45;&gt;shekels.server.app</title>
<path fill="none" stroke="#b6ecf3" d="M1324.722,-836.3215C1456.4534,-832.192 1681.9259,-823.4125 1875,-807.3603 1883.3095,-806.6694 1891.9354,-805.8497 1900.5728,-804.9588"/>
<polygon fill="#b6ecf3" stroke="#b6ecf3" points="1901.1248,-808.4199 1910.6994,-803.8836 1900.3857,-801.4591 1901.1248,-808.4199"/>
</g>
<!-- shekels.server.components&#45;&gt;shekels.server.server_tools -->
<g id="edge13" class="edge">
<title>shekels.server.components&#45;&gt;shekels.server.server_tools</title>
<path fill="none" stroke="#b6ecf3" d="M1254.8314,-821.3588C1305.3958,-799.5991 1390.4732,-762.9873 1445.0167,-739.5154"/>
<polygon fill="#b6ecf3" stroke="#b6ecf3" points="1446.6949,-742.6035 1454.497,-735.4357 1443.9279,-736.1736 1446.6949,-742.6035"/>
</g>
<!-- shekels.server.event_listener -->
<g id="node9" class="node">
<title>shekels.server.event_listener</title>
<polygon fill="#343434" stroke="#343434" points="1341,-1192.3603 1085,-1192.3603 1085,-1156.3603 1341,-1156.3603 1341,-1192.3603"/>
<text text-anchor="middle" x="1213" y="-1170.6603" font-family="Courier,monospace" font-size="14.00" fill="#b6ecf3">shekels.server.event_listener</text>
</g>
<!-- shekels.server.event_listener&#45;&gt;shekels.server.app -->
<g id="edge14" class="edge">
<title>shekels.server.event_listener&#45;&gt;shekels.server.app</title>
<path fill="none" stroke="#b6ecf3" d="M1275.8563,-1192.4054C1403.2723,-1224.8848 1695.1313,-1277.933 1875,-1142.3603 1928.0866,-1102.3473 1973.0622,-897.3768 1988.1216,-821.5822"/>
<polygon fill="#b6ecf3" stroke="#b6ecf3" points="1991.6341,-821.8583 1990.1238,-811.3717 1984.7649,-820.5113 1991.6341,-821.8583"/>
</g>
<!-- shekels.server.server_tools&#45;&gt;shekels.server.api -->
<g id="edge15" class="edge">
<title>shekels.server.server_tools&#45;&gt;shekels.server.api</title>
<path fill="none" stroke="#b6ecf3" d="M1529.5072,-699.3114C1578.044,-672.7707 1668.646,-623.228 1721.7446,-594.1928"/>
<polygon fill="#b6ecf3" stroke="#b6ecf3" points="1723.4735,-597.2366 1730.5682,-589.3679 1720.115,-591.0948 1723.4735,-597.2366"/>
</g>
<!-- shekels.server.server_tools&#45;&gt;shekels.server.app -->
<g id="edge16" class="edge">
<title>shekels.server.server_tools&#45;&gt;shekels.server.app</title>
<path fill="none" stroke="#b6ecf3" d="M1614.2821,-735.3712C1701.82,-748.7573 1819.6116,-766.7697 1900.5624,-779.1485"/>
<polygon fill="#b6ecf3" stroke="#b6ecf3" points="1900.3275,-782.6532 1910.7417,-780.7051 1901.3857,-775.7336 1900.3275,-782.6532"/>
</g>
<!-- dash.dependencies -->
<g id="node11" class="node">
<title>dash.dependencies</title>
<polygon fill="#343434" stroke="#343434" points="1842,-497.3603 1685,-497.3603 1685,-461.3603 1842,-461.3603 1842,-497.3603"/>
<text text-anchor="middle" x="1763.5" y="-475.6603" font-family="Courier,monospace" font-size="14.00" fill="#de958e">dash.dependencies</text>
</g>
<!-- dash.dependencies&#45;&gt;shekels.server.app -->
<g id="edge17" class="edge">
<title>dash.dependencies&#45;&gt;shekels.server.app</title>
<path fill="none" stroke="#de958e" d="M1842.1772,-492.2434C1854.1273,-496.8173 1865.589,-503.0018 1875,-511.3603 1952.5874,-580.2704 1980.7713,-708.2848 1989.7665,-765.0247"/>
<polygon fill="#de958e" stroke="#de958e" points="1986.3289,-765.7025 1991.2746,-775.0721 1993.2514,-764.6633 1986.3289,-765.7025"/>
</g>
<!-- flasgger -->
<g id="node12" class="node">
<title>flasgger</title>
<polygon fill="#343434" stroke="#343434" points="1538,-320.3603 1455,-320.3603 1455,-284.3603 1538,-284.3603 1538,-320.3603"/>
<text text-anchor="middle" x="1496.5" y="-298.6603" font-family="Courier,monospace" font-size="14.00" fill="#de958e">flasgger</text>
</g>
<!-- flasgger&#45;&gt;shekels.server.api -->
<g id="edge18" class="edge">
<title>flasgger&#45;&gt;shekels.server.api</title>
<path fill="none" stroke="#de958e" d="M1538.229,-302.7184C1564.2563,-305.2483 1596.4173,-312.9779 1616,-334.3603 1678.4773,-402.5792 1590.1337,-470.5868 1652,-539.3603 1657.5401,-545.5189 1664.1784,-550.5246 1671.419,-554.5888"/>
<polygon fill="#de958e" stroke="#de958e" points="1670.3581,-557.9679 1680.8752,-559.2492 1673.4526,-551.689 1670.3581,-557.9679"/>
</g>
<!-- flasgger&#45;&gt;shekels.server.app -->
<g id="edge19" class="edge">
<title>flasgger&#45;&gt;shekels.server.app</title>
<path fill="none" stroke="#de958e" d="M1538.2863,-302.9627C1564.1684,-305.6093 1596.1464,-313.3768 1616,-334.3603 1669.6772,-391.0922 1595.7475,-452.1809 1652,-506.3603 1724.4142,-576.1057 1794.822,-483.6995 1875,-544.3603 1948.4011,-599.8938 1978.3877,-712.4511 1988.7702,-765.0623"/>
<polygon fill="#de958e" stroke="#de958e" points="1985.3591,-765.862 1990.6447,-775.0442 1992.2389,-764.57 1985.3591,-765.862"/>
</g>
<!-- shekels.server -->
<g id="node13" class="node">
<title>shekels.server</title>
<polygon fill="#343434" stroke="#343434" points="1012,-1247.3603 880,-1247.3603 880,-1211.3603 1012,-1211.3603 1012,-1247.3603"/>
<text text-anchor="middle" x="946" y="-1225.6603" font-family="Courier,monospace" font-size="14.00" fill="#a0d17b">shekels.server</text>
</g>
<!-- shekels.server&#45;&gt;shekels.server.api -->
<g id="edge20" class="edge">
<title>shekels.server&#45;&gt;shekels.server.api</title>
<path fill="none" stroke="#a0d17b" d="M1007.9955,-1247.3844C1089.8058,-1267.4372 1235.7388,-1290.0058 1341,-1232.3603 1603.1379,-1088.8024 1726.3157,-705.6646 1756.1502,-599.1663"/>
<polygon fill="#a0d17b" stroke="#a0d17b" points="1759.5406,-600.0369 1758.8218,-589.4665 1752.7919,-598.1781 1759.5406,-600.0369"/>
</g>
<!-- shekels.server&#45;&gt;shekels.server.app -->
<g id="edge21" class="edge">
<title>shekels.server&#45;&gt;shekels.server.app</title>
<path fill="none" stroke="#a0d17b" d="M998.5384,-1247.3763C1153.8311,-1296.9768 1616.0018,-1417.8011 1875,-1197.3603 1933.7905,-1147.322 1976.2431,-904.7843 1989.2909,-821.5028"/>
<polygon fill="#a0d17b" stroke="#a0d17b" points="1992.7685,-821.9161 1990.836,-811.499 1985.8505,-820.8475 1992.7685,-821.9161"/>
</g>
<!-- shekels.server&#45;&gt;shekels.server.components -->
<g id="edge22" class="edge">
<title>shekels.server&#45;&gt;shekels.server.components</title>
<path fill="none" stroke="#a0d17b" d="M967.4047,-1211.0661C989.4915,-1191.5162 1024.1327,-1158.9178 1049,-1126.3603 1116.3893,-1038.1308 1175.5839,-919.3509 1200.4844,-866.5806"/>
<polygon fill="#a0d17b" stroke="#a0d17b" points="1203.6572,-868.0582 1204.729,-857.5177 1197.318,-865.0892 1203.6572,-868.0582"/>
</g>
<!-- shekels.server&#45;&gt;shekels.server.event_listener -->
<g id="edge23" class="edge">
<title>shekels.server&#45;&gt;shekels.server.event_listener</title>
<path fill="none" stroke="#a0d17b" d="M1012,-1215.7648C1043.2026,-1209.3373 1081.0813,-1201.5345 1115.5074,-1194.443"/>
<polygon fill="#a0d17b" stroke="#a0d17b" points="1116.5034,-1197.8114 1125.5915,-1192.3658 1115.091,-1190.9554 1116.5034,-1197.8114"/>
</g>
<!-- shekels.server&#45;&gt;shekels.server.server_tools -->
<g id="edge24" class="edge">
<title>shekels.server&#45;&gt;shekels.server.server_tools</title>
<path fill="none" stroke="#a0d17b" d="M1012.3733,-1233.32C1111.4243,-1237.8219 1291.5803,-1240.1405 1341,-1201.3603 1415.7952,-1142.6675 1474.8331,-839.9615 1491.6606,-745.5304"/>
<polygon fill="#a0d17b" stroke="#a0d17b" points="1495.1279,-746.022 1493.4166,-735.5663 1488.2341,-744.8071 1495.1279,-746.022"/>
</g>
<!-- shekels -->
<g id="node14" class="node">
<title>shekels</title>
<polygon fill="#343434" stroke="#343434" points="181.5,-451.3603 107.5,-451.3603 107.5,-415.3603 181.5,-415.3603 181.5,-451.3603"/>
<text text-anchor="middle" x="144.5" y="-429.6603" font-family="Courier,monospace" font-size="14.00" fill="#a0d17b">shekels</text>
</g>
<!-- shekels&#45;&gt;shekels.server -->
<g id="edge25" class="edge">
<title>shekels&#45;&gt;shekels.server</title>
<path fill="none" stroke="#a0d17b" d="M181.5634,-428.9263C214.8635,-427.2176 262.4809,-430.8366 289,-460.3603 357.9617,-537.1353 267.8416,-837.4356 325,-923.3603 451.8843,-1114.102 734.0803,-1190.4429 869.9738,-1216.9985"/>
<polygon fill="#a0d17b" stroke="#a0d17b" points="869.4164,-1220.4553 879.8964,-1218.8997 870.7337,-1213.5804 869.4164,-1220.4553"/>
</g>
<!-- shekels.enforce -->
<g id="node21" class="node">
<title>shekels.enforce</title>
<polygon fill="#343434" stroke="#343434" points="490,-347.3603 350,-347.3603 350,-311.3603 490,-311.3603 490,-347.3603"/>
<text text-anchor="middle" x="420" y="-325.6603" font-family="Courier,monospace" font-size="14.00" fill="#a0d17b">shekels.enforce</text>
</g>
<!-- shekels&#45;&gt;shekels.enforce -->
<g id="edge26" class="edge">
<title>shekels&#45;&gt;shekels.enforce</title>
<path fill="none" stroke="#a0d17b" d="M181.6715,-429.9946C211.4334,-426.4589 253.8634,-419.5079 289,-406.3603 324.3631,-393.128 361.1314,-370.6234 386.6802,-353.3506"/>
<polygon fill="#a0d17b" stroke="#a0d17b" points="388.9647,-356.0278 395.2286,-347.483 385.0032,-350.2566 388.9647,-356.0278"/>
</g>
<!-- shekels.core -->
<g id="node26" class="node">
<title>shekels.core</title>
<polygon fill="#343434" stroke="#343434" points="478,-451.3603 362,-451.3603 362,-415.3603 478,-415.3603 478,-451.3603"/>
<text text-anchor="middle" x="420" y="-429.6603" font-family="Courier,monospace" font-size="14.00" fill="#a0d17b">shekels.core</text>
</g>
<!-- shekels&#45;&gt;shekels.core -->
<g id="edge27" class="edge">
<title>shekels&#45;&gt;shekels.core</title>
<path fill="none" stroke="#a0d17b" d="M181.6552,-433.3603C225.1194,-433.3603 297.9631,-433.3603 351.7047,-433.3603"/>
<polygon fill="#a0d17b" stroke="#a0d17b" points="351.8445,-436.8604 361.8445,-433.3603 351.8444,-429.8604 351.8445,-436.8604"/>
</g>
<!-- dash -->
<g id="node15" class="node">
<title>dash</title>
<polygon fill="#343434" stroke="#343434" points="973,-1117.3603 919,-1117.3603 919,-1081.3603 973,-1081.3603 973,-1117.3603"/>
<text text-anchor="middle" x="946" y="-1095.6603" font-family="Courier,monospace" font-size="14.00" fill="#de958e">dash</text>
</g>
<!-- dash&#45;&gt;shekels.server.app -->
<g id="edge28" class="edge">
<title>dash&#45;&gt;shekels.server.app</title>
<path fill="none" stroke="#de958e" d="M973.319,-1100.108C1090.4802,-1102.1079 1558.8279,-1097.6885 1875,-913.3603 1916.2616,-889.3048 1953.0537,-847.182 1974.3188,-819.7845"/>
<polygon fill="#de958e" stroke="#de958e" points="1977.1324,-821.8668 1980.4075,-811.7909 1971.5638,-817.6252 1977.1324,-821.8668"/>
</g>
<!-- dash&#45;&gt;shekels.server.components -->
<g id="edge29" class="edge">
<title>dash&#45;&gt;shekels.server.components</title>
<path fill="none" stroke="#de958e" d="M973.2792,-1098.294C995.8076,-1096.1005 1027.4692,-1089.8341 1049,-1072.3603 1076.7797,-1049.815 1065.7636,-1030.5258 1085,-1000.3603 1117.2531,-949.7826 1162.2943,-896.2563 1189.452,-865.4301"/>
<polygon fill="#de958e" stroke="#de958e" points="1192.2659,-867.5322 1196.2823,-857.7281 1187.0286,-862.8876 1192.2659,-867.5322"/>
</g>
<!-- dash&#45;&gt;shekels.server.event_listener -->
<g id="edge30" class="edge">
<title>dash&#45;&gt;shekels.server.event_listener</title>
<path fill="none" stroke="#de958e" d="M973.0707,-1106.9644C1011.654,-1117.8024 1083.8939,-1138.0945 1139.063,-1153.5915"/>
<polygon fill="#de958e" stroke="#de958e" points="1138.2308,-1156.9931 1148.8047,-1156.3279 1140.1238,-1150.2539 1138.2308,-1156.9931"/>
</g>
<!-- dash&#45;&gt;shekels.server.server_tools -->
<g id="edge31" class="edge">
<title>dash&#45;&gt;shekels.server.server_tools</title>
<path fill="none" stroke="#de958e" d="M973.2394,-1095.4841C1041.9863,-1084.4886 1225.2703,-1047.5029 1341,-952.3603 1412.5934,-893.5026 1463.3832,-793.0609 1484.9521,-744.8154"/>
<polygon fill="#de958e" stroke="#de958e" points="1488.1748,-746.1813 1488.9911,-735.6179 1481.7656,-743.3667 1488.1748,-746.1813"/>
</g>
<!-- dash.exceptions -->
<g id="node16" class="node">
<title>dash.exceptions</title>
<polygon fill="#343434" stroke="#343434" points="1283,-689.3603 1143,-689.3603 1143,-653.3603 1283,-653.3603 1283,-689.3603"/>
<text text-anchor="middle" x="1213" y="-667.6603" font-family="Courier,monospace" font-size="14.00" fill="#de958e">dash.exceptions</text>
</g>
<!-- dash.exceptions&#45;&gt;shekels.server.server_tools -->
<g id="edge32" class="edge">
<title>dash.exceptions&#45;&gt;shekels.server.server_tools</title>
<path fill="none" stroke="#de958e" d="M1283.0787,-682.7311C1310.8946,-687.2444 1343.7073,-692.5685 1375.1519,-697.6706"/>
<polygon fill="#de958e" stroke="#de958e" points="1374.8736,-701.1712 1385.3051,-699.3181 1375.9948,-694.2615 1374.8736,-701.1712"/>
</g>
<!-- jinja2 -->
<g id="node17" class="node">
<title>jinja2</title>
<polygon fill="#343434" stroke="#343434" points="1246,-635.3603 1180,-635.3603 1180,-599.3603 1246,-599.3603 1246,-635.3603"/>
<text text-anchor="middle" x="1213" y="-613.6603" font-family="Courier,monospace" font-size="14.00" fill="#de958e">jinja2</text>
</g>
<!-- jinja2&#45;&gt;shekels.server.server_tools -->
<g id="edge33" class="edge">
<title>jinja2&#45;&gt;shekels.server.server_tools</title>
<path fill="none" stroke="#de958e" d="M1246.1749,-622.1947C1272.3489,-626.5227 1309.5605,-633.8228 1341,-644.3603 1380.8489,-657.7164 1423.9463,-678.4888 1454.6406,-694.4653"/>
<polygon fill="#de958e" stroke="#de958e" points="1453.271,-697.6995 1463.7509,-699.256 1456.529,-691.5039 1453.271,-697.6995"/>
</g>
<!-- flask -->
<g id="node18" class="node">
<title>flask</title>
<polygon fill="#343434" stroke="#343434" points="975,-673.3603 917,-673.3603 917,-637.3603 975,-637.3603 975,-673.3603"/>
<text text-anchor="middle" x="946" y="-651.6603" font-family="Courier,monospace" font-size="14.00" fill="#de958e">flask</text>
</g>
<!-- flask&#45;&gt;shekels.server.api -->
<g id="edge34" class="edge">
<title>flask&#45;&gt;shekels.server.api</title>
<path fill="none" stroke="#de958e" d="M975.0736,-637.4376C1002.3398,-621.7026 1044.8208,-599.8827 1085,-590.3603 1289.6488,-541.8588 1538.7294,-551.75 1670.8204,-562.1885"/>
<polygon fill="#de958e" stroke="#de958e" points="1670.6533,-565.6864 1680.903,-563.0045 1671.218,-558.7092 1670.6533,-565.6864"/>
</g>
<!-- flask&#45;&gt;shekels.server.app -->
<g id="edge35" class="edge">
<title>flask&#45;&gt;shekels.server.app</title>
<path fill="none" stroke="#de958e" d="M975.2657,-655.0372C997.7452,-656.2745 1028.3415,-661.3655 1049,-678.3603 1079.7376,-703.6466 1052.0762,-737.9947 1085,-760.3603 1151.1854,-805.3209 1682.5518,-799.7593 1900.6185,-795.5039"/>
<polygon fill="#de958e" stroke="#de958e" points="1900.8342,-799.0004 1910.7627,-795.3025 1900.6951,-792.0018 1900.8342,-799.0004"/>
</g>
<!-- flask&#45;&gt;shekels.server.components -->
<g id="edge36" class="edge">
<title>flask&#45;&gt;shekels.server.components</title>
<path fill="none" stroke="#de958e" d="M975.1161,-657.1268C998.1212,-660.0502 1029.4998,-667.6687 1049,-687.3603 1088.1801,-726.925 1044.7229,-768.913 1085,-807.3603 1088.3048,-810.5149 1091.8715,-813.3722 1095.6395,-815.9594"/>
<polygon fill="#de958e" stroke="#de958e" points="1093.8317,-818.9565 1104.1858,-821.2022 1097.4921,-812.9897 1093.8317,-818.9565"/>
</g>
<!-- flask&#45;&gt;shekels.server.server_tools -->
<g id="edge37" class="edge">
<title>flask&#45;&gt;shekels.server.server_tools</title>
<path fill="none" stroke="#de958e" d="M975.0555,-659.7212C996.8467,-664.0471 1026.6417,-672.2881 1049,-687.3603 1069.951,-701.4838 1062.167,-720.5402 1085,-731.3603 1196.0684,-783.9933 1343.5716,-759.6089 1428.4624,-737.921"/>
<polygon fill="#de958e" stroke="#de958e" points="1429.4563,-741.2789 1438.2453,-735.3626 1427.6851,-734.5067 1429.4563,-741.2789"/>
</g>
<!-- dash_core_components -->
<g id="node19" class="node">
<title>dash_core_components</title>
<polygon fill="#343434" stroke="#343434" points="1037,-1063.3603 855,-1063.3603 855,-1027.3603 1037,-1027.3603 1037,-1063.3603"/>
<text text-anchor="middle" x="946" y="-1041.6603" font-family="Courier,monospace" font-size="14.00" fill="#de958e">dash_core_components</text>
</g>
<!-- dash_core_components&#45;&gt;shekels.server.app -->
<g id="edge38" class="edge">
<title>dash_core_components&#45;&gt;shekels.server.app</title>
<path fill="none" stroke="#de958e" d="M1037.0578,-1038.5293C1206.9879,-1023.4352 1581.7406,-979.0079 1875,-864.3603 1905.6999,-852.3584 1937.592,-832.7785 1960.5472,-817.2171"/>
<polygon fill="#de958e" stroke="#de958e" points="1962.6356,-820.0286 1968.8863,-811.474 1958.6652,-814.2635 1962.6356,-820.0286"/>
</g>
<!-- dash_core_components&#45;&gt;shekels.server.components -->
<g id="edge39" class="edge">
<title>dash_core_components&#45;&gt;shekels.server.components</title>
<path fill="none" stroke="#de958e" d="M1031.1001,-1027.3176C1037.3388,-1024.7183 1043.3805,-1021.7497 1049,-1018.3603 1114.3209,-978.9617 1169.2526,-905.801 1195.8353,-866.3102"/>
<polygon fill="#de958e" stroke="#de958e" points="1199.069,-867.7663 1201.6728,-857.4964 1193.2329,-863.901 1199.069,-867.7663"/>
</g>
<!-- schematics.models -->
<g id="node20" class="node">
<title>schematics.models</title>
<polygon fill="#343434" stroke="#343434" points="498.5,-860.3603 341.5,-860.3603 341.5,-824.3603 498.5,-824.3603 498.5,-860.3603"/>
<text text-anchor="middle" x="420" y="-838.6603" font-family="Courier,monospace" font-size="14.00" fill="#de958e">schematics.models</text>
</g>
<!-- schematics.models&#45;&gt;shekels.core.config -->
<g id="edge40" class="edge">
<title>schematics.models&#45;&gt;shekels.core.config</title>
<path fill="none" stroke="#de958e" d="M498.7634,-850.5711C525.1406,-853.3209 554.8536,-856.4184 582.4322,-859.2934"/>
<polygon fill="#de958e" stroke="#de958e" points="582.177,-862.7856 592.486,-860.3414 582.9028,-855.8234 582.177,-862.7856"/>
</g>
<!-- shekels.enforce&#45;&gt;shekels.enforce.enforce_tools -->
<g id="edge41" class="edge">
<title>shekels.enforce&#45;&gt;shekels.enforce.enforce_tools</title>
<path fill="none" stroke="#a0d17b" d="M490.0891,-315.8296C516.3555,-310.7588 546.785,-304.8844 575.4464,-299.3513"/>
<polygon fill="#a0d17b" stroke="#a0d17b" points="576.3455,-302.7425 585.5008,-297.4103 575.0186,-295.8694 576.3455,-302.7425"/>
</g>
<!-- pandas -->
<g id="node22" class="node">
<title>pandas</title>
<polygon fill="#343434" stroke="#343434" points="453,-159.3603 387,-159.3603 387,-123.3603 453,-123.3603 453,-159.3603"/>
<text text-anchor="middle" x="420" y="-137.6603" font-family="Courier,monospace" font-size="14.00" fill="#de958e">pandas</text>
</g>
<!-- pandas&#45;&gt;shekels.core.data_tools -->
<g id="edge42" class="edge">
<title>pandas&#45;&gt;shekels.core.data_tools</title>
<path fill="none" stroke="#de958e" d="M445.7726,-159.4392C471.282,-176.4105 512.0547,-201.1128 551,-214.3603 659.8968,-251.4021 708.462,-193.0232 807,-252.3603 871.2573,-291.0544 914.9956,-371.8813 934.4844,-414.2009"/>
<polygon fill="#de958e" stroke="#de958e" points="931.3047,-415.6639 938.5955,-423.3512 937.6899,-412.7951 931.3047,-415.6639"/>
</g>
<!-- pandas&#45;&gt;shekels.core.database -->
<g id="edge43" class="edge">
<title>pandas&#45;&gt;shekels.core.database</title>
<path fill="none" stroke="#de958e" d="M435.0263,-123.1018C457.2555,-97.6946 501.6324,-52.8318 551,-35.3603 658.2588,2.5993 707.3553,19.5608 807,-35.3603 833.241,-49.8235 817.9892,-75.8607 843,-92.3603 920.3981,-143.4196 982.2177,-61.0357 1049,-125.3603 1108.0739,-182.2601 1028.8672,-246.5571 1085,-306.3603 1091.7154,-313.5147 1099.7489,-319.2287 1108.4744,-323.7837"/>
<polygon fill="#de958e" stroke="#de958e" points="1107.2488,-327.0738 1117.7917,-328.1226 1110.204,-320.7282 1107.2488,-327.0738"/>
</g>
<!-- pandas&#45;&gt;shekels.enforce.enforce_tools -->
<g id="edge44" class="edge">
<title>pandas&#45;&gt;shekels.enforce.enforce_tools</title>
<path fill="none" stroke="#de958e" d="M437.2849,-159.618C460.7908,-183.3665 505.1842,-224.51 551,-247.3603 559.1288,-251.4145 567.8107,-254.9805 576.6793,-258.1123"/>
<polygon fill="#de958e" stroke="#de958e" points="575.7649,-261.4968 586.3586,-261.3427 577.981,-254.8569 575.7649,-261.4968"/>
</g>
<!-- pandas&#45;&gt;shekels.server.components -->
<g id="edge45" class="edge">
<title>pandas&#45;&gt;shekels.server.components</title>
<path fill="none" stroke="#de958e" d="M453.1459,-127.3827C522.7315,-100.3082 687.4708,-48.2649 807,-106.3603 963.5742,-182.4608 981.8441,-253.7463 1049,-414.3603 1098.0808,-531.7448 1031.7758,-582.7954 1085,-698.3603 1107.0907,-746.3256 1151.4445,-789.3267 1181.6803,-814.8859"/>
<polygon fill="#de958e" stroke="#de958e" points="1179.4917,-817.6178 1189.4219,-821.3112 1183.9623,-812.2313 1179.4917,-817.6178"/>
</g>
<!-- lunchbox.enforce -->
<g id="node23" class="node">
<title>lunchbox.enforce</title>
<polygon fill="#343434" stroke="#343434" points="494.5,-573.3603 345.5,-573.3603 345.5,-537.3603 494.5,-537.3603 494.5,-573.3603"/>
<text text-anchor="middle" x="420" y="-551.6603" font-family="Courier,monospace" font-size="14.00" fill="#de958e">lunchbox.enforce</text>
</g>
<!-- lunchbox.enforce&#45;&gt;shekels.core.data_tools -->
<g id="edge46" class="edge">
<title>lunchbox.enforce&#45;&gt;shekels.core.data_tools</title>
<path fill="none" stroke="#de958e" d="M494.6865,-550.157C590.6864,-542.7379 751.5973,-527.624 807,-506.3603 825.1862,-499.3804 825.8006,-490.5056 843,-481.3603 855.539,-474.6929 869.4396,-468.5367 882.8655,-463.1535"/>
<polygon fill="#de958e" stroke="#de958e" points="884.4927,-466.2753 892.5315,-459.374 881.9436,-459.756 884.4927,-466.2753"/>
</g>
<!-- lunchbox.enforce&#45;&gt;shekels.enforce.enforce_tools -->
<g id="edge47" class="edge">
<title>lunchbox.enforce&#45;&gt;shekels.enforce.enforce_tools</title>
<path fill="none" stroke="#de958e" d="M444.9121,-537.0848C466.7102,-519.7545 497.5424,-491.7527 515,-460.3603 549.1616,-398.9304 500.7601,-355.5191 551,-306.3603 551.9588,-305.4222 552.9414,-304.5129 553.9463,-303.6318"/>
<polygon fill="#de958e" stroke="#de958e" points="556.2527,-306.2739 562.0604,-297.4127 551.9944,-300.7181 556.2527,-306.2739"/>
</g>
<!-- lunchbox.enforce&#45;&gt;shekels.server.components -->
<g id="edge48" class="edge">
<title>lunchbox.enforce&#45;&gt;shekels.server.components</title>
<path fill="none" stroke="#de958e" d="M465.7805,-573.4024C483.5924,-582.5719 502.6484,-595.42 515,-612.3603 556.4114,-669.1559 498.3225,-719.8229 551,-766.3603 561.4257,-775.5708 1035.1784,-817.7821 1049,-819.3603 1062.6445,-820.9182 1076.9218,-822.593 1091.118,-824.2864"/>
<polygon fill="#de958e" stroke="#de958e" points="1091.0851,-827.8074 1101.4304,-825.5214 1091.9175,-820.8571 1091.0851,-827.8074"/>
</g>
<!-- lunchbox.enforce&#45;&gt;shekels.server.event_listener -->
<g id="edge49" class="edge">
<title>lunchbox.enforce&#45;&gt;shekels.server.event_listener</title>
<path fill="none" stroke="#de958e" d="M468.1486,-573.5503C485.6543,-582.5796 503.857,-595.2867 515,-612.3603 584.5381,-718.9084 492.0386,-783.6145 551,-896.3603 631.939,-1051.1316 681.2496,-1093.4657 843,-1159.3603 915.6429,-1188.9539 1003.0886,-1193.7458 1074.7256,-1190.655"/>
<polygon fill="#de958e" stroke="#de958e" points="1074.9078,-1194.1504 1084.7258,-1190.1683 1074.5675,-1187.1586 1074.9078,-1194.1504"/>
</g>
<!-- dash_html_components -->
<g id="node24" class="node">
<title>dash_html_components</title>
<polygon fill="#343434" stroke="#343434" points="1037,-879.3603 855,-879.3603 855,-843.3603 1037,-843.3603 1037,-879.3603"/>
<text text-anchor="middle" x="946" y="-857.6603" font-family="Courier,monospace" font-size="14.00" fill="#de958e">dash_html_components</text>
</g>
<!-- dash_html_components&#45;&gt;shekels.server.components -->
<g id="edge50" class="edge">
<title>dash_html_components&#45;&gt;shekels.server.components</title>
<path fill="none" stroke="#de958e" d="M1037.1395,-853.8507C1054.6022,-852.4118 1073.1438,-850.884 1091.3869,-849.3808"/>
<polygon fill="#de958e" stroke="#de958e" points="1091.8038,-852.8584 1101.4825,-848.549 1091.2289,-845.8821 1091.8038,-852.8584"/>
</g>
<!-- numpy -->
<g id="node25" class="node">
<title>numpy</title>
<polygon fill="#343434" stroke="#343434" points="708,-205.3603 650,-205.3603 650,-169.3603 708,-169.3603 708,-205.3603"/>
<text text-anchor="middle" x="679" y="-183.6603" font-family="Courier,monospace" font-size="14.00" fill="#de958e">numpy</text>
</g>
<!-- numpy&#45;&gt;shekels.core.data_tools -->
<g id="edge51" class="edge">
<title>numpy&#45;&gt;shekels.core.data_tools</title>
<path fill="none" stroke="#de958e" d="M708.0383,-188.4877C735.8227,-190.8868 777.7174,-198.0913 807,-219.3603 876.2398,-269.6516 918.7964,-365.9723 936.4832,-413.4702"/>
<polygon fill="#de958e" stroke="#de958e" points="933.2757,-414.8922 939.9755,-423.0997 939.8563,-412.5055 933.2757,-414.8922"/>
</g>
<!-- numpy&#45;&gt;shekels.core.database -->
<g id="edge52" class="edge">
<title>numpy&#45;&gt;shekels.core.database</title>
<path fill="none" stroke="#de958e" d="M708.1191,-194.0713C734.1561,-200.2068 773.2935,-209.7624 807,-219.3603 931.7731,-254.8892 960.2269,-272.8314 1085,-308.3603 1098.6933,-312.2594 1113.2829,-316.1516 1127.5263,-319.8103"/>
<polygon fill="#de958e" stroke="#de958e" points="1126.7621,-323.2273 1137.3165,-322.3032 1128.4894,-316.4438 1126.7621,-323.2273"/>
</g>
<!-- shekels.core&#45;&gt;shekels.core.config -->
<g id="edge53" class="edge">
<title>shekels.core&#45;&gt;shekels.core.config</title>
<path fill="none" stroke="#a0d17b" d="M445.9466,-451.6519C468.1186,-468.795 498.9092,-496.5069 515,-528.3603 563.2365,-623.8494 497.6889,-673.6086 551,-766.3603 570.7729,-800.7615 606.8525,-828.1895 635.6783,-846.0648"/>
<polygon fill="#a0d17b" stroke="#a0d17b" points="633.9943,-849.1364 644.3653,-851.3027 637.6088,-843.1418 633.9943,-849.1364"/>
</g>
<!-- shekels.core&#45;&gt;shekels.core.data_tools -->
<g id="edge54" class="edge">
<title>shekels.core&#45;&gt;shekels.core.data_tools</title>
<path fill="none" stroke="#a0d17b" d="M478.0482,-434.2431C563.1596,-435.5376 723.5088,-437.9764 832.5262,-439.6344"/>
<polygon fill="#a0d17b" stroke="#a0d17b" points="832.5302,-443.1348 842.5823,-439.7874 832.6367,-436.1356 832.5302,-443.1348"/>
</g>
<!-- shekels.core&#45;&gt;shekels.core.database -->
<g id="edge55" class="edge">
<title>shekels.core&#45;&gt;shekels.core.database</title>
<path fill="none" stroke="#a0d17b" d="M453.19,-415.3105C474.4428,-401.9277 500.6404,-381.6539 515,-356.3603 570.4218,-258.738 466.1537,-179.8639 551,-106.3603 636.9956,-31.861 696.5598,-79.0044 807,-106.3603 824.561,-110.7101 826.9082,-117.0921 843,-125.3603 934.0471,-172.1412 977.7583,-154.8575 1049,-228.3603 1075.573,-255.7766 1055.7733,-281.7924 1085,-306.3603 1092.0443,-312.2817 1100.0147,-317.1827 1108.4494,-321.2375"/>
<polygon fill="#a0d17b" stroke="#a0d17b" points="1107.1979,-324.5103 1117.7622,-325.3136 1110.0046,-318.0976 1107.1979,-324.5103"/>
</g>
<!-- schematics.types -->
<g id="node27" class="node">
<title>schematics.types</title>
<polygon fill="#343434" stroke="#343434" points="494.5,-914.3603 345.5,-914.3603 345.5,-878.3603 494.5,-878.3603 494.5,-914.3603"/>
<text text-anchor="middle" x="420" y="-892.6603" font-family="Courier,monospace" font-size="14.00" fill="#de958e">schematics.types</text>
</g>
<!-- schematics.types&#45;&gt;shekels.core.config -->
<g id="edge56" class="edge">
<title>schematics.types&#45;&gt;shekels.core.config</title>
<path fill="none" stroke="#de958e" d="M494.5661,-888.587C521.8367,-885.7441 553.0969,-882.4853 582.0386,-879.4682"/>
<polygon fill="#de958e" stroke="#de958e" points="582.5854,-882.9303 592.1686,-878.4122 581.8596,-875.968 582.5854,-882.9303"/>
</g>
<!-- cufflinks -->
<g id="node28" class="node">
<title>cufflinks</title>
<polygon fill="#343434" stroke="#343434" points="724.5,-497.3603 633.5,-497.3603 633.5,-461.3603 724.5,-461.3603 724.5,-497.3603"/>
<text text-anchor="middle" x="679" y="-475.6603" font-family="Courier,monospace" font-size="14.00" fill="#de958e">cufflinks</text>
</g>
<!-- cufflinks&#45;&gt;shekels.core.data_tools -->
<g id="edge57" class="edge">
<title>cufflinks&#45;&gt;shekels.core.data_tools</title>
<path fill="none" stroke="#de958e" d="M724.5956,-472.871C754.4014,-468.629 794.7311,-462.8892 832.8046,-457.4705"/>
<polygon fill="#de958e" stroke="#de958e" points="833.5413,-460.901 842.9484,-456.0268 832.555,-453.9708 833.5413,-460.901"/>
</g>
<!-- dash_table -->
<g id="node29" class="node">
<title>dash_table</title>
<polygon fill="#343434" stroke="#343434" points="995.5,-1009.3603 896.5,-1009.3603 896.5,-973.3603 995.5,-973.3603 995.5,-1009.3603"/>
<text text-anchor="middle" x="946" y="-987.6603" font-family="Courier,monospace" font-size="14.00" fill="#de958e">dash_table</text>
</g>
<!-- dash_table&#45;&gt;shekels.server.app -->
<g id="edge58" class="edge">
<title>dash_table&#45;&gt;shekels.server.app</title>
<path fill="none" stroke="#de958e" d="M995.7508,-984.6618C1135.4148,-965.4223 1542.6095,-906.3421 1875,-828.3603 1892.1089,-824.3464 1910.4029,-819.3173 1927.3713,-814.3337"/>
<polygon fill="#de958e" stroke="#de958e" points="1928.6031,-817.619 1937.19,-811.4128 1926.6071,-810.9095 1928.6031,-817.619"/>
</g>
<!-- dash_table&#45;&gt;shekels.server.components -->
<g id="edge59" class="edge">
<title>dash_table&#45;&gt;shekels.server.components</title>
<path fill="none" stroke="#de958e" d="M977.6769,-973.327C1026.2532,-945.6731 1119.1121,-892.8096 1172.5094,-862.4111"/>
<polygon fill="#de958e" stroke="#de958e" points="1174.4055,-865.3592 1181.3643,-857.3701 1170.9423,-859.2759 1174.4055,-865.3592"/>
</g>
<!-- lunchbox.tools -->
<g id="node30" class="node">
<title>lunchbox.tools</title>
<polygon fill="#343434" stroke="#343434" points="745,-757.3603 613,-757.3603 613,-721.3603 745,-721.3603 745,-757.3603"/>
<text text-anchor="middle" x="679" y="-735.6603" font-family="Courier,monospace" font-size="14.00" fill="#de958e">lunchbox.tools</text>
</g>
<!-- lunchbox.tools&#45;&gt;shekels.core.data_tools -->
<g id="edge60" class="edge">
<title>lunchbox.tools&#45;&gt;shekels.core.data_tools</title>
<path fill="none" stroke="#de958e" d="M745.2624,-739.2588C767.4677,-735.9283 790.6973,-728.335 807,-712.3603 857.5139,-662.8626 810.5201,-620.1833 843,-557.3603 861.4469,-521.6801 893.3584,-488.2026 916.7852,-466.4713"/>
<polygon fill="#de958e" stroke="#de958e" points="919.3331,-468.8849 924.3729,-459.5656 914.6215,-463.708 919.3331,-468.8849"/>
</g>
<!-- lunchbox.tools&#45;&gt;shekels.server.components -->
<g id="edge61" class="edge">
<title>lunchbox.tools&#45;&gt;shekels.server.components</title>
<path fill="none" stroke="#de958e" d="M745.32,-728.4723C822.764,-719.0581 952.5386,-713.7626 1049,-763.3603 1071.4707,-774.914 1063.6601,-793.8315 1085,-807.3603 1091.0517,-811.1968 1097.5356,-814.5736 1104.2557,-817.5456"/>
<polygon fill="#de958e" stroke="#de958e" points="1102.9671,-820.8 1113.5476,-821.3527 1105.6211,-814.3226 1102.9671,-820.8"/>
</g>
<!-- lunchbox.tools&#45;&gt;shekels.server.server_tools -->
<g id="edge62" class="edge">
<title>lunchbox.tools&#45;&gt;shekels.server.server_tools</title>
<path fill="none" stroke="#de958e" d="M745.0915,-737.3848C766.7665,-733.813 789.7027,-726.5464 807,-712.3603 838.4061,-686.6031 809.0909,-650.7198 843,-628.3603 919.4343,-577.9598 970.846,-580.6699 1049,-628.3603 1078.8634,-646.5832 1055.5649,-679.4533 1085,-698.3603 1130.1677,-727.3727 1263.8746,-728.8918 1366.7436,-725.1859"/>
<polygon fill="#de958e" stroke="#de958e" points="1367.0534,-728.6768 1376.9131,-724.7992 1366.7873,-721.6818 1367.0534,-728.6768"/>
</g>
<!-- pandasql -->
<g id="node31" class="node">
<title>pandasql</title>
<polygon fill="#343434" stroke="#343434" points="720.5,-151.3603 637.5,-151.3603 637.5,-115.3603 720.5,-115.3603 720.5,-151.3603"/>
<text text-anchor="middle" x="679" y="-129.6603" font-family="Courier,monospace" font-size="14.00" fill="#de958e">pandasql</text>
</g>
<!-- pandasql&#45;&gt;shekels.core.data_tools -->
<g id="edge63" class="edge">
<title>pandasql&#45;&gt;shekels.core.data_tools</title>
<path fill="none" stroke="#de958e" d="M720.5216,-132.8262C747.7686,-134.539 782.7195,-140.9036 807,-160.3603 837.1101,-184.4885 826.2323,-204.6093 843,-239.3603 873.437,-302.4406 911.3187,-375.4115 931.5948,-414.0549"/>
<polygon fill="#de958e" stroke="#de958e" points="928.6048,-415.8891 936.3551,-423.1129 934.8012,-412.6327 928.6048,-415.8891"/>
</g>
<!-- pandasql&#45;&gt;shekels.server.api -->
<g id="edge64" class="edge">
<title>pandasql&#45;&gt;shekels.server.api</title>
<path fill="none" stroke="#de958e" d="M701.164,-115.3347C731.1723,-92.2102 787.3904,-53.3037 843,-38.3603 931.4188,-14.6004 962.4282,-8.5652 1049,-38.3603 1204.6905,-91.9437 1233.2367,-141.8702 1341,-266.3603 1362.1065,-290.7429 1350.5064,-310.9731 1377,-329.3603 1465.4192,-390.7251 1538.1756,-294.0167 1616,-368.3603 1672.1597,-422.0081 1599.0937,-482.5014 1652,-539.3603 1657.5947,-545.3729 1664.2364,-550.282 1671.4497,-554.2865"/>
<polygon fill="#de958e" stroke="#de958e" points="1670.3357,-557.638 1680.8563,-558.8901 1673.4128,-551.3505 1670.3357,-557.638"/>
</g>
<!-- schematics.exceptions -->
<g id="node32" class="node">
<title>schematics.exceptions</title>
<polygon fill="#343434" stroke="#343434" points="515,-657.3603 325,-657.3603 325,-621.3603 515,-621.3603 515,-657.3603"/>
<text text-anchor="middle" x="420" y="-635.6603" font-family="Courier,monospace" font-size="14.00" fill="#de958e">schematics.exceptions</text>
</g>
<!-- schematics.exceptions&#45;&gt;shekels.core.config -->
<g id="edge65" class="edge">
<title>schematics.exceptions&#45;&gt;shekels.core.config</title>
<path fill="none" stroke="#de958e" d="M426.6319,-657.3924C442.0216,-696.6232 484.0361,-789.9937 551,-837.3603 560.5695,-844.1292 571.4277,-849.4707 582.677,-853.6848"/>
<polygon fill="#de958e" stroke="#de958e" points="581.604,-857.017 592.1987,-856.9662 583.8847,-850.399 581.604,-857.017"/>
</g>
<!-- schematics.exceptions&#45;&gt;shekels.core.data_tools -->
<g id="edge66" class="edge">
<title>schematics.exceptions&#45;&gt;shekels.core.data_tools</title>
<path fill="none" stroke="#de958e" d="M459.426,-621.3549C485.0705,-610.2359 519.4855,-596.4129 551,-587.3603 662.1832,-555.4226 711.673,-605.8927 807,-540.3603 832.3137,-522.9584 819.4398,-501.0713 843,-481.3603 851.3358,-474.3863 861.0269,-468.54 871.065,-463.6639"/>
<polygon fill="#de958e" stroke="#de958e" points="872.6895,-466.7704 880.3524,-459.454 869.7994,-460.3948 872.6895,-466.7704"/>
</g>
<!-- schematics.exceptions&#45;&gt;shekels.server.api -->
<g id="edge67" class="edge">
<title>schematics.exceptions&#45;&gt;shekels.server.api</title>
<path fill="none" stroke="#de958e" d="M515.0802,-621.4602C527.1575,-619.3281 539.3593,-617.243 551,-615.3603 914.5568,-556.5599 1008.8196,-557.974 1377,-549.3603 1483.1932,-546.8758 1510.0687,-541.5038 1616,-549.3603 1633.7553,-550.6771 1652.6146,-552.8739 1670.7038,-555.3829"/>
<polygon fill="#de958e" stroke="#de958e" points="1670.2678,-558.8561 1680.6622,-556.8053 1671.2576,-551.9264 1670.2678,-558.8561"/>
</g>
<!-- schematics.exceptions&#45;&gt;shekels.server.components -->
<g id="edge68" class="edge">
<title>schematics.exceptions&#45;&gt;shekels.server.components</title>
<path fill="none" stroke="#de958e" d="M428.4171,-657.3908C445.7309,-692.121 488.9851,-767.6606 551,-799.3603 574.5946,-811.421 906.66,-826.8232 1091.2942,-834.5223"/>
<polygon fill="#de958e" stroke="#de958e" points="1091.1961,-838.0212 1101.3328,-834.9394 1091.4867,-831.0272 1091.1961,-838.0212"/>
</g>
<!-- schematics.exceptions&#45;&gt;shekels.server.server_tools -->
<g id="edge69" class="edge">
<title>schematics.exceptions&#45;&gt;shekels.server.server_tools</title>
<path fill="none" stroke="#de958e" d="M515.1237,-648.7696C595.5297,-653.1806 712.3936,-651.1314 807,-615.3603 825.9598,-608.1915 823.8274,-593.9386 843,-587.3603 881.4345,-574.1731 1303.0368,-576.6074 1341,-590.3603 1396.9556,-610.6313 1447.443,-660.3567 1474.8652,-691.2293"/>
<polygon fill="#de958e" stroke="#de958e" points="1472.444,-693.7784 1481.6516,-699.0197 1477.7221,-689.1805 1472.444,-693.7784"/>
</g>
<!-- webcolors -->
<g id="node33" class="node">
<title>webcolors</title>
<polygon fill="#343434" stroke="#343434" points="724.5,-405.3603 633.5,-405.3603 633.5,-369.3603 724.5,-369.3603 724.5,-405.3603"/>
<text text-anchor="middle" x="679" y="-383.6603" font-family="Courier,monospace" font-size="14.00" fill="#de958e">webcolors</text>
</g>
<!-- webcolors&#45;&gt;shekels.core.data_tools -->
<g id="edge70" class="edge">
<title>webcolors&#45;&gt;shekels.core.data_tools</title>
<path fill="none" stroke="#de958e" d="M724.5956,-396.5819C758.1023,-403.3585 804.9084,-412.8249 846.8581,-421.3091"/>
<polygon fill="#de958e" stroke="#de958e" points="846.3488,-424.7769 856.8442,-423.3288 847.7365,-417.9158 846.3488,-424.7769"/>
</g>
<!-- pyparsing -->
<g id="node34" class="node">
<title>pyparsing</title>
<polygon fill="#343434" stroke="#343434" points="724.5,-351.3603 633.5,-351.3603 633.5,-315.3603 724.5,-315.3603 724.5,-351.3603"/>
<text text-anchor="middle" x="679" y="-329.6603" font-family="Courier,monospace" font-size="14.00" fill="#de958e">pyparsing</text>
</g>
<!-- pyparsing&#45;&gt;shekels.core.data_tools -->
<g id="edge71" class="edge">
<title>pyparsing&#45;&gt;shekels.core.data_tools</title>
<path fill="none" stroke="#de958e" d="M724.7387,-339.3669C749.6198,-343.5307 780.6151,-350.1945 807,-360.3603 845.0985,-375.0391 885.0094,-399.365 912.2406,-417.5345"/>
<polygon fill="#de958e" stroke="#de958e" points="910.3731,-420.4967 920.618,-423.1973 914.2933,-414.6974 910.3731,-420.4967"/>
</g>
<!-- rolling_pin.blob_etl -->
<g id="node35" class="node">
<title>rolling_pin.blob_etl</title>
<polygon fill="#343434" stroke="#343434" points="770,-703.3603 588,-703.3603 588,-667.3603 770,-667.3603 770,-703.3603"/>
<text text-anchor="middle" x="679" y="-681.6603" font-family="Courier,monospace" font-size="14.00" fill="#de958e">rolling_pin.blob_etl</text>
</g>
<!-- rolling_pin.blob_etl&#45;&gt;shekels.core.data_tools -->
<g id="edge72" class="edge">
<title>rolling_pin.blob_etl&#45;&gt;shekels.core.data_tools</title>
<path fill="none" stroke="#de958e" d="M701.6259,-667.1176C727.5444,-646.027 771.0666,-610.0176 807,-577.3603 848.1076,-540.0004 893.7913,-494.4863 921.189,-466.7314"/>
<polygon fill="#de958e" stroke="#de958e" points="923.8901,-468.9767 928.4126,-459.3956 918.9023,-464.0652 923.8901,-468.9767"/>
</g>
<!-- rolling_pin.blob_etl&#45;&gt;shekels.server.components -->
<g id="edge73" class="edge">
<title>rolling_pin.blob_etl&#45;&gt;shekels.server.components</title>
<path fill="none" stroke="#de958e" d="M770.2578,-682.5972C865.3512,-681.5477 1006.3446,-685.7153 1049,-717.3603 1083.5995,-743.0288 1052.5441,-779.0298 1085,-807.3603 1088.7398,-810.6248 1092.7638,-813.5658 1096.997,-816.2149"/>
<polygon fill="#de958e" stroke="#de958e" points="1095.524,-819.402 1105.956,-821.2524 1098.9548,-813.3004 1095.524,-819.402"/>
</g>
<!-- jsoncomment -->
<g id="node36" class="node">
<title>jsoncomment</title>
<polygon fill="#343434" stroke="#343434" points="999.5,-83.3603 892.5,-83.3603 892.5,-47.3603 999.5,-47.3603 999.5,-83.3603"/>
<text text-anchor="middle" x="946" y="-61.6603" font-family="Courier,monospace" font-size="14.00" fill="#de958e">jsoncomment</text>
</g>
<!-- jsoncomment&#45;&gt;shekels.core.database -->
<g id="edge74" class="edge">
<title>jsoncomment&#45;&gt;shekels.core.database</title>
<path fill="none" stroke="#de958e" d="M999.582,-70.6349C1017.694,-75.072 1036.4781,-83.0625 1049,-97.3603 1111.6777,-168.9269 1020.3347,-238.5844 1085,-308.3603 1091.7025,-315.5924 1099.7701,-321.2972 1108.5542,-325.7837"/>
<polygon fill="#de958e" stroke="#de958e" points="1107.3868,-329.0971 1117.9404,-330.0311 1110.2727,-322.7197 1107.3868,-329.0971"/>
</g>
<!-- jsoncomment&#45;&gt;shekels.server.app -->
<g id="edge75" class="edge">
<title>jsoncomment&#45;&gt;shekels.server.app</title>
<path fill="none" stroke="#de958e" d="M999.5289,-69.7096C1161.7064,-85.9892 1650.2538,-158.4794 1875,-452.3603 1950.7836,-551.4559 1980.3588,-702.6059 1989.7672,-764.9529"/>
<polygon fill="#de958e" stroke="#de958e" points="1986.3528,-765.7968 1991.2494,-775.1922 1993.2806,-764.7939 1986.3528,-765.7968"/>
</g>
<!-- jsoncomment&#45;&gt;shekels.server.server_tools -->
<g id="edge76" class="edge">
<title>jsoncomment&#45;&gt;shekels.server.server_tools</title>
<path fill="none" stroke="#de958e" d="M999.569,-70.9512C1017.5698,-75.4266 1036.2845,-83.3606 1049,-97.3603 1101.803,-155.4958 1028.4012,-215.9132 1085,-270.3603 1168.1452,-350.3446 1251.6463,-240.3772 1341,-313.3603 1372.0427,-338.7156 1459.3297,-602.3549 1487.5664,-689.541"/>
<polygon fill="#de958e" stroke="#de958e" points="1484.3049,-690.8308 1490.7094,-699.2708 1490.966,-688.6791 1484.3049,-690.8308"/>
</g>
<!-- flask_caching -->
<g id="node37" class="node">
<title>flask_caching</title>
<polygon fill="#343434" stroke="#343434" points="1825.5,-228.3603 1701.5,-228.3603 1701.5,-192.3603 1825.5,-192.3603 1825.5,-228.3603"/>
<text text-anchor="middle" x="1763.5" y="-206.6603" font-family="Courier,monospace" font-size="14.00" fill="#de958e">flask_caching</text>
</g>
<!-- flask_caching&#45;&gt;shekels.server.app -->
<g id="edge77" class="edge">
<title>flask_caching&#45;&gt;shekels.server.app</title>
<path fill="none" stroke="#de958e" d="M1825.7025,-216.0426C1843.804,-220.626 1862.143,-228.6028 1875,-242.3603 1947.6789,-320.1298 1982.4138,-663.704 1991.2042,-765.0984"/>
<polygon fill="#de958e" stroke="#de958e" points="1987.7278,-765.5252 1992.0623,-775.1928 1994.7026,-764.9322 1987.7278,-765.5252"/>
</g>
<!-- flask_monitoringdashboard -->
<g id="node38" class="node">
<title>flask_monitoringdashboard</title>
<polygon fill="#343434" stroke="#343434" points="1875,-174.3603 1652,-174.3603 1652,-138.3603 1875,-138.3603 1875,-174.3603"/>
<text text-anchor="middle" x="1763.5" y="-152.6603" font-family="Courier,monospace" font-size="14.00" fill="#de958e">flask_monitoringdashboard</text>
</g>
<!-- flask_monitoringdashboard&#45;&gt;shekels.server.app -->
<g id="edge78" class="edge">
<title>flask_monitoringdashboard&#45;&gt;shekels.server.app</title>
<path fill="none" stroke="#de958e" d="M1864.5978,-174.5138C1868.3399,-177.1128 1871.8357,-180.0479 1875,-183.3603 1956.7734,-268.9593 1985.4304,-656.0977 1991.9447,-764.8612"/>
<polygon fill="#de958e" stroke="#de958e" points="1988.463,-765.2791 1992.5387,-775.0586 1995.4511,-764.872 1988.463,-765.2791"/>
</g>
<!-- filelock -->
<g id="node39" class="node">
<title>filelock</title>
<polygon fill="#343434" stroke="#343434" points="186,-505.3603 103,-505.3603 103,-469.3603 186,-469.3603 186,-505.3603"/>
<text text-anchor="middle" x="144.5" y="-483.6603" font-family="Courier,monospace" font-size="14.00" fill="#de958e">filelock</text>
</g>
<!-- selenium.webdriver.chrome.options -->
<g id="node40" class="node">
<title>selenium.webdriver.chrome.options</title>
<polygon fill="#343434" stroke="#343434" points="289,-559.3603 0,-559.3603 0,-523.3603 289,-523.3603 289,-559.3603"/>
<text text-anchor="middle" x="144.5" y="-537.6603" font-family="Courier,monospace" font-size="14.00" fill="#de958e">selenium.webdriver.chrome.options</text>
</g>
</g>
</svg>
