<?xml version="1.0" encoding="UTF-8" standalone="no"?>
<!DOCTYPE svg PUBLIC "-//W3C//DTD SVG 1.1//EN"
 "http://www.w3.org/Graphics/SVG/1.1/DTD/svg11.dtd">
<!-- Generated by graphviz version 2.40.1 (20161225.0304)
 -->
<!-- Title: %3 Pages: 1 -->
<svg width="1519pt" height="1084pt"
 viewBox="0.00 0.00 1519.00 1083.62" xmlns="http://www.w3.org/2000/svg" xmlns:xlink="http://www.w3.org/1999/xlink">
<g id="graph0" class="graph" transform="scale(1 1) rotate(0) translate(4 1079.6244)">
<title>%3</title>
<polygon fill="#242424" stroke="transparent" points="-4,4 -4,-1079.6244 1515,-1079.6244 1515,4 -4,4"/>
<!-- cli -->
<g id="node1" class="node">
<title>cli</title>
<polygon fill="#343434" stroke="#343434" points="64,-481.5194 10,-481.5194 10,-445.5194 64,-445.5194 64,-481.5194"/>
<text text-anchor="middle" x="37" y="-459.8194" font-family="Courier,monospace" font-size="14.00" fill="#b6ecf3">cli</text>
</g>
<!-- shekels.core.config -->
<g id="node2" class="node">
<title>shekels.core.config</title>
<polygon fill="#343434" stroke="#343434" points="550.5,-937.5194 377.5,-937.5194 377.5,-901.5194 550.5,-901.5194 550.5,-937.5194"/>
<text text-anchor="middle" x="464" y="-915.8194" font-family="Courier,monospace" font-size="14.00" fill="#b6ecf3">shekels.core.config</text>
</g>
<!-- shekels.core.data_tools -->
<g id="node3" class="node">
<title>shekels.core.data_tools</title>
<polygon fill="#343434" stroke="#343434" points="834,-639.5194 628,-639.5194 628,-603.5194 834,-603.5194 834,-639.5194"/>
<text text-anchor="middle" x="731" y="-617.8194" font-family="Courier,monospace" font-size="14.00" fill="#b6ecf3">shekels.core.data_tools</text>
</g>
<!-- shekels.core.config&#45;&gt;shekels.core.data_tools -->
<g id="edge1" class="edge">
<title>shekels.core.config&#45;&gt;shekels.core.data_tools</title>
<path fill="none" stroke="#b6ecf3" d="M490.5268,-901.4739C517.7212,-882.2508 560.3902,-850.0284 592,-816.5194 643.3692,-762.0638 691.2433,-687.7398 715.1247,-648.4386"/>
<polygon fill="#b6ecf3" stroke="#b6ecf3" points="718.2328,-650.0618 720.3952,-639.69 712.2368,-646.4496 718.2328,-650.0618"/>
</g>
<!-- shekels.core.database -->
<g id="node4" class="node">
<title>shekels.core.database</title>
<polygon fill="#343434" stroke="#343434" points="1084.5,-876.5194 894.5,-876.5194 894.5,-840.5194 1084.5,-840.5194 1084.5,-876.5194"/>
<text text-anchor="middle" x="989.5" y="-854.8194" font-family="Courier,monospace" font-size="14.00" fill="#b6ecf3">shekels.core.database</text>
</g>
<!-- shekels.core.config&#45;&gt;shekels.core.database -->
<g id="edge2" class="edge">
<title>shekels.core.config&#45;&gt;shekels.core.database</title>
<path fill="none" stroke="#b6ecf3" d="M550.7612,-907.4543C575.6813,-904.1046 602.903,-900.556 628,-897.5194 714.1875,-887.0912 812.105,-876.6117 884.2738,-869.1457"/>
<polygon fill="#b6ecf3" stroke="#b6ecf3" points="884.6946,-872.6209 894.2823,-868.1125 883.9758,-865.6579 884.6946,-872.6209"/>
</g>
<!-- shekels.server.app -->
<g id="node7" class="node">
<title>shekels.server.app</title>
<polygon fill="#343434" stroke="#343434" points="1511,-408.5194 1346,-408.5194 1346,-372.5194 1511,-372.5194 1511,-408.5194"/>
<text text-anchor="middle" x="1428.5" y="-386.8194" font-family="Courier,monospace" font-size="14.00" fill="#b6ecf3">shekels.server.app</text>
</g>
<!-- shekels.core.config&#45;&gt;shekels.server.app -->
<g id="edge3" class="edge">
<title>shekels.core.config&#45;&gt;shekels.server.app</title>
<path fill="none" stroke="#b6ecf3" d="M481.011,-937.7218C508.6467,-965.8034 566.4344,-1018.5363 628,-1038.5194 832.4747,-1104.8883 914.2121,-1078.4721 1109,-987.5194 1213.98,-938.501 1247.0499,-918.7866 1310,-821.5194 1396.4264,-687.9778 1420.4222,-491.9696 1426.5542,-419.1428"/>
<polygon fill="#b6ecf3" stroke="#b6ecf3" points="1430.0628,-419.1713 1427.3633,-408.9262 1423.0846,-418.6186 1430.0628,-419.1713"/>
</g>
<!-- shekels.server.components -->
<g id="node8" class="node">
<title>shekels.server.components</title>
<polygon fill="#343434" stroke="#343434" points="1101,-301.5194 878,-301.5194 878,-265.5194 1101,-265.5194 1101,-301.5194"/>
<text text-anchor="middle" x="989.5" y="-279.8194" font-family="Courier,monospace" font-size="14.00" fill="#b6ecf3">shekels.server.components</text>
</g>
<!-- shekels.core.config&#45;&gt;shekels.server.components -->
<g id="edge4" class="edge">
<title>shekels.core.config&#45;&gt;shekels.server.components</title>
<path fill="none" stroke="#b6ecf3" d="M499.8559,-901.4693C530.0989,-884.1437 571.6205,-854.9484 592,-816.5194 637.7556,-730.2397 562.6654,-451.1085 628,-378.5194 690.3377,-309.26 747.7288,-374.7352 834,-339.5194 851.8035,-332.2521 852.4797,-323.4451 870,-315.5194 878.9525,-311.4696 888.5218,-307.8452 898.2014,-304.6236"/>
<polygon fill="#b6ecf3" stroke="#b6ecf3" points="899.4325,-307.9048 907.899,-301.5355 897.3085,-301.2349 899.4325,-307.9048"/>
</g>
<!-- shekels.core.data_tools&#45;&gt;shekels.core.database -->
<g id="edge5" class="edge">
<title>shekels.core.data_tools&#45;&gt;shekels.core.database</title>
<path fill="none" stroke="#b6ecf3" d="M750.8548,-639.7229C796.6228,-681.6842 909.6128,-785.2766 962.0052,-833.3115"/>
<polygon fill="#b6ecf3" stroke="#b6ecf3" points="959.8413,-836.0759 969.5775,-840.254 964.5718,-830.9162 959.8413,-836.0759"/>
</g>
<!-- shekels.core.data_tools&#45;&gt;shekels.server.components -->
<g id="edge6" class="edge">
<title>shekels.core.data_tools&#45;&gt;shekels.server.components</title>
<path fill="none" stroke="#b6ecf3" d="M801.5617,-603.4184C813.9463,-597.34 825.5526,-589.2559 834,-578.5194 896.8928,-498.5846 812.355,-436.3177 870,-352.5194 884.0782,-332.0541 906.356,-316.8475 927.8818,-305.9971"/>
<polygon fill="#b6ecf3" stroke="#b6ecf3" points="929.5294,-309.0887 937.035,-301.611 926.5044,-302.7761 929.5294,-309.0887"/>
</g>
<!-- shekels.server.api -->
<g id="node6" class="node">
<title>shekels.server.api</title>
<polygon fill="#343434" stroke="#343434" points="1310,-615.5194 1145,-615.5194 1145,-579.5194 1310,-579.5194 1310,-615.5194"/>
<text text-anchor="middle" x="1227.5" y="-593.8194" font-family="Courier,monospace" font-size="14.00" fill="#b6ecf3">shekels.server.api</text>
</g>
<!-- shekels.core.database&#45;&gt;shekels.server.api -->
<g id="edge7" class="edge">
<title>shekels.core.database&#45;&gt;shekels.server.api</title>
<path fill="none" stroke="#b6ecf3" d="M1058.8436,-840.4689C1076.5805,-833.5019 1094.6687,-824.0866 1109,-811.5194 1168.2465,-759.5663 1203.8611,-670.5043 1218.9766,-625.4181"/>
<polygon fill="#b6ecf3" stroke="#b6ecf3" points="1222.366,-626.3133 1222.1372,-615.721 1215.7105,-624.1441 1222.366,-626.3133"/>
</g>
<!-- shekels.enforce.enforce_tools -->
<g id="node5" class="node">
<title>shekels.enforce.enforce_tools</title>
<polygon fill="#343434" stroke="#343434" points="592,-531.5194 336,-531.5194 336,-495.5194 592,-495.5194 592,-531.5194"/>
<text text-anchor="middle" x="464" y="-509.8194" font-family="Courier,monospace" font-size="14.00" fill="#b6ecf3">shekels.enforce.enforce_tools</text>
</g>
<!-- shekels.enforce.enforce_tools&#45;&gt;shekels.core.data_tools -->
<g id="edge8" class="edge">
<title>shekels.enforce.enforce_tools&#45;&gt;shekels.core.data_tools</title>
<path fill="none" stroke="#b6ecf3" d="M572.9113,-531.5874C579.5337,-534.1772 585.9551,-537.137 592,-540.5194 612.3022,-551.8798 608.8511,-565.3076 628,-578.5194 639.6795,-586.5777 653.1047,-593.5442 666.3214,-599.3842"/>
<polygon fill="#b6ecf3" stroke="#b6ecf3" points="665.3075,-602.7559 675.8804,-603.4371 668.04,-596.3112 665.3075,-602.7559"/>
</g>
<!-- shekels.server.api&#45;&gt;shekels.server.app -->
<g id="edge9" class="edge">
<title>shekels.server.api&#45;&gt;shekels.server.app</title>
<path fill="none" stroke="#b6ecf3" d="M1287.1365,-579.4646C1295.2628,-575.5897 1303.1515,-570.9764 1310,-565.5194 1361.104,-524.7991 1398.4525,-456.0457 1416.4528,-417.9672"/>
<polygon fill="#b6ecf3" stroke="#b6ecf3" points="1419.7935,-419.0815 1420.811,-408.5357 1413.4391,-416.1453 1419.7935,-419.0815"/>
</g>
<!-- shekels.server.components&#45;&gt;shekels.server.app -->
<g id="edge10" class="edge">
<title>shekels.server.components&#45;&gt;shekels.server.app</title>
<path fill="none" stroke="#b6ecf3" d="M1101.2264,-282.1068C1164.081,-284.3872 1243.1227,-292.4709 1310,-315.5194 1343.0064,-326.8948 1376.2152,-349.0571 1399.0445,-366.3535"/>
<polygon fill="#b6ecf3" stroke="#b6ecf3" points="1396.9136,-369.1301 1406.966,-372.4767 1401.1947,-363.5918 1396.9136,-369.1301"/>
</g>
<!-- shekels.server.server_tools -->
<g id="node9" class="node">
<title>shekels.server.server_tools</title>
<polygon fill="#343434" stroke="#343434" points="1109,-511.5194 870,-511.5194 870,-475.5194 1109,-475.5194 1109,-511.5194"/>
<text text-anchor="middle" x="989.5" y="-489.8194" font-family="Courier,monospace" font-size="14.00" fill="#b6ecf3">shekels.server.server_tools</text>
</g>
<!-- shekels.server.server_tools&#45;&gt;shekels.server.api -->
<g id="edge11" class="edge">
<title>shekels.server.server_tools&#45;&gt;shekels.server.api</title>
<path fill="none" stroke="#b6ecf3" d="M1030.9564,-511.6349C1071.5295,-529.3643 1133.4039,-556.4018 1176.866,-575.3937"/>
<polygon fill="#b6ecf3" stroke="#b6ecf3" points="1175.5552,-578.6404 1186.12,-579.4375 1178.3582,-572.2261 1175.5552,-578.6404"/>
</g>
<!-- shekels.server.server_tools&#45;&gt;shekels.server.app -->
<g id="edge12" class="edge">
<title>shekels.server.server_tools&#45;&gt;shekels.server.app</title>
<path fill="none" stroke="#b6ecf3" d="M1109.3295,-480.5127C1170.1916,-472.1996 1244.8522,-459.3645 1310,-440.5194 1334.664,-433.385 1361.0785,-422.5724 1382.6952,-412.8251"/>
<polygon fill="#b6ecf3" stroke="#b6ecf3" points="1384.3215,-415.9299 1391.9554,-408.5832 1381.4062,-409.5659 1384.3215,-415.9299"/>
</g>
<!-- dash.dependencies -->
<g id="node10" class="node">
<title>dash.dependencies</title>
<polygon fill="#343434" stroke="#343434" points="1306,-523.5194 1149,-523.5194 1149,-487.5194 1306,-487.5194 1306,-523.5194"/>
<text text-anchor="middle" x="1227.5" y="-501.8194" font-family="Courier,monospace" font-size="14.00" fill="#de958e">dash.dependencies</text>
</g>
<!-- dash.dependencies&#45;&gt;shekels.server.app -->
<g id="edge13" class="edge">
<title>dash.dependencies&#45;&gt;shekels.server.app</title>
<path fill="none" stroke="#de958e" d="M1279.8456,-487.4115C1290.0475,-483.2734 1300.5141,-478.5853 1310,-473.5194 1341.5721,-456.6585 1374.7127,-432.8511 1397.893,-415.0549"/>
<polygon fill="#de958e" stroke="#de958e" points="1400.2062,-417.6901 1405.9611,-408.7944 1395.9149,-412.1597 1400.2062,-417.6901"/>
</g>
<!-- shekels.server -->
<g id="node11" class="node">
<title>shekels.server</title>
<polygon fill="#343434" stroke="#343434" points="797,-423.5194 665,-423.5194 665,-387.5194 797,-387.5194 797,-423.5194"/>
<text text-anchor="middle" x="731" y="-401.8194" font-family="Courier,monospace" font-size="14.00" fill="#a0d17b">shekels.server</text>
</g>
<!-- shekels.server&#45;&gt;shekels.server.api -->
<g id="edge14" class="edge">
<title>shekels.server&#45;&gt;shekels.server.api</title>
<path fill="none" stroke="#a0d17b" d="M797.0685,-409.239C891.7299,-415.7122 1059.9567,-431.8227 1109,-466.5194 1136.2771,-485.8172 1123.4384,-506.9942 1145,-532.5194 1158.1051,-548.0337 1175.4225,-562.3516 1190.8065,-573.5778"/>
<polygon fill="#a0d17b" stroke="#a0d17b" points="1188.9369,-576.5429 1199.1153,-579.4844 1192.9928,-570.8376 1188.9369,-576.5429"/>
</g>
<!-- shekels.server&#45;&gt;shekels.server.app -->
<g id="edge15" class="edge">
<title>shekels.server&#45;&gt;shekels.server.app</title>
<path fill="none" stroke="#a0d17b" d="M796.9298,-387.4829C809.4286,-383.3801 822.2603,-378.6869 834,-373.5194 850.9535,-366.057 852.1187,-357.3536 870,-352.5194 1038.0814,-307.0788 1244.4389,-343.8508 1353.1786,-370.0207"/>
<polygon fill="#a0d17b" stroke="#a0d17b" points="1352.5281,-373.4646 1363.0731,-372.4378 1354.1894,-366.6646 1352.5281,-373.4646"/>
</g>
<!-- shekels.server&#45;&gt;shekels.server.components -->
<g id="edge16" class="edge">
<title>shekels.server&#45;&gt;shekels.server.components</title>
<path fill="none" stroke="#a0d17b" d="M797.0739,-392.6608C810.1652,-388.0767 823.1868,-381.8816 834,-373.5194 858.0003,-354.9593 845.6371,-333.601 870,-315.5194 874.8061,-311.9525 879.9819,-308.7829 885.39,-305.9664"/>
<polygon fill="#a0d17b" stroke="#a0d17b" points="887.1544,-309.0032 894.6864,-301.5521 884.1517,-302.6799 887.1544,-309.0032"/>
</g>
<!-- shekels.server&#45;&gt;shekels.server.server_tools -->
<g id="edge17" class="edge">
<title>shekels.server&#45;&gt;shekels.server.server_tools</title>
<path fill="none" stroke="#a0d17b" d="M790.7843,-423.6C804.9884,-428.0319 820.063,-432.8475 834,-437.5194 866.3867,-448.3761 902.2777,-461.245 931.4107,-471.9072"/>
<polygon fill="#a0d17b" stroke="#a0d17b" points="930.4231,-475.2729 941.0167,-475.4323 932.8347,-468.7014 930.4231,-475.2729"/>
</g>
<!-- dash.exceptions -->
<g id="node12" class="node">
<title>dash.exceptions</title>
<polygon fill="#343434" stroke="#343434" points="1297.5,-431.5194 1157.5,-431.5194 1157.5,-395.5194 1297.5,-395.5194 1297.5,-431.5194"/>
<text text-anchor="middle" x="1227.5" y="-409.8194" font-family="Courier,monospace" font-size="14.00" fill="#de958e">dash.exceptions</text>
</g>
<!-- dash.exceptions&#45;&gt;shekels.server.app -->
<g id="edge18" class="edge">
<title>dash.exceptions&#45;&gt;shekels.server.app</title>
<path fill="none" stroke="#de958e" d="M1297.5179,-405.5075C1309.8549,-404.0958 1322.8689,-402.6066 1335.7138,-401.1368"/>
<polygon fill="#de958e" stroke="#de958e" points="1336.4255,-404.5783 1345.9628,-399.964 1335.6297,-397.6236 1336.4255,-404.5783"/>
</g>
<!-- dash -->
<g id="node13" class="node">
<title>dash</title>
<polygon fill="#343434" stroke="#343434" points="758,-217.5194 704,-217.5194 704,-181.5194 758,-181.5194 758,-217.5194"/>
<text text-anchor="middle" x="731" y="-195.8194" font-family="Courier,monospace" font-size="14.00" fill="#de958e">dash</text>
</g>
<!-- dash&#45;&gt;shekels.server.app -->
<g id="edge19" class="edge">
<title>dash&#45;&gt;shekels.server.app</title>
<path fill="none" stroke="#de958e" d="M758.2782,-197.836C844.15,-193.6566 1114.7814,-189.0949 1310,-281.5194 1350.5786,-300.7311 1386.8852,-338.7428 1408.3068,-364.4013"/>
<polygon fill="#de958e" stroke="#de958e" points="1405.6883,-366.7283 1414.7254,-372.2584 1411.1094,-362.2997 1405.6883,-366.7283"/>
</g>
<!-- dash&#45;&gt;shekels.server.components -->
<g id="edge20" class="edge">
<title>dash&#45;&gt;shekels.server.components</title>
<path fill="none" stroke="#de958e" d="M758.1581,-207.7827C778.9554,-214.1528 808.3374,-223.2432 834,-231.5194 864.5356,-241.3672 898.3257,-252.6234 926.5854,-262.1388"/>
<polygon fill="#de958e" stroke="#de958e" points="925.742,-265.548 936.3361,-265.4268 927.9787,-258.915 925.742,-265.548"/>
</g>
<!-- dash_core_components -->
<g id="node14" class="node">
<title>dash_core_components</title>
<polygon fill="#343434" stroke="#343434" points="822,-163.5194 640,-163.5194 640,-127.5194 822,-127.5194 822,-163.5194"/>
<text text-anchor="middle" x="731" y="-141.8194" font-family="Courier,monospace" font-size="14.00" fill="#de958e">dash_core_components</text>
</g>
<!-- dash_core_components&#45;&gt;shekels.server.app -->
<g id="edge21" class="edge">
<title>dash_core_components&#45;&gt;shekels.server.app</title>
<path fill="none" stroke="#de958e" d="M822.0337,-136.3317C942.843,-128.6828 1158.4969,-131.2298 1310,-224.5194 1363.6954,-257.583 1400.0299,-324.9771 1417.173,-362.9375"/>
<polygon fill="#de958e" stroke="#de958e" points="1414.0854,-364.6118 1421.3077,-372.3635 1420.4958,-361.7998 1414.0854,-364.6118"/>
</g>
<!-- dash_core_components&#45;&gt;shekels.server.components -->
<g id="edge22" class="edge">
<title>dash_core_components&#45;&gt;shekels.server.components</title>
<path fill="none" stroke="#de958e" d="M811.5813,-163.5788C819.2946,-166.2154 826.8856,-169.1861 834,-172.5194 882.5944,-195.2874 931.8747,-233.6116 961.565,-258.7356"/>
<polygon fill="#de958e" stroke="#de958e" points="959.5308,-261.6016 969.4028,-265.448 964.0841,-256.2849 959.5308,-261.6016"/>
</g>
<!-- shekels -->
<g id="node15" class="node">
<title>shekels</title>
<polygon fill="#343434" stroke="#343434" points="74,-535.5194 0,-535.5194 0,-499.5194 74,-499.5194 74,-535.5194"/>
<text text-anchor="middle" x="37" y="-513.8194" font-family="Courier,monospace" font-size="14.00" fill="#a0d17b">shekels</text>
</g>
<!-- shekels&#45;&gt;shekels.server -->
<g id="edge23" class="edge">
<title>shekels&#45;&gt;shekels.server</title>
<path fill="none" stroke="#a0d17b" d="M64.2056,-499.4072C67.6645,-496.6131 71.0286,-493.6195 74,-490.5194 93.9591,-469.6956 87.795,-454.9297 110,-436.5194 194.011,-366.8654 229.0628,-362.2904 336,-340.5194 447.4907,-317.8215 480.9326,-315.8333 592,-340.5194 628.3315,-348.5946 666.4058,-367.2144 693.5004,-382.4649"/>
<polygon fill="#a0d17b" stroke="#a0d17b" points="691.8346,-385.5443 702.2497,-387.4876 695.3197,-379.4735 691.8346,-385.5443"/>
</g>
<!-- shekels.enforce -->
<g id="node18" class="node">
<title>shekels.enforce</title>
<polygon fill="#343434" stroke="#343434" points="275,-535.5194 135,-535.5194 135,-499.5194 275,-499.5194 275,-535.5194"/>
<text text-anchor="middle" x="205" y="-513.8194" font-family="Courier,monospace" font-size="14.00" fill="#a0d17b">shekels.enforce</text>
</g>
<!-- shekels&#45;&gt;shekels.enforce -->
<g id="edge24" class="edge">
<title>shekels&#45;&gt;shekels.enforce</title>
<path fill="none" stroke="#a0d17b" d="M74.2846,-517.5194C89.1534,-517.5194 106.8856,-517.5194 124.4188,-517.5194"/>
<polygon fill="#a0d17b" stroke="#a0d17b" points="124.6959,-521.0195 134.6959,-517.5194 124.6959,-514.0195 124.6959,-521.0195"/>
</g>
<!-- shekels.core -->
<g id="node20" class="node">
<title>shekels.core</title>
<polygon fill="#343434" stroke="#343434" points="263,-937.5194 147,-937.5194 147,-901.5194 263,-901.5194 263,-937.5194"/>
<text text-anchor="middle" x="205" y="-915.8194" font-family="Courier,monospace" font-size="14.00" fill="#a0d17b">shekels.core</text>
</g>
<!-- shekels&#45;&gt;shekels.core -->
<g id="edge25" class="edge">
<title>shekels&#45;&gt;shekels.core</title>
<path fill="none" stroke="#a0d17b" d="M38.0845,-535.867C42.4578,-603.7033 60.9758,-839.1594 110,-892.5194 117.3717,-900.5431 126.9373,-906.247 137.1535,-910.2885"/>
<polygon fill="#a0d17b" stroke="#a0d17b" points="136.0797,-913.6202 146.6743,-913.5515 138.3492,-906.9983 136.0797,-913.6202"/>
</g>
<!-- dash_html_components -->
<g id="node16" class="node">
<title>dash_html_components</title>
<polygon fill="#343434" stroke="#343434" points="822,-109.5194 640,-109.5194 640,-73.5194 822,-73.5194 822,-109.5194"/>
<text text-anchor="middle" x="731" y="-87.8194" font-family="Courier,monospace" font-size="14.00" fill="#de958e">dash_html_components</text>
</g>
<!-- dash_html_components&#45;&gt;shekels.server.app -->
<g id="edge26" class="edge">
<title>dash_html_components&#45;&gt;shekels.server.app</title>
<path fill="none" stroke="#de958e" d="M822.2162,-76.7101C944.9345,-61.9622 1164.5543,-54.3599 1310,-157.5194 1380.4997,-207.5225 1411.6884,-312.0844 1423.0378,-362.3509"/>
<polygon fill="#de958e" stroke="#de958e" points="1419.6354,-363.1769 1425.1655,-372.214 1426.478,-361.7007 1419.6354,-363.1769"/>
</g>
<!-- dash_html_components&#45;&gt;shekels.server.components -->
<g id="edge27" class="edge">
<title>dash_html_components&#45;&gt;shekels.server.components</title>
<path fill="none" stroke="#de958e" d="M815.7832,-109.5415C822.1272,-112.1469 828.2773,-115.1225 834,-118.5194 894.4785,-154.4194 946.2846,-220.5841 972.0629,-257.2787"/>
<polygon fill="#de958e" stroke="#de958e" points="969.1852,-259.271 977.7519,-265.5049 974.9426,-255.2893 969.1852,-259.271"/>
</g>
<!-- dash_table -->
<g id="node17" class="node">
<title>dash_table</title>
<polygon fill="#343434" stroke="#343434" points="780.5,-55.5194 681.5,-55.5194 681.5,-19.5194 780.5,-19.5194 780.5,-55.5194"/>
<text text-anchor="middle" x="731" y="-33.8194" font-family="Courier,monospace" font-size="14.00" fill="#de958e">dash_table</text>
</g>
<!-- dash_table&#45;&gt;shekels.server.app -->
<g id="edge28" class="edge">
<title>dash_table&#45;&gt;shekels.server.app</title>
<path fill="none" stroke="#de958e" d="M780.5732,-25.402C888.9977,-2.0147 1150.2609,36.9781 1310,-84.5194 1400.2562,-153.1683 1421.7981,-300.0588 1426.9159,-362.0174"/>
<polygon fill="#de958e" stroke="#de958e" points="1423.4427,-362.5095 1427.6715,-372.2238 1430.4236,-361.9927 1423.4427,-362.5095"/>
</g>
<!-- dash_table&#45;&gt;shekels.server.components -->
<g id="edge29" class="edge">
<title>dash_table&#45;&gt;shekels.server.components</title>
<path fill="none" stroke="#de958e" d="M780.6124,-43.3217C798.6047,-47.2064 818.3375,-53.692 834,-64.5194 906.1573,-114.4019 956.2349,-209.231 977.7187,-256.0134"/>
<polygon fill="#de958e" stroke="#de958e" points="974.572,-257.55 981.8667,-265.2336 980.9557,-254.678 974.572,-257.55"/>
</g>
<!-- shekels.enforce&#45;&gt;shekels.enforce.enforce_tools -->
<g id="edge30" class="edge">
<title>shekels.enforce&#45;&gt;shekels.enforce.enforce_tools</title>
<path fill="none" stroke="#a0d17b" d="M275.0891,-516.437C290.8686,-516.1933 308.1505,-515.9264 325.649,-515.6561"/>
<polygon fill="#a0d17b" stroke="#a0d17b" points="326.0224,-519.1509 335.9672,-515.4968 325.9143,-512.1517 326.0224,-519.1509"/>
</g>
<!-- flask -->
<g id="node19" class="node">
<title>flask</title>
<polygon fill="#343434" stroke="#343434" points="760,-569.5194 702,-569.5194 702,-533.5194 760,-533.5194 760,-569.5194"/>
<text text-anchor="middle" x="731" y="-547.8194" font-family="Courier,monospace" font-size="14.00" fill="#de958e">flask</text>
</g>
<!-- flask&#45;&gt;shekels.server.api -->
<g id="edge31" class="edge">
<title>flask&#45;&gt;shekels.server.api</title>
<path fill="none" stroke="#de958e" d="M760.0093,-554.536C788.1225,-557.4369 831.9715,-561.9025 870,-565.5194 959.908,-574.0708 1062.6,-583.1962 1134.7835,-589.5047"/>
<polygon fill="#de958e" stroke="#de958e" points="1134.4954,-592.9928 1144.7619,-590.3759 1135.1043,-586.0193 1134.4954,-592.9928"/>
</g>
<!-- flask&#45;&gt;shekels.server.app -->
<g id="edge32" class="edge">
<title>flask&#45;&gt;shekels.server.app</title>
<path fill="none" stroke="#de958e" d="M760.0337,-553.6392C863.2951,-560.7102 1211.8215,-580.4406 1310,-532.5194 1360.1137,-508.0588 1396.7703,-451.4334 1415.1646,-417.5423"/>
<polygon fill="#de958e" stroke="#de958e" points="1418.2948,-419.1097 1419.8644,-408.6318 1412.1033,-415.844 1418.2948,-419.1097"/>
</g>
<!-- flask&#45;&gt;shekels.server.components -->
<g id="edge33" class="edge">
<title>flask&#45;&gt;shekels.server.components</title>
<path fill="none" stroke="#de958e" d="M760.46,-551.7425C783.6647,-550.2701 815.144,-544.3435 834,-524.5194 887.8267,-467.9293 824.1932,-415.7768 870,-352.5194 884.7533,-332.1458 907.5075,-316.8771 929.2175,-305.9532"/>
<polygon fill="#de958e" stroke="#de958e" points="930.9276,-309.0149 938.4315,-301.5353 927.9012,-302.7029 930.9276,-309.0149"/>
</g>
<!-- flask&#45;&gt;shekels.server.server_tools -->
<g id="edge34" class="edge">
<title>flask&#45;&gt;shekels.server.server_tools</title>
<path fill="none" stroke="#de958e" d="M760.1507,-544.9789C793.7507,-537.44 850.6051,-524.6835 899.2989,-513.758"/>
<polygon fill="#de958e" stroke="#de958e" points="900.2453,-517.1328 909.2364,-511.5283 898.7127,-510.3026 900.2453,-517.1328"/>
</g>
<!-- shekels.core&#45;&gt;shekels.core.config -->
<g id="edge35" class="edge">
<title>shekels.core&#45;&gt;shekels.core.config</title>
<path fill="none" stroke="#a0d17b" d="M263.1247,-919.5194C293.6672,-919.5194 331.9128,-919.5194 366.8135,-919.5194"/>
<polygon fill="#a0d17b" stroke="#a0d17b" points="367.0405,-923.0195 377.0405,-919.5194 367.0404,-916.0195 367.0405,-923.0195"/>
</g>
<!-- shekels.core&#45;&gt;shekels.core.data_tools -->
<g id="edge36" class="edge">
<title>shekels.core&#45;&gt;shekels.core.data_tools</title>
<path fill="none" stroke="#a0d17b" d="M263.2711,-912.8805C276.784,-908.8499 290.0918,-902.4948 300,-892.5194 342.2492,-849.9839 292.0782,-803.3257 336,-762.5194 420.9931,-683.5553 484.506,-755.1565 592,-711.5194 632.3809,-695.1269 673.679,-666.5893 700.6482,-646.0386"/>
<polygon fill="#a0d17b" stroke="#a0d17b" points="703.1115,-648.5582 708.8816,-639.6724 698.8296,-643.0205 703.1115,-648.5582"/>
</g>
<!-- shekels.core&#45;&gt;shekels.core.database -->
<g id="edge37" class="edge">
<title>shekels.core&#45;&gt;shekels.core.database</title>
<path fill="none" stroke="#a0d17b" d="M263.2964,-934.1805C285.8498,-939.1539 311.9747,-944.0693 336,-946.5194 449.1907,-958.0628 480.7008,-970.1387 592,-946.5194 609.1277,-942.8847 611.2147,-935.5016 628,-930.5194 716.8899,-904.1354 745.1101,-923.9035 834,-897.5194 850.7853,-892.5373 853.2947,-886.7637 870,-881.5194 874.7905,-880.0156 879.7215,-878.5927 884.7255,-877.2488"/>
<polygon fill="#a0d17b" stroke="#a0d17b" points="885.6047,-880.6366 894.421,-874.761 883.8648,-873.8563 885.6047,-880.6366"/>
</g>
<!-- jinja2 -->
<g id="node21" class="node">
<title>jinja2</title>
<polygon fill="#343434" stroke="#343434" points="764,-515.5194 698,-515.5194 698,-479.5194 764,-479.5194 764,-515.5194"/>
<text text-anchor="middle" x="731" y="-493.8194" font-family="Courier,monospace" font-size="14.00" fill="#de958e">jinja2</text>
</g>
<!-- jinja2&#45;&gt;shekels.server.server_tools -->
<g id="edge38" class="edge">
<title>jinja2&#45;&gt;shekels.server.server_tools</title>
<path fill="none" stroke="#de958e" d="M764.0018,-497.0088C788.6978,-496.6266 824.2092,-496.0771 859.7692,-495.5269"/>
<polygon fill="#de958e" stroke="#de958e" points="859.8467,-499.0262 869.7913,-495.3718 859.7383,-492.027 859.8467,-499.0262"/>
</g>
<!-- pandas -->
<g id="node22" class="node">
<title>pandas</title>
<polygon fill="#343434" stroke="#343434" points="238,-639.5194 172,-639.5194 172,-603.5194 238,-603.5194 238,-639.5194"/>
<text text-anchor="middle" x="205" y="-617.8194" font-family="Courier,monospace" font-size="14.00" fill="#de958e">pandas</text>
</g>
<!-- pandas&#45;&gt;shekels.core.data_tools -->
<g id="edge39" class="edge">
<title>pandas&#45;&gt;shekels.core.data_tools</title>
<path fill="none" stroke="#de958e" d="M238.093,-630.2854C264.4065,-636.7816 302.2721,-645.0798 336,-648.5194 449.1907,-660.0628 478.7453,-659.4172 592,-648.5194 608.2114,-646.9595 625.3411,-644.3988 641.8283,-641.4596"/>
<polygon fill="#de958e" stroke="#de958e" points="642.7966,-644.8402 651.9969,-639.5863 641.5282,-637.9561 642.7966,-644.8402"/>
</g>
<!-- pandas&#45;&gt;shekels.core.database -->
<g id="edge40" class="edge">
<title>pandas&#45;&gt;shekels.core.database</title>
<path fill="none" stroke="#de958e" d="M214.5551,-639.8217C238.1621,-684.2701 299.9344,-795.7874 336,-816.5194 426.4791,-868.5307 723.2924,-867.5424 883.9534,-862.8226"/>
<polygon fill="#de958e" stroke="#de958e" points="884.4463,-866.3093 894.3353,-862.5069 884.2335,-859.3126 884.4463,-866.3093"/>
</g>
<!-- pandas&#45;&gt;shekels.enforce.enforce_tools -->
<g id="edge41" class="edge">
<title>pandas&#45;&gt;shekels.enforce.enforce_tools</title>
<path fill="none" stroke="#de958e" d="M228.7502,-603.2892C254.0084,-584.7803 295.7856,-556.6206 336,-540.5194 341.4028,-538.3563 347.0065,-536.3556 352.7167,-534.5066"/>
<polygon fill="#de958e" stroke="#de958e" points="353.8748,-537.8125 362.4105,-531.5362 351.8238,-531.1197 353.8748,-537.8125"/>
</g>
<!-- pandas&#45;&gt;shekels.server.components -->
<g id="edge42" class="edge">
<title>pandas&#45;&gt;shekels.server.components</title>
<path fill="none" stroke="#de958e" d="M237.9317,-603.3203C259.0723,-589.8726 285.2419,-569.5827 300,-544.5194 346.7156,-465.1841 268.9075,-403.5674 336,-340.5194 410.2649,-270.7315 700.0827,-270.6627 867.7725,-276.94"/>
<polygon fill="#de958e" stroke="#de958e" points="867.7656,-280.4423 877.8937,-277.3321 868.0367,-273.4475 867.7656,-280.4423"/>
</g>
<!-- lunchbox.tools -->
<g id="node23" class="node">
<title>lunchbox.tools</title>
<polygon fill="#343434" stroke="#343434" points="530,-439.5194 398,-439.5194 398,-403.5194 530,-403.5194 530,-439.5194"/>
<text text-anchor="middle" x="464" y="-417.8194" font-family="Courier,monospace" font-size="14.00" fill="#de958e">lunchbox.tools</text>
</g>
<!-- lunchbox.tools&#45;&gt;shekels.core.data_tools -->
<g id="edge43" class="edge">
<title>lunchbox.tools&#45;&gt;shekels.core.data_tools</title>
<path fill="none" stroke="#de958e" d="M530.3044,-424.9644C552.3819,-429.2492 575.5185,-437.6118 592,-453.5194 633.5982,-493.6692 589.5379,-535.3559 628,-578.5194 635.3038,-586.7161 644.4197,-593.3908 654.1878,-598.8158"/>
<polygon fill="#de958e" stroke="#de958e" points="652.8085,-602.0409 663.3086,-603.4543 655.9817,-595.8014 652.8085,-602.0409"/>
</g>
<!-- lunchbox.tools&#45;&gt;shekels.server.server_tools -->
<g id="edge44" class="edge">
<title>lunchbox.tools&#45;&gt;shekels.server.server_tools</title>
<path fill="none" stroke="#de958e" d="M530.2103,-429.98C604.2741,-439.5158 727.7991,-455.634 834,-470.5194 842.4435,-471.7029 851.1421,-472.9401 859.9078,-474.2002"/>
<polygon fill="#de958e" stroke="#de958e" points="859.4256,-477.6668 869.823,-475.6311 860.4255,-470.7386 859.4256,-477.6668"/>
</g>
<!-- lunchbox.enforce -->
<g id="node24" class="node">
<title>lunchbox.enforce</title>
<polygon fill="#343434" stroke="#343434" points="279.5,-481.5194 130.5,-481.5194 130.5,-445.5194 279.5,-445.5194 279.5,-481.5194"/>
<text text-anchor="middle" x="205" y="-459.8194" font-family="Courier,monospace" font-size="14.00" fill="#de958e">lunchbox.enforce</text>
</g>
<!-- lunchbox.enforce&#45;&gt;shekels.core.data_tools -->
<g id="edge45" class="edge">
<title>lunchbox.enforce&#45;&gt;shekels.core.data_tools</title>
<path fill="none" stroke="#de958e" d="M279.8855,-458.6914C378.2012,-453.8943 543.9556,-451.5936 592,-486.5194 627.5153,-512.3373 597.3036,-547.1247 628,-578.5194 636.0679,-586.7709 645.9564,-593.5104 656.3817,-598.9947"/>
<polygon fill="#de958e" stroke="#de958e" points="655.1251,-602.2754 665.6492,-603.4977 658.1844,-595.9793 655.1251,-602.2754"/>
</g>
<!-- lunchbox.enforce&#45;&gt;shekels.enforce.enforce_tools -->
<g id="edge46" class="edge">
<title>lunchbox.enforce&#45;&gt;shekels.enforce.enforce_tools</title>
<path fill="none" stroke="#de958e" d="M279.5661,-477.9144C304.8543,-482.7963 333.5731,-488.3405 360.6926,-493.5759"/>
<polygon fill="#de958e" stroke="#de958e" points="360.1201,-497.03 370.6023,-495.489 361.447,-490.1569 360.1201,-497.03"/>
</g>
<!-- lunchbox.enforce&#45;&gt;shekels.server.components -->
<g id="edge47" class="edge">
<title>lunchbox.enforce&#45;&gt;shekels.server.components</title>
<path fill="none" stroke="#de958e" d="M210.6557,-445.5099C224.4442,-405.0992 264.0444,-307.7552 336,-269.5194 424.8928,-222.2837 704.4301,-247.2413 867.6829,-267.0164"/>
<polygon fill="#de958e" stroke="#de958e" points="867.4305,-270.5115 877.7813,-268.251 868.28,-263.5633 867.4305,-270.5115"/>
</g>
<!-- rolling_pin.blob_etl -->
<g id="node25" class="node">
<title>rolling_pin.blob_etl</title>
<polygon fill="#343434" stroke="#343434" points="555,-385.5194 373,-385.5194 373,-349.5194 555,-349.5194 555,-385.5194"/>
<text text-anchor="middle" x="464" y="-363.8194" font-family="Courier,monospace" font-size="14.00" fill="#de958e">rolling_pin.blob_etl</text>
</g>
<!-- rolling_pin.blob_etl&#45;&gt;shekels.core.data_tools -->
<g id="edge48" class="edge">
<title>rolling_pin.blob_etl&#45;&gt;shekels.core.data_tools</title>
<path fill="none" stroke="#de958e" d="M555.1097,-372.9351C568.9012,-377.4098 581.8775,-384.2473 592,-394.5194 650.488,-453.8723 575.328,-513.9496 628,-578.5194 634.6368,-586.6554 643.0783,-593.2736 652.2633,-598.6521"/>
<polygon fill="#de958e" stroke="#de958e" points="650.7902,-601.8328 661.2627,-603.438 654.077,-595.6524 650.7902,-601.8328"/>
</g>
<!-- rolling_pin.blob_etl&#45;&gt;shekels.server.components -->
<g id="edge49" class="edge">
<title>rolling_pin.blob_etl&#45;&gt;shekels.server.components</title>
<path fill="none" stroke="#de958e" d="M555.235,-352.9357C641.8138,-339.0963 772.5176,-318.2036 867.9132,-302.9548"/>
<polygon fill="#de958e" stroke="#de958e" points="868.5828,-306.3923 877.9049,-301.3577 867.4778,-299.4801 868.5828,-306.3923"/>
</g>
<!-- numpy -->
<g id="node26" class="node">
<title>numpy</title>
<polygon fill="#343434" stroke="#343434" points="493,-807.5194 435,-807.5194 435,-771.5194 493,-771.5194 493,-807.5194"/>
<text text-anchor="middle" x="464" y="-785.8194" font-family="Courier,monospace" font-size="14.00" fill="#de958e">numpy</text>
</g>
<!-- numpy&#45;&gt;shekels.core.data_tools -->
<g id="edge50" class="edge">
<title>numpy&#45;&gt;shekels.core.data_tools</title>
<path fill="none" stroke="#de958e" d="M493.0569,-786.6673C520.1008,-783.0242 560.8091,-774.9555 592,-757.5194 642.1028,-729.5115 686.964,-678.7209 711.4475,-647.7618"/>
<polygon fill="#de958e" stroke="#de958e" points="714.4252,-649.634 717.8001,-639.591 708.899,-645.3374 714.4252,-649.634"/>
</g>
<!-- numpy&#45;&gt;shekels.core.database -->
<g id="edge51" class="edge">
<title>numpy&#45;&gt;shekels.core.database</title>
<path fill="none" stroke="#de958e" d="M493.4389,-790.5919C556.3248,-793.2051 708.2852,-801.24 834,-821.5194 860.1204,-825.733 888.3537,-831.9402 913.5029,-838.0716"/>
<polygon fill="#de958e" stroke="#de958e" points="912.7951,-841.502 923.3429,-840.5045 914.4752,-834.7066 912.7951,-841.502"/>
</g>
<!-- schematics.exceptions -->
<g id="node27" class="node">
<title>schematics.exceptions</title>
<polygon fill="#343434" stroke="#343434" points="300,-829.5194 110,-829.5194 110,-793.5194 300,-793.5194 300,-829.5194"/>
<text text-anchor="middle" x="205" y="-807.8194" font-family="Courier,monospace" font-size="14.00" fill="#de958e">schematics.exceptions</text>
</g>
<!-- schematics.exceptions&#45;&gt;shekels.core.config -->
<g id="edge52" class="edge">
<title>schematics.exceptions&#45;&gt;shekels.core.config</title>
<path fill="none" stroke="#de958e" d="M284.6156,-829.7148C290.0198,-832.2756 295.2118,-835.194 300,-838.5194 322.1956,-853.9346 313.5612,-872.4606 336,-887.5194 345.6586,-894.0014 356.5219,-899.1709 367.732,-903.2937"/>
<polygon fill="#de958e" stroke="#de958e" points="366.6168,-906.6112 377.2112,-906.5164 368.87,-899.9837 366.6168,-906.6112"/>
</g>
<!-- schematics.exceptions&#45;&gt;shekels.core.data_tools -->
<g id="edge53" class="edge">
<title>schematics.exceptions&#45;&gt;shekels.core.data_tools</title>
<path fill="none" stroke="#de958e" d="M228.8246,-793.3224C254.1435,-774.7956 295.9696,-746.4578 336,-729.5194 443.9096,-683.8588 479.3004,-698.5848 592,-666.5194 617.1949,-659.351 644.6825,-650.643 668.513,-642.8042"/>
<polygon fill="#de958e" stroke="#de958e" points="669.7442,-646.0835 678.1391,-639.6199 667.5458,-639.4377 669.7442,-646.0835"/>
</g>
<!-- schematics.exceptions&#45;&gt;shekels.server.api -->
<g id="edge54" class="edge">
<title>schematics.exceptions&#45;&gt;shekels.server.api</title>
<path fill="none" stroke="#de958e" d="M300.3522,-822.1426C379.1281,-828.6786 493.5888,-833.0006 592,-816.5194 820.5218,-778.2483 1076.8447,-667.6049 1180.3785,-619.8736"/>
<polygon fill="#de958e" stroke="#de958e" points="1182.0202,-622.9705 1189.6228,-615.5914 1179.0779,-616.6188 1182.0202,-622.9705"/>
</g>
<!-- cufflinks -->
<g id="node28" class="node">
<title>cufflinks</title>
<polygon fill="#343434" stroke="#343434" points="509.5,-639.5194 418.5,-639.5194 418.5,-603.5194 509.5,-603.5194 509.5,-639.5194"/>
<text text-anchor="middle" x="464" y="-617.8194" font-family="Courier,monospace" font-size="14.00" fill="#de958e">cufflinks</text>
</g>
<!-- cufflinks&#45;&gt;shekels.core.data_tools -->
<g id="edge55" class="edge">
<title>cufflinks&#45;&gt;shekels.core.data_tools</title>
<path fill="none" stroke="#de958e" d="M509.5956,-621.5194C539.4014,-621.5194 579.7311,-621.5194 617.8046,-621.5194"/>
<polygon fill="#de958e" stroke="#de958e" points="617.9484,-625.0195 627.9484,-621.5194 617.9484,-618.0195 617.9484,-625.0195"/>
</g>
<!-- schematics.models -->
<g id="node29" class="node">
<title>schematics.models</title>
<polygon fill="#343434" stroke="#343434" points="283.5,-991.5194 126.5,-991.5194 126.5,-955.5194 283.5,-955.5194 283.5,-991.5194"/>
<text text-anchor="middle" x="205" y="-969.8194" font-family="Courier,monospace" font-size="14.00" fill="#de958e">schematics.models</text>
</g>
<!-- schematics.models&#45;&gt;shekels.core.config -->
<g id="edge56" class="edge">
<title>schematics.models&#45;&gt;shekels.core.config</title>
<path fill="none" stroke="#de958e" d="M283.7634,-957.0977C310.1406,-951.5982 339.8536,-945.4033 367.4322,-939.6533"/>
<polygon fill="#de958e" stroke="#de958e" points="368.4109,-943.0246 377.486,-937.5571 366.9821,-936.1719 368.4109,-943.0246"/>
</g>
<!-- schematics.types -->
<g id="node30" class="node">
<title>schematics.types</title>
<polygon fill="#343434" stroke="#343434" points="279.5,-883.5194 130.5,-883.5194 130.5,-847.5194 279.5,-847.5194 279.5,-883.5194"/>
<text text-anchor="middle" x="205" y="-861.8194" font-family="Courier,monospace" font-size="14.00" fill="#de958e">schematics.types</text>
</g>
<!-- schematics.types&#45;&gt;shekels.core.config -->
<g id="edge57" class="edge">
<title>schematics.types&#45;&gt;shekels.core.config</title>
<path fill="none" stroke="#de958e" d="M279.5661,-881.066C306.9704,-886.7797 338.4035,-893.3333 367.4641,-899.3923"/>
<polygon fill="#de958e" stroke="#de958e" points="367.1298,-902.8978 377.6337,-901.5126 368.5586,-896.0451 367.1298,-902.8978"/>
</g>
<!-- webcolors -->
<g id="node31" class="node">
<title>webcolors</title>
<polygon fill="#343434" stroke="#343434" points="509.5,-585.5194 418.5,-585.5194 418.5,-549.5194 509.5,-549.5194 509.5,-585.5194"/>
<text text-anchor="middle" x="464" y="-563.8194" font-family="Courier,monospace" font-size="14.00" fill="#de958e">webcolors</text>
</g>
<!-- webcolors&#45;&gt;shekels.core.data_tools -->
<g id="edge58" class="edge">
<title>webcolors&#45;&gt;shekels.core.data_tools</title>
<path fill="none" stroke="#de958e" d="M509.5956,-576.741C543.1023,-583.5177 589.9084,-592.9841 631.8581,-601.4683"/>
<polygon fill="#de958e" stroke="#de958e" points="631.3488,-604.9361 641.8442,-603.4879 632.7365,-598.075 631.3488,-604.9361"/>
</g>
<!-- jsoncomment -->
<g id="node32" class="node">
<title>jsoncomment</title>
<polygon fill="#343434" stroke="#343434" points="784.5,-1029.5194 677.5,-1029.5194 677.5,-993.5194 784.5,-993.5194 784.5,-1029.5194"/>
<text text-anchor="middle" x="731" y="-1007.8194" font-family="Courier,monospace" font-size="14.00" fill="#de958e">jsoncomment</text>
</g>
<!-- jsoncomment&#45;&gt;shekels.core.database -->
<g id="edge59" class="edge">
<title>jsoncomment&#45;&gt;shekels.core.database</title>
<path fill="none" stroke="#de958e" d="M784.7069,-1001.9991C801.0657,-997.9107 818.7442,-992.2435 834,-984.5194 885.7915,-958.2974 936.2119,-912.6366 964.9923,-884.0774"/>
<polygon fill="#de958e" stroke="#de958e" points="967.6039,-886.4149 972.175,-876.8569 962.6412,-881.4782 967.6039,-886.4149"/>
</g>
<!-- jsoncomment&#45;&gt;shekels.server.app -->
<g id="edge60" class="edge">
<title>jsoncomment&#45;&gt;shekels.server.app</title>
<path fill="none" stroke="#de958e" d="M784.5116,-1013.7052C862.595,-1014.2842 1009.29,-1005.243 1109,-937.5194 1304.3509,-804.8361 1396.772,-509.902 1421.4962,-418.2455"/>
<polygon fill="#de958e" stroke="#de958e" points="1424.8805,-419.1377 1424.0552,-408.5751 1418.1135,-417.347 1424.8805,-419.1377"/>
</g>
<!-- pandasql -->
<g id="node33" class="node">
<title>pandasql</title>
<polygon fill="#343434" stroke="#343434" points="772.5,-975.5194 689.5,-975.5194 689.5,-939.5194 772.5,-939.5194 772.5,-975.5194"/>
<text text-anchor="middle" x="731" y="-953.8194" font-family="Courier,monospace" font-size="14.00" fill="#de958e">pandasql</text>
</g>
<!-- pandasql&#45;&gt;shekels.core.database -->
<g id="edge61" class="edge">
<title>pandasql&#45;&gt;shekels.core.database</title>
<path fill="none" stroke="#de958e" d="M772.9328,-945.5864C791.7586,-939.9494 814.1529,-932.8549 834,-925.5194 870.6072,-911.9894 911.0679,-894.4727 941.5392,-880.7435"/>
<polygon fill="#de958e" stroke="#de958e" points="942.9943,-883.9267 950.6597,-876.6129 940.1064,-877.5502 942.9943,-883.9267"/>
</g>
<!-- pandasql&#45;&gt;shekels.server.api -->
<g id="edge62" class="edge">
<title>pandasql&#45;&gt;shekels.server.api</title>
<path fill="none" stroke="#de958e" d="M772.6108,-961.5518C848.378,-966.5597 1010.1327,-966.1812 1109,-885.5194 1191.4266,-818.271 1217.1499,-684.2713 1224.6414,-625.85"/>
<polygon fill="#de958e" stroke="#de958e" points="1228.1245,-626.1992 1225.8377,-615.8541 1221.1741,-625.3674 1228.1245,-626.1992"/>
</g>
<!-- flasgger -->
<g id="node34" class="node">
<title>flasgger</title>
<polygon fill="#343434" stroke="#343434" points="1031,-397.5194 948,-397.5194 948,-361.5194 1031,-361.5194 1031,-397.5194"/>
<text text-anchor="middle" x="989.5" y="-375.8194" font-family="Courier,monospace" font-size="14.00" fill="#de958e">flasgger</text>
</g>
<!-- flasgger&#45;&gt;shekels.server.api -->
<g id="edge63" class="edge">
<title>flasgger&#45;&gt;shekels.server.api</title>
<path fill="none" stroke="#de958e" d="M1031.0308,-383.4932C1056.6443,-388.0308 1088.4211,-397.7424 1109,-418.5194 1146.3902,-456.2697 1114.7938,-488.808 1145,-532.5194 1156.1956,-548.7206 1172.6281,-562.8206 1187.8863,-573.7089"/>
<polygon fill="#de958e" stroke="#de958e" points="1185.9771,-576.6436 1196.2016,-579.4205 1189.9404,-570.8736 1185.9771,-576.6436"/>
</g>
<!-- flasgger&#45;&gt;shekels.server.app -->
<g id="edge64" class="edge">
<title>flasgger&#45;&gt;shekels.server.app</title>
<path fill="none" stroke="#de958e" d="M1031.2469,-380.2727C1092.4178,-381.4124 1209.9976,-383.7397 1310,-386.5194 1318.3561,-386.7517 1327.043,-387.011 1335.7455,-387.2828"/>
<polygon fill="#de958e" stroke="#de958e" points="1335.8437,-390.7875 1345.9497,-387.6067 1336.0659,-383.7911 1335.8437,-390.7875"/>
</g>
</g>
</svg>
