<?xml version="1.0" encoding="UTF-8" standalone="no"?>
<!DOCTYPE svg PUBLIC "-//W3C//DTD SVG 1.1//EN"
 "http://www.w3.org/Graphics/SVG/1.1/DTD/svg11.dtd">
<!-- Generated by graphviz version 2.40.1 (20161225.0304)
 -->
<!-- Title: %3 Pages: 1 -->
<svg width="1519pt" height="1145pt"
 viewBox="0.00 0.00 1519.00 1145.15" xmlns="http://www.w3.org/2000/svg" xmlns:xlink="http://www.w3.org/1999/xlink">
<g id="graph0" class="graph" transform="scale(1 1) rotate(0) translate(4 1141.1515)">
<title>%3</title>
<polygon fill="#242424" stroke="transparent" points="-4,4 -4,-1141.1515 1515,-1141.1515 1515,4 -4,4"/>
<!-- cli -->
<g id="node1" class="node">
<title>cli</title>
<polygon fill="#343434" stroke="#343434" points="64,-474.3504 10,-474.3504 10,-438.3504 64,-438.3504 64,-474.3504"/>
<text text-anchor="middle" x="37" y="-452.6504" font-family="Courier,monospace" font-size="14.00" fill="#b6ecf3">cli</text>
</g>
<!-- shekels.core.config -->
<g id="node2" class="node">
<title>shekels.core.config</title>
<polygon fill="#343434" stroke="#343434" points="550.5,-984.3504 377.5,-984.3504 377.5,-948.3504 550.5,-948.3504 550.5,-984.3504"/>
<text text-anchor="middle" x="464" y="-962.6504" font-family="Courier,monospace" font-size="14.00" fill="#b6ecf3">shekels.core.config</text>
</g>
<!-- shekels.core.data_tools -->
<g id="node3" class="node">
<title>shekels.core.data_tools</title>
<polygon fill="#343434" stroke="#343434" points="834,-686.3504 628,-686.3504 628,-650.3504 834,-650.3504 834,-686.3504"/>
<text text-anchor="middle" x="731" y="-664.6504" font-family="Courier,monospace" font-size="14.00" fill="#b6ecf3">shekels.core.data_tools</text>
</g>
<!-- shekels.core.config&#45;&gt;shekels.core.data_tools -->
<g id="edge1" class="edge">
<title>shekels.core.config&#45;&gt;shekels.core.data_tools</title>
<path fill="none" stroke="#b6ecf3" d="M490.5268,-948.3049C517.7212,-929.0818 560.3902,-896.8594 592,-863.3504 643.3692,-808.8948 691.2433,-734.5708 715.1247,-695.2696"/>
<polygon fill="#b6ecf3" stroke="#b6ecf3" points="718.2328,-696.8928 720.3952,-686.5209 712.2368,-693.2806 718.2328,-696.8928"/>
</g>
<!-- shekels.core.database -->
<g id="node4" class="node">
<title>shekels.core.database</title>
<polygon fill="#343434" stroke="#343434" points="1084.5,-917.3504 894.5,-917.3504 894.5,-881.3504 1084.5,-881.3504 1084.5,-917.3504"/>
<text text-anchor="middle" x="989.5" y="-895.6504" font-family="Courier,monospace" font-size="14.00" fill="#b6ecf3">shekels.core.database</text>
</g>
<!-- shekels.core.config&#45;&gt;shekels.core.database -->
<g id="edge2" class="edge">
<title>shekels.core.config&#45;&gt;shekels.core.database</title>
<path fill="none" stroke="#b6ecf3" d="M550.696,-961.2729C625.9012,-956.1802 737.5346,-946.9668 834,-932.3504 856.5805,-928.9291 880.8114,-924.2713 903.2661,-919.534"/>
<polygon fill="#b6ecf3" stroke="#b6ecf3" points="904.0601,-922.9435 913.107,-917.4295 902.5962,-916.0982 904.0601,-922.9435"/>
</g>
<!-- shekels.server.app -->
<g id="node7" class="node">
<title>shekels.server.app</title>
<polygon fill="#343434" stroke="#343434" points="1511,-397.3504 1346,-397.3504 1346,-361.3504 1511,-361.3504 1511,-397.3504"/>
<text text-anchor="middle" x="1428.5" y="-375.6504" font-family="Courier,monospace" font-size="14.00" fill="#b6ecf3">shekels.server.app</text>
</g>
<!-- shekels.core.config&#45;&gt;shekels.server.app -->
<g id="edge3" class="edge">
<title>shekels.core.config&#45;&gt;shekels.server.app</title>
<path fill="none" stroke="#b6ecf3" d="M550.6753,-973.4569C565.5235,-977.6731 580.0067,-983.9855 592,-993.3504 620.827,-1015.86 596.993,-1047.9534 628,-1067.3504 811.7264,-1182.2841 920.2387,-1093.8131 1109,-987.3504 1214.7518,-927.7057 1246.5411,-905.8585 1310,-802.3504 1391.5175,-669.3868 1418.4162,-478.9228 1425.9396,-407.6743"/>
<polygon fill="#b6ecf3" stroke="#b6ecf3" points="1429.4275,-407.9692 1426.9498,-397.6681 1422.4629,-407.266 1429.4275,-407.9692"/>
</g>
<!-- shekels.server.components -->
<g id="node8" class="node">
<title>shekels.server.components</title>
<polygon fill="#343434" stroke="#343434" points="1101,-294.3504 878,-294.3504 878,-258.3504 1101,-258.3504 1101,-294.3504"/>
<text text-anchor="middle" x="989.5" y="-272.6504" font-family="Courier,monospace" font-size="14.00" fill="#b6ecf3">shekels.server.components</text>
</g>
<!-- shekels.core.config&#45;&gt;shekels.server.components -->
<g id="edge4" class="edge">
<title>shekels.core.config&#45;&gt;shekels.server.components</title>
<path fill="none" stroke="#b6ecf3" d="M499.9405,-948.3449C530.2384,-931.0482 571.793,-901.8704 592,-863.3504 642.9262,-766.2716 555.0276,-453.16 628,-371.3504 690.0266,-301.8122 747.7288,-367.5662 834,-332.3504 851.8035,-325.0831 852.4797,-316.2761 870,-308.3504 878.9525,-304.3006 888.5218,-300.6762 898.2014,-297.4546"/>
<polygon fill="#b6ecf3" stroke="#b6ecf3" points="899.4325,-300.7358 907.899,-294.3664 897.3085,-294.0659 899.4325,-300.7358"/>
</g>
<!-- shekels.core.data_tools&#45;&gt;shekels.core.database -->
<g id="edge5" class="edge">
<title>shekels.core.data_tools&#45;&gt;shekels.core.database</title>
<path fill="none" stroke="#b6ecf3" d="M751.2841,-686.4766C797.2472,-727.5501 909.3942,-827.7666 961.7387,-874.5425"/>
<polygon fill="#b6ecf3" stroke="#b6ecf3" points="959.5214,-877.2549 969.3102,-881.3085 964.1857,-872.0353 959.5214,-877.2549"/>
</g>
<!-- shekels.core.data_tools&#45;&gt;shekels.server.components -->
<g id="edge6" class="edge">
<title>shekels.core.data_tools&#45;&gt;shekels.server.components</title>
<path fill="none" stroke="#b6ecf3" d="M758.5931,-650.3455C782.6194,-633.0916 816.2968,-604.7798 834,-571.3504 881.3949,-481.8534 812.8361,-429.9464 870,-346.3504 884.2504,-325.5108 906.9143,-309.9902 928.6926,-298.9312"/>
<polygon fill="#b6ecf3" stroke="#b6ecf3" points="930.4625,-301.9633 937.9449,-294.4623 927.418,-295.66 930.4625,-301.9633"/>
</g>
<!-- shekels.server.api -->
<g id="node6" class="node">
<title>shekels.server.api</title>
<polygon fill="#343434" stroke="#343434" points="1310,-608.3504 1145,-608.3504 1145,-572.3504 1310,-572.3504 1310,-608.3504"/>
<text text-anchor="middle" x="1227.5" y="-586.6504" font-family="Courier,monospace" font-size="14.00" fill="#b6ecf3">shekels.server.api</text>
</g>
<!-- shekels.core.database&#45;&gt;shekels.server.api -->
<g id="edge7" class="edge">
<title>shekels.core.database&#45;&gt;shekels.server.api</title>
<path fill="none" stroke="#b6ecf3" d="M1003.6752,-880.9464C1044.1042,-828.4567 1160.0879,-677.8729 1207.2204,-616.6798"/>
<polygon fill="#b6ecf3" stroke="#b6ecf3" points="1210.0698,-618.7162 1213.399,-608.658 1204.5241,-614.4447 1210.0698,-618.7162"/>
</g>
<!-- shekels.enforce.enforce_tools -->
<g id="node5" class="node">
<title>shekels.enforce.enforce_tools</title>
<polygon fill="#343434" stroke="#343434" points="592,-524.3504 336,-524.3504 336,-488.3504 592,-488.3504 592,-524.3504"/>
<text text-anchor="middle" x="464" y="-502.6504" font-family="Courier,monospace" font-size="14.00" fill="#b6ecf3">shekels.enforce.enforce_tools</text>
</g>
<!-- shekels.enforce.enforce_tools&#45;&gt;shekels.core.data_tools -->
<g id="edge8" class="edge">
<title>shekels.enforce.enforce_tools&#45;&gt;shekels.core.data_tools</title>
<path fill="none" stroke="#b6ecf3" d="M572.9113,-524.4184C579.5337,-527.0082 585.9551,-529.9679 592,-533.3504 612.3022,-544.7107 611.5251,-554.9244 628,-571.3504 652.9872,-596.2635 682.3634,-623.7596 703.3354,-643.0956"/>
<polygon fill="#b6ecf3" stroke="#b6ecf3" points="701.2051,-645.8915 710.9349,-650.0844 705.9434,-640.739 701.2051,-645.8915"/>
</g>
<!-- shekels.server.api&#45;&gt;shekels.server.app -->
<g id="edge9" class="edge">
<title>shekels.server.api&#45;&gt;shekels.server.app</title>
<path fill="none" stroke="#b6ecf3" d="M1287.6154,-572.1552C1295.5832,-568.3134 1303.2998,-563.7467 1310,-558.3504 1361.8241,-516.6118 1399.001,-446.0237 1416.7532,-407.1305"/>
<polygon fill="#b6ecf3" stroke="#b6ecf3" points="1420.1687,-408.0649 1421.0436,-397.5063 1413.7752,-405.2147 1420.1687,-408.0649"/>
</g>
<!-- shekels.server.components&#45;&gt;shekels.server.app -->
<g id="edge10" class="edge">
<title>shekels.server.components&#45;&gt;shekels.server.app</title>
<path fill="none" stroke="#b6ecf3" d="M1101.0137,-275.5672C1163.8007,-278.0477 1242.8458,-286.1218 1310,-308.3504 1341.8985,-318.9091 1374.3742,-339.1758 1397.2415,-355.3623"/>
<polygon fill="#b6ecf3" stroke="#b6ecf3" points="1395.3581,-358.3194 1405.514,-361.3374 1399.4568,-352.6448 1395.3581,-358.3194"/>
</g>
<!-- shekels.server.server_tools -->
<g id="node9" class="node">
<title>shekels.server.server_tools</title>
<polygon fill="#343434" stroke="#343434" points="1109,-511.3504 870,-511.3504 870,-475.3504 1109,-475.3504 1109,-511.3504"/>
<text text-anchor="middle" x="989.5" y="-489.6504" font-family="Courier,monospace" font-size="14.00" fill="#b6ecf3">shekels.server.server_tools</text>
</g>
<!-- shekels.server.server_tools&#45;&gt;shekels.server.api -->
<g id="edge11" class="edge">
<title>shekels.server.server_tools&#45;&gt;shekels.server.api</title>
<path fill="none" stroke="#b6ecf3" d="M1033.7082,-511.3681C1073.326,-527.5148 1131.543,-551.2419 1173.8213,-568.473"/>
<polygon fill="#b6ecf3" stroke="#b6ecf3" points="1172.544,-571.7319 1183.1254,-572.265 1175.1859,-565.2496 1172.544,-571.7319"/>
</g>
<!-- shekels.server.server_tools&#45;&gt;shekels.server.app -->
<g id="edge12" class="edge">
<title>shekels.server.server_tools&#45;&gt;shekels.server.app</title>
<path fill="none" stroke="#b6ecf3" d="M1019.0034,-475.3453C1049.4383,-457.6482 1098.8406,-431.3225 1145,-417.3504 1206.9709,-398.5924 1279.3569,-389.0846 1335.4734,-384.2703"/>
<polygon fill="#b6ecf3" stroke="#b6ecf3" points="1336.0766,-387.7326 1345.7561,-383.4248 1335.5029,-380.7561 1336.0766,-387.7326"/>
</g>
<!-- dash.dependencies -->
<g id="node10" class="node">
<title>dash.dependencies</title>
<polygon fill="#343434" stroke="#343434" points="1306,-516.3504 1149,-516.3504 1149,-480.3504 1306,-480.3504 1306,-516.3504"/>
<text text-anchor="middle" x="1227.5" y="-494.6504" font-family="Courier,monospace" font-size="14.00" fill="#de958e">dash.dependencies</text>
</g>
<!-- dash.dependencies&#45;&gt;shekels.server.app -->
<g id="edge13" class="edge">
<title>dash.dependencies&#45;&gt;shekels.server.app</title>
<path fill="none" stroke="#de958e" d="M1290.6064,-480.2168C1297.2916,-477.557 1303.8775,-474.6022 1310,-471.3504 1344.3624,-453.1002 1378.9728,-424.8215 1401.8406,-404.4331"/>
<polygon fill="#de958e" stroke="#de958e" points="1404.3498,-406.8829 1409.4198,-397.5799 1399.655,-401.6907 1404.3498,-406.8829"/>
</g>
<!-- dash.exceptions -->
<g id="node11" class="node">
<title>dash.exceptions</title>
<polygon fill="#343434" stroke="#343434" points="1297.5,-462.3504 1157.5,-462.3504 1157.5,-426.3504 1297.5,-426.3504 1297.5,-462.3504"/>
<text text-anchor="middle" x="1227.5" y="-440.6504" font-family="Courier,monospace" font-size="14.00" fill="#de958e">dash.exceptions</text>
</g>
<!-- dash.exceptions&#45;&gt;shekels.server.app -->
<g id="edge14" class="edge">
<title>dash.exceptions&#45;&gt;shekels.server.app</title>
<path fill="none" stroke="#de958e" d="M1283.2228,-426.3306C1307.9476,-418.335 1337.2175,-408.8697 1362.9825,-400.5377"/>
<polygon fill="#de958e" stroke="#de958e" points="1364.2309,-403.8125 1372.6688,-397.4053 1362.077,-397.1521 1364.2309,-403.8125"/>
</g>
<!-- shekels.server -->
<g id="node12" class="node">
<title>shekels.server</title>
<polygon fill="#343434" stroke="#343434" points="797,-416.3504 665,-416.3504 665,-380.3504 797,-380.3504 797,-416.3504"/>
<text text-anchor="middle" x="731" y="-394.6504" font-family="Courier,monospace" font-size="14.00" fill="#a0d17b">shekels.server</text>
</g>
<!-- shekels.server&#45;&gt;shekels.server.api -->
<g id="edge15" class="edge">
<title>shekels.server&#45;&gt;shekels.server.api</title>
<path fill="none" stroke="#a0d17b" d="M797.2855,-403.7332C891.7967,-412.4896 1059.3492,-432.3489 1109,-466.3504 1134.3448,-483.7069 1124.6141,-502.3717 1145,-525.3504 1158.5797,-540.6573 1176.1067,-555.0345 1191.511,-566.3559"/>
<polygon fill="#a0d17b" stroke="#a0d17b" points="1189.648,-569.327 1199.812,-572.3176 1193.7314,-563.6414 1189.648,-569.327"/>
</g>
<!-- shekels.server&#45;&gt;shekels.server.app -->
<g id="edge16" class="edge">
<title>shekels.server&#45;&gt;shekels.server.app</title>
<path fill="none" stroke="#a0d17b" d="M796.2961,-380.2938C808.9745,-376.1656 822.0346,-371.4681 834,-366.3504 850.8287,-359.1527 852.2818,-350.9417 870,-346.3504 1035.2619,-303.5268 1236.8626,-335.062 1347.0018,-359.0367"/>
<polygon fill="#a0d17b" stroke="#a0d17b" points="1346.5258,-362.516 1357.0457,-361.2575 1348.0371,-355.681 1346.5258,-362.516"/>
</g>
<!-- shekels.server&#45;&gt;shekels.server.components -->
<g id="edge17" class="edge">
<title>shekels.server&#45;&gt;shekels.server.components</title>
<path fill="none" stroke="#a0d17b" d="M797.0739,-385.4918C810.1652,-380.9077 823.1868,-374.7126 834,-366.3504 858.0003,-347.7903 845.6371,-326.432 870,-308.3504 874.8061,-304.7835 879.9819,-301.6139 885.39,-298.7974"/>
<polygon fill="#a0d17b" stroke="#a0d17b" points="887.1544,-301.8342 894.6864,-294.3831 884.1517,-295.5109 887.1544,-301.8342"/>
</g>
<!-- shekels.server&#45;&gt;shekels.server.server_tools -->
<g id="edge18" class="edge">
<title>shekels.server&#45;&gt;shekels.server.server_tools</title>
<path fill="none" stroke="#a0d17b" d="M797.1995,-411.6433C809.7371,-415.2845 822.5141,-419.803 834,-425.3504 852.0095,-434.0486 852.3252,-442.9908 870,-452.3504 884.2061,-459.8732 900.0723,-466.449 915.4838,-472.0035"/>
<polygon fill="#a0d17b" stroke="#a0d17b" points="914.4071,-475.3347 925.002,-475.3293 916.7162,-468.7265 914.4071,-475.3347"/>
</g>
<!-- dash -->
<g id="node13" class="node">
<title>dash</title>
<polygon fill="#343434" stroke="#343434" points="758,-210.3504 704,-210.3504 704,-174.3504 758,-174.3504 758,-210.3504"/>
<text text-anchor="middle" x="731" y="-188.6504" font-family="Courier,monospace" font-size="14.00" fill="#de958e">dash</text>
</g>
<!-- dash&#45;&gt;shekels.server.app -->
<g id="edge19" class="edge">
<title>dash&#45;&gt;shekels.server.app</title>
<path fill="none" stroke="#de958e" d="M758.1508,-194.1184C858.7076,-200.9833 1209.3157,-227.8233 1310,-274.3504 1349.4551,-292.583 1385.3798,-328.3519 1407.0824,-353.0374"/>
<polygon fill="#de958e" stroke="#de958e" points="1404.7073,-355.6436 1413.8817,-360.9428 1410.0144,-351.079 1404.7073,-355.6436"/>
</g>
<!-- dash&#45;&gt;shekels.server.components -->
<g id="edge20" class="edge">
<title>dash&#45;&gt;shekels.server.components</title>
<path fill="none" stroke="#de958e" d="M758.1581,-200.6137C778.9554,-206.9838 808.3374,-216.0742 834,-224.3504 864.5356,-234.1982 898.3257,-245.4544 926.5854,-254.9698"/>
<polygon fill="#de958e" stroke="#de958e" points="925.742,-258.379 936.3361,-258.2578 927.9787,-251.7459 925.742,-258.379"/>
</g>
<!-- dash_core_components -->
<g id="node14" class="node">
<title>dash_core_components</title>
<polygon fill="#343434" stroke="#343434" points="822,-156.3504 640,-156.3504 640,-120.3504 822,-120.3504 822,-156.3504"/>
<text text-anchor="middle" x="731" y="-134.6504" font-family="Courier,monospace" font-size="14.00" fill="#de958e">dash_core_components</text>
</g>
<!-- dash_core_components&#45;&gt;shekels.server.app -->
<g id="edge21" class="edge">
<title>dash_core_components&#45;&gt;shekels.server.app</title>
<path fill="none" stroke="#de958e" d="M822.224,-133.6784C942.294,-131.6682 1156.1231,-142.7011 1310,-232.3504 1359.1909,-261.0093 1396.1768,-318.4379 1414.8782,-352.4114"/>
<polygon fill="#de958e" stroke="#de958e" points="1411.8507,-354.1717 1419.6631,-361.3283 1418.0188,-350.8618 1411.8507,-354.1717"/>
</g>
<!-- dash_core_components&#45;&gt;shekels.server.components -->
<g id="edge22" class="edge">
<title>dash_core_components&#45;&gt;shekels.server.components</title>
<path fill="none" stroke="#de958e" d="M811.5813,-156.4098C819.2946,-159.0464 826.8856,-162.0171 834,-165.3504 837.342,-166.9162 911.236,-219.9842 955.94,-252.1663"/>
<polygon fill="#de958e" stroke="#de958e" points="954.0326,-255.1058 964.1929,-258.1089 958.123,-249.4252 954.0326,-255.1058"/>
</g>
<!-- shekels -->
<g id="node15" class="node">
<title>shekels</title>
<polygon fill="#343434" stroke="#343434" points="74,-528.3504 0,-528.3504 0,-492.3504 74,-492.3504 74,-528.3504"/>
<text text-anchor="middle" x="37" y="-506.6504" font-family="Courier,monospace" font-size="14.00" fill="#a0d17b">shekels</text>
</g>
<!-- shekels&#45;&gt;shekels.server -->
<g id="edge23" class="edge">
<title>shekels&#45;&gt;shekels.server</title>
<path fill="none" stroke="#a0d17b" d="M64.2056,-492.2382C67.6645,-489.4441 71.0286,-486.4505 74,-483.3504 93.9591,-462.5266 87.795,-447.7607 110,-429.3504 194.011,-359.6964 229.0628,-355.1214 336,-333.3504 447.4907,-310.6524 480.9326,-308.6643 592,-333.3504 628.3315,-341.4256 666.4058,-360.0454 693.5004,-375.2959"/>
<polygon fill="#a0d17b" stroke="#a0d17b" points="691.8346,-378.3753 702.2497,-380.3185 695.3197,-372.3045 691.8346,-378.3753"/>
</g>
<!-- shekels.enforce -->
<g id="node18" class="node">
<title>shekels.enforce</title>
<polygon fill="#343434" stroke="#343434" points="275,-528.3504 135,-528.3504 135,-492.3504 275,-492.3504 275,-528.3504"/>
<text text-anchor="middle" x="205" y="-506.6504" font-family="Courier,monospace" font-size="14.00" fill="#a0d17b">shekels.enforce</text>
</g>
<!-- shekels&#45;&gt;shekels.enforce -->
<g id="edge24" class="edge">
<title>shekels&#45;&gt;shekels.enforce</title>
<path fill="none" stroke="#a0d17b" d="M74.2846,-510.3504C89.1534,-510.3504 106.8856,-510.3504 124.4188,-510.3504"/>
<polygon fill="#a0d17b" stroke="#a0d17b" points="124.6959,-513.8505 134.6959,-510.3504 124.6959,-506.8505 124.6959,-513.8505"/>
</g>
<!-- shekels.core -->
<g id="node21" class="node">
<title>shekels.core</title>
<polygon fill="#343434" stroke="#343434" points="263,-823.3504 147,-823.3504 147,-787.3504 263,-787.3504 263,-823.3504"/>
<text text-anchor="middle" x="205" y="-801.6504" font-family="Courier,monospace" font-size="14.00" fill="#a0d17b">shekels.core</text>
</g>
<!-- shekels&#45;&gt;shekels.core -->
<g id="edge25" class="edge">
<title>shekels&#45;&gt;shekels.core</title>
<path fill="none" stroke="#a0d17b" d="M45.038,-528.7429C57.7707,-557.416 83.8281,-614.263 110,-660.3504 134.2426,-703.0404 166.1632,-750.2004 186.1335,-778.8003"/>
<polygon fill="#a0d17b" stroke="#a0d17b" points="183.3168,-780.8794 191.9259,-787.0547 189.0468,-776.8586 183.3168,-780.8794"/>
</g>
<!-- dash_html_components -->
<g id="node16" class="node">
<title>dash_html_components</title>
<polygon fill="#343434" stroke="#343434" points="822,-102.3504 640,-102.3504 640,-66.3504 822,-66.3504 822,-102.3504"/>
<text text-anchor="middle" x="731" y="-80.6504" font-family="Courier,monospace" font-size="14.00" fill="#de958e">dash_html_components</text>
</g>
<!-- dash_html_components&#45;&gt;shekels.server.app -->
<g id="edge26" class="edge">
<title>dash_html_components&#45;&gt;shekels.server.app</title>
<path fill="none" stroke="#de958e" d="M822.0612,-72.9289C944.6028,-62.5285 1164.0219,-61.9425 1310,-165.3504 1374.9191,-211.3378 1408.2816,-304.6142 1421.5086,-351.3452"/>
<polygon fill="#de958e" stroke="#de958e" points="1418.1631,-352.3808 1424.1691,-361.1088 1424.9168,-350.5404 1418.1631,-352.3808"/>
</g>
<!-- dash_html_components&#45;&gt;shekels.server.components -->
<g id="edge27" class="edge">
<title>dash_html_components&#45;&gt;shekels.server.components</title>
<path fill="none" stroke="#de958e" d="M815.7832,-102.3725C822.1272,-104.9779 828.2773,-107.9534 834,-111.3504 894.4785,-147.2504 946.2846,-213.4151 972.0629,-250.1096"/>
<polygon fill="#de958e" stroke="#de958e" points="969.1852,-252.102 977.7519,-258.3359 974.9426,-248.1203 969.1852,-252.102"/>
</g>
<!-- dash_table -->
<g id="node17" class="node">
<title>dash_table</title>
<polygon fill="#343434" stroke="#343434" points="780.5,-48.3504 681.5,-48.3504 681.5,-12.3504 780.5,-12.3504 780.5,-48.3504"/>
<text text-anchor="middle" x="731" y="-26.6504" font-family="Courier,monospace" font-size="14.00" fill="#de958e">dash_table</text>
</g>
<!-- dash_table&#45;&gt;shekels.server.app -->
<g id="edge28" class="edge">
<title>dash_table&#45;&gt;shekels.server.app</title>
<path fill="none" stroke="#de958e" d="M780.5395,-19.7043C888.8968,.5508 1150.0343,32.4735 1310,-89.3504 1395.5414,-154.4956 1419.6339,-291.9705 1426.1711,-351.2119"/>
<polygon fill="#de958e" stroke="#de958e" points="1422.7059,-351.7328 1427.1982,-361.3281 1429.6701,-351.0256 1422.7059,-351.7328"/>
</g>
<!-- dash_table&#45;&gt;shekels.server.components -->
<g id="edge29" class="edge">
<title>dash_table&#45;&gt;shekels.server.components</title>
<path fill="none" stroke="#de958e" d="M780.6124,-36.1527C798.6047,-40.0374 818.3375,-46.5229 834,-57.3504 906.1573,-107.2328 956.2349,-202.0619 977.7187,-248.8444"/>
<polygon fill="#de958e" stroke="#de958e" points="974.572,-250.381 981.8667,-258.0645 980.9557,-247.5089 974.572,-250.381"/>
</g>
<!-- shekels.enforce&#45;&gt;shekels.enforce.enforce_tools -->
<g id="edge30" class="edge">
<title>shekels.enforce&#45;&gt;shekels.enforce.enforce_tools</title>
<path fill="none" stroke="#a0d17b" d="M275.0891,-509.268C290.8686,-509.0243 308.1505,-508.7574 325.649,-508.4871"/>
<polygon fill="#a0d17b" stroke="#a0d17b" points="326.0224,-511.9819 335.9672,-508.3278 325.9143,-504.9827 326.0224,-511.9819"/>
</g>
<!-- flask -->
<g id="node19" class="node">
<title>flask</title>
<polygon fill="#343434" stroke="#343434" points="760,-562.3504 702,-562.3504 702,-526.3504 760,-526.3504 760,-562.3504"/>
<text text-anchor="middle" x="731" y="-540.6504" font-family="Courier,monospace" font-size="14.00" fill="#de958e">flask</text>
</g>
<!-- flask&#45;&gt;shekels.server.api -->
<g id="edge31" class="edge">
<title>flask&#45;&gt;shekels.server.api</title>
<path fill="none" stroke="#de958e" d="M760.0093,-547.3669C788.1225,-550.2679 831.9715,-554.7335 870,-558.3504 959.908,-566.9018 1062.6,-576.0272 1134.7835,-582.3357"/>
<polygon fill="#de958e" stroke="#de958e" points="1134.4954,-585.8238 1144.7619,-583.2068 1135.1043,-578.8503 1134.4954,-585.8238"/>
</g>
<!-- flask&#45;&gt;shekels.server.app -->
<g id="edge32" class="edge">
<title>flask&#45;&gt;shekels.server.app</title>
<path fill="none" stroke="#de958e" d="M760.0563,-546.5161C863.3947,-553.7434 1212.1504,-573.9396 1310,-525.3504 1361.0472,-500.0019 1397.5818,-441.3242 1415.6567,-406.5661"/>
<polygon fill="#de958e" stroke="#de958e" points="1418.8794,-407.9487 1420.2619,-397.4444 1412.6306,-404.7938 1418.8794,-407.9487"/>
</g>
<!-- flask&#45;&gt;shekels.server.components -->
<g id="edge33" class="edge">
<title>flask&#45;&gt;shekels.server.components</title>
<path fill="none" stroke="#de958e" d="M760.1308,-533.0594C783.462,-522.556 815.2836,-504.6945 834,-479.3504 870.3791,-430.089 832.8117,-395.0039 870,-346.3504 885.7847,-325.6993 909.548,-310.0068 931.7366,-298.7676"/>
<polygon fill="#de958e" stroke="#de958e" points="933.3235,-301.8879 940.7933,-294.3743 930.2684,-295.5898 933.3235,-301.8879"/>
</g>
<!-- flask&#45;&gt;shekels.server.server_tools -->
<g id="edge34" class="edge">
<title>flask&#45;&gt;shekels.server.server_tools</title>
<path fill="none" stroke="#de958e" d="M760.1507,-538.5992C791.2117,-532.4712 842.1453,-522.4224 888.1337,-513.3492"/>
<polygon fill="#de958e" stroke="#de958e" points="889.0338,-516.7392 898.1672,-511.3697 887.6788,-509.8715 889.0338,-516.7392"/>
</g>
<!-- jinja2 -->
<g id="node20" class="node">
<title>jinja2</title>
<polygon fill="#343434" stroke="#343434" points="764,-470.3504 698,-470.3504 698,-434.3504 764,-434.3504 764,-470.3504"/>
<text text-anchor="middle" x="731" y="-448.6504" font-family="Courier,monospace" font-size="14.00" fill="#de958e">jinja2</text>
</g>
<!-- jinja2&#45;&gt;shekels.server.server_tools -->
<g id="edge35" class="edge">
<title>jinja2&#45;&gt;shekels.server.server_tools</title>
<path fill="none" stroke="#de958e" d="M764.0018,-457.5848C790.1152,-461.7265 828.3213,-467.7863 865.8907,-473.7451"/>
<polygon fill="#de958e" stroke="#de958e" points="865.5133,-477.2289 875.9381,-475.3387 866.6099,-470.3153 865.5133,-477.2289"/>
</g>
<!-- shekels.core&#45;&gt;shekels.core.config -->
<g id="edge36" class="edge">
<title>shekels.core&#45;&gt;shekels.core.config</title>
<path fill="none" stroke="#a0d17b" d="M229.8152,-823.611C249.8501,-838.9527 278.1947,-862.0503 300,-885.3504 318.4651,-905.0814 313.5612,-919.2916 336,-934.3504 345.6586,-940.8324 356.5219,-946.0019 367.732,-950.1246"/>
<polygon fill="#a0d17b" stroke="#a0d17b" points="366.6168,-953.4422 377.2112,-953.3473 368.87,-946.8147 366.6168,-953.4422"/>
</g>
<!-- shekels.core&#45;&gt;shekels.core.data_tools -->
<g id="edge37" class="edge">
<title>shekels.core&#45;&gt;shekels.core.data_tools</title>
<path fill="none" stroke="#a0d17b" d="M263.2567,-792.5353C355.3826,-772.1458 530.5473,-732.8405 592,-715.3504 618.4966,-707.8092 647.4121,-698.252 671.9743,-689.7279"/>
<polygon fill="#a0d17b" stroke="#a0d17b" points="673.2246,-692.9986 681.5097,-686.3951 670.9149,-686.3906 673.2246,-692.9986"/>
</g>
<!-- shekels.core&#45;&gt;shekels.core.database -->
<g id="edge38" class="edge">
<title>shekels.core&#45;&gt;shekels.core.database</title>
<path fill="none" stroke="#a0d17b" d="M223.3864,-823.6811C247.0579,-845.8596 290.5805,-882.0083 336,-896.3504 434.9185,-927.5859 725.9517,-915.7292 884.1754,-906.4046"/>
<polygon fill="#a0d17b" stroke="#a0d17b" points="884.628,-909.8839 894.4018,-905.7946 884.2111,-902.8963 884.628,-909.8839"/>
</g>
<!-- pyparsing -->
<g id="node22" class="node">
<title>pyparsing</title>
<polygon fill="#343434" stroke="#343434" points="509.5,-632.3504 418.5,-632.3504 418.5,-596.3504 509.5,-596.3504 509.5,-632.3504"/>
<text text-anchor="middle" x="464" y="-610.6504" font-family="Courier,monospace" font-size="14.00" fill="#de958e">pyparsing</text>
</g>
<!-- pyparsing&#45;&gt;shekels.core.data_tools -->
<g id="edge39" class="edge">
<title>pyparsing&#45;&gt;shekels.core.data_tools</title>
<path fill="none" stroke="#de958e" d="M509.5956,-623.572C543.1023,-630.3487 589.9084,-639.8151 631.8581,-648.2993"/>
<polygon fill="#de958e" stroke="#de958e" points="631.3488,-651.7671 641.8442,-650.3189 632.7365,-644.906 631.3488,-651.7671"/>
</g>
<!-- schematics.exceptions -->
<g id="node23" class="node">
<title>schematics.exceptions</title>
<polygon fill="#343434" stroke="#343434" points="300,-1038.3504 110,-1038.3504 110,-1002.3504 300,-1002.3504 300,-1038.3504"/>
<text text-anchor="middle" x="205" y="-1016.6504" font-family="Courier,monospace" font-size="14.00" fill="#de958e">schematics.exceptions</text>
</g>
<!-- schematics.exceptions&#45;&gt;shekels.core.config -->
<g id="edge40" class="edge">
<title>schematics.exceptions&#45;&gt;shekels.core.config</title>
<path fill="none" stroke="#de958e" d="M291.6033,-1002.2941C316.0102,-997.2055 342.7088,-991.6389 367.6489,-986.4391"/>
<polygon fill="#de958e" stroke="#de958e" points="368.4032,-989.8572 377.4783,-984.3897 366.9744,-983.0045 368.4032,-989.8572"/>
</g>
<!-- schematics.exceptions&#45;&gt;shekels.core.data_tools -->
<g id="edge41" class="edge">
<title>schematics.exceptions&#45;&gt;shekels.core.data_tools</title>
<path fill="none" stroke="#de958e" d="M289.9518,-1002.0756C293.5977,-999.5252 296.9823,-996.6319 300,-993.3504 356.4053,-932.0149 277.0684,-868.2628 336,-809.3504 417.9866,-727.3906 484.6139,-803.0245 592,-759.3504 632.7444,-742.7796 674.2702,-713.6601 701.1886,-692.8221"/>
<polygon fill="#de958e" stroke="#de958e" points="703.6946,-695.3042 709.3956,-686.3739 699.3699,-689.7999 703.6946,-695.3042"/>
</g>
<!-- schematics.exceptions&#45;&gt;shekels.server.api -->
<g id="edge42" class="edge">
<title>schematics.exceptions&#45;&gt;shekels.server.api</title>
<path fill="none" stroke="#de958e" d="M250.3998,-1038.4134C398.6009,-1094.0645 872.2696,-1245.2066 1109,-1006.3504 1164.8905,-949.9581 1209.2996,-702.899 1223.0618,-618.6298"/>
<polygon fill="#de958e" stroke="#de958e" points="1226.5202,-619.1682 1224.658,-608.7383 1219.6095,-618.053 1226.5202,-619.1682"/>
</g>
<!-- lunchbox.tools -->
<g id="node24" class="node">
<title>lunchbox.tools</title>
<polygon fill="#343434" stroke="#343434" points="530,-432.3504 398,-432.3504 398,-396.3504 530,-396.3504 530,-432.3504"/>
<text text-anchor="middle" x="464" y="-410.6504" font-family="Courier,monospace" font-size="14.00" fill="#de958e">lunchbox.tools</text>
</g>
<!-- lunchbox.tools&#45;&gt;shekels.core.data_tools -->
<g id="edge43" class="edge">
<title>lunchbox.tools&#45;&gt;shekels.core.data_tools</title>
<path fill="none" stroke="#de958e" d="M530.3044,-417.7954C552.3819,-422.0802 575.5185,-430.4428 592,-446.3504 633.5982,-486.5002 597.8851,-521.9995 628,-571.3504 645.663,-600.2958 674.2276,-626.2301 696.8003,-643.9838"/>
<polygon fill="#de958e" stroke="#de958e" points="694.753,-646.8246 704.8142,-650.1449 699.0196,-641.2751 694.753,-646.8246"/>
</g>
<!-- lunchbox.tools&#45;&gt;shekels.server.server_tools -->
<g id="edge44" class="edge">
<title>lunchbox.tools&#45;&gt;shekels.server.server_tools</title>
<path fill="none" stroke="#de958e" d="M530.119,-424.3227C550.7422,-429.1277 573.037,-436.1513 592,-446.3504 611.1156,-456.6317 607.9275,-471.0918 628,-479.3504 700.6609,-509.2459 788.6315,-513.2668 859.5985,-509.5623"/>
<polygon fill="#de958e" stroke="#de958e" points="860.1615,-513.0356 869.9418,-508.9619 859.7557,-506.0474 860.1615,-513.0356"/>
</g>
<!-- lunchbox.enforce -->
<g id="node25" class="node">
<title>lunchbox.enforce</title>
<polygon fill="#343434" stroke="#343434" points="279.5,-474.3504 130.5,-474.3504 130.5,-438.3504 279.5,-438.3504 279.5,-474.3504"/>
<text text-anchor="middle" x="205" y="-452.6504" font-family="Courier,monospace" font-size="14.00" fill="#de958e">lunchbox.enforce</text>
</g>
<!-- lunchbox.enforce&#45;&gt;shekels.core.data_tools -->
<g id="edge45" class="edge">
<title>lunchbox.enforce&#45;&gt;shekels.core.data_tools</title>
<path fill="none" stroke="#de958e" d="M279.8855,-451.5224C378.2012,-446.7253 543.9556,-444.4246 592,-479.3504 627.5153,-505.1683 603.4188,-534.9682 628,-571.3504 647.1059,-599.6288 675.812,-625.7838 698.0701,-643.7908"/>
<polygon fill="#de958e" stroke="#de958e" points="695.9406,-646.5691 705.949,-650.0452 700.2928,-641.0865 695.9406,-646.5691"/>
</g>
<!-- lunchbox.enforce&#45;&gt;shekels.enforce.enforce_tools -->
<g id="edge46" class="edge">
<title>lunchbox.enforce&#45;&gt;shekels.enforce.enforce_tools</title>
<path fill="none" stroke="#de958e" d="M279.5661,-470.7454C304.8543,-475.6273 333.5731,-481.1715 360.6926,-486.4069"/>
<polygon fill="#de958e" stroke="#de958e" points="360.1201,-489.861 370.6023,-488.32 361.447,-482.9879 360.1201,-489.861"/>
</g>
<!-- lunchbox.enforce&#45;&gt;shekels.server.components -->
<g id="edge47" class="edge">
<title>lunchbox.enforce&#45;&gt;shekels.server.components</title>
<path fill="none" stroke="#de958e" d="M210.6557,-438.3408C224.4442,-397.9302 264.0444,-300.5862 336,-262.3504 424.8928,-215.1147 704.4301,-240.0723 867.6829,-259.8474"/>
<polygon fill="#de958e" stroke="#de958e" points="867.4305,-263.3425 877.7813,-261.082 868.28,-256.3942 867.4305,-263.3425"/>
</g>
<!-- numpy -->
<g id="node26" class="node">
<title>numpy</title>
<polygon fill="#343434" stroke="#343434" points="493,-854.3504 435,-854.3504 435,-818.3504 493,-818.3504 493,-854.3504"/>
<text text-anchor="middle" x="464" y="-832.6504" font-family="Courier,monospace" font-size="14.00" fill="#de958e">numpy</text>
</g>
<!-- numpy&#45;&gt;shekels.core.data_tools -->
<g id="edge48" class="edge">
<title>numpy&#45;&gt;shekels.core.data_tools</title>
<path fill="none" stroke="#de958e" d="M493.0569,-833.4983C520.1008,-829.8551 560.8091,-821.7865 592,-804.3504 642.1028,-776.3425 686.964,-725.5519 711.4475,-694.5928"/>
<polygon fill="#de958e" stroke="#de958e" points="714.4252,-696.465 717.8001,-686.422 708.899,-692.1684 714.4252,-696.465"/>
</g>
<!-- numpy&#45;&gt;shekels.core.database -->
<g id="edge49" class="edge">
<title>numpy&#45;&gt;shekels.core.database</title>
<path fill="none" stroke="#de958e" d="M493.4026,-837.4528C556.2188,-840.0888 708.0532,-847.9578 834,-866.3504 856.8364,-869.6854 881.3462,-874.3628 903.9994,-879.1499"/>
<polygon fill="#de958e" stroke="#de958e" points="903.4111,-882.6032 913.9228,-881.2783 904.8792,-875.7589 903.4111,-882.6032"/>
</g>
<!-- pandas -->
<g id="node27" class="node">
<title>pandas</title>
<polygon fill="#343434" stroke="#343434" points="238,-651.3504 172,-651.3504 172,-615.3504 238,-615.3504 238,-651.3504"/>
<text text-anchor="middle" x="205" y="-629.6504" font-family="Courier,monospace" font-size="14.00" fill="#de958e">pandas</text>
</g>
<!-- pandas&#45;&gt;shekels.core.data_tools -->
<g id="edge50" class="edge">
<title>pandas&#45;&gt;shekels.core.data_tools</title>
<path fill="none" stroke="#de958e" d="M233.5656,-651.4337C259.2409,-666.547 298.5619,-686.9383 336,-695.3504 440.3488,-718.797 563.7708,-703.768 644.533,-688.3725"/>
<polygon fill="#de958e" stroke="#de958e" points="645.5115,-691.7476 654.6566,-686.398 644.1715,-684.8771 645.5115,-691.7476"/>
</g>
<!-- pandas&#45;&gt;shekels.core.database -->
<g id="edge51" class="edge">
<title>pandas&#45;&gt;shekels.core.database</title>
<path fill="none" stroke="#de958e" d="M218.4022,-651.4655C237.8871,-678.2897 274.4904,-730.561 300,-778.3504 319.3194,-814.5433 302.4341,-839.7604 336,-863.3504 379.6374,-894.0188 710.801,-899.066 884.2525,-899.5776"/>
<polygon fill="#de958e" stroke="#de958e" points="884.4182,-903.078 894.4269,-899.603 884.4357,-896.078 884.4182,-903.078"/>
</g>
<!-- pandas&#45;&gt;shekels.enforce.enforce_tools -->
<g id="edge52" class="edge">
<title>pandas&#45;&gt;shekels.enforce.enforce_tools</title>
<path fill="none" stroke="#de958e" d="M223.193,-615.1377C246.999,-592.3971 291.0059,-553.9826 336,-533.3504 340.3514,-531.3551 344.854,-529.5053 349.4534,-527.7906"/>
<polygon fill="#de958e" stroke="#de958e" points="350.7228,-531.0547 359.0128,-524.4573 348.418,-524.445 350.7228,-531.0547"/>
</g>
<!-- pandas&#45;&gt;shekels.server.components -->
<g id="edge53" class="edge">
<title>pandas&#45;&gt;shekels.server.components</title>
<path fill="none" stroke="#de958e" d="M230.3244,-615.0488C252.4,-597.648 283.4081,-569.4224 300,-537.3504 342.3039,-455.5774 268.9075,-396.3984 336,-333.3504 410.2649,-263.5624 700.0827,-263.4936 867.7725,-269.771"/>
<polygon fill="#de958e" stroke="#de958e" points="867.7656,-273.2733 877.8937,-270.1631 868.0367,-266.2785 867.7656,-273.2733"/>
</g>
<!-- pandasql -->
<g id="node28" class="node">
<title>pandasql</title>
<polygon fill="#343434" stroke="#343434" points="505.5,-1038.3504 422.5,-1038.3504 422.5,-1002.3504 505.5,-1002.3504 505.5,-1038.3504"/>
<text text-anchor="middle" x="464" y="-1016.6504" font-family="Courier,monospace" font-size="14.00" fill="#de958e">pandasql</text>
</g>
<!-- pandasql&#45;&gt;shekels.core.data_tools -->
<g id="edge54" class="edge">
<title>pandasql&#45;&gt;shekels.core.data_tools</title>
<path fill="none" stroke="#de958e" d="M505.6704,-1021.0681C532.982,-1019.4349 567.9492,-1013.0903 592,-993.3504 687.0647,-915.3257 718.473,-760.2913 727.6312,-696.6355"/>
<polygon fill="#de958e" stroke="#de958e" points="731.1248,-696.9185 729.0052,-686.5378 724.1887,-695.9745 731.1248,-696.9185"/>
</g>
<!-- pandasql&#45;&gt;shekels.core.database -->
<g id="edge55" class="edge">
<title>pandasql&#45;&gt;shekels.core.database</title>
<path fill="none" stroke="#de958e" d="M505.6119,-1015.8584C574.6752,-1007.8284 716.9634,-988.8396 834,-957.3504 869.5259,-947.792 908.2961,-933.3403 938.2371,-921.2541"/>
<polygon fill="#de958e" stroke="#de958e" points="939.6948,-924.4396 947.6326,-917.4224 937.0513,-917.9579 939.6948,-924.4396"/>
</g>
<!-- pandasql&#45;&gt;shekels.server.api -->
<g id="edge56" class="edge">
<title>pandasql&#45;&gt;shekels.server.api</title>
<path fill="none" stroke="#de958e" d="M505.7732,-1035.827C538.5054,-1047.0916 585.4709,-1061.3766 628,-1067.3504 718.6655,-1080.0858 745.0013,-1088.8366 834,-1067.3504 967.5155,-1035.1169 1018.6353,-1029.7893 1109,-926.3504 1190.1704,-833.4361 1216.7912,-681.335 1224.5906,-618.6823"/>
<polygon fill="#de958e" stroke="#de958e" points="1228.0683,-619.0764 1225.7622,-608.7356 1221.1164,-618.2575 1228.0683,-619.0764"/>
</g>
<!-- cufflinks -->
<g id="node29" class="node">
<title>cufflinks</title>
<polygon fill="#343434" stroke="#343434" points="509.5,-578.3504 418.5,-578.3504 418.5,-542.3504 509.5,-542.3504 509.5,-578.3504"/>
<text text-anchor="middle" x="464" y="-556.6504" font-family="Courier,monospace" font-size="14.00" fill="#de958e">cufflinks</text>
</g>
<!-- cufflinks&#45;&gt;shekels.core.data_tools -->
<g id="edge57" class="edge">
<title>cufflinks&#45;&gt;shekels.core.data_tools</title>
<path fill="none" stroke="#de958e" d="M509.7387,-566.3571C534.6198,-570.5208 565.6151,-577.1847 592,-587.3504 630.0985,-602.0293 670.0094,-626.3551 697.2406,-644.5247"/>
<polygon fill="#de958e" stroke="#de958e" points="695.3731,-647.4869 705.618,-650.1875 699.2933,-641.6875 695.3731,-647.4869"/>
</g>
<!-- schematics.models -->
<g id="node30" class="node">
<title>schematics.models</title>
<polygon fill="#343434" stroke="#343434" points="283.5,-984.3504 126.5,-984.3504 126.5,-948.3504 283.5,-948.3504 283.5,-984.3504"/>
<text text-anchor="middle" x="205" y="-962.6504" font-family="Courier,monospace" font-size="14.00" fill="#de958e">schematics.models</text>
</g>
<!-- schematics.models&#45;&gt;shekels.core.config -->
<g id="edge58" class="edge">
<title>schematics.models&#45;&gt;shekels.core.config</title>
<path fill="none" stroke="#de958e" d="M283.7634,-966.3504C310.1406,-966.3504 339.8536,-966.3504 367.4322,-966.3504"/>
<polygon fill="#de958e" stroke="#de958e" points="367.486,-969.8505 377.486,-966.3504 367.486,-962.8505 367.486,-969.8505"/>
</g>
<!-- schematics.types -->
<g id="node31" class="node">
<title>schematics.types</title>
<polygon fill="#343434" stroke="#343434" points="279.5,-930.3504 130.5,-930.3504 130.5,-894.3504 279.5,-894.3504 279.5,-930.3504"/>
<text text-anchor="middle" x="205" y="-908.6504" font-family="Courier,monospace" font-size="14.00" fill="#de958e">schematics.types</text>
</g>
<!-- schematics.types&#45;&gt;shekels.core.config -->
<g id="edge59" class="edge">
<title>schematics.types&#45;&gt;shekels.core.config</title>
<path fill="none" stroke="#de958e" d="M279.5661,-927.897C306.9704,-933.6107 338.4035,-940.1643 367.4641,-946.2233"/>
<polygon fill="#de958e" stroke="#de958e" points="367.1298,-949.7288 377.6337,-948.3436 368.5586,-942.8761 367.1298,-949.7288"/>
</g>
<!-- rolling_pin.blob_etl -->
<g id="node32" class="node">
<title>rolling_pin.blob_etl</title>
<polygon fill="#343434" stroke="#343434" points="555,-378.3504 373,-378.3504 373,-342.3504 555,-342.3504 555,-378.3504"/>
<text text-anchor="middle" x="464" y="-356.6504" font-family="Courier,monospace" font-size="14.00" fill="#de958e">rolling_pin.blob_etl</text>
</g>
<!-- rolling_pin.blob_etl&#45;&gt;shekels.core.data_tools -->
<g id="edge60" class="edge">
<title>rolling_pin.blob_etl&#45;&gt;shekels.core.data_tools</title>
<path fill="none" stroke="#de958e" d="M555.1097,-365.7661C568.9012,-370.2408 581.8775,-377.0782 592,-387.3504 650.488,-446.7033 587.7362,-498.3954 628,-571.3504 644.2789,-600.8466 672.6802,-626.5801 695.5415,-644.116"/>
<polygon fill="#de958e" stroke="#de958e" points="693.5749,-647.0157 703.6807,-650.1975 697.7648,-641.4081 693.5749,-647.0157"/>
</g>
<!-- rolling_pin.blob_etl&#45;&gt;shekels.server.components -->
<g id="edge61" class="edge">
<title>rolling_pin.blob_etl&#45;&gt;shekels.server.components</title>
<path fill="none" stroke="#de958e" d="M555.235,-345.7667C641.8138,-331.9273 772.5176,-311.0346 867.9132,-295.7858"/>
<polygon fill="#de958e" stroke="#de958e" points="868.5828,-299.2233 877.9049,-294.1887 867.4778,-292.3111 868.5828,-299.2233"/>
</g>
<!-- webcolors -->
<g id="node33" class="node">
<title>webcolors</title>
<polygon fill="#343434" stroke="#343434" points="509.5,-686.3504 418.5,-686.3504 418.5,-650.3504 509.5,-650.3504 509.5,-686.3504"/>
<text text-anchor="middle" x="464" y="-664.6504" font-family="Courier,monospace" font-size="14.00" fill="#de958e">webcolors</text>
</g>
<!-- webcolors&#45;&gt;shekels.core.data_tools -->
<g id="edge62" class="edge">
<title>webcolors&#45;&gt;shekels.core.data_tools</title>
<path fill="none" stroke="#de958e" d="M509.5956,-668.3504C539.4014,-668.3504 579.7311,-668.3504 617.8046,-668.3504"/>
<polygon fill="#de958e" stroke="#de958e" points="617.9484,-671.8505 627.9484,-668.3504 617.9484,-664.8505 617.9484,-671.8505"/>
</g>
<!-- jsoncomment -->
<g id="node34" class="node">
<title>jsoncomment</title>
<polygon fill="#343434" stroke="#343434" points="784.5,-1058.3504 677.5,-1058.3504 677.5,-1022.3504 784.5,-1022.3504 784.5,-1058.3504"/>
<text text-anchor="middle" x="731" y="-1036.6504" font-family="Courier,monospace" font-size="14.00" fill="#de958e">jsoncomment</text>
</g>
<!-- jsoncomment&#45;&gt;shekels.core.database -->
<g id="edge63" class="edge">
<title>jsoncomment&#45;&gt;shekels.core.database</title>
<path fill="none" stroke="#de958e" d="M784.6137,-1027.1241C800.8836,-1022.2089 818.5355,-1015.9412 834,-1008.3504 881.341,-985.1132 930.2328,-948.3581 960.2537,-924.0509"/>
<polygon fill="#de958e" stroke="#de958e" points="962.6803,-926.5878 968.2038,-917.5467 958.2477,-921.17 962.6803,-926.5878"/>
</g>
<!-- jsoncomment&#45;&gt;shekels.server.app -->
<g id="edge64" class="edge">
<title>jsoncomment&#45;&gt;shekels.server.app</title>
<path fill="none" stroke="#de958e" d="M784.7397,-1035.7849C863.109,-1026.7371 1010.1584,-1000.4808 1109,-926.3504 1297.306,-785.1224 1394.0677,-497.7071 1420.7358,-407.2538"/>
<polygon fill="#de958e" stroke="#de958e" points="1424.153,-408.0363 1423.5752,-397.4572 1417.4297,-406.0876 1424.153,-408.0363"/>
</g>
<!-- flasgger -->
<g id="node35" class="node">
<title>flasgger</title>
<polygon fill="#343434" stroke="#343434" points="1031,-391.3504 948,-391.3504 948,-355.3504 1031,-355.3504 1031,-391.3504"/>
<text text-anchor="middle" x="989.5" y="-369.6504" font-family="Courier,monospace" font-size="14.00" fill="#de958e">flasgger</text>
</g>
<!-- flasgger&#45;&gt;shekels.server.api -->
<g id="edge65" class="edge">
<title>flasgger&#45;&gt;shekels.server.api</title>
<path fill="none" stroke="#de958e" d="M1031.2269,-382.1416C1056.7547,-389.4909 1088.3656,-402.4177 1109,-424.3504 1141.6544,-459.0593 1117.1966,-486.6466 1145,-525.3504 1156.5793,-541.4694 1173.2257,-555.6318 1188.5374,-566.5876"/>
<polygon fill="#de958e" stroke="#de958e" points="1186.6478,-569.5361 1196.8659,-572.3363 1190.6242,-563.7752 1186.6478,-569.5361"/>
</g>
<!-- flasgger&#45;&gt;shekels.server.app -->
<g id="edge66" class="edge">
<title>flasgger&#45;&gt;shekels.server.app</title>
<path fill="none" stroke="#de958e" d="M1031.1958,-373.9203C1100.6839,-374.87 1241.804,-376.7988 1335.7676,-378.083"/>
<polygon fill="#de958e" stroke="#de958e" points="1335.7984,-381.5837 1345.8454,-378.2208 1335.8942,-374.5843 1335.7984,-381.5837"/>
</g>
</g>
</svg>
