<?xml version="1.0" encoding="UTF-8" standalone="no"?>
<!DOCTYPE svg PUBLIC "-//W3C//DTD SVG 1.1//EN"
 "http://www.w3.org/Graphics/SVG/1.1/DTD/svg11.dtd">
<!-- Generated by graphviz version 2.40.1 (20161225.0304)
 -->
<!-- Title: %3 Pages: 1 -->
<svg width="1519pt" height="1186pt"
 viewBox="0.00 0.00 1519.00 1186.00" xmlns="http://www.w3.org/2000/svg" xmlns:xlink="http://www.w3.org/1999/xlink">
<g id="graph0" class="graph" transform="scale(1 1) rotate(0) translate(4 1182)">
<title>%3</title>
<polygon fill="#242424" stroke="transparent" points="-4,4 -4,-1182 1515,-1182 1515,4 -4,4"/>
<!-- cli -->
<g id="node1" class="node">
<title>cli</title>
<polygon fill="#343434" stroke="#343434" points="64,-864 10,-864 10,-828 64,-828 64,-864"/>
<text text-anchor="middle" x="37" y="-842.3" font-family="Courier,monospace" font-size="14.00" fill="#b6ecf3">cli</text>
</g>
<!-- shekels.core.config -->
<g id="node2" class="node">
<title>shekels.core.config</title>
<polygon fill="#343434" stroke="#343434" points="550.5,-864 377.5,-864 377.5,-828 550.5,-828 550.5,-864"/>
<text text-anchor="middle" x="464" y="-842.3" font-family="Courier,monospace" font-size="14.00" fill="#b6ecf3">shekels.core.config</text>
</g>
<!-- shekels.core.data_tools -->
<g id="node3" class="node">
<title>shekels.core.data_tools</title>
<polygon fill="#343434" stroke="#343434" points="834,-550 628,-550 628,-514 834,-514 834,-550"/>
<text text-anchor="middle" x="731" y="-528.3" font-family="Courier,monospace" font-size="14.00" fill="#b6ecf3">shekels.core.data_tools</text>
</g>
<!-- shekels.core.config&#45;&gt;shekels.core.data_tools -->
<g id="edge1" class="edge">
<title>shekels.core.config&#45;&gt;shekels.core.data_tools</title>
<path fill="none" stroke="#b6ecf3" d="M497.8684,-827.8319C527.4421,-810.1506 569.1136,-780.493 592,-743 633.3722,-675.223 575.7171,-627.7652 628,-568 632.2562,-563.1347 637.2078,-558.9268 642.594,-555.2876"/>
<polygon fill="#b6ecf3" stroke="#b6ecf3" points="644.5992,-558.1663 651.378,-550.0239 641.0011,-552.1618 644.5992,-558.1663"/>
</g>
<!-- shekels.core.database -->
<g id="node4" class="node">
<title>shekels.core.database</title>
<polygon fill="#343434" stroke="#343434" points="1084.5,-772 894.5,-772 894.5,-736 1084.5,-736 1084.5,-772"/>
<text text-anchor="middle" x="989.5" y="-750.3" font-family="Courier,monospace" font-size="14.00" fill="#b6ecf3">shekels.core.database</text>
</g>
<!-- shekels.core.config&#45;&gt;shekels.core.database -->
<g id="edge2" class="edge">
<title>shekels.core.config&#45;&gt;shekels.core.database</title>
<path fill="none" stroke="#b6ecf3" d="M550.7756,-830.8081C642.232,-814.7967 786.3315,-789.569 884.2225,-772.4311"/>
<polygon fill="#b6ecf3" stroke="#b6ecf3" points="884.8942,-775.8668 894.1408,-770.6947 883.687,-768.9717 884.8942,-775.8668"/>
</g>
<!-- shekels.server.app -->
<g id="node7" class="node">
<title>shekels.server.app</title>
<polygon fill="#343434" stroke="#343434" points="1511,-620 1346,-620 1346,-584 1511,-584 1511,-620"/>
<text text-anchor="middle" x="1428.5" y="-598.3" font-family="Courier,monospace" font-size="14.00" fill="#b6ecf3">shekels.server.app</text>
</g>
<!-- shekels.core.config&#45;&gt;shekels.server.app -->
<g id="edge3" class="edge">
<title>shekels.core.config&#45;&gt;shekels.server.app</title>
<path fill="none" stroke="#b6ecf3" d="M550.5176,-862.1554C713.4925,-887.7085 1071.0563,-920.0914 1310,-767 1362.7476,-733.2046 1399.3469,-666.8706 1416.8125,-629.4225"/>
<polygon fill="#b6ecf3" stroke="#b6ecf3" points="1420.0891,-630.6717 1421.0342,-620.119 1413.7147,-627.779 1420.0891,-630.6717"/>
</g>
<!-- shekels.server.components -->
<g id="node8" class="node">
<title>shekels.server.components</title>
<polygon fill="#343434" stroke="#343434" points="1101,-339 878,-339 878,-303 1101,-303 1101,-339"/>
<text text-anchor="middle" x="989.5" y="-317.3" font-family="Courier,monospace" font-size="14.00" fill="#b6ecf3">shekels.server.components</text>
</g>
<!-- shekels.core.config&#45;&gt;shekels.server.components -->
<g id="edge4" class="edge">
<title>shekels.core.config&#45;&gt;shekels.server.components</title>
<path fill="none" stroke="#b6ecf3" d="M496.7738,-827.8467C526.0213,-809.9809 567.8513,-780.0337 592,-743 625.6833,-691.3444 583.867,-652.0714 628,-609 695.4252,-543.1966 757.0534,-613.3642 834,-559 910.9341,-504.6446 959.5828,-399.0564 979.3612,-348.8351"/>
<polygon fill="#b6ecf3" stroke="#b6ecf3" points="982.7136,-349.8685 983.0377,-339.2786 976.1804,-347.355 982.7136,-349.8685"/>
</g>
<!-- shekels.core.data_tools&#45;&gt;shekels.core.database -->
<g id="edge5" class="edge">
<title>shekels.core.data_tools&#45;&gt;shekels.core.database</title>
<path fill="none" stroke="#b6ecf3" d="M756.9909,-550.2354C778.1826,-565.3845 808.6467,-587.809 834,-609 881.7803,-648.9361 934.1165,-699.2068 964.2541,-728.8478"/>
<polygon fill="#b6ecf3" stroke="#b6ecf3" points="961.8452,-731.3879 971.4216,-735.9204 966.7618,-726.4052 961.8452,-731.3879"/>
</g>
<!-- shekels.core.data_tools&#45;&gt;shekels.server.components -->
<g id="edge6" class="edge">
<title>shekels.core.data_tools&#45;&gt;shekels.server.components</title>
<path fill="none" stroke="#b6ecf3" d="M753.488,-513.6442C800.0102,-475.6706 906.8488,-388.4638 959.3124,-345.6405"/>
<polygon fill="#b6ecf3" stroke="#b6ecf3" points="961.7144,-348.1979 967.2481,-339.1631 957.288,-342.7751 961.7144,-348.1979"/>
</g>
<!-- shekels.server.api -->
<g id="node6" class="node">
<title>shekels.server.api</title>
<polygon fill="#343434" stroke="#343434" points="1310,-704 1145,-704 1145,-668 1310,-668 1310,-704"/>
<text text-anchor="middle" x="1227.5" y="-682.3" font-family="Courier,monospace" font-size="14.00" fill="#b6ecf3">shekels.server.api</text>
</g>
<!-- shekels.core.database&#45;&gt;shekels.server.api -->
<g id="edge7" class="edge">
<title>shekels.core.database&#45;&gt;shekels.server.api</title>
<path fill="none" stroke="#b6ecf3" d="M1052.6548,-735.9558C1083.98,-727.0057 1121.9822,-716.1479 1154.5456,-706.8441"/>
<polygon fill="#b6ecf3" stroke="#b6ecf3" points="1155.8097,-710.1231 1164.4634,-704.0105 1153.8866,-703.3924 1155.8097,-710.1231"/>
</g>
<!-- shekels.enforce.enforce_tools -->
<g id="node5" class="node">
<title>shekels.enforce.enforce_tools</title>
<polygon fill="#343434" stroke="#343434" points="592,-312 336,-312 336,-276 592,-276 592,-312"/>
<text text-anchor="middle" x="464" y="-290.3" font-family="Courier,monospace" font-size="14.00" fill="#b6ecf3">shekels.enforce.enforce_tools</text>
</g>
<!-- shekels.enforce.enforce_tools&#45;&gt;shekels.core.data_tools -->
<g id="edge8" class="edge">
<title>shekels.enforce.enforce_tools&#45;&gt;shekels.core.data_tools</title>
<path fill="none" stroke="#b6ecf3" d="M506.2592,-312.0999C532.4857,-324.5007 566.0197,-342.557 592,-364 643.4072,-406.4292 689.8557,-469.9691 713.8472,-505.5074"/>
<polygon fill="#b6ecf3" stroke="#b6ecf3" points="710.9911,-507.5329 719.4522,-513.9093 716.8142,-503.6482 710.9911,-507.5329"/>
</g>
<!-- shekels.server.api&#45;&gt;shekels.server.app -->
<g id="edge9" class="edge">
<title>shekels.server.api&#45;&gt;shekels.server.app</title>
<path fill="none" stroke="#b6ecf3" d="M1270.6195,-667.9799C1301.3812,-655.1243 1342.9291,-637.761 1375.682,-624.0732"/>
<polygon fill="#b6ecf3" stroke="#b6ecf3" points="1377.2283,-627.2204 1385.1054,-620.135 1374.5292,-620.7617 1377.2283,-627.2204"/>
</g>
<!-- shekels.server.components&#45;&gt;shekels.server.app -->
<g id="edge10" class="edge">
<title>shekels.server.components&#45;&gt;shekels.server.app</title>
<path fill="none" stroke="#b6ecf3" d="M1017.6292,-339.0053C1094.1201,-387.9664 1305.9045,-523.5277 1391.698,-578.4434"/>
<polygon fill="#b6ecf3" stroke="#b6ecf3" points="1390.0123,-581.5199 1400.3216,-583.9632 1393.7861,-575.6243 1390.0123,-581.5199"/>
</g>
<!-- shekels.server.server_tools -->
<g id="node9" class="node">
<title>shekels.server.server_tools</title>
<polygon fill="#343434" stroke="#343434" points="1109,-1012 870,-1012 870,-976 1109,-976 1109,-1012"/>
<text text-anchor="middle" x="989.5" y="-990.3" font-family="Courier,monospace" font-size="14.00" fill="#b6ecf3">shekels.server.server_tools</text>
</g>
<!-- shekels.server.server_tools&#45;&gt;shekels.server.api -->
<g id="edge11" class="edge">
<title>shekels.server.server_tools&#45;&gt;shekels.server.api</title>
<path fill="none" stroke="#b6ecf3" d="M1009.5958,-975.8286C1036.2611,-950.612 1082.9896,-902.3916 1109,-852 1138.2704,-795.2925 1101.3156,-759.5206 1145,-713 1145.8994,-712.0422 1146.8333,-711.1182 1147.7982,-710.227"/>
<polygon fill="#b6ecf3" stroke="#b6ecf3" points="1150.0227,-712.9307 1155.7475,-704.0157 1145.7127,-707.4149 1150.0227,-712.9307"/>
</g>
<!-- shekels.server.server_tools&#45;&gt;shekels.server.app -->
<g id="edge12" class="edge">
<title>shekels.server.server_tools&#45;&gt;shekels.server.app</title>
<path fill="none" stroke="#b6ecf3" d="M1109.1211,-1001.4442C1175.2916,-999.2677 1255.0067,-985.4435 1310,-939 1358.9997,-897.6183 1406.173,-703.1301 1422.4871,-629.9432"/>
<polygon fill="#b6ecf3" stroke="#b6ecf3" points="1425.9313,-630.577 1424.6667,-620.0579 1419.0955,-629.0697 1425.9313,-630.577"/>
</g>
<!-- dash.dependencies -->
<g id="node10" class="node">
<title>dash.dependencies</title>
<polygon fill="#343434" stroke="#343434" points="1306,-758 1149,-758 1149,-722 1306,-722 1306,-758"/>
<text text-anchor="middle" x="1227.5" y="-736.3" font-family="Courier,monospace" font-size="14.00" fill="#de958e">dash.dependencies</text>
</g>
<!-- dash.dependencies&#45;&gt;shekels.server.app -->
<g id="edge13" class="edge">
<title>dash.dependencies&#45;&gt;shekels.server.app</title>
<path fill="none" stroke="#de958e" d="M1292.2178,-721.8854C1298.3929,-719.2551 1304.4236,-716.3012 1310,-713 1348.5232,-690.1947 1384.8543,-652.9663 1406.8875,-627.9865"/>
<polygon fill="#de958e" stroke="#de958e" points="1409.6122,-630.1868 1413.5234,-620.3403 1404.3255,-625.5986 1409.6122,-630.1868"/>
</g>
<!-- shekels.server -->
<g id="node11" class="node">
<title>shekels.server</title>
<polygon fill="#343434" stroke="#343434" points="797,-978 665,-978 665,-942 797,-942 797,-978"/>
<text text-anchor="middle" x="731" y="-956.3" font-family="Courier,monospace" font-size="14.00" fill="#a0d17b">shekels.server</text>
</g>
<!-- shekels.server&#45;&gt;shekels.server.api -->
<g id="edge14" class="edge">
<title>shekels.server&#45;&gt;shekels.server.api</title>
<path fill="none" stroke="#a0d17b" d="M794.1226,-941.9233C807.4128,-937.6909 821.2617,-932.9584 834,-928 850.4891,-921.5817 853.796,-918.1076 870,-911 974.9821,-864.9512 1029.7067,-896.7907 1109,-814 1141.9625,-779.5836 1110.8657,-746.2545 1145,-713 1146.0795,-711.9484 1147.2005,-710.9377 1148.3582,-709.9664"/>
<polygon fill="#a0d17b" stroke="#a0d17b" points="1150.4151,-712.7982 1156.479,-704.1103 1146.3207,-707.1205 1150.4151,-712.7982"/>
</g>
<!-- shekels.server&#45;&gt;shekels.server.app -->
<g id="edge15" class="edge">
<title>shekels.server&#45;&gt;shekels.server.app</title>
<path fill="none" stroke="#a0d17b" d="M797.2062,-960.177C931.6842,-959.2535 1230.7776,-950.2731 1310,-890 1394.8645,-825.4344 1419.3016,-689.4161 1426.0492,-630.3622"/>
<polygon fill="#a0d17b" stroke="#a0d17b" points="1429.5458,-630.5778 1427.1139,-620.2658 1422.5844,-629.8436 1429.5458,-630.5778"/>
</g>
<!-- shekels.server&#45;&gt;shekels.server.components -->
<g id="edge16" class="edge">
<title>shekels.server&#45;&gt;shekels.server.components</title>
<path fill="none" stroke="#a0d17b" d="M736.921,-941.7298C755.1082,-886.0521 812.426,-713.8341 870,-575 904.857,-490.9458 952.4384,-394.3817 975.6393,-348.2717"/>
<polygon fill="#a0d17b" stroke="#a0d17b" points="978.8262,-349.7252 980.2068,-339.2207 972.5768,-346.5716 978.8262,-349.7252"/>
</g>
<!-- shekels.server&#45;&gt;shekels.server.server_tools -->
<g id="edge17" class="edge">
<title>shekels.server&#45;&gt;shekels.server.server_tools</title>
<path fill="none" stroke="#a0d17b" d="M797.2345,-968.7117C816.4983,-971.2454 838.2346,-974.1044 859.9812,-976.9646"/>
<polygon fill="#a0d17b" stroke="#a0d17b" points="859.5936,-980.4437 869.9647,-978.2778 860.5065,-973.5035 859.5936,-980.4437"/>
</g>
<!-- dash -->
<g id="node12" class="node">
<title>dash</title>
<polygon fill="#343434" stroke="#343434" points="758,-144 704,-144 704,-108 758,-108 758,-144"/>
<text text-anchor="middle" x="731" y="-122.3" font-family="Courier,monospace" font-size="14.00" fill="#de958e">dash</text>
</g>
<!-- dash&#45;&gt;shekels.server.app -->
<g id="edge18" class="edge">
<title>dash&#45;&gt;shekels.server.app</title>
<path fill="none" stroke="#de958e" d="M758.3293,-125.4833C781.1968,-126.506 813.3153,-131.5387 834,-150 869.5539,-181.7322 833.6499,-220.183 870,-251 952.3244,-320.7932 1008.6837,-254.1875 1109,-294 1208.1115,-333.3344 1234.1357,-350.0675 1310,-425 1356.492,-470.921 1395.2619,-537.7818 1414.8182,-574.7941"/>
<polygon fill="#de958e" stroke="#de958e" points="1411.8704,-576.7113 1419.5925,-583.9653 1418.0795,-573.479 1411.8704,-576.7113"/>
</g>
<!-- dash&#45;&gt;shekels.server.components -->
<g id="edge19" class="edge">
<title>dash&#45;&gt;shekels.server.components</title>
<path fill="none" stroke="#de958e" d="M758.3867,-127.4249C781.6086,-130.0987 814.2094,-137.5446 834,-158 875.9845,-201.395 827.1649,-246.4444 870,-289 873.1282,-292.1078 876.5233,-294.923 880.1224,-297.4724"/>
<polygon fill="#de958e" stroke="#de958e" points="878.529,-300.6045 888.8606,-302.9516 882.2477,-294.6739 878.529,-300.6045"/>
</g>
<!-- dash.exceptions -->
<g id="node13" class="node">
<title>dash.exceptions</title>
<polygon fill="#343434" stroke="#343434" points="801,-1178 661,-1178 661,-1142 801,-1142 801,-1178"/>
<text text-anchor="middle" x="731" y="-1156.3" font-family="Courier,monospace" font-size="14.00" fill="#de958e">dash.exceptions</text>
</g>
<!-- dash.exceptions&#45;&gt;shekels.server.server_tools -->
<g id="edge20" class="edge">
<title>dash.exceptions&#45;&gt;shekels.server.server_tools</title>
<path fill="none" stroke="#de958e" d="M801.1342,-1146.4125C812.4737,-1142.874 823.8215,-1138.4671 834,-1133 888.4663,-1103.7452 939.451,-1051.6816 967.3696,-1020.248"/>
<polygon fill="#de958e" stroke="#de958e" points="970.3337,-1022.1758 974.2877,-1012.3464 965.067,-1017.5647 970.3337,-1022.1758"/>
</g>
<!-- dash_core_components -->
<g id="node14" class="node">
<title>dash_core_components</title>
<polygon fill="#343434" stroke="#343434" points="822,-90 640,-90 640,-54 822,-54 822,-90"/>
<text text-anchor="middle" x="731" y="-68.3" font-family="Courier,monospace" font-size="14.00" fill="#de958e">dash_core_components</text>
</g>
<!-- dash_core_components&#45;&gt;shekels.server.app -->
<g id="edge21" class="edge">
<title>dash_core_components&#45;&gt;shekels.server.app</title>
<path fill="none" stroke="#de958e" d="M822.1249,-89.9022C826.3857,-92.5437 830.3844,-95.5591 834,-99 872.4892,-135.6292 829.7509,-178.3139 870,-213 951.4757,-283.2147 1003.8602,-228.328 1109,-251 1199.5363,-270.523 1240.8942,-244.3367 1310,-306 1391.4577,-378.6849 1417.7372,-515.0604 1425.5105,-573.8503"/>
<polygon fill="#de958e" stroke="#de958e" points="1422.0516,-574.3986 1426.7557,-583.8919 1428.9984,-573.5371 1422.0516,-574.3986"/>
</g>
<!-- dash_core_components&#45;&gt;shekels.server.components -->
<g id="edge22" class="edge">
<title>dash_core_components&#45;&gt;shekels.server.components</title>
<path fill="none" stroke="#de958e" d="M822.4335,-89.5897C826.6157,-92.3107 830.5129,-95.4289 834,-99 882.5026,-148.6714 828.7224,-195.1797 870,-251 885.3288,-271.7294 908.7815,-287.3743 930.8633,-298.5573"/>
<polygon fill="#de958e" stroke="#de958e" points="929.3618,-301.719 939.8876,-302.9272 932.4127,-295.4188 929.3618,-301.719"/>
</g>
<!-- shekels -->
<g id="node15" class="node">
<title>shekels</title>
<polygon fill="#343434" stroke="#343434" points="74,-918 0,-918 0,-882 74,-882 74,-918"/>
<text text-anchor="middle" x="37" y="-896.3" font-family="Courier,monospace" font-size="14.00" fill="#a0d17b">shekels</text>
</g>
<!-- shekels&#45;&gt;shekels.server -->
<g id="edge23" class="edge">
<title>shekels&#45;&gt;shekels.server</title>
<path fill="none" stroke="#a0d17b" d="M74.0356,-915.4046C85.4161,-919.6725 98.0846,-923.9622 110,-927 301.3663,-975.7877 536.3102,-971.7033 654.8555,-965.3953"/>
<polygon fill="#a0d17b" stroke="#a0d17b" points="655.1284,-968.8857 664.9201,-964.8394 654.7423,-961.8963 655.1284,-968.8857"/>
</g>
<!-- shekels.enforce -->
<g id="node18" class="node">
<title>shekels.enforce</title>
<polygon fill="#343434" stroke="#343434" points="275,-320 135,-320 135,-284 275,-284 275,-320"/>
<text text-anchor="middle" x="205" y="-298.3" font-family="Courier,monospace" font-size="14.00" fill="#a0d17b">shekels.enforce</text>
</g>
<!-- shekels&#45;&gt;shekels.enforce -->
<g id="edge24" class="edge">
<title>shekels&#45;&gt;shekels.enforce</title>
<path fill="none" stroke="#a0d17b" d="M67.2841,-881.771C69.9111,-879.1291 72.2359,-876.2045 74,-873 132.4279,-766.8666 33.8212,-423.2067 110,-329 114.3462,-323.6253 119.6793,-319.2738 125.5807,-315.7565"/>
<polygon fill="#a0d17b" stroke="#a0d17b" points="127.2574,-318.8305 134.5849,-311.1782 124.0846,-312.5908 127.2574,-318.8305"/>
</g>
<!-- shekels.core -->
<g id="node21" class="node">
<title>shekels.core</title>
<polygon fill="#343434" stroke="#343434" points="263,-918 147,-918 147,-882 263,-882 263,-918"/>
<text text-anchor="middle" x="205" y="-896.3" font-family="Courier,monospace" font-size="14.00" fill="#a0d17b">shekels.core</text>
</g>
<!-- shekels&#45;&gt;shekels.core -->
<g id="edge25" class="edge">
<title>shekels&#45;&gt;shekels.core</title>
<path fill="none" stroke="#a0d17b" d="M74.2846,-900C92.6441,-900 115.369,-900 136.6946,-900"/>
<polygon fill="#a0d17b" stroke="#a0d17b" points="136.6986,-903.5001 146.6985,-900 136.6985,-896.5001 136.6986,-903.5001"/>
</g>
<!-- dash_html_components -->
<g id="node16" class="node">
<title>dash_html_components</title>
<polygon fill="#343434" stroke="#343434" points="822,-236 640,-236 640,-200 822,-200 822,-236"/>
<text text-anchor="middle" x="731" y="-214.3" font-family="Courier,monospace" font-size="14.00" fill="#de958e">dash_html_components</text>
</g>
<!-- dash_html_components&#45;&gt;shekels.server.components -->
<g id="edge26" class="edge">
<title>dash_html_components&#45;&gt;shekels.server.components</title>
<path fill="none" stroke="#de958e" d="M805.6762,-236.033C815.5721,-239.8873 825.2924,-244.5007 834,-250 853.9445,-262.5961 849.8101,-276.8011 870,-289 876.319,-292.818 883.0956,-296.1877 890.0931,-299.1605"/>
<polygon fill="#de958e" stroke="#de958e" points="889.163,-302.5562 899.7497,-302.9733 891.7338,-296.0453 889.163,-302.5562"/>
</g>
<!-- dash_table -->
<g id="node17" class="node">
<title>dash_table</title>
<polygon fill="#343434" stroke="#343434" points="780.5,-36 681.5,-36 681.5,0 780.5,0 780.5,-36"/>
<text text-anchor="middle" x="731" y="-14.3" font-family="Courier,monospace" font-size="14.00" fill="#de958e">dash_table</text>
</g>
<!-- dash_table&#45;&gt;shekels.server.app -->
<g id="edge27" class="edge">
<title>dash_table&#45;&gt;shekels.server.app</title>
<path fill="none" stroke="#de958e" d="M780.7164,-29.369C797.7804,-33.7088 816.8857,-39.0581 834,-45 837.4078,-46.1832 1307.5594,-250.3436 1310,-253 1396.9632,-347.654 1420.413,-508.6502 1426.4796,-573.5922"/>
<polygon fill="#de958e" stroke="#de958e" points="1423.0194,-574.2055 1427.3668,-583.8673 1429.9934,-573.6033 1423.0194,-574.2055"/>
</g>
<!-- dash_table&#45;&gt;shekels.server.components -->
<g id="edge28" class="edge">
<title>dash_table&#45;&gt;shekels.server.components</title>
<path fill="none" stroke="#de958e" d="M780.6408,-20.1662C799.7186,-23.506 820.2058,-30.5667 834,-45 886.7598,-100.2043 831.8257,-146.865 870,-213 890.1199,-247.8567 925.3874,-277.6561 952.4112,-297.0674"/>
<polygon fill="#de958e" stroke="#de958e" points="950.6692,-300.1207 960.8658,-302.998 954.6891,-294.39 950.6692,-300.1207"/>
</g>
<!-- shekels.enforce&#45;&gt;shekels.enforce.enforce_tools -->
<g id="edge29" class="edge">
<title>shekels.enforce&#45;&gt;shekels.enforce.enforce_tools</title>
<path fill="none" stroke="#a0d17b" d="M275.0891,-299.8351C290.8686,-299.3477 308.1505,-298.8139 325.649,-298.2734"/>
<polygon fill="#a0d17b" stroke="#a0d17b" points="326.08,-301.7618 335.9672,-297.9547 325.8638,-294.7652 326.08,-301.7618"/>
</g>
<!-- flask -->
<g id="node19" class="node">
<title>flask</title>
<polygon fill="#343434" stroke="#343434" points="760,-654 702,-654 702,-618 760,-618 760,-654"/>
<text text-anchor="middle" x="731" y="-632.3" font-family="Courier,monospace" font-size="14.00" fill="#de958e">flask</text>
</g>
<!-- flask&#45;&gt;shekels.server.api -->
<g id="edge30" class="edge">
<title>flask&#45;&gt;shekels.server.api</title>
<path fill="none" stroke="#de958e" d="M760.4305,-638.5743C824.0676,-644.1909 979.211,-658.1545 1109,-672 1117.3652,-672.8924 1126.0583,-673.8539 1134.7648,-674.8402"/>
<polygon fill="#de958e" stroke="#de958e" points="1134.6401,-678.3487 1144.9728,-676.0068 1135.4349,-671.3939 1134.6401,-678.3487"/>
</g>
<!-- flask&#45;&gt;shekels.server.app -->
<g id="edge31" class="edge">
<title>flask&#45;&gt;shekels.server.app</title>
<path fill="none" stroke="#de958e" d="M760.1098,-627.1218C781.129,-620.2682 809.9306,-609.9546 834,-598 851.0048,-589.5542 851.7753,-580.3248 870,-575 1034.0006,-527.0832 1236.4881,-557.8165 1347.0208,-581.7023"/>
<polygon fill="#de958e" stroke="#de958e" points="1346.5818,-585.1892 1357.1,-583.9167 1348.084,-578.3523 1346.5818,-585.1892"/>
</g>
<!-- flask&#45;&gt;shekels.server.components -->
<g id="edge32" class="edge">
<title>flask&#45;&gt;shekels.server.components</title>
<path fill="none" stroke="#de958e" d="M760.437,-630.2262C782.7153,-624.6158 812.9657,-614.2004 834,-596 844.6459,-586.7884 938.2606,-415.4219 974.8933,-347.9614"/>
<polygon fill="#de958e" stroke="#de958e" points="977.9762,-349.6183 979.6696,-339.1597 971.8237,-346.2796 977.9762,-349.6183"/>
</g>
<!-- flask&#45;&gt;shekels.server.server_tools -->
<g id="edge33" class="edge">
<title>flask&#45;&gt;shekels.server.server_tools</title>
<path fill="none" stroke="#de958e" d="M744.1744,-654.2455C786.6992,-713.1386 920.441,-898.3593 970.4135,-967.5669"/>
<polygon fill="#de958e" stroke="#de958e" points="967.6604,-969.7328 976.3521,-975.7913 973.3356,-965.6349 967.6604,-969.7328"/>
</g>
<!-- jinja2 -->
<g id="node20" class="node">
<title>jinja2</title>
<polygon fill="#343434" stroke="#343434" points="764,-1070 698,-1070 698,-1034 764,-1034 764,-1070"/>
<text text-anchor="middle" x="731" y="-1048.3" font-family="Courier,monospace" font-size="14.00" fill="#de958e">jinja2</text>
</g>
<!-- jinja2&#45;&gt;shekels.server.server_tools -->
<g id="edge34" class="edge">
<title>jinja2&#45;&gt;shekels.server.server_tools</title>
<path fill="none" stroke="#de958e" d="M764.0018,-1044.5953C797.9934,-1036.9686 852.4747,-1024.7445 899.3702,-1014.2225"/>
<polygon fill="#de958e" stroke="#de958e" points="900.2608,-1017.6098 909.252,-1012.0054 898.7283,-1010.7796 900.2608,-1017.6098"/>
</g>
<!-- shekels.core&#45;&gt;shekels.core.config -->
<g id="edge35" class="edge">
<title>shekels.core&#45;&gt;shekels.core.config</title>
<path fill="none" stroke="#a0d17b" d="M263.1247,-887.8813C293.9346,-881.4577 332.5831,-873.3997 367.7294,-866.0719"/>
<polygon fill="#a0d17b" stroke="#a0d17b" points="368.4651,-869.4938 377.5402,-864.0264 367.0363,-862.6412 368.4651,-869.4938"/>
</g>
<!-- shekels.core&#45;&gt;shekels.core.data_tools -->
<g id="edge36" class="edge">
<title>shekels.core&#45;&gt;shekels.core.data_tools</title>
<path fill="none" stroke="#a0d17b" d="M263.1368,-894.4514C276.981,-890.4317 290.4813,-883.8091 300,-873 370.7028,-792.7127 260.6822,-710.9748 336,-635 417.1237,-553.1686 485.5191,-638.0369 592,-594 610.2384,-586.4572 610.5017,-577.129 628,-568 638.1968,-562.6803 649.3504,-557.8589 660.4336,-553.5988"/>
<polygon fill="#a0d17b" stroke="#a0d17b" points="661.9715,-556.7614 670.1293,-550.0011 659.5363,-550.1986 661.9715,-556.7614"/>
</g>
<!-- shekels.core&#45;&gt;shekels.core.database -->
<g id="edge37" class="edge">
<title>shekels.core&#45;&gt;shekels.core.database</title>
<path fill="none" stroke="#a0d17b" d="M263.2964,-914.6611C285.8498,-919.6344 311.9747,-924.5499 336,-927 449.1907,-938.5434 480.6104,-950.189 592,-927 628.2337,-919.4569 843.4608,-821.3704 941.2274,-776.3335"/>
<polygon fill="#a0d17b" stroke="#a0d17b" points="942.9764,-779.3813 950.5925,-772.0161 940.0457,-773.0242 942.9764,-779.3813"/>
</g>
<!-- schematics.exceptions -->
<g id="node22" class="node">
<title>schematics.exceptions</title>
<polygon fill="#343434" stroke="#343434" points="300,-676 110,-676 110,-640 300,-640 300,-676"/>
<text text-anchor="middle" x="205" y="-654.3" font-family="Courier,monospace" font-size="14.00" fill="#de958e">schematics.exceptions</text>
</g>
<!-- schematics.exceptions&#45;&gt;shekels.core.config -->
<g id="edge38" class="edge">
<title>schematics.exceptions&#45;&gt;shekels.core.config</title>
<path fill="none" stroke="#de958e" d="M222.006,-676.1075C241.4382,-697.0338 273.9192,-732.7381 300,-765 316.989,-786.0154 313.5612,-798.9411 336,-814 345.6586,-820.482 356.5219,-825.6515 367.732,-829.7742"/>
<polygon fill="#de958e" stroke="#de958e" points="366.6168,-833.0917 377.2112,-832.9969 368.87,-826.4643 366.6168,-833.0917"/>
</g>
<!-- schematics.exceptions&#45;&gt;shekels.core.data_tools -->
<g id="edge39" class="edge">
<title>schematics.exceptions&#45;&gt;shekels.core.data_tools</title>
<path fill="none" stroke="#de958e" d="M240.8482,-639.9268C266.7079,-627.5769 302.7712,-611.7422 336,-602 446.7115,-569.5411 478.4745,-579.5568 592,-559 604.2158,-556.788 617.021,-554.3981 629.7079,-551.9864"/>
<polygon fill="#de958e" stroke="#de958e" points="630.6777,-555.3645 639.8435,-550.0507 629.3645,-548.4888 630.6777,-555.3645"/>
</g>
<!-- schematics.exceptions&#45;&gt;shekels.server.api -->
<g id="edge40" class="edge">
<title>schematics.exceptions&#45;&gt;shekels.server.api</title>
<path fill="none" stroke="#de958e" d="M219.5474,-676.4286C241.5163,-702.6446 285.9465,-749.6674 336,-769 416.13,-799.9493 1035.4097,-825.3074 1109,-781 1138.2961,-763.3614 1118.8473,-735.0322 1145,-713 1146.5127,-711.7256 1148.0872,-710.5109 1149.7131,-709.3531"/>
<polygon fill="#de958e" stroke="#de958e" points="1151.6043,-712.2985 1158.2236,-704.0259 1147.8902,-706.3651 1151.6043,-712.2985"/>
</g>
<!-- schematics.exceptions&#45;&gt;shekels.server.components -->
<g id="edge41" class="edge">
<title>schematics.exceptions&#45;&gt;shekels.server.components</title>
<path fill="none" stroke="#de958e" d="M208.0438,-639.9416C217.2781,-591.3317 249.8134,-457.3269 336,-397 419.2916,-338.6994 702.7624,-324.7311 867.7243,-321.6308"/>
<polygon fill="#de958e" stroke="#de958e" points="867.9907,-325.1268 877.9271,-321.4501 867.8666,-318.1279 867.9907,-325.1268"/>
</g>
<!-- pandas -->
<g id="node23" class="node">
<title>pandas</title>
<polygon fill="#343434" stroke="#343434" points="238,-266 172,-266 172,-230 238,-230 238,-266"/>
<text text-anchor="middle" x="205" y="-244.3" font-family="Courier,monospace" font-size="14.00" fill="#de958e">pandas</text>
</g>
<!-- pandas&#45;&gt;shekels.core.data_tools -->
<g id="edge42" class="edge">
<title>pandas&#45;&gt;shekels.core.data_tools</title>
<path fill="none" stroke="#de958e" d="M238.0395,-245.5428C320.6832,-240.0286 533.8909,-229.8859 592,-267 614.2283,-281.1971 688.6587,-439.6255 718.4838,-504.5249"/>
<polygon fill="#de958e" stroke="#de958e" points="715.3628,-506.1158 722.7113,-513.748 721.7262,-503.1991 715.3628,-506.1158"/>
</g>
<!-- pandas&#45;&gt;shekels.core.database -->
<g id="edge43" class="edge">
<title>pandas&#45;&gt;shekels.core.database</title>
<path fill="none" stroke="#de958e" d="M238.3237,-248.3354C259.3517,-250.4545 285.2408,-256.9463 300,-275 366.019,-355.7558 260.077,-671.4759 336,-743 374.8451,-779.5944 709.5126,-768.3448 884.2411,-759.8073"/>
<polygon fill="#de958e" stroke="#de958e" points="884.674,-763.2902 894.489,-759.3007 884.3284,-756.2988 884.674,-763.2902"/>
</g>
<!-- pandas&#45;&gt;shekels.enforce.enforce_tools -->
<g id="edge44" class="edge">
<title>pandas&#45;&gt;shekels.enforce.enforce_tools</title>
<path fill="none" stroke="#de958e" d="M238.0656,-253.8727C267.1035,-259.03 311.0654,-266.8379 352.5159,-274.1997"/>
<polygon fill="#de958e" stroke="#de958e" points="351.9696,-277.6574 362.4276,-275.9601 353.1937,-270.7653 351.9696,-277.6574"/>
</g>
<!-- pandas&#45;&gt;shekels.server.components -->
<g id="edge45" class="edge">
<title>pandas&#45;&gt;shekels.server.components</title>
<path fill="none" stroke="#de958e" d="M220.9802,-229.7652C243.681,-205.4007 287.8859,-163.3944 336,-147 443.6974,-110.3033 478.682,-136.7821 592,-147 595.4024,-147.3068 831.3856,-188.801 834,-191 869.5106,-220.8678 835.7402,-257.7053 870,-289 873.5779,-292.2682 877.4533,-295.2089 881.5461,-297.8544"/>
<polygon fill="#de958e" stroke="#de958e" points="879.8187,-300.8986 890.2266,-302.8805 883.3263,-294.8408 879.8187,-300.8986"/>
</g>
<!-- jsoncomment -->
<g id="node24" class="node">
<title>jsoncomment</title>
<polygon fill="#343434" stroke="#343434" points="784.5,-1124 677.5,-1124 677.5,-1088 784.5,-1088 784.5,-1124"/>
<text text-anchor="middle" x="731" y="-1102.3" font-family="Courier,monospace" font-size="14.00" fill="#de958e">jsoncomment</text>
</g>
<!-- jsoncomment&#45;&gt;shekels.core.database -->
<g id="edge46" class="edge">
<title>jsoncomment&#45;&gt;shekels.core.database</title>
<path fill="none" stroke="#de958e" d="M784.7073,-1102.1882C802.2957,-1098.4713 820.7104,-1091.5827 834,-1079 871.9678,-1043.0518 849.1038,-1014.9289 870,-967 900.4349,-897.1925 946.9832,-820.4962 972.0555,-780.9362"/>
<polygon fill="#de958e" stroke="#de958e" points="975.2261,-782.4738 977.6522,-772.1605 969.3241,-778.7099 975.2261,-782.4738"/>
</g>
<!-- jsoncomment&#45;&gt;shekels.server.app -->
<g id="edge47" class="edge">
<title>jsoncomment&#45;&gt;shekels.server.app</title>
<path fill="none" stroke="#de958e" d="M784.821,-1111.0024C897.5127,-1118.3548 1160.2231,-1118.6892 1310,-982 1363.3826,-933.282 1408.6389,-710.5027 1423.4122,-630.6139"/>
<polygon fill="#de958e" stroke="#de958e" points="1426.9381,-630.7888 1425.2921,-620.3226 1420.052,-629.5308 1426.9381,-630.7888"/>
</g>
<!-- jsoncomment&#45;&gt;shekels.server.server_tools -->
<g id="edge48" class="edge">
<title>jsoncomment&#45;&gt;shekels.server.server_tools</title>
<path fill="none" stroke="#de958e" d="M784.7255,-1094.5529C800.8334,-1090.421 818.3671,-1085.2133 834,-1079 876.4164,-1062.1415 921.8935,-1036.2764 952.639,-1017.5053"/>
<polygon fill="#de958e" stroke="#de958e" points="954.6197,-1020.3959 961.2961,-1012.1693 950.9468,-1014.4369 954.6197,-1020.3959"/>
</g>
<!-- lunchbox.tools -->
<g id="node25" class="node">
<title>lunchbox.tools</title>
<polygon fill="#343434" stroke="#343434" points="530,-918 398,-918 398,-882 530,-882 530,-918"/>
<text text-anchor="middle" x="464" y="-896.3" font-family="Courier,monospace" font-size="14.00" fill="#de958e">lunchbox.tools</text>
</g>
<!-- lunchbox.tools&#45;&gt;shekels.core.data_tools -->
<g id="edge49" class="edge">
<title>lunchbox.tools&#45;&gt;shekels.core.data_tools</title>
<path fill="none" stroke="#de958e" d="M530.1036,-900.8581C552.6978,-897.694 576.2228,-889.9623 592,-873 672.6513,-786.2908 567.9116,-711.0416 628,-609 641.3327,-586.3585 664.1748,-568.2612 684.9654,-555.3151"/>
<polygon fill="#de958e" stroke="#de958e" points="686.9289,-558.2191 693.7163,-550.0839 683.3371,-552.2108 686.9289,-558.2191"/>
</g>
<!-- lunchbox.tools&#45;&gt;shekels.server.server_tools -->
<g id="edge50" class="edge">
<title>lunchbox.tools&#45;&gt;shekels.server.server_tools</title>
<path fill="none" stroke="#de958e" d="M488.8596,-918.0183C519.7201,-939.2012 574.804,-973.2155 628,-987 703.1471,-1006.4727 790.0516,-1008.7652 859.8174,-1005.9322"/>
<polygon fill="#de958e" stroke="#de958e" points="860.1489,-1009.4209 869.9829,-1005.4784 859.8367,-1002.4279 860.1489,-1009.4209"/>
</g>
<!-- pandasql -->
<g id="node26" class="node">
<title>pandasql</title>
<polygon fill="#343434" stroke="#343434" points="505.5,-680 422.5,-680 422.5,-644 505.5,-644 505.5,-680"/>
<text text-anchor="middle" x="464" y="-658.3" font-family="Courier,monospace" font-size="14.00" fill="#de958e">pandasql</text>
</g>
<!-- pandasql&#45;&gt;shekels.core.data_tools -->
<g id="edge51" class="edge">
<title>pandasql&#45;&gt;shekels.core.data_tools</title>
<path fill="none" stroke="#de958e" d="M505.5965,-659.8413C532.5345,-656.586 567.1034,-648.7251 592,-630 617.4652,-610.8472 603.435,-588.2945 628,-568 634.2636,-562.8253 641.3196,-558.3741 648.7266,-554.5491"/>
<polygon fill="#de958e" stroke="#de958e" points="650.7243,-557.4757 658.2634,-550.0317 647.7277,-551.1495 650.7243,-557.4757"/>
</g>
<!-- pandasql&#45;&gt;shekels.server.api -->
<g id="edge52" class="edge">
<title>pandasql&#45;&gt;shekels.server.api</title>
<path fill="none" stroke="#de958e" d="M505.5913,-663.3074C624.4635,-667.044 967.814,-677.837 1134.5058,-683.0768"/>
<polygon fill="#de958e" stroke="#de958e" points="1134.6349,-686.5825 1144.74,-683.3985 1134.8549,-679.586 1134.6349,-686.5825"/>
</g>
<!-- lunchbox.enforce -->
<g id="node27" class="node">
<title>lunchbox.enforce</title>
<polygon fill="#343434" stroke="#343434" points="279.5,-374 130.5,-374 130.5,-338 279.5,-338 279.5,-374"/>
<text text-anchor="middle" x="205" y="-352.3" font-family="Courier,monospace" font-size="14.00" fill="#de958e">lunchbox.enforce</text>
</g>
<!-- lunchbox.enforce&#45;&gt;shekels.core.data_tools -->
<g id="edge53" class="edge">
<title>lunchbox.enforce&#45;&gt;shekels.core.data_tools</title>
<path fill="none" stroke="#de958e" d="M279.7746,-349.8804C360.6601,-346.3722 491.5109,-349.9155 592,-397 644.0689,-421.397 688.574,-473.3996 712.4027,-505.2671"/>
<polygon fill="#de958e" stroke="#de958e" points="709.8325,-507.6814 718.5645,-513.6817 715.4802,-503.5457 709.8325,-507.6814"/>
</g>
<!-- lunchbox.enforce&#45;&gt;shekels.enforce.enforce_tools -->
<g id="edge54" class="edge">
<title>lunchbox.enforce&#45;&gt;shekels.enforce.enforce_tools</title>
<path fill="none" stroke="#de958e" d="M279.5661,-338.1502C310.5797,-330.7261 346.7533,-322.0668 378.8085,-314.3933"/>
<polygon fill="#de958e" stroke="#de958e" points="379.7037,-317.778 388.6141,-312.046 378.074,-310.9703 379.7037,-317.778"/>
</g>
<!-- lunchbox.enforce&#45;&gt;shekels.server.components -->
<g id="edge55" class="edge">
<title>lunchbox.enforce&#45;&gt;shekels.server.components</title>
<path fill="none" stroke="#de958e" d="M279.5168,-343.5138C287.1418,-339.821 294.2012,-335.0796 300,-329 348.5139,-278.137 280.9306,-218.6807 336,-175 380.5704,-139.6471 543.4383,-145.3672 592,-175 621.8634,-193.223 599.6765,-224.4652 628,-245 703.069,-299.4258 743.6704,-257.0694 834,-278 850.2984,-281.7766 853.9171,-284.3911 870,-289 883.125,-292.7613 897.1004,-296.6278 910.6944,-300.3153"/>
<polygon fill="#de958e" stroke="#de958e" points="909.9414,-303.7373 920.508,-302.9647 911.7659,-296.9792 909.9414,-303.7373"/>
</g>
<!-- numpy -->
<g id="node28" class="node">
<title>numpy</title>
<polygon fill="#343434" stroke="#343434" points="493,-734 435,-734 435,-698 493,-698 493,-734"/>
<text text-anchor="middle" x="464" y="-712.3" font-family="Courier,monospace" font-size="14.00" fill="#de958e">numpy</text>
</g>
<!-- numpy&#45;&gt;shekels.core.data_tools -->
<g id="edge56" class="edge">
<title>numpy&#45;&gt;shekels.core.data_tools</title>
<path fill="none" stroke="#de958e" d="M493.2285,-717.8476C521.9617,-718.019 565.2823,-713.6295 592,-689 633.2533,-650.9709 589.2705,-608.5965 628,-568 632.744,-563.0273 638.2122,-558.741 644.1039,-555.0465"/>
<polygon fill="#de958e" stroke="#de958e" points="646.0003,-557.9956 653.0041,-550.0459 642.5715,-551.8929 646.0003,-557.9956"/>
</g>
<!-- numpy&#45;&gt;shekels.core.database -->
<g id="edge57" class="edge">
<title>numpy&#45;&gt;shekels.core.database</title>
<path fill="none" stroke="#de958e" d="M493.0017,-718.0972C566.2508,-723.394 761.5921,-737.5195 884.2839,-746.3916"/>
<polygon fill="#de958e" stroke="#de958e" points="884.2284,-749.8966 894.4548,-747.1271 884.7333,-742.9149 884.2284,-749.8966"/>
</g>
<!-- schematics.models -->
<g id="node29" class="node">
<title>schematics.models</title>
<polygon fill="#343434" stroke="#343434" points="283.5,-864 126.5,-864 126.5,-828 283.5,-828 283.5,-864"/>
<text text-anchor="middle" x="205" y="-842.3" font-family="Courier,monospace" font-size="14.00" fill="#de958e">schematics.models</text>
</g>
<!-- schematics.models&#45;&gt;shekels.core.config -->
<g id="edge58" class="edge">
<title>schematics.models&#45;&gt;shekels.core.config</title>
<path fill="none" stroke="#de958e" d="M283.7634,-846C310.1406,-846 339.8536,-846 367.4322,-846"/>
<polygon fill="#de958e" stroke="#de958e" points="367.486,-849.5001 377.486,-846 367.486,-842.5001 367.486,-849.5001"/>
</g>
<!-- cufflinks -->
<g id="node30" class="node">
<title>cufflinks</title>
<polygon fill="#343434" stroke="#343434" points="509.5,-550 418.5,-550 418.5,-514 509.5,-514 509.5,-550"/>
<text text-anchor="middle" x="464" y="-528.3" font-family="Courier,monospace" font-size="14.00" fill="#de958e">cufflinks</text>
</g>
<!-- cufflinks&#45;&gt;shekels.core.data_tools -->
<g id="edge59" class="edge">
<title>cufflinks&#45;&gt;shekels.core.data_tools</title>
<path fill="none" stroke="#de958e" d="M509.5956,-532C539.4014,-532 579.7311,-532 617.8046,-532"/>
<polygon fill="#de958e" stroke="#de958e" points="617.9484,-535.5001 627.9484,-532 617.9484,-528.5001 617.9484,-535.5001"/>
</g>
<!-- schematics.types -->
<g id="node31" class="node">
<title>schematics.types</title>
<polygon fill="#343434" stroke="#343434" points="279.5,-810 130.5,-810 130.5,-774 279.5,-774 279.5,-810"/>
<text text-anchor="middle" x="205" y="-788.3" font-family="Courier,monospace" font-size="14.00" fill="#de958e">schematics.types</text>
</g>
<!-- schematics.types&#45;&gt;shekels.core.config -->
<g id="edge60" class="edge">
<title>schematics.types&#45;&gt;shekels.core.config</title>
<path fill="none" stroke="#de958e" d="M279.5661,-807.5466C306.9704,-813.2602 338.4035,-819.8139 367.4641,-825.8728"/>
<polygon fill="#de958e" stroke="#de958e" points="367.1298,-829.3783 377.6337,-827.9931 368.5586,-822.5257 367.1298,-829.3783"/>
</g>
<!-- pyparsing -->
<g id="node32" class="node">
<title>pyparsing</title>
<polygon fill="#343434" stroke="#343434" points="509.5,-496 418.5,-496 418.5,-460 509.5,-460 509.5,-496"/>
<text text-anchor="middle" x="464" y="-474.3" font-family="Courier,monospace" font-size="14.00" fill="#de958e">pyparsing</text>
</g>
<!-- pyparsing&#45;&gt;shekels.core.data_tools -->
<g id="edge61" class="edge">
<title>pyparsing&#45;&gt;shekels.core.data_tools</title>
<path fill="none" stroke="#de958e" d="M509.5956,-487.2216C543.1023,-493.9982 589.9084,-503.4646 631.8581,-511.9488"/>
<polygon fill="#de958e" stroke="#de958e" points="631.3488,-515.4166 641.8442,-513.9685 632.7365,-508.5555 631.3488,-515.4166"/>
</g>
<!-- rolling_pin.blob_etl -->
<g id="node33" class="node">
<title>rolling_pin.blob_etl</title>
<polygon fill="#343434" stroke="#343434" points="555,-220 373,-220 373,-184 555,-184 555,-220"/>
<text text-anchor="middle" x="464" y="-198.3" font-family="Courier,monospace" font-size="14.00" fill="#de958e">rolling_pin.blob_etl</text>
</g>
<!-- rolling_pin.blob_etl&#45;&gt;shekels.core.data_tools -->
<g id="edge62" class="edge">
<title>rolling_pin.blob_etl&#45;&gt;shekels.core.data_tools</title>
<path fill="none" stroke="#de958e" d="M555.0749,-213.7274C568.4658,-218.4529 581.3224,-224.9874 592,-234 622.4155,-259.6729 611.4322,-279.8102 628,-316 659.2995,-384.369 697.8254,-464.0305 717.7149,-504.8435"/>
<polygon fill="#de958e" stroke="#de958e" points="714.5954,-506.4317 722.1258,-513.8844 720.8866,-503.3623 714.5954,-506.4317"/>
</g>
<!-- rolling_pin.blob_etl&#45;&gt;shekels.server.components -->
<g id="edge63" class="edge">
<title>rolling_pin.blob_etl&#45;&gt;shekels.server.components</title>
<path fill="none" stroke="#de958e" d="M555.1294,-217.0505C568.0727,-221.3536 580.7793,-226.8864 592,-234 613.3399,-247.5288 605.8471,-265.848 628,-278 668.2177,-300.0615 779.0517,-310.9293 867.4907,-316.2046"/>
<polygon fill="#de958e" stroke="#de958e" points="867.4254,-319.7065 877.6108,-316.7899 867.8296,-312.7182 867.4254,-319.7065"/>
</g>
<!-- webcolors -->
<g id="node34" class="node">
<title>webcolors</title>
<polygon fill="#343434" stroke="#343434" points="509.5,-442 418.5,-442 418.5,-406 509.5,-406 509.5,-442"/>
<text text-anchor="middle" x="464" y="-420.3" font-family="Courier,monospace" font-size="14.00" fill="#de958e">webcolors</text>
</g>
<!-- webcolors&#45;&gt;shekels.core.data_tools -->
<g id="edge64" class="edge">
<title>webcolors&#45;&gt;shekels.core.data_tools</title>
<path fill="none" stroke="#de958e" d="M509.7387,-430.0066C534.6198,-434.1704 565.6151,-440.8343 592,-451 630.0985,-465.6789 670.0094,-490.0047 697.2406,-508.1742"/>
<polygon fill="#de958e" stroke="#de958e" points="695.3731,-511.1365 705.618,-513.8371 699.2933,-505.3371 695.3731,-511.1365"/>
</g>
<!-- flasgger -->
<g id="node35" class="node">
<title>flasgger</title>
<polygon fill="#343434" stroke="#343434" points="1031,-620 948,-620 948,-584 1031,-584 1031,-620"/>
<text text-anchor="middle" x="989.5" y="-598.3" font-family="Courier,monospace" font-size="14.00" fill="#de958e">flasgger</text>
</g>
<!-- flasgger&#45;&gt;shekels.server.api -->
<g id="edge65" class="edge">
<title>flasgger&#45;&gt;shekels.server.api</title>
<path fill="none" stroke="#de958e" d="M1031.1732,-611.5091C1054.3509,-617.2077 1083.5671,-625.0726 1109,-634 1133.1903,-642.4912 1159.3604,-653.7447 1180.9387,-663.6107"/>
<polygon fill="#de958e" stroke="#de958e" points="1179.6493,-666.8704 1190.1953,-667.886 1182.5844,-660.5154 1179.6493,-666.8704"/>
</g>
<!-- flasgger&#45;&gt;shekels.server.app -->
<g id="edge66" class="edge">
<title>flasgger&#45;&gt;shekels.server.app</title>
<path fill="none" stroke="#de958e" d="M1031.1958,-602C1100.6839,-602 1241.804,-602 1335.7676,-602"/>
<polygon fill="#de958e" stroke="#de958e" points="1335.8454,-605.5001 1345.8454,-602 1335.8453,-598.5001 1335.8454,-605.5001"/>
</g>
<!-- flask_caching -->
<g id="node36" class="node">
<title>flask_caching</title>
<polygon fill="#343434" stroke="#343434" points="1289.5,-171 1165.5,-171 1165.5,-135 1289.5,-135 1289.5,-171"/>
<text text-anchor="middle" x="1227.5" y="-149.3" font-family="Courier,monospace" font-size="14.00" fill="#de958e">flask_caching</text>
</g>
<!-- flask_caching&#45;&gt;shekels.server.app -->
<g id="edge67" class="edge">
<title>flask_caching&#45;&gt;shekels.server.app</title>
<path fill="none" stroke="#de958e" d="M1289.689,-169.6515C1297.2568,-173.7143 1304.31,-178.7537 1310,-185 1363.5318,-243.7653 1409.4043,-489.4792 1423.8086,-573.6045"/>
<polygon fill="#de958e" stroke="#de958e" points="1420.3986,-574.431 1425.5194,-583.7061 1427.3004,-573.2621 1420.3986,-574.431"/>
</g>
</g>
</svg>
