<?xml version="1.0" encoding="UTF-8" standalone="no"?>
<!DOCTYPE svg PUBLIC "-//W3C//DTD SVG 1.1//EN"
 "http://www.w3.org/Graphics/SVG/1.1/DTD/svg11.dtd">
<!-- Generated by graphviz version 2.40.1 (20161225.0304)
 -->
<!-- Title: %3 Pages: 1 -->
<svg width="1792pt" height="1256pt"
 viewBox="0.00 0.00 1792.00 1256.33" xmlns="http://www.w3.org/2000/svg" xmlns:xlink="http://www.w3.org/1999/xlink">
<g id="graph0" class="graph" transform="scale(1 1) rotate(0) translate(4 1252.3276)">
<title>%3</title>
<polygon fill="#242424" stroke="transparent" points="-4,4 -4,-1252.3276 1788,-1252.3276 1788,4 -4,4"/>
<!-- cli -->
<g id="node1" class="node">
<title>cli</title>
<polygon fill="#343434" stroke="#343434" points="171.5,-896 117.5,-896 117.5,-860 171.5,-860 171.5,-896"/>
<text text-anchor="middle" x="144.5" y="-874.3" font-family="Courier,monospace" font-size="14.00" fill="#b6ecf3">cli</text>
</g>
<!-- shekels.core.config -->
<g id="node2" class="node">
<title>shekels.core.config</title>
<polygon fill="#343434" stroke="#343434" points="765.5,-966 592.5,-966 592.5,-930 765.5,-930 765.5,-966"/>
<text text-anchor="middle" x="679" y="-944.3" font-family="Courier,monospace" font-size="14.00" fill="#b6ecf3">shekels.core.config</text>
</g>
<!-- shekels.core.data_tools -->
<g id="node3" class="node">
<title>shekels.core.data_tools</title>
<polygon fill="#343434" stroke="#343434" points="1049,-603 843,-603 843,-567 1049,-567 1049,-603"/>
<text text-anchor="middle" x="946" y="-581.3" font-family="Courier,monospace" font-size="14.00" fill="#b6ecf3">shekels.core.data_tools</text>
</g>
<!-- shekels.core.config&#45;&gt;shekels.core.data_tools -->
<g id="edge1" class="edge">
<title>shekels.core.config&#45;&gt;shekels.core.data_tools</title>
<path fill="none" stroke="#b6ecf3" d="M713.5313,-929.8826C743.3359,-912.3297 784.9665,-882.8355 807,-845 857.0806,-759.0027 780.0262,-701.0578 843,-624 848.062,-617.8059 854.2203,-612.5948 860.9814,-608.2107"/>
<polygon fill="#b6ecf3" stroke="#b6ecf3" points="862.9295,-611.1271 869.8306,-603.0882 859.4226,-605.0689 862.9295,-611.1271"/>
</g>
<!-- shekels.core.database -->
<g id="node4" class="node">
<title>shekels.core.database</title>
<polygon fill="#343434" stroke="#343434" points="1299.5,-890 1109.5,-890 1109.5,-854 1299.5,-854 1299.5,-890"/>
<text text-anchor="middle" x="1204.5" y="-868.3" font-family="Courier,monospace" font-size="14.00" fill="#b6ecf3">shekels.core.database</text>
</g>
<!-- shekels.core.config&#45;&gt;shekels.core.database -->
<g id="edge2" class="edge">
<title>shekels.core.config&#45;&gt;shekels.core.database</title>
<path fill="none" stroke="#b6ecf3" d="M765.7756,-935.4501C857.232,-922.2233 1001.3315,-901.3831 1099.2225,-887.2257"/>
<polygon fill="#b6ecf3" stroke="#b6ecf3" points="1099.7447,-890.6866 1109.1408,-885.7912 1098.7427,-883.7587 1099.7447,-890.6866"/>
</g>
<!-- shekels.server.app -->
<g id="node7" class="node">
<title>shekels.server.app</title>
<polygon fill="#343434" stroke="#343434" points="1784,-638 1619,-638 1619,-602 1784,-602 1784,-638"/>
<text text-anchor="middle" x="1701.5" y="-616.3" font-family="Courier,monospace" font-size="14.00" fill="#b6ecf3">shekels.server.app</text>
</g>
<!-- shekels.core.config&#45;&gt;shekels.server.app -->
<g id="edge3" class="edge">
<title>shekels.core.config&#45;&gt;shekels.server.app</title>
<path fill="none" stroke="#b6ecf3" d="M683.6651,-966.3137C697.6436,-1016.8421 744.4544,-1158.0962 843,-1213 1031.7359,-1318.1526 1500.8967,-1161.4467 1583,-1080 1645.5899,-1017.9106 1686.2896,-738.6647 1698.005,-648.3061"/>
<polygon fill="#b6ecf3" stroke="#b6ecf3" points="1701.4941,-648.6133 1699.2895,-638.2504 1694.5505,-647.7263 1701.4941,-648.6133"/>
</g>
<!-- shekels.server.components -->
<g id="node8" class="node">
<title>shekels.server.components</title>
<polygon fill="#343434" stroke="#343434" points="1316,-383 1093,-383 1093,-347 1316,-347 1316,-383"/>
<text text-anchor="middle" x="1204.5" y="-361.3" font-family="Courier,monospace" font-size="14.00" fill="#b6ecf3">shekels.server.components</text>
</g>
<!-- shekels.core.config&#45;&gt;shekels.server.components -->
<g id="edge4" class="edge">
<title>shekels.core.config&#45;&gt;shekels.server.components</title>
<path fill="none" stroke="#b6ecf3" d="M712.8684,-929.8319C742.4421,-912.1506 784.1136,-882.493 807,-845 848.3722,-777.223 788.8958,-728.1216 843,-670 907.8075,-600.3803 972.8045,-668.9311 1049,-612 1127.0143,-553.7099 1175.5326,-443.7313 1194.8732,-392.525"/>
<polygon fill="#b6ecf3" stroke="#b6ecf3" points="1198.1727,-393.6934 1198.3524,-383.1001 1191.6059,-391.2692 1198.1727,-393.6934"/>
</g>
<!-- shekels.core.data_tools&#45;&gt;shekels.core.database -->
<g id="edge5" class="edge">
<title>shekels.core.data_tools&#45;&gt;shekels.core.database</title>
<path fill="none" stroke="#b6ecf3" d="M971.0584,-603.1418C992.7878,-619.4473 1024.5068,-644.6624 1049,-670 1104.9069,-727.8344 1159.8109,-805.3681 1186.9554,-845.4766"/>
<polygon fill="#b6ecf3" stroke="#b6ecf3" points="1184.1417,-847.5647 1192.6263,-853.91 1189.9505,-843.6586 1184.1417,-847.5647"/>
</g>
<!-- shekels.core.data_tools&#45;&gt;shekels.server.app -->
<g id="edge6" class="edge">
<title>shekels.core.data_tools&#45;&gt;shekels.server.app</title>
<path fill="none" stroke="#b6ecf3" d="M1049.0253,-585.7181C1175.1029,-587.2144 1395.0133,-591.8222 1583,-606 1591.3146,-606.6271 1599.9439,-607.4031 1608.5836,-608.2656"/>
<polygon fill="#b6ecf3" stroke="#b6ecf3" points="1608.405,-611.7657 1618.7123,-609.3142 1609.1259,-604.8029 1608.405,-611.7657"/>
</g>
<!-- shekels.core.data_tools&#45;&gt;shekels.server.components -->
<g id="edge7" class="edge">
<title>shekels.core.data_tools&#45;&gt;shekels.server.components</title>
<path fill="none" stroke="#b6ecf3" d="M967.1541,-566.9965C1013.2607,-527.7568 1122.8776,-434.4659 1175.428,-389.7421"/>
<polygon fill="#b6ecf3" stroke="#b6ecf3" points="1177.7066,-392.3989 1183.0536,-383.2523 1173.1697,-387.0681 1177.7066,-392.3989"/>
</g>
<!-- shekels.server.api -->
<g id="node6" class="node">
<title>shekels.server.api</title>
<polygon fill="#343434" stroke="#343434" points="1554,-810 1389,-810 1389,-774 1554,-774 1554,-810"/>
<text text-anchor="middle" x="1471.5" y="-788.3" font-family="Courier,monospace" font-size="14.00" fill="#b6ecf3">shekels.server.api</text>
</g>
<!-- shekels.core.database&#45;&gt;shekels.server.api -->
<g id="edge8" class="edge">
<title>shekels.core.database&#45;&gt;shekels.server.api</title>
<path fill="none" stroke="#b6ecf3" d="M1274.4986,-853.9212C1290.7929,-849.5287 1308.0411,-844.7298 1324,-840 1351.9313,-831.7218 1382.5956,-821.8685 1408.6954,-813.2496"/>
<polygon fill="#b6ecf3" stroke="#b6ecf3" points="1410.069,-816.4816 1418.4597,-810.0126 1407.8663,-809.8372 1410.069,-816.4816"/>
</g>
<!-- shekels.enforce.enforce_tools -->
<g id="node5" class="node">
<title>shekels.enforce.enforce_tools</title>
<polygon fill="#343434" stroke="#343434" points="807,-360 551,-360 551,-324 807,-324 807,-360"/>
<text text-anchor="middle" x="679" y="-338.3" font-family="Courier,monospace" font-size="14.00" fill="#b6ecf3">shekels.enforce.enforce_tools</text>
</g>
<!-- shekels.enforce.enforce_tools&#45;&gt;shekels.core.data_tools -->
<g id="edge9" class="edge">
<title>shekels.enforce.enforce_tools&#45;&gt;shekels.core.data_tools</title>
<path fill="none" stroke="#b6ecf3" d="M726.3563,-360.0858C751.8683,-371.2357 782.9496,-387.197 807,-407 860.9937,-451.4582 907.2312,-520.3851 930.3054,-558.0944"/>
<polygon fill="#b6ecf3" stroke="#b6ecf3" points="927.5006,-560.2208 935.6633,-566.9751 933.4942,-556.6046 927.5006,-560.2208"/>
</g>
<!-- shekels.server.api&#45;&gt;shekels.server.app -->
<g id="edge10" class="edge">
<title>shekels.server.api&#45;&gt;shekels.server.app</title>
<path fill="none" stroke="#b6ecf3" d="M1510.0924,-773.9225C1532.2482,-762.8133 1560.1232,-747.5633 1583,-731 1618.8489,-705.0446 1655.2987,-669.1739 1678.1276,-645.3134"/>
<polygon fill="#b6ecf3" stroke="#b6ecf3" points="1680.7047,-647.6823 1685.043,-638.0163 1675.6238,-642.8672 1680.7047,-647.6823"/>
</g>
<!-- shekels.server.components&#45;&gt;shekels.server.app -->
<g id="edge11" class="edge">
<title>shekels.server.components&#45;&gt;shekels.server.app</title>
<path fill="none" stroke="#b6ecf3" d="M1239.8446,-383.1345C1328.4643,-428.6034 1559.973,-547.3855 1657.341,-597.343"/>
<polygon fill="#b6ecf3" stroke="#b6ecf3" points="1655.8407,-600.507 1666.3357,-601.958 1659.0362,-594.2789 1655.8407,-600.507"/>
</g>
<!-- shekels.server.server_tools -->
<g id="node9" class="node">
<title>shekels.server.server_tools</title>
<polygon fill="#343434" stroke="#343434" points="1324,-1033 1085,-1033 1085,-997 1324,-997 1324,-1033"/>
<text text-anchor="middle" x="1204.5" y="-1011.3" font-family="Courier,monospace" font-size="14.00" fill="#b6ecf3">shekels.server.server_tools</text>
</g>
<!-- shekels.server.server_tools&#45;&gt;shekels.server.api -->
<g id="edge12" class="edge">
<title>shekels.server.server_tools&#45;&gt;shekels.server.api</title>
<path fill="none" stroke="#b6ecf3" d="M1234.4721,-996.7C1259.2647,-981.0943 1294.9866,-957.5122 1324,-934 1370.3919,-896.4044 1419.4128,-847.0038 1447.6358,-817.48"/>
<polygon fill="#b6ecf3" stroke="#b6ecf3" points="1450.3329,-819.7228 1454.687,-810.0639 1445.2599,-814.8994 1450.3329,-819.7228"/>
</g>
<!-- shekels.server.server_tools&#45;&gt;shekels.server.app -->
<g id="edge13" class="edge">
<title>shekels.server.server_tools&#45;&gt;shekels.server.app</title>
<path fill="none" stroke="#b6ecf3" d="M1302.7272,-1033.0308C1386.2295,-1042.528 1504.6984,-1041.4693 1583,-979 1636.4118,-936.3878 1681.3274,-725.6212 1696.2365,-648.4099"/>
<polygon fill="#b6ecf3" stroke="#b6ecf3" points="1699.7038,-648.9114 1698.1388,-638.4328 1692.8277,-647.6002 1699.7038,-648.9114"/>
</g>
<!-- dash.dependencies -->
<g id="node10" class="node">
<title>dash.dependencies</title>
<polygon fill="#343434" stroke="#343434" points="1550,-722 1393,-722 1393,-686 1550,-686 1550,-722"/>
<text text-anchor="middle" x="1471.5" y="-700.3" font-family="Courier,monospace" font-size="14.00" fill="#de958e">dash.dependencies</text>
</g>
<!-- dash.dependencies&#45;&gt;shekels.server.app -->
<g id="edge14" class="edge">
<title>dash.dependencies&#45;&gt;shekels.server.app</title>
<path fill="none" stroke="#de958e" d="M1539.7732,-685.9761C1554.1641,-681.7401 1569.1722,-676.9928 1583,-672 1607.0216,-663.3266 1633.0757,-652.1026 1654.6205,-642.3034"/>
<polygon fill="#de958e" stroke="#de958e" points="1656.2391,-645.4116 1663.8679,-638.0595 1653.3194,-639.0496 1656.2391,-645.4116"/>
</g>
<!-- dash -->
<g id="node11" class="node">
<title>dash</title>
<polygon fill="#343434" stroke="#343434" points="973,-144 919,-144 919,-108 973,-108 973,-144"/>
<text text-anchor="middle" x="946" y="-122.3" font-family="Courier,monospace" font-size="14.00" fill="#de958e">dash</text>
</g>
<!-- dash&#45;&gt;shekels.server.app -->
<g id="edge15" class="edge">
<title>dash&#45;&gt;shekels.server.app</title>
<path fill="none" stroke="#de958e" d="M973.3443,-124.9645C996.539,-125.621 1029.1237,-130.4085 1049,-150 1096.2901,-196.6126 1036.5387,-249.6062 1085,-295 1163.7686,-368.7828 1220.3727,-307.8376 1324,-338 1443.4227,-372.7599 1486.5487,-365.4687 1583,-444 1633.8703,-485.4189 1671.3102,-554.3829 1689.3879,-592.5249"/>
<polygon fill="#de958e" stroke="#de958e" points="1686.3851,-594.3694 1693.7662,-601.9701 1692.736,-591.4255 1686.3851,-594.3694"/>
</g>
<!-- dash&#45;&gt;shekels.server.components -->
<g id="edge16" class="edge">
<title>dash&#45;&gt;shekels.server.components</title>
<path fill="none" stroke="#de958e" d="M973.2612,-127.0622C996.7286,-129.4868 1029.762,-136.7706 1049,-158 1102.3212,-216.8407 1030.5248,-275.226 1085,-333 1087.8202,-335.991 1090.8867,-338.7136 1094.147,-341.1913"/>
<polygon fill="#de958e" stroke="#de958e" points="1092.3622,-344.2082 1102.6201,-346.8588 1096.254,-338.3898 1092.3622,-344.2082"/>
</g>
<!-- shekels.server -->
<g id="node12" class="node">
<title>shekels.server</title>
<polygon fill="#343434" stroke="#343434" points="1012,-1004 880,-1004 880,-968 1012,-968 1012,-1004"/>
<text text-anchor="middle" x="946" y="-982.3" font-family="Courier,monospace" font-size="14.00" fill="#a0d17b">shekels.server</text>
</g>
<!-- shekels.server&#45;&gt;shekels.server.api -->
<g id="edge17" class="edge">
<title>shekels.server&#45;&gt;shekels.server.api</title>
<path fill="none" stroke="#a0d17b" d="M1012.0026,-968.9152C1035.058,-963.0709 1061.1361,-956.599 1085,-951 1190.8334,-926.1693 1224.7809,-943.4169 1324,-899 1370.2536,-878.2939 1416.3748,-841.6059 1444.419,-817.044"/>
<polygon fill="#a0d17b" stroke="#a0d17b" points="1447.0262,-819.4096 1452.1783,-810.1518 1442.3775,-814.1761 1447.0262,-819.4096"/>
</g>
<!-- shekels.server&#45;&gt;shekels.server.app -->
<g id="edge18" class="edge">
<title>shekels.server&#45;&gt;shekels.server.app</title>
<path fill="none" stroke="#a0d17b" d="M1012.4805,-987.487C1139.5704,-986.6998 1418.9225,-966.9602 1583,-819 1637.4843,-769.8676 1674.4989,-689.6847 1691.2694,-647.6696"/>
<polygon fill="#a0d17b" stroke="#a0d17b" points="1694.6311,-648.6823 1695.0033,-638.094 1688.1094,-646.1392 1694.6311,-648.6823"/>
</g>
<!-- shekels.server&#45;&gt;shekels.server.components -->
<g id="edge19" class="edge">
<title>shekels.server&#45;&gt;shekels.server.components</title>
<path fill="none" stroke="#a0d17b" d="M953.0432,-967.8593C973.1372,-916.2285 1032.6652,-764.1306 1085,-639 1122.9361,-548.2962 1170.1682,-441.7844 1192.162,-392.5352"/>
<polygon fill="#a0d17b" stroke="#a0d17b" points="1195.4512,-393.7533 1196.3371,-383.1956 1189.0607,-390.8966 1195.4512,-393.7533"/>
</g>
<!-- shekels.server&#45;&gt;shekels.server.server_tools -->
<g id="edge20" class="edge">
<title>shekels.server&#45;&gt;shekels.server.server_tools</title>
<path fill="none" stroke="#a0d17b" d="M1012.2345,-993.4306C1031.4983,-995.5917 1053.2346,-998.0302 1074.9812,-1000.4698"/>
<polygon fill="#a0d17b" stroke="#a0d17b" points="1074.6368,-1003.9531 1084.9647,-1001.5898 1075.4172,-996.9967 1074.6368,-1003.9531"/>
</g>
<!-- dash_core_components -->
<g id="node13" class="node">
<title>dash_core_components</title>
<polygon fill="#343434" stroke="#343434" points="1037,-90 855,-90 855,-54 1037,-54 1037,-90"/>
<text text-anchor="middle" x="946" y="-68.3" font-family="Courier,monospace" font-size="14.00" fill="#de958e">dash_core_components</text>
</g>
<!-- dash_core_components&#45;&gt;shekels.server.app -->
<g id="edge21" class="edge">
<title>dash_core_components&#45;&gt;shekels.server.app</title>
<path fill="none" stroke="#de958e" d="M1037.0054,-89.2523C1041.3546,-92.0529 1045.3996,-95.2812 1049,-99 1099.097,-150.7441 1032.4117,-207.79 1085,-257 1124.2673,-293.7448 1271.0356,-285.6797 1324,-295 1439.4624,-315.3183 1491.6427,-271.5273 1583,-345 1662.1614,-408.6643 1689.5164,-535.3627 1698.031,-591.7736"/>
<polygon fill="#de958e" stroke="#de958e" points="1694.5792,-592.3608 1699.4513,-601.7689 1701.5096,-591.376 1694.5792,-592.3608"/>
</g>
<!-- dash_core_components&#45;&gt;shekels.server.components -->
<g id="edge22" class="edge">
<title>dash_core_components&#45;&gt;shekels.server.components</title>
<path fill="none" stroke="#de958e" d="M1037.1948,-89.0728C1041.4964,-91.9186 1045.4792,-95.2058 1049,-99 1109.2444,-163.9227 1034.1695,-222.4699 1085,-295 1099.5494,-315.7606 1122.3852,-331.2943 1144.2135,-342.3851"/>
<polygon fill="#de958e" stroke="#de958e" points="1142.9536,-345.6636 1153.4797,-346.8685 1146.0025,-339.3625 1142.9536,-345.6636"/>
</g>
<!-- shekels -->
<g id="node14" class="node">
<title>shekels</title>
<polygon fill="#343434" stroke="#343434" points="181.5,-950 107.5,-950 107.5,-914 181.5,-914 181.5,-950"/>
<text text-anchor="middle" x="144.5" y="-928.3" font-family="Courier,monospace" font-size="14.00" fill="#a0d17b">shekels</text>
</g>
<!-- shekels&#45;&gt;shekels.server -->
<g id="edge23" class="edge">
<title>shekels&#45;&gt;shekels.server</title>
<path fill="none" stroke="#a0d17b" d="M181.5672,-931.1911C212.6437,-932.22 256.9516,-937.8303 289,-959 313.0677,-974.898 299.5686,-999.3895 325,-1013 509.6705,-1111.8326 771.2854,-1045.2798 887.0156,-1007.312"/>
<polygon fill="#a0d17b" stroke="#a0d17b" points="888.3744,-1010.5486 896.7575,-1004.0699 886.1639,-1003.9068 888.3744,-1010.5486"/>
</g>
<!-- shekels.enforce -->
<g id="node19" class="node">
<title>shekels.enforce</title>
<polygon fill="#343434" stroke="#343434" points="490,-414 350,-414 350,-378 490,-378 490,-414"/>
<text text-anchor="middle" x="420" y="-392.3" font-family="Courier,monospace" font-size="14.00" fill="#a0d17b">shekels.enforce</text>
</g>
<!-- shekels&#45;&gt;shekels.enforce -->
<g id="edge24" class="edge">
<title>shekels&#45;&gt;shekels.enforce</title>
<path fill="none" stroke="#a0d17b" d="M181.7861,-936.3608C215.0023,-937.9678 262.3543,-934.237 289,-905 347.6263,-840.6722 292.4842,-595.7331 325,-515 339.8182,-478.2081 369.8994,-443.6663 392.2626,-421.3751"/>
<polygon fill="#a0d17b" stroke="#a0d17b" points="394.8022,-423.7872 399.5176,-414.2995 389.9148,-418.7759 394.8022,-423.7872"/>
</g>
<!-- shekels.core -->
<g id="node21" class="node">
<title>shekels.core</title>
<polygon fill="#343434" stroke="#343434" points="478,-950 362,-950 362,-914 478,-914 478,-950"/>
<text text-anchor="middle" x="420" y="-928.3" font-family="Courier,monospace" font-size="14.00" fill="#a0d17b">shekels.core</text>
</g>
<!-- shekels&#45;&gt;shekels.core -->
<g id="edge25" class="edge">
<title>shekels&#45;&gt;shekels.core</title>
<path fill="none" stroke="#a0d17b" d="M181.6552,-932C225.1194,-932 297.9631,-932 351.7047,-932"/>
<polygon fill="#a0d17b" stroke="#a0d17b" points="351.8445,-935.5001 361.8445,-932 351.8444,-928.5001 351.8445,-935.5001"/>
</g>
<!-- dash_html_components -->
<g id="node15" class="node">
<title>dash_html_components</title>
<polygon fill="#343434" stroke="#343434" points="1037,-360 855,-360 855,-324 1037,-324 1037,-360"/>
<text text-anchor="middle" x="946" y="-338.3" font-family="Courier,monospace" font-size="14.00" fill="#de958e">dash_html_components</text>
</g>
<!-- dash_html_components&#45;&gt;shekels.server.components -->
<g id="edge26" class="edge">
<title>dash_html_components&#45;&gt;shekels.server.components</title>
<path fill="none" stroke="#de958e" d="M1037.1374,-350.1089C1051.9231,-351.4245 1067.4396,-352.8051 1082.813,-354.1729"/>
<polygon fill="#de958e" stroke="#de958e" points="1082.6148,-357.669 1092.8857,-355.0691 1083.2352,-350.6966 1082.6148,-357.669"/>
</g>
<!-- dash.exceptions -->
<g id="node16" class="node">
<title>dash.exceptions</title>
<polygon fill="#343434" stroke="#343434" points="1016,-1204 876,-1204 876,-1168 1016,-1168 1016,-1204"/>
<text text-anchor="middle" x="946" y="-1182.3" font-family="Courier,monospace" font-size="14.00" fill="#de958e">dash.exceptions</text>
</g>
<!-- dash.exceptions&#45;&gt;shekels.server.server_tools -->
<g id="edge27" class="edge">
<title>dash.exceptions&#45;&gt;shekels.server.server_tools</title>
<path fill="none" stroke="#de958e" d="M1016.2173,-1172.5656C1027.547,-1169.009 1038.87,-1164.5564 1049,-1159 1104.9106,-1128.3328 1156.3886,-1073.1894 1183.8102,-1040.7663"/>
<polygon fill="#de958e" stroke="#de958e" points="1186.5354,-1042.9632 1190.2515,-1033.0415 1181.1592,-1038.4803 1186.5354,-1042.9632"/>
</g>
<!-- dash_table -->
<g id="node17" class="node">
<title>dash_table</title>
<polygon fill="#343434" stroke="#343434" points="995.5,-36 896.5,-36 896.5,0 995.5,0 995.5,-36"/>
<text text-anchor="middle" x="946" y="-14.3" font-family="Courier,monospace" font-size="14.00" fill="#de958e">dash_table</text>
</g>
<!-- dash_table&#45;&gt;shekels.server.app -->
<g id="edge28" class="edge">
<title>dash_table&#45;&gt;shekels.server.app</title>
<path fill="none" stroke="#de958e" d="M995.5977,-28.1716C1012.8283,-32.4421 1032.0682,-38.0537 1049,-45 1196.5479,-105.5317 1214.2026,-159.3658 1360,-224 1455.2124,-266.2091 1507.958,-223.7802 1583,-296 1669.1036,-378.8654 1692.9732,-529.3709 1699.3144,-591.7474"/>
<polygon fill="#de958e" stroke="#de958e" points="1695.8571,-592.3671 1700.2768,-601.9961 1702.8265,-591.7126 1695.8571,-592.3671"/>
</g>
<!-- dash_table&#45;&gt;shekels.server.components -->
<g id="edge29" class="edge">
<title>dash_table&#45;&gt;shekels.server.components</title>
<path fill="none" stroke="#de958e" d="M995.6887,-19.8275C1014.8907,-23.1023 1035.456,-30.206 1049,-45 1113.5354,-115.4912 1039.0085,-173.2229 1085,-257 1104.2465,-292.0589 1139.2862,-321.6536 1166.4653,-340.9469"/>
<polygon fill="#de958e" stroke="#de958e" points="1164.769,-344.0294 1174.9835,-346.8429 1168.753,-338.2737 1164.769,-344.0294"/>
</g>
<!-- flask -->
<g id="node18" class="node">
<title>flask</title>
<polygon fill="#343434" stroke="#343434" points="975,-715 917,-715 917,-679 975,-679 975,-715"/>
<text text-anchor="middle" x="946" y="-693.3" font-family="Courier,monospace" font-size="14.00" fill="#de958e">flask</text>
</g>
<!-- flask&#45;&gt;shekels.server.api -->
<g id="edge30" class="edge">
<title>flask&#45;&gt;shekels.server.api</title>
<path fill="none" stroke="#de958e" d="M975.3577,-697.4456C1039.4938,-698.9784 1196.5765,-705.7839 1324,-736 1358.0021,-744.063 1394.7465,-757.9974 1423.0554,-769.9487"/>
<polygon fill="#de958e" stroke="#de958e" points="1421.7458,-773.1953 1432.3162,-773.9144 1424.5014,-766.7605 1421.7458,-773.1953"/>
</g>
<!-- flask&#45;&gt;shekels.server.app -->
<g id="edge31" class="edge">
<title>flask&#45;&gt;shekels.server.app</title>
<path fill="none" stroke="#de958e" d="M975.4026,-685.2925C996.0607,-676.9981 1024.3044,-665.5199 1049,-655 1065.1084,-648.1381 1067.9304,-642.8981 1085,-639 1181.7229,-616.9117 1461.4329,-616.8452 1608.5463,-618.4931"/>
<polygon fill="#de958e" stroke="#de958e" points="1608.8647,-621.9969 1618.905,-618.6144 1608.9467,-614.9974 1608.8647,-621.9969"/>
</g>
<!-- flask&#45;&gt;shekels.server.components -->
<g id="edge32" class="edge">
<title>flask&#45;&gt;shekels.server.components</title>
<path fill="none" stroke="#de958e" d="M975.0876,-689.8914C997.4688,-683.2015 1028.0199,-671.2756 1049,-652 1091.1866,-613.2408 1163.7304,-456.6872 1192.3664,-392.5786"/>
<polygon fill="#de958e" stroke="#de958e" points="1195.7093,-393.675 1196.574,-383.1155 1189.313,-390.8311 1195.7093,-393.675"/>
</g>
<!-- flask&#45;&gt;shekels.server.server_tools -->
<g id="edge33" class="edge">
<title>flask&#45;&gt;shekels.server.server_tools</title>
<path fill="none" stroke="#de958e" d="M956.7902,-715.1405C978.8198,-751.5769 1031.4282,-835.5885 1085,-899 1113.4549,-932.6813 1150.4131,-967.3974 1175.6471,-989.9639"/>
<polygon fill="#de958e" stroke="#de958e" points="1173.5999,-992.8266 1183.4023,-996.847 1178.2465,-987.5913 1173.5999,-992.8266"/>
</g>
<!-- shekels.enforce&#45;&gt;shekels.enforce.enforce_tools -->
<g id="edge34" class="edge">
<title>shekels.enforce&#45;&gt;shekels.enforce.enforce_tools</title>
<path fill="none" stroke="#a0d17b" d="M490.0891,-381.3868C518.4774,-375.468 551.7287,-368.5353 582.3549,-362.1499"/>
<polygon fill="#a0d17b" stroke="#a0d17b" points="583.1217,-365.5654 592.1968,-360.098 581.6929,-358.7128 583.1217,-365.5654"/>
</g>
<!-- numpy -->
<g id="node20" class="node">
<title>numpy</title>
<polygon fill="#343434" stroke="#343434" points="708,-836 650,-836 650,-800 708,-800 708,-836"/>
<text text-anchor="middle" x="679" y="-814.3" font-family="Courier,monospace" font-size="14.00" fill="#de958e">numpy</text>
</g>
<!-- numpy&#45;&gt;shekels.core.data_tools -->
<g id="edge35" class="edge">
<title>numpy&#45;&gt;shekels.core.data_tools</title>
<path fill="none" stroke="#de958e" d="M708.093,-820.263C737.141,-820.8261 781.0874,-816.7981 807,-791 860.8074,-737.4304 793.4748,-681.5516 843,-624 848.3493,-617.7837 854.7974,-612.5557 861.8259,-608.1592"/>
<polygon fill="#de958e" stroke="#de958e" points="863.9841,-610.9622 871.0001,-603.0233 860.5647,-604.8542 863.9841,-610.9622"/>
</g>
<!-- numpy&#45;&gt;shekels.core.database -->
<g id="edge36" class="edge">
<title>numpy&#45;&gt;shekels.core.database</title>
<path fill="none" stroke="#de958e" d="M708.3125,-819.9918C770.9559,-824.3679 922.4781,-835.5894 1049,-850 1065.1525,-851.8397 1082.2163,-854.0159 1098.8907,-856.272"/>
<polygon fill="#de958e" stroke="#de958e" points="1098.8285,-859.7961 1109.2108,-857.6848 1099.778,-852.8608 1098.8285,-859.7961"/>
</g>
<!-- shekels.core&#45;&gt;shekels.core.config -->
<g id="edge37" class="edge">
<title>shekels.core&#45;&gt;shekels.core.config</title>
<path fill="none" stroke="#a0d17b" d="M478.1247,-935.5907C508.6672,-937.4775 546.9128,-939.8402 581.8135,-941.9962"/>
<polygon fill="#a0d17b" stroke="#a0d17b" points="581.8437,-945.5046 592.0405,-942.628 582.2753,-938.518 581.8437,-945.5046"/>
</g>
<!-- shekels.core&#45;&gt;shekels.core.data_tools -->
<g id="edge38" class="edge">
<title>shekels.core&#45;&gt;shekels.core.data_tools</title>
<path fill="none" stroke="#a0d17b" d="M478.1911,-925.9072C491.8678,-921.8792 505.2734,-915.3888 515,-905 567.1901,-849.2568 495.6111,-789.566 551,-737 634.5803,-657.6794 714.0954,-764.1628 807,-696 835.846,-674.8361 816.4488,-647.9798 843,-624 850.1616,-617.532 858.5026,-612.0985 867.2797,-607.5429"/>
<polygon fill="#a0d17b" stroke="#a0d17b" points="869.0425,-610.5796 876.5531,-603.1069 866.0217,-604.2649 869.0425,-610.5796"/>
</g>
<!-- shekels.core&#45;&gt;shekels.core.database -->
<g id="edge39" class="edge">
<title>shekels.core&#45;&gt;shekels.core.database</title>
<path fill="none" stroke="#a0d17b" d="M478.1902,-947.1299C490.4502,-950.7093 503.2317,-954.7367 515,-959 531.4621,-964.9638 533.8723,-971.3653 551,-975 662.2992,-998.6193 695.7008,-998.6193 807,-975 824.1277,-971.3653 826.2384,-964.0614 843,-959 931.9028,-932.1543 964.3255,-962.1395 1049,-924 1067.733,-915.5622 1066.3603,-903.642 1085,-895 1089.6721,-892.8339 1094.5378,-890.8718 1099.518,-889.0944"/>
<polygon fill="#a0d17b" stroke="#a0d17b" points="1100.813,-892.3528 1109.2154,-885.8991 1098.6224,-885.7044 1100.813,-892.3528"/>
</g>
<!-- schematics.models -->
<g id="node22" class="node">
<title>schematics.models</title>
<polygon fill="#343434" stroke="#343434" points="498.5,-1004 341.5,-1004 341.5,-968 498.5,-968 498.5,-1004"/>
<text text-anchor="middle" x="420" y="-982.3" font-family="Courier,monospace" font-size="14.00" fill="#de958e">schematics.models</text>
</g>
<!-- schematics.models&#45;&gt;shekels.core.config -->
<g id="edge40" class="edge">
<title>schematics.models&#45;&gt;shekels.core.config</title>
<path fill="none" stroke="#de958e" d="M498.7634,-974.444C525.1406,-970.574 554.8536,-966.2145 582.4322,-962.1683"/>
<polygon fill="#de958e" stroke="#de958e" points="583.1,-965.6078 592.486,-960.6932 582.0838,-958.682 583.1,-965.6078"/>
</g>
<!-- cufflinks -->
<g id="node23" class="node">
<title>cufflinks</title>
<polygon fill="#343434" stroke="#343434" points="724.5,-452 633.5,-452 633.5,-416 724.5,-416 724.5,-452"/>
<text text-anchor="middle" x="679" y="-430.3" font-family="Courier,monospace" font-size="14.00" fill="#de958e">cufflinks</text>
</g>
<!-- cufflinks&#45;&gt;shekels.core.data_tools -->
<g id="edge41" class="edge">
<title>cufflinks&#45;&gt;shekels.core.data_tools</title>
<path fill="none" stroke="#de958e" d="M724.7439,-437.8267C750.0561,-441.3447 781.4629,-448.0872 807,-461 855.0099,-485.2762 899.321,-530.3655 924.4663,-558.9657"/>
<polygon fill="#de958e" stroke="#de958e" points="921.8488,-561.2898 931.0375,-566.5642 927.1435,-556.7109 921.8488,-561.2898"/>
</g>
<!-- pandasql -->
<g id="node24" class="node">
<title>pandasql</title>
<polygon fill="#343434" stroke="#343434" points="720.5,-782 637.5,-782 637.5,-746 720.5,-746 720.5,-782"/>
<text text-anchor="middle" x="679" y="-760.3" font-family="Courier,monospace" font-size="14.00" fill="#de958e">pandasql</text>
</g>
<!-- pandasql&#45;&gt;shekels.core.data_tools -->
<g id="edge42" class="edge">
<title>pandasql&#45;&gt;shekels.core.data_tools</title>
<path fill="none" stroke="#de958e" d="M720.7321,-763.5609C748.4234,-761.0986 783.8067,-753.4777 807,-732 844.1237,-697.6223 807.9494,-660.4891 843,-624 849.1594,-617.5878 856.4795,-612.2184 864.3354,-607.7243"/>
<polygon fill="#de958e" stroke="#de958e" points="866.1403,-610.7308 873.3994,-603.0135 862.9122,-604.5196 866.1403,-610.7308"/>
</g>
<!-- pandasql&#45;&gt;shekels.server.api -->
<g id="edge43" class="edge">
<title>pandasql&#45;&gt;shekels.server.api</title>
<path fill="none" stroke="#de958e" d="M720.7702,-765.4758C843.7033,-769.8192 1206.3808,-782.633 1378.6364,-788.719"/>
<polygon fill="#de958e" stroke="#de958e" points="1378.5831,-792.2192 1388.7005,-789.0746 1378.8304,-785.2236 1378.5831,-792.2192"/>
</g>
<!-- schematics.exceptions -->
<g id="node25" class="node">
<title>schematics.exceptions</title>
<polygon fill="#343434" stroke="#343434" points="515,-770 325,-770 325,-734 515,-734 515,-770"/>
<text text-anchor="middle" x="420" y="-748.3" font-family="Courier,monospace" font-size="14.00" fill="#de958e">schematics.exceptions</text>
</g>
<!-- schematics.exceptions&#45;&gt;shekels.core.config -->
<g id="edge44" class="edge">
<title>schematics.exceptions&#45;&gt;shekels.core.config</title>
<path fill="none" stroke="#de958e" d="M440.1357,-770.0285C460.5345,-788.9325 492.2419,-820.1308 515,-851 534.5966,-877.5809 524.8104,-895.8835 551,-916 560.4377,-923.2492 571.3165,-928.874 582.6628,-933.2352"/>
<polygon fill="#de958e" stroke="#de958e" points="581.6875,-936.602 592.2823,-936.6092 584.0044,-929.9966 581.6875,-936.602"/>
</g>
<!-- schematics.exceptions&#45;&gt;shekels.core.data_tools -->
<g id="edge45" class="edge">
<title>schematics.exceptions&#45;&gt;shekels.core.data_tools</title>
<path fill="none" stroke="#de958e" d="M463.0216,-733.9513C488.2789,-723.935 521.0289,-711.935 551,-704 662.529,-674.472 704.8131,-714.558 807,-661 827.3218,-650.349 823.815,-636.5839 843,-624 852.9927,-617.4455 864.2455,-611.7669 875.5474,-606.9272"/>
<polygon fill="#de958e" stroke="#de958e" points="877.0902,-610.0778 885.026,-603.0582 874.4448,-603.5969 877.0902,-610.0778"/>
</g>
<!-- schematics.exceptions&#45;&gt;shekels.server.api -->
<g id="edge46" class="edge">
<title>schematics.exceptions&#45;&gt;shekels.server.api</title>
<path fill="none" stroke="#de958e" d="M437.8847,-770.366C461.3651,-793.0233 505.0283,-830.341 551,-845 703.0383,-893.4805 1176.6217,-834.2938 1378.6572,-805.7437"/>
<polygon fill="#de958e" stroke="#de958e" points="1379.2455,-809.1953 1388.6544,-804.3246 1378.2617,-802.2648 1379.2455,-809.1953"/>
</g>
<!-- schematics.exceptions&#45;&gt;shekels.server.components -->
<g id="edge47" class="edge">
<title>schematics.exceptions&#45;&gt;shekels.server.components</title>
<path fill="none" stroke="#de958e" d="M431.5218,-733.7675C451.3333,-701.6602 491.9416,-632.4148 515,-569 540.2043,-499.6837 494.9773,-454.9736 551,-407 570.8372,-390.0129 898.9695,-375.7706 1082.5401,-369.0864"/>
<polygon fill="#de958e" stroke="#de958e" points="1082.9267,-372.5748 1092.7935,-368.7155 1082.6735,-365.5794 1082.9267,-372.5748"/>
</g>
<!-- lunchbox.enforce -->
<g id="node26" class="node">
<title>lunchbox.enforce</title>
<polygon fill="#343434" stroke="#343434" points="494.5,-314 345.5,-314 345.5,-278 494.5,-278 494.5,-314"/>
<text text-anchor="middle" x="420" y="-292.3" font-family="Courier,monospace" font-size="14.00" fill="#de958e">lunchbox.enforce</text>
</g>
<!-- lunchbox.enforce&#45;&gt;shekels.core.data_tools -->
<g id="edge48" class="edge">
<title>lunchbox.enforce&#45;&gt;shekels.core.data_tools</title>
<path fill="none" stroke="#de958e" d="M494.7619,-291.0373C592.5111,-285.9943 757.1627,-282.9001 807,-315 829.5553,-329.5277 904.1203,-491.6512 933.7272,-557.4731"/>
<polygon fill="#de958e" stroke="#de958e" points="930.6318,-559.1242 937.9183,-566.8156 937.0186,-556.259 930.6318,-559.1242"/>
</g>
<!-- lunchbox.enforce&#45;&gt;shekels.enforce.enforce_tools -->
<g id="edge49" class="edge">
<title>lunchbox.enforce&#45;&gt;shekels.enforce.enforce_tools</title>
<path fill="none" stroke="#de958e" d="M494.5661,-309.2434C517.2887,-313.2791 542.7811,-317.8067 567.3943,-322.1781"/>
<polygon fill="#de958e" stroke="#de958e" points="567.0501,-325.6717 577.5081,-323.9744 568.2743,-318.7796 567.0501,-325.6717"/>
</g>
<!-- lunchbox.enforce&#45;&gt;shekels.server.components -->
<g id="edge50" class="edge">
<title>lunchbox.enforce&#45;&gt;shekels.server.components</title>
<path fill="none" stroke="#de958e" d="M435.0263,-277.7415C457.2555,-252.3343 501.6324,-207.4715 551,-190 655.3335,-153.0757 962.2034,-127.3324 1049,-196 1098.3732,-235.0607 1040.5877,-288.3794 1085,-333 1088.0681,-336.0825 1091.3986,-338.8776 1094.9307,-341.4115"/>
<polygon fill="#de958e" stroke="#de958e" points="1093.1922,-344.4535 1103.5096,-346.8619 1096.946,-338.5451 1093.1922,-344.4535"/>
</g>
<!-- lunchbox.tools -->
<g id="node27" class="node">
<title>lunchbox.tools</title>
<polygon fill="#343434" stroke="#343434" points="745,-506 613,-506 613,-470 745,-470 745,-506"/>
<text text-anchor="middle" x="679" y="-484.3" font-family="Courier,monospace" font-size="14.00" fill="#de958e">lunchbox.tools</text>
</g>
<!-- lunchbox.tools&#45;&gt;shekels.core.data_tools -->
<g id="edge51" class="edge">
<title>lunchbox.tools&#45;&gt;shekels.core.data_tools</title>
<path fill="none" stroke="#de958e" d="M745.0117,-498.534C765.2055,-502.6558 787.2824,-508.0871 807,-515 842.1638,-527.3283 879.7805,-546.6885 907.0024,-561.9265"/>
<polygon fill="#de958e" stroke="#de958e" points="905.3911,-565.0362 915.8172,-566.92 908.8415,-558.9456 905.3911,-565.0362"/>
</g>
<!-- lunchbox.tools&#45;&gt;shekels.server.components -->
<g id="edge52" class="edge">
<title>lunchbox.tools&#45;&gt;shekels.server.components</title>
<path fill="none" stroke="#de958e" d="M745.1431,-487.776C767.3368,-484.4334 790.5895,-476.864 807,-461 855.051,-414.5492 790.3888,-356.2144 843,-315 915.0736,-258.5393 959.8936,-293.9648 1049,-315 1066.41,-319.1099 1068.2749,-326.6541 1085,-333 1095.5612,-337.0072 1106.8266,-340.7185 1118.0613,-344.0864"/>
<polygon fill="#de958e" stroke="#de958e" points="1117.3278,-347.5182 1127.9077,-346.9564 1119.2867,-340.7978 1117.3278,-347.5182"/>
</g>
<!-- lunchbox.tools&#45;&gt;shekels.server.server_tools -->
<g id="edge53" class="edge">
<title>lunchbox.tools&#45;&gt;shekels.server.server_tools</title>
<path fill="none" stroke="#de958e" d="M745.0293,-486.5186C767.8938,-489.5623 791.6187,-497.3754 807,-515 879.9565,-598.597 761.9728,-937.1996 843,-1013 875.8011,-1043.6852 984.9325,-1040.6823 1074.7848,-1032.07"/>
<polygon fill="#de958e" stroke="#de958e" points="1075.1965,-1035.5465 1084.8035,-1031.0793 1074.5075,-1028.5804 1075.1965,-1035.5465"/>
</g>
<!-- schematics.types -->
<g id="node28" class="node">
<title>schematics.types</title>
<polygon fill="#343434" stroke="#343434" points="494.5,-896 345.5,-896 345.5,-860 494.5,-860 494.5,-896"/>
<text text-anchor="middle" x="420" y="-874.3" font-family="Courier,monospace" font-size="14.00" fill="#de958e">schematics.types</text>
</g>
<!-- schematics.types&#45;&gt;shekels.core.config -->
<g id="edge54" class="edge">
<title>schematics.types&#45;&gt;shekels.core.config</title>
<path fill="none" stroke="#de958e" d="M484.182,-896.0559C494.4971,-899.0111 505.05,-902.0662 515,-905 531.0472,-909.7316 534.8793,-911.5252 551,-916 564.8982,-919.8579 579.7036,-923.7539 594.1289,-927.436"/>
<polygon fill="#de958e" stroke="#de958e" points="593.4857,-930.8836 604.0392,-929.9479 595.2056,-924.0982 593.4857,-930.8836"/>
</g>
<!-- pyparsing -->
<g id="node29" class="node">
<title>pyparsing</title>
<polygon fill="#343434" stroke="#343434" points="724.5,-652 633.5,-652 633.5,-616 724.5,-616 724.5,-652"/>
<text text-anchor="middle" x="679" y="-630.3" font-family="Courier,monospace" font-size="14.00" fill="#de958e">pyparsing</text>
</g>
<!-- pyparsing&#45;&gt;shekels.core.data_tools -->
<g id="edge55" class="edge">
<title>pyparsing&#45;&gt;shekels.core.data_tools</title>
<path fill="none" stroke="#de958e" d="M724.5956,-625.6323C755.6954,-619.9248 798.2525,-612.1147 837.7494,-604.8662"/>
<polygon fill="#de958e" stroke="#de958e" points="838.5122,-608.2848 847.7162,-603.0371 837.2486,-601.3997 838.5122,-608.2848"/>
</g>
<!-- pandas -->
<g id="node30" class="node">
<title>pandas</title>
<polygon fill="#343434" stroke="#343434" points="453,-560 387,-560 387,-524 453,-524 453,-560"/>
<text text-anchor="middle" x="420" y="-538.3" font-family="Courier,monospace" font-size="14.00" fill="#de958e">pandas</text>
</g>
<!-- pandas&#45;&gt;shekels.core.data_tools -->
<g id="edge56" class="edge">
<title>pandas&#45;&gt;shekels.core.data_tools</title>
<path fill="none" stroke="#de958e" d="M453.1354,-550.3882C479.4723,-556.6761 517.3487,-564.8784 551,-569 645.5643,-580.5822 753.7147,-584.3081 832.9133,-585.2923"/>
<polygon fill="#de958e" stroke="#de958e" points="832.8746,-588.792 842.9131,-585.4039 832.9528,-581.7924 832.8746,-588.792"/>
</g>
<!-- pandas&#45;&gt;shekels.core.database -->
<g id="edge57" class="edge">
<title>pandas&#45;&gt;shekels.core.database</title>
<path fill="none" stroke="#de958e" d="M430.8924,-560.1593C449.9148,-592.4348 489.5822,-662.3003 515,-725 535.9192,-776.6026 507.0227,-810.8468 551,-845 593.1246,-877.7144 925.4132,-876.9527 1099.2646,-874.2311"/>
<polygon fill="#de958e" stroke="#de958e" points="1099.5198,-877.7275 1109.462,-874.0663 1099.4067,-870.7284 1099.5198,-877.7275"/>
</g>
<!-- pandas&#45;&gt;shekels.enforce.enforce_tools -->
<g id="edge58" class="edge">
<title>pandas&#45;&gt;shekels.enforce.enforce_tools</title>
<path fill="none" stroke="#de958e" d="M435.0415,-523.6302C453.97,-500.4066 487.3498,-459.0961 515,-423 531.4332,-401.5472 528.5612,-389.0589 551,-374 556.5589,-370.2694 562.5168,-366.9735 568.7103,-364.0617"/>
<polygon fill="#de958e" stroke="#de958e" points="570.1501,-367.2523 577.9339,-360.0646 567.3667,-360.8295 570.1501,-367.2523"/>
</g>
<!-- pandas&#45;&gt;shekels.server.components -->
<g id="edge59" class="edge">
<title>pandas&#45;&gt;shekels.server.components</title>
<path fill="none" stroke="#de958e" d="M439.4548,-523.82C461.4723,-502.0546 496.6515,-463.4444 515,-423 552.3141,-340.751 481.7096,-280.9317 551,-223 593.4565,-187.5033 1004.3577,-198.2948 1049,-231 1087.7806,-259.4108 1049.7127,-300.3516 1085,-333 1088.557,-336.291 1092.4152,-339.2504 1096.4939,-341.9112"/>
<polygon fill="#de958e" stroke="#de958e" points="1094.7492,-344.9453 1105.1499,-346.9639 1098.278,-338.8999 1094.7492,-344.9453"/>
</g>
<!-- rolling_pin.blob_etl -->
<g id="node31" class="node">
<title>rolling_pin.blob_etl</title>
<polygon fill="#343434" stroke="#343434" points="770,-268 588,-268 588,-232 770,-232 770,-268"/>
<text text-anchor="middle" x="679" y="-246.3" font-family="Courier,monospace" font-size="14.00" fill="#de958e">rolling_pin.blob_etl</text>
</g>
<!-- rolling_pin.blob_etl&#45;&gt;shekels.core.data_tools -->
<g id="edge60" class="edge">
<title>rolling_pin.blob_etl&#45;&gt;shekels.core.data_tools</title>
<path fill="none" stroke="#de958e" d="M770.2434,-261.5299C783.6133,-266.2801 796.4193,-272.8739 807,-282 838.6877,-309.3313 825.9884,-330.7676 843,-369 873.568,-437.6992 912.3967,-517.224 932.5265,-557.9285"/>
<polygon fill="#de958e" stroke="#de958e" points="929.4176,-559.5376 936.9934,-566.9442 935.6899,-556.4298 929.4176,-559.5376"/>
</g>
<!-- rolling_pin.blob_etl&#45;&gt;shekels.server.components -->
<g id="edge61" class="edge">
<title>rolling_pin.blob_etl&#45;&gt;shekels.server.components</title>
<path fill="none" stroke="#de958e" d="M770.1086,-237.4232C849.129,-231.0633 963.8696,-233.1216 1049,-282 1073.0609,-295.8148 1062.2413,-317.1312 1085,-333 1090.2027,-336.6277 1095.7953,-339.8442 1101.6186,-342.6962"/>
<polygon fill="#de958e" stroke="#de958e" points="1100.3805,-345.977 1110.9364,-346.8846 1103.2504,-339.5924 1100.3805,-345.977"/>
</g>
<!-- webcolors -->
<g id="node32" class="node">
<title>webcolors</title>
<polygon fill="#343434" stroke="#343434" points="724.5,-560 633.5,-560 633.5,-524 724.5,-524 724.5,-560"/>
<text text-anchor="middle" x="679" y="-538.3" font-family="Courier,monospace" font-size="14.00" fill="#de958e">webcolors</text>
</g>
<!-- webcolors&#45;&gt;shekels.core.data_tools -->
<g id="edge62" class="edge">
<title>webcolors&#45;&gt;shekels.core.data_tools</title>
<path fill="none" stroke="#de958e" d="M724.5956,-549.3431C754.4014,-554.1433 794.7311,-560.6383 832.8046,-566.77"/>
<polygon fill="#de958e" stroke="#de958e" points="832.5191,-570.2691 842.9484,-568.4037 833.6321,-563.3581 832.5191,-570.2691"/>
</g>
<!-- jsoncomment -->
<g id="node33" class="node">
<title>jsoncomment</title>
<polygon fill="#343434" stroke="#343434" points="999.5,-1096 892.5,-1096 892.5,-1060 999.5,-1060 999.5,-1096"/>
<text text-anchor="middle" x="946" y="-1074.3" font-family="Courier,monospace" font-size="14.00" fill="#de958e">jsoncomment</text>
</g>
<!-- jsoncomment&#45;&gt;shekels.core.database -->
<g id="edge63" class="edge">
<title>jsoncomment&#45;&gt;shekels.core.database</title>
<path fill="none" stroke="#de958e" d="M978.0462,-1059.7376C998.8704,-1047.4011 1026.2708,-1030.2696 1049,-1013 1097.7449,-975.9638 1149.4755,-926.819 1179.2836,-897.4051"/>
<polygon fill="#de958e" stroke="#de958e" points="1182.0982,-899.5429 1186.7317,-890.015 1177.1678,-894.5738 1182.0982,-899.5429"/>
</g>
<!-- jsoncomment&#45;&gt;shekels.server.app -->
<g id="edge64" class="edge">
<title>jsoncomment&#45;&gt;shekels.server.app</title>
<path fill="none" stroke="#de958e" d="M999.8926,-1091.4206C1119.7655,-1117.818 1411.396,-1162.4558 1583,-1022 1642.4698,-973.3247 1684.4807,-731.2624 1697.3532,-648.1055"/>
<polygon fill="#de958e" stroke="#de958e" points="1700.8289,-648.5296 1698.8769,-638.1161 1693.9089,-647.474 1700.8289,-648.5296"/>
</g>
<!-- jsoncomment&#45;&gt;shekels.server.server_tools -->
<g id="edge65" class="edge">
<title>jsoncomment&#45;&gt;shekels.server.server_tools</title>
<path fill="none" stroke="#de958e" d="M999.5614,-1064.9464C1034.4618,-1056.4406 1080.7304,-1045.1644 1120.472,-1035.4788"/>
<polygon fill="#de958e" stroke="#de958e" points="1121.5374,-1038.8216 1130.4243,-1033.0533 1119.8799,-1032.0207 1121.5374,-1038.8216"/>
</g>
<!-- jinja2 -->
<g id="node34" class="node">
<title>jinja2</title>
<polygon fill="#343434" stroke="#343434" points="979,-1150 913,-1150 913,-1114 979,-1114 979,-1150"/>
<text text-anchor="middle" x="946" y="-1128.3" font-family="Courier,monospace" font-size="14.00" fill="#de958e">jinja2</text>
</g>
<!-- jinja2&#45;&gt;shekels.server.server_tools -->
<g id="edge66" class="edge">
<title>jinja2&#45;&gt;shekels.server.server_tools</title>
<path fill="none" stroke="#de958e" d="M979.2045,-1125.6707C999.7561,-1121.1771 1026.4355,-1114.2889 1049,-1105 1092.7102,-1087.0062 1139.1605,-1058.7783 1169.7903,-1038.7379"/>
<polygon fill="#de958e" stroke="#de958e" points="1171.9679,-1041.4941 1178.3806,-1033.0603 1168.1082,-1035.6543 1171.9679,-1041.4941"/>
</g>
<!-- flasgger -->
<g id="node35" class="node">
<title>flasgger</title>
<polygon fill="#343434" stroke="#343434" points="1246,-684 1163,-684 1163,-648 1246,-648 1246,-684"/>
<text text-anchor="middle" x="1204.5" y="-662.3" font-family="Courier,monospace" font-size="14.00" fill="#de958e">flasgger</text>
</g>
<!-- flasgger&#45;&gt;shekels.server.api -->
<g id="edge67" class="edge">
<title>flasgger&#45;&gt;shekels.server.api</title>
<path fill="none" stroke="#de958e" d="M1246.1734,-672.0825C1270.0229,-676.7767 1299.8979,-684.7767 1324,-698 1343.0293,-708.4402 1342.3508,-718.3661 1360,-731 1379.9934,-745.312 1403.7076,-758.7223 1424.115,-769.3042"/>
<polygon fill="#de958e" stroke="#de958e" points="1422.7356,-772.5297 1433.2334,-773.9601 1425.919,-766.2954 1422.7356,-772.5297"/>
</g>
<!-- flasgger&#45;&gt;shekels.server.app -->
<g id="edge68" class="edge">
<title>flasgger&#45;&gt;shekels.server.app</title>
<path fill="none" stroke="#de958e" d="M1246.2682,-662.9252C1316.0659,-657.6845 1460.8007,-646.3807 1583,-634 1591.3698,-633.152 1600.0661,-632.2208 1608.7746,-631.254"/>
<polygon fill="#de958e" stroke="#de958e" points="1609.4384,-634.7015 1618.9845,-630.1057 1608.656,-627.7454 1609.4384,-634.7015"/>
</g>
<!-- flask_caching -->
<g id="node36" class="node">
<title>flask_caching</title>
<polygon fill="#343434" stroke="#343434" points="1533.5,-215 1409.5,-215 1409.5,-179 1533.5,-179 1533.5,-215"/>
<text text-anchor="middle" x="1471.5" y="-193.3" font-family="Courier,monospace" font-size="14.00" fill="#de958e">flask_caching</text>
</g>
<!-- flask_caching&#45;&gt;shekels.server.app -->
<g id="edge69" class="edge">
<title>flask_caching&#45;&gt;shekels.server.app</title>
<path fill="none" stroke="#de958e" d="M1533.6103,-203.486C1551.4931,-208.1213 1569.7305,-215.9253 1583,-229 1636.0687,-281.2898 1681.8353,-511.0439 1696.5498,-591.8057"/>
<polygon fill="#de958e" stroke="#de958e" points="1693.1243,-592.5323 1698.3419,-601.7533 1700.0134,-591.2912 1693.1243,-592.5323"/>
</g>
<!-- flask_monitoringdashboard -->
<g id="node37" class="node">
<title>flask_monitoringdashboard</title>
<polygon fill="#343434" stroke="#343434" points="1583,-161 1360,-161 1360,-125 1583,-125 1583,-161"/>
<text text-anchor="middle" x="1471.5" y="-139.3" font-family="Courier,monospace" font-size="14.00" fill="#de958e">flask_monitoringdashboard</text>
</g>
<!-- flask_monitoringdashboard&#45;&gt;shekels.server.app -->
<g id="edge70" class="edge">
<title>flask_monitoringdashboard&#45;&gt;shekels.server.app</title>
<path fill="none" stroke="#de958e" d="M1571.8333,-161.0879C1575.833,-163.6977 1579.5865,-166.6538 1583,-170 1644.5431,-230.3299 1685.8113,-502.6542 1697.8534,-591.7163"/>
<polygon fill="#de958e" stroke="#de958e" points="1694.4169,-592.4251 1699.2071,-601.8752 1701.3555,-591.5005 1694.4169,-592.4251"/>
</g>
<!-- filelock -->
<g id="node38" class="node">
<title>filelock</title>
<polygon fill="#343434" stroke="#343434" points="186,-1004 103,-1004 103,-968 186,-968 186,-1004"/>
<text text-anchor="middle" x="144.5" y="-982.3" font-family="Courier,monospace" font-size="14.00" fill="#de958e">filelock</text>
</g>
<!-- selenium.webdriver.chrome.options -->
<g id="node39" class="node">
<title>selenium.webdriver.chrome.options</title>
<polygon fill="#343434" stroke="#343434" points="289,-1058 0,-1058 0,-1022 289,-1022 289,-1058"/>
<text text-anchor="middle" x="144.5" y="-1036.3" font-family="Courier,monospace" font-size="14.00" fill="#de958e">selenium.webdriver.chrome.options</text>
</g>
</g>
</svg>
