<?xml version="1.0" encoding="UTF-8" standalone="no"?>
<!DOCTYPE svg PUBLIC "-//W3C//DTD SVG 1.1//EN"
 "http://www.w3.org/Graphics/SVG/1.1/DTD/svg11.dtd">
<!-- Generated by graphviz version 2.40.1 (20161225.0304)
 -->
<!-- Title: %3 Pages: 1 -->
<svg width="1519pt" height="1094pt"
 viewBox="0.00 0.00 1519.00 1094.00" xmlns="http://www.w3.org/2000/svg" xmlns:xlink="http://www.w3.org/1999/xlink">
<g id="graph0" class="graph" transform="scale(1 1) rotate(0) translate(4 1090)">
<title>%3</title>
<polygon fill="#242424" stroke="transparent" points="-4,4 -4,-1090 1515,-1090 1515,4 -4,4"/>
<!-- cli -->
<g id="node1" class="node">
<title>cli</title>
<polygon fill="#343434" stroke="#343434" points="64,-664 10,-664 10,-628 64,-628 64,-664"/>
<text text-anchor="middle" x="37" y="-642.3" font-family="Courier,monospace" font-size="14.00" fill="#b6ecf3">cli</text>
</g>
<!-- shekels.core.config -->
<g id="node2" class="node">
<title>shekels.core.config</title>
<polygon fill="#343434" stroke="#343434" points="550.5,-799 377.5,-799 377.5,-763 550.5,-763 550.5,-799"/>
<text text-anchor="middle" x="464" y="-777.3" font-family="Courier,monospace" font-size="14.00" fill="#b6ecf3">shekels.core.config</text>
</g>
<!-- shekels.core.data_tools -->
<g id="node3" class="node">
<title>shekels.core.data_tools</title>
<polygon fill="#343434" stroke="#343434" points="834,-566 628,-566 628,-530 834,-530 834,-566"/>
<text text-anchor="middle" x="731" y="-544.3" font-family="Courier,monospace" font-size="14.00" fill="#b6ecf3">shekels.core.data_tools</text>
</g>
<!-- shekels.core.config&#45;&gt;shekels.core.data_tools -->
<g id="edge1" class="edge">
<title>shekels.core.config&#45;&gt;shekels.core.data_tools</title>
<path fill="none" stroke="#b6ecf3" d="M523.6078,-762.907C547.9957,-752.7275 574.5295,-737.6111 592,-716 631.3085,-667.3752 584.7357,-625.1412 628,-580 630.9881,-576.8823 634.2738,-574.0665 637.7791,-571.5238"/>
<polygon fill="#b6ecf3" stroke="#b6ecf3" points="639.774,-574.4027 646.3203,-566.0722 636.0079,-568.5021 639.774,-574.4027"/>
</g>
<!-- shekels.core.database -->
<g id="node4" class="node">
<title>shekels.core.database</title>
<polygon fill="#343434" stroke="#343434" points="1084.5,-772 894.5,-772 894.5,-736 1084.5,-736 1084.5,-772"/>
<text text-anchor="middle" x="989.5" y="-750.3" font-family="Courier,monospace" font-size="14.00" fill="#b6ecf3">shekels.core.database</text>
</g>
<!-- shekels.core.config&#45;&gt;shekels.core.database -->
<g id="edge2" class="edge">
<title>shekels.core.config&#45;&gt;shekels.core.database</title>
<path fill="none" stroke="#b6ecf3" d="M550.7756,-776.5415C642.1396,-771.8473 786.0404,-764.4537 883.9258,-759.4244"/>
<polygon fill="#b6ecf3" stroke="#b6ecf3" points="884.3336,-762.9081 894.1408,-758.8995 883.9743,-755.9173 884.3336,-762.9081"/>
</g>
<!-- shekels.server.app -->
<g id="node7" class="node">
<title>shekels.server.app</title>
<polygon fill="#343434" stroke="#343434" points="1511,-699 1346,-699 1346,-663 1511,-663 1511,-699"/>
<text text-anchor="middle" x="1428.5" y="-677.3" font-family="Courier,monospace" font-size="14.00" fill="#b6ecf3">shekels.server.app</text>
</g>
<!-- shekels.core.config&#45;&gt;shekels.server.app -->
<g id="edge3" class="edge">
<title>shekels.core.config&#45;&gt;shekels.server.app</title>
<path fill="none" stroke="#b6ecf3" d="M550.61,-791.4182C704.1234,-808.1975 1016.5032,-834.251 1109,-781 1136.6146,-765.1021 1118.505,-736.701 1145,-719 1175.5009,-698.6226 1265.2124,-689.1092 1335.6374,-684.707"/>
<polygon fill="#b6ecf3" stroke="#b6ecf3" points="1336.1058,-688.1854 1345.8787,-684.094 1335.6874,-681.1979 1336.1058,-688.1854"/>
</g>
<!-- shekels.server.components -->
<g id="node8" class="node">
<title>shekels.server.components</title>
<polygon fill="#343434" stroke="#343434" points="1101,-320 878,-320 878,-284 1101,-284 1101,-320"/>
<text text-anchor="middle" x="989.5" y="-298.3" font-family="Courier,monospace" font-size="14.00" fill="#b6ecf3">shekels.server.components</text>
</g>
<!-- shekels.core.config&#45;&gt;shekels.server.components -->
<g id="edge4" class="edge">
<title>shekels.core.config&#45;&gt;shekels.server.components</title>
<path fill="none" stroke="#b6ecf3" d="M521.1932,-762.9305C545.8669,-752.6163 573.2955,-737.3873 592,-716 623.924,-679.4971 591.1766,-644.5538 628,-613 698.6955,-552.4212 758.1048,-628.9219 834,-575 921.0684,-513.1398 965.9178,-386.1909 982.1939,-329.9169"/>
<polygon fill="#b6ecf3" stroke="#b6ecf3" points="985.5707,-330.8373 984.9042,-320.2635 978.8313,-328.9451 985.5707,-330.8373"/>
</g>
<!-- shekels.core.data_tools&#45;&gt;shekels.core.database -->
<g id="edge5" class="edge">
<title>shekels.core.data_tools&#45;&gt;shekels.core.database</title>
<path fill="none" stroke="#b6ecf3" d="M770.5395,-566.1024C791.5024,-577.2574 816.4704,-593.2182 834,-613 858.7882,-640.9729 844.319,-661.8445 870,-689 886.9627,-706.9366 909.997,-721.0627 931.3163,-731.4996"/>
<polygon fill="#b6ecf3" stroke="#b6ecf3" points="930.1047,-734.7977 940.643,-735.891 933.0867,-728.4645 930.1047,-734.7977"/>
</g>
<!-- shekels.core.data_tools&#45;&gt;shekels.server.components -->
<g id="edge6" class="edge">
<title>shekels.core.data_tools&#45;&gt;shekels.server.components</title>
<path fill="none" stroke="#b6ecf3" d="M750.0081,-529.911C795.4785,-486.6394 910.624,-377.0619 962.9243,-327.2906"/>
<polygon fill="#b6ecf3" stroke="#b6ecf3" points="965.6328,-329.5447 970.464,-320.1155 960.8071,-324.4738 965.6328,-329.5447"/>
</g>
<!-- shekels.server.api -->
<g id="node6" class="node">
<title>shekels.server.api</title>
<polygon fill="#343434" stroke="#343434" points="1310,-872 1145,-872 1145,-836 1310,-836 1310,-872"/>
<text text-anchor="middle" x="1227.5" y="-850.3" font-family="Courier,monospace" font-size="14.00" fill="#b6ecf3">shekels.server.api</text>
</g>
<!-- shekels.core.database&#45;&gt;shekels.server.api -->
<g id="edge7" class="edge">
<title>shekels.core.database&#45;&gt;shekels.server.api</title>
<path fill="none" stroke="#b6ecf3" d="M1024.7758,-772.0796C1055.943,-787.6851 1102.862,-810.2867 1145,-827 1149.6951,-828.8622 1154.5749,-830.6997 1159.5106,-832.4868"/>
<polygon fill="#b6ecf3" stroke="#b6ecf3" points="1158.4424,-835.8214 1169.0372,-835.855 1160.7758,-829.2218 1158.4424,-835.8214"/>
</g>
<!-- shekels.enforce.enforce_tools -->
<g id="node5" class="node">
<title>shekels.enforce.enforce_tools</title>
<polygon fill="#343434" stroke="#343434" points="592,-339 336,-339 336,-303 592,-303 592,-339"/>
<text text-anchor="middle" x="464" y="-317.3" font-family="Courier,monospace" font-size="14.00" fill="#b6ecf3">shekels.enforce.enforce_tools</text>
</g>
<!-- shekels.enforce.enforce_tools&#45;&gt;shekels.core.data_tools -->
<g id="edge8" class="edge">
<title>shekels.enforce.enforce_tools&#45;&gt;shekels.core.data_tools</title>
<path fill="none" stroke="#b6ecf3" d="M505.4252,-339.1214C531.6401,-351.6495 565.4667,-369.8365 592,-391 641.1161,-430.1759 687.1799,-487.8818 711.9857,-521.3306"/>
<polygon fill="#b6ecf3" stroke="#b6ecf3" points="709.3772,-523.6921 718.1135,-529.6861 715.0219,-519.5523 709.3772,-523.6921"/>
</g>
<!-- shekels.server.api&#45;&gt;shekels.server.app -->
<g id="edge9" class="edge">
<title>shekels.server.api&#45;&gt;shekels.server.app</title>
<path fill="none" stroke="#b6ecf3" d="M1294.4018,-835.8702C1299.8764,-833.2745 1305.1579,-830.3315 1310,-827 1356.0193,-795.3377 1393.4607,-740.7754 1413.2317,-708.0708"/>
<polygon fill="#b6ecf3" stroke="#b6ecf3" points="1416.479,-709.4559 1418.5613,-699.0677 1410.4553,-705.89 1416.479,-709.4559"/>
</g>
<!-- shekels.server.components&#45;&gt;shekels.server.app -->
<g id="edge10" class="edge">
<title>shekels.server.components&#45;&gt;shekels.server.app</title>
<path fill="none" stroke="#b6ecf3" d="M1010.3785,-320.025C1081.9476,-381.8124 1317.4724,-585.147 1399.7914,-656.2151"/>
<polygon fill="#b6ecf3" stroke="#b6ecf3" points="1397.637,-658.9791 1407.4936,-662.8647 1402.2114,-653.6805 1397.637,-658.9791"/>
</g>
<!-- shekels.server.server_tools -->
<g id="node9" class="node">
<title>shekels.server.server_tools</title>
<polygon fill="#343434" stroke="#343434" points="1109,-940 870,-940 870,-904 1109,-904 1109,-940"/>
<text text-anchor="middle" x="989.5" y="-918.3" font-family="Courier,monospace" font-size="14.00" fill="#b6ecf3">shekels.server.server_tools</text>
</g>
<!-- shekels.server.server_tools&#45;&gt;shekels.server.api -->
<g id="edge11" class="edge">
<title>shekels.server.server_tools&#45;&gt;shekels.server.api</title>
<path fill="none" stroke="#b6ecf3" d="M1058.4866,-903.9459C1075.0602,-899.4928 1092.6856,-894.6611 1109,-890 1125.5046,-885.2846 1143.2391,-880.0092 1159.8316,-874.9817"/>
<polygon fill="#b6ecf3" stroke="#b6ecf3" points="1160.9021,-878.3145 1169.4511,-872.0564 1158.8653,-871.6174 1160.9021,-878.3145"/>
</g>
<!-- shekels.server.server_tools&#45;&gt;shekels.server.app -->
<g id="edge12" class="edge">
<title>shekels.server.server_tools&#45;&gt;shekels.server.app</title>
<path fill="none" stroke="#b6ecf3" d="M1109.3547,-931.0391C1173.6215,-930.1974 1251.4079,-919.5195 1310,-881 1372.5744,-839.8625 1406.6928,-753.2925 1420.7327,-708.7588"/>
<polygon fill="#b6ecf3" stroke="#b6ecf3" points="1424.0913,-709.7442 1423.6521,-699.1584 1417.3941,-707.7076 1424.0913,-709.7442"/>
</g>
<!-- dash.dependencies -->
<g id="node10" class="node">
<title>dash.dependencies</title>
<polygon fill="#343434" stroke="#343434" points="1306,-818 1149,-818 1149,-782 1306,-782 1306,-818"/>
<text text-anchor="middle" x="1227.5" y="-796.3" font-family="Courier,monospace" font-size="14.00" fill="#de958e">dash.dependencies</text>
</g>
<!-- dash.dependencies&#45;&gt;shekels.server.app -->
<g id="edge13" class="edge">
<title>dash.dependencies&#45;&gt;shekels.server.app</title>
<path fill="none" stroke="#de958e" d="M1290.6064,-781.8664C1297.2916,-779.2066 1303.8775,-776.2517 1310,-773 1344.3624,-754.7497 1378.9728,-726.4711 1401.8406,-706.0827"/>
<polygon fill="#de958e" stroke="#de958e" points="1404.3498,-708.5325 1409.4198,-699.2295 1399.655,-703.3403 1404.3498,-708.5325"/>
</g>
<!-- dash.exceptions -->
<g id="node11" class="node">
<title>dash.exceptions</title>
<polygon fill="#343434" stroke="#343434" points="1297.5,-764 1157.5,-764 1157.5,-728 1297.5,-728 1297.5,-764"/>
<text text-anchor="middle" x="1227.5" y="-742.3" font-family="Courier,monospace" font-size="14.00" fill="#de958e">dash.exceptions</text>
</g>
<!-- dash.exceptions&#45;&gt;shekels.server.app -->
<g id="edge14" class="edge">
<title>dash.exceptions&#45;&gt;shekels.server.app</title>
<path fill="none" stroke="#de958e" d="M1283.2228,-727.9802C1307.9476,-719.9846 1337.2175,-710.5192 1362.9825,-702.1872"/>
<polygon fill="#de958e" stroke="#de958e" points="1364.2309,-705.4621 1372.6688,-699.0549 1362.077,-698.8017 1364.2309,-705.4621"/>
</g>
<!-- shekels.server -->
<g id="node12" class="node">
<title>shekels.server</title>
<polygon fill="#343434" stroke="#343434" points="797,-1086 665,-1086 665,-1050 797,-1050 797,-1086"/>
<text text-anchor="middle" x="731" y="-1064.3" font-family="Courier,monospace" font-size="14.00" fill="#a0d17b">shekels.server</text>
</g>
<!-- shekels.server&#45;&gt;shekels.server.api -->
<g id="edge15" class="edge">
<title>shekels.server&#45;&gt;shekels.server.api</title>
<path fill="none" stroke="#a0d17b" d="M797.2755,-1055.3256C875.2752,-1038.6005 1007.0737,-1004.5906 1109,-949 1143.9954,-929.9135 1178.9831,-900.2403 1201.7685,-879.14"/>
<polygon fill="#a0d17b" stroke="#a0d17b" points="1204.4071,-881.4633 1209.299,-872.0654 1199.6143,-876.3615 1204.4071,-881.4633"/>
</g>
<!-- shekels.server&#45;&gt;shekels.server.app -->
<g id="edge16" class="edge">
<title>shekels.server&#45;&gt;shekels.server.app</title>
<path fill="none" stroke="#a0d17b" d="M797.2239,-1075.781C914.5251,-1085.7676 1160.5037,-1089.1301 1310,-966 1391.2132,-899.1101 1417.5571,-767.1744 1425.4248,-709.318"/>
<polygon fill="#a0d17b" stroke="#a0d17b" points="1428.9356,-709.4537 1426.7255,-699.092 1421.9916,-708.5704 1428.9356,-709.4537"/>
</g>
<!-- shekels.server&#45;&gt;shekels.server.components -->
<g id="edge17" class="edge">
<title>shekels.server&#45;&gt;shekels.server.components</title>
<path fill="none" stroke="#a0d17b" d="M797.1122,-1063.1263C811.1594,-1058.9983 824.5758,-1052.1563 834,-1041 892.4501,-971.8072 850.5438,-723.4619 870,-635 895.7643,-517.8571 951.7546,-385.6683 976.8673,-329.5476"/>
<polygon fill="#a0d17b" stroke="#a0d17b" points="980.1255,-330.8363 981.0436,-320.2813 973.7437,-327.9601 980.1255,-330.8363"/>
</g>
<!-- shekels.server&#45;&gt;shekels.server.server_tools -->
<g id="edge18" class="edge">
<title>shekels.server&#45;&gt;shekels.server.server_tools</title>
<path fill="none" stroke="#a0d17b" d="M797.132,-1056.353C809.8708,-1052.5588 822.7404,-1047.5629 834,-1041 853.8224,-1029.4461 852.4552,-1018.7852 870,-1004 895.7039,-982.3391 927.1238,-960.9548 951.294,-945.4573"/>
<polygon fill="#a0d17b" stroke="#a0d17b" points="953.2825,-948.3407 959.8468,-940.0244 949.5291,-942.4319 953.2825,-948.3407"/>
</g>
<!-- dash -->
<g id="node13" class="node">
<title>dash</title>
<polygon fill="#343434" stroke="#343434" points="758,-144 704,-144 704,-108 758,-108 758,-144"/>
<text text-anchor="middle" x="731" y="-122.3" font-family="Courier,monospace" font-size="14.00" fill="#de958e">dash</text>
</g>
<!-- dash&#45;&gt;shekels.server.app -->
<g id="edge19" class="edge">
<title>dash&#45;&gt;shekels.server.app</title>
<path fill="none" stroke="#de958e" d="M758.364,-129.1573C780.9441,-133.0266 812.6341,-141.524 834,-160 861.0621,-183.4018 841.3586,-210.5601 870,-232 956.4018,-296.6771 1011.2197,-229.3119 1109,-275 1214.4817,-324.2866 1237.8568,-351.6166 1310,-443 1363.5582,-510.8419 1402.1681,-606.7795 1419.0413,-653.4097"/>
<polygon fill="#de958e" stroke="#de958e" points="1415.75,-654.6007 1422.4017,-662.8473 1422.3444,-652.2526 1415.75,-654.6007"/>
</g>
<!-- dash&#45;&gt;shekels.server.components -->
<g id="edge20" class="edge">
<title>dash&#45;&gt;shekels.server.components</title>
<path fill="none" stroke="#de958e" d="M758.1722,-127.6369C781.2566,-130.4467 813.7762,-137.9728 834,-158 871.152,-194.7907 832.1272,-233.9517 870,-270 873.3727,-273.2102 877.0312,-276.1062 880.9029,-278.7182"/>
<polygon fill="#de958e" stroke="#de958e" points="879.316,-281.8478 889.6911,-283.9943 882.919,-275.8462 879.316,-281.8478"/>
</g>
<!-- dash_core_components -->
<g id="node14" class="node">
<title>dash_core_components</title>
<polygon fill="#343434" stroke="#343434" points="822,-90 640,-90 640,-54 822,-54 822,-90"/>
<text text-anchor="middle" x="731" y="-68.3" font-family="Courier,monospace" font-size="14.00" fill="#de958e">dash_core_components</text>
</g>
<!-- dash_core_components&#45;&gt;shekels.server.app -->
<g id="edge21" class="edge">
<title>dash_core_components&#45;&gt;shekels.server.app</title>
<path fill="none" stroke="#de958e" d="M821.8957,-90.15C826.2148,-92.7283 830.2889,-95.6623 834,-99 867.5718,-129.1936 834.9798,-165.4992 870,-194 953.4214,-261.8916 1004.0195,-208.6014 1109,-232 1199.7513,-252.2272 1243.8173,-224.6946 1310,-290 1363.031,-342.328 1408.8218,-572.0576 1423.5462,-652.8094"/>
<polygon fill="#de958e" stroke="#de958e" points="1420.1206,-653.5354 1425.3395,-662.7557 1427.0095,-652.2934 1420.1206,-653.5354"/>
</g>
<!-- dash_core_components&#45;&gt;shekels.server.components -->
<g id="edge22" class="edge">
<title>dash_core_components&#45;&gt;shekels.server.components</title>
<path fill="none" stroke="#de958e" d="M822.2983,-89.7238C826.5149,-92.4107 830.4566,-95.4848 834,-99 877.4743,-142.129 832.8117,-183.3466 870,-232 885.7847,-252.6511 909.548,-268.3436 931.7366,-279.5829"/>
<polygon fill="#de958e" stroke="#de958e" points="930.2684,-282.7607 940.7933,-283.9761 933.3235,-276.4626 930.2684,-282.7607"/>
</g>
<!-- shekels -->
<g id="node15" class="node">
<title>shekels</title>
<polygon fill="#343434" stroke="#343434" points="74,-718 0,-718 0,-682 74,-682 74,-718"/>
<text text-anchor="middle" x="37" y="-696.3" font-family="Courier,monospace" font-size="14.00" fill="#a0d17b">shekels</text>
</g>
<!-- shekels&#45;&gt;shekels.server -->
<g id="edge23" class="edge">
<title>shekels&#45;&gt;shekels.server</title>
<path fill="none" stroke="#a0d17b" d="M38.7194,-718.0129C43.2662,-755.4513 59.0066,-842.0805 110,-889 264.7533,-1031.3899 525.7702,-1061.2306 654.5048,-1067.0003"/>
<polygon fill="#a0d17b" stroke="#a0d17b" points="654.5326,-1070.5043 664.6679,-1067.4179 654.82,-1063.5102 654.5326,-1070.5043"/>
</g>
<!-- shekels.enforce -->
<g id="node18" class="node">
<title>shekels.enforce</title>
<polygon fill="#343434" stroke="#343434" points="275,-339 135,-339 135,-303 275,-303 275,-339"/>
<text text-anchor="middle" x="205" y="-317.3" font-family="Courier,monospace" font-size="14.00" fill="#a0d17b">shekels.enforce</text>
</g>
<!-- shekels&#45;&gt;shekels.enforce -->
<g id="edge24" class="edge">
<title>shekels&#45;&gt;shekels.enforce</title>
<path fill="none" stroke="#a0d17b" d="M67.1419,-681.6906C69.7956,-679.0638 72.1655,-676.1647 74,-673 146.8851,-547.2703 16.1436,-458.9557 110,-348 114.464,-342.7227 119.8778,-338.438 125.8316,-334.964"/>
<polygon fill="#a0d17b" stroke="#a0d17b" points="127.5142,-338.0359 134.8933,-330.4332 124.3837,-331.7749 127.5142,-338.0359"/>
</g>
<!-- shekels.core -->
<g id="node20" class="node">
<title>shekels.core</title>
<polygon fill="#343434" stroke="#343434" points="263,-718 147,-718 147,-682 263,-682 263,-718"/>
<text text-anchor="middle" x="205" y="-696.3" font-family="Courier,monospace" font-size="14.00" fill="#a0d17b">shekels.core</text>
</g>
<!-- shekels&#45;&gt;shekels.core -->
<g id="edge25" class="edge">
<title>shekels&#45;&gt;shekels.core</title>
<path fill="none" stroke="#a0d17b" d="M74.2846,-700C92.6441,-700 115.369,-700 136.6946,-700"/>
<polygon fill="#a0d17b" stroke="#a0d17b" points="136.6986,-703.5001 146.6985,-700 136.6985,-696.5001 136.6986,-703.5001"/>
</g>
<!-- dash_html_components -->
<g id="node16" class="node">
<title>dash_html_components</title>
<polygon fill="#343434" stroke="#343434" points="822,-236 640,-236 640,-200 822,-200 822,-236"/>
<text text-anchor="middle" x="731" y="-214.3" font-family="Courier,monospace" font-size="14.00" fill="#de958e">dash_html_components</text>
</g>
<!-- dash_html_components&#45;&gt;shekels.server.components -->
<g id="edge26" class="edge">
<title>dash_html_components&#45;&gt;shekels.server.components</title>
<path fill="none" stroke="#de958e" d="M796.2961,-236.0566C808.9745,-240.1848 822.0346,-244.8823 834,-250 850.8287,-257.1978 853.0322,-263.1367 870,-270 879.9847,-274.0387 890.6433,-277.7231 901.3285,-281.037"/>
<polygon fill="#de958e" stroke="#de958e" points="900.5464,-284.4564 911.1304,-283.9757 902.5568,-277.7512 900.5464,-284.4564"/>
</g>
<!-- dash_table -->
<g id="node17" class="node">
<title>dash_table</title>
<polygon fill="#343434" stroke="#343434" points="780.5,-36 681.5,-36 681.5,0 780.5,0 780.5,-36"/>
<text text-anchor="middle" x="731" y="-14.3" font-family="Courier,monospace" font-size="14.00" fill="#de958e">dash_table</text>
</g>
<!-- dash_table&#45;&gt;shekels.server.app -->
<g id="edge27" class="edge">
<title>dash_table&#45;&gt;shekels.server.app</title>
<path fill="none" stroke="#de958e" d="M780.6097,-29.6847C797.6651,-34.0497 816.7923,-39.3343 834,-45 861.0451,-53.9047 1291.1108,-213.6945 1310,-235 1366.5702,-298.8068 1410.9966,-564.8814 1424.3601,-652.7223"/>
<polygon fill="#de958e" stroke="#de958e" points="1420.9206,-653.3874 1425.8687,-662.7558 1427.8428,-652.3465 1420.9206,-653.3874"/>
</g>
<!-- dash_table&#45;&gt;shekels.server.components -->
<g id="edge28" class="edge">
<title>dash_table&#45;&gt;shekels.server.components</title>
<path fill="none" stroke="#de958e" d="M780.7187,-20.3941C799.6931,-23.7799 820.0842,-30.813 834,-45 881.7064,-93.6362 835.1787,-135.4436 870,-194 890.5709,-228.5925 925.7823,-258.4247 952.6705,-277.9155"/>
<polygon fill="#de958e" stroke="#de958e" points="950.896,-280.9476 961.0789,-283.8732 954.9429,-275.236 950.896,-280.9476"/>
</g>
<!-- shekels.enforce&#45;&gt;shekels.enforce.enforce_tools -->
<g id="edge29" class="edge">
<title>shekels.enforce&#45;&gt;shekels.enforce.enforce_tools</title>
<path fill="none" stroke="#a0d17b" d="M275.0891,-321C290.8686,-321 308.1505,-321 325.649,-321"/>
<polygon fill="#a0d17b" stroke="#a0d17b" points="325.9672,-324.5001 335.9672,-321 325.9671,-317.5001 325.9672,-324.5001"/>
</g>
<!-- flask -->
<g id="node19" class="node">
<title>flask</title>
<polygon fill="#343434" stroke="#343434" points="760,-658 702,-658 702,-622 760,-622 760,-658"/>
<text text-anchor="middle" x="731" y="-636.3" font-family="Courier,monospace" font-size="14.00" fill="#de958e">flask</text>
</g>
<!-- flask&#45;&gt;shekels.server.api -->
<g id="edge30" class="edge">
<title>flask&#45;&gt;shekels.server.api</title>
<path fill="none" stroke="#de958e" d="M760.0802,-651.9927C787.879,-663.0378 831.1837,-679.159 870,-689 974.258,-715.4323 1026.1474,-658.4154 1109,-727 1145.3873,-757.121 1111.1134,-794.091 1145,-827 1146.0811,-828.0499 1147.2037,-829.059 1148.3627,-830.0289"/>
<polygon fill="#de958e" stroke="#de958e" points="1146.3297,-832.8779 1156.4912,-835.8772 1150.4179,-827.1958 1146.3297,-832.8779"/>
</g>
<!-- flask&#45;&gt;shekels.server.app -->
<g id="edge31" class="edge">
<title>flask&#45;&gt;shekels.server.app</title>
<path fill="none" stroke="#de958e" d="M760.0103,-638.6526C788.1243,-637.4187 831.9738,-635.6837 870,-635 976.2051,-633.0905 1003.0492,-627.412 1109,-635 1185.8029,-640.5005 1272.1996,-653.3475 1335.7677,-664.0706"/>
<polygon fill="#de958e" stroke="#de958e" points="1335.3237,-667.5453 1345.769,-665.7719 1336.4976,-660.6444 1335.3237,-667.5453"/>
</g>
<!-- flask&#45;&gt;shekels.server.components -->
<g id="edge32" class="edge">
<title>flask&#45;&gt;shekels.server.components</title>
<path fill="none" stroke="#de958e" d="M760.1356,-637.1187C782.5434,-633.5602 813.1067,-625.6314 834,-608 924.2211,-531.8643 967.9272,-390.3178 983.0812,-330.19"/>
<polygon fill="#de958e" stroke="#de958e" points="986.5309,-330.817 985.5059,-320.2719 979.7312,-329.1546 986.5309,-330.817"/>
</g>
<!-- flask&#45;&gt;shekels.server.server_tools -->
<g id="edge33" class="edge">
<title>flask&#45;&gt;shekels.server.server_tools</title>
<path fill="none" stroke="#de958e" d="M747.5636,-658.0694C792.0501,-706.6001 914.2544,-839.9139 965.9315,-896.2889"/>
<polygon fill="#de958e" stroke="#de958e" points="963.4025,-898.7096 972.7398,-903.7162 968.5626,-893.9796 963.4025,-898.7096"/>
</g>
<!-- shekels.core&#45;&gt;shekels.core.config -->
<g id="edge34" class="edge">
<title>shekels.core&#45;&gt;shekels.core.config</title>
<path fill="none" stroke="#a0d17b" d="M263.1517,-713.8191C275.5359,-717.5075 288.3772,-721.9106 300,-727 317.1766,-734.5213 318.7055,-741.7539 336,-749 346.0286,-753.2018 356.739,-756.9456 367.5336,-760.2568"/>
<polygon fill="#a0d17b" stroke="#a0d17b" points="366.8722,-763.7105 377.4536,-763.1768 368.8489,-756.9954 366.8722,-763.7105"/>
</g>
<!-- shekels.core&#45;&gt;shekels.core.data_tools -->
<g id="edge35" class="edge">
<title>shekels.core&#45;&gt;shekels.core.data_tools</title>
<path fill="none" stroke="#a0d17b" d="M231.8836,-681.9757C257.5443,-665.6272 297.8426,-642.1356 336,-629 445.0887,-591.4464 479.3251,-610.7988 592,-586 614.3531,-581.0803 638.482,-574.8237 660.2626,-568.814"/>
<polygon fill="#a0d17b" stroke="#a0d17b" points="661.3962,-572.1316 670.0898,-566.0759 659.5173,-565.3884 661.3962,-572.1316"/>
</g>
<!-- shekels.core&#45;&gt;shekels.core.database -->
<g id="edge36" class="edge">
<title>shekels.core&#45;&gt;shekels.core.database</title>
<path fill="none" stroke="#a0d17b" d="M263.2805,-707.9221C285.9468,-710.7922 312.1534,-713.8526 336,-716 528.9948,-733.3795 754.806,-744.4653 884.1038,-749.9314"/>
<polygon fill="#a0d17b" stroke="#a0d17b" points="884.2555,-753.4408 894.3935,-750.3632 884.5491,-746.4469 884.2555,-753.4408"/>
</g>
<!-- jinja2 -->
<g id="node21" class="node">
<title>jinja2</title>
<polygon fill="#343434" stroke="#343434" points="764,-1032 698,-1032 698,-996 764,-996 764,-1032"/>
<text text-anchor="middle" x="731" y="-1010.3" font-family="Courier,monospace" font-size="14.00" fill="#de958e">jinja2</text>
</g>
<!-- jinja2&#45;&gt;shekels.server.server_tools -->
<g id="edge37" class="edge">
<title>jinja2&#45;&gt;shekels.server.server_tools</title>
<path fill="none" stroke="#de958e" d="M764.2817,-1006.5242C784.6263,-1001.6473 811.0598,-994.759 834,-987 870.5158,-974.6493 910.6296,-957.7963 940.9676,-944.3458"/>
<polygon fill="#de958e" stroke="#de958e" points="942.7532,-947.3816 950.4571,-940.1084 939.899,-940.9899 942.7532,-947.3816"/>
</g>
<!-- schematics.exceptions -->
<g id="node22" class="node">
<title>schematics.exceptions</title>
<polygon fill="#343434" stroke="#343434" points="300,-826 110,-826 110,-790 300,-790 300,-826"/>
<text text-anchor="middle" x="205" y="-804.3" font-family="Courier,monospace" font-size="14.00" fill="#de958e">schematics.exceptions</text>
</g>
<!-- schematics.exceptions&#45;&gt;shekels.core.config -->
<g id="edge38" class="edge">
<title>schematics.exceptions&#45;&gt;shekels.core.config</title>
<path fill="none" stroke="#de958e" d="M300.3386,-798.0612C322.2277,-795.7793 345.5192,-793.3513 367.4587,-791.0642"/>
<polygon fill="#de958e" stroke="#de958e" points="367.8508,-794.5423 377.434,-790.0243 367.1249,-787.5801 367.8508,-794.5423"/>
</g>
<!-- schematics.exceptions&#45;&gt;shekels.core.data_tools -->
<g id="edge39" class="edge">
<title>schematics.exceptions&#45;&gt;shekels.core.data_tools</title>
<path fill="none" stroke="#de958e" d="M288.693,-789.9083C292.7658,-787.3188 296.5767,-784.366 300,-781 339.3999,-742.2588 294.3824,-698.3484 336,-662 422.7869,-586.2011 491.1291,-676.7001 592,-621 613.2283,-609.2779 607.6595,-593.2028 628,-580 633.6985,-576.3012 639.8506,-573.008 646.2132,-570.0799"/>
<polygon fill="#de958e" stroke="#de958e" points="647.836,-573.1927 655.6576,-566.0462 645.0865,-566.7553 647.836,-573.1927"/>
</g>
<!-- schematics.exceptions&#45;&gt;shekels.server.api -->
<g id="edge40" class="edge">
<title>schematics.exceptions&#45;&gt;shekels.server.api</title>
<path fill="none" stroke="#de958e" d="M278.8897,-826.0787C286.1628,-828.721 293.3174,-831.6874 300,-835 317.9192,-843.8826 317.0263,-855.6754 336,-862 481.6814,-910.5605 937.1202,-879.0365 1134.6101,-862.4007"/>
<polygon fill="#de958e" stroke="#de958e" points="1135.0061,-865.8797 1144.6745,-861.5469 1134.4144,-858.9048 1135.0061,-865.8797"/>
</g>
<!-- pandas -->
<g id="node23" class="node">
<title>pandas</title>
<polygon fill="#343434" stroke="#343434" points="238,-393 172,-393 172,-357 238,-357 238,-393"/>
<text text-anchor="middle" x="205" y="-371.3" font-family="Courier,monospace" font-size="14.00" fill="#de958e">pandas</text>
</g>
<!-- pandas&#45;&gt;shekels.core.data_tools -->
<g id="edge41" class="edge">
<title>pandas&#45;&gt;shekels.core.data_tools</title>
<path fill="none" stroke="#de958e" d="M238.0325,-376.668C319.6875,-381.1885 528.9752,-395.3099 592,-424 641.5021,-446.5343 685.9562,-492.9809 710.6288,-522.1935"/>
<polygon fill="#de958e" stroke="#de958e" points="707.9747,-524.4761 717.0509,-529.9418 713.3641,-520.0091 707.9747,-524.4761"/>
</g>
<!-- pandas&#45;&gt;shekels.core.database -->
<g id="edge42" class="edge">
<title>pandas&#45;&gt;shekels.core.database</title>
<path fill="none" stroke="#de958e" d="M238.1526,-370.0108C306.0548,-360.9783 465.2296,-345.9171 592,-381 711.7557,-414.1416 760.9242,-420.5026 834,-521 878.9085,-582.7604 824.2834,-627.8354 870,-689 883.9166,-707.6191 904.7966,-721.5294 925.2285,-731.5994"/>
<polygon fill="#de958e" stroke="#de958e" points="924.0165,-734.8963 934.5579,-735.9591 926.98,-728.5546 924.0165,-734.8963"/>
</g>
<!-- pandas&#45;&gt;shekels.enforce.enforce_tools -->
<g id="edge43" class="edge">
<title>pandas&#45;&gt;shekels.enforce.enforce_tools</title>
<path fill="none" stroke="#de958e" d="M238.0656,-368.106C270.6542,-361.3115 322.0395,-350.5979 367.5765,-341.1037"/>
<polygon fill="#de958e" stroke="#de958e" points="368.4211,-344.503 377.4962,-339.0355 366.9923,-337.6503 368.4211,-344.503"/>
</g>
<!-- pandas&#45;&gt;shekels.server.components -->
<g id="edge44" class="edge">
<title>pandas&#45;&gt;shekels.server.components</title>
<path fill="none" stroke="#de958e" d="M238.2896,-373.7107C258.7609,-371.1523 284.0416,-364.5295 300,-348 346.4197,-299.919 283.3888,-243.2144 336,-202 380.7836,-166.9176 540.4545,-177.9291 592,-202 614.5835,-212.5461 606.3093,-232.722 628,-245 629.3475,-245.7627 763.2379,-266.7539 867.6668,-283.0418"/>
<polygon fill="#de958e" stroke="#de958e" points="867.2555,-286.5199 877.6754,-284.6026 868.3341,-279.6035 867.2555,-286.5199"/>
</g>
<!-- lunchbox.tools -->
<g id="node24" class="node">
<title>lunchbox.tools</title>
<polygon fill="#343434" stroke="#343434" points="530,-945 398,-945 398,-909 530,-909 530,-945"/>
<text text-anchor="middle" x="464" y="-923.3" font-family="Courier,monospace" font-size="14.00" fill="#de958e">lunchbox.tools</text>
</g>
<!-- lunchbox.tools&#45;&gt;shekels.core.data_tools -->
<g id="edge45" class="edge">
<title>lunchbox.tools&#45;&gt;shekels.core.data_tools</title>
<path fill="none" stroke="#de958e" d="M527.1467,-908.8756C551.0782,-898.8582 576.3109,-883.8721 592,-862 657.1745,-771.1408 567.1228,-706.7928 628,-613 639.6739,-595.0141 658.261,-581.0782 676.4527,-570.8058"/>
<polygon fill="#de958e" stroke="#de958e" points="678.1575,-573.8632 685.3194,-566.0557 674.8518,-567.6929 678.1575,-573.8632"/>
</g>
<!-- lunchbox.tools&#45;&gt;shekels.server.server_tools -->
<g id="edge46" class="edge">
<title>lunchbox.tools&#45;&gt;shekels.server.server_tools</title>
<path fill="none" stroke="#de958e" d="M530.0228,-926.3718C612.3237,-925.5887 754.878,-924.2324 859.4308,-923.2376"/>
<polygon fill="#de958e" stroke="#de958e" points="859.7793,-926.7345 869.7455,-923.1394 859.7126,-919.7348 859.7793,-926.7345"/>
</g>
<!-- pandasql -->
<g id="node25" class="node">
<title>pandasql</title>
<polygon fill="#343434" stroke="#343434" points="505.5,-853 422.5,-853 422.5,-817 505.5,-817 505.5,-853"/>
<text text-anchor="middle" x="464" y="-831.3" font-family="Courier,monospace" font-size="14.00" fill="#de958e">pandasql</text>
</g>
<!-- pandasql&#45;&gt;shekels.core.data_tools -->
<g id="edge47" class="edge">
<title>pandasql&#45;&gt;shekels.core.data_tools</title>
<path fill="none" stroke="#de958e" d="M505.6571,-837.4081C533.8616,-836.6639 569.8828,-830.6846 592,-808 653.5239,-744.8976 578.5869,-685.9757 628,-613 640.1241,-595.0946 658.9984,-581.122 677.2951,-570.7974"/>
<polygon fill="#de958e" stroke="#de958e" points="679.0413,-573.8325 686.1986,-566.0208 675.732,-567.6641 679.0413,-573.8325"/>
</g>
<!-- pandasql&#45;&gt;shekels.server.api -->
<g id="edge48" class="edge">
<title>pandasql&#45;&gt;shekels.server.api</title>
<path fill="none" stroke="#de958e" d="M505.5913,-836.035C624.4635,-838.9932 967.814,-847.5376 1134.5058,-851.6858"/>
<polygon fill="#de958e" stroke="#de958e" points="1134.656,-855.1905 1144.74,-851.9405 1134.8302,-848.1927 1134.656,-855.1905"/>
</g>
<!-- lunchbox.enforce -->
<g id="node26" class="node">
<title>lunchbox.enforce</title>
<polygon fill="#343434" stroke="#343434" points="279.5,-285 130.5,-285 130.5,-249 279.5,-249 279.5,-285"/>
<text text-anchor="middle" x="205" y="-263.3" font-family="Courier,monospace" font-size="14.00" fill="#de958e">lunchbox.enforce</text>
</g>
<!-- lunchbox.enforce&#45;&gt;shekels.core.data_tools -->
<g id="edge49" class="edge">
<title>lunchbox.enforce&#45;&gt;shekels.core.data_tools</title>
<path fill="none" stroke="#de958e" d="M279.7222,-263.9054C377.4261,-261.2509 542.0263,-261.9781 592,-294 674.1365,-346.631 711.6211,-465.4285 724.9514,-519.8322"/>
<polygon fill="#de958e" stroke="#de958e" points="721.6032,-520.8837 727.3015,-529.8157 728.4169,-519.2797 721.6032,-520.8837"/>
</g>
<!-- lunchbox.enforce&#45;&gt;shekels.enforce.enforce_tools -->
<g id="edge50" class="edge">
<title>lunchbox.enforce&#45;&gt;shekels.enforce.enforce_tools</title>
<path fill="none" stroke="#de958e" d="M279.5661,-282.5466C306.9704,-288.2602 338.4035,-294.8139 367.4641,-300.8728"/>
<polygon fill="#de958e" stroke="#de958e" points="367.1298,-304.3783 377.6337,-302.9931 368.5586,-297.5257 367.1298,-304.3783"/>
</g>
<!-- lunchbox.enforce&#45;&gt;shekels.server.components -->
<g id="edge51" class="edge">
<title>lunchbox.enforce&#45;&gt;shekels.server.components</title>
<path fill="none" stroke="#de958e" d="M221.4868,-248.8932C244.4362,-225.1821 288.5667,-184.7789 336,-169 388.5557,-151.5171 788.8231,-158.9562 834,-191 865.4719,-213.3229 840.5492,-245.0713 870,-270 873.9958,-273.3823 878.3141,-276.4106 882.8572,-279.1217"/>
<polygon fill="#de958e" stroke="#de958e" points="881.3802,-282.3013 891.8454,-283.9539 884.6949,-276.1358 881.3802,-282.3013"/>
</g>
<!-- jsoncomment -->
<g id="node27" class="node">
<title>jsoncomment</title>
<polygon fill="#343434" stroke="#343434" points="784.5,-978 677.5,-978 677.5,-942 784.5,-942 784.5,-978"/>
<text text-anchor="middle" x="731" y="-956.3" font-family="Courier,monospace" font-size="14.00" fill="#de958e">jsoncomment</text>
</g>
<!-- jsoncomment&#45;&gt;shekels.core.database -->
<g id="edge52" class="edge">
<title>jsoncomment&#45;&gt;shekels.core.database</title>
<path fill="none" stroke="#de958e" d="M753.9402,-941.7189C800.5039,-904.612 906.1315,-820.4368 958.6547,-778.5807"/>
<polygon fill="#de958e" stroke="#de958e" points="960.972,-781.2095 966.6113,-772.2402 956.6095,-775.7352 960.972,-781.2095"/>
</g>
<!-- jsoncomment&#45;&gt;shekels.server.app -->
<g id="edge53" class="edge">
<title>jsoncomment&#45;&gt;shekels.server.app</title>
<path fill="none" stroke="#de958e" d="M784.7556,-973.3439C895.0584,-997.3703 1150.0244,-1035.2723 1310,-919 1381.285,-867.1892 1412.1524,-760.2844 1423.2397,-709.2783"/>
<polygon fill="#de958e" stroke="#de958e" points="1426.709,-709.785 1425.3127,-699.2825 1419.8548,-708.3634 1426.709,-709.785"/>
</g>
<!-- jsoncomment&#45;&gt;shekels.server.server_tools -->
<g id="edge54" class="edge">
<title>jsoncomment&#45;&gt;shekels.server.server_tools</title>
<path fill="none" stroke="#de958e" d="M784.5614,-952.1264C806.5914,-948.8879 833.1509,-944.9836 859.7392,-941.0751"/>
<polygon fill="#de958e" stroke="#de958e" points="860.5369,-944.4955 869.9215,-939.5783 859.5188,-937.57 860.5369,-944.4955"/>
</g>
<!-- cufflinks -->
<g id="node28" class="node">
<title>cufflinks</title>
<polygon fill="#343434" stroke="#343434" points="509.5,-577 418.5,-577 418.5,-541 509.5,-541 509.5,-577"/>
<text text-anchor="middle" x="464" y="-555.3" font-family="Courier,monospace" font-size="14.00" fill="#de958e">cufflinks</text>
</g>
<!-- cufflinks&#45;&gt;shekels.core.data_tools -->
<g id="edge55" class="edge">
<title>cufflinks&#45;&gt;shekels.core.data_tools</title>
<path fill="none" stroke="#de958e" d="M509.5956,-557.1215C539.4014,-555.8936 579.7311,-554.2321 617.8046,-552.6635"/>
<polygon fill="#de958e" stroke="#de958e" points="618.101,-556.1543 627.9484,-552.2456 617.8128,-549.1603 618.101,-556.1543"/>
</g>
<!-- numpy -->
<g id="node29" class="node">
<title>numpy</title>
<polygon fill="#343434" stroke="#343434" points="493,-707 435,-707 435,-671 493,-671 493,-707"/>
<text text-anchor="middle" x="464" y="-685.3" font-family="Courier,monospace" font-size="14.00" fill="#de958e">numpy</text>
</g>
<!-- numpy&#45;&gt;shekels.core.data_tools -->
<g id="edge56" class="edge">
<title>numpy&#45;&gt;shekels.core.data_tools</title>
<path fill="none" stroke="#de958e" d="M493.0984,-688.6746C521.3228,-686.8961 563.8925,-680.1612 592,-657 621.1547,-632.9758 599.5323,-604.8345 628,-580 631.8693,-576.6245 636.0915,-573.605 640.5466,-570.9039"/>
<polygon fill="#de958e" stroke="#de958e" points="642.2661,-573.9529 649.3696,-566.0922 638.9145,-567.8073 642.2661,-573.9529"/>
</g>
<!-- numpy&#45;&gt;shekels.core.database -->
<g id="edge57" class="edge">
<title>numpy&#45;&gt;shekels.core.database</title>
<path fill="none" stroke="#de958e" d="M493.1039,-688.0554C555.9697,-686.5799 708.8817,-686.038 834,-710 850.5644,-713.1723 853.847,-717.1499 870,-722 882.6218,-725.7898 896.0582,-729.6013 909.1936,-733.2063"/>
<polygon fill="#de958e" stroke="#de958e" points="908.593,-736.6701 919.1612,-735.9191 910.4313,-729.9158 908.593,-736.6701"/>
</g>
<!-- schematics.models -->
<g id="node30" class="node">
<title>schematics.models</title>
<polygon fill="#343434" stroke="#343434" points="283.5,-772 126.5,-772 126.5,-736 283.5,-736 283.5,-772"/>
<text text-anchor="middle" x="205" y="-750.3" font-family="Courier,monospace" font-size="14.00" fill="#de958e">schematics.models</text>
</g>
<!-- schematics.models&#45;&gt;shekels.core.config -->
<g id="edge58" class="edge">
<title>schematics.models&#45;&gt;shekels.core.config</title>
<path fill="none" stroke="#de958e" d="M283.7634,-762.2109C310.1406,-764.9606 339.8536,-768.0581 367.4322,-770.9331"/>
<polygon fill="#de958e" stroke="#de958e" points="367.177,-774.4254 377.486,-771.9812 367.9028,-767.4631 367.177,-774.4254"/>
</g>
<!-- schematics.types -->
<g id="node31" class="node">
<title>schematics.types</title>
<polygon fill="#343434" stroke="#343434" points="279.5,-880 130.5,-880 130.5,-844 279.5,-844 279.5,-880"/>
<text text-anchor="middle" x="205" y="-858.3" font-family="Courier,monospace" font-size="14.00" fill="#de958e">schematics.types</text>
</g>
<!-- schematics.types&#45;&gt;shekels.core.config -->
<g id="edge59" class="edge">
<title>schematics.types&#45;&gt;shekels.core.config</title>
<path fill="none" stroke="#de958e" d="M278.8897,-843.9213C286.1628,-841.279 293.3174,-838.3126 300,-835 317.9192,-826.1174 317.785,-816.2591 336,-808 345.8978,-803.5121 356.5675,-799.7587 367.3749,-796.6218"/>
<polygon fill="#de958e" stroke="#de958e" points="368.5929,-799.9176 377.3206,-793.9111 366.7521,-793.164 368.5929,-799.9176"/>
</g>
<!-- pyparsing -->
<g id="node32" class="node">
<title>pyparsing</title>
<polygon fill="#343434" stroke="#343434" points="509.5,-523 418.5,-523 418.5,-487 509.5,-487 509.5,-523"/>
<text text-anchor="middle" x="464" y="-501.3" font-family="Courier,monospace" font-size="14.00" fill="#de958e">pyparsing</text>
</g>
<!-- pyparsing&#45;&gt;shekels.core.data_tools -->
<g id="edge60" class="edge">
<title>pyparsing&#45;&gt;shekels.core.data_tools</title>
<path fill="none" stroke="#de958e" d="M509.5956,-512.3431C539.4014,-517.1433 579.7311,-523.6383 617.8046,-529.77"/>
<polygon fill="#de958e" stroke="#de958e" points="617.5191,-533.2691 627.9484,-531.4037 618.6321,-526.3581 617.5191,-533.2691"/>
</g>
<!-- rolling_pin.blob_etl -->
<g id="node33" class="node">
<title>rolling_pin.blob_etl</title>
<polygon fill="#343434" stroke="#343434" points="555,-247 373,-247 373,-211 555,-211 555,-247"/>
<text text-anchor="middle" x="464" y="-225.3" font-family="Courier,monospace" font-size="14.00" fill="#de958e">rolling_pin.blob_etl</text>
</g>
<!-- rolling_pin.blob_etl&#45;&gt;shekels.core.data_tools -->
<g id="edge61" class="edge">
<title>rolling_pin.blob_etl&#45;&gt;shekels.core.data_tools</title>
<path fill="none" stroke="#de958e" d="M555.1153,-241.1925C568.4244,-245.8645 581.245,-252.2605 592,-261 614.0115,-278.8865 689.8496,-452.0362 719.2363,-520.4192"/>
<polygon fill="#de958e" stroke="#de958e" points="716.0655,-521.9059 723.2231,-529.7174 722.499,-519.1473 716.0655,-521.9059"/>
</g>
<!-- rolling_pin.blob_etl&#45;&gt;shekels.server.components -->
<g id="edge62" class="edge">
<title>rolling_pin.blob_etl&#45;&gt;shekels.server.components</title>
<path fill="none" stroke="#de958e" d="M546.3127,-247.0392C561.6583,-251.1158 577.4394,-255.7989 592,-261 608.6631,-266.9521 610.8723,-273.5584 628,-278 706.0513,-298.2407 796.5832,-304.2281 867.5236,-305.1617"/>
<polygon fill="#de958e" stroke="#de958e" points="867.8101,-308.6646 877.8443,-305.2638 867.8795,-301.6649 867.8101,-308.6646"/>
</g>
<!-- webcolors -->
<g id="node34" class="node">
<title>webcolors</title>
<polygon fill="#343434" stroke="#343434" points="509.5,-469 418.5,-469 418.5,-433 509.5,-433 509.5,-469"/>
<text text-anchor="middle" x="464" y="-447.3" font-family="Courier,monospace" font-size="14.00" fill="#de958e">webcolors</text>
</g>
<!-- webcolors&#45;&gt;shekels.core.data_tools -->
<g id="edge63" class="edge">
<title>webcolors&#45;&gt;shekels.core.data_tools</title>
<path fill="none" stroke="#de958e" d="M509.5026,-457.6484C534.3134,-462.0033 565.3169,-468.645 592,-478 627.1638,-490.3283 664.7805,-509.6885 692.0024,-524.9265"/>
<polygon fill="#de958e" stroke="#de958e" points="690.3911,-528.0362 700.8172,-529.92 693.8415,-521.9456 690.3911,-528.0362"/>
</g>
<!-- flasgger -->
<g id="node35" class="node">
<title>flasgger</title>
<polygon fill="#343434" stroke="#343434" points="1031,-680 948,-680 948,-644 1031,-644 1031,-680"/>
<text text-anchor="middle" x="989.5" y="-658.3" font-family="Courier,monospace" font-size="14.00" fill="#de958e">flasgger</text>
</g>
<!-- flasgger&#45;&gt;shekels.server.api -->
<g id="edge64" class="edge">
<title>flasgger&#45;&gt;shekels.server.api</title>
<path fill="none" stroke="#de958e" d="M1031.1677,-663.0291C1056.8359,-665.8621 1088.6221,-673.6771 1109,-694 1152.3604,-737.2435 1102.8371,-782.5881 1145,-827 1145.9047,-827.9529 1146.8434,-828.8723 1147.8128,-829.7592"/>
<polygon fill="#de958e" stroke="#de958e" points="1145.7428,-832.583 1155.7905,-835.9437 1150.0316,-827.0507 1145.7428,-832.583"/>
</g>
<!-- flasgger&#45;&gt;shekels.server.app -->
<g id="edge65" class="edge">
<title>flasgger&#45;&gt;shekels.server.app</title>
<path fill="none" stroke="#de958e" d="M1031.1958,-663.8046C1100.6839,-666.8121 1241.804,-672.9198 1335.7676,-676.9865"/>
<polygon fill="#de958e" stroke="#de958e" points="1335.7034,-680.4869 1345.8454,-677.4227 1336.0061,-673.4935 1335.7034,-680.4869"/>
</g>
<!-- flask_caching -->
<g id="node36" class="node">
<title>flask_caching</title>
<polygon fill="#343434" stroke="#343434" points="1289.5,-152 1165.5,-152 1165.5,-116 1289.5,-116 1289.5,-152"/>
<text text-anchor="middle" x="1227.5" y="-130.3" font-family="Courier,monospace" font-size="14.00" fill="#de958e">flask_caching</text>
</g>
<!-- flask_caching&#45;&gt;shekels.server.app -->
<g id="edge66" class="edge">
<title>flask_caching&#45;&gt;shekels.server.app</title>
<path fill="none" stroke="#de958e" d="M1289.5743,-150.1657C1297.2548,-154.3051 1304.3696,-159.4953 1310,-166 1374.8264,-240.8933 1414.6004,-555.8383 1425.4637,-652.6002"/>
<polygon fill="#de958e" stroke="#de958e" points="1422.0124,-653.2346 1426.5906,-662.7892 1428.97,-652.465 1422.0124,-653.2346"/>
</g>
</g>
</svg>
