<?xml version="1.0" encoding="UTF-8" standalone="no"?>
<!DOCTYPE svg PUBLIC "-//W3C//DTD SVG 1.1//EN"
 "http://www.w3.org/Graphics/SVG/1.1/DTD/svg11.dtd">
<!-- Generated by graphviz version 2.40.1 (20161225.0304)
 -->
<!-- Title: %3 Pages: 1 -->
<svg width="2084pt" height="1330pt"
 viewBox="0.00 0.00 2084.00 1330.34" xmlns="http://www.w3.org/2000/svg" xmlns:xlink="http://www.w3.org/1999/xlink">
<g id="graph0" class="graph" transform="scale(1 1) rotate(0) translate(4 1326.341)">
<title>%3</title>
<polygon fill="#242424" stroke="transparent" points="-4,4 -4,-1326.341 2080,-1326.341 2080,4 -4,4"/>
<!-- cli -->
<g id="node1" class="node">
<title>cli</title>
<polygon fill="#343434" stroke="#343434" points="171.5,-831 117.5,-831 117.5,-795 171.5,-795 171.5,-831"/>
<text text-anchor="middle" x="144.5" y="-809.3" font-family="Courier,monospace" font-size="14.00" fill="#b6ecf3">cli</text>
</g>
<!-- shekels.core.config -->
<g id="node2" class="node">
<title>shekels.core.config</title>
<polygon fill="#343434" stroke="#343434" points="765.5,-257 592.5,-257 592.5,-221 765.5,-221 765.5,-257"/>
<text text-anchor="middle" x="679" y="-235.3" font-family="Courier,monospace" font-size="14.00" fill="#b6ecf3">shekels.core.config</text>
</g>
<!-- shekels.core.data_tools -->
<g id="node3" class="node">
<title>shekels.core.data_tools</title>
<polygon fill="#343434" stroke="#343434" points="1049,-549 843,-549 843,-513 1049,-513 1049,-549"/>
<text text-anchor="middle" x="946" y="-527.3" font-family="Courier,monospace" font-size="14.00" fill="#b6ecf3">shekels.core.data_tools</text>
</g>
<!-- shekels.core.config&#45;&gt;shekels.core.data_tools -->
<g id="edge1" class="edge">
<title>shekels.core.config&#45;&gt;shekels.core.data_tools</title>
<path fill="none" stroke="#b6ecf3" d="M729.7609,-257.0946C755.0371,-267.9004 784.8444,-283.5406 807,-304 870.5746,-362.7076 915.5161,-456.9883 935.0674,-503.3874"/>
<polygon fill="#b6ecf3" stroke="#b6ecf3" points="931.902,-504.8916 938.9584,-512.7946 938.3705,-502.2161 931.902,-504.8916"/>
</g>
<!-- shekels.core.database -->
<g id="node4" class="node">
<title>shekels.core.database</title>
<polygon fill="#343434" stroke="#343434" points="1308,-343 1118,-343 1118,-307 1308,-307 1308,-343"/>
<text text-anchor="middle" x="1213" y="-321.3" font-family="Courier,monospace" font-size="14.00" fill="#b6ecf3">shekels.core.database</text>
</g>
<!-- shekels.core.config&#45;&gt;shekels.core.database -->
<g id="edge2" class="edge">
<title>shekels.core.config&#45;&gt;shekels.core.database</title>
<path fill="none" stroke="#b6ecf3" d="M765.5833,-236.1767C841.9313,-236.1425 955.2945,-242.137 1049,-272 1066.6487,-277.6245 1067.8433,-286.0172 1085,-293 1095.0711,-297.0989 1105.8082,-300.778 1116.6182,-304.052"/>
<polygon fill="#b6ecf3" stroke="#b6ecf3" points="1115.9693,-307.5084 1126.5492,-306.9453 1117.9273,-300.7878 1115.9693,-307.5084"/>
</g>
<!-- shekels.server.app -->
<g id="node7" class="node">
<title>shekels.server.app</title>
<polygon fill="#343434" stroke="#343434" points="2076,-792 1911,-792 1911,-756 2076,-756 2076,-792"/>
<text text-anchor="middle" x="1993.5" y="-770.3" font-family="Courier,monospace" font-size="14.00" fill="#b6ecf3">shekels.server.app</text>
</g>
<!-- shekels.core.config&#45;&gt;shekels.server.app -->
<g id="edge3" class="edge">
<title>shekels.core.config&#45;&gt;shekels.server.app</title>
<path fill="none" stroke="#b6ecf3" d="M700.0357,-220.9276C729.6502,-196.7197 786.3708,-154.7569 843,-137 1000.118,-87.7332 1048.3389,-118 1213,-118 1213,-118 1213,-118 1496.5,-118 1666.1837,-118 1751.3677,-51.7778 1875,-168 1960.8024,-248.6598 1986.6103,-637.217 1992.2036,-745.7741"/>
<polygon fill="#b6ecf3" stroke="#b6ecf3" points="1988.717,-746.1307 1992.71,-755.9442 1995.7083,-745.7825 1988.717,-746.1307"/>
</g>
<!-- shekels.server.components -->
<g id="node8" class="node">
<title>shekels.server.components</title>
<polygon fill="#343434" stroke="#343434" points="1324.5,-885 1101.5,-885 1101.5,-849 1324.5,-849 1324.5,-885"/>
<text text-anchor="middle" x="1213" y="-863.3" font-family="Courier,monospace" font-size="14.00" fill="#b6ecf3">shekels.server.components</text>
</g>
<!-- shekels.core.config&#45;&gt;shekels.server.components -->
<g id="edge4" class="edge">
<title>shekels.core.config&#45;&gt;shekels.server.components</title>
<path fill="none" stroke="#b6ecf3" d="M727.0488,-257.0264C809.8408,-290.9685 977.3824,-372.9609 1049,-504 1112.9799,-621.0645 1008.5129,-692.6965 1085,-802 1098.381,-821.122 1119.0995,-834.9519 1139.9971,-844.8027"/>
<polygon fill="#b6ecf3" stroke="#b6ecf3" points="1138.7033,-848.0577 1149.2631,-848.9188 1141.5451,-841.6605 1138.7033,-848.0577"/>
</g>
<!-- shekels.server.server_tools -->
<g id="node10" class="node">
<title>shekels.server.server_tools</title>
<polygon fill="#343434" stroke="#343434" points="1616,-690 1377,-690 1377,-654 1616,-654 1616,-690"/>
<text text-anchor="middle" x="1496.5" y="-668.3" font-family="Courier,monospace" font-size="14.00" fill="#b6ecf3">shekels.server.server_tools</text>
</g>
<!-- shekels.core.config&#45;&gt;shekels.server.server_tools -->
<g id="edge5" class="edge">
<title>shekels.core.config&#45;&gt;shekels.server.server_tools</title>
<path fill="none" stroke="#b6ecf3" d="M765.7527,-255.5278C874.1349,-276.2267 1045.8964,-309.218 1049,-311 1070.0297,-323.0748 1066.4778,-336.3482 1085,-352 1187.1237,-438.2977 1236.9869,-425.9892 1341,-510 1393.5622,-552.4542 1446.2256,-611.675 1474.7622,-645.5022"/>
<polygon fill="#b6ecf3" stroke="#b6ecf3" points="1472.3796,-648.1087 1481.4827,-653.5296 1477.747,-643.6152 1472.3796,-648.1087"/>
</g>
<!-- shekels.core.data_tools&#45;&gt;shekels.core.database -->
<g id="edge6" class="edge">
<title>shekels.core.data_tools&#45;&gt;shekels.core.database</title>
<path fill="none" stroke="#b6ecf3" d="M969.6945,-512.7189C1017.7893,-475.612 1126.8902,-391.4368 1181.1405,-349.5807"/>
<polygon fill="#b6ecf3" stroke="#b6ecf3" points="1183.5792,-352.1199 1189.3586,-343.2402 1179.3032,-346.5777 1183.5792,-352.1199"/>
</g>
<!-- shekels.core.data_tools&#45;&gt;shekels.server.components -->
<g id="edge7" class="edge">
<title>shekels.core.data_tools&#45;&gt;shekels.server.components</title>
<path fill="none" stroke="#b6ecf3" d="M957.7665,-549.3171C977.9541,-581.1821 1019.8286,-649.2339 1049,-710 1068.0022,-749.583 1055.4924,-769.4854 1085,-802 1101.854,-820.5716 1125.2347,-834.586 1147.4072,-844.7565"/>
<polygon fill="#b6ecf3" stroke="#b6ecf3" points="1146.2495,-848.0705 1156.8132,-848.882 1149.0612,-841.66 1146.2495,-848.0705"/>
</g>
<!-- shekels.core.data_tools&#45;&gt;shekels.server.server_tools -->
<g id="edge8" class="edge">
<title>shekels.core.data_tools&#45;&gt;shekels.server.server_tools</title>
<path fill="none" stroke="#b6ecf3" d="M1049.3078,-517.8994C1131.1047,-511.5571 1246.8557,-511.6942 1341,-547 1396.0774,-567.655 1446.5113,-615.9144 1474.2246,-646.0644"/>
<polygon fill="#b6ecf3" stroke="#b6ecf3" points="1471.7992,-648.601 1481.097,-653.6807 1476.9963,-643.9116 1471.7992,-648.601"/>
</g>
<!-- shekels.server.api -->
<g id="node6" class="node">
<title>shekels.server.api</title>
<polygon fill="#343434" stroke="#343434" points="1846,-484 1681,-484 1681,-448 1846,-448 1846,-484"/>
<text text-anchor="middle" x="1763.5" y="-462.3" font-family="Courier,monospace" font-size="14.00" fill="#b6ecf3">shekels.server.api</text>
</g>
<!-- shekels.core.database&#45;&gt;shekels.server.api -->
<g id="edge9" class="edge">
<title>shekels.core.database&#45;&gt;shekels.server.api</title>
<path fill="none" stroke="#b6ecf3" d="M1308.1929,-318.0799C1391.9262,-315.3326 1515.7465,-319.513 1616,-357 1664.7977,-375.2465 1711.471,-414.6943 1738.8023,-440.7892"/>
<polygon fill="#b6ecf3" stroke="#b6ecf3" points="1736.3726,-443.3085 1745.9839,-447.7665 1741.2505,-438.2878 1736.3726,-443.3085"/>
</g>
<!-- shekels.enforce.enforce_tools -->
<g id="node5" class="node">
<title>shekels.enforce.enforce_tools</title>
<polygon fill="#343434" stroke="#343434" points="807,-885 551,-885 551,-849 807,-849 807,-885"/>
<text text-anchor="middle" x="679" y="-863.3" font-family="Courier,monospace" font-size="14.00" fill="#b6ecf3">shekels.enforce.enforce_tools</text>
</g>
<!-- shekels.enforce.enforce_tools&#45;&gt;shekels.core.data_tools -->
<g id="edge10" class="edge">
<title>shekels.enforce.enforce_tools&#45;&gt;shekels.core.data_tools</title>
<path fill="none" stroke="#b6ecf3" d="M709.2808,-848.8815C738.4032,-829.9528 781.6377,-797.6521 807,-759 837.5474,-712.4457 815.0155,-687.1385 843,-639 861.8705,-606.5393 892.3818,-576.2216 915.3081,-556.0223"/>
<polygon fill="#b6ecf3" stroke="#b6ecf3" points="917.7935,-558.5003 923.0696,-549.3127 913.2156,-553.2048 917.7935,-558.5003"/>
</g>
<!-- shekels.server.api&#45;&gt;shekels.server.app -->
<g id="edge11" class="edge">
<title>shekels.server.api&#45;&gt;shekels.server.app</title>
<path fill="none" stroke="#b6ecf3" d="M1777.1988,-484.3444C1816.1889,-536.5573 1927.8957,-686.1473 1973.6218,-747.3805"/>
<polygon fill="#b6ecf3" stroke="#b6ecf3" points="1971.0853,-749.8334 1979.873,-755.7517 1976.694,-745.645 1971.0853,-749.8334"/>
</g>
<!-- shekels.server.components&#45;&gt;shekels.server.app -->
<g id="edge12" class="edge">
<title>shekels.server.components&#45;&gt;shekels.server.app</title>
<path fill="none" stroke="#b6ecf3" d="M1324.7321,-875.8336C1458.1542,-883.1538 1686.8911,-885.4131 1875,-835 1904.5963,-827.0682 1935.281,-811.0204 1958.0091,-797.3752"/>
<polygon fill="#b6ecf3" stroke="#b6ecf3" points="1959.9252,-800.3059 1966.6183,-792.0929 1956.2644,-794.3395 1959.9252,-800.3059"/>
</g>
<!-- shekels.server.components&#45;&gt;shekels.server.server_tools -->
<g id="edge13" class="edge">
<title>shekels.server.components&#45;&gt;shekels.server.server_tools</title>
<path fill="none" stroke="#b6ecf3" d="M1254.3796,-848.9085C1280.1129,-836.9565 1313.4334,-820.1831 1341,-802 1389.5352,-769.986 1440.1981,-725.1404 1470.0223,-697.3646"/>
<polygon fill="#b6ecf3" stroke="#b6ecf3" points="1472.603,-699.7427 1477.5021,-690.3486 1467.8141,-694.6372 1472.603,-699.7427"/>
</g>
<!-- shekels.server.event_listener -->
<g id="node9" class="node">
<title>shekels.server.event_listener</title>
<polygon fill="#343434" stroke="#343434" points="1341,-1205 1085,-1205 1085,-1169 1341,-1169 1341,-1205"/>
<text text-anchor="middle" x="1213" y="-1183.3" font-family="Courier,monospace" font-size="14.00" fill="#b6ecf3">shekels.server.event_listener</text>
</g>
<!-- shekels.server.event_listener&#45;&gt;shekels.server.app -->
<g id="edge14" class="edge">
<title>shekels.server.event_listener&#45;&gt;shekels.server.app</title>
<path fill="none" stroke="#b6ecf3" d="M1341.2868,-1197.619C1510.0475,-1208.8068 1794.6477,-1217.2048 1875,-1155 1932.5331,-1110.4607 1975.4373,-882.4708 1988.981,-802.0925"/>
<polygon fill="#b6ecf3" stroke="#b6ecf3" points="1992.4401,-802.6271 1990.6264,-792.1887 1985.5347,-801.4799 1992.4401,-802.6271"/>
</g>
<!-- shekels.server.server_tools&#45;&gt;shekels.server.api -->
<g id="edge15" class="edge">
<title>shekels.server.server_tools&#45;&gt;shekels.server.api</title>
<path fill="none" stroke="#b6ecf3" d="M1520.1945,-653.7189C1568.2893,-616.612 1677.3902,-532.4368 1731.6405,-490.5807"/>
<polygon fill="#b6ecf3" stroke="#b6ecf3" points="1734.0792,-493.1199 1739.8586,-484.2402 1729.8032,-487.5777 1734.0792,-493.1199"/>
</g>
<!-- shekels.server.server_tools&#45;&gt;shekels.server.app -->
<g id="edge16" class="edge">
<title>shekels.server.server_tools&#45;&gt;shekels.server.app</title>
<path fill="none" stroke="#b6ecf3" d="M1584.2096,-690.0008C1673.1163,-708.2472 1810.1443,-736.3697 1900.8013,-754.9753"/>
<polygon fill="#b6ecf3" stroke="#b6ecf3" points="1900.2968,-758.4446 1910.7963,-757.0266 1901.7041,-751.5876 1900.2968,-758.4446"/>
</g>
<!-- dash.dependencies -->
<g id="node11" class="node">
<title>dash.dependencies</title>
<polygon fill="#343434" stroke="#343434" points="1842,-213 1685,-213 1685,-177 1842,-177 1842,-213"/>
<text text-anchor="middle" x="1763.5" y="-191.3" font-family="Courier,monospace" font-size="14.00" fill="#de958e">dash.dependencies</text>
</g>
<!-- dash.dependencies&#45;&gt;shekels.server.app -->
<g id="edge17" class="edge">
<title>dash.dependencies&#45;&gt;shekels.server.app</title>
<path fill="none" stroke="#de958e" d="M1842.1474,-205.8982C1854.4639,-210.6757 1866.0548,-217.4427 1875,-227 1947.2327,-304.1757 1982.2799,-645.2762 1991.1741,-745.9413"/>
<polygon fill="#de958e" stroke="#de958e" points="1987.6922,-746.3027 1992.0427,-755.9631 1994.666,-745.6982 1987.6922,-746.3027"/>
</g>
<!-- flasgger -->
<g id="node12" class="node">
<title>flasgger</title>
<polygon fill="#343434" stroke="#343434" points="1538,-305 1455,-305 1455,-269 1538,-269 1538,-305"/>
<text text-anchor="middle" x="1496.5" y="-283.3" font-family="Courier,monospace" font-size="14.00" fill="#de958e">flasgger</text>
</g>
<!-- flasgger&#45;&gt;shekels.server.api -->
<g id="edge18" class="edge">
<title>flasgger&#45;&gt;shekels.server.api</title>
<path fill="none" stroke="#de958e" d="M1538.0958,-291.1777C1562.4909,-295.2427 1592.9466,-303.2485 1616,-319 1638.3126,-334.2453 1633.7446,-348.0748 1652,-368 1676.9178,-395.1971 1708.8253,-422.6155 1732.1182,-441.5067"/>
<polygon fill="#de958e" stroke="#de958e" points="1729.985,-444.2825 1739.9723,-447.8188 1734.3701,-438.8262 1729.985,-444.2825"/>
</g>
<!-- flasgger&#45;&gt;shekels.server.app -->
<g id="edge19" class="edge">
<title>flasgger&#45;&gt;shekels.server.app</title>
<path fill="none" stroke="#de958e" d="M1538.0506,-291.6508C1615.9367,-302.6172 1784.1972,-337.3319 1875,-439 1956.9915,-530.8024 1983.1587,-682.996 1990.714,-745.6824"/>
<polygon fill="#de958e" stroke="#de958e" points="1987.2764,-746.4316 1991.8816,-755.9732 1994.2318,-745.6424 1987.2764,-746.4316"/>
</g>
<!-- shekels.server -->
<g id="node13" class="node">
<title>shekels.server</title>
<polygon fill="#343434" stroke="#343434" points="1012,-1107 880,-1107 880,-1071 1012,-1071 1012,-1107"/>
<text text-anchor="middle" x="946" y="-1085.3" font-family="Courier,monospace" font-size="14.00" fill="#a0d17b">shekels.server</text>
</g>
<!-- shekels.server&#45;&gt;shekels.server.api -->
<g id="edge20" class="edge">
<title>shekels.server&#45;&gt;shekels.server.api</title>
<path fill="none" stroke="#a0d17b" d="M1012.2624,-1078.7051C1094.1771,-1063.7765 1235.648,-1030.6569 1341,-967 1548.229,-841.7858 1702.8761,-578.5636 1749.1694,-493.2896"/>
<polygon fill="#a0d17b" stroke="#a0d17b" points="1752.3815,-494.7062 1754.0357,-484.2413 1746.2166,-491.3905 1752.3815,-494.7062"/>
</g>
<!-- shekels.server&#45;&gt;shekels.server.app -->
<g id="edge21" class="edge">
<title>shekels.server&#45;&gt;shekels.server.app</title>
<path fill="none" stroke="#a0d17b" d="M1012.1756,-1100.0481C1176.4303,-1123.6232 1608.7047,-1161.6657 1875,-963 1931.4944,-920.8532 1967.5532,-843.1114 1983.6802,-801.6856"/>
<polygon fill="#a0d17b" stroke="#a0d17b" points="1986.9964,-802.8111 1987.2631,-792.2196 1980.4497,-800.3331 1986.9964,-802.8111"/>
</g>
<!-- shekels.server&#45;&gt;shekels.server.components -->
<g id="edge22" class="edge">
<title>shekels.server&#45;&gt;shekels.server.components</title>
<path fill="none" stroke="#a0d17b" d="M1012.1784,-1082.9064C1025.8833,-1078.79 1039.133,-1072.2595 1049,-1062 1100.4276,-1008.5267 1033.2687,-952.1796 1085,-899 1088.0097,-895.906 1091.2699,-893.0941 1094.7273,-890.5396"/>
<polygon fill="#a0d17b" stroke="#a0d17b" points="1096.6822,-893.4431 1103.1277,-885.0344 1092.8452,-887.5884 1096.6822,-893.4431"/>
</g>
<!-- shekels.server&#45;&gt;shekels.server.event_listener -->
<g id="edge23" class="edge">
<title>shekels.server&#45;&gt;shekels.server.event_listener</title>
<path fill="none" stroke="#a0d17b" d="M1012.1089,-1104.7344C1024.4694,-1108.1254 1037.2052,-1111.9274 1049,-1116 1089.572,-1130.0088 1134.1876,-1149.6115 1166.6278,-1164.6709"/>
<polygon fill="#a0d17b" stroke="#a0d17b" points="1165.3218,-1167.9239 1175.863,-1168.9881 1168.2862,-1161.5826 1165.3218,-1167.9239"/>
</g>
<!-- shekels.server&#45;&gt;shekels.server.server_tools -->
<g id="edge24" class="edge">
<title>shekels.server&#45;&gt;shekels.server.server_tools</title>
<path fill="none" stroke="#a0d17b" d="M1012.078,-1078.7981C1025.0264,-1074.888 1037.9905,-1069.4798 1049,-1062 1071.3527,-1046.8136 1064.0921,-1030.121 1085,-1013 1182.075,-933.5075 1244.8297,-974.5846 1341,-894 1408.5135,-837.428 1460.4333,-744.8952 1483.4677,-699.2361"/>
<polygon fill="#a0d17b" stroke="#a0d17b" points="1486.6251,-700.7472 1487.9398,-690.2342 1480.3561,-697.6327 1486.6251,-700.7472"/>
</g>
<!-- shekels -->
<g id="node14" class="node">
<title>shekels</title>
<polygon fill="#343434" stroke="#343434" points="181.5,-885 107.5,-885 107.5,-849 181.5,-849 181.5,-885"/>
<text text-anchor="middle" x="144.5" y="-863.3" font-family="Courier,monospace" font-size="14.00" fill="#a0d17b">shekels</text>
</g>
<!-- shekels&#45;&gt;shekels.server -->
<g id="edge25" class="edge">
<title>shekels&#45;&gt;shekels.server</title>
<path fill="none" stroke="#a0d17b" d="M181.7326,-863.9371C213.99,-863.3818 259.9259,-867.9352 289,-894 330.1432,-930.8846 285.0263,-974.8511 325,-1013 399.9396,-1084.5186 448.5359,-1054.7695 551,-1070 660.8358,-1086.3263 789.5529,-1089.607 869.4514,-1089.8095"/>
<polygon fill="#a0d17b" stroke="#a0d17b" points="869.9087,-1093.3098 879.9119,-1089.8191 869.9152,-1086.3098 869.9087,-1093.3098"/>
</g>
<!-- shekels.enforce -->
<g id="node22" class="node">
<title>shekels.enforce</title>
<polygon fill="#343434" stroke="#343434" points="490,-885 350,-885 350,-849 490,-849 490,-885"/>
<text text-anchor="middle" x="420" y="-863.3" font-family="Courier,monospace" font-size="14.00" fill="#a0d17b">shekels.enforce</text>
</g>
<!-- shekels&#45;&gt;shekels.enforce -->
<g id="edge26" class="edge">
<title>shekels&#45;&gt;shekels.enforce</title>
<path fill="none" stroke="#a0d17b" d="M181.6552,-867C221.9309,-867 287.4337,-867 339.5881,-867"/>
<polygon fill="#a0d17b" stroke="#a0d17b" points="339.8297,-870.5001 349.8296,-867 339.8296,-863.5001 339.8297,-870.5001"/>
</g>
<!-- shekels.core -->
<g id="node25" class="node">
<title>shekels.core</title>
<polygon fill="#343434" stroke="#343434" points="478,-407 362,-407 362,-371 478,-371 478,-407"/>
<text text-anchor="middle" x="420" y="-385.3" font-family="Courier,monospace" font-size="14.00" fill="#a0d17b">shekels.core</text>
</g>
<!-- shekels&#45;&gt;shekels.core -->
<g id="edge27" class="edge">
<title>shekels&#45;&gt;shekels.core</title>
<path fill="none" stroke="#a0d17b" d="M181.7059,-870.9986C214.6314,-872.3087 261.5876,-868.3421 289,-840 325.8822,-801.867 310.1495,-654.9302 325,-604 345.5693,-533.4573 384.2029,-455.7819 405.3123,-415.908"/>
<polygon fill="#a0d17b" stroke="#a0d17b" points="408.4087,-417.5397 410.033,-407.0701 402.2343,-414.2416 408.4087,-417.5397"/>
</g>
<!-- dash.exceptions -->
<g id="node15" class="node">
<title>dash.exceptions</title>
<polygon fill="#343434" stroke="#343434" points="1283,-625 1143,-625 1143,-589 1283,-589 1283,-625"/>
<text text-anchor="middle" x="1213" y="-603.3" font-family="Courier,monospace" font-size="14.00" fill="#de958e">dash.exceptions</text>
</g>
<!-- dash.exceptions&#45;&gt;shekels.server.server_tools -->
<g id="edge28" class="edge">
<title>dash.exceptions&#45;&gt;shekels.server.server_tools</title>
<path fill="none" stroke="#de958e" d="M1283.0787,-623.0674C1320.8729,-631.7328 1367.8918,-642.5131 1408.17,-651.748"/>
<polygon fill="#de958e" stroke="#de958e" points="1407.4575,-655.1753 1417.9867,-653.9987 1409.0219,-648.3524 1407.4575,-655.1753"/>
</g>
<!-- dash -->
<g id="node16" class="node">
<title>dash</title>
<polygon fill="#343434" stroke="#343434" points="973,-1161 919,-1161 919,-1125 973,-1125 973,-1161"/>
<text text-anchor="middle" x="946" y="-1139.3" font-family="Courier,monospace" font-size="14.00" fill="#de958e">dash</text>
</g>
<!-- dash&#45;&gt;shekels.server.app -->
<g id="edge29" class="edge">
<title>dash&#45;&gt;shekels.server.app</title>
<path fill="none" stroke="#de958e" d="M973.3006,-1141.9918C1037.4593,-1139.6012 1202.8495,-1133.3144 1341,-1127 1582.0453,-1115.9827 1694.3415,-1188.9584 1875,-1029 1945.2684,-966.7831 1976.8276,-854.1968 1988.1875,-801.9856"/>
<polygon fill="#de958e" stroke="#de958e" points="1991.6357,-802.5947 1990.2538,-792.0904 1984.7835,-801.1638 1991.6357,-802.5947"/>
</g>
<!-- dash&#45;&gt;shekels.server.components -->
<g id="edge30" class="edge">
<title>dash&#45;&gt;shekels.server.components</title>
<path fill="none" stroke="#de958e" d="M973.4172,-1142.6554C996.3396,-1140.9258 1028.4895,-1134.9344 1049,-1116 1084.6317,-1083.1065 1060.5679,-1054.8888 1085,-1013 1112.4775,-965.8899 1156.3485,-920.0121 1184.9172,-892.6252"/>
<polygon fill="#de958e" stroke="#de958e" points="1187.6875,-894.8222 1192.5429,-885.4054 1182.8749,-889.739 1187.6875,-894.8222"/>
</g>
<!-- dash&#45;&gt;shekels.server.event_listener -->
<g id="edge31" class="edge">
<title>dash&#45;&gt;shekels.server.event_listener</title>
<path fill="none" stroke="#de958e" d="M973.0707,-1147.4611C1001.6042,-1152.1632 1048.5446,-1159.8987 1093.3752,-1167.2866"/>
<polygon fill="#de958e" stroke="#de958e" points="1093.0657,-1170.7827 1103.5018,-1168.9553 1094.204,-1163.8758 1093.0657,-1170.7827"/>
</g>
<!-- dash&#45;&gt;shekels.server.server_tools -->
<g id="edge32" class="edge">
<title>dash&#45;&gt;shekels.server.server_tools</title>
<path fill="none" stroke="#de958e" d="M973.2286,-1137.8065C1043.1437,-1123.1653 1231.1855,-1075.3664 1341,-967 1421.6917,-887.3723 1469.9194,-756.965 1488.1365,-700.047"/>
<polygon fill="#de958e" stroke="#de958e" points="1491.5393,-700.8922 1491.1898,-690.3032 1484.8596,-698.799 1491.5393,-700.8922"/>
</g>
<!-- jinja2 -->
<g id="node17" class="node">
<title>jinja2</title>
<polygon fill="#343434" stroke="#343434" points="1246,-793 1180,-793 1180,-757 1246,-757 1246,-793"/>
<text text-anchor="middle" x="1213" y="-771.3" font-family="Courier,monospace" font-size="14.00" fill="#de958e">jinja2</text>
</g>
<!-- jinja2&#45;&gt;shekels.server.server_tools -->
<g id="edge33" class="edge">
<title>jinja2&#45;&gt;shekels.server.server_tools</title>
<path fill="none" stroke="#de958e" d="M1246.1049,-768.4717C1272.2404,-762.9018 1309.4343,-754.0471 1341,-743 1379.7129,-729.4516 1421.9466,-709.839 1452.617,-694.6584"/>
<polygon fill="#de958e" stroke="#de958e" points="1454.3632,-697.6986 1461.7475,-690.1011 1451.237,-691.4355 1454.3632,-697.6986"/>
</g>
<!-- flask -->
<g id="node18" class="node">
<title>flask</title>
<polygon fill="#343434" stroke="#343434" points="975,-755 917,-755 917,-719 975,-719 975,-755"/>
<text text-anchor="middle" x="946" y="-733.3" font-family="Courier,monospace" font-size="14.00" fill="#de958e">flask</text>
</g>
<!-- flask&#45;&gt;shekels.server.api -->
<g id="edge34" class="edge">
<title>flask&#45;&gt;shekels.server.api</title>
<path fill="none" stroke="#de958e" d="M956.2573,-718.8242C976.2486,-685.2605 1023.8721,-613.896 1085,-580 1273.6625,-475.3849 1533.8262,-461.64 1670.7041,-462.6178"/>
<polygon fill="#de958e" stroke="#de958e" points="1670.7112,-466.118 1680.7455,-462.7177 1670.7809,-459.1183 1670.7112,-466.118"/>
</g>
<!-- flask&#45;&gt;shekels.server.app -->
<g id="edge35" class="edge">
<title>flask&#45;&gt;shekels.server.app</title>
<path fill="none" stroke="#de958e" d="M975.3603,-738.6015C997.0331,-740.9126 1026.5398,-746.5082 1049,-760 1070.0753,-772.6599 1062.6638,-791.7268 1085,-802 1227.9223,-867.735 1699.3104,-814.0906 1900.8208,-787.148"/>
<polygon fill="#de958e" stroke="#de958e" points="1901.3484,-790.6086 1910.7927,-785.807 1900.4154,-783.6711 1901.3484,-790.6086"/>
</g>
<!-- flask&#45;&gt;shekels.server.components -->
<g id="edge36" class="edge">
<title>flask&#45;&gt;shekels.server.components</title>
<path fill="none" stroke="#de958e" d="M975.4543,-740.1269C997.742,-743.813 1027.9965,-751.794 1049,-769 1074.8475,-790.1742 1058.5673,-814.561 1085,-835 1089.4736,-838.4592 1094.2747,-841.5487 1099.2986,-844.3079"/>
<polygon fill="#de958e" stroke="#de958e" points="1098.0485,-847.5955 1108.5595,-848.9258 1101.1723,-841.3311 1098.0485,-847.5955"/>
</g>
<!-- flask&#45;&gt;shekels.server.server_tools -->
<g id="edge37" class="edge">
<title>flask&#45;&gt;shekels.server.server_tools</title>
<path fill="none" stroke="#de958e" d="M975.3813,-735.9096C1041.1641,-733.1866 1205.1818,-724.8295 1341,-705 1363.8365,-701.6659 1388.3464,-696.9887 1410.9996,-692.2016"/>
<polygon fill="#de958e" stroke="#de958e" points="1411.8793,-695.5926 1420.9229,-690.0732 1410.4113,-688.7483 1411.8793,-695.5926"/>
</g>
<!-- dash_table -->
<g id="node19" class="node">
<title>dash_table</title>
<polygon fill="#343434" stroke="#343434" points="995.5,-1253 896.5,-1253 896.5,-1217 995.5,-1217 995.5,-1253"/>
<text text-anchor="middle" x="946" y="-1231.3" font-family="Courier,monospace" font-size="14.00" fill="#de958e">dash_table</text>
</g>
<!-- dash_table&#45;&gt;shekels.server.app -->
<g id="edge38" class="edge">
<title>dash_table&#45;&gt;shekels.server.app</title>
<path fill="none" stroke="#de958e" d="M995.5389,-1251.0564C1147.2987,-1296.8658 1611.4323,-1411.3638 1875,-1193 1936.6871,-1141.8928 1977.4528,-888.2344 1989.6589,-802.4258"/>
<polygon fill="#de958e" stroke="#de958e" points="1993.147,-802.7547 1991.0678,-792.3658 1986.2146,-801.7838 1993.147,-802.7547"/>
</g>
<!-- dash_table&#45;&gt;shekels.server.components -->
<g id="edge39" class="edge">
<title>dash_table&#45;&gt;shekels.server.components</title>
<path fill="none" stroke="#de958e" d="M984.6277,-1216.7916C1005.5649,-1205.5084 1030.8009,-1189.4582 1049,-1170 1129.1988,-1084.2526 1182.8276,-951.8689 1203.4834,-894.7729"/>
<polygon fill="#de958e" stroke="#de958e" points="1206.9002,-895.6109 1206.9556,-885.0162 1200.3053,-893.2639 1206.9002,-895.6109"/>
</g>
<!-- schematics.models -->
<g id="node20" class="node">
<title>schematics.models</title>
<polygon fill="#343434" stroke="#343434" points="498.5,-284 341.5,-284 341.5,-248 498.5,-248 498.5,-284"/>
<text text-anchor="middle" x="420" y="-262.3" font-family="Courier,monospace" font-size="14.00" fill="#de958e">schematics.models</text>
</g>
<!-- schematics.models&#45;&gt;shekels.core.config -->
<g id="edge40" class="edge">
<title>schematics.models&#45;&gt;shekels.core.config</title>
<path fill="none" stroke="#de958e" d="M498.7634,-257.7891C525.1406,-255.0394 554.8536,-251.9419 582.4322,-249.0669"/>
<polygon fill="#de958e" stroke="#de958e" points="582.9028,-252.5369 592.486,-248.0188 582.177,-245.5746 582.9028,-252.5369"/>
</g>
<!-- dash_html_components -->
<g id="node21" class="node">
<title>dash_html_components</title>
<polygon fill="#343434" stroke="#343434" points="1037,-1053 855,-1053 855,-1017 1037,-1017 1037,-1053"/>
<text text-anchor="middle" x="946" y="-1031.3" font-family="Courier,monospace" font-size="14.00" fill="#de958e">dash_html_components</text>
</g>
<!-- dash_html_components&#45;&gt;shekels.server.app -->
<g id="edge41" class="edge">
<title>dash_html_components&#45;&gt;shekels.server.app</title>
<path fill="none" stroke="#de958e" d="M1037.142,-1043.0637C1211.6572,-1054.2403 1600.0586,-1058.2184 1875,-906 1920.366,-880.8836 1957.319,-831.7025 1977.3002,-800.9784"/>
<polygon fill="#de958e" stroke="#de958e" points="1980.3038,-802.7775 1982.713,-792.4602 1974.3957,-799.0232 1980.3038,-802.7775"/>
</g>
<!-- dash_html_components&#45;&gt;shekels.server.components -->
<g id="edge42" class="edge">
<title>dash_html_components&#45;&gt;shekels.server.components</title>
<path fill="none" stroke="#de958e" d="M1037.071,-1017.0407C1041.3454,-1014.4138 1045.3619,-1011.4171 1049,-1008 1086.1872,-973.0718 1047.6145,-933.7159 1085,-899 1088.4449,-895.8011 1092.1602,-892.9094 1096.0802,-890.2962"/>
<polygon fill="#de958e" stroke="#de958e" points="1098.1604,-893.1313 1104.9638,-885.0094 1094.5805,-887.1159 1098.1604,-893.1313"/>
</g>
<!-- shekels.enforce&#45;&gt;shekels.enforce.enforce_tools -->
<g id="edge43" class="edge">
<title>shekels.enforce&#45;&gt;shekels.enforce.enforce_tools</title>
<path fill="none" stroke="#a0d17b" d="M490.0891,-867C505.8686,-867 523.1505,-867 540.649,-867"/>
<polygon fill="#a0d17b" stroke="#a0d17b" points="540.9672,-870.5001 550.9672,-867 540.9671,-863.5001 540.9672,-870.5001"/>
</g>
<!-- numpy -->
<g id="node23" class="node">
<title>numpy</title>
<polygon fill="#343434" stroke="#343434" points="708,-349 650,-349 650,-313 708,-313 708,-349"/>
<text text-anchor="middle" x="679" y="-327.3" font-family="Courier,monospace" font-size="14.00" fill="#de958e">numpy</text>
</g>
<!-- numpy&#45;&gt;shekels.core.data_tools -->
<g id="edge44" class="edge">
<title>numpy&#45;&gt;shekels.core.data_tools</title>
<path fill="none" stroke="#de958e" d="M708.1879,-330.8972C735.8891,-332.1543 777.552,-337.6943 807,-358 831.3586,-374.7963 825.174,-390.3845 843,-414 867.9021,-446.9898 899.7533,-482.2615 921.3977,-505.3495"/>
<polygon fill="#de958e" stroke="#de958e" points="918.9145,-507.8177 928.3219,-512.6913 924.007,-503.0149 918.9145,-507.8177"/>
</g>
<!-- numpy&#45;&gt;shekels.core.database -->
<g id="edge45" class="edge">
<title>numpy&#45;&gt;shekels.core.database</title>
<path fill="none" stroke="#de958e" d="M708.0894,-330.6732C782.4995,-329.8371 982.6702,-327.588 1107.4691,-326.1857"/>
<polygon fill="#de958e" stroke="#de958e" points="1107.8511,-329.6818 1117.8111,-326.0695 1107.7724,-322.6822 1107.8511,-329.6818"/>
</g>
<!-- schematics.types -->
<g id="node24" class="node">
<title>schematics.types</title>
<polygon fill="#343434" stroke="#343434" points="494.5,-230 345.5,-230 345.5,-194 494.5,-194 494.5,-230"/>
<text text-anchor="middle" x="420" y="-208.3" font-family="Courier,monospace" font-size="14.00" fill="#de958e">schematics.types</text>
</g>
<!-- schematics.types&#45;&gt;shekels.core.config -->
<g id="edge46" class="edge">
<title>schematics.types&#45;&gt;shekels.core.config</title>
<path fill="none" stroke="#de958e" d="M494.5661,-219.7733C521.8367,-222.6162 553.0969,-225.875 582.0386,-228.8921"/>
<polygon fill="#de958e" stroke="#de958e" points="581.8596,-232.3923 592.1686,-229.9481 582.5854,-225.43 581.8596,-232.3923"/>
</g>
<!-- shekels.core&#45;&gt;shekels.core.config -->
<g id="edge47" class="edge">
<title>shekels.core&#45;&gt;shekels.core.config</title>
<path fill="none" stroke="#a0d17b" d="M434.922,-370.8197C457.3575,-344.7075 502.3633,-296.8865 551,-271 560.9309,-265.7143 571.7625,-261.279 582.7837,-257.5622"/>
<polygon fill="#a0d17b" stroke="#a0d17b" points="584.0278,-260.8395 592.5,-254.4776 581.9097,-254.1676 584.0278,-260.8395"/>
</g>
<!-- shekels.core&#45;&gt;shekels.core.data_tools -->
<g id="edge48" class="edge">
<title>shekels.core&#45;&gt;shekels.core.data_tools</title>
<path fill="none" stroke="#a0d17b" d="M478.3089,-399.5777C500.9788,-403.601 527.1804,-408.1418 551,-412 664.5446,-430.3915 698.4644,-411.9127 807,-450 845.7631,-463.6027 885.8676,-488.3126 912.9766,-506.8764"/>
<polygon fill="#a0d17b" stroke="#a0d17b" points="911.0949,-509.8309 921.3034,-512.6658 915.0909,-504.0835 911.0949,-509.8309"/>
</g>
<!-- shekels.core&#45;&gt;shekels.core.database -->
<g id="edge49" class="edge">
<title>shekels.core&#45;&gt;shekels.core.database</title>
<path fill="none" stroke="#a0d17b" d="M442.3188,-370.6724C463.2113,-352.6193 494.2383,-323.3999 515,-293 537.2181,-260.4676 517.9672,-233.4671 551,-212 597.446,-181.816 1001.575,-206.3787 1049,-235 1074.0131,-250.0956 1061.3773,-272.8099 1085,-290 1092.1732,-295.2199 1100.0846,-299.6614 1108.3498,-303.4405"/>
<polygon fill="#a0d17b" stroke="#a0d17b" points="1107.2372,-306.7698 1117.8113,-307.432 1109.9581,-300.3202 1107.2372,-306.7698"/>
</g>
<!-- pandasql -->
<g id="node26" class="node">
<title>pandasql</title>
<polygon fill="#343434" stroke="#343434" points="720.5,-403 637.5,-403 637.5,-367 720.5,-367 720.5,-403"/>
<text text-anchor="middle" x="679" y="-381.3" font-family="Courier,monospace" font-size="14.00" fill="#de958e">pandasql</text>
</g>
<!-- pandasql&#45;&gt;shekels.core.data_tools -->
<g id="edge50" class="edge">
<title>pandasql&#45;&gt;shekels.core.data_tools</title>
<path fill="none" stroke="#de958e" d="M720.5256,-389.7486C746.623,-394.0582 780.2841,-402.1212 807,-417 826.4958,-427.8577 826.1177,-437.4068 843,-452 865.4771,-471.4294 892.1199,-491.7986 912.6769,-506.9868"/>
<polygon fill="#de958e" stroke="#de958e" points="910.6689,-509.8546 920.8004,-512.9536 914.8127,-504.2129 910.6689,-509.8546"/>
</g>
<!-- pandasql&#45;&gt;shekels.server.api -->
<g id="edge51" class="edge">
<title>pandasql&#45;&gt;shekels.server.api</title>
<path fill="none" stroke="#de958e" d="M720.5187,-388.101C878.6606,-399.9124 1445.7201,-442.2654 1670.6345,-459.064"/>
<polygon fill="#de958e" stroke="#de958e" points="1670.5268,-462.5656 1680.7597,-459.8202 1671.0482,-455.585 1670.5268,-462.5656"/>
</g>
<!-- lunchbox.tools -->
<g id="node27" class="node">
<title>lunchbox.tools</title>
<polygon fill="#343434" stroke="#343434" points="745,-977 613,-977 613,-941 745,-941 745,-977"/>
<text text-anchor="middle" x="679" y="-955.3" font-family="Courier,monospace" font-size="14.00" fill="#de958e">lunchbox.tools</text>
</g>
<!-- lunchbox.tools&#45;&gt;shekels.core.data_tools -->
<g id="edge52" class="edge">
<title>lunchbox.tools&#45;&gt;shekels.core.data_tools</title>
<path fill="none" stroke="#de958e" d="M745.077,-957.2356C767.8068,-953.2033 791.4289,-944.5725 807,-927 892.5502,-830.4539 787.702,-755.5424 843,-639 858.9963,-605.2871 889.593,-575.3252 913.2998,-555.5638"/>
<polygon fill="#de958e" stroke="#de958e" points="915.8104,-558.0334 921.3625,-549.0099 911.3951,-552.6016 915.8104,-558.0334"/>
</g>
<!-- lunchbox.tools&#45;&gt;shekels.server.components -->
<g id="edge53" class="edge">
<title>lunchbox.tools&#45;&gt;shekels.server.components</title>
<path fill="none" stroke="#de958e" d="M745.0648,-950.8491C766.0206,-946.14 788.5246,-938.7128 807,-927 828.3399,-913.4712 820.4061,-894.3109 843,-883 919.7579,-844.5737 1017.085,-841.875 1092.6515,-848.0904"/>
<polygon fill="#de958e" stroke="#de958e" points="1092.4248,-851.5839 1102.6945,-848.9791 1093.0419,-844.6112 1092.4248,-851.5839"/>
</g>
<!-- lunchbox.tools&#45;&gt;shekels.server.server_tools -->
<g id="edge54" class="edge">
<title>lunchbox.tools&#45;&gt;shekels.server.server_tools</title>
<path fill="none" stroke="#de958e" d="M745.2333,-957.0185C767.8415,-952.944 791.3423,-944.3415 807,-927 882.2297,-843.6803 758.4355,-750.8277 843,-677 881.3766,-643.4959 1187.5669,-654.5423 1366.8959,-664.119"/>
<polygon fill="#de958e" stroke="#de958e" points="1366.754,-667.6163 1376.9281,-664.6603 1367.1312,-660.6265 1366.754,-667.6163"/>
</g>
<!-- dash_core_components -->
<g id="node28" class="node">
<title>dash_core_components</title>
<polygon fill="#343434" stroke="#343434" points="1037,-999 855,-999 855,-963 1037,-963 1037,-999"/>
<text text-anchor="middle" x="946" y="-977.3" font-family="Courier,monospace" font-size="14.00" fill="#de958e">dash_core_components</text>
</g>
<!-- dash_core_components&#45;&gt;shekels.server.app -->
<g id="edge55" class="edge">
<title>dash_core_components&#45;&gt;shekels.server.app</title>
<path fill="none" stroke="#de958e" d="M1037.2275,-976.0389C1240.5214,-963.9843 1724.6591,-929.4595 1875,-867 1911.9422,-851.6523 1947.045,-821.442 1969.3171,-799.61"/>
<polygon fill="#de958e" stroke="#de958e" points="1972.0522,-801.8244 1976.6419,-792.2753 1967.0991,-796.878 1972.0522,-801.8244"/>
</g>
<!-- dash_core_components&#45;&gt;shekels.server.components -->
<g id="edge56" class="edge">
<title>dash_core_components&#45;&gt;shekels.server.components</title>
<path fill="none" stroke="#de958e" d="M1023.7218,-962.9253C1032.6713,-959.1156 1041.3259,-954.5251 1049,-949 1071.2226,-933.0005 1062.3363,-914.3683 1085,-899 1090.3498,-895.3723 1096.0755,-892.1555 1102.0292,-889.3032"/>
<polygon fill="#de958e" stroke="#de958e" points="1103.8073,-892.3447 1111.5514,-885.1142 1100.9885,-885.9373 1103.8073,-892.3447"/>
</g>
<!-- pandas -->
<g id="node29" class="node">
<title>pandas</title>
<polygon fill="#343434" stroke="#343434" points="453,-816 387,-816 387,-780 453,-780 453,-816"/>
<text text-anchor="middle" x="420" y="-794.3" font-family="Courier,monospace" font-size="14.00" fill="#de958e">pandas</text>
</g>
<!-- pandas&#45;&gt;shekels.core.data_tools -->
<g id="edge57" class="edge">
<title>pandas&#45;&gt;shekels.core.data_tools</title>
<path fill="none" stroke="#de958e" d="M453.0086,-788.6034C536.5738,-764.2723 753.645,-697.5199 807,-646 835.9254,-618.0695 813.0743,-589.8559 843,-563 846.6822,-559.6955 850.7015,-556.7323 854.9491,-554.0751"/>
<polygon fill="#de958e" stroke="#de958e" points="856.9342,-556.9751 863.9536,-549.0392 853.5174,-550.8656 856.9342,-556.9751"/>
</g>
<!-- pandas&#45;&gt;shekels.core.database -->
<g id="edge58" class="edge">
<title>pandas&#45;&gt;shekels.core.database</title>
<path fill="none" stroke="#de958e" d="M453.2199,-799.6167C525.1085,-801.4027 697.4426,-796.2535 807,-715 833.5249,-695.3277 818.6691,-672.3288 843,-650 916.8769,-582.2023 976.1752,-626.9266 1049,-558 1074.4083,-533.9517 1066.1109,-517.4466 1085,-488 1117.8139,-436.8457 1163.0486,-382.236 1190.0292,-350.9991"/>
<polygon fill="#de958e" stroke="#de958e" points="1192.8855,-353.0481 1196.8031,-343.2041 1187.6018,-348.4565 1192.8855,-353.0481"/>
</g>
<!-- pandas&#45;&gt;shekels.enforce.enforce_tools -->
<g id="edge59" class="edge">
<title>pandas&#45;&gt;shekels.enforce.enforce_tools</title>
<path fill="none" stroke="#de958e" d="M453.035,-807.6296C479.4774,-815.2651 517.5427,-826.0951 551,-835 565.2082,-838.7816 580.3385,-842.6786 595.0352,-846.3954"/>
<polygon fill="#de958e" stroke="#de958e" points="594.5719,-849.8879 605.1239,-848.9361 596.2814,-843.0999 594.5719,-849.8879"/>
</g>
<!-- pandas&#45;&gt;shekels.server.components -->
<g id="edge60" class="edge">
<title>pandas&#45;&gt;shekels.server.components</title>
<path fill="none" stroke="#de958e" d="M453.17,-799.2267C546.9524,-802.9191 821.9607,-815.2941 1049,-841 1064.8934,-842.7995 1081.6012,-845.0403 1098.0239,-847.4466"/>
<polygon fill="#de958e" stroke="#de958e" points="1097.796,-850.9512 1108.2027,-848.9637 1098.828,-844.0277 1097.796,-850.9512"/>
</g>
<!-- webcolors -->
<g id="node30" class="node">
<title>webcolors</title>
<polygon fill="#343434" stroke="#343434" points="724.5,-549 633.5,-549 633.5,-513 724.5,-513 724.5,-549"/>
<text text-anchor="middle" x="679" y="-527.3" font-family="Courier,monospace" font-size="14.00" fill="#de958e">webcolors</text>
</g>
<!-- webcolors&#45;&gt;shekels.core.data_tools -->
<g id="edge61" class="edge">
<title>webcolors&#45;&gt;shekels.core.data_tools</title>
<path fill="none" stroke="#de958e" d="M724.5956,-531C754.4014,-531 794.7311,-531 832.8046,-531"/>
<polygon fill="#de958e" stroke="#de958e" points="832.9484,-534.5001 842.9484,-531 832.9484,-527.5001 832.9484,-534.5001"/>
</g>
<!-- lunchbox.enforce -->
<g id="node31" class="node">
<title>lunchbox.enforce</title>
<polygon fill="#343434" stroke="#343434" points="494.5,-1004 345.5,-1004 345.5,-968 494.5,-968 494.5,-1004"/>
<text text-anchor="middle" x="420" y="-982.3" font-family="Courier,monospace" font-size="14.00" fill="#de958e">lunchbox.enforce</text>
</g>
<!-- lunchbox.enforce&#45;&gt;shekels.core.data_tools -->
<g id="edge62" class="edge">
<title>lunchbox.enforce&#45;&gt;shekels.core.data_tools</title>
<path fill="none" stroke="#de958e" d="M456.9813,-967.9119C482.7646,-956.0143 518.2751,-941.0279 551,-932 606.4412,-916.7054 766.4776,-934.8116 807,-894 887.6451,-812.7793 793.1143,-742.0139 843,-639 859.2638,-605.4153 889.827,-575.4374 913.4533,-555.6373"/>
<polygon fill="#de958e" stroke="#de958e" points="915.9601,-558.1087 921.486,-549.0691 911.529,-552.6897 915.9601,-558.1087"/>
</g>
<!-- lunchbox.enforce&#45;&gt;shekels.enforce.enforce_tools -->
<g id="edge63" class="edge">
<title>lunchbox.enforce&#45;&gt;shekels.enforce.enforce_tools</title>
<path fill="none" stroke="#de958e" d="M442.2679,-967.7306C467.2801,-948.0721 509.7871,-917.1879 551,-899 560.2903,-894.9 570.2015,-891.2605 580.2399,-888.0447"/>
<polygon fill="#de958e" stroke="#de958e" points="581.3505,-891.3652 589.8873,-885.0903 579.3007,-884.672 581.3505,-891.3652"/>
</g>
<!-- lunchbox.enforce&#45;&gt;shekels.server.components -->
<g id="edge64" class="edge">
<title>lunchbox.enforce&#45;&gt;shekels.server.components</title>
<path fill="none" stroke="#de958e" d="M452.5661,-1004.1011C523.5335,-1040.8611 694.7539,-1114.697 807,-1040 841.4957,-1017.0439 810.6775,-979.9267 843,-954 915.5616,-895.7965 963.7114,-954.1308 1049,-917 1067.3376,-909.0166 1066.6627,-897.984 1085,-890 1087.227,-889.0304 1089.4928,-888.1016 1091.7903,-887.212"/>
<polygon fill="#de958e" stroke="#de958e" points="1093.1619,-890.4386 1101.3956,-883.771 1090.801,-883.8487 1093.1619,-890.4386"/>
</g>
<!-- lunchbox.enforce&#45;&gt;shekels.server.event_listener -->
<g id="edge65" class="edge">
<title>lunchbox.enforce&#45;&gt;shekels.server.event_listener</title>
<path fill="none" stroke="#de958e" d="M444.5504,-1004.3002C470.118,-1022.7321 511.8341,-1051.0776 551,-1070 674.517,-1129.6751 708.2381,-1144.3717 843,-1170 918.7147,-1184.399 1004.6355,-1189.0416 1074.6092,-1189.9071"/>
<polygon fill="#de958e" stroke="#de958e" points="1074.7802,-1193.4089 1084.8143,-1190.0081 1074.8495,-1186.4092 1074.7802,-1193.4089"/>
</g>
<!-- rolling_pin.blob_etl -->
<g id="node32" class="node">
<title>rolling_pin.blob_etl</title>
<polygon fill="#343434" stroke="#343434" points="770,-1031 588,-1031 588,-995 770,-995 770,-1031"/>
<text text-anchor="middle" x="679" y="-1009.3" font-family="Courier,monospace" font-size="14.00" fill="#de958e">rolling_pin.blob_etl</text>
</g>
<!-- rolling_pin.blob_etl&#45;&gt;shekels.core.data_tools -->
<g id="edge66" class="edge">
<title>rolling_pin.blob_etl&#45;&gt;shekels.core.data_tools</title>
<path fill="none" stroke="#de958e" d="M770.1466,-1008.4472C784.1059,-1003.9064 797.1285,-996.8231 807,-986 853.5859,-934.9229 818.3116,-741.5724 843,-677 860.9473,-630.059 897.4295,-584.059 921.7994,-556.6084"/>
<polygon fill="#de958e" stroke="#de958e" points="924.5301,-558.8067 928.6327,-549.0384 919.334,-554.1162 924.5301,-558.8067"/>
</g>
<!-- rolling_pin.blob_etl&#45;&gt;shekels.server.components -->
<g id="edge67" class="edge">
<title>rolling_pin.blob_etl&#45;&gt;shekels.server.components</title>
<path fill="none" stroke="#de958e" d="M770.262,-1003.8934C783.4022,-999.7881 796.1325,-994.0315 807,-986 833.5581,-966.3726 815.8372,-939.7817 843,-921 863.3909,-906.9007 991.1841,-890.401 1090.9467,-879.3854"/>
<polygon fill="#de958e" stroke="#de958e" points="1091.5615,-882.8391 1101.1206,-878.2702 1090.7988,-875.8807 1091.5615,-882.8391"/>
</g>
<!-- rolling_pin.blob_etl&#45;&gt;shekels.server.server_tools -->
<g id="edge68" class="edge">
<title>rolling_pin.blob_etl&#45;&gt;shekels.server.server_tools</title>
<path fill="none" stroke="#de958e" d="M770.0223,-1008.3331C783.9952,-1003.8047 797.0545,-996.7551 807,-986 890.9876,-895.1749 752.4512,-794.2854 843,-710 861.8509,-692.4531 1181.7288,-680.7015 1366.8283,-675.3369"/>
<polygon fill="#de958e" stroke="#de958e" points="1367.0103,-678.8332 1376.9056,-675.0473 1366.8091,-671.8361 1367.0103,-678.8332"/>
</g>
<!-- schematics.exceptions -->
<g id="node33" class="node">
<title>schematics.exceptions</title>
<polygon fill="#343434" stroke="#343434" points="515,-649 325,-649 325,-613 515,-613 515,-649"/>
<text text-anchor="middle" x="420" y="-627.3" font-family="Courier,monospace" font-size="14.00" fill="#de958e">schematics.exceptions</text>
</g>
<!-- schematics.exceptions&#45;&gt;shekels.core.config -->
<g id="edge69" class="edge">
<title>schematics.exceptions&#45;&gt;shekels.core.config</title>
<path fill="none" stroke="#de958e" d="M429.3645,-612.7391C447.8148,-576.1887 489.3021,-491.096 515,-416 536.4985,-353.1756 504.0856,-317.9907 551,-271 559.9391,-262.0464 570.9795,-255.4667 582.7982,-250.6535"/>
<polygon fill="#de958e" stroke="#de958e" points="584.2133,-253.8633 592.4183,-247.1604 581.8242,-247.2837 584.2133,-253.8633"/>
</g>
<!-- schematics.exceptions&#45;&gt;shekels.core.data_tools -->
<g id="edge70" class="edge">
<title>schematics.exceptions&#45;&gt;shekels.core.data_tools</title>
<path fill="none" stroke="#de958e" d="M515.1223,-648.1047C597.3882,-658.024 716.9333,-660.4009 807,-612 830.8041,-599.2079 820.9935,-578.6839 843,-563 848.1035,-559.3627 853.6331,-556.1296 859.3902,-553.257"/>
<polygon fill="#de958e" stroke="#de958e" points="860.966,-556.3849 868.5956,-549.0336 858.047,-550.0225 860.966,-556.3849"/>
</g>
<!-- schematics.exceptions&#45;&gt;shekels.server.api -->
<g id="edge71" class="edge">
<title>schematics.exceptions&#45;&gt;shekels.server.api</title>
<path fill="none" stroke="#de958e" d="M428.7916,-612.8643C446.3951,-576.1906 486.7049,-490.3748 515,-416 533.5917,-367.131 508.7484,-334.7998 551,-304 642.9423,-236.9777 693.6377,-294.2852 807,-304 931.9259,-314.7058 961.2413,-331.8786 1085,-352 1320.6359,-390.3111 1381.3762,-388.9129 1616,-433 1636.0573,-436.7689 1657.5413,-441.2935 1677.734,-445.7669"/>
<polygon fill="#de958e" stroke="#de958e" points="1677.0086,-449.191 1687.5311,-447.9553 1678.5346,-442.3594 1677.0086,-449.191"/>
</g>
<!-- schematics.exceptions&#45;&gt;shekels.server.components -->
<g id="edge72" class="edge">
<title>schematics.exceptions&#45;&gt;shekels.server.components</title>
<path fill="none" stroke="#de958e" d="M462.0517,-649.0258C487.537,-659.6148 520.8473,-672.8659 551,-683 678.6611,-725.906 712.9694,-728.924 843,-764 934.3825,-788.6506 960.0496,-785.6542 1049,-818 1065.6289,-824.0469 1068.3369,-829.0479 1085,-835 1096.4892,-839.104 1108.7383,-842.8855 1120.9338,-846.301"/>
<polygon fill="#de958e" stroke="#de958e" points="1120.1188,-849.7064 1130.6873,-848.9608 1121.9605,-842.953 1120.1188,-849.7064"/>
</g>
<!-- schematics.exceptions&#45;&gt;shekels.server.server_tools -->
<g id="edge73" class="edge">
<title>schematics.exceptions&#45;&gt;shekels.server.server_tools</title>
<path fill="none" stroke="#de958e" d="M515.0513,-643.1717C527.1334,-644.3394 539.3442,-645.3349 551,-646 664.593,-652.4822 693.9941,-659.2305 807,-646 1044.5169,-618.192 1110.3422,-516.877 1341,-580 1388.6388,-593.0371 1436.5022,-624.841 1466.2919,-647.3941"/>
<polygon fill="#de958e" stroke="#de958e" points="1464.5114,-650.4409 1474.5678,-653.7755 1468.7859,-644.8975 1464.5114,-650.4409"/>
</g>
<!-- cufflinks -->
<g id="node34" class="node">
<title>cufflinks</title>
<polygon fill="#343434" stroke="#343434" points="724.5,-495 633.5,-495 633.5,-459 724.5,-459 724.5,-495"/>
<text text-anchor="middle" x="679" y="-473.3" font-family="Courier,monospace" font-size="14.00" fill="#de958e">cufflinks</text>
</g>
<!-- cufflinks&#45;&gt;shekels.core.data_tools -->
<g id="edge74" class="edge">
<title>cufflinks&#45;&gt;shekels.core.data_tools</title>
<path fill="none" stroke="#de958e" d="M724.5956,-486.2216C758.1023,-492.9982 804.9084,-502.4646 846.8581,-510.9488"/>
<polygon fill="#de958e" stroke="#de958e" points="846.3488,-514.4166 856.8442,-512.9685 847.7365,-507.5555 846.3488,-514.4166"/>
</g>
<!-- pyparsing -->
<g id="node35" class="node">
<title>pyparsing</title>
<polygon fill="#343434" stroke="#343434" points="724.5,-603 633.5,-603 633.5,-567 724.5,-567 724.5,-603"/>
<text text-anchor="middle" x="679" y="-581.3" font-family="Courier,monospace" font-size="14.00" fill="#de958e">pyparsing</text>
</g>
<!-- pyparsing&#45;&gt;shekels.core.data_tools -->
<g id="edge75" class="edge">
<title>pyparsing&#45;&gt;shekels.core.data_tools</title>
<path fill="none" stroke="#de958e" d="M724.5956,-575.7784C758.1023,-569.0018 804.9084,-559.5354 846.8581,-551.0512"/>
<polygon fill="#de958e" stroke="#de958e" points="847.7365,-554.4445 856.8442,-549.0315 846.3488,-547.5834 847.7365,-554.4445"/>
</g>
<!-- jsoncomment -->
<g id="node36" class="node">
<title>jsoncomment</title>
<polygon fill="#343434" stroke="#343434" points="999.5,-182 892.5,-182 892.5,-146 999.5,-146 999.5,-182"/>
<text text-anchor="middle" x="946" y="-160.3" font-family="Courier,monospace" font-size="14.00" fill="#de958e">jsoncomment</text>
</g>
<!-- jsoncomment&#45;&gt;shekels.core.database -->
<g id="edge76" class="edge">
<title>jsoncomment&#45;&gt;shekels.core.database</title>
<path fill="none" stroke="#de958e" d="M999.517,-170.9598C1017.0888,-175.5775 1035.5417,-183.2515 1049,-196 1082.3843,-227.6237 1050.7397,-262.3276 1085,-293 1091.9557,-299.2273 1099.9412,-304.2828 1108.4521,-308.3819"/>
<polygon fill="#de958e" stroke="#de958e" points="1107.3026,-311.6983 1117.8697,-312.4645 1110.0869,-305.2758 1107.3026,-311.6983"/>
</g>
<!-- jsoncomment&#45;&gt;shekels.server.app -->
<g id="edge77" class="edge">
<title>jsoncomment&#45;&gt;shekels.server.app</title>
<path fill="none" stroke="#de958e" d="M999.753,-164.9201C1178.331,-169.108 1747.71,-191.8909 1875,-313 1939.0737,-373.9624 1978.8443,-655.27 1990.1583,-745.8296"/>
<polygon fill="#de958e" stroke="#de958e" points="1986.7022,-746.4022 1991.3967,-755.9002 1993.6499,-745.5478 1986.7022,-746.4022"/>
</g>
<!-- jsoncomment&#45;&gt;shekels.server.server_tools -->
<g id="edge78" class="edge">
<title>jsoncomment&#45;&gt;shekels.server.server_tools</title>
<path fill="none" stroke="#de958e" d="M999.5298,-172.8505C1016.6052,-177.6108 1034.7482,-184.8915 1049,-196 1073.2279,-214.8842 1059.5552,-237.7905 1085,-255 1180.5659,-319.6357 1250.6832,-226.2121 1341,-298 1453.6048,-387.5034 1485.5396,-572.763 1493.8272,-643.6048"/>
<polygon fill="#de958e" stroke="#de958e" points="1490.3934,-644.4012 1494.963,-653.9599 1497.3517,-643.6379 1490.3934,-644.4012"/>
</g>
<!-- flask_caching -->
<g id="node37" class="node">
<title>flask_caching</title>
<polygon fill="#343434" stroke="#343434" points="1825.5,-90 1701.5,-90 1701.5,-54 1825.5,-54 1825.5,-90"/>
<text text-anchor="middle" x="1763.5" y="-68.3" font-family="Courier,monospace" font-size="14.00" fill="#de958e">flask_caching</text>
</g>
<!-- flask_caching&#45;&gt;shekels.server.app -->
<g id="edge79" class="edge">
<title>flask_caching&#45;&gt;shekels.server.app</title>
<path fill="none" stroke="#de958e" d="M1825.7203,-77.3263C1843.9324,-81.8827 1862.3308,-89.9336 1875,-104 1962.4964,-201.1461 1987.2792,-631.2364 1992.3842,-745.8529"/>
<polygon fill="#de958e" stroke="#de958e" points="1988.8914,-746.098 1992.8182,-755.9383 1995.8849,-745.797 1988.8914,-746.098"/>
</g>
<!-- flask_monitoringdashboard -->
<g id="node38" class="node">
<title>flask_monitoringdashboard</title>
<polygon fill="#343434" stroke="#343434" points="1875,-36 1652,-36 1652,0 1875,0 1875,-36"/>
<text text-anchor="middle" x="1763.5" y="-14.3" font-family="Courier,monospace" font-size="14.00" fill="#de958e">flask_monitoringdashboard</text>
</g>
<!-- flask_monitoringdashboard&#45;&gt;shekels.server.app -->
<g id="edge80" class="edge">
<title>flask_monitoringdashboard&#45;&gt;shekels.server.app</title>
<path fill="none" stroke="#de958e" d="M1864.7252,-36.0337C1868.4332,-38.6647 1871.8869,-41.6394 1875,-45 1972.0686,-149.787 1989.934,-624.3337 1992.9355,-745.676"/>
<polygon fill="#de958e" stroke="#de958e" points="1989.4436,-746.0697 1993.1751,-755.9857 1996.4417,-745.907 1989.4436,-746.0697"/>
</g>
<!-- selenium.webdriver.chrome.options -->
<g id="node39" class="node">
<title>selenium.webdriver.chrome.options</title>
<polygon fill="#343434" stroke="#343434" points="289,-939 0,-939 0,-903 289,-903 289,-939"/>
<text text-anchor="middle" x="144.5" y="-917.3" font-family="Courier,monospace" font-size="14.00" fill="#de958e">selenium.webdriver.chrome.options</text>
</g>
</g>
</svg>
