<?xml version="1.0" encoding="UTF-8" standalone="no"?>
<!DOCTYPE svg PUBLIC "-//W3C//DTD SVG 1.1//EN"
 "http://www.w3.org/Graphics/SVG/1.1/DTD/svg11.dtd">
<!-- Generated by graphviz version 2.43.0 (0)
 -->
<!-- Title: %3 Pages: 1 -->
<svg width="1869pt" height="1417pt"
 viewBox="0.00 0.00 1869.00 1417.28" xmlns="http://www.w3.org/2000/svg" xmlns:xlink="http://www.w3.org/1999/xlink">
<g id="graph0" class="graph" transform="scale(1 1) rotate(0) translate(4 1413.28)">
<title>%3</title>
<polygon fill="#242424" stroke="transparent" points="-4,4 -4,-1413.28 1865,-1413.28 1865,4 -4,4"/>
<!-- cli -->
<g id="node1" class="node">
<title>cli</title>
<polygon fill="#343434" stroke="#343434" points="64,-987 10,-987 10,-951 64,-951 64,-987"/>
<text text-anchor="middle" x="37" y="-965.3" font-family="Courier,monospace" font-size="14.00" fill="#b6ecf3">cli</text>
</g>
<!-- shekels.command -->
<g id="node2" class="node">
<title>shekels.command</title>
<polygon fill="#343434" stroke="#343434" points="275,-1374 135,-1374 135,-1338 275,-1338 275,-1374"/>
<text text-anchor="middle" x="205" y="-1352.3" font-family="Courier,monospace" font-size="14.00" fill="#b6ecf3">shekels.command</text>
</g>
<!-- shekels.core.config -->
<g id="node3" class="node">
<title>shekels.core.config</title>
<polygon fill="#343434" stroke="#343434" points="550.5,-386 377.5,-386 377.5,-350 550.5,-350 550.5,-386"/>
<text text-anchor="middle" x="464" y="-364.3" font-family="Courier,monospace" font-size="14.00" fill="#b6ecf3">shekels.core.config</text>
</g>
<!-- shekels.core.data_tools -->
<g id="node4" class="node">
<title>shekels.core.data_tools</title>
<polygon fill="#343434" stroke="#343434" points="834,-762 628,-762 628,-726 834,-726 834,-762"/>
<text text-anchor="middle" x="731" y="-740.3" font-family="Courier,monospace" font-size="14.00" fill="#b6ecf3">shekels.core.data_tools</text>
</g>
<!-- shekels.core.config&#45;&gt;shekels.core.data_tools -->
<g id="edge1" class="edge">
<title>shekels.core.config&#45;&gt;shekels.core.data_tools</title>
<path fill="none" stroke="#b6ecf3" d="M493.68,-386.02C521.53,-404.64 563.66,-435.87 592,-471 656.07,-550.45 701.72,-664.47 720.49,-716.38"/>
<polygon fill="#b6ecf3" stroke="#b6ecf3" points="717.24,-717.66 723.89,-725.9 723.83,-715.31 717.24,-717.66"/>
</g>
<!-- shekels.core.database -->
<g id="node5" class="node">
<title>shekels.core.database</title>
<polygon fill="#343434" stroke="#343434" points="1093,-480 903,-480 903,-444 1093,-444 1093,-480"/>
<text text-anchor="middle" x="998" y="-458.3" font-family="Courier,monospace" font-size="14.00" fill="#b6ecf3">shekels.core.database</text>
</g>
<!-- shekels.core.config&#45;&gt;shekels.core.database -->
<g id="edge2" class="edge">
<title>shekels.core.config&#45;&gt;shekels.core.database</title>
<path fill="none" stroke="#b6ecf3" d="M550.68,-356.46C628.39,-349.85 744.21,-349.87 834,-392 855.06,-401.88 849.92,-418.25 870,-430 877.26,-434.25 885.08,-437.94 893.14,-441.15"/>
<polygon fill="#b6ecf3" stroke="#b6ecf3" points="892.1,-444.5 902.7,-444.69 894.54,-437.93 892.1,-444.5"/>
</g>
<!-- shekels.server.app -->
<g id="node8" class="node">
<title>shekels.server.app</title>
<polygon fill="#343434" stroke="#343434" points="1861,-419 1696,-419 1696,-383 1861,-383 1861,-419"/>
<text text-anchor="middle" x="1778.5" y="-397.3" font-family="Courier,monospace" font-size="14.00" fill="#b6ecf3">shekels.server.app</text>
</g>
<!-- shekels.core.config&#45;&gt;shekels.server.app -->
<g id="edge3" class="edge">
<title>shekels.core.config&#45;&gt;shekels.server.app</title>
<path fill="none" stroke="#b6ecf3" d="M475.84,-349.79C498.61,-313.57 555.36,-233.35 628,-203 712.48,-167.71 742.59,-197.86 834,-203 1203.59,-223.79 1320.76,-161.85 1660,-310 1695.75,-325.61 1730.25,-354.52 1752.51,-375.57"/>
<polygon fill="#b6ecf3" stroke="#b6ecf3" points="1750.23,-378.24 1759.86,-382.66 1755.09,-373.2 1750.23,-378.24"/>
</g>
<!-- shekels.server.components -->
<g id="node9" class="node">
<title>shekels.server.components</title>
<polygon fill="#343434" stroke="#343434" points="1109.5,-1122 886.5,-1122 886.5,-1086 1109.5,-1086 1109.5,-1122"/>
<text text-anchor="middle" x="998" y="-1100.3" font-family="Courier,monospace" font-size="14.00" fill="#b6ecf3">shekels.server.components</text>
</g>
<!-- shekels.core.config&#45;&gt;shekels.server.components -->
<g id="edge4" class="edge">
<title>shekels.core.config&#45;&gt;shekels.server.components</title>
<path fill="none" stroke="#b6ecf3" d="M531.87,-386.02C617.86,-413.04 764.37,-472.92 834,-582 918.38,-714.18 813.22,-786.82 870,-933 892.59,-991.15 940.56,-1046.92 970.65,-1078.19"/>
<polygon fill="#b6ecf3" stroke="#b6ecf3" points="968.39,-1080.9 977.89,-1085.6 973.4,-1076 968.39,-1080.9"/>
</g>
<!-- shekels.server.server_tools -->
<g id="node11" class="node">
<title>shekels.server.server_tools</title>
<polygon fill="#343434" stroke="#343434" points="1401,-897 1162,-897 1162,-861 1401,-861 1401,-897"/>
<text text-anchor="middle" x="1281.5" y="-875.3" font-family="Courier,monospace" font-size="14.00" fill="#b6ecf3">shekels.server.server_tools</text>
</g>
<!-- shekels.core.config&#45;&gt;shekels.server.server_tools -->
<g id="edge5" class="edge">
<title>shekels.core.config&#45;&gt;shekels.server.server_tools</title>
<path fill="none" stroke="#b6ecf3" d="M550.79,-378.09C656.17,-390.78 822.51,-411.88 834,-420 862.25,-439.96 849.18,-461.38 870,-489 989.08,-646.97 1174.62,-797.59 1248.54,-854.79"/>
<polygon fill="#b6ecf3" stroke="#b6ecf3" points="1246.52,-857.65 1256.58,-860.98 1250.79,-852.1 1246.52,-857.65"/>
</g>
<!-- shekels.core.data_tools&#45;&gt;shekels.core.database -->
<g id="edge6" class="edge">
<title>shekels.core.data_tools&#45;&gt;shekels.core.database</title>
<path fill="none" stroke="#b6ecf3" d="M748.98,-725.93C794.59,-677.4 919.86,-544.09 972.84,-487.71"/>
<polygon fill="#b6ecf3" stroke="#b6ecf3" points="975.52,-489.97 979.82,-480.28 970.42,-485.17 975.52,-489.97"/>
</g>
<!-- shekels.core.data_tools&#45;&gt;shekels.server.components -->
<g id="edge7" class="edge">
<title>shekels.core.data_tools&#45;&gt;shekels.server.components</title>
<path fill="none" stroke="#b6ecf3" d="M745.08,-762.02C769.53,-795.67 823.86,-870.35 870,-933 907.74,-984.25 952.14,-1043.89 977.19,-1077.46"/>
<polygon fill="#b6ecf3" stroke="#b6ecf3" points="974.63,-1079.89 983.42,-1085.81 980.24,-1075.71 974.63,-1079.89"/>
</g>
<!-- shekels.core.data_tools&#45;&gt;shekels.server.server_tools -->
<g id="edge8" class="edge">
<title>shekels.core.data_tools&#45;&gt;shekels.server.server_tools</title>
<path fill="none" stroke="#b6ecf3" d="M834.11,-761.13C914.18,-775.48 1028.06,-797.95 1126,-825 1159.1,-834.14 1195.37,-846.69 1224.45,-857.38"/>
<polygon fill="#b6ecf3" stroke="#b6ecf3" points="1223.43,-860.74 1234.02,-860.93 1225.86,-854.17 1223.43,-860.74"/>
</g>
<!-- shekels.server.api -->
<g id="node7" class="node">
<title>shekels.server.api</title>
<polygon fill="#343434" stroke="#343434" points="1631,-549 1466,-549 1466,-513 1631,-513 1631,-549"/>
<text text-anchor="middle" x="1548.5" y="-527.3" font-family="Courier,monospace" font-size="14.00" fill="#b6ecf3">shekels.server.api</text>
</g>
<!-- shekels.core.database&#45;&gt;shekels.server.api -->
<g id="edge9" class="edge">
<title>shekels.core.database&#45;&gt;shekels.server.api</title>
<path fill="none" stroke="#b6ecf3" d="M1093.35,-474.94C1115.84,-477.97 1139.77,-481.14 1162,-484 1262.32,-496.88 1377.44,-510.81 1455.57,-520.13"/>
<polygon fill="#b6ecf3" stroke="#b6ecf3" points="1455.52,-523.65 1465.87,-521.36 1456.35,-516.7 1455.52,-523.65"/>
</g>
<!-- shekels.enforce.enforce_tools -->
<g id="node6" class="node">
<title>shekels.enforce.enforce_tools</title>
<polygon fill="#343434" stroke="#343434" points="592,-754 336,-754 336,-718 592,-718 592,-754"/>
<text text-anchor="middle" x="464" y="-732.3" font-family="Courier,monospace" font-size="14.00" fill="#b6ecf3">shekels.enforce.enforce_tools</text>
</g>
<!-- shekels.enforce.enforce_tools&#45;&gt;shekels.core.data_tools -->
<g id="edge10" class="edge">
<title>shekels.enforce.enforce_tools&#45;&gt;shekels.core.data_tools</title>
<path fill="none" stroke="#b6ecf3" d="M592.07,-739.84C600.57,-740.09 609.1,-740.35 617.51,-740.6"/>
<polygon fill="#b6ecf3" stroke="#b6ecf3" points="617.62,-744.11 627.72,-740.91 617.83,-737.11 617.62,-744.11"/>
</g>
<!-- shekels.server.api&#45;&gt;shekels.server.app -->
<g id="edge11" class="edge">
<title>shekels.server.api&#45;&gt;shekels.server.app</title>
<path fill="none" stroke="#b6ecf3" d="M1581.2,-512.92C1621.84,-489.75 1692.35,-449.55 1736.88,-424.16"/>
<polygon fill="#b6ecf3" stroke="#b6ecf3" points="1738.75,-427.13 1745.7,-419.13 1735.28,-421.04 1738.75,-427.13"/>
</g>
<!-- shekels.server.components&#45;&gt;shekels.server.app -->
<g id="edge12" class="edge">
<title>shekels.server.components&#45;&gt;shekels.server.app</title>
<path fill="none" stroke="#b6ecf3" d="M1069.93,-1086C1088.49,-1080.42 1108.26,-1073.69 1126,-1066 1391.64,-950.91 1488.85,-926.49 1660,-693 1722.54,-607.68 1757.69,-484.41 1771.11,-429.39"/>
<polygon fill="#b6ecf3" stroke="#b6ecf3" points="1774.59,-429.86 1773.5,-419.32 1767.78,-428.24 1774.59,-429.86"/>
</g>
<!-- shekels.server.components&#45;&gt;shekels.server.server_tools -->
<g id="edge13" class="edge">
<title>shekels.server.components&#45;&gt;shekels.server.server_tools</title>
<path fill="none" stroke="#b6ecf3" d="M1103.12,-1085.93C1111.31,-1082.13 1119.07,-1077.54 1126,-1072 1153.64,-1049.91 1141.44,-1029.79 1162,-1001 1188.43,-963.98 1225.97,-927.33 1251.67,-904.02"/>
<polygon fill="#b6ecf3" stroke="#b6ecf3" points="1254.14,-906.51 1259.24,-897.22 1249.46,-901.3 1254.14,-906.51"/>
</g>
<!-- shekels.server.event_listener -->
<g id="node10" class="node">
<title>shekels.server.event_listener</title>
<polygon fill="#343434" stroke="#343434" points="1126,-1252 870,-1252 870,-1216 1126,-1216 1126,-1252"/>
<text text-anchor="middle" x="998" y="-1230.3" font-family="Courier,monospace" font-size="14.00" fill="#b6ecf3">shekels.server.event_listener</text>
</g>
<!-- shekels.server.event_listener&#45;&gt;shekels.server.app -->
<g id="edge14" class="edge">
<title>shekels.server.event_listener&#45;&gt;shekels.server.app</title>
<path fill="none" stroke="#b6ecf3" d="M1055.15,-1252.1C1181.33,-1288.91 1489.6,-1356.58 1660,-1202 1776.83,-1096.02 1779.12,-560.11 1777.91,-429.66"/>
<polygon fill="#b6ecf3" stroke="#b6ecf3" points="1781.41,-429.27 1777.8,-419.3 1774.41,-429.34 1781.41,-429.27"/>
</g>
<!-- shekels.server.server_tools&#45;&gt;shekels.server.api -->
<g id="edge15" class="edge">
<title>shekels.server.server_tools&#45;&gt;shekels.server.api</title>
<path fill="none" stroke="#b6ecf3" d="M1340.06,-860.99C1361.68,-851.74 1384.9,-838.43 1401,-820 1433.74,-782.53 1416.02,-759.11 1437,-714 1464.08,-655.77 1505.04,-592.65 1528.74,-557.85"/>
<polygon fill="#b6ecf3" stroke="#b6ecf3" points="1531.89,-559.45 1534.66,-549.23 1526.11,-555.49 1531.89,-559.45"/>
</g>
<!-- shekels.server.server_tools&#45;&gt;shekels.server.app -->
<g id="edge16" class="edge">
<title>shekels.server.server_tools&#45;&gt;shekels.server.app</title>
<path fill="none" stroke="#b6ecf3" d="M1327.24,-860.94C1350.31,-850.61 1378.29,-836.44 1401,-820 1565.1,-701.22 1710.14,-500.33 1759.52,-427.98"/>
<polygon fill="#b6ecf3" stroke="#b6ecf3" points="1762.61,-429.66 1765.33,-419.42 1756.82,-425.73 1762.61,-429.66"/>
</g>
<!-- click -->
<g id="node12" class="node">
<title>click</title>
<polygon fill="#343434" stroke="#343434" points="66,-1374 8,-1374 8,-1338 66,-1338 66,-1374"/>
<text text-anchor="middle" x="37" y="-1352.3" font-family="Courier,monospace" font-size="14.00" fill="#de958e">click</text>
</g>
<!-- click&#45;&gt;shekels.command -->
<g id="edge17" class="edge">
<title>click&#45;&gt;shekels.command</title>
<path fill="none" stroke="#de958e" d="M66.16,-1356C82.38,-1356 103.65,-1356 124.61,-1356"/>
<polygon fill="#de958e" stroke="#de958e" points="124.86,-1359.5 134.86,-1356 124.86,-1352.5 124.86,-1359.5"/>
</g>
<!-- shekels.server -->
<g id="node13" class="node">
<title>shekels.server</title>
<polygon fill="#343434" stroke="#343434" points="797,-1336 665,-1336 665,-1300 797,-1300 797,-1336"/>
<text text-anchor="middle" x="731" y="-1314.3" font-family="Courier,monospace" font-size="14.00" fill="#a0d17b">shekels.server</text>
</g>
<!-- shekels.server&#45;&gt;shekels.server.api -->
<g id="edge18" class="edge">
<title>shekels.server&#45;&gt;shekels.server.api</title>
<path fill="none" stroke="#a0d17b" d="M797.08,-1330.29C879.3,-1342.35 1022.54,-1351.54 1126,-1294 1419.7,-1130.67 1521.03,-676.57 1542.73,-559.05"/>
<polygon fill="#a0d17b" stroke="#a0d17b" points="1546.2,-559.51 1544.53,-549.05 1539.31,-558.27 1546.2,-559.51"/>
</g>
<!-- shekels.server&#45;&gt;shekels.server.app -->
<g id="edge19" class="edge">
<title>shekels.server&#45;&gt;shekels.server.app</title>
<path fill="none" stroke="#a0d17b" d="M786.18,-1336.02C946.54,-1385.58 1422.34,-1504.67 1660,-1261 1778.59,-1139.41 1779.44,-565.17 1777.95,-429.69"/>
<polygon fill="#a0d17b" stroke="#a0d17b" points="1781.44,-429.28 1777.82,-419.32 1774.44,-429.37 1781.44,-429.28"/>
</g>
<!-- shekels.server&#45;&gt;shekels.server.components -->
<g id="edge20" class="edge">
<title>shekels.server&#45;&gt;shekels.server.components</title>
<path fill="none" stroke="#a0d17b" d="M766.64,-1299.87C787.4,-1288.08 813.63,-1271.49 834,-1253 853.22,-1235.55 851.8,-1225.52 870,-1207 899.09,-1177.4 936.37,-1148.02 963,-1128.26"/>
<polygon fill="#a0d17b" stroke="#a0d17b" points="965.26,-1130.94 971.24,-1122.2 961.11,-1125.3 965.26,-1130.94"/>
</g>
<!-- shekels.server&#45;&gt;shekels.server.event_listener -->
<g id="edge21" class="edge">
<title>shekels.server&#45;&gt;shekels.server.event_listener</title>
<path fill="none" stroke="#a0d17b" d="M796.39,-1299.99C809.03,-1295.84 822.06,-1291.13 834,-1286 850.82,-1278.78 852.98,-1272.74 870,-1266 880.38,-1261.89 891.46,-1258.18 902.57,-1254.86"/>
<polygon fill="#a0d17b" stroke="#a0d17b" points="903.7,-1258.18 912.34,-1252.05 901.76,-1251.46 903.7,-1258.18"/>
</g>
<!-- shekels.server&#45;&gt;shekels.server.server_tools -->
<g id="edge22" class="edge">
<title>shekels.server&#45;&gt;shekels.server.server_tools</title>
<path fill="none" stroke="#a0d17b" d="M797.17,-1310.43C905.91,-1297.55 1113.72,-1271.7 1126,-1261 1169.58,-1223.01 1141.84,-1190.18 1162,-1136 1193.99,-1050.02 1242.36,-952.74 1266.19,-906.39"/>
<polygon fill="#a0d17b" stroke="#a0d17b" points="1269.41,-907.78 1270.89,-897.29 1263.19,-904.57 1269.41,-907.78"/>
</g>
<!-- shekels -->
<g id="node14" class="node">
<title>shekels</title>
<polygon fill="#343434" stroke="#343434" points="74,-1041 0,-1041 0,-1005 74,-1005 74,-1041"/>
<text text-anchor="middle" x="37" y="-1019.3" font-family="Courier,monospace" font-size="14.00" fill="#a0d17b">shekels</text>
</g>
<!-- shekels&#45;&gt;shekels.command -->
<g id="edge23" class="edge">
<title>shekels&#45;&gt;shekels.command</title>
<path fill="none" stroke="#a0d17b" d="M40.05,-1041.21C46.98,-1099.72 71.29,-1281.49 110,-1324 114.6,-1329.05 120.03,-1333.31 125.92,-1336.89"/>
<polygon fill="#a0d17b" stroke="#a0d17b" points="124.38,-1340.03 134.84,-1341.67 127.69,-1333.86 124.38,-1340.03"/>
</g>
<!-- shekels&#45;&gt;shekels.server -->
<g id="edge24" class="edge">
<title>shekels&#45;&gt;shekels.server</title>
<path fill="none" stroke="#a0d17b" d="M49.5,-1041.16C62.42,-1060.51 84.92,-1091.18 110,-1112 273.15,-1247.42 528.63,-1294.91 654.6,-1310.68"/>
<polygon fill="#a0d17b" stroke="#a0d17b" points="654.19,-1314.16 664.54,-1311.89 655.04,-1307.21 654.19,-1314.16"/>
</g>
<!-- shekels.enforce -->
<g id="node17" class="node">
<title>shekels.enforce</title>
<polygon fill="#343434" stroke="#343434" points="275,-791 135,-791 135,-755 275,-755 275,-791"/>
<text text-anchor="middle" x="205" y="-769.3" font-family="Courier,monospace" font-size="14.00" fill="#a0d17b">shekels.enforce</text>
</g>
<!-- shekels&#45;&gt;shekels.enforce -->
<g id="edge25" class="edge">
<title>shekels&#45;&gt;shekels.enforce</title>
<path fill="none" stroke="#a0d17b" d="M65.86,-1004.75C68.85,-1002.05 71.65,-999.12 74,-996 101.14,-959.91 88.44,-940.67 110,-901 130.58,-863.13 161.08,-823.78 181.71,-798.88"/>
<polygon fill="#a0d17b" stroke="#a0d17b" points="184.56,-800.93 188.3,-791.01 179.19,-796.43 184.56,-800.93"/>
</g>
<!-- shekels.core -->
<g id="node20" class="node">
<title>shekels.core</title>
<polygon fill="#343434" stroke="#343434" points="263,-413 147,-413 147,-377 263,-377 263,-413"/>
<text text-anchor="middle" x="205" y="-391.3" font-family="Courier,monospace" font-size="14.00" fill="#a0d17b">shekels.core</text>
</g>
<!-- shekels&#45;&gt;shekels.core -->
<g id="edge26" class="edge">
<title>shekels&#45;&gt;shekels.core</title>
<path fill="none" stroke="#a0d17b" d="M67.48,-1004.69C70.04,-1002.06 72.29,-999.16 74,-996 134.71,-883.53 29.95,-521.63 110,-422 117,-413.28 126.62,-407.27 137.05,-403.13"/>
<polygon fill="#a0d17b" stroke="#a0d17b" points="138.44,-406.36 146.8,-399.85 136.2,-399.73 138.44,-406.36"/>
</g>
<!-- flasgger -->
<g id="node15" class="node">
<title>flasgger</title>
<polygon fill="#343434" stroke="#343434" points="1323,-442 1240,-442 1240,-406 1323,-406 1323,-442"/>
<text text-anchor="middle" x="1281.5" y="-420.3" font-family="Courier,monospace" font-size="14.00" fill="#de958e">flasgger</text>
</g>
<!-- flasgger&#45;&gt;shekels.server.api -->
<g id="edge27" class="edge">
<title>flasgger&#45;&gt;shekels.server.api</title>
<path fill="none" stroke="#de958e" d="M1323.21,-432.76C1346.39,-438.3 1375.75,-446.25 1401,-456 1438.52,-470.49 1479.07,-491.72 1507.98,-507.9"/>
<polygon fill="#de958e" stroke="#de958e" points="1506.51,-511.09 1516.94,-512.96 1509.95,-504.99 1506.51,-511.09"/>
</g>
<!-- flasgger&#45;&gt;shekels.server.app -->
<g id="edge28" class="edge">
<title>flasgger&#45;&gt;shekels.server.app</title>
<path fill="none" stroke="#de958e" d="M1323.01,-422.12C1401.74,-418.46 1577.2,-410.31 1685.62,-405.27"/>
<polygon fill="#de958e" stroke="#de958e" points="1686.07,-408.75 1695.9,-404.79 1685.75,-401.76 1686.07,-408.75"/>
</g>
<!-- dash -->
<g id="node16" class="node">
<title>dash</title>
<polygon fill="#343434" stroke="#343434" points="758,-1244 704,-1244 704,-1208 758,-1208 758,-1244"/>
<text text-anchor="middle" x="731" y="-1222.3" font-family="Courier,monospace" font-size="14.00" fill="#de958e">dash</text>
</g>
<!-- dash&#45;&gt;shekels.server.app -->
<g id="edge29" class="edge">
<title>dash&#45;&gt;shekels.server.app</title>
<path fill="none" stroke="#de958e" d="M758.03,-1222.31C843.1,-1210.2 1108.48,-1172.15 1126,-1166 1393.28,-1072.15 1498.29,-1050.59 1660,-818 1748.01,-691.41 1770.41,-500.2 1775.85,-429.01"/>
<polygon fill="#de958e" stroke="#de958e" points="1779.34,-429.24 1776.56,-419.02 1772.36,-428.74 1779.34,-429.24"/>
</g>
<!-- dash&#45;&gt;shekels.server.components -->
<g id="edge30" class="edge">
<title>dash&#45;&gt;shekels.server.components</title>
<path fill="none" stroke="#de958e" d="M758.23,-1222.93C780.35,-1219.22 811.85,-1211.17 834,-1194 857.97,-1175.41 845.5,-1153.9 870,-1136 874.88,-1132.43 880.12,-1129.26 885.58,-1126.44"/>
<polygon fill="#de958e" stroke="#de958e" points="887.42,-1129.45 894.98,-1122.02 884.44,-1123.11 887.42,-1129.45"/>
</g>
<!-- dash&#45;&gt;shekels.server.event_listener -->
<g id="edge31" class="edge">
<title>dash&#45;&gt;shekels.server.event_listener</title>
<path fill="none" stroke="#de958e" d="M758.38,-1226.8C782.71,-1227.53 820.83,-1228.68 859.52,-1229.85"/>
<polygon fill="#de958e" stroke="#de958e" points="859.79,-1233.36 869.89,-1230.16 860,-1226.36 859.79,-1233.36"/>
</g>
<!-- dash&#45;&gt;shekels.server.server_tools -->
<g id="edge32" class="edge">
<title>dash&#45;&gt;shekels.server.server_tools</title>
<path fill="none" stroke="#de958e" d="M758.09,-1219.39C779.02,-1213.72 808.93,-1204.76 834,-1194 850.82,-1186.78 852.72,-1180.05 870,-1174 978.89,-1135.88 1030.37,-1195.53 1126,-1131 1208.15,-1075.56 1254.28,-960.35 1271.99,-907.1"/>
<polygon fill="#de958e" stroke="#de958e" points="1275.4,-907.91 1275.15,-897.32 1268.74,-905.76 1275.4,-907.91"/>
</g>
<!-- shekels.enforce&#45;&gt;shekels.enforce.enforce_tools -->
<g id="edge33" class="edge">
<title>shekels.enforce&#45;&gt;shekels.enforce.enforce_tools</title>
<path fill="none" stroke="#a0d17b" d="M275.21,-763.04C291.52,-760.69 309.46,-758.11 327.58,-755.5"/>
<polygon fill="#a0d17b" stroke="#a0d17b" points="328.26,-758.93 337.66,-754.05 327.26,-752.01 328.26,-758.93"/>
</g>
<!-- flask -->
<g id="node18" class="node">
<title>flask</title>
<polygon fill="#343434" stroke="#343434" points="760,-248 702,-248 702,-212 760,-212 760,-248"/>
<text text-anchor="middle" x="731" y="-226.3" font-family="Courier,monospace" font-size="14.00" fill="#de958e">flask</text>
</g>
<!-- flask&#45;&gt;shekels.server.api -->
<g id="edge34" class="edge">
<title>flask&#45;&gt;shekels.server.api</title>
<path fill="none" stroke="#de958e" d="M760.37,-235.36C781.22,-239.81 809.98,-247.03 834,-257 851.11,-264.1 852.52,-271.86 870,-278 978.53,-316.11 1040.19,-239.4 1126,-316 1172.32,-357.35 1115.47,-409.88 1162,-451 1202.18,-486.5 1348.72,-472.1 1401,-484 1430.46,-490.71 1462.49,-500.66 1489.06,-509.69"/>
<polygon fill="#de958e" stroke="#de958e" points="1487.99,-513.02 1498.59,-512.96 1490.27,-506.4 1487.99,-513.02"/>
</g>
<!-- flask&#45;&gt;shekels.server.app -->
<g id="edge35" class="edge">
<title>flask&#45;&gt;shekels.server.app</title>
<path fill="none" stroke="#de958e" d="M760.13,-231.67C874.08,-238.91 1311.82,-271.24 1660,-359 1681.3,-364.37 1704.16,-372.08 1724.01,-379.42"/>
<polygon fill="#de958e" stroke="#de958e" points="1722.9,-382.74 1733.49,-382.99 1725.36,-376.19 1722.9,-382.74"/>
</g>
<!-- flask&#45;&gt;shekels.server.components -->
<g id="edge36" class="edge">
<title>flask&#45;&gt;shekels.server.components</title>
<path fill="none" stroke="#de958e" d="M760.13,-229.05C783.77,-229.93 816.44,-235.4 834,-257 881.45,-315.36 844.49,-862.24 870,-933 891.16,-991.69 939.58,-1047.29 970.15,-1078.38"/>
<polygon fill="#de958e" stroke="#de958e" points="967.96,-1081.15 977.51,-1085.75 972.91,-1076.2 967.96,-1081.15"/>
</g>
<!-- flask&#45;&gt;shekels.server.server_tools -->
<g id="edge37" class="edge">
<title>flask&#45;&gt;shekels.server.server_tools</title>
<path fill="none" stroke="#de958e" d="M760.44,-231.81C782.4,-234.48 812.56,-241.01 834,-257 858.62,-275.37 845.52,-297.45 870,-316 964.19,-387.39 1041.15,-305.72 1126,-388 1134.76,-396.5 1241.11,-748.16 1272.09,-851.02"/>
<polygon fill="#de958e" stroke="#de958e" points="1268.77,-852.15 1275.01,-860.71 1275.47,-850.13 1268.77,-852.15"/>
</g>
<!-- dash.dependencies -->
<g id="node19" class="node">
<title>dash.dependencies</title>
<polygon fill="#343434" stroke="#343434" points="1627,-198 1470,-198 1470,-162 1627,-162 1627,-198"/>
<text text-anchor="middle" x="1548.5" y="-176.3" font-family="Courier,monospace" font-size="14.00" fill="#de958e">dash.dependencies</text>
</g>
<!-- dash.dependencies&#45;&gt;shekels.server.app -->
<g id="edge38" class="edge">
<title>dash.dependencies&#45;&gt;shekels.server.app</title>
<path fill="none" stroke="#de958e" d="M1627.26,-194.61C1638.93,-198.98 1650.29,-204.64 1660,-212 1716.05,-254.46 1751.79,-332.07 1767.77,-373.39"/>
<polygon fill="#de958e" stroke="#de958e" points="1764.53,-374.71 1771.32,-382.83 1771.08,-372.24 1764.53,-374.71"/>
</g>
<!-- shekels.core&#45;&gt;shekels.core.config -->
<g id="edge39" class="edge">
<title>shekels.core&#45;&gt;shekels.core.config</title>
<path fill="none" stroke="#a0d17b" d="M263.04,-389.01C293.59,-385.8 332.05,-381.76 367.05,-378.08"/>
<polygon fill="#a0d17b" stroke="#a0d17b" points="367.73,-381.53 377.31,-377 366.99,-374.57 367.73,-381.53"/>
</g>
<!-- shekels.core&#45;&gt;shekels.core.data_tools -->
<g id="edge40" class="edge">
<title>shekels.core&#45;&gt;shekels.core.data_tools</title>
<path fill="none" stroke="#a0d17b" d="M263.49,-401.31C277.02,-405.33 290.31,-411.77 300,-422 349.23,-473.98 283.44,-530.39 336,-579 420.45,-657.1 488.21,-567.42 592,-617 641.41,-640.6 685.46,-688.01 709.87,-717.75"/>
<polygon fill="#a0d17b" stroke="#a0d17b" points="707.22,-720.05 716.22,-725.64 712.67,-715.66 707.22,-720.05"/>
</g>
<!-- shekels.core&#45;&gt;shekels.core.database -->
<g id="edge41" class="edge">
<title>shekels.core&#45;&gt;shekels.core.database</title>
<path fill="none" stroke="#a0d17b" d="M263.42,-382.1C275.81,-378.34 288.6,-373.67 300,-368 317.91,-359.09 317.03,-347.32 336,-341 388.5,-323.5 787.88,-318.41 834,-349 865.82,-370.11 840.89,-402.3 870,-427 877.04,-432.98 885.03,-437.94 893.48,-442.06"/>
<polygon fill="#a0d17b" stroke="#a0d17b" points="892.25,-445.34 902.81,-446.2 895.09,-438.94 892.25,-445.34"/>
</g>
<!-- dash.exceptions -->
<g id="node21" class="node">
<title>dash.exceptions</title>
<polygon fill="#343434" stroke="#343434" points="1068,-870 928,-870 928,-834 1068,-834 1068,-870"/>
<text text-anchor="middle" x="998" y="-848.3" font-family="Courier,monospace" font-size="14.00" fill="#de958e">dash.exceptions</text>
</g>
<!-- dash.exceptions&#45;&gt;shekels.server.server_tools -->
<g id="edge42" class="edge">
<title>dash.exceptions&#45;&gt;shekels.server.server_tools</title>
<path fill="none" stroke="#de958e" d="M1068.22,-858.64C1093.49,-861.06 1122.94,-863.89 1151.72,-866.65"/>
<polygon fill="#de958e" stroke="#de958e" points="1151.58,-870.15 1161.87,-867.62 1152.25,-863.18 1151.58,-870.15"/>
</g>
<!-- lunchbox.enforce -->
<g id="node22" class="node">
<title>lunchbox.enforce</title>
<polygon fill="#343434" stroke="#343434" points="279.5,-1103 130.5,-1103 130.5,-1067 279.5,-1067 279.5,-1103"/>
<text text-anchor="middle" x="205" y="-1081.3" font-family="Courier,monospace" font-size="14.00" fill="#de958e">lunchbox.enforce</text>
</g>
<!-- lunchbox.enforce&#45;&gt;shekels.core.data_tools -->
<g id="edge43" class="edge">
<title>lunchbox.enforce&#45;&gt;shekels.core.data_tools</title>
<path fill="none" stroke="#de958e" d="M224.72,-1066.96C248.69,-1044.76 292.38,-1007.27 336,-985 441.7,-931.02 492.82,-974.18 592,-909 647.38,-872.6 692.3,-807.38 714.64,-770.78"/>
<polygon fill="#de958e" stroke="#de958e" points="717.69,-772.51 719.83,-762.13 711.68,-768.91 717.69,-772.51"/>
</g>
<!-- lunchbox.enforce&#45;&gt;shekels.enforce.enforce_tools -->
<g id="edge44" class="edge">
<title>lunchbox.enforce&#45;&gt;shekels.enforce.enforce_tools</title>
<path fill="none" stroke="#de958e" d="M222.93,-1066.69C244.11,-1042.8 280.01,-998.84 300,-955 329.16,-891.05 292.7,-856.37 336,-801 350.75,-782.13 372.48,-768.25 393.81,-758.27"/>
<polygon fill="#de958e" stroke="#de958e" points="395.5,-761.35 403.22,-754.09 392.66,-754.95 395.5,-761.35"/>
</g>
<!-- lunchbox.enforce&#45;&gt;shekels.server.components -->
<g id="edge45" class="edge">
<title>lunchbox.enforce&#45;&gt;shekels.server.components</title>
<path fill="none" stroke="#de958e" d="M227.25,-1103.04C251.66,-1122.47 293.78,-1152.18 336,-1164 442.58,-1193.84 730.24,-1194.53 834,-1156 853.26,-1148.85 851.31,-1135.54 870,-1127 872.32,-1125.94 874.68,-1124.93 877.08,-1123.97"/>
<polygon fill="#de958e" stroke="#de958e" points="878.34,-1127.23 886.5,-1120.47 875.9,-1120.67 878.34,-1127.23"/>
</g>
<!-- lunchbox.enforce&#45;&gt;shekels.server.event_listener -->
<g id="edge46" class="edge">
<title>lunchbox.enforce&#45;&gt;shekels.server.event_listener</title>
<path fill="none" stroke="#de958e" d="M223.55,-1103.3C246.97,-1126.61 290.77,-1166.45 336,-1188 502.8,-1267.45 720.47,-1265.32 859.53,-1252.69"/>
<polygon fill="#de958e" stroke="#de958e" points="860.2,-1256.15 869.82,-1251.73 859.54,-1249.18 860.2,-1256.15"/>
</g>
<!-- numpy -->
<g id="node23" class="node">
<title>numpy</title>
<polygon fill="#343434" stroke="#343434" points="493,-516 435,-516 435,-480 493,-480 493,-516"/>
<text text-anchor="middle" x="464" y="-494.3" font-family="Courier,monospace" font-size="14.00" fill="#de958e">numpy</text>
</g>
<!-- numpy&#45;&gt;shekels.core.data_tools -->
<g id="edge47" class="edge">
<title>numpy&#45;&gt;shekels.core.data_tools</title>
<path fill="none" stroke="#de958e" d="M493.18,-496.86C521.26,-497.21 564.09,-501.98 592,-525 623.65,-551.11 607.41,-574.51 628,-610 651.3,-650.16 684.94,-692.07 707.13,-718.09"/>
<polygon fill="#de958e" stroke="#de958e" points="704.73,-720.67 713.91,-725.96 710.04,-716.1 704.73,-720.67"/>
</g>
<!-- numpy&#45;&gt;shekels.core.database -->
<g id="edge48" class="edge">
<title>numpy&#45;&gt;shekels.core.database</title>
<path fill="none" stroke="#de958e" d="M493.23,-496.09C566.88,-491.11 767.8,-477.51 892.5,-469.07"/>
<polygon fill="#de958e" stroke="#de958e" points="893.1,-472.54 902.84,-468.37 892.62,-465.56 893.1,-472.54"/>
</g>
<!-- pandas -->
<g id="node24" class="node">
<title>pandas</title>
<polygon fill="#343434" stroke="#343434" points="238,-672 172,-672 172,-636 238,-636 238,-672"/>
<text text-anchor="middle" x="205" y="-650.3" font-family="Courier,monospace" font-size="14.00" fill="#de958e">pandas</text>
</g>
<!-- pandas&#45;&gt;shekels.core.data_tools -->
<g id="edge49" class="edge">
<title>pandas&#45;&gt;shekels.core.data_tools</title>
<path fill="none" stroke="#de958e" d="M238.04,-658.12C317.86,-668.44 524.01,-695.58 592,-709 612.53,-713.05 634.57,-718.25 654.87,-723.4"/>
<polygon fill="#de958e" stroke="#de958e" points="654.14,-726.82 664.69,-725.91 655.87,-720.04 654.14,-726.82"/>
</g>
<!-- pandas&#45;&gt;shekels.core.database -->
<g id="edge50" class="edge">
<title>pandas&#45;&gt;shekels.core.database</title>
<path fill="none" stroke="#de958e" d="M214.13,-635.74C235.91,-587.76 296.56,-460.29 336,-438 428.22,-385.87 730.88,-421.35 892.73,-445.23"/>
<polygon fill="#de958e" stroke="#de958e" points="892.3,-448.71 902.7,-446.72 893.33,-441.79 892.3,-448.71"/>
</g>
<!-- pandas&#45;&gt;shekels.enforce.enforce_tools -->
<g id="edge51" class="edge">
<title>pandas&#45;&gt;shekels.enforce.enforce_tools</title>
<path fill="none" stroke="#de958e" d="M238.2,-667.63C264.28,-678.37 302.12,-693.26 336,-704 348.52,-707.97 361.86,-711.78 375.01,-715.29"/>
<polygon fill="#de958e" stroke="#de958e" points="374.45,-718.77 385.01,-717.92 376.23,-712 374.45,-718.77"/>
</g>
<!-- pandas&#45;&gt;shekels.server.components -->
<g id="edge52" class="edge">
<title>pandas&#45;&gt;shekels.server.components</title>
<path fill="none" stroke="#de958e" d="M212.33,-635.82C226.96,-596.97 267.26,-506.49 336,-471 386.55,-444.9 540.73,-446.36 592,-471 615.08,-482.1 610.8,-497.02 628,-516 713.89,-610.79 774.77,-603.62 834,-717 879.06,-803.26 831.92,-843.43 870,-933 894.54,-990.73 942.32,-1047.03 971.76,-1078.45"/>
<polygon fill="#de958e" stroke="#de958e" points="969.41,-1081.05 978.83,-1085.89 974.48,-1076.23 969.41,-1081.05"/>
</g>
<!-- rolling_pin.blob_etl -->
<g id="node25" class="node">
<title>rolling_pin.blob_etl</title>
<polygon fill="#343434" stroke="#343434" points="555,-1122 373,-1122 373,-1086 555,-1086 555,-1122"/>
<text text-anchor="middle" x="464" y="-1100.3" font-family="Courier,monospace" font-size="14.00" fill="#de958e">rolling_pin.blob_etl</text>
</g>
<!-- rolling_pin.blob_etl&#45;&gt;shekels.core.data_tools -->
<g id="edge53" class="edge">
<title>rolling_pin.blob_etl&#45;&gt;shekels.core.data_tools</title>
<path fill="none" stroke="#de958e" d="M518.55,-1085.9C543.38,-1075.35 571.79,-1059.94 592,-1039 668.89,-959.33 708.89,-828.95 723.45,-772.04"/>
<polygon fill="#de958e" stroke="#de958e" points="726.86,-772.85 725.88,-762.3 720.07,-771.16 726.86,-772.85"/>
</g>
<!-- rolling_pin.blob_etl&#45;&gt;shekels.server.components -->
<g id="edge54" class="edge">
<title>rolling_pin.blob_etl&#45;&gt;shekels.server.components</title>
<path fill="none" stroke="#de958e" d="M555.25,-1104C643.58,-1104 778.7,-1104 876.25,-1104"/>
<polygon fill="#de958e" stroke="#de958e" points="876.46,-1107.5 886.46,-1104 876.46,-1100.5 876.46,-1107.5"/>
</g>
<!-- rolling_pin.blob_etl&#45;&gt;shekels.server.server_tools -->
<g id="edge55" class="edge">
<title>rolling_pin.blob_etl&#45;&gt;shekels.server.server_tools</title>
<path fill="none" stroke="#de958e" d="M555.28,-1097.81C724.22,-1085.72 1075.68,-1058.08 1126,-1034 1134.1,-1030.12 1214.57,-947.36 1256.05,-904.4"/>
<polygon fill="#de958e" stroke="#de958e" points="1258.65,-906.74 1263.07,-897.12 1253.61,-901.88 1258.65,-906.74"/>
</g>
<!-- schematics.exceptions -->
<g id="node26" class="node">
<title>schematics.exceptions</title>
<polygon fill="#343434" stroke="#343434" points="300,-946 110,-946 110,-910 300,-910 300,-946"/>
<text text-anchor="middle" x="205" y="-924.3" font-family="Courier,monospace" font-size="14.00" fill="#de958e">schematics.exceptions</text>
</g>
<!-- schematics.exceptions&#45;&gt;shekels.core.config -->
<g id="edge56" class="edge">
<title>schematics.exceptions&#45;&gt;shekels.core.config</title>
<path fill="none" stroke="#de958e" d="M224.16,-909.97C246.28,-886.78 282.8,-844.19 300,-800 353.36,-662.92 265.58,-600.15 336,-471 354.84,-436.44 390.53,-409.1 419.29,-391.3"/>
<polygon fill="#de958e" stroke="#de958e" points="421.2,-394.24 427.96,-386.08 417.59,-388.24 421.2,-394.24"/>
</g>
<!-- schematics.exceptions&#45;&gt;shekels.core.data_tools -->
<g id="edge57" class="edge">
<title>schematics.exceptions&#45;&gt;shekels.core.data_tools</title>
<path fill="none" stroke="#de958e" d="M218.71,-909.61C239.56,-881.07 283.95,-826.71 336,-801 339.2,-799.42 502.55,-776.11 617.89,-759.8"/>
<polygon fill="#de958e" stroke="#de958e" points="618.44,-763.26 627.85,-758.39 617.46,-756.32 618.44,-763.26"/>
</g>
<!-- schematics.exceptions&#45;&gt;shekels.server.api -->
<g id="edge58" class="edge">
<title>schematics.exceptions&#45;&gt;shekels.server.api</title>
<path fill="none" stroke="#de958e" d="M300,-932.23C378.91,-933.69 494.11,-930.88 592,-909 988.37,-820.39 1052.48,-691.8 1437,-561 1446.32,-557.83 1456.16,-554.77 1465.98,-551.88"/>
<polygon fill="#de958e" stroke="#de958e" points="1467.13,-555.19 1475.77,-549.06 1465.19,-548.47 1467.13,-555.19"/>
</g>
<!-- schematics.exceptions&#45;&gt;shekels.server.components -->
<g id="edge59" class="edge">
<title>schematics.exceptions&#45;&gt;shekels.server.components</title>
<path fill="none" stroke="#de958e" d="M220.72,-946.27C240.16,-970.83 274.85,-1016.25 300,-1058 318.66,-1088.99 305.28,-1111.9 336,-1131 424.37,-1185.95 718.82,-1149.58 883.33,-1123.64"/>
<polygon fill="#de958e" stroke="#de958e" points="884.16,-1127.05 893.49,-1122.02 883.06,-1120.14 884.16,-1127.05"/>
</g>
<!-- schematics.exceptions&#45;&gt;shekels.server.server_tools -->
<g id="edge60" class="edge">
<title>schematics.exceptions&#45;&gt;shekels.server.server_tools</title>
<path fill="none" stroke="#de958e" d="M219.96,-946.21C241.48,-972.62 285.6,-1020.41 336,-1039 442.75,-1078.37 478.47,-1046.51 592,-1039 711.45,-1031.09 1017.16,-1017.84 1126,-968 1145.46,-959.09 1144.18,-947.87 1162,-936 1181.94,-922.72 1205.44,-910.75 1226.23,-901.25"/>
<polygon fill="#de958e" stroke="#de958e" points="1227.88,-904.35 1235.58,-897.06 1225.02,-897.96 1227.88,-904.35"/>
</g>
<!-- pyparsing -->
<g id="node27" class="node">
<title>pyparsing</title>
<polygon fill="#343434" stroke="#343434" points="509.5,-900 418.5,-900 418.5,-864 509.5,-864 509.5,-900"/>
<text text-anchor="middle" x="464" y="-878.3" font-family="Courier,monospace" font-size="14.00" fill="#de958e">pyparsing</text>
</g>
<!-- pyparsing&#45;&gt;shekels.core.data_tools -->
<g id="edge61" class="edge">
<title>pyparsing&#45;&gt;shekels.core.data_tools</title>
<path fill="none" stroke="#de958e" d="M509.55,-877.7C534.68,-874.02 566.14,-867.28 592,-855 636.99,-833.63 680.31,-794.85 706.05,-769.26"/>
<polygon fill="#de958e" stroke="#de958e" points="708.59,-771.66 713.14,-762.09 703.62,-766.74 708.59,-771.66"/>
</g>
<!-- cufflinks -->
<g id="node28" class="node">
<title>cufflinks</title>
<polygon fill="#343434" stroke="#343434" points="509.5,-846 418.5,-846 418.5,-810 509.5,-810 509.5,-846"/>
<text text-anchor="middle" x="464" y="-824.3" font-family="Courier,monospace" font-size="14.00" fill="#de958e">cufflinks</text>
</g>
<!-- cufflinks&#45;&gt;shekels.core.data_tools -->
<g id="edge62" class="edge">
<title>cufflinks&#45;&gt;shekels.core.data_tools</title>
<path fill="none" stroke="#de958e" d="M509.72,-818.04C534.21,-812.26 564.99,-804.46 592,-796 620.27,-787.14 651.18,-775.67 676.57,-765.75"/>
<polygon fill="#de958e" stroke="#de958e" points="677.99,-768.96 686.01,-762.04 675.42,-762.44 677.99,-768.96"/>
</g>
<!-- pandasql -->
<g id="node29" class="node">
<title>pandasql</title>
<polygon fill="#343434" stroke="#343434" points="505.5,-570 422.5,-570 422.5,-534 505.5,-534 505.5,-570"/>
<text text-anchor="middle" x="464" y="-548.3" font-family="Courier,monospace" font-size="14.00" fill="#de958e">pandasql</text>
</g>
<!-- pandasql&#45;&gt;shekels.core.data_tools -->
<g id="edge63" class="edge">
<title>pandasql&#45;&gt;shekels.core.data_tools</title>
<path fill="none" stroke="#de958e" d="M505.79,-555.88C531.99,-559.86 565.88,-567.88 592,-584 647.02,-617.96 691.69,-681 714.18,-716.98"/>
<polygon fill="#de958e" stroke="#de958e" points="711.47,-719.24 719.68,-725.94 717.43,-715.58 711.47,-719.24"/>
</g>
<!-- pandasql&#45;&gt;shekels.server.api -->
<g id="edge64" class="edge">
<title>pandasql&#45;&gt;shekels.server.api</title>
<path fill="none" stroke="#de958e" d="M505.79,-551.21C662.96,-548.16 1231.73,-537.13 1455.83,-532.78"/>
<polygon fill="#de958e" stroke="#de958e" points="1455.99,-536.28 1465.92,-532.58 1455.85,-529.28 1455.99,-536.28"/>
</g>
<!-- schematics.models -->
<g id="node30" class="node">
<title>schematics.models</title>
<polygon fill="#343434" stroke="#343434" points="283.5,-359 126.5,-359 126.5,-323 283.5,-323 283.5,-359"/>
<text text-anchor="middle" x="205" y="-337.3" font-family="Courier,monospace" font-size="14.00" fill="#de958e">schematics.models</text>
</g>
<!-- schematics.models&#45;&gt;shekels.core.config -->
<g id="edge65" class="edge">
<title>schematics.models&#45;&gt;shekels.core.config</title>
<path fill="none" stroke="#de958e" d="M283.81,-349.17C310.12,-351.94 339.82,-355.06 367.35,-357.95"/>
<polygon fill="#de958e" stroke="#de958e" points="367.08,-361.44 377.39,-359.01 367.81,-354.48 367.08,-361.44"/>
</g>
<!-- lunchbox.tools -->
<g id="node31" class="node">
<title>lunchbox.tools</title>
<polygon fill="#343434" stroke="#343434" points="530,-1030 398,-1030 398,-994 530,-994 530,-1030"/>
<text text-anchor="middle" x="464" y="-1008.3" font-family="Courier,monospace" font-size="14.00" fill="#de958e">lunchbox.tools</text>
</g>
<!-- lunchbox.tools&#45;&gt;shekels.core.data_tools -->
<g id="edge66" class="edge">
<title>lunchbox.tools&#45;&gt;shekels.core.data_tools</title>
<path fill="none" stroke="#de958e" d="M530.06,-1005.77C551.4,-1001.21 574.18,-993.38 592,-980 629.32,-951.97 690.76,-827.69 717.22,-771.62"/>
<polygon fill="#de958e" stroke="#de958e" points="720.52,-772.83 721.6,-762.29 714.18,-769.86 720.52,-772.83"/>
</g>
<!-- lunchbox.tools&#45;&gt;shekels.server.components -->
<g id="edge67" class="edge">
<title>lunchbox.tools&#45;&gt;shekels.server.components</title>
<path fill="none" stroke="#de958e" d="M530.23,-1023.28C617.95,-1038.45 775.29,-1065.66 882.84,-1084.26"/>
<polygon fill="#de958e" stroke="#de958e" points="882.32,-1087.72 892.77,-1085.97 883.51,-1080.82 882.32,-1087.72"/>
</g>
<!-- lunchbox.tools&#45;&gt;shekels.server.server_tools -->
<g id="edge68" class="edge">
<title>lunchbox.tools&#45;&gt;shekels.server.server_tools</title>
<path fill="none" stroke="#de958e" d="M530.08,-1008.91C649.53,-1002.22 911.23,-982.74 1126,-933 1160.44,-925.02 1197.91,-912.04 1227.32,-900.81"/>
<polygon fill="#de958e" stroke="#de958e" points="1228.9,-903.95 1236.96,-897.07 1226.37,-897.42 1228.9,-903.95"/>
</g>
<!-- schematics.types -->
<g id="node32" class="node">
<title>schematics.types</title>
<polygon fill="#343434" stroke="#343434" points="279.5,-467 130.5,-467 130.5,-431 279.5,-431 279.5,-467"/>
<text text-anchor="middle" x="205" y="-445.3" font-family="Courier,monospace" font-size="14.00" fill="#de958e">schematics.types</text>
</g>
<!-- schematics.types&#45;&gt;shekels.core.config -->
<g id="edge69" class="edge">
<title>schematics.types&#45;&gt;shekels.core.config</title>
<path fill="none" stroke="#de958e" d="M276.55,-430.99C284.57,-428.28 292.54,-425.28 300,-422 317.17,-414.45 318.71,-407.26 336,-400 346.03,-395.79 356.75,-392.03 367.55,-388.71"/>
<polygon fill="#de958e" stroke="#de958e" points="368.87,-391.97 377.47,-385.78 366.89,-385.25 368.87,-391.97"/>
</g>
<!-- webcolors -->
<g id="node33" class="node">
<title>webcolors</title>
<polygon fill="#343434" stroke="#343434" points="509.5,-662 418.5,-662 418.5,-626 509.5,-626 509.5,-662"/>
<text text-anchor="middle" x="464" y="-640.3" font-family="Courier,monospace" font-size="14.00" fill="#de958e">webcolors</text>
</g>
<!-- webcolors&#45;&gt;shekels.core.data_tools -->
<g id="edge70" class="edge">
<title>webcolors&#45;&gt;shekels.core.data_tools</title>
<path fill="none" stroke="#de958e" d="M509.78,-652.86C534.42,-658.33 565.32,-666.19 592,-676 625.75,-688.41 662.17,-706.57 689.11,-721.01"/>
<polygon fill="#de958e" stroke="#de958e" points="687.77,-724.26 698.23,-725.94 691.1,-718.1 687.77,-724.26"/>
</g>
<!-- jinja2 -->
<g id="node34" class="node">
<title>jinja2</title>
<polygon fill="#343434" stroke="#343434" points="1031,-924 965,-924 965,-888 1031,-888 1031,-924"/>
<text text-anchor="middle" x="998" y="-902.3" font-family="Courier,monospace" font-size="14.00" fill="#de958e">jinja2</text>
</g>
<!-- jinja2&#45;&gt;shekels.server.server_tools -->
<g id="edge71" class="edge">
<title>jinja2&#45;&gt;shekels.server.server_tools</title>
<path fill="none" stroke="#de958e" d="M1031.02,-902.93C1060.76,-900.08 1107.06,-895.64 1151.74,-891.35"/>
<polygon fill="#de958e" stroke="#de958e" points="1152.22,-894.82 1161.84,-890.38 1151.56,-887.85 1152.22,-894.82"/>
</g>
<!-- jsoncomment -->
<g id="node35" class="node">
<title>jsoncomment</title>
<polygon fill="#343434" stroke="#343434" points="784.5,-302 677.5,-302 677.5,-266 784.5,-266 784.5,-302"/>
<text text-anchor="middle" x="731" y="-280.3" font-family="Courier,monospace" font-size="14.00" fill="#de958e">jsoncomment</text>
</g>
<!-- jsoncomment&#45;&gt;shekels.core.database -->
<g id="edge72" class="edge">
<title>jsoncomment&#45;&gt;shekels.core.database</title>
<path fill="none" stroke="#de958e" d="M784.57,-290.49C802.24,-295.06 820.8,-302.82 834,-316 871.61,-353.54 831.34,-393.55 870,-430 876.94,-436.54 885.01,-441.8 893.66,-446.01"/>
<polygon fill="#de958e" stroke="#de958e" points="892.3,-449.24 902.86,-450.04 895.1,-442.82 892.3,-449.24"/>
</g>
<!-- jsoncomment&#45;&gt;shekels.server.app -->
<g id="edge73" class="edge">
<title>jsoncomment&#45;&gt;shekels.server.app</title>
<path fill="none" stroke="#de958e" d="M784.56,-289.88C951.8,-308.6 1473.06,-366.93 1685.75,-390.73"/>
<polygon fill="#de958e" stroke="#de958e" points="1685.62,-394.24 1695.95,-391.87 1686.4,-387.28 1685.62,-394.24"/>
</g>
<!-- jsoncomment&#45;&gt;shekels.server.server_tools -->
<g id="edge74" class="edge">
<title>jsoncomment&#45;&gt;shekels.server.server_tools</title>
<path fill="none" stroke="#de958e" d="M784.66,-291.8C801.93,-296.49 820.21,-304 834,-316 862.19,-340.54 840.19,-369.46 870,-392 962.03,-461.58 1037.85,-360.57 1126,-435 1192.59,-491.22 1255.6,-762.65 1274.66,-851.08"/>
<polygon fill="#de958e" stroke="#de958e" points="1271.25,-851.89 1276.77,-860.93 1278.1,-850.42 1271.25,-851.89"/>
</g>
<!-- flask_caching -->
<g id="node36" class="node">
<title>flask_caching</title>
<polygon fill="#343434" stroke="#343434" points="1610.5,-144 1486.5,-144 1486.5,-108 1610.5,-108 1610.5,-144"/>
<text text-anchor="middle" x="1548.5" y="-122.3" font-family="Courier,monospace" font-size="14.00" fill="#de958e">flask_caching</text>
</g>
<!-- flask_caching&#45;&gt;shekels.server.app -->
<g id="edge75" class="edge">
<title>flask_caching&#45;&gt;shekels.server.app</title>
<path fill="none" stroke="#de958e" d="M1610.68,-131.04C1628.08,-134.95 1646.07,-141.64 1660,-153 1730.82,-210.74 1761.48,-321.16 1772.4,-372.92"/>
<polygon fill="#de958e" stroke="#de958e" points="1768.97,-373.63 1774.38,-382.74 1775.83,-372.25 1768.97,-373.63"/>
</g>
<!-- flask_healthz -->
<g id="node37" class="node">
<title>flask_healthz</title>
<polygon fill="#343434" stroke="#343434" points="1610.5,-90 1486.5,-90 1486.5,-54 1610.5,-54 1610.5,-90"/>
<text text-anchor="middle" x="1548.5" y="-68.3" font-family="Courier,monospace" font-size="14.00" fill="#de958e">flask_healthz</text>
</g>
<!-- flask_healthz&#45;&gt;shekels.server.app -->
<g id="edge76" class="edge">
<title>flask_healthz&#45;&gt;shekels.server.app</title>
<path fill="none" stroke="#de958e" d="M1610.62,-76.3C1628.22,-80.17 1646.34,-87.02 1660,-99 1743.64,-172.31 1768.17,-312.5 1775.01,-372.55"/>
<polygon fill="#de958e" stroke="#de958e" points="1771.56,-373.22 1776.09,-382.79 1778.52,-372.48 1771.56,-373.22"/>
</g>
<!-- flask_monitoringdashboard -->
<g id="node38" class="node">
<title>flask_monitoringdashboard</title>
<polygon fill="#343434" stroke="#343434" points="1660,-36 1437,-36 1437,0 1660,0 1660,-36"/>
<text text-anchor="middle" x="1548.5" y="-14.3" font-family="Courier,monospace" font-size="14.00" fill="#de958e">flask_monitoringdashboard</text>
</g>
<!-- flask_monitoringdashboard&#45;&gt;shekels.server.app -->
<g id="edge77" class="edge">
<title>flask_monitoringdashboard&#45;&gt;shekels.server.app</title>
<path fill="none" stroke="#de958e" d="M1648.19,-36.09C1652.4,-38.7 1656.37,-41.65 1660,-45 1756.69,-134.32 1773.94,-304.7 1776.92,-372.31"/>
<polygon fill="#de958e" stroke="#de958e" points="1773.44,-372.75 1777.3,-382.62 1780.43,-372.5 1773.44,-372.75"/>
</g>
</g>
</svg>
