<?xml version="1.0" encoding="UTF-8" standalone="no"?>
<!DOCTYPE svg PUBLIC "-//W3C//DTD SVG 1.1//EN"
 "http://www.w3.org/Graphics/SVG/1.1/DTD/svg11.dtd">
<!-- Generated by graphviz version 2.40.1 (20161225.0304)
 -->
<!-- Title: %3 Pages: 1 -->
<svg width="1734pt" height="1163pt"
 viewBox="0.00 0.00 1734.00 1163.00" xmlns="http://www.w3.org/2000/svg" xmlns:xlink="http://www.w3.org/1999/xlink">
<g id="graph0" class="graph" transform="scale(1 1) rotate(0) translate(4 1159)">
<title>%3</title>
<polygon fill="#242424" stroke="transparent" points="-4,4 -4,-1159 1730,-1159 1730,4 -4,4"/>
<!-- cli -->
<g id="node1" class="node">
<title>cli</title>
<polygon fill="#343434" stroke="#343434" points="171.5,-772 117.5,-772 117.5,-736 171.5,-736 171.5,-772"/>
<text text-anchor="middle" x="144.5" y="-750.3" font-family="Courier,monospace" font-size="14.00" fill="#b6ecf3">cli</text>
</g>
<!-- shekels.core.config -->
<g id="node2" class="node">
<title>shekels.core.config</title>
<polygon fill="#343434" stroke="#343434" points="765.5,-772 592.5,-772 592.5,-736 765.5,-736 765.5,-772"/>
<text text-anchor="middle" x="679" y="-750.3" font-family="Courier,monospace" font-size="14.00" fill="#b6ecf3">shekels.core.config</text>
</g>
<!-- shekels.core.data_tools -->
<g id="node3" class="node">
<title>shekels.core.data_tools</title>
<polygon fill="#343434" stroke="#343434" points="1049,-581 843,-581 843,-545 1049,-545 1049,-581"/>
<text text-anchor="middle" x="946" y="-559.3" font-family="Courier,monospace" font-size="14.00" fill="#b6ecf3">shekels.core.data_tools</text>
</g>
<!-- shekels.core.config&#45;&gt;shekels.core.data_tools -->
<g id="edge1" class="edge">
<title>shekels.core.config&#45;&gt;shekels.core.data_tools</title>
<path fill="none" stroke="#b6ecf3" d="M765.5383,-749.1343C780.8362,-744.7708 795.5179,-737.8308 807,-727 851.235,-685.2742 800.7597,-638.744 843,-595 845.9998,-591.8935 849.295,-589.0869 852.808,-586.5516"/>
<polygon fill="#b6ecf3" stroke="#b6ecf3" points="854.8013,-589.4318 861.3641,-581.1143 851.0469,-583.5238 854.8013,-589.4318"/>
</g>
<!-- shekels.core.database -->
<g id="node4" class="node">
<title>shekels.core.database</title>
<polygon fill="#343434" stroke="#343434" points="1299.5,-733 1109.5,-733 1109.5,-697 1299.5,-697 1299.5,-733"/>
<text text-anchor="middle" x="1204.5" y="-711.3" font-family="Courier,monospace" font-size="14.00" fill="#b6ecf3">shekels.core.database</text>
</g>
<!-- shekels.core.config&#45;&gt;shekels.core.database -->
<g id="edge2" class="edge">
<title>shekels.core.config&#45;&gt;shekels.core.database</title>
<path fill="none" stroke="#b6ecf3" d="M765.5506,-738.8958C779.5741,-735.5514 793.8126,-731.6022 807,-727 823.8896,-721.1058 825.59,-713.1099 843,-709 932.1064,-687.9648 957.4615,-707.2346 1049,-709 1065.1057,-709.3106 1082.1444,-709.802 1098.8079,-710.3731"/>
<polygon fill="#b6ecf3" stroke="#b6ecf3" points="1099.0056,-713.8822 1109.1231,-710.7381 1099.2532,-706.8866 1099.0056,-713.8822"/>
</g>
<!-- shekels.server.app -->
<g id="node7" class="node">
<title>shekels.server.app</title>
<polygon fill="#343434" stroke="#343434" points="1726,-779 1561,-779 1561,-743 1726,-743 1726,-779"/>
<text text-anchor="middle" x="1643.5" y="-757.3" font-family="Courier,monospace" font-size="14.00" fill="#b6ecf3">shekels.server.app</text>
</g>
<!-- shekels.core.config&#45;&gt;shekels.server.app -->
<g id="edge3" class="edge">
<title>shekels.core.config&#45;&gt;shekels.server.app</title>
<path fill="none" stroke="#b6ecf3" d="M765.8675,-754.6305C947.1713,-755.9463 1364.4364,-758.9747 1550.7345,-760.3267"/>
<polygon fill="#b6ecf3" stroke="#b6ecf3" points="1550.7548,-763.8269 1560.78,-760.3996 1550.8057,-756.8271 1550.7548,-763.8269"/>
</g>
<!-- shekels.server.components -->
<g id="node8" class="node">
<title>shekels.server.components</title>
<polygon fill="#343434" stroke="#343434" points="1316,-358 1093,-358 1093,-322 1316,-322 1316,-358"/>
<text text-anchor="middle" x="1204.5" y="-336.3" font-family="Courier,monospace" font-size="14.00" fill="#b6ecf3">shekels.server.components</text>
</g>
<!-- shekels.core.config&#45;&gt;shekels.server.components -->
<g id="edge4" class="edge">
<title>shekels.core.config&#45;&gt;shekels.server.components</title>
<path fill="none" stroke="#b6ecf3" d="M765.7778,-742.0903C779.9868,-738.3531 794.2257,-733.445 807,-727 826.1125,-717.3572 825.3199,-707.07 843,-695 927.871,-637.0595 973.3121,-659.5093 1049,-590 1120.8495,-524.0158 1171.9949,-417.4681 1193.3733,-367.5117"/>
<polygon fill="#b6ecf3" stroke="#b6ecf3" points="1196.7129,-368.599 1197.365,-358.0242 1190.2607,-365.8843 1196.7129,-368.599"/>
</g>
<!-- shekels.core.data_tools&#45;&gt;shekels.core.database -->
<g id="edge5" class="edge">
<title>shekels.core.data_tools&#45;&gt;shekels.core.database</title>
<path fill="none" stroke="#b6ecf3" d="M979.5676,-581.1798C1001.0163,-593.8548 1028.5408,-612.1828 1049,-633 1069.4783,-653.8367 1060.999,-671.3421 1085,-688 1089.6414,-691.2213 1094.6061,-694.0649 1099.7771,-696.5743"/>
<polygon fill="#b6ecf3" stroke="#b6ecf3" points="1098.7185,-699.9317 1109.2825,-700.7399 1101.5283,-693.5203 1098.7185,-699.9317"/>
</g>
<!-- shekels.core.data_tools&#45;&gt;shekels.server.components -->
<g id="edge6" class="edge">
<title>shekels.core.data_tools&#45;&gt;shekels.server.components</title>
<path fill="none" stroke="#b6ecf3" d="M967.1541,-544.751C1013.3754,-504.8773 1123.4234,-409.9423 1175.8192,-364.7421"/>
<polygon fill="#b6ecf3" stroke="#b6ecf3" points="1178.1304,-367.3706 1183.4161,-358.1884 1173.558,-362.0703 1178.1304,-367.3706"/>
</g>
<!-- shekels.server.api -->
<g id="node6" class="node">
<title>shekels.server.api</title>
<polygon fill="#343434" stroke="#343434" points="1525,-825 1360,-825 1360,-789 1525,-789 1525,-825"/>
<text text-anchor="middle" x="1442.5" y="-803.3" font-family="Courier,monospace" font-size="14.00" fill="#b6ecf3">shekels.server.api</text>
</g>
<!-- shekels.core.database&#45;&gt;shekels.server.api -->
<g id="edge7" class="edge">
<title>shekels.core.database&#45;&gt;shekels.server.api</title>
<path fill="none" stroke="#b6ecf3" d="M1251.2372,-733.0665C1290.0451,-748.0678 1345.3548,-769.4481 1386.5216,-785.3613"/>
<polygon fill="#b6ecf3" stroke="#b6ecf3" points="1385.2804,-788.6338 1395.8697,-788.9749 1387.8043,-782.1047 1385.2804,-788.6338"/>
</g>
<!-- shekels.enforce.enforce_tools -->
<g id="node5" class="node">
<title>shekels.enforce.enforce_tools</title>
<polygon fill="#343434" stroke="#343434" points="807,-274 551,-274 551,-238 807,-238 807,-274"/>
<text text-anchor="middle" x="679" y="-252.3" font-family="Courier,monospace" font-size="14.00" fill="#b6ecf3">shekels.enforce.enforce_tools</text>
</g>
<!-- shekels.enforce.enforce_tools&#45;&gt;shekels.core.data_tools -->
<g id="edge8" class="edge">
<title>shekels.enforce.enforce_tools&#45;&gt;shekels.core.data_tools</title>
<path fill="none" stroke="#b6ecf3" d="M695.2098,-274.3987C719.5483,-302.0443 766.9525,-355.969 807,-402 848.162,-449.3121 895.8817,-504.7037 923.3445,-536.6347"/>
<polygon fill="#b6ecf3" stroke="#b6ecf3" points="921.0288,-539.3099 930.2025,-544.6104 926.3365,-534.7461 921.0288,-539.3099"/>
</g>
<!-- shekels.server.api&#45;&gt;shekels.server.app -->
<g id="edge9" class="edge">
<title>shekels.server.api&#45;&gt;shekels.server.app</title>
<path fill="none" stroke="#b6ecf3" d="M1521.3636,-788.9516C1532.2262,-786.4657 1543.4427,-783.8987 1554.4725,-781.3745"/>
<polygon fill="#b6ecf3" stroke="#b6ecf3" points="1555.5667,-784.7146 1564.5339,-779.0718 1554.0051,-777.891 1555.5667,-784.7146"/>
</g>
<!-- shekels.server.components&#45;&gt;shekels.server.app -->
<g id="edge10" class="edge">
<title>shekels.server.components&#45;&gt;shekels.server.app</title>
<path fill="none" stroke="#b6ecf3" d="M1223.3633,-358.0898C1293.1587,-425.0235 1536.8761,-658.7479 1617.4319,-736.0008"/>
<polygon fill="#b6ecf3" stroke="#b6ecf3" points="1615.0669,-738.5821 1624.707,-742.9776 1619.912,-733.5298 1615.0669,-738.5821"/>
</g>
<!-- shekels.server.server_tools -->
<g id="node9" class="node">
<title>shekels.server.server_tools</title>
<polygon fill="#343434" stroke="#343434" points="1324,-1015 1085,-1015 1085,-979 1324,-979 1324,-1015"/>
<text text-anchor="middle" x="1204.5" y="-993.3" font-family="Courier,monospace" font-size="14.00" fill="#b6ecf3">shekels.server.server_tools</text>
</g>
<!-- shekels.server.server_tools&#45;&gt;shekels.server.api -->
<g id="edge11" class="edge">
<title>shekels.server.server_tools&#45;&gt;shekels.server.api</title>
<path fill="none" stroke="#b6ecf3" d="M1228.1558,-978.682C1253.5278,-958.3693 1294.1852,-923.8467 1324,-889 1342.9932,-866.8012 1336.8088,-851.768 1360,-834 1361.7982,-832.6223 1363.6696,-831.3133 1365.5995,-830.0697"/>
<polygon fill="#b6ecf3" stroke="#b6ecf3" points="1367.4583,-833.0385 1374.3898,-825.0256 1363.9743,-826.967 1367.4583,-833.0385"/>
</g>
<!-- shekels.server.server_tools&#45;&gt;shekels.server.app -->
<g id="edge12" class="edge">
<title>shekels.server.server_tools&#45;&gt;shekels.server.app</title>
<path fill="none" stroke="#b6ecf3" d="M1324.2141,-1010.1629C1388.4384,-1011.3554 1466.229,-1002.8392 1525,-965 1589.2178,-923.6539 1622.756,-834.3017 1636.2363,-788.8181"/>
<polygon fill="#b6ecf3" stroke="#b6ecf3" points="1639.6506,-789.6077 1639.0263,-779.0313 1632.9188,-787.6885 1639.6506,-789.6077"/>
</g>
<!-- dash.dependencies -->
<g id="node10" class="node">
<title>dash.dependencies</title>
<polygon fill="#343434" stroke="#343434" points="1521,-879 1364,-879 1364,-843 1521,-843 1521,-879"/>
<text text-anchor="middle" x="1442.5" y="-857.3" font-family="Courier,monospace" font-size="14.00" fill="#de958e">dash.dependencies</text>
</g>
<!-- dash.dependencies&#45;&gt;shekels.server.app -->
<g id="edge13" class="edge">
<title>dash.dependencies&#45;&gt;shekels.server.app</title>
<path fill="none" stroke="#de958e" d="M1503.5086,-842.8455C1510.8512,-840.1317 1518.164,-837.17 1525,-834 1554.9342,-820.1189 1586.6508,-800.2756 1609.731,-784.7805"/>
<polygon fill="#de958e" stroke="#de958e" points="1611.8251,-787.5893 1618.1321,-779.0763 1607.8929,-781.7981 1611.8251,-787.5893"/>
</g>
<!-- dash -->
<g id="node11" class="node">
<title>dash</title>
<polygon fill="#343434" stroke="#343434" points="973,-144 919,-144 919,-108 973,-108 973,-144"/>
<text text-anchor="middle" x="946" y="-122.3" font-family="Courier,monospace" font-size="14.00" fill="#de958e">dash</text>
</g>
<!-- dash&#45;&gt;shekels.server.app -->
<g id="edge14" class="edge">
<title>dash&#45;&gt;shekels.server.app</title>
<path fill="none" stroke="#de958e" d="M973.1023,-124.8978C996.1419,-125.4566 1028.6349,-130.003 1049,-149 1090.0281,-187.272 1043.1832,-232.5914 1085,-270 1165.4384,-341.9587 1227.209,-265.2516 1324,-313 1432.3458,-366.4485 1454.1792,-398.1227 1525,-496 1581.3837,-573.9246 1619.5589,-682.946 1635.3375,-733.3883"/>
<polygon fill="#de958e" stroke="#de958e" points="1631.9933,-734.4211 1638.2784,-742.9503 1638.684,-732.3632 1631.9933,-734.4211"/>
</g>
<!-- dash&#45;&gt;shekels.server.components -->
<g id="edge15" class="edge">
<title>dash&#45;&gt;shekels.server.components</title>
<path fill="none" stroke="#de958e" d="M973.0941,-127.2162C996.4517,-129.7419 1029.4179,-137.0876 1049,-158 1095.8612,-208.0447 1037.1576,-258.8924 1085,-308 1088.035,-311.1152 1091.3375,-313.9378 1094.8463,-316.4946"/>
<polygon fill="#de958e" stroke="#de958e" points="1093.0766,-319.518 1103.3789,-321.9907 1096.8672,-313.6331 1093.0766,-319.518"/>
</g>
<!-- shekels.server -->
<g id="node12" class="node">
<title>shekels.server</title>
<polygon fill="#343434" stroke="#343434" points="1012,-1155 880,-1155 880,-1119 1012,-1119 1012,-1155"/>
<text text-anchor="middle" x="946" y="-1133.3" font-family="Courier,monospace" font-size="14.00" fill="#a0d17b">shekels.server</text>
</g>
<!-- shekels.server&#45;&gt;shekels.server.api -->
<g id="edge16" class="edge">
<title>shekels.server&#45;&gt;shekels.server.api</title>
<path fill="none" stroke="#a0d17b" d="M1012.2377,-1121.2052C1114.9112,-1096.1358 1302.934,-1047.6594 1324,-1024 1381.1537,-959.8103 1303.271,-898.5653 1360,-834 1360.746,-833.1509 1361.5192,-832.3284 1362.3172,-831.5316"/>
<polygon fill="#a0d17b" stroke="#a0d17b" points="1364.6715,-834.1257 1370.1106,-825.0335 1360.1887,-828.7493 1364.6715,-834.1257"/>
</g>
<!-- shekels.server&#45;&gt;shekels.server.app -->
<g id="edge17" class="edge">
<title>shekels.server&#45;&gt;shekels.server.app</title>
<path fill="none" stroke="#a0d17b" d="M1012.1135,-1140.7539C1130.3415,-1143.7535 1379.2242,-1132.6826 1525,-1001 1590.513,-941.8206 1624.0526,-838.2962 1636.9937,-788.8405"/>
<polygon fill="#a0d17b" stroke="#a0d17b" points="1640.3874,-789.6962 1639.4466,-779.1432 1633.6011,-787.9796 1640.3874,-789.6962"/>
</g>
<!-- shekels.server&#45;&gt;shekels.server.components -->
<g id="edge18" class="edge">
<title>shekels.server&#45;&gt;shekels.server.components</title>
<path fill="none" stroke="#a0d17b" d="M1012.2161,-1132.2134C1026.2596,-1128.0823 1039.6483,-1121.2171 1049,-1110 1116.9285,-1028.5221 1060.736,-737.2676 1085,-634 1109.0932,-531.4589 1163.8461,-418.1083 1190.0292,-367.28"/>
<polygon fill="#a0d17b" stroke="#a0d17b" points="1193.2154,-368.7388 1194.7197,-358.2513 1187.0037,-365.5117 1193.2154,-368.7388"/>
</g>
<!-- shekels.server&#45;&gt;shekels.server.server_tools -->
<g id="edge19" class="edge">
<title>shekels.server&#45;&gt;shekels.server.server_tools</title>
<path fill="none" stroke="#a0d17b" d="M1012.0258,-1127.1933C1025.0486,-1123.2549 1038.0552,-1117.7354 1049,-1110 1072.254,-1093.5649 1063.5867,-1075.7706 1085,-1057 1102.7122,-1041.4737 1125.1555,-1028.8298 1145.7975,-1019.2224"/>
<polygon fill="#a0d17b" stroke="#a0d17b" points="1147.4484,-1022.3176 1155.1315,-1015.0224 1144.576,-1015.9341 1147.4484,-1022.3176"/>
</g>
<!-- dash.exceptions -->
<g id="node13" class="node">
<title>dash.exceptions</title>
<polygon fill="#343434" stroke="#343434" points="1016,-1101 876,-1101 876,-1065 1016,-1065 1016,-1101"/>
<text text-anchor="middle" x="946" y="-1079.3" font-family="Courier,monospace" font-size="14.00" fill="#de958e">dash.exceptions</text>
</g>
<!-- dash.exceptions&#45;&gt;shekels.server.server_tools -->
<g id="edge20" class="edge">
<title>dash.exceptions&#45;&gt;shekels.server.server_tools</title>
<path fill="none" stroke="#de958e" d="M1016.0999,-1065.6953C1027.1649,-1062.6563 1038.4354,-1059.3784 1049,-1056 1083.4952,-1044.9691 1121.516,-1030.5846 1151.3273,-1018.7805"/>
<polygon fill="#de958e" stroke="#de958e" points="1152.7078,-1021.9981 1160.703,-1015.0462 1150.1176,-1015.495 1152.7078,-1021.9981"/>
</g>
<!-- shekels -->
<g id="node14" class="node">
<title>shekels</title>
<polygon fill="#343434" stroke="#343434" points="181.5,-826 107.5,-826 107.5,-790 181.5,-790 181.5,-826"/>
<text text-anchor="middle" x="144.5" y="-804.3" font-family="Courier,monospace" font-size="14.00" fill="#a0d17b">shekels</text>
</g>
<!-- shekels&#45;&gt;shekels.server -->
<g id="edge21" class="edge">
<title>shekels&#45;&gt;shekels.server</title>
<path fill="none" stroke="#a0d17b" d="M181.7337,-812.085C211.3449,-816.0135 253.5421,-823.1418 289,-835 419.348,-878.5924 714.2969,-1061.767 843,-1110 851.7364,-1113.2741 861.0313,-1116.3066 870.3249,-1119.0655"/>
<polygon fill="#a0d17b" stroke="#a0d17b" points="869.4083,-1122.4437 879.9859,-1121.8403 871.3407,-1115.7157 869.4083,-1122.4437"/>
</g>
<!-- shekels.enforce -->
<g id="node19" class="node">
<title>shekels.enforce</title>
<polygon fill="#343434" stroke="#343434" points="490,-288 350,-288 350,-252 490,-252 490,-288"/>
<text text-anchor="middle" x="420" y="-266.3" font-family="Courier,monospace" font-size="14.00" fill="#a0d17b">shekels.enforce</text>
</g>
<!-- shekels&#45;&gt;shekels.enforce -->
<g id="edge22" class="edge">
<title>shekels&#45;&gt;shekels.enforce</title>
<path fill="none" stroke="#a0d17b" d="M181.5745,-812.444C214.8824,-814.1597 262.5051,-810.5453 289,-781 359.3782,-702.5191 262.6292,-392.9837 325,-308 329.4077,-301.9943 334.9207,-296.9365 341.0587,-292.6772"/>
<polygon fill="#a0d17b" stroke="#a0d17b" points="343.0652,-295.5527 349.7708,-287.3499 339.4135,-289.5807 343.0652,-295.5527"/>
</g>
<!-- shekels.core -->
<g id="node22" class="node">
<title>shekels.core</title>
<polygon fill="#343434" stroke="#343434" points="478,-826 362,-826 362,-790 478,-790 478,-826"/>
<text text-anchor="middle" x="420" y="-804.3" font-family="Courier,monospace" font-size="14.00" fill="#a0d17b">shekels.core</text>
</g>
<!-- shekels&#45;&gt;shekels.core -->
<g id="edge23" class="edge">
<title>shekels&#45;&gt;shekels.core</title>
<path fill="none" stroke="#a0d17b" d="M181.6552,-808C225.1194,-808 297.9631,-808 351.7047,-808"/>
<polygon fill="#a0d17b" stroke="#a0d17b" points="351.8445,-811.5001 361.8445,-808 351.8444,-804.5001 351.8445,-811.5001"/>
</g>
<!-- dash_core_components -->
<g id="node15" class="node">
<title>dash_core_components</title>
<polygon fill="#343434" stroke="#343434" points="1037,-90 855,-90 855,-54 1037,-54 1037,-90"/>
<text text-anchor="middle" x="946" y="-68.3" font-family="Courier,monospace" font-size="14.00" fill="#de958e">dash_core_components</text>
</g>
<!-- dash_core_components&#45;&gt;shekels.server.app -->
<g id="edge24" class="edge">
<title>dash_core_components&#45;&gt;shekels.server.app</title>
<path fill="none" stroke="#de958e" d="M1037.2983,-89.7238C1041.5149,-92.4107 1045.4566,-95.4848 1049,-99 1092.4743,-142.129 1039.4512,-191.0679 1085,-232 1165.0001,-303.8915 1219.0735,-246.3607 1324,-270 1414.8258,-290.4625 1459.7549,-262.5836 1525,-329 1582.8838,-387.9229 1626.2946,-646.4866 1639.3985,-732.8215"/>
<polygon fill="#de958e" stroke="#de958e" points="1635.9691,-733.5538 1640.9123,-742.9248 1642.8918,-732.5165 1635.9691,-733.5538"/>
</g>
<!-- dash_core_components&#45;&gt;shekels.server.components -->
<g id="edge25" class="edge">
<title>dash_core_components&#45;&gt;shekels.server.components</title>
<path fill="none" stroke="#de958e" d="M1037.0788,-89.1818C1041.4096,-92.0002 1045.4305,-95.2516 1049,-99 1102.5599,-155.2436 1039.6083,-206.9794 1085,-270 1100.0061,-290.8341 1123.2865,-306.4671 1145.3269,-317.6129"/>
<polygon fill="#de958e" stroke="#de958e" points="1143.8144,-320.7692 1154.3414,-321.9662 1146.8585,-314.4658 1143.8144,-320.7692"/>
</g>
<!-- dash_html_components -->
<g id="node16" class="node">
<title>dash_html_components</title>
<polygon fill="#343434" stroke="#343434" points="1037,-274 855,-274 855,-238 1037,-238 1037,-274"/>
<text text-anchor="middle" x="946" y="-252.3" font-family="Courier,monospace" font-size="14.00" fill="#de958e">dash_html_components</text>
</g>
<!-- dash_html_components&#45;&gt;shekels.server.components -->
<g id="edge26" class="edge">
<title>dash_html_components&#45;&gt;shekels.server.components</title>
<path fill="none" stroke="#de958e" d="M1011.2961,-274.0566C1023.9745,-278.1848 1037.0346,-282.8823 1049,-288 1065.8287,-295.1978 1068.0322,-301.1367 1085,-308 1094.9847,-312.0387 1105.6433,-315.7231 1116.3285,-319.037"/>
<polygon fill="#de958e" stroke="#de958e" points="1115.5464,-322.4564 1126.1304,-321.9757 1117.5568,-315.7512 1115.5464,-322.4564"/>
</g>
<!-- dash_table -->
<g id="node17" class="node">
<title>dash_table</title>
<polygon fill="#343434" stroke="#343434" points="995.5,-36 896.5,-36 896.5,0 995.5,0 995.5,-36"/>
<text text-anchor="middle" x="946" y="-14.3" font-family="Courier,monospace" font-size="14.00" fill="#de958e">dash_table</text>
</g>
<!-- dash_table&#45;&gt;shekels.server.app -->
<g id="edge27" class="edge">
<title>dash_table&#45;&gt;shekels.server.app</title>
<path fill="none" stroke="#de958e" d="M995.6231,-28.8377C1012.7671,-33.1503 1031.9461,-38.6183 1049,-45 1193.4572,-99.0568 1220.4962,-133.2071 1360,-199 1432.692,-233.2831 1473.6114,-211.2046 1525,-273 1584.8556,-344.977 1627.6768,-639.5933 1639.9232,-732.6752"/>
<polygon fill="#de958e" stroke="#de958e" points="1636.4738,-733.2918 1641.2332,-742.7575 1643.4155,-732.3898 1636.4738,-733.2918"/>
</g>
<!-- dash_table&#45;&gt;shekels.server.components -->
<g id="edge28" class="edge">
<title>dash_table&#45;&gt;shekels.server.components</title>
<path fill="none" stroke="#de958e" d="M995.5276,-19.9766C1014.7043,-23.2748 1035.2942,-30.3558 1049,-45 1106.8348,-106.7948 1043.4573,-158.2595 1085,-232 1104.6925,-266.9552 1139.8462,-296.6519 1166.9457,-316.005"/>
<polygon fill="#de958e" stroke="#de958e" points="1165.2259,-319.0726 1175.4314,-321.9186 1169.2282,-313.3296 1165.2259,-319.0726"/>
</g>
<!-- flask -->
<g id="node18" class="node">
<title>flask</title>
<polygon fill="#343434" stroke="#343434" points="975,-901 917,-901 917,-865 975,-865 975,-901"/>
<text text-anchor="middle" x="946" y="-879.3" font-family="Courier,monospace" font-size="14.00" fill="#de958e">flask</text>
</g>
<!-- flask&#45;&gt;shekels.server.api -->
<g id="edge29" class="edge">
<title>flask&#45;&gt;shekels.server.api</title>
<path fill="none" stroke="#de958e" d="M975.0509,-884.0113C1039.2295,-885.4993 1197.4395,-885.0499 1324,-851 1341.0867,-846.403 1343.5597,-840.5423 1360,-834 1364.693,-832.1324 1369.5713,-830.2911 1374.5058,-828.5011"/>
<polygon fill="#de958e" stroke="#de958e" points="1375.7723,-831.7657 1384.0308,-825.1288 1373.436,-825.1671 1375.7723,-831.7657"/>
</g>
<!-- flask&#45;&gt;shekels.server.app -->
<g id="edge30" class="edge">
<title>flask&#45;&gt;shekels.server.app</title>
<path fill="none" stroke="#de958e" d="M975.0381,-891.1647C1062.6424,-914.1892 1330.2422,-972.6487 1525,-888 1571.8197,-867.6505 1608.5369,-818.6777 1628.0387,-787.8368"/>
<polygon fill="#de958e" stroke="#de958e" points="1631.0448,-789.6299 1633.3038,-779.2787 1625.0828,-785.9619 1631.0448,-789.6299"/>
</g>
<!-- flask&#45;&gt;shekels.server.components -->
<g id="edge31" class="edge">
<title>flask&#45;&gt;shekels.server.components</title>
<path fill="none" stroke="#de958e" d="M954.6008,-864.9334C992.6293,-785.0514 1145.8078,-463.2877 1191.5439,-367.2153"/>
<polygon fill="#de958e" stroke="#de958e" points="1194.7287,-368.668 1195.8669,-358.1344 1188.4083,-365.6591 1194.7287,-368.668"/>
</g>
<!-- flask&#45;&gt;shekels.server.server_tools -->
<g id="edge32" class="edge">
<title>flask&#45;&gt;shekels.server.server_tools</title>
<path fill="none" stroke="#de958e" d="M975.0461,-888.55C996.0345,-893.0528 1024.8253,-900.2536 1049,-910 1072.0419,-919.2897 1127.3854,-951.1716 1165.4254,-973.6384"/>
<polygon fill="#de958e" stroke="#de958e" points="1163.8272,-976.7596 1174.215,-978.8438 1167.3941,-970.7366 1163.8272,-976.7596"/>
</g>
<!-- shekels.enforce&#45;&gt;shekels.enforce.enforce_tools -->
<g id="edge33" class="edge">
<title>shekels.enforce&#45;&gt;shekels.enforce.enforce_tools</title>
<path fill="none" stroke="#a0d17b" d="M490.0891,-266.2114C505.8686,-265.3585 523.1505,-264.4243 540.649,-263.4784"/>
<polygon fill="#a0d17b" stroke="#a0d17b" points="541.1707,-266.9554 550.9672,-262.9207 540.7928,-259.9656 541.1707,-266.9554"/>
</g>
<!-- jinja2 -->
<g id="node20" class="node">
<title>jinja2</title>
<polygon fill="#343434" stroke="#343434" points="979,-1047 913,-1047 913,-1011 979,-1011 979,-1047"/>
<text text-anchor="middle" x="946" y="-1025.3" font-family="Courier,monospace" font-size="14.00" fill="#de958e">jinja2</text>
</g>
<!-- jinja2&#45;&gt;shekels.server.server_tools -->
<g id="edge34" class="edge">
<title>jinja2&#45;&gt;shekels.server.server_tools</title>
<path fill="none" stroke="#de958e" d="M979.0018,-1024.9147C1003.6978,-1021.8575 1039.2092,-1017.4615 1074.7692,-1013.0595"/>
<polygon fill="#de958e" stroke="#de958e" points="1075.2971,-1016.521 1084.7913,-1011.8189 1074.437,-1009.574 1075.2971,-1016.521"/>
</g>
<!-- schematics.models -->
<g id="node21" class="node">
<title>schematics.models</title>
<polygon fill="#343434" stroke="#343434" points="498.5,-772 341.5,-772 341.5,-736 498.5,-736 498.5,-772"/>
<text text-anchor="middle" x="420" y="-750.3" font-family="Courier,monospace" font-size="14.00" fill="#de958e">schematics.models</text>
</g>
<!-- schematics.models&#45;&gt;shekels.core.config -->
<g id="edge35" class="edge">
<title>schematics.models&#45;&gt;shekels.core.config</title>
<path fill="none" stroke="#de958e" d="M498.7634,-754C525.1406,-754 554.8536,-754 582.4322,-754"/>
<polygon fill="#de958e" stroke="#de958e" points="582.486,-757.5001 592.486,-754 582.486,-750.5001 582.486,-757.5001"/>
</g>
<!-- shekels.core&#45;&gt;shekels.core.config -->
<g id="edge36" class="edge">
<title>shekels.core&#45;&gt;shekels.core.config</title>
<path fill="none" stroke="#a0d17b" d="M478.1247,-795.8813C508.9346,-789.4577 547.5831,-781.3997 582.7294,-774.0719"/>
<polygon fill="#a0d17b" stroke="#a0d17b" points="583.4651,-777.4938 592.5402,-772.0264 582.0363,-770.6412 583.4651,-777.4938"/>
</g>
<!-- shekels.core&#45;&gt;shekels.core.data_tools -->
<g id="edge37" class="edge">
<title>shekels.core&#45;&gt;shekels.core.data_tools</title>
<path fill="none" stroke="#a0d17b" d="M478.4136,-800.854C491.765,-796.8253 504.9617,-790.598 515,-781 551.5702,-746.034 512.9307,-706.3276 551,-673 638.1617,-596.6947 701.8779,-672.6724 807,-624 825.6442,-615.3676 824.8687,-604.6634 843,-595 850.1663,-591.1806 857.8604,-587.7369 865.6979,-584.6513"/>
<polygon fill="#a0d17b" stroke="#a0d17b" points="867.1598,-587.8415 875.3031,-581.0639 864.7106,-581.2839 867.1598,-587.8415"/>
</g>
<!-- shekels.core&#45;&gt;shekels.core.database -->
<g id="edge38" class="edge">
<title>shekels.core&#45;&gt;shekels.core.database</title>
<path fill="none" stroke="#a0d17b" d="M440.9159,-826.1368C465.3862,-846.0425 508.046,-876.7928 551,-889 660.444,-920.103 700.962,-930.2471 807,-889 827.2286,-881.1314 824.5748,-867.4727 843,-856 933.9861,-799.346 1051.5128,-758.6494 1127.4441,-735.9587"/>
<polygon fill="#a0d17b" stroke="#a0d17b" points="1128.8163,-739.2029 1137.4139,-733.0115 1126.8319,-732.4901 1128.8163,-739.2029"/>
</g>
<!-- lunchbox.tools -->
<g id="node23" class="node">
<title>lunchbox.tools</title>
<polygon fill="#343434" stroke="#343434" points="745,-880 613,-880 613,-844 745,-844 745,-880"/>
<text text-anchor="middle" x="679" y="-858.3" font-family="Courier,monospace" font-size="14.00" fill="#de958e">lunchbox.tools</text>
</g>
<!-- lunchbox.tools&#45;&gt;shekels.core.data_tools -->
<g id="edge39" class="edge">
<title>lunchbox.tools&#45;&gt;shekels.core.data_tools</title>
<path fill="none" stroke="#de958e" d="M745.1562,-861.3904C767.2198,-857.9911 790.3854,-850.4841 807,-835 849.6065,-795.2925 817.859,-761.535 843,-709 864.8156,-663.4138 900.5797,-616.7192 923.7033,-588.7894"/>
<polygon fill="#de958e" stroke="#de958e" points="926.4177,-590.9995 930.1559,-581.0861 921.0515,-586.5046 926.4177,-590.9995"/>
</g>
<!-- lunchbox.tools&#45;&gt;shekels.server.server_tools -->
<g id="edge40" class="edge">
<title>lunchbox.tools&#45;&gt;shekels.server.server_tools</title>
<path fill="none" stroke="#de958e" d="M700.6463,-880.1577C730.5172,-904.0568 787.0526,-945.2284 843,-964 917.1738,-988.8869 1004.4207,-997.3971 1074.6181,-999.5613"/>
<polygon fill="#de958e" stroke="#de958e" points="1074.7575,-1003.0662 1084.8478,-999.8358 1074.9453,-996.0687 1074.7575,-1003.0662"/>
</g>
<!-- pandas -->
<g id="node24" class="node">
<title>pandas</title>
<polygon fill="#343434" stroke="#343434" points="453,-353 387,-353 387,-317 453,-317 453,-353"/>
<text text-anchor="middle" x="420" y="-331.3" font-family="Courier,monospace" font-size="14.00" fill="#de958e">pandas</text>
</g>
<!-- pandas&#45;&gt;shekels.core.data_tools -->
<g id="edge41" class="edge">
<title>pandas&#45;&gt;shekels.core.data_tools</title>
<path fill="none" stroke="#de958e" d="M453.1182,-341.3936C534.9715,-357.5369 744.6811,-401.0727 807,-435 855.195,-461.238 899.7532,-507.8368 924.8507,-536.9862"/>
<polygon fill="#de958e" stroke="#de958e" points="922.2645,-539.3481 931.4002,-544.7136 927.6045,-534.8221 922.2645,-539.3481"/>
</g>
<!-- pandas&#45;&gt;shekels.core.database -->
<g id="edge42" class="edge">
<title>pandas&#45;&gt;shekels.core.database</title>
<path fill="none" stroke="#de958e" d="M453.1231,-334.6818C534.5082,-334.2776 742.3438,-335.6391 807,-359 932.3246,-404.2811 975.3139,-424.973 1049,-536 1087.3899,-593.8443 1035.6562,-639.1641 1085,-688 1089.5636,-692.5166 1094.7125,-696.3434 1100.2454,-699.5804"/>
<polygon fill="#de958e" stroke="#de958e" points="1098.7327,-702.7381 1109.2268,-704.1958 1101.9322,-696.5121 1098.7327,-702.7381"/>
</g>
<!-- pandas&#45;&gt;shekels.enforce.enforce_tools -->
<g id="edge43" class="edge">
<title>pandas&#45;&gt;shekels.enforce.enforce_tools</title>
<path fill="none" stroke="#de958e" d="M453.0773,-322.1003C479.3822,-312.0933 517.2438,-298.2473 551,-288 564.0518,-284.0379 577.9572,-280.1877 591.6129,-276.6116"/>
<polygon fill="#de958e" stroke="#de958e" points="592.6898,-279.9484 601.4965,-274.0584 590.9389,-273.1709 592.6898,-279.9484"/>
</g>
<!-- pandas&#45;&gt;shekels.server.components -->
<g id="edge44" class="edge">
<title>pandas&#45;&gt;shekels.server.components</title>
<path fill="none" stroke="#de958e" d="M453.0788,-332.0974C479.5457,-329.9271 517.6225,-327.1452 551,-326 772.2032,-318.4104 827.8897,-316.0666 1049,-326 1059.9953,-326.494 1071.4148,-327.1835 1082.8472,-327.994"/>
<polygon fill="#de958e" stroke="#de958e" points="1082.6562,-331.4893 1092.8869,-328.7356 1083.1719,-324.5084 1082.6562,-331.4893"/>
</g>
<!-- numpy -->
<g id="node25" class="node">
<title>numpy</title>
<polygon fill="#343434" stroke="#343434" points="708,-718 650,-718 650,-682 708,-682 708,-718"/>
<text text-anchor="middle" x="679" y="-696.3" font-family="Courier,monospace" font-size="14.00" fill="#de958e">numpy</text>
</g>
<!-- numpy&#45;&gt;shekels.core.data_tools -->
<g id="edge45" class="edge">
<title>numpy&#45;&gt;shekels.core.data_tools</title>
<path fill="none" stroke="#de958e" d="M708.2612,-699.5303C736.4086,-697.6305 778.7421,-690.7955 807,-668 835.1558,-645.2868 815.494,-618.496 843,-595 846.9476,-591.6279 851.2484,-588.6108 855.7795,-585.9115"/>
<polygon fill="#de958e" stroke="#de958e" points="857.587,-588.9138 864.7446,-581.1023 854.2779,-582.7452 857.587,-588.9138"/>
</g>
<!-- numpy&#45;&gt;shekels.core.database -->
<g id="edge46" class="edge">
<title>numpy&#45;&gt;shekels.core.database</title>
<path fill="none" stroke="#de958e" d="M708.2012,-691.9101C771.2561,-675.6991 924.5138,-643.0854 1049,-671 1066.2655,-674.8716 1068.2702,-682.2379 1085,-688 1091.418,-690.2105 1098.0929,-692.2894 1104.861,-694.2353"/>
<polygon fill="#de958e" stroke="#de958e" points="1104.2535,-697.6986 1114.8247,-696.9908 1106.1194,-690.9519 1104.2535,-697.6986"/>
</g>
<!-- pandasql -->
<g id="node26" class="node">
<title>pandasql</title>
<polygon fill="#343434" stroke="#343434" points="720.5,-826 637.5,-826 637.5,-790 720.5,-790 720.5,-826"/>
<text text-anchor="middle" x="679" y="-804.3" font-family="Courier,monospace" font-size="14.00" fill="#de958e">pandasql</text>
</g>
<!-- pandasql&#45;&gt;shekels.core.data_tools -->
<g id="edge47" class="edge">
<title>pandasql&#45;&gt;shekels.core.data_tools</title>
<path fill="none" stroke="#de958e" d="M720.5943,-808.2279C747.7008,-806.3644 782.4625,-799.9463 807,-781 835.3179,-759.1346 824.6358,-739.7043 843,-709 868.9735,-665.5732 903.6674,-618.2093 925.4222,-589.5586"/>
<polygon fill="#de958e" stroke="#de958e" points="928.4468,-591.3647 931.7343,-581.2928 922.8834,-587.1162 928.4468,-591.3647"/>
</g>
<!-- pandasql&#45;&gt;shekels.server.api -->
<g id="edge48" class="edge">
<title>pandasql&#45;&gt;shekels.server.api</title>
<path fill="none" stroke="#de958e" d="M720.5913,-807.9455C839.4635,-807.7898 1182.814,-807.3401 1349.5058,-807.1218"/>
<polygon fill="#de958e" stroke="#de958e" points="1349.7446,-810.6216 1359.74,-807.1084 1349.7354,-803.6216 1349.7446,-810.6216"/>
</g>
<!-- pyparsing -->
<g id="node27" class="node">
<title>pyparsing</title>
<polygon fill="#343434" stroke="#343434" points="724.5,-588 633.5,-588 633.5,-552 724.5,-552 724.5,-588"/>
<text text-anchor="middle" x="679" y="-566.3" font-family="Courier,monospace" font-size="14.00" fill="#de958e">pyparsing</text>
</g>
<!-- pyparsing&#45;&gt;shekels.core.data_tools -->
<g id="edge49" class="edge">
<title>pyparsing&#45;&gt;shekels.core.data_tools</title>
<path fill="none" stroke="#de958e" d="M724.5956,-568.8046C754.4014,-568.0232 794.7311,-566.9659 832.8046,-565.9677"/>
<polygon fill="#de958e" stroke="#de958e" points="833.0436,-569.4627 842.9484,-565.7017 832.8601,-562.4651 833.0436,-569.4627"/>
</g>
<!-- cufflinks -->
<g id="node28" class="node">
<title>cufflinks</title>
<polygon fill="#343434" stroke="#343434" points="724.5,-534 633.5,-534 633.5,-498 724.5,-498 724.5,-534"/>
<text text-anchor="middle" x="679" y="-512.3" font-family="Courier,monospace" font-size="14.00" fill="#de958e">cufflinks</text>
</g>
<!-- cufflinks&#45;&gt;shekels.core.data_tools -->
<g id="edge50" class="edge">
<title>cufflinks&#45;&gt;shekels.core.data_tools</title>
<path fill="none" stroke="#de958e" d="M724.5956,-524.0262C754.5382,-529.297 795.1013,-536.4373 833.3284,-543.1664"/>
<polygon fill="#de958e" stroke="#de958e" points="833.0559,-546.6722 843.5113,-544.9589 834.2696,-539.7782 833.0559,-546.6722"/>
</g>
<!-- schematics.exceptions -->
<g id="node29" class="node">
<title>schematics.exceptions</title>
<polygon fill="#343434" stroke="#343434" points="515,-649 325,-649 325,-613 515,-613 515,-649"/>
<text text-anchor="middle" x="420" y="-627.3" font-family="Courier,monospace" font-size="14.00" fill="#de958e">schematics.exceptions</text>
</g>
<!-- schematics.exceptions&#45;&gt;shekels.core.config -->
<g id="edge51" class="edge">
<title>schematics.exceptions&#45;&gt;shekels.core.config</title>
<path fill="none" stroke="#de958e" d="M475.3315,-649.1936C489.1974,-655.3724 503.4098,-663.247 515,-673 537.0701,-691.5717 527.1181,-710.8243 551,-727 560.5261,-733.4522 571.2945,-738.4081 582.4406,-742.2072"/>
<polygon fill="#de958e" stroke="#de958e" points="581.7234,-745.6488 592.311,-745.2566 583.7897,-738.9607 581.7234,-745.6488"/>
</g>
<!-- schematics.exceptions&#45;&gt;shekels.core.data_tools -->
<g id="edge52" class="edge">
<title>schematics.exceptions&#45;&gt;shekels.core.data_tools</title>
<path fill="none" stroke="#de958e" d="M515.1372,-626.6871C593.7867,-622.1543 708.1823,-613.3288 807,-597 827.9588,-593.5367 850.4242,-588.5938 871.0514,-583.546"/>
<polygon fill="#de958e" stroke="#de958e" points="872.1568,-586.8777 881.0152,-581.0656 870.4658,-580.085 872.1568,-586.8777"/>
</g>
<!-- schematics.exceptions&#45;&gt;shekels.server.api -->
<g id="edge53" class="edge">
<title>schematics.exceptions&#45;&gt;shekels.server.api</title>
<path fill="none" stroke="#de958e" d="M484.3483,-649.0035C496.0444,-654.9313 507.0411,-662.7416 515,-673 574.6586,-749.895 476.7397,-826.0921 551,-889 637.8147,-962.5431 700.962,-930.2471 807,-889 827.2286,-881.1314 823.0705,-864.5979 843,-856 941.4045,-813.5468 1217.313,-831.1785 1324,-821 1332.3746,-820.201 1341.0742,-819.3032 1349.7849,-818.3581"/>
<polygon fill="#de958e" stroke="#de958e" points="1350.4416,-821.8069 1359.9967,-817.2299 1349.6729,-814.8492 1350.4416,-821.8069"/>
</g>
<!-- schematics.exceptions&#45;&gt;shekels.server.components -->
<g id="edge54" class="edge">
<title>schematics.exceptions&#45;&gt;shekels.server.components</title>
<path fill="none" stroke="#de958e" d="M426.2361,-612.941C440.964,-573.2676 481.9497,-478.5791 551,-435 637.1213,-380.6471 918.4306,-355.9814 1082.5451,-345.9748"/>
<polygon fill="#de958e" stroke="#de958e" points="1082.9241,-349.4585 1092.6964,-345.3654 1082.5046,-342.471 1082.9241,-349.4585"/>
</g>
<!-- schematics.types -->
<g id="node30" class="node">
<title>schematics.types</title>
<polygon fill="#343434" stroke="#343434" points="494.5,-718 345.5,-718 345.5,-682 494.5,-682 494.5,-718"/>
<text text-anchor="middle" x="420" y="-696.3" font-family="Courier,monospace" font-size="14.00" fill="#de958e">schematics.types</text>
</g>
<!-- schematics.types&#45;&gt;shekels.core.config -->
<g id="edge55" class="edge">
<title>schematics.types&#45;&gt;shekels.core.config</title>
<path fill="none" stroke="#de958e" d="M494.5661,-715.5466C521.9704,-721.2602 553.4035,-727.8139 582.4641,-733.8728"/>
<polygon fill="#de958e" stroke="#de958e" points="582.1298,-737.3783 592.6337,-735.9931 583.5586,-730.5257 582.1298,-737.3783"/>
</g>
<!-- lunchbox.enforce -->
<g id="node31" class="node">
<title>lunchbox.enforce</title>
<polygon fill="#343434" stroke="#343434" points="494.5,-228 345.5,-228 345.5,-192 494.5,-192 494.5,-228"/>
<text text-anchor="middle" x="420" y="-206.3" font-family="Courier,monospace" font-size="14.00" fill="#de958e">lunchbox.enforce</text>
</g>
<!-- lunchbox.enforce&#45;&gt;shekels.core.data_tools -->
<g id="edge56" class="edge">
<title>lunchbox.enforce&#45;&gt;shekels.core.data_tools</title>
<path fill="none" stroke="#de958e" d="M494.7351,-204.4813C592.8782,-198.7635 758.4356,-194.8587 807,-229 833.8608,-247.8834 909.5845,-458.772 936.4223,-535.3907"/>
<polygon fill="#de958e" stroke="#de958e" points="933.1311,-536.5825 939.7327,-544.8692 939.7397,-534.2744 933.1311,-536.5825"/>
</g>
<!-- lunchbox.enforce&#45;&gt;shekels.enforce.enforce_tools -->
<g id="edge57" class="edge">
<title>lunchbox.enforce&#45;&gt;shekels.enforce.enforce_tools</title>
<path fill="none" stroke="#de958e" d="M494.5661,-223.2434C517.2887,-227.2791 542.7811,-231.8067 567.3943,-236.1781"/>
<polygon fill="#de958e" stroke="#de958e" points="567.0501,-239.6717 577.5081,-237.9744 568.2743,-232.7796 567.0501,-239.6717"/>
</g>
<!-- lunchbox.enforce&#45;&gt;shekels.server.components -->
<g id="edge58" class="edge">
<title>lunchbox.enforce&#45;&gt;shekels.server.components</title>
<path fill="none" stroke="#de958e" d="M443.5041,-191.991C468.5616,-174.0221 510.1772,-147.6065 551,-137 661.1216,-108.3885 695.7008,-113.3807 807,-137 824.1277,-140.6347 826.2147,-148.0178 843,-153 931.8899,-179.3841 979.3731,-124.7658 1049,-186 1091.4519,-223.3348 1044.5223,-268.5335 1085,-308 1088.2894,-311.2072 1091.8634,-314.1019 1095.6515,-316.7138"/>
<polygon fill="#de958e" stroke="#de958e" points="1093.9044,-319.7481 1104.259,-321.9919 1097.5637,-313.7807 1093.9044,-319.7481"/>
</g>
<!-- rolling_pin.blob_etl -->
<g id="node32" class="node">
<title>rolling_pin.blob_etl</title>
<polygon fill="#343434" stroke="#343434" points="770,-182 588,-182 588,-146 770,-146 770,-182"/>
<text text-anchor="middle" x="679" y="-160.3" font-family="Courier,monospace" font-size="14.00" fill="#de958e">rolling_pin.blob_etl</text>
</g>
<!-- rolling_pin.blob_etl&#45;&gt;shekels.core.data_tools -->
<g id="edge59" class="edge">
<title>rolling_pin.blob_etl&#45;&gt;shekels.core.data_tools</title>
<path fill="none" stroke="#de958e" d="M770.1579,-175.1355C783.6168,-179.9283 796.4731,-186.6386 807,-196 813.7576,-202.0094 904.959,-450.6064 935.8515,-535.1739"/>
<polygon fill="#de958e" stroke="#de958e" points="932.5927,-536.4535 939.3102,-544.6465 939.1681,-534.0527 932.5927,-536.4535"/>
</g>
<!-- rolling_pin.blob_etl&#45;&gt;shekels.server.components -->
<g id="edge60" class="edge">
<title>rolling_pin.blob_etl&#45;&gt;shekels.server.components</title>
<path fill="none" stroke="#de958e" d="M770.1734,-177.8456C876.1188,-194.2563 1037.9585,-220.4561 1049,-229 1079.5158,-252.613 1055.5492,-283.0713 1085,-308 1088.9958,-311.3823 1093.3141,-314.4106 1097.8572,-317.1217"/>
<polygon fill="#de958e" stroke="#de958e" points="1096.3802,-320.3013 1106.8454,-321.9539 1099.6949,-314.1358 1096.3802,-320.3013"/>
</g>
<!-- flasgger -->
<g id="node33" class="node">
<title>flasgger</title>
<polygon fill="#343434" stroke="#343434" points="1246,-679 1163,-679 1163,-643 1246,-643 1246,-679"/>
<text text-anchor="middle" x="1204.5" y="-657.3" font-family="Courier,monospace" font-size="14.00" fill="#de958e">flasgger</text>
</g>
<!-- flasgger&#45;&gt;shekels.server.api -->
<g id="edge61" class="edge">
<title>flasgger&#45;&gt;shekels.server.api</title>
<path fill="none" stroke="#de958e" d="M1246.0986,-664.5835C1270.063,-668.0291 1300.0785,-674.7803 1324,-688 1365.8584,-711.132 1402.7265,-753.4768 1423.8141,-780.9162"/>
<polygon fill="#de958e" stroke="#de958e" points="1421.0275,-783.0341 1429.8399,-788.9156 1426.6187,-778.8223 1421.0275,-783.0341"/>
</g>
<!-- flasgger&#45;&gt;shekels.server.app -->
<g id="edge62" class="edge">
<title>flasgger&#45;&gt;shekels.server.app</title>
<path fill="none" stroke="#de958e" d="M1246.2597,-670.4093C1269.208,-675.5865 1298.1776,-682.1329 1324,-688 1401.9464,-705.7103 1490.5599,-725.9666 1554.6598,-740.6411"/>
<polygon fill="#de958e" stroke="#de958e" points="1554.2026,-744.1269 1564.7315,-742.9471 1555.7649,-737.3035 1554.2026,-744.1269"/>
</g>
<!-- webcolors -->
<g id="node34" class="node">
<title>webcolors</title>
<polygon fill="#343434" stroke="#343434" points="724.5,-480 633.5,-480 633.5,-444 724.5,-444 724.5,-480"/>
<text text-anchor="middle" x="679" y="-458.3" font-family="Courier,monospace" font-size="14.00" fill="#de958e">webcolors</text>
</g>
<!-- webcolors&#45;&gt;shekels.core.data_tools -->
<g id="edge63" class="edge">
<title>webcolors&#45;&gt;shekels.core.data_tools</title>
<path fill="none" stroke="#de958e" d="M724.588,-468.4093C749.4242,-472.693 780.4248,-479.3429 807,-489 843.2436,-502.1704 881.7469,-523.2932 909.0163,-539.6065"/>
<polygon fill="#de958e" stroke="#de958e" points="907.4476,-542.7483 917.8141,-544.936 911.0745,-536.7611 907.4476,-542.7483"/>
</g>
<!-- jsoncomment -->
<g id="node35" class="node">
<title>jsoncomment</title>
<polygon fill="#343434" stroke="#343434" points="999.5,-955 892.5,-955 892.5,-919 999.5,-919 999.5,-955"/>
<text text-anchor="middle" x="946" y="-933.3" font-family="Courier,monospace" font-size="14.00" fill="#de958e">jsoncomment</text>
</g>
<!-- jsoncomment&#45;&gt;shekels.core.database -->
<g id="edge64" class="edge">
<title>jsoncomment&#45;&gt;shekels.core.database</title>
<path fill="none" stroke="#de958e" d="M999.51,-929.7624C1016.3025,-925.7682 1034.2813,-919.5801 1049,-910 1115.8024,-866.5196 1166.9354,-784.7459 1190.3937,-742.2301"/>
<polygon fill="#de958e" stroke="#de958e" points="1193.5505,-743.7507 1195.2361,-733.2908 1187.3955,-740.4165 1193.5505,-743.7507"/>
</g>
<!-- jsoncomment&#45;&gt;shekels.server.app -->
<g id="edge65" class="edge">
<title>jsoncomment&#45;&gt;shekels.server.app</title>
<path fill="none" stroke="#de958e" d="M999.6212,-941.7669C1125.4823,-951.9882 1435.9166,-971.2923 1525,-922 1579.0801,-892.076 1615.264,-825.873 1632.2799,-788.3469"/>
<polygon fill="#de958e" stroke="#de958e" points="1635.5597,-789.5829 1636.3815,-779.02 1629.152,-786.765 1635.5597,-789.5829"/>
</g>
<!-- jsoncomment&#45;&gt;shekels.server.server_tools -->
<g id="edge66" class="edge">
<title>jsoncomment&#45;&gt;shekels.server.server_tools</title>
<path fill="none" stroke="#de958e" d="M999.5614,-949.432C1033.3712,-957.2796 1077.8497,-967.6034 1116.7276,-976.6273"/>
<polygon fill="#de958e" stroke="#de958e" points="1115.9489,-980.0395 1126.4813,-978.8912 1117.5316,-973.2208 1115.9489,-980.0395"/>
</g>
<!-- flask_caching -->
<g id="node36" class="node">
<title>flask_caching</title>
<polygon fill="#343434" stroke="#343434" points="1504.5,-190 1380.5,-190 1380.5,-154 1504.5,-154 1504.5,-190"/>
<text text-anchor="middle" x="1442.5" y="-168.3" font-family="Courier,monospace" font-size="14.00" fill="#de958e">flask_caching</text>
</g>
<!-- flask_caching&#45;&gt;shekels.server.app -->
<g id="edge67" class="edge">
<title>flask_caching&#45;&gt;shekels.server.app</title>
<path fill="none" stroke="#de958e" d="M1504.6732,-188.0808C1512.3391,-192.2327 1519.4236,-197.4489 1525,-204 1594.7139,-285.8988 1631.5237,-630.9173 1641.0038,-732.6522"/>
<polygon fill="#de958e" stroke="#de958e" points="1637.5338,-733.1406 1641.9315,-742.7796 1644.5046,-732.5019 1637.5338,-733.1406"/>
</g>
<!-- selenium.webdriver.chrome.options -->
<g id="node37" class="node">
<title>selenium.webdriver.chrome.options</title>
<polygon fill="#343434" stroke="#343434" points="289,-880 0,-880 0,-844 289,-844 289,-880"/>
<text text-anchor="middle" x="144.5" y="-858.3" font-family="Courier,monospace" font-size="14.00" fill="#de958e">selenium.webdriver.chrome.options</text>
</g>
</g>
</svg>
