<?xml version="1.0" encoding="UTF-8" standalone="no"?>
<!DOCTYPE svg PUBLIC "-//W3C//DTD SVG 1.1//EN"
 "http://www.w3.org/Graphics/SVG/1.1/DTD/svg11.dtd">
<!-- Generated by graphviz version 2.40.1 (20161225.0304)
 -->
<!-- Title: %3 Pages: 1 -->
<svg width="1519pt" height="1078pt"
 viewBox="0.00 0.00 1519.00 1077.80" xmlns="http://www.w3.org/2000/svg" xmlns:xlink="http://www.w3.org/1999/xlink">
<g id="graph0" class="graph" transform="scale(1 1) rotate(0) translate(4 1073.8005)">
<title>%3</title>
<polygon fill="#242424" stroke="transparent" points="-4,4 -4,-1073.8005 1515,-1073.8005 1515,4 -4,4"/>
<!-- cli -->
<g id="node1" class="node">
<title>cli</title>
<polygon fill="#343434" stroke="#343434" points="64,-645 10,-645 10,-609 64,-609 64,-645"/>
<text text-anchor="middle" x="37" y="-623.3" font-family="Courier,monospace" font-size="14.00" fill="#b6ecf3">cli</text>
</g>
<!-- shekels.core.config -->
<g id="node2" class="node">
<title>shekels.core.config</title>
<polygon fill="#343434" stroke="#343434" points="550.5,-815 377.5,-815 377.5,-779 550.5,-779 550.5,-815"/>
<text text-anchor="middle" x="464" y="-793.3" font-family="Courier,monospace" font-size="14.00" fill="#b6ecf3">shekels.core.config</text>
</g>
<!-- shekels.core.data_tools -->
<g id="node3" class="node">
<title>shekels.core.data_tools</title>
<polygon fill="#343434" stroke="#343434" points="834,-431 628,-431 628,-395 834,-395 834,-431"/>
<text text-anchor="middle" x="731" y="-409.3" font-family="Courier,monospace" font-size="14.00" fill="#b6ecf3">shekels.core.data_tools</text>
</g>
<!-- shekels.core.config&#45;&gt;shekels.core.data_tools -->
<g id="edge1" class="edge">
<title>shekels.core.config&#45;&gt;shekels.core.data_tools</title>
<path fill="none" stroke="#b6ecf3" d="M550.5986,-793.8621C566.2673,-789.4226 581.0746,-782.0136 592,-770 687.4,-665.0976 541.4305,-565.3005 628,-453 633.177,-446.2843 639.637,-440.6952 646.7827,-436.0438"/>
<polygon fill="#b6ecf3" stroke="#b6ecf3" points="648.5655,-439.056 655.4503,-431.003 645.0463,-433.0049 648.5655,-439.056"/>
</g>
<!-- shekels.core.database -->
<g id="node4" class="node">
<title>shekels.core.database</title>
<polygon fill="#343434" stroke="#343434" points="1084.5,-677 894.5,-677 894.5,-641 1084.5,-641 1084.5,-677"/>
<text text-anchor="middle" x="989.5" y="-655.3" font-family="Courier,monospace" font-size="14.00" fill="#b6ecf3">shekels.core.database</text>
</g>
<!-- shekels.core.config&#45;&gt;shekels.core.database -->
<g id="edge2" class="edge">
<title>shekels.core.config&#45;&gt;shekels.core.database</title>
<path fill="none" stroke="#b6ecf3" d="M550.835,-779.0658C564.6219,-776.1082 578.7122,-773.0205 592,-770 699.9521,-745.4613 727.6338,-741.6927 834,-711 865.8212,-701.8178 900.8373,-690.241 929.5714,-680.3429"/>
<polygon fill="#b6ecf3" stroke="#b6ecf3" points="930.7575,-683.6362 939.0615,-677.0564 928.4667,-677.0216 930.7575,-683.6362"/>
</g>
<!-- shekels.server.app -->
<g id="node7" class="node">
<title>shekels.server.app</title>
<polygon fill="#343434" stroke="#343434" points="1511,-517 1346,-517 1346,-481 1511,-481 1511,-517"/>
<text text-anchor="middle" x="1428.5" y="-495.3" font-family="Courier,monospace" font-size="14.00" fill="#b6ecf3">shekels.server.app</text>
</g>
<!-- shekels.core.config&#45;&gt;shekels.server.app -->
<g id="edge3" class="edge">
<title>shekels.core.config&#45;&gt;shekels.server.app</title>
<path fill="none" stroke="#b6ecf3" d="M469.3573,-815.2893C484.6623,-863.7422 533.6702,-995.1771 628,-1046 708.6013,-1089.4263 744.0125,-1062.8723 834,-1046 1057.0845,-1004.1725 1153.9255,-1025.7938 1310,-861 1401.9645,-763.8978 1422.581,-594.2911 1427.1842,-527.3399"/>
<polygon fill="#b6ecf3" stroke="#b6ecf3" points="1430.6908,-527.3397 1427.8137,-517.143 1423.7041,-526.9083 1430.6908,-527.3397"/>
</g>
<!-- shekels.server.components -->
<g id="node8" class="node">
<title>shekels.server.components</title>
<polygon fill="#343434" stroke="#343434" points="1101,-320 878,-320 878,-284 1101,-284 1101,-320"/>
<text text-anchor="middle" x="989.5" y="-298.3" font-family="Courier,monospace" font-size="14.00" fill="#b6ecf3">shekels.server.components</text>
</g>
<!-- shekels.core.config&#45;&gt;shekels.server.components -->
<g id="edge4" class="edge">
<title>shekels.core.config&#45;&gt;shekels.server.components</title>
<path fill="none" stroke="#b6ecf3" d="M550.737,-793.5938C566.2987,-789.1576 581.0296,-781.818 592,-770 673.7631,-681.9191 550.0282,-593.4541 628,-502 690.0321,-429.2418 750.5126,-486.6003 834,-440 887.5239,-410.1245 938.4654,-359.157 966.6965,-328.2287"/>
<polygon fill="#b6ecf3" stroke="#b6ecf3" points="969.6141,-330.2192 973.7065,-320.4466 964.413,-325.5342 969.6141,-330.2192"/>
</g>
<!-- shekels.core.data_tools&#45;&gt;shekels.core.database -->
<g id="edge5" class="edge">
<title>shekels.core.data_tools&#45;&gt;shekels.core.database</title>
<path fill="none" stroke="#b6ecf3" d="M753.1333,-431.2716C774.2903,-448.9352 806.8873,-476.6707 834,-502 881.81,-546.6652 934.9322,-601.4985 965.0696,-633.1285"/>
<polygon fill="#b6ecf3" stroke="#b6ecf3" points="962.7927,-635.8133 972.2192,-640.6498 967.8662,-630.9905 962.7927,-635.8133"/>
</g>
<!-- shekels.core.data_tools&#45;&gt;shekels.server.components -->
<g id="edge6" class="edge">
<title>shekels.core.data_tools&#45;&gt;shekels.server.components</title>
<path fill="none" stroke="#b6ecf3" d="M773.1078,-394.9189C818.1731,-375.5678 889.6943,-344.8566 938.0604,-324.0882"/>
<polygon fill="#b6ecf3" stroke="#b6ecf3" points="939.6025,-327.2351 947.4102,-320.0734 936.8405,-320.803 939.6025,-327.2351"/>
</g>
<!-- shekels.server.api -->
<g id="node6" class="node">
<title>shekels.server.api</title>
<polygon fill="#343434" stroke="#343434" points="1310,-601 1145,-601 1145,-565 1310,-565 1310,-601"/>
<text text-anchor="middle" x="1227.5" y="-579.3" font-family="Courier,monospace" font-size="14.00" fill="#b6ecf3">shekels.server.api</text>
</g>
<!-- shekels.core.database&#45;&gt;shekels.server.api -->
<g id="edge7" class="edge">
<title>shekels.core.database&#45;&gt;shekels.server.api</title>
<path fill="none" stroke="#b6ecf3" d="M1045.9027,-640.9891C1080.6034,-629.9082 1125.2317,-615.6571 1161.5623,-604.0557"/>
<polygon fill="#b6ecf3" stroke="#b6ecf3" points="1162.6289,-607.3893 1171.0903,-601.0132 1160.4994,-600.7211 1162.6289,-607.3893"/>
</g>
<!-- shekels.enforce.enforce_tools -->
<g id="node5" class="node">
<title>shekels.enforce.enforce_tools</title>
<polygon fill="#343434" stroke="#343434" points="592,-209 336,-209 336,-173 592,-173 592,-209"/>
<text text-anchor="middle" x="464" y="-187.3" font-family="Courier,monospace" font-size="14.00" fill="#b6ecf3">shekels.enforce.enforce_tools</text>
</g>
<!-- shekels.enforce.enforce_tools&#45;&gt;shekels.core.data_tools -->
<g id="edge8" class="edge">
<title>shekels.enforce.enforce_tools&#45;&gt;shekels.core.data_tools</title>
<path fill="none" stroke="#b6ecf3" d="M505.0172,-209.1267C531.2262,-221.7179 565.1976,-239.9725 592,-261 640.2953,-298.8895 686.3211,-354.3099 711.4059,-386.7142"/>
<polygon fill="#b6ecf3" stroke="#b6ecf3" points="708.7561,-389.0108 717.6157,-394.821 714.3132,-384.7541 708.7561,-389.0108"/>
</g>
<!-- shekels.server.api&#45;&gt;shekels.server.app -->
<g id="edge9" class="edge">
<title>shekels.server.api&#45;&gt;shekels.server.app</title>
<path fill="none" stroke="#b6ecf3" d="M1270.6195,-564.9799C1301.3812,-552.1243 1342.9291,-534.761 1375.682,-521.0732"/>
<polygon fill="#b6ecf3" stroke="#b6ecf3" points="1377.2283,-524.2204 1385.1054,-517.135 1374.5292,-517.7617 1377.2283,-524.2204"/>
</g>
<!-- shekels.server.components&#45;&gt;shekels.server.app -->
<g id="edge10" class="edge">
<title>shekels.server.components&#45;&gt;shekels.server.app</title>
<path fill="none" stroke="#b6ecf3" d="M1034.2297,-320.0482C1096.5474,-345.4353 1212.7902,-393.6713 1310,-439 1335.2567,-450.7772 1363.0752,-464.806 1385.4084,-476.3361"/>
<polygon fill="#b6ecf3" stroke="#b6ecf3" points="1383.817,-479.4534 1394.306,-480.9471 1387.0379,-473.2384 1383.817,-479.4534"/>
</g>
<!-- shekels.server.server_tools -->
<g id="node9" class="node">
<title>shekels.server.server_tools</title>
<polygon fill="#343434" stroke="#343434" points="1109,-845 870,-845 870,-809 1109,-809 1109,-845"/>
<text text-anchor="middle" x="989.5" y="-823.3" font-family="Courier,monospace" font-size="14.00" fill="#b6ecf3">shekels.server.server_tools</text>
</g>
<!-- shekels.server.server_tools&#45;&gt;shekels.server.api -->
<g id="edge11" class="edge">
<title>shekels.server.server_tools&#45;&gt;shekels.server.api</title>
<path fill="none" stroke="#b6ecf3" d="M1091.4455,-808.9203C1097.9131,-805.0886 1103.8723,-800.4967 1109,-795 1166.1384,-733.7489 1089.5562,-672.7892 1145,-610 1145.7481,-609.1527 1146.5232,-608.332 1147.3231,-607.5368"/>
<polygon fill="#b6ecf3" stroke="#b6ecf3" points="1149.6749,-610.1333 1155.1301,-601.0508 1145.2017,-604.749 1149.6749,-610.1333"/>
</g>
<!-- shekels.server.server_tools&#45;&gt;shekels.server.app -->
<g id="edge12" class="edge">
<title>shekels.server.server_tools&#45;&gt;shekels.server.app</title>
<path fill="none" stroke="#b6ecf3" d="M1063.36,-808.9117C1078.7371,-804.1691 1094.6291,-798.5211 1109,-792 1205.4445,-748.2364 1233.0518,-736.772 1310,-664 1354.5015,-621.9138 1393.1606,-560.992 1413.4232,-526.1604"/>
<polygon fill="#b6ecf3" stroke="#b6ecf3" points="1416.7006,-527.4811 1418.6401,-517.0653 1410.6285,-523.9983 1416.7006,-527.4811"/>
</g>
<!-- dash.dependencies -->
<g id="node10" class="node">
<title>dash.dependencies</title>
<polygon fill="#343434" stroke="#343434" points="1306,-655 1149,-655 1149,-619 1306,-619 1306,-655"/>
<text text-anchor="middle" x="1227.5" y="-633.3" font-family="Courier,monospace" font-size="14.00" fill="#de958e">dash.dependencies</text>
</g>
<!-- dash.dependencies&#45;&gt;shekels.server.app -->
<g id="edge13" class="edge">
<title>dash.dependencies&#45;&gt;shekels.server.app</title>
<path fill="none" stroke="#de958e" d="M1292.2178,-618.8854C1298.3929,-616.2551 1304.4236,-613.3012 1310,-610 1348.5232,-587.1947 1384.8543,-549.9663 1406.8875,-524.9865"/>
<polygon fill="#de958e" stroke="#de958e" points="1409.6122,-527.1868 1413.5234,-517.3403 1404.3255,-522.5986 1409.6122,-527.1868"/>
</g>
<!-- shekels.server -->
<g id="node11" class="node">
<title>shekels.server</title>
<polygon fill="#343434" stroke="#343434" points="797,-875 665,-875 665,-839 797,-839 797,-875"/>
<text text-anchor="middle" x="731" y="-853.3" font-family="Courier,monospace" font-size="14.00" fill="#a0d17b">shekels.server</text>
</g>
<!-- shekels.server&#45;&gt;shekels.server.api -->
<g id="edge14" class="edge">
<title>shekels.server&#45;&gt;shekels.server.api</title>
<path fill="none" stroke="#a0d17b" d="M797.2725,-839.7022C809.7405,-835.5331 822.4733,-830.6265 834,-825 851.5055,-816.4551 852.0017,-807.451 870,-800 969.7205,-758.7177 1030.3489,-830.9081 1109,-757 1158.0178,-710.9381 1099.2813,-659.3381 1145,-610 1145.7682,-609.1709 1146.5623,-608.3673 1147.3799,-607.5882"/>
<polygon fill="#a0d17b" stroke="#a0d17b" points="1149.7075,-610.2082 1155.3182,-601.2209 1145.3276,-604.7477 1149.7075,-610.2082"/>
</g>
<!-- shekels.server&#45;&gt;shekels.server.app -->
<g id="edge15" class="edge">
<title>shekels.server&#45;&gt;shekels.server.app</title>
<path fill="none" stroke="#a0d17b" d="M797.016,-866.8305C873.6417,-875.8923 1003.0445,-883.8848 1109,-854 1209.3559,-825.6946 1239.0133,-809.3766 1310,-733 1368.1972,-670.384 1404.7634,-573.7714 1420.1282,-526.6925"/>
<polygon fill="#a0d17b" stroke="#a0d17b" points="1423.4636,-527.753 1423.1681,-517.1623 1416.7947,-525.6257 1423.4636,-527.753"/>
</g>
<!-- shekels.server&#45;&gt;shekels.server.components -->
<g id="edge16" class="edge">
<title>shekels.server&#45;&gt;shekels.server.components</title>
<path fill="none" stroke="#a0d17b" d="M736.9163,-838.612C758.5925,-771.5875 834.2596,-540.7204 870,-472 898.2689,-417.6456 941.62,-360.5945 967.6028,-328.3442"/>
<polygon fill="#a0d17b" stroke="#a0d17b" points="970.5394,-330.2803 974.1292,-320.3121 965.1067,-325.866 970.5394,-330.2803"/>
</g>
<!-- shekels.server&#45;&gt;shekels.server.server_tools -->
<g id="edge17" class="edge">
<title>shekels.server&#45;&gt;shekels.server.server_tools</title>
<path fill="none" stroke="#a0d17b" d="M797.2345,-849.3132C816.4983,-847.0776 838.2346,-844.555 859.9812,-842.0312"/>
<polygon fill="#a0d17b" stroke="#a0d17b" points="860.4348,-845.5021 869.9647,-840.8726 859.6278,-838.5488 860.4348,-845.5021"/>
</g>
<!-- dash -->
<g id="node12" class="node">
<title>dash</title>
<polygon fill="#343434" stroke="#343434" points="758,-144 704,-144 704,-108 758,-108 758,-144"/>
<text text-anchor="middle" x="731" y="-122.3" font-family="Courier,monospace" font-size="14.00" fill="#de958e">dash</text>
</g>
<!-- dash&#45;&gt;shekels.server.app -->
<g id="edge18" class="edge">
<title>dash&#45;&gt;shekels.server.app</title>
<path fill="none" stroke="#de958e" d="M758.4431,-126.868C781.0714,-128.9406 812.7878,-135.1408 834,-153 863.5165,-177.8509 839.5328,-208.3243 870,-232 955.2214,-298.2246 1005.9429,-242.9434 1109,-275 1202.6368,-304.1264 1230.9981,-307.9061 1310,-366 1351.3196,-396.3843 1388.8354,-443.2185 1410.1347,-472.4375"/>
<polygon fill="#de958e" stroke="#de958e" points="1407.536,-474.8192 1416.2105,-480.9023 1413.2227,-470.7374 1407.536,-474.8192"/>
</g>
<!-- dash&#45;&gt;shekels.server.components -->
<g id="edge19" class="edge">
<title>dash&#45;&gt;shekels.server.components</title>
<path fill="none" stroke="#de958e" d="M758.1429,-126.1196C781.2085,-127.6816 813.717,-133.554 834,-153 873.2726,-190.6519 830.8269,-232.2446 870,-270 873.3079,-273.1882 876.8973,-276.0669 880.6981,-278.6658"/>
<polygon fill="#de958e" stroke="#de958e" points="878.9673,-281.7097 889.3292,-283.9195 882.607,-275.7303 878.9673,-281.7097"/>
</g>
<!-- dash.exceptions -->
<g id="node13" class="node">
<title>dash.exceptions</title>
<polygon fill="#343434" stroke="#343434" points="801,-983 661,-983 661,-947 801,-947 801,-983"/>
<text text-anchor="middle" x="731" y="-961.3" font-family="Courier,monospace" font-size="14.00" fill="#de958e">dash.exceptions</text>
</g>
<!-- dash.exceptions&#45;&gt;shekels.server.server_tools -->
<g id="edge20" class="edge">
<title>dash.exceptions&#45;&gt;shekels.server.server_tools</title>
<path fill="none" stroke="#de958e" d="M801.1947,-950.2791C812.412,-946.8877 823.705,-942.8235 834,-938 882.5944,-915.2321 931.8747,-876.9078 961.565,-851.7838"/>
<polygon fill="#de958e" stroke="#de958e" points="964.0841,-854.2346 969.4028,-845.0715 959.5308,-848.9178 964.0841,-854.2346"/>
</g>
<!-- dash_core_components -->
<g id="node14" class="node">
<title>dash_core_components</title>
<polygon fill="#343434" stroke="#343434" points="822,-90 640,-90 640,-54 822,-54 822,-90"/>
<text text-anchor="middle" x="731" y="-68.3" font-family="Courier,monospace" font-size="14.00" fill="#de958e">dash_core_components</text>
</g>
<!-- dash_core_components&#45;&gt;shekels.server.app -->
<g id="edge21" class="edge">
<title>dash_core_components&#45;&gt;shekels.server.app</title>
<path fill="none" stroke="#de958e" d="M821.8957,-90.15C826.2148,-92.7283 830.2889,-95.6623 834,-99 867.5718,-129.1936 834.9798,-165.4992 870,-194 953.4214,-261.8916 1003.6538,-210.3071 1109,-232 1199.2701,-250.5885 1237.1207,-226.5834 1310,-283 1373.3607,-332.0481 1407.4455,-424.9767 1421.1722,-471.301"/>
<polygon fill="#de958e" stroke="#de958e" points="1417.8239,-472.3222 1423.9412,-480.9726 1424.5535,-470.3955 1417.8239,-472.3222"/>
</g>
<!-- dash_core_components&#45;&gt;shekels.server.components -->
<g id="edge22" class="edge">
<title>dash_core_components&#45;&gt;shekels.server.components</title>
<path fill="none" stroke="#de958e" d="M822.2983,-89.7238C826.5149,-92.4107 830.4566,-95.4848 834,-99 877.4743,-142.129 832.8117,-183.3466 870,-232 885.7847,-252.6511 909.548,-268.3436 931.7366,-279.5829"/>
<polygon fill="#de958e" stroke="#de958e" points="930.2684,-282.7607 940.7933,-283.9761 933.3235,-276.4626 930.2684,-282.7607"/>
</g>
<!-- shekels -->
<g id="node15" class="node">
<title>shekels</title>
<polygon fill="#343434" stroke="#343434" points="74,-699 0,-699 0,-663 74,-663 74,-699"/>
<text text-anchor="middle" x="37" y="-677.3" font-family="Courier,monospace" font-size="14.00" fill="#a0d17b">shekels</text>
</g>
<!-- shekels&#45;&gt;shekels.server -->
<g id="edge23" class="edge">
<title>shekels&#45;&gt;shekels.server</title>
<path fill="none" stroke="#a0d17b" d="M41.2271,-699.0322C51.7647,-742.2686 80.4831,-849.7586 110,-870 196.3066,-929.1853 508.7082,-891.1527 654.7564,-869.2968"/>
<polygon fill="#a0d17b" stroke="#a0d17b" points="655.6139,-872.707 664.9789,-867.7526 654.5683,-865.7855 655.6139,-872.707"/>
</g>
<!-- shekels.enforce -->
<g id="node18" class="node">
<title>shekels.enforce</title>
<polygon fill="#343434" stroke="#343434" points="275,-223 135,-223 135,-187 275,-187 275,-223"/>
<text text-anchor="middle" x="205" y="-201.3" font-family="Courier,monospace" font-size="14.00" fill="#a0d17b">shekels.enforce</text>
</g>
<!-- shekels&#45;&gt;shekels.enforce -->
<g id="edge24" class="edge">
<title>shekels&#45;&gt;shekels.enforce</title>
<path fill="none" stroke="#a0d17b" d="M67.2155,-662.7327C69.8553,-660.098 72.2019,-657.1855 74,-654 119.0678,-574.1585 55.3335,-316.6026 110,-243 114.4419,-237.0195 119.9779,-231.9787 126.1303,-227.7301"/>
<polygon fill="#a0d17b" stroke="#a0d17b" points="128.138,-230.6054 134.8573,-222.4138 124.4963,-224.6273 128.138,-230.6054"/>
</g>
<!-- shekels.core -->
<g id="node21" class="node">
<title>shekels.core</title>
<polygon fill="#343434" stroke="#343434" points="263,-699 147,-699 147,-663 263,-663 263,-699"/>
<text text-anchor="middle" x="205" y="-677.3" font-family="Courier,monospace" font-size="14.00" fill="#a0d17b">shekels.core</text>
</g>
<!-- shekels&#45;&gt;shekels.core -->
<g id="edge25" class="edge">
<title>shekels&#45;&gt;shekels.core</title>
<path fill="none" stroke="#a0d17b" d="M74.2846,-681C92.6441,-681 115.369,-681 136.6946,-681"/>
<polygon fill="#a0d17b" stroke="#a0d17b" points="136.6986,-684.5001 146.6985,-681 136.6985,-677.5001 136.6986,-684.5001"/>
</g>
<!-- dash_html_components -->
<g id="node16" class="node">
<title>dash_html_components</title>
<polygon fill="#343434" stroke="#343434" points="822,-198 640,-198 640,-162 822,-162 822,-198"/>
<text text-anchor="middle" x="731" y="-176.3" font-family="Courier,monospace" font-size="14.00" fill="#de958e">dash_html_components</text>
</g>
<!-- dash_html_components&#45;&gt;shekels.server.components -->
<g id="edge26" class="edge">
<title>dash_html_components&#45;&gt;shekels.server.components</title>
<path fill="none" stroke="#de958e" d="M810.1505,-198.0396C818.657,-201.8452 826.8159,-206.4443 834,-212 858.0003,-230.5601 845.6371,-251.9185 870,-270 874.8061,-273.567 879.9819,-276.7366 885.39,-279.553"/>
<polygon fill="#de958e" stroke="#de958e" points="884.1517,-282.8396 894.6864,-283.9674 887.1544,-276.5162 884.1517,-282.8396"/>
</g>
<!-- dash_table -->
<g id="node17" class="node">
<title>dash_table</title>
<polygon fill="#343434" stroke="#343434" points="780.5,-36 681.5,-36 681.5,0 780.5,0 780.5,-36"/>
<text text-anchor="middle" x="731" y="-14.3" font-family="Courier,monospace" font-size="14.00" fill="#de958e">dash_table</text>
</g>
<!-- dash_table&#45;&gt;shekels.server.app -->
<g id="edge27" class="edge">
<title>dash_table&#45;&gt;shekels.server.app</title>
<path fill="none" stroke="#de958e" d="M780.6097,-29.6847C797.6651,-34.0497 816.7923,-39.3343 834,-45 861.0451,-53.9047 1289.4468,-215.2949 1310,-235 1379.89,-302.0061 1411.7094,-417.7447 1423.1694,-470.8667"/>
<polygon fill="#de958e" stroke="#de958e" points="1419.7961,-471.8371 1425.2538,-480.918 1426.6502,-470.4156 1419.7961,-471.8371"/>
</g>
<!-- dash_table&#45;&gt;shekels.server.components -->
<g id="edge28" class="edge">
<title>dash_table&#45;&gt;shekels.server.components</title>
<path fill="none" stroke="#de958e" d="M780.7187,-20.3941C799.6931,-23.7799 820.0842,-30.813 834,-45 881.7064,-93.6362 835.1787,-135.4436 870,-194 890.5709,-228.5925 925.7823,-258.4247 952.6705,-277.9155"/>
<polygon fill="#de958e" stroke="#de958e" points="950.896,-280.9476 961.0789,-283.8732 954.9429,-275.236 950.896,-280.9476"/>
</g>
<!-- shekels.enforce&#45;&gt;shekels.enforce.enforce_tools -->
<g id="edge29" class="edge">
<title>shekels.enforce&#45;&gt;shekels.enforce.enforce_tools</title>
<path fill="none" stroke="#a0d17b" d="M275.0891,-201.2114C290.8686,-200.3585 308.1505,-199.4243 325.649,-198.4784"/>
<polygon fill="#a0d17b" stroke="#a0d17b" points="326.1707,-201.9554 335.9672,-197.9207 325.7928,-194.9656 326.1707,-201.9554"/>
</g>
<!-- flask -->
<g id="node19" class="node">
<title>flask</title>
<polygon fill="#343434" stroke="#343434" points="760,-547 702,-547 702,-511 760,-511 760,-547"/>
<text text-anchor="middle" x="731" y="-525.3" font-family="Courier,monospace" font-size="14.00" fill="#de958e">flask</text>
</g>
<!-- flask&#45;&gt;shekels.server.api -->
<g id="edge30" class="edge">
<title>flask&#45;&gt;shekels.server.api</title>
<path fill="none" stroke="#de958e" d="M760.4209,-531.9902C824.0394,-538.4831 979.1486,-554.4596 1109,-569 1117.3604,-569.9362 1126.0502,-570.9276 1134.7546,-571.9333"/>
<polygon fill="#de958e" stroke="#de958e" points="1134.6238,-575.4415 1144.9607,-573.1179 1135.4309,-568.4882 1134.6238,-575.4415"/>
</g>
<!-- flask&#45;&gt;shekels.server.app -->
<g id="edge31" class="edge">
<title>flask&#45;&gt;shekels.server.app</title>
<path fill="none" stroke="#de958e" d="M760.2587,-516.2924C797.6124,-500.1801 858.7724,-474.2127 870,-472 1031.5613,-440.1607 1224.2325,-462.3707 1335.8499,-480.9814"/>
<polygon fill="#de958e" stroke="#de958e" points="1335.2875,-484.4359 1345.7315,-482.655 1336.4565,-477.5342 1335.2875,-484.4359"/>
</g>
<!-- flask&#45;&gt;shekels.server.components -->
<g id="edge32" class="edge">
<title>flask&#45;&gt;shekels.server.components</title>
<path fill="none" stroke="#de958e" d="M760.3525,-519.1677C782.0213,-511.0326 811.5264,-498.0538 834,-481 853.585,-466.1382 853.9194,-457.5973 870,-439 903.6319,-400.1046 942.8551,-355.2297 966.9319,-327.7388"/>
<polygon fill="#de958e" stroke="#de958e" points="969.6422,-329.9565 973.5993,-320.1284 964.377,-325.3437 969.6422,-329.9565"/>
</g>
<!-- flask&#45;&gt;shekels.server.server_tools -->
<g id="edge33" class="edge">
<title>flask&#45;&gt;shekels.server.server_tools</title>
<path fill="none" stroke="#de958e" d="M746.7812,-547.1926C790.8571,-598.0035 915.3993,-741.5764 966.8396,-800.877"/>
<polygon fill="#de958e" stroke="#de958e" points="964.4003,-803.4063 973.5969,-808.6668 969.6881,-798.8194 964.4003,-803.4063"/>
</g>
<!-- jinja2 -->
<g id="node20" class="node">
<title>jinja2</title>
<polygon fill="#343434" stroke="#343434" points="764,-1037 698,-1037 698,-1001 764,-1001 764,-1037"/>
<text text-anchor="middle" x="731" y="-1015.3" font-family="Courier,monospace" font-size="14.00" fill="#de958e">jinja2</text>
</g>
<!-- jinja2&#45;&gt;shekels.server.server_tools -->
<g id="edge34" class="edge">
<title>jinja2&#45;&gt;shekels.server.server_tools</title>
<path fill="none" stroke="#de958e" d="M764.3683,-1015.0636C785.4766,-1011.4493 812.6988,-1004.6444 834,-992 894.4785,-956.1001 946.2846,-889.9353 972.0629,-853.2408"/>
<polygon fill="#de958e" stroke="#de958e" points="974.9426,-855.2301 977.7519,-845.0145 969.1852,-851.2485 974.9426,-855.2301"/>
</g>
<!-- shekels.core&#45;&gt;shekels.core.config -->
<g id="edge35" class="edge">
<title>shekels.core&#45;&gt;shekels.core.config</title>
<path fill="none" stroke="#a0d17b" d="M263.1064,-689.9503C276.1653,-693.9324 289.3059,-699.6862 300,-708 325.1562,-727.5569 310.184,-751.3227 336,-770 345.4878,-776.8642 356.3463,-782.0586 367.6386,-785.9775"/>
<polygon fill="#a0d17b" stroke="#a0d17b" points="366.6163,-789.3249 377.2055,-788.9779 368.7112,-782.6457 366.6163,-789.3249"/>
</g>
<!-- shekels.core&#45;&gt;shekels.core.data_tools -->
<g id="edge36" class="edge">
<title>shekels.core&#45;&gt;shekels.core.data_tools</title>
<path fill="none" stroke="#a0d17b" d="M208.9693,-662.869C223.7893,-597.0063 278.0128,-372.1717 336,-332 429.527,-267.2074 482.1586,-302.3309 592,-332 632.6325,-342.9752 673.5921,-369.0957 700.4148,-388.7284"/>
<polygon fill="#a0d17b" stroke="#a0d17b" points="698.5018,-391.668 708.6084,-394.8472 702.6902,-386.0593 698.5018,-391.668"/>
</g>
<!-- shekels.core&#45;&gt;shekels.core.database -->
<g id="edge37" class="edge">
<title>shekels.core&#45;&gt;shekels.core.database</title>
<path fill="none" stroke="#a0d17b" d="M263.1492,-681.7556C374.1857,-682.8666 624.0464,-683.7704 834,-673 850.1406,-672.172 867.198,-670.9702 883.8695,-669.6138"/>
<polygon fill="#a0d17b" stroke="#a0d17b" points="884.5148,-673.0721 894.1884,-668.7511 883.9316,-666.0964 884.5148,-673.0721"/>
</g>
<!-- schematics.exceptions -->
<g id="node22" class="node">
<title>schematics.exceptions</title>
<polygon fill="#343434" stroke="#343434" points="300,-753 110,-753 110,-717 300,-717 300,-753"/>
<text text-anchor="middle" x="205" y="-731.3" font-family="Courier,monospace" font-size="14.00" fill="#de958e">schematics.exceptions</text>
</g>
<!-- schematics.exceptions&#45;&gt;shekels.core.config -->
<g id="edge38" class="edge">
<title>schematics.exceptions&#45;&gt;shekels.core.config</title>
<path fill="none" stroke="#de958e" d="M269.7929,-753.0421C290.8492,-758.7093 314.3627,-764.8313 336,-770 346.232,-772.4442 356.9519,-774.8879 367.6481,-777.2511"/>
<polygon fill="#de958e" stroke="#de958e" points="366.9326,-780.6773 377.4497,-779.3966 368.4294,-773.8392 366.9326,-780.6773"/>
</g>
<!-- schematics.exceptions&#45;&gt;shekels.core.data_tools -->
<g id="edge39" class="edge">
<title>schematics.exceptions&#45;&gt;shekels.core.data_tools</title>
<path fill="none" stroke="#de958e" d="M289.4951,-716.9856C293.3108,-714.3728 296.8517,-711.3942 300,-708 354.2961,-649.4624 278.0287,-586.9004 336,-532 419.5165,-452.9076 490.9906,-549.0247 592,-494 613.2951,-482.3996 608.1284,-466.8985 628,-453 638.0471,-445.9729 649.4976,-439.9614 661.0245,-434.8963"/>
<polygon fill="#de958e" stroke="#de958e" points="662.3834,-438.1218 670.2599,-431.0358 659.6837,-431.6634 662.3834,-438.1218"/>
</g>
<!-- schematics.exceptions&#45;&gt;shekels.server.api -->
<g id="edge40" class="edge">
<title>schematics.exceptions&#45;&gt;shekels.server.api</title>
<path fill="none" stroke="#de958e" d="M285.9684,-753.1049C290.935,-755.6848 295.6682,-758.6324 300,-762 325.1562,-781.5569 308.3854,-808.1021 336,-824 434.6046,-880.7673 479.1885,-838.797 592,-824 621.4754,-820.1338 1086.1604,-705.0289 1109,-686 1137.7153,-662.0757 1116.9589,-634.711 1145,-610 1146.3215,-608.8355 1147.6942,-607.721 1149.1108,-606.6544"/>
<polygon fill="#de958e" stroke="#de958e" points="1151.2079,-609.4647 1157.6519,-601.0549 1147.37,-603.6107 1151.2079,-609.4647"/>
</g>
<!-- pandas -->
<g id="node23" class="node">
<title>pandas</title>
<polygon fill="#343434" stroke="#343434" points="238,-288 172,-288 172,-252 238,-252 238,-288"/>
<text text-anchor="middle" x="205" y="-266.3" font-family="Courier,monospace" font-size="14.00" fill="#de958e">pandas</text>
</g>
<!-- pandas&#45;&gt;shekels.core.data_tools -->
<g id="edge41" class="edge">
<title>pandas&#45;&gt;shekels.core.data_tools</title>
<path fill="none" stroke="#de958e" d="M238.0809,-265.9962C306.856,-259.038 469.0925,-249.7881 592,-299 639.7308,-318.1113 683.5916,-359.8339 708.7977,-387.1525"/>
<polygon fill="#de958e" stroke="#de958e" points="706.3986,-389.7177 715.7026,-394.7859 711.5899,-385.0219 706.3986,-389.7177"/>
</g>
<!-- pandas&#45;&gt;shekels.core.database -->
<g id="edge42" class="edge">
<title>pandas&#45;&gt;shekels.core.database</title>
<path fill="none" stroke="#de958e" d="M208.6395,-288.1988C222.6997,-356.5205 275.6982,-596.0524 336,-640 379.0568,-671.3795 710.4915,-666.9499 884.1288,-662.3587"/>
<polygon fill="#de958e" stroke="#de958e" points="884.412,-665.8524 894.3141,-662.0844 884.2235,-658.8549 884.412,-665.8524"/>
</g>
<!-- pandas&#45;&gt;shekels.enforce.enforce_tools -->
<g id="edge43" class="edge">
<title>pandas&#45;&gt;shekels.enforce.enforce_tools</title>
<path fill="none" stroke="#de958e" d="M238.0773,-257.1003C264.3822,-247.0933 302.2438,-233.2473 336,-223 349.0518,-219.0379 362.9572,-215.1877 376.6129,-211.6116"/>
<polygon fill="#de958e" stroke="#de958e" points="377.6898,-214.9484 386.4965,-209.0584 375.9389,-208.1709 377.6898,-214.9484"/>
</g>
<!-- pandas&#45;&gt;shekels.server.components -->
<g id="edge44" class="edge">
<title>pandas&#45;&gt;shekels.server.components</title>
<path fill="none" stroke="#de958e" d="M238.0438,-265.8079C264.4911,-262.6733 302.5587,-258.6552 336,-257 449.6387,-251.3753 481.5598,-229.6442 592,-257 609.561,-261.3498 610.6065,-271.0227 628,-276 705.6952,-298.2331 796.4203,-304.7019 867.5457,-305.6281"/>
<polygon fill="#de958e" stroke="#de958e" points="867.8609,-309.1312 877.8935,-305.7258 867.927,-302.1315 867.8609,-309.1312"/>
</g>
<!-- jsoncomment -->
<g id="node24" class="node">
<title>jsoncomment</title>
<polygon fill="#343434" stroke="#343434" points="784.5,-929 677.5,-929 677.5,-893 784.5,-893 784.5,-929"/>
<text text-anchor="middle" x="731" y="-907.3" font-family="Courier,monospace" font-size="14.00" fill="#de958e">jsoncomment</text>
</g>
<!-- jsoncomment&#45;&gt;shekels.core.database -->
<g id="edge45" class="edge">
<title>jsoncomment&#45;&gt;shekels.core.database</title>
<path fill="none" stroke="#de958e" d="M784.5891,-906.3534C801.9636,-902.5526 820.2746,-895.8245 834,-884 864.7726,-857.4892 848.6324,-834.5428 870,-800 897.1942,-756.0379 937.4848,-711.569 963.62,-684.6403"/>
<polygon fill="#de958e" stroke="#de958e" points="966.4174,-686.7864 970.9196,-677.1958 961.4193,-681.8856 966.4174,-686.7864"/>
</g>
<!-- jsoncomment&#45;&gt;shekels.server.app -->
<g id="edge46" class="edge">
<title>jsoncomment&#45;&gt;shekels.server.app</title>
<path fill="none" stroke="#de958e" d="M784.5453,-918.5899C898.4653,-931.4515 1166.1685,-943.6735 1310,-801 1388.8634,-722.7716 1416.5459,-585.833 1425.1002,-527.0767"/>
<polygon fill="#de958e" stroke="#de958e" points="1428.5843,-527.4316 1426.4829,-517.0472 1421.6499,-526.4755 1428.5843,-527.4316"/>
</g>
<!-- jsoncomment&#45;&gt;shekels.server.server_tools -->
<g id="edge47" class="edge">
<title>jsoncomment&#45;&gt;shekels.server.server_tools</title>
<path fill="none" stroke="#de958e" d="M784.7345,-897.9442C800.6813,-893.793 818.1247,-888.978 834,-884 867.5232,-873.4881 904.47,-860.0256 933.9354,-848.8238"/>
<polygon fill="#de958e" stroke="#de958e" points="935.5347,-851.9595 943.6254,-845.1191 933.0349,-845.421 935.5347,-851.9595"/>
</g>
<!-- lunchbox.tools -->
<g id="node25" class="node">
<title>lunchbox.tools</title>
<polygon fill="#343434" stroke="#343434" points="530,-761 398,-761 398,-725 530,-725 530,-761"/>
<text text-anchor="middle" x="464" y="-739.3" font-family="Courier,monospace" font-size="14.00" fill="#de958e">lunchbox.tools</text>
</g>
<!-- lunchbox.tools&#45;&gt;shekels.core.data_tools -->
<g id="edge48" class="edge">
<title>lunchbox.tools&#45;&gt;shekels.core.data_tools</title>
<path fill="none" stroke="#de958e" d="M497.982,-724.9008C527.6322,-707.2658 569.3521,-677.6376 592,-640 635.638,-567.4798 573.7814,-517.9907 628,-453 633.5645,-446.33 640.383,-440.7681 647.8378,-436.131"/>
<polygon fill="#de958e" stroke="#de958e" points="649.82,-439.0329 656.8443,-431.1013 646.407,-432.9213 649.82,-439.0329"/>
</g>
<!-- lunchbox.tools&#45;&gt;shekels.server.server_tools -->
<g id="edge49" class="edge">
<title>lunchbox.tools&#45;&gt;shekels.server.server_tools</title>
<path fill="none" stroke="#de958e" d="M530.0228,-753.5536C614.2761,-767.0213 761.6754,-790.5827 866.8061,-807.3877"/>
<polygon fill="#de958e" stroke="#de958e" points="866.4174,-810.8699 876.8446,-808.9923 867.5224,-803.9576 866.4174,-810.8699"/>
</g>
<!-- pandasql -->
<g id="node26" class="node">
<title>pandasql</title>
<polygon fill="#343434" stroke="#343434" points="505.5,-577 422.5,-577 422.5,-541 505.5,-541 505.5,-577"/>
<text text-anchor="middle" x="464" y="-555.3" font-family="Courier,monospace" font-size="14.00" fill="#de958e">pandasql</text>
</g>
<!-- pandasql&#45;&gt;shekels.core.data_tools -->
<g id="edge50" class="edge">
<title>pandasql&#45;&gt;shekels.core.data_tools</title>
<path fill="none" stroke="#de958e" d="M505.7608,-557.4672C532.9386,-554.4866 567.7172,-546.6968 592,-527 620.4047,-503.9598 601.0954,-477.7754 628,-453 635.5926,-446.0083 644.5435,-440.1886 653.9463,-435.3572"/>
<polygon fill="#de958e" stroke="#de958e" points="655.5403,-438.4749 663.0703,-431.0217 652.536,-432.1523 655.5403,-438.4749"/>
</g>
<!-- pandasql&#45;&gt;shekels.server.api -->
<g id="edge51" class="edge">
<title>pandasql&#45;&gt;shekels.server.api</title>
<path fill="none" stroke="#de958e" d="M505.5913,-560.3074C624.4635,-564.044 967.814,-574.837 1134.5058,-580.0768"/>
<polygon fill="#de958e" stroke="#de958e" points="1134.6349,-583.5825 1144.74,-580.3985 1134.8549,-576.586 1134.6349,-583.5825"/>
</g>
<!-- lunchbox.enforce -->
<g id="node27" class="node">
<title>lunchbox.enforce</title>
<polygon fill="#343434" stroke="#343434" points="279.5,-163 130.5,-163 130.5,-127 279.5,-127 279.5,-163"/>
<text text-anchor="middle" x="205" y="-141.3" font-family="Courier,monospace" font-size="14.00" fill="#de958e">lunchbox.enforce</text>
</g>
<!-- lunchbox.enforce&#45;&gt;shekels.core.data_tools -->
<g id="edge52" class="edge">
<title>lunchbox.enforce&#45;&gt;shekels.core.data_tools</title>
<path fill="none" stroke="#de958e" d="M279.7402,-138.9315C378.3172,-132.5383 544.8338,-127.8134 592,-164 633.4836,-195.8267 603.956,-229.5704 628,-276 649.8259,-318.1463 684.438,-360.956 707.4309,-387.2418"/>
<polygon fill="#de958e" stroke="#de958e" points="704.9173,-389.6827 714.1666,-394.85 710.1584,-385.0426 704.9173,-389.6827"/>
</g>
<!-- lunchbox.enforce&#45;&gt;shekels.enforce.enforce_tools -->
<g id="edge53" class="edge">
<title>lunchbox.enforce&#45;&gt;shekels.enforce.enforce_tools</title>
<path fill="none" stroke="#de958e" d="M279.5661,-158.2434C302.2887,-162.2791 327.7811,-166.8067 352.3943,-171.1781"/>
<polygon fill="#de958e" stroke="#de958e" points="352.0501,-174.6717 362.5081,-172.9744 353.2743,-167.7796 352.0501,-174.6717"/>
</g>
<!-- lunchbox.enforce&#45;&gt;shekels.server.components -->
<g id="edge54" class="edge">
<title>lunchbox.enforce&#45;&gt;shekels.server.components</title>
<path fill="none" stroke="#de958e" d="M228.5041,-126.991C253.5616,-109.0221 295.1772,-82.6065 336,-72 446.1216,-43.3885 501.7755,-2.6825 592,-72 641.242,-109.8316 581.9147,-165.3809 628,-207 696.8146,-269.1457 749.5945,-201.6172 834,-240 852.9591,-248.6215 851.5089,-260.4158 870,-270 877.6892,-273.9854 885.9209,-277.5092 894.3336,-280.618"/>
<polygon fill="#de958e" stroke="#de958e" points="893.2946,-283.9624 903.8894,-283.9541 895.6019,-277.3535 893.2946,-283.9624"/>
</g>
<!-- numpy -->
<g id="node28" class="node">
<title>numpy</title>
<polygon fill="#343434" stroke="#343434" points="493,-631 435,-631 435,-595 493,-595 493,-631"/>
<text text-anchor="middle" x="464" y="-609.3" font-family="Courier,monospace" font-size="14.00" fill="#de958e">numpy</text>
</g>
<!-- numpy&#45;&gt;shekels.core.data_tools -->
<g id="edge55" class="edge">
<title>numpy&#45;&gt;shekels.core.data_tools</title>
<path fill="none" stroke="#de958e" d="M493.0885,-614.984C521.9213,-615.2932 565.5077,-611.0374 592,-586 636.5068,-543.9374 587.0546,-498.5368 628,-453 634.1225,-446.1909 641.543,-440.5304 649.5644,-435.8268"/>
<polygon fill="#de958e" stroke="#de958e" points="651.286,-438.8755 658.4714,-431.0895 647.9989,-432.6952 651.286,-438.8755"/>
</g>
<!-- numpy&#45;&gt;shekels.core.database -->
<g id="edge56" class="edge">
<title>numpy&#45;&gt;shekels.core.database</title>
<path fill="none" stroke="#de958e" d="M493.2616,-615.4955C555.8074,-620.8373 707.1532,-633.8046 834,-645 850.0992,-646.4209 867.1345,-647.9394 883.7965,-649.4329"/>
<polygon fill="#de958e" stroke="#de958e" points="883.8382,-652.9506 894.111,-650.3585 884.4639,-645.9786 883.8382,-652.9506"/>
</g>
<!-- schematics.models -->
<g id="node29" class="node">
<title>schematics.models</title>
<polygon fill="#343434" stroke="#343434" points="283.5,-807 126.5,-807 126.5,-771 283.5,-771 283.5,-807"/>
<text text-anchor="middle" x="205" y="-785.3" font-family="Courier,monospace" font-size="14.00" fill="#de958e">schematics.models</text>
</g>
<!-- schematics.models&#45;&gt;shekels.core.config -->
<g id="edge57" class="edge">
<title>schematics.models&#45;&gt;shekels.core.config</title>
<path fill="none" stroke="#de958e" d="M283.7634,-791.4328C310.1406,-792.2476 339.8536,-793.1654 367.4322,-794.0172"/>
<polygon fill="#de958e" stroke="#de958e" points="367.3827,-797.5173 377.486,-794.3278 367.5989,-790.5206 367.3827,-797.5173"/>
</g>
<!-- cufflinks -->
<g id="node30" class="node">
<title>cufflinks</title>
<polygon fill="#343434" stroke="#343434" points="509.5,-485 418.5,-485 418.5,-449 509.5,-449 509.5,-485"/>
<text text-anchor="middle" x="464" y="-463.3" font-family="Courier,monospace" font-size="14.00" fill="#de958e">cufflinks</text>
</g>
<!-- cufflinks&#45;&gt;shekels.core.data_tools -->
<g id="edge58" class="edge">
<title>cufflinks&#45;&gt;shekels.core.data_tools</title>
<path fill="none" stroke="#de958e" d="M509.5956,-457.7784C543.1023,-451.0018 589.9084,-441.5354 631.8581,-433.0512"/>
<polygon fill="#de958e" stroke="#de958e" points="632.7365,-436.4445 641.8442,-431.0315 631.3488,-429.5834 632.7365,-436.4445"/>
</g>
<!-- schematics.types -->
<g id="node31" class="node">
<title>schematics.types</title>
<polygon fill="#343434" stroke="#343434" points="279.5,-861 130.5,-861 130.5,-825 279.5,-825 279.5,-861"/>
<text text-anchor="middle" x="205" y="-839.3" font-family="Courier,monospace" font-size="14.00" fill="#de958e">schematics.types</text>
</g>
<!-- schematics.types&#45;&gt;shekels.core.config -->
<g id="edge59" class="edge">
<title>schematics.types&#45;&gt;shekels.core.config</title>
<path fill="none" stroke="#de958e" d="M279.5661,-829.7566C306.8367,-824.9132 338.0969,-819.3612 367.0386,-814.2209"/>
<polygon fill="#de958e" stroke="#de958e" points="367.9348,-817.6166 377.1686,-812.4218 366.7106,-810.7245 367.9348,-817.6166"/>
</g>
<!-- pyparsing -->
<g id="node32" class="node">
<title>pyparsing</title>
<polygon fill="#343434" stroke="#343434" points="509.5,-431 418.5,-431 418.5,-395 509.5,-395 509.5,-431"/>
<text text-anchor="middle" x="464" y="-409.3" font-family="Courier,monospace" font-size="14.00" fill="#de958e">pyparsing</text>
</g>
<!-- pyparsing&#45;&gt;shekels.core.data_tools -->
<g id="edge60" class="edge">
<title>pyparsing&#45;&gt;shekels.core.data_tools</title>
<path fill="none" stroke="#de958e" d="M509.5956,-413C539.4014,-413 579.7311,-413 617.8046,-413"/>
<polygon fill="#de958e" stroke="#de958e" points="617.9484,-416.5001 627.9484,-413 617.9484,-409.5001 617.9484,-416.5001"/>
</g>
<!-- rolling_pin.blob_etl -->
<g id="node33" class="node">
<title>rolling_pin.blob_etl</title>
<polygon fill="#343434" stroke="#343434" points="555,-117 373,-117 373,-81 555,-81 555,-117"/>
<text text-anchor="middle" x="464" y="-95.3" font-family="Courier,monospace" font-size="14.00" fill="#de958e">rolling_pin.blob_etl</text>
</g>
<!-- rolling_pin.blob_etl&#45;&gt;shekels.core.data_tools -->
<g id="edge61" class="edge">
<title>rolling_pin.blob_etl&#45;&gt;shekels.core.data_tools</title>
<path fill="none" stroke="#de958e" d="M555.2021,-108.6987C568.8991,-113.6391 581.8204,-120.7713 592,-131 639.4484,-178.677 598.9875,-217.3146 628,-278 648.1659,-320.1811 682.8762,-361.9107 706.3708,-387.5596"/>
<polygon fill="#de958e" stroke="#de958e" points="703.9018,-390.0443 713.2736,-394.986 709.029,-385.2786 703.9018,-390.0443"/>
</g>
<!-- rolling_pin.blob_etl&#45;&gt;shekels.server.components -->
<g id="edge62" class="edge">
<title>rolling_pin.blob_etl&#45;&gt;shekels.server.components</title>
<path fill="none" stroke="#de958e" d="M555.1838,-109.6292C568.7193,-114.4764 581.5931,-121.3362 592,-131 629.3855,-165.7159 589.3372,-206.7125 628,-240 646.3115,-255.7656 769.9947,-274.632 867.6585,-287.3797"/>
<polygon fill="#de958e" stroke="#de958e" points="867.2565,-290.8568 877.6234,-288.6711 868.1562,-283.9149 867.2565,-290.8568"/>
</g>
<!-- webcolors -->
<g id="node34" class="node">
<title>webcolors</title>
<polygon fill="#343434" stroke="#343434" points="509.5,-377 418.5,-377 418.5,-341 509.5,-341 509.5,-377"/>
<text text-anchor="middle" x="464" y="-355.3" font-family="Courier,monospace" font-size="14.00" fill="#de958e">webcolors</text>
</g>
<!-- webcolors&#45;&gt;shekels.core.data_tools -->
<g id="edge63" class="edge">
<title>webcolors&#45;&gt;shekels.core.data_tools</title>
<path fill="none" stroke="#de958e" d="M509.5956,-368.2216C543.1023,-374.9982 589.9084,-384.4646 631.8581,-392.9488"/>
<polygon fill="#de958e" stroke="#de958e" points="631.3488,-396.4166 641.8442,-394.9685 632.7365,-389.5555 631.3488,-396.4166"/>
</g>
<!-- flasgger -->
<g id="node35" class="node">
<title>flasgger</title>
<polygon fill="#343434" stroke="#343434" points="1031,-517 948,-517 948,-481 1031,-481 1031,-517"/>
<text text-anchor="middle" x="989.5" y="-495.3" font-family="Courier,monospace" font-size="14.00" fill="#de958e">flasgger</text>
</g>
<!-- flasgger&#45;&gt;shekels.server.api -->
<g id="edge64" class="edge">
<title>flasgger&#45;&gt;shekels.server.api</title>
<path fill="none" stroke="#de958e" d="M1031.1732,-508.5091C1054.3509,-514.2077 1083.5671,-522.0726 1109,-531 1133.1903,-539.4912 1159.3604,-550.7447 1180.9387,-560.6107"/>
<polygon fill="#de958e" stroke="#de958e" points="1179.6493,-563.8704 1190.1953,-564.886 1182.5844,-557.5154 1179.6493,-563.8704"/>
</g>
<!-- flasgger&#45;&gt;shekels.server.app -->
<g id="edge65" class="edge">
<title>flasgger&#45;&gt;shekels.server.app</title>
<path fill="none" stroke="#de958e" d="M1031.1958,-499C1100.6839,-499 1241.804,-499 1335.7676,-499"/>
<polygon fill="#de958e" stroke="#de958e" points="1335.8454,-502.5001 1345.8454,-499 1335.8453,-495.5001 1335.8454,-502.5001"/>
</g>
<!-- flask_caching -->
<g id="node36" class="node">
<title>flask_caching</title>
<polygon fill="#343434" stroke="#343434" points="1289.5,-152 1165.5,-152 1165.5,-116 1289.5,-116 1289.5,-152"/>
<text text-anchor="middle" x="1227.5" y="-130.3" font-family="Courier,monospace" font-size="14.00" fill="#de958e">flask_caching</text>
</g>
<!-- flask_caching&#45;&gt;shekels.server.app -->
<g id="edge66" class="edge">
<title>flask_caching&#45;&gt;shekels.server.app</title>
<path fill="none" stroke="#de958e" d="M1289.7345,-151.2193C1297.203,-155.1896 1304.2171,-160.052 1310,-166 1395.5241,-253.9645 1419.7398,-407.6422 1426.2446,-470.7367"/>
<polygon fill="#de958e" stroke="#de958e" points="1422.7658,-471.1269 1427.2041,-480.7473 1429.7339,-470.4589 1422.7658,-471.1269"/>
</g>
</g>
</svg>
