<?xml version="1.0" encoding="UTF-8" standalone="no"?>
<!DOCTYPE svg PUBLIC "-//W3C//DTD SVG 1.1//EN"
 "http://www.w3.org/Graphics/SVG/1.1/DTD/svg11.dtd">
<!-- Generated by graphviz version 2.40.1 (20161225.0304)
 -->
<!-- Title: %3 Pages: 1 -->
<svg width="2084pt" height="1300pt"
 viewBox="0.00 0.00 2084.00 1300.32" xmlns="http://www.w3.org/2000/svg" xmlns:xlink="http://www.w3.org/1999/xlink">
<g id="graph0" class="graph" transform="scale(1 1) rotate(0) translate(4 1296.3153)">
<title>%3</title>
<polygon fill="#242424" stroke="transparent" points="-4,4 -4,-1296.3153 2080,-1296.3153 2080,4 -4,4"/>
<!-- cli -->
<g id="node1" class="node">
<title>cli</title>
<polygon fill="#343434" stroke="#343434" points="171.5,-714 117.5,-714 117.5,-678 171.5,-678 171.5,-714"/>
<text text-anchor="middle" x="144.5" y="-692.3" font-family="Courier,monospace" font-size="14.00" fill="#b6ecf3">cli</text>
</g>
<!-- shekels.core.config -->
<g id="node2" class="node">
<title>shekels.core.config</title>
<polygon fill="#343434" stroke="#343434" points="765.5,-1190 592.5,-1190 592.5,-1154 765.5,-1154 765.5,-1190"/>
<text text-anchor="middle" x="679" y="-1168.3" font-family="Courier,monospace" font-size="14.00" fill="#b6ecf3">shekels.core.config</text>
</g>
<!-- shekels.core.data_tools -->
<g id="node3" class="node">
<title>shekels.core.data_tools</title>
<polygon fill="#343434" stroke="#343434" points="1049,-838 843,-838 843,-802 1049,-802 1049,-838"/>
<text text-anchor="middle" x="946" y="-816.3" font-family="Courier,monospace" font-size="14.00" fill="#b6ecf3">shekels.core.data_tools</text>
</g>
<!-- shekels.core.config&#45;&gt;shekels.core.data_tools -->
<g id="edge1" class="edge">
<title>shekels.core.config&#45;&gt;shekels.core.data_tools</title>
<path fill="none" stroke="#b6ecf3" d="M739.1293,-1153.9245C763.461,-1143.7739 789.8087,-1128.675 807,-1107 848.7987,-1054.2998 814.5181,-1020.9362 843,-960 863.3795,-916.3987 898.3475,-872.7825 921.8143,-846.0954"/>
<polygon fill="#b6ecf3" stroke="#b6ecf3" points="924.6554,-848.1683 928.699,-838.3755 919.431,-843.5092 924.6554,-848.1683"/>
</g>
<!-- shekels.core.database -->
<g id="node4" class="node">
<title>shekels.core.database</title>
<polygon fill="#343434" stroke="#343434" points="1308,-961 1118,-961 1118,-925 1308,-925 1308,-961"/>
<text text-anchor="middle" x="1213" y="-939.3" font-family="Courier,monospace" font-size="14.00" fill="#b6ecf3">shekels.core.database</text>
</g>
<!-- shekels.core.config&#45;&gt;shekels.core.database -->
<g id="edge2" class="edge">
<title>shekels.core.config&#45;&gt;shekels.core.database</title>
<path fill="none" stroke="#b6ecf3" d="M765.5507,-1156.6171C779.8593,-1152.3306 794.1899,-1146.8898 807,-1140 826.1156,-1129.7188 824.6631,-1118.6133 843,-1107 926.5314,-1054.0972 958.7394,-1063.3636 1049,-1023 1089.9292,-1004.6969 1135.7283,-982.1802 1168.5031,-965.703"/>
<polygon fill="#b6ecf3" stroke="#b6ecf3" points="1170.4575,-968.6373 1177.8109,-961.0099 1167.3059,-962.3869 1170.4575,-968.6373"/>
</g>
<!-- shekels.server.app -->
<g id="node7" class="node">
<title>shekels.server.app</title>
<polygon fill="#343434" stroke="#343434" points="2076,-405 1911,-405 1911,-369 2076,-369 2076,-405"/>
<text text-anchor="middle" x="1993.5" y="-383.3" font-family="Courier,monospace" font-size="14.00" fill="#b6ecf3">shekels.server.app</text>
</g>
<!-- shekels.core.config&#45;&gt;shekels.server.app -->
<g id="edge3" class="edge">
<title>shekels.core.config&#45;&gt;shekels.server.app</title>
<path fill="none" stroke="#b6ecf3" d="M765.6384,-1186.0871C840.8073,-1196.1797 952.4198,-1206.0475 1049,-1194 1313.581,-1160.996 1381.0427,-1124.0454 1616,-998 1736.272,-933.4788 1794.4104,-943.1529 1875,-833 1925.2938,-764.2566 1973.7914,-502.0213 1988.7799,-415.1442"/>
<polygon fill="#b6ecf3" stroke="#b6ecf3" points="1992.242,-415.6625 1990.4781,-405.2155 1985.3422,-414.4822 1992.242,-415.6625"/>
</g>
<!-- shekels.server.components -->
<g id="node8" class="node">
<title>shekels.server.components</title>
<polygon fill="#343434" stroke="#343434" points="1324.5,-489 1101.5,-489 1101.5,-453 1324.5,-453 1324.5,-489"/>
<text text-anchor="middle" x="1213" y="-467.3" font-family="Courier,monospace" font-size="14.00" fill="#b6ecf3">shekels.server.components</text>
</g>
<!-- shekels.core.config&#45;&gt;shekels.server.components -->
<g id="edge4" class="edge">
<title>shekels.core.config&#45;&gt;shekels.server.components</title>
<path fill="none" stroke="#b6ecf3" d="M734.7168,-1153.8826C759.5314,-1143.4663 787.4917,-1128.168 807,-1107 835.6374,-1075.9262 818.0459,-1053.1024 843,-1019 913.4342,-922.7441 986.3426,-948.49 1049,-847 1085.6976,-787.5586 1059.3429,-758.9747 1085,-694 1114.7853,-618.571 1166.7573,-537.8952 1194.4266,-497.4054"/>
<polygon fill="#b6ecf3" stroke="#b6ecf3" points="1197.3161,-499.3804 1200.1064,-489.1596 1191.5514,-495.4096 1197.3161,-499.3804"/>
</g>
<!-- shekels.server.server_tools -->
<g id="node10" class="node">
<title>shekels.server.server_tools</title>
<polygon fill="#343434" stroke="#343434" points="1616,-762 1377,-762 1377,-726 1616,-726 1616,-762"/>
<text text-anchor="middle" x="1496.5" y="-740.3" font-family="Courier,monospace" font-size="14.00" fill="#b6ecf3">shekels.server.server_tools</text>
</g>
<!-- shekels.core.config&#45;&gt;shekels.server.server_tools -->
<g id="edge5" class="edge">
<title>shekels.core.config&#45;&gt;shekels.server.server_tools</title>
<path fill="none" stroke="#b6ecf3" d="M765.6093,-1181.8849C905.0878,-1192.7159 1180.0751,-1192.3029 1341,-1047 1427.7315,-968.6881 1473.2255,-830.7044 1489.4618,-771.8565"/>
<polygon fill="#b6ecf3" stroke="#b6ecf3" points="1492.857,-772.7082 1492.0725,-762.1425 1486.0969,-770.8914 1492.857,-772.7082"/>
</g>
<!-- shekels.core.data_tools&#45;&gt;shekels.core.database -->
<g id="edge6" class="edge">
<title>shekels.core.data_tools&#45;&gt;shekels.core.database</title>
<path fill="none" stroke="#b6ecf3" d="M968.7173,-838.3495C995.1628,-858.8533 1040.8682,-891.6972 1085,-911 1094.3833,-915.1041 1104.3933,-918.7508 1114.5251,-921.9746"/>
<polygon fill="#b6ecf3" stroke="#b6ecf3" points="1113.6739,-925.374 1124.2598,-924.937 1115.7119,-918.6772 1113.6739,-925.374"/>
</g>
<!-- shekels.core.data_tools&#45;&gt;shekels.server.components -->
<g id="edge7" class="edge">
<title>shekels.core.data_tools&#45;&gt;shekels.server.components</title>
<path fill="none" stroke="#b6ecf3" d="M959.9792,-801.7276C1004.2254,-743.8926 1141.3257,-564.6867 1193.0103,-497.1289"/>
<polygon fill="#b6ecf3" stroke="#b6ecf3" points="1195.8628,-499.1605 1199.1592,-489.0915 1190.3032,-494.9071 1195.8628,-499.1605"/>
</g>
<!-- shekels.core.data_tools&#45;&gt;shekels.server.server_tools -->
<g id="edge8" class="edge">
<title>shekels.core.data_tools&#45;&gt;shekels.server.server_tools</title>
<path fill="none" stroke="#b6ecf3" d="M1049.219,-813.6441C1129.2119,-807.7945 1242.6243,-797.4827 1341,-781 1366.8528,-776.6684 1394.7985,-770.4958 1419.7727,-764.4305"/>
<polygon fill="#b6ecf3" stroke="#b6ecf3" points="1420.6749,-767.813 1429.5492,-762.0254 1419.0026,-761.0157 1420.6749,-767.813"/>
</g>
<!-- shekels.server.api -->
<g id="node6" class="node">
<title>shekels.server.api</title>
<polygon fill="#343434" stroke="#343434" points="1846,-658 1681,-658 1681,-622 1846,-622 1846,-658"/>
<text text-anchor="middle" x="1763.5" y="-636.3" font-family="Courier,monospace" font-size="14.00" fill="#b6ecf3">shekels.server.api</text>
</g>
<!-- shekels.core.database&#45;&gt;shekels.server.api -->
<g id="edge9" class="edge">
<title>shekels.core.database&#45;&gt;shekels.server.api</title>
<path fill="none" stroke="#b6ecf3" d="M1296.805,-924.9446C1311.7063,-920.9178 1326.9474,-916.2564 1341,-911 1469.4568,-862.9509 1502.6944,-848.2769 1616,-771 1662.8125,-739.0729 1710.7236,-693.6987 1738.7613,-665.5931"/>
<polygon fill="#b6ecf3" stroke="#b6ecf3" points="1741.5805,-667.7201 1746.125,-658.1494 1736.604,-662.7972 1741.5805,-667.7201"/>
</g>
<!-- shekels.enforce.enforce_tools -->
<g id="node5" class="node">
<title>shekels.enforce.enforce_tools</title>
<polygon fill="#343434" stroke="#343434" points="807,-768 551,-768 551,-732 807,-732 807,-768"/>
<text text-anchor="middle" x="679" y="-746.3" font-family="Courier,monospace" font-size="14.00" fill="#b6ecf3">shekels.enforce.enforce_tools</text>
</g>
<!-- shekels.enforce.enforce_tools&#45;&gt;shekels.core.data_tools -->
<g id="edge10" class="edge">
<title>shekels.enforce.enforce_tools&#45;&gt;shekels.core.data_tools</title>
<path fill="none" stroke="#b6ecf3" d="M752.1746,-768.0006C770.1239,-772.4968 789.2719,-777.3613 807,-782 827.8937,-787.467 850.5025,-793.5681 871.2938,-799.2539"/>
<polygon fill="#b6ecf3" stroke="#b6ecf3" points="870.4517,-802.6521 881.0212,-801.9199 872.302,-795.9011 870.4517,-802.6521"/>
</g>
<!-- shekels.server.api&#45;&gt;shekels.server.app -->
<g id="edge11" class="edge">
<title>shekels.server.api&#45;&gt;shekels.server.app</title>
<path fill="none" stroke="#b6ecf3" d="M1803.1894,-621.9018C1825.9829,-610.1827 1854.1321,-593.3287 1875,-573 1924.1759,-525.0946 1962.5982,-453.0494 1981.2064,-414.181"/>
<polygon fill="#b6ecf3" stroke="#b6ecf3" points="1984.4127,-415.5873 1985.5048,-405.0489 1978.0793,-412.6061 1984.4127,-415.5873"/>
</g>
<!-- shekels.server.components&#45;&gt;shekels.server.app -->
<g id="edge12" class="edge">
<title>shekels.server.components&#45;&gt;shekels.server.app</title>
<path fill="none" stroke="#b6ecf3" d="M1314.7418,-452.9992C1335.3093,-449.7131 1356.8147,-446.5292 1377,-444 1597.4332,-416.3796 1653.9947,-423.5909 1875,-401 1883.369,-400.1445 1892.0648,-399.2082 1900.773,-398.2381"/>
<polygon fill="#b6ecf3" stroke="#b6ecf3" points="1901.4378,-401.6854 1910.9826,-397.0867 1900.6533,-394.7295 1901.4378,-401.6854"/>
</g>
<!-- shekels.server.components&#45;&gt;shekels.server.server_tools -->
<g id="edge13" class="edge">
<title>shekels.server.components&#45;&gt;shekels.server.server_tools</title>
<path fill="none" stroke="#b6ecf3" d="M1232.0414,-489.3362C1281.3673,-536.8352 1413.3903,-663.9685 1470.0614,-718.5406"/>
<polygon fill="#b6ecf3" stroke="#b6ecf3" points="1467.9104,-721.3283 1477.5414,-725.7436 1472.766,-716.286 1467.9104,-721.3283"/>
</g>
<!-- shekels.server.event_listener -->
<g id="node9" class="node">
<title>shekels.server.event_listener</title>
<polygon fill="#343434" stroke="#343434" points="1341,-245 1085,-245 1085,-209 1341,-209 1341,-245"/>
<text text-anchor="middle" x="1213" y="-223.3" font-family="Courier,monospace" font-size="14.00" fill="#b6ecf3">shekels.server.event_listener</text>
</g>
<!-- shekels.server.event_listener&#45;&gt;shekels.server.app -->
<g id="edge14" class="edge">
<title>shekels.server.event_listener&#45;&gt;shekels.server.app</title>
<path fill="none" stroke="#b6ecf3" d="M1315.3577,-208.9967C1450.4948,-190.1967 1692.6143,-174.0016 1875,-259 1921.4677,-280.6557 1958.2985,-329.6444 1977.9175,-360.3463"/>
<polygon fill="#b6ecf3" stroke="#b6ecf3" points="1974.961,-362.2198 1983.217,-368.8598 1980.9037,-358.5206 1974.961,-362.2198"/>
</g>
<!-- shekels.server.server_tools&#45;&gt;shekels.server.api -->
<g id="edge15" class="edge">
<title>shekels.server.server_tools&#45;&gt;shekels.server.api</title>
<path fill="none" stroke="#b6ecf3" d="M1543.0079,-725.8846C1588.811,-708.0437 1658.8125,-680.7772 1707.6138,-661.7684"/>
<polygon fill="#b6ecf3" stroke="#b6ecf3" points="1709.0302,-664.9729 1717.078,-658.082 1706.4895,-658.4502 1709.0302,-664.9729"/>
</g>
<!-- shekels.server.server_tools&#45;&gt;shekels.server.app -->
<g id="edge16" class="edge">
<title>shekels.server.server_tools&#45;&gt;shekels.server.app</title>
<path fill="none" stroke="#b6ecf3" d="M1616.2028,-747.4299C1697.4626,-743.642 1802.8496,-726.0126 1875,-667 1955.0329,-601.5402 1981.9676,-472.3291 1990.2048,-415.2469"/>
<polygon fill="#b6ecf3" stroke="#b6ecf3" points="1993.6991,-415.5248 1991.5737,-405.1454 1986.7625,-414.5848 1993.6991,-415.5248"/>
</g>
<!-- dash.dependencies -->
<g id="node11" class="node">
<title>dash.dependencies</title>
<polygon fill="#343434" stroke="#343434" points="1842,-527 1685,-527 1685,-491 1842,-491 1842,-527"/>
<text text-anchor="middle" x="1763.5" y="-505.3" font-family="Courier,monospace" font-size="14.00" fill="#de958e">dash.dependencies</text>
</g>
<!-- dash.dependencies&#45;&gt;shekels.server.app -->
<g id="edge17" class="edge">
<title>dash.dependencies&#45;&gt;shekels.server.app</title>
<path fill="none" stroke="#de958e" d="M1840.4987,-490.9689C1852.3329,-487.0469 1864.1969,-482.4133 1875,-477 1909.503,-459.711 1944.0898,-431.9528 1966.9137,-411.8311"/>
<polygon fill="#de958e" stroke="#de958e" points="1969.3596,-414.3391 1974.4768,-405.062 1964.6912,-409.1232 1969.3596,-414.3391"/>
</g>
<!-- shekels.server -->
<g id="node12" class="node">
<title>shekels.server</title>
<polygon fill="#343434" stroke="#343434" points="1012,-150 880,-150 880,-114 1012,-114 1012,-150"/>
<text text-anchor="middle" x="946" y="-128.3" font-family="Courier,monospace" font-size="14.00" fill="#a0d17b">shekels.server</text>
</g>
<!-- shekels.server&#45;&gt;shekels.server.api -->
<g id="edge18" class="edge">
<title>shekels.server&#45;&gt;shekels.server.api</title>
<path fill="none" stroke="#a0d17b" d="M1012.1486,-126.3807C1112.2755,-119.4405 1295.4949,-113.366 1341,-157 1395.9996,-209.7381 1330.1642,-437.8944 1377,-498 1414.5797,-546.2271 1574.4977,-593.4033 1676.4882,-619.4014"/>
<polygon fill="#a0d17b" stroke="#a0d17b" points="1675.9246,-622.869 1686.4775,-621.9274 1677.6407,-616.0826 1675.9246,-622.869"/>
</g>
<!-- shekels.server&#45;&gt;shekels.server.app -->
<g id="edge19" class="edge">
<title>shekels.server&#45;&gt;shekels.server.app</title>
<path fill="none" stroke="#a0d17b" d="M1012.0209,-124.5563C1035.0779,-122.2938 1061.1523,-120.1128 1085,-119 1198.6541,-113.6968 1227.5213,-110.756 1341,-119 1370.9027,-121.1724 1849.9067,-180.5922 1875,-197 1934.6672,-236.0147 1969.6572,-316.6286 1984.7072,-359.225"/>
<polygon fill="#a0d17b" stroke="#a0d17b" points="1981.4815,-360.6095 1988.0259,-368.9415 1988.1058,-358.3469 1981.4815,-360.6095"/>
</g>
<!-- shekels.server&#45;&gt;shekels.server.components -->
<g id="edge20" class="edge">
<title>shekels.server&#45;&gt;shekels.server.components</title>
<path fill="none" stroke="#a0d17b" d="M983.8103,-150.2462C1004.7409,-161.6413 1030.2367,-177.7885 1049,-197 1053.9829,-202.1019 1156.9609,-376.1101 1197.1406,-444.1316"/>
<polygon fill="#a0d17b" stroke="#a0d17b" points="1194.2777,-446.1669 1202.3766,-452.9977 1200.3051,-442.6073 1194.2777,-446.1669"/>
</g>
<!-- shekels.server&#45;&gt;shekels.server.event_listener -->
<g id="edge21" class="edge">
<title>shekels.server&#45;&gt;shekels.server.event_listener</title>
<path fill="none" stroke="#a0d17b" d="M1012.2238,-148.1608C1024.8235,-152.45 1037.6173,-157.6916 1049,-164 1067.4681,-174.2351 1066.2514,-185.2882 1085,-195 1092.7583,-199.0188 1101.0465,-202.5505 1109.5343,-205.6509"/>
<polygon fill="#a0d17b" stroke="#a0d17b" points="1108.5898,-209.0273 1119.1845,-208.9712 1110.8672,-202.4081 1108.5898,-209.0273"/>
</g>
<!-- shekels.server&#45;&gt;shekels.server.server_tools -->
<g id="edge22" class="edge">
<title>shekels.server&#45;&gt;shekels.server.server_tools</title>
<path fill="none" stroke="#a0d17b" d="M1012.0817,-144.0459C1035.1437,-148.2072 1061.2058,-152.862 1085,-157 1141.8328,-166.8836 1301.4115,-158.0428 1341,-200 1391.7772,-253.8154 1354.4427,-460.5331 1377,-531 1400.1949,-603.4587 1449.5805,-678.9829 1477.0482,-717.6796"/>
<polygon fill="#a0d17b" stroke="#a0d17b" points="1474.2093,-719.7267 1482.8834,-725.8103 1479.8963,-715.6453 1474.2093,-719.7267"/>
</g>
<!-- dash -->
<g id="node13" class="node">
<title>dash</title>
<polygon fill="#343434" stroke="#343434" points="973,-242 919,-242 919,-206 973,-206 973,-242"/>
<text text-anchor="middle" x="946" y="-220.3" font-family="Courier,monospace" font-size="14.00" fill="#de958e">dash</text>
</g>
<!-- dash&#45;&gt;shekels.server.app -->
<g id="edge23" class="edge">
<title>dash&#45;&gt;shekels.server.app</title>
<path fill="none" stroke="#de958e" d="M973.002,-230.7458C1000.8895,-237.496 1045.7474,-247.7504 1085,-254 1433.6523,-309.5102 1533.238,-248.4646 1875,-337 1900.3255,-343.5607 1927.2904,-354.589 1949.0896,-364.6215"/>
<polygon fill="#de958e" stroke="#de958e" points="1947.8661,-367.9135 1958.4059,-368.9922 1950.8392,-361.5762 1947.8661,-367.9135"/>
</g>
<!-- dash&#45;&gt;shekels.server.components -->
<g id="edge24" class="edge">
<title>dash&#45;&gt;shekels.server.components</title>
<path fill="none" stroke="#de958e" d="M973.2229,-223.5619C996.6651,-224.731 1029.6832,-230.3401 1049,-251 1107.1023,-313.1422 1026.5447,-377.1897 1085,-439 1087.8404,-442.0034 1090.9165,-444.7425 1094.1808,-447.2394"/>
<polygon fill="#de958e" stroke="#de958e" points="1092.4093,-450.2663 1102.656,-452.9602 1096.3257,-444.4644 1092.4093,-450.2663"/>
</g>
<!-- dash&#45;&gt;shekels.server.event_listener -->
<g id="edge25" class="edge">
<title>dash&#45;&gt;shekels.server.event_listener</title>
<path fill="none" stroke="#de958e" d="M973.0707,-224.3042C997.5935,-224.5797 1035.7123,-225.008 1074.4028,-225.4427"/>
<polygon fill="#de958e" stroke="#de958e" points="1074.7408,-228.9467 1084.7796,-225.5593 1074.8196,-221.9471 1074.7408,-228.9467"/>
</g>
<!-- dash&#45;&gt;shekels.server.server_tools -->
<g id="edge26" class="edge">
<title>dash&#45;&gt;shekels.server.server_tools</title>
<path fill="none" stroke="#de958e" d="M973.298,-227.1613C994.9662,-230.5814 1025.4293,-237.4767 1049,-251 1068.6266,-262.2604 1067.2328,-272.9884 1085,-287 1189.8021,-369.649 1254.3539,-342.4777 1341,-444 1368.1657,-475.8298 1358.7302,-493.3526 1377,-531 1410.4041,-599.8338 1456.0887,-677.4556 1480.1457,-717.2782"/>
<polygon fill="#de958e" stroke="#de958e" points="1477.18,-719.1378 1485.3577,-725.874 1483.1657,-715.5084 1477.18,-719.1378"/>
</g>
<!-- shekels -->
<g id="node14" class="node">
<title>shekels</title>
<polygon fill="#343434" stroke="#343434" points="181.5,-768 107.5,-768 107.5,-732 181.5,-732 181.5,-768"/>
<text text-anchor="middle" x="144.5" y="-746.3" font-family="Courier,monospace" font-size="14.00" fill="#a0d17b">shekels</text>
</g>
<!-- shekels&#45;&gt;shekels.server -->
<g id="edge27" class="edge">
<title>shekels&#45;&gt;shekels.server</title>
<path fill="none" stroke="#a0d17b" d="M181.6799,-753.9735C214.5878,-755.2664 261.5325,-751.2888 289,-723 361.0765,-648.7682 283.4864,-587.7735 325,-493 389.8616,-344.924 412.7793,-291.8366 551,-208 649.7313,-148.1154 785.7138,-133.8837 869.6347,-131.3135"/>
<polygon fill="#a0d17b" stroke="#a0d17b" points="869.9508,-134.8066 879.8574,-131.0503 869.7705,-127.8089 869.9508,-134.8066"/>
</g>
<!-- shekels.enforce -->
<g id="node18" class="node">
<title>shekels.enforce</title>
<polygon fill="#343434" stroke="#343434" points="490,-768 350,-768 350,-732 490,-732 490,-768"/>
<text text-anchor="middle" x="420" y="-746.3" font-family="Courier,monospace" font-size="14.00" fill="#a0d17b">shekels.enforce</text>
</g>
<!-- shekels&#45;&gt;shekels.enforce -->
<g id="edge28" class="edge">
<title>shekels&#45;&gt;shekels.enforce</title>
<path fill="none" stroke="#a0d17b" d="M181.6552,-750C221.9309,-750 287.4337,-750 339.5881,-750"/>
<polygon fill="#a0d17b" stroke="#a0d17b" points="339.8297,-753.5001 349.8296,-750 339.8296,-746.5001 339.8297,-753.5001"/>
</g>
<!-- shekels.core -->
<g id="node21" class="node">
<title>shekels.core</title>
<polygon fill="#343434" stroke="#343434" points="478,-967 362,-967 362,-931 478,-931 478,-967"/>
<text text-anchor="middle" x="420" y="-945.3" font-family="Courier,monospace" font-size="14.00" fill="#a0d17b">shekels.core</text>
</g>
<!-- shekels&#45;&gt;shekels.core -->
<g id="edge29" class="edge">
<title>shekels&#45;&gt;shekels.core</title>
<path fill="none" stroke="#a0d17b" d="M181.5442,-749.7235C212.4016,-751.0978 256.4104,-756.9155 289,-777 346.4437,-812.4017 387.8082,-882.8975 407.3501,-921.744"/>
<polygon fill="#a0d17b" stroke="#a0d17b" points="404.2955,-923.4641 411.8447,-930.8977 410.5789,-920.3788 404.2955,-923.4641"/>
</g>
<!-- dash.exceptions -->
<g id="node15" class="node">
<title>dash.exceptions</title>
<polygon fill="#343434" stroke="#343434" points="1283,-869 1143,-869 1143,-833 1283,-833 1283,-869"/>
<text text-anchor="middle" x="1213" y="-847.3" font-family="Courier,monospace" font-size="14.00" fill="#de958e">dash.exceptions</text>
</g>
<!-- dash.exceptions&#45;&gt;shekels.server.server_tools -->
<g id="edge30" class="edge">
<title>dash.exceptions&#45;&gt;shekels.server.server_tools</title>
<path fill="none" stroke="#de958e" d="M1283.1967,-836.1919C1302.1912,-831.4459 1322.5838,-825.6638 1341,-819 1380.8454,-804.5821 1424.1056,-783.2155 1454.8571,-766.972"/>
<polygon fill="#de958e" stroke="#de958e" points="1456.8029,-769.9011 1463.9814,-762.1088 1453.5104,-763.7237 1456.8029,-769.9011"/>
</g>
<!-- flasgger -->
<g id="node16" class="node">
<title>flasgger</title>
<polygon fill="#343434" stroke="#343434" points="1538,-489 1455,-489 1455,-453 1538,-453 1538,-489"/>
<text text-anchor="middle" x="1496.5" y="-467.3" font-family="Courier,monospace" font-size="14.00" fill="#de958e">flasgger</text>
</g>
<!-- flasgger&#45;&gt;shekels.server.api -->
<g id="edge31" class="edge">
<title>flasgger&#45;&gt;shekels.server.api</title>
<path fill="none" stroke="#de958e" d="M1538.2061,-477.0233C1562.0664,-481.6977 1591.9414,-489.6977 1616,-503 1617.7771,-503.9826 1694.7766,-575.8031 1736.796,-615.0468"/>
<polygon fill="#de958e" stroke="#de958e" points="1734.5118,-617.7026 1744.2089,-621.971 1739.2901,-612.5871 1734.5118,-617.7026"/>
</g>
<!-- flasgger&#45;&gt;shekels.server.app -->
<g id="edge32" class="edge">
<title>flasgger&#45;&gt;shekels.server.app</title>
<path fill="none" stroke="#de958e" d="M1538.1202,-471.9005C1608.6104,-472.4524 1755.4817,-469.3819 1875,-439 1901.2922,-432.3165 1929.1455,-420.3689 1951.2376,-409.61"/>
<polygon fill="#de958e" stroke="#de958e" points="1952.9341,-412.6754 1960.3317,-405.0907 1949.8189,-406.4068 1952.9341,-412.6754"/>
</g>
<!-- dash_core_components -->
<g id="node17" class="node">
<title>dash_core_components</title>
<polygon fill="#343434" stroke="#343434" points="1037,-404 855,-404 855,-368 1037,-368 1037,-404"/>
<text text-anchor="middle" x="946" y="-382.3" font-family="Courier,monospace" font-size="14.00" fill="#de958e">dash_core_components</text>
</g>
<!-- dash_core_components&#45;&gt;shekels.server.app -->
<g id="edge33" class="edge">
<title>dash_core_components&#45;&gt;shekels.server.app</title>
<path fill="none" stroke="#de958e" d="M1037.1263,-386.087C1234.9048,-386.2758 1701.6989,-386.7214 1900.8504,-386.9116"/>
<polygon fill="#de958e" stroke="#de958e" points="1900.9894,-390.4116 1910.9928,-386.9212 1900.9962,-383.4116 1900.9894,-390.4116"/>
</g>
<!-- dash_core_components&#45;&gt;shekels.server.components -->
<g id="edge34" class="edge">
<title>dash_core_components&#45;&gt;shekels.server.components</title>
<path fill="none" stroke="#de958e" d="M1011.9298,-404.0366C1024.4286,-408.1393 1037.2603,-412.8325 1049,-418 1065.9535,-425.4625 1067.8433,-432.0172 1085,-439 1095.0711,-443.0989 1105.8082,-446.778 1116.6182,-450.052"/>
<polygon fill="#de958e" stroke="#de958e" points="1115.9693,-453.5084 1126.5492,-452.9453 1117.9273,-446.7878 1115.9693,-453.5084"/>
</g>
<!-- shekels.enforce&#45;&gt;shekels.enforce.enforce_tools -->
<g id="edge35" class="edge">
<title>shekels.enforce&#45;&gt;shekels.enforce.enforce_tools</title>
<path fill="none" stroke="#a0d17b" d="M490.0891,-750C505.8686,-750 523.1505,-750 540.649,-750"/>
<polygon fill="#a0d17b" stroke="#a0d17b" points="540.9672,-753.5001 550.9672,-750 540.9671,-746.5001 540.9672,-753.5001"/>
</g>
<!-- flask -->
<g id="node19" class="node">
<title>flask</title>
<polygon fill="#343434" stroke="#343434" points="975,-610 917,-610 917,-574 975,-574 975,-610"/>
<text text-anchor="middle" x="946" y="-588.3" font-family="Courier,monospace" font-size="14.00" fill="#de958e">flask</text>
</g>
<!-- flask&#45;&gt;shekels.server.api -->
<g id="edge36" class="edge">
<title>flask&#45;&gt;shekels.server.api</title>
<path fill="none" stroke="#de958e" d="M975.0953,-593.7083C1086.2683,-600.2359 1487.1681,-623.775 1670.6508,-634.5483"/>
<polygon fill="#de958e" stroke="#de958e" points="1670.6327,-638.0532 1680.8207,-635.1454 1671.0431,-631.0652 1670.6327,-638.0532"/>
</g>
<!-- flask&#45;&gt;shekels.server.app -->
<g id="edge37" class="edge">
<title>flask&#45;&gt;shekels.server.app</title>
<path fill="none" stroke="#de958e" d="M975.4374,-591.6423C1124.6528,-589.6413 1793.5589,-578.3543 1875,-536 1926.3281,-509.3063 1962.8661,-449.4549 1980.8424,-414.2698"/>
<polygon fill="#de958e" stroke="#de958e" points="1984.1085,-415.5617 1985.4173,-405.048 1977.8378,-412.4508 1984.1085,-415.5617"/>
</g>
<!-- flask&#45;&gt;shekels.server.components -->
<g id="edge38" class="edge">
<title>flask&#45;&gt;shekels.server.components</title>
<path fill="none" stroke="#de958e" d="M975.4012,-584.5199C996.3063,-578.8048 1024.8463,-570.1897 1049,-560 1093.8794,-541.0667 1142.6164,-513.6707 1175.1965,-494.285"/>
<polygon fill="#de958e" stroke="#de958e" points="1177.1632,-497.1868 1183.9407,-489.0433 1173.5642,-491.1829 1177.1632,-497.1868"/>
</g>
<!-- flask&#45;&gt;shekels.server.server_tools -->
<g id="edge39" class="edge">
<title>flask&#45;&gt;shekels.server.server_tools</title>
<path fill="none" stroke="#de958e" d="M975.1792,-605.8799C997.9116,-617.9625 1028.8881,-637.3904 1049,-662 1075.2206,-694.0845 1050.5043,-725.0439 1085,-748 1129.6819,-777.7347 1263.6587,-771.1889 1366.7249,-760.7065"/>
<polygon fill="#de958e" stroke="#de958e" points="1367.3293,-764.1627 1376.9138,-759.6475 1366.6055,-757.2002 1367.3293,-764.1627"/>
</g>
<!-- dash_html_components -->
<g id="node20" class="node">
<title>dash_html_components</title>
<polygon fill="#343434" stroke="#343434" points="1037,-350 855,-350 855,-314 1037,-314 1037,-350"/>
<text text-anchor="middle" x="946" y="-328.3" font-family="Courier,monospace" font-size="14.00" fill="#de958e">dash_html_components</text>
</g>
<!-- dash_html_components&#45;&gt;shekels.server.app -->
<g id="edge40" class="edge">
<title>dash_html_components&#45;&gt;shekels.server.app</title>
<path fill="none" stroke="#de958e" d="M1037.1263,-336.7847C1234.9048,-347.1692 1701.6989,-371.6787 1900.8504,-382.1353"/>
<polygon fill="#de958e" stroke="#de958e" points="1900.823,-385.6386 1910.9928,-382.6679 1901.1901,-378.6483 1900.823,-385.6386"/>
</g>
<!-- dash_html_components&#45;&gt;shekels.server.components -->
<g id="edge41" class="edge">
<title>dash_html_components&#45;&gt;shekels.server.components</title>
<path fill="none" stroke="#de958e" d="M1036.1694,-350.1464C1040.7288,-352.7222 1045.0483,-355.6569 1049,-359 1078.7668,-384.1821 1055.0903,-413.9878 1085,-439 1089.0154,-442.3579 1093.3339,-445.3713 1097.8693,-448.075"/>
<polygon fill="#de958e" stroke="#de958e" points="1096.3717,-451.2436 1106.836,-452.9016 1099.6895,-445.0799 1096.3717,-451.2436"/>
</g>
<!-- shekels.core&#45;&gt;shekels.core.config -->
<g id="edge42" class="edge">
<title>shekels.core&#45;&gt;shekels.core.config</title>
<path fill="none" stroke="#a0d17b" d="M432.3214,-967.3295C464.1143,-1014.577 546.7384,-1137.0386 551,-1140 560.6256,-1146.6889 571.5175,-1151.9823 582.7847,-1156.1708"/>
<polygon fill="#a0d17b" stroke="#a0d17b" points="581.7234,-1159.5069 592.318,-1159.4357 583.9914,-1152.8845 581.7234,-1159.5069"/>
</g>
<!-- shekels.core&#45;&gt;shekels.core.data_tools -->
<g id="edge43" class="edge">
<title>shekels.core&#45;&gt;shekels.core.data_tools</title>
<path fill="none" stroke="#a0d17b" d="M437.9739,-930.6581C461.5486,-907.9212 505.3113,-870.0871 551,-853 641.5538,-819.1338 751.6809,-812.5 832.6253,-813.4082"/>
<polygon fill="#a0d17b" stroke="#a0d17b" points="832.7949,-816.9111 842.8473,-813.5646 832.902,-809.912 832.7949,-816.9111"/>
</g>
<!-- shekels.core&#45;&gt;shekels.core.database -->
<g id="edge44" class="edge">
<title>shekels.core&#45;&gt;shekels.core.database</title>
<path fill="none" stroke="#a0d17b" d="M428.3204,-967.1403C445.4648,-1002.0238 488.4357,-1077.6012 551,-1107 602.4878,-1131.194 759.768,-1138.7093 807,-1107 842.0842,-1083.4462 810.6537,-1046.1919 843,-1019 927.2808,-948.1494 977.0183,-987.5179 1085,-966 1092.4732,-964.5108 1100.2006,-963.0145 1107.9854,-961.5388"/>
<polygon fill="#a0d17b" stroke="#a0d17b" points="1108.6804,-964.9696 1117.862,-959.6828 1107.3875,-958.09 1108.6804,-964.9696"/>
</g>
<!-- dash_table -->
<g id="node22" class="node">
<title>dash_table</title>
<polygon fill="#343434" stroke="#343434" points="995.5,-296 896.5,-296 896.5,-260 995.5,-260 995.5,-296"/>
<text text-anchor="middle" x="946" y="-274.3" font-family="Courier,monospace" font-size="14.00" fill="#de958e">dash_table</text>
</g>
<!-- dash_table&#45;&gt;shekels.server.app -->
<g id="edge45" class="edge">
<title>dash_table&#45;&gt;shekels.server.app</title>
<path fill="none" stroke="#de958e" d="M995.5108,-281.2719C1134.5524,-290.7659 1540.2857,-320.5647 1875,-366 1883.3332,-367.1312 1891.9753,-368.4258 1900.6233,-369.8044"/>
<polygon fill="#de958e" stroke="#de958e" points="1900.3268,-373.3022 1910.7597,-371.4568 1901.4531,-366.3934 1900.3268,-373.3022"/>
</g>
<!-- dash_table&#45;&gt;shekels.server.components -->
<g id="edge46" class="edge">
<title>dash_table&#45;&gt;shekels.server.components</title>
<path fill="none" stroke="#de958e" d="M995.538,-280.5736C1014.4854,-283.9861 1034.9052,-290.9908 1049,-305 1092.738,-348.4724 1041.0151,-395.7774 1085,-439 1088.1246,-442.0705 1091.4968,-444.8608 1095.0621,-447.3957"/>
<polygon fill="#de958e" stroke="#de958e" points="1093.3827,-450.4747 1103.7059,-452.8584 1097.1224,-444.5573 1093.3827,-450.4747"/>
</g>
<!-- jinja2 -->
<g id="node23" class="node">
<title>jinja2</title>
<polygon fill="#343434" stroke="#343434" points="1246,-739 1180,-739 1180,-703 1246,-703 1246,-739"/>
<text text-anchor="middle" x="1213" y="-717.3" font-family="Courier,monospace" font-size="14.00" fill="#de958e">jinja2</text>
</g>
<!-- jinja2&#45;&gt;shekels.server.server_tools -->
<g id="edge47" class="edge">
<title>jinja2&#45;&gt;shekels.server.server_tools</title>
<path fill="none" stroke="#de958e" d="M1246.0759,-723.6834C1276.0182,-726.1126 1322.1284,-729.8534 1366.6597,-733.4662"/>
<polygon fill="#de958e" stroke="#de958e" points="1366.4784,-736.9629 1376.7287,-734.2831 1367.0445,-729.9858 1366.4784,-736.9629"/>
</g>
<!-- lunchbox.enforce -->
<g id="node24" class="node">
<title>lunchbox.enforce</title>
<polygon fill="#343434" stroke="#343434" points="494.5,-538 345.5,-538 345.5,-502 494.5,-502 494.5,-538"/>
<text text-anchor="middle" x="420" y="-516.3" font-family="Courier,monospace" font-size="14.00" fill="#de958e">lunchbox.enforce</text>
</g>
<!-- lunchbox.enforce&#45;&gt;shekels.core.data_tools -->
<g id="edge48" class="edge">
<title>lunchbox.enforce&#45;&gt;shekels.core.data_tools</title>
<path fill="none" stroke="#de958e" d="M434.0355,-538.4041C456.0188,-565.9828 501.2363,-617.8933 551,-647 653.4484,-706.9219 700.0746,-671.49 807,-723 847.8436,-742.6759 889.8691,-773.8003 916.8616,-795.4675"/>
<polygon fill="#de958e" stroke="#de958e" points="914.7692,-798.277 924.738,-801.865 919.1825,-792.8435 914.7692,-798.277"/>
</g>
<!-- lunchbox.enforce&#45;&gt;shekels.enforce.enforce_tools -->
<g id="edge49" class="edge">
<title>lunchbox.enforce&#45;&gt;shekels.enforce.enforce_tools</title>
<path fill="none" stroke="#de958e" d="M433.8416,-538.224C452.9181,-563.6235 487.9938,-611.3569 515,-654 532.4612,-681.5716 525.0527,-698.2054 551,-718 555.6668,-721.5602 560.6817,-724.7282 565.9285,-727.547"/>
<polygon fill="#de958e" stroke="#de958e" points="564.4364,-730.7134 574.9567,-731.9686 567.5153,-724.4269 564.4364,-730.7134"/>
</g>
<!-- lunchbox.enforce&#45;&gt;shekels.server.components -->
<g id="edge50" class="edge">
<title>lunchbox.enforce&#45;&gt;shekels.server.components</title>
<path fill="none" stroke="#de958e" d="M445.6025,-501.9548C470.9858,-485.2527 511.6679,-461.6002 551,-452 743.9591,-404.9026 977.9471,-430.0199 1109.7255,-451.3368"/>
<polygon fill="#de958e" stroke="#de958e" points="1109.3791,-454.8267 1119.8141,-452.9938 1110.5136,-447.9193 1109.3791,-454.8267"/>
</g>
<!-- lunchbox.enforce&#45;&gt;shekels.server.event_listener -->
<g id="edge51" class="edge">
<title>lunchbox.enforce&#45;&gt;shekels.server.event_listener</title>
<path fill="none" stroke="#de958e" d="M435.2955,-501.8852C485.9483,-443.4928 655.6846,-260.3392 843,-197 929.7313,-167.6725 957.8188,-188.7289 1049,-197 1072.4574,-199.1278 1097.5729,-202.9342 1120.9221,-207.1369"/>
<polygon fill="#de958e" stroke="#de958e" points="1120.3421,-210.5889 1130.8107,-208.9586 1121.6104,-203.7048 1120.3421,-210.5889"/>
</g>
<!-- schematics.models -->
<g id="node25" class="node">
<title>schematics.models</title>
<polygon fill="#343434" stroke="#343434" points="498.5,-1190 341.5,-1190 341.5,-1154 498.5,-1154 498.5,-1190"/>
<text text-anchor="middle" x="420" y="-1168.3" font-family="Courier,monospace" font-size="14.00" fill="#de958e">schematics.models</text>
</g>
<!-- schematics.models&#45;&gt;shekels.core.config -->
<g id="edge52" class="edge">
<title>schematics.models&#45;&gt;shekels.core.config</title>
<path fill="none" stroke="#de958e" d="M498.7634,-1172C525.1406,-1172 554.8536,-1172 582.4322,-1172"/>
<polygon fill="#de958e" stroke="#de958e" points="582.486,-1175.5001 592.486,-1172 582.486,-1168.5001 582.486,-1175.5001"/>
</g>
<!-- lunchbox.tools -->
<g id="node26" class="node">
<title>lunchbox.tools</title>
<polygon fill="#343434" stroke="#343434" points="745,-584 613,-584 613,-548 745,-548 745,-584"/>
<text text-anchor="middle" x="679" y="-562.3" font-family="Courier,monospace" font-size="14.00" fill="#de958e">lunchbox.tools</text>
</g>
<!-- lunchbox.tools&#45;&gt;shekels.core.data_tools -->
<g id="edge53" class="edge">
<title>lunchbox.tools&#45;&gt;shekels.core.data_tools</title>
<path fill="none" stroke="#de958e" d="M745.1658,-567.4407C766.973,-570.9511 789.9732,-578.3159 807,-593 841.8232,-623.0319 820.443,-649.9282 843,-690 865.1772,-729.3971 898.8949,-769.3685 921.6553,-794.3904"/>
<polygon fill="#de958e" stroke="#de958e" points="919.2839,-796.9821 928.6315,-801.9694 924.4342,-792.2414 919.2839,-796.9821"/>
</g>
<!-- lunchbox.tools&#45;&gt;shekels.server.components -->
<g id="edge54" class="edge">
<title>lunchbox.tools&#45;&gt;shekels.server.components</title>
<path fill="none" stroke="#de958e" d="M745.0055,-556.3046C819.1475,-545.1799 942.9885,-525.8951 1049,-506 1072.7853,-501.5362 1098.4153,-496.2811 1122.1844,-491.2191"/>
<polygon fill="#de958e" stroke="#de958e" points="1123.201,-494.5809 1132.2464,-489.0644 1121.7351,-487.736 1123.201,-494.5809"/>
</g>
<!-- lunchbox.tools&#45;&gt;shekels.server.server_tools -->
<g id="edge55" class="edge">
<title>lunchbox.tools&#45;&gt;shekels.server.server_tools</title>
<path fill="none" stroke="#de958e" d="M745.3077,-569.6485C766.5126,-573.3977 789.1045,-580.3478 807,-593 832.0825,-610.7334 819.6886,-631.9954 843,-652 918.2912,-716.6111 984.066,-662.9871 1049,-738 1091.0484,-786.5751 1034.2282,-838.6321 1085,-878 1129.9574,-912.8595 1294.9849,-911.4508 1341,-878 1380.328,-849.4103 1343.3975,-807.0495 1375.7591,-769.5288"/>
<polygon fill="#de958e" stroke="#de958e" points="1378.5989,-771.6391 1383.1985,-762.0947 1373.6509,-766.6876 1378.5989,-771.6391"/>
</g>
<!-- pandas -->
<g id="node27" class="node">
<title>pandas</title>
<polygon fill="#343434" stroke="#343434" points="453,-699 387,-699 387,-663 453,-663 453,-699"/>
<text text-anchor="middle" x="420" y="-677.3" font-family="Courier,monospace" font-size="14.00" fill="#de958e">pandas</text>
</g>
<!-- pandas&#45;&gt;shekels.core.data_tools -->
<g id="edge56" class="edge">
<title>pandas&#45;&gt;shekels.core.data_tools</title>
<path fill="none" stroke="#de958e" d="M453.351,-690.5384C472.8451,-697.3112 497.0628,-707.9061 515,-723 537.0701,-741.5717 526.3435,-762.0314 551,-777 563.038,-784.3081 720.4844,-799.7928 832.9067,-810.0468"/>
<polygon fill="#de958e" stroke="#de958e" points="832.6816,-813.5407 842.9575,-810.9606 833.3155,-806.5694 832.6816,-813.5407"/>
</g>
<!-- pandas&#45;&gt;shekels.core.database -->
<g id="edge57" class="edge">
<title>pandas&#45;&gt;shekels.core.database</title>
<path fill="none" stroke="#de958e" d="M453.1661,-682.657C520.4389,-686.4435 677.5428,-697.4528 807,-723 916.8463,-744.6772 968.5705,-715.1078 1049,-793 1086.2557,-829.0804 1048.0011,-867.6564 1085,-904 1091.8881,-910.7661 1099.9134,-916.3631 1108.5253,-920.9924"/>
<polygon fill="#de958e" stroke="#de958e" points="1107.168,-924.2248 1117.6889,-925.4748 1110.2438,-917.9367 1107.168,-924.2248"/>
</g>
<!-- pandas&#45;&gt;shekels.enforce.enforce_tools -->
<g id="edge58" class="edge">
<title>pandas&#45;&gt;shekels.enforce.enforce_tools</title>
<path fill="none" stroke="#de958e" d="M453.035,-690.6296C479.4774,-698.2651 517.5427,-709.0951 551,-718 565.2082,-721.7816 580.3385,-725.6786 595.0352,-729.3954"/>
<polygon fill="#de958e" stroke="#de958e" points="594.5719,-732.8879 605.1239,-731.9361 596.2814,-726.0999 594.5719,-732.8879"/>
</g>
<!-- pandas&#45;&gt;shekels.server.components -->
<g id="edge59" class="edge">
<title>pandas&#45;&gt;shekels.server.components</title>
<path fill="none" stroke="#de958e" d="M433.7584,-662.723C452.7385,-637.2619 487.7029,-589.4574 515,-547 532.232,-520.1976 523.555,-501.189 551,-485 596.104,-458.3945 912.3796,-462.5703 1090.9536,-467.1878"/>
<polygon fill="#de958e" stroke="#de958e" points="1091.1062,-470.693 1101.1947,-467.457 1091.2902,-463.6954 1091.1062,-470.693"/>
</g>
<!-- pandasql -->
<g id="node28" class="node">
<title>pandasql</title>
<polygon fill="#343434" stroke="#343434" points="720.5,-638 637.5,-638 637.5,-602 720.5,-602 720.5,-638"/>
<text text-anchor="middle" x="679" y="-616.3" font-family="Courier,monospace" font-size="14.00" fill="#de958e">pandasql</text>
</g>
<!-- pandasql&#45;&gt;shekels.core.data_tools -->
<g id="edge60" class="edge">
<title>pandasql&#45;&gt;shekels.core.data_tools</title>
<path fill="none" stroke="#de958e" d="M719.3105,-638.0055C745.5459,-650.6713 779.8128,-669.0549 807,-690 825.4295,-704.1981 826.3101,-711.7926 843,-728 867.2511,-751.55 896.0312,-777.0649 916.9962,-795.2374"/>
<polygon fill="#de958e" stroke="#de958e" points="914.7666,-797.9365 924.6228,-801.8233 919.3417,-792.6385 914.7666,-797.9365"/>
</g>
<!-- pandasql&#45;&gt;shekels.server.api -->
<g id="edge61" class="edge">
<title>pandasql&#45;&gt;shekels.server.api</title>
<path fill="none" stroke="#de958e" d="M720.69,-621.4931C828.947,-625.2923 1127.9094,-635.2881 1377,-639 1477.329,-640.4951 1592.3233,-640.5847 1670.6177,-640.4007"/>
<polygon fill="#de958e" stroke="#de958e" points="1670.9459,-643.9 1680.9369,-640.3744 1670.928,-636.9 1670.9459,-643.9"/>
</g>
<!-- schematics.types -->
<g id="node29" class="node">
<title>schematics.types</title>
<polygon fill="#343434" stroke="#343434" points="494.5,-1136 345.5,-1136 345.5,-1100 494.5,-1100 494.5,-1136"/>
<text text-anchor="middle" x="420" y="-1114.3" font-family="Courier,monospace" font-size="14.00" fill="#de958e">schematics.types</text>
</g>
<!-- schematics.types&#45;&gt;shekels.core.config -->
<g id="edge62" class="edge">
<title>schematics.types&#45;&gt;shekels.core.config</title>
<path fill="none" stroke="#de958e" d="M494.5661,-1133.5466C521.9704,-1139.2602 553.4035,-1145.8139 582.4641,-1151.8728"/>
<polygon fill="#de958e" stroke="#de958e" points="582.1298,-1155.3783 592.6337,-1153.9931 583.5586,-1148.5257 582.1298,-1155.3783"/>
</g>
<!-- rolling_pin.blob_etl -->
<g id="node30" class="node">
<title>rolling_pin.blob_etl</title>
<polygon fill="#343434" stroke="#343434" points="770,-530 588,-530 588,-494 770,-494 770,-530"/>
<text text-anchor="middle" x="679" y="-508.3" font-family="Courier,monospace" font-size="14.00" fill="#de958e">rolling_pin.blob_etl</text>
</g>
<!-- rolling_pin.blob_etl&#45;&gt;shekels.core.data_tools -->
<g id="edge63" class="edge">
<title>rolling_pin.blob_etl&#45;&gt;shekels.core.data_tools</title>
<path fill="none" stroke="#de958e" d="M770.1191,-518.7457C783.6624,-523.1029 796.5556,-529.5561 807,-539 846.0966,-574.3514 821.0651,-604.0716 843,-652 867.0754,-704.6055 904.2867,-761.017 926.7751,-793.2531"/>
<polygon fill="#de958e" stroke="#de958e" points="924.0878,-795.5161 932.7044,-801.681 929.8129,-791.4883 924.0878,-795.5161"/>
</g>
<!-- rolling_pin.blob_etl&#45;&gt;shekels.server.components -->
<g id="edge64" class="edge">
<title>rolling_pin.blob_etl&#45;&gt;shekels.server.components</title>
<path fill="none" stroke="#de958e" d="M770.2395,-505.1865C845.1316,-499.5719 953.9436,-491.3642 1049,-484 1062.6341,-482.9437 1076.9049,-481.8279 1091.0973,-480.7116"/>
<polygon fill="#de958e" stroke="#de958e" points="1091.7132,-484.174 1101.4075,-479.8996 1091.1635,-477.1956 1091.7132,-484.174"/>
</g>
<!-- rolling_pin.blob_etl&#45;&gt;shekels.server.server_tools -->
<g id="edge65" class="edge">
<title>rolling_pin.blob_etl&#45;&gt;shekels.server.server_tools</title>
<path fill="none" stroke="#de958e" d="M770.2081,-520.1118C783.5054,-524.3301 796.2979,-530.3825 807,-539 837.3684,-563.4532 811.9305,-595.444 843,-619 848.5738,-623.2259 1334.19,-692.4034 1341,-694 1373.4947,-701.6184 1408.9783,-712.8001 1437.8343,-722.6584"/>
<polygon fill="#de958e" stroke="#de958e" points="1436.7575,-725.9893 1447.3523,-725.9438 1439.0416,-719.3724 1436.7575,-725.9893"/>
</g>
<!-- numpy -->
<g id="node31" class="node">
<title>numpy</title>
<polygon fill="#343434" stroke="#343434" points="708,-1098 650,-1098 650,-1062 708,-1062 708,-1098"/>
<text text-anchor="middle" x="679" y="-1076.3" font-family="Courier,monospace" font-size="14.00" fill="#de958e">numpy</text>
</g>
<!-- numpy&#45;&gt;shekels.core.data_tools -->
<g id="edge66" class="edge">
<title>numpy&#45;&gt;shekels.core.data_tools</title>
<path fill="none" stroke="#de958e" d="M708.1162,-1080.6337C736.9709,-1079.6481 780.5742,-1073.5596 807,-1048 848.8629,-1007.5093 813.3421,-972.1239 843,-922 861.1479,-891.3288 890.7351,-863.3791 913.553,-844.5251"/>
<polygon fill="#de958e" stroke="#de958e" points="916.0445,-847.0116 921.6196,-838.0022 911.643,-841.5684 916.0445,-847.0116"/>
</g>
<!-- numpy&#45;&gt;shekels.core.database -->
<g id="edge67" class="edge">
<title>numpy&#45;&gt;shekels.core.database</title>
<path fill="none" stroke="#de958e" d="M708.1472,-1073.3865C734.2026,-1067.3149 773.3512,-1057.7985 807,-1048 823.1929,-1043.2846 826.8101,-1040.7257 843,-1036 938.2287,-1008.2037 1048.6776,-981.0989 1123.941,-963.3911"/>
<polygon fill="#de958e" stroke="#de958e" points="1124.925,-966.7553 1133.8611,-961.0635 1123.326,-959.9404 1124.925,-966.7553"/>
</g>
<!-- schematics.exceptions -->
<g id="node32" class="node">
<title>schematics.exceptions</title>
<polygon fill="#343434" stroke="#343434" points="515,-1244 325,-1244 325,-1208 515,-1208 515,-1244"/>
<text text-anchor="middle" x="420" y="-1222.3" font-family="Courier,monospace" font-size="14.00" fill="#de958e">schematics.exceptions</text>
</g>
<!-- schematics.exceptions&#45;&gt;shekels.core.config -->
<g id="edge68" class="edge">
<title>schematics.exceptions&#45;&gt;shekels.core.config</title>
<path fill="none" stroke="#de958e" d="M506.6033,-1207.9437C531.0102,-1202.855 557.7088,-1197.2885 582.6489,-1192.0887"/>
<polygon fill="#de958e" stroke="#de958e" points="583.4032,-1195.5067 592.4783,-1190.0393 581.9744,-1188.6541 583.4032,-1195.5067"/>
</g>
<!-- schematics.exceptions&#45;&gt;shekels.core.data_tools -->
<g id="edge69" class="edge">
<title>schematics.exceptions&#45;&gt;shekels.core.data_tools</title>
<path fill="none" stroke="#de958e" d="M504.3337,-1207.8329C508.1905,-1205.2589 511.7845,-1202.3306 515,-1199 561.4197,-1150.919 501.5655,-1097.9755 551,-1053 636.0812,-975.5932 710.1172,-1077.0028 807,-1015 831.6074,-999.2518 826.3371,-983.9975 843,-960 870.9182,-919.7929 904.8127,-874.3269 925.8994,-846.4113"/>
<polygon fill="#de958e" stroke="#de958e" points="928.7668,-848.4222 932.0116,-838.3365 923.1855,-844.1974 928.7668,-848.4222"/>
</g>
<!-- schematics.exceptions&#45;&gt;shekels.server.api -->
<g id="edge70" class="edge">
<title>schematics.exceptions&#45;&gt;shekels.server.api</title>
<path fill="none" stroke="#de958e" d="M490.0565,-1244.0223C652.8578,-1281.7309 1063.9048,-1352.5372 1341,-1188 1563.2481,-1056.0307 1710.36,-758.7927 1751.6415,-667.3141"/>
<polygon fill="#de958e" stroke="#de958e" points="1754.8511,-668.7102 1755.731,-658.152 1748.459,-665.857 1754.8511,-668.7102"/>
</g>
<!-- schematics.exceptions&#45;&gt;shekels.server.components -->
<g id="edge71" class="edge">
<title>schematics.exceptions&#45;&gt;shekels.server.components</title>
<path fill="none" stroke="#de958e" d="M515.4157,-1230.6764C614.8477,-1233.603 762.2927,-1231.8529 807,-1199 842.382,-1172.9997 816.7184,-1142.1735 843,-1107 912.39,-1014.1333 990.8069,-1047.2635 1049,-947 1106.0132,-848.7694 1048.0662,-801.4041 1085,-694 1111.304,-617.5074 1164.5013,-537.5744 1193.3413,-497.3958"/>
<polygon fill="#de958e" stroke="#de958e" points="1196.2396,-499.361 1199.2761,-489.2106 1190.5725,-495.252 1196.2396,-499.361"/>
</g>
<!-- schematics.exceptions&#45;&gt;shekels.server.server_tools -->
<g id="edge72" class="edge">
<title>schematics.exceptions&#45;&gt;shekels.server.server_tools</title>
<path fill="none" stroke="#de958e" d="M515.1562,-1228.4347C527.2207,-1228.6682 539.3988,-1228.8672 551,-1229 664.7703,-1230.3025 693.5155,-1237.1641 807,-1229 1048.6027,-1211.6191 1157.8461,-1278.5202 1341,-1120 1450.0055,-1025.6555 1484.0371,-842.7773 1493.3572,-772.4806"/>
<polygon fill="#de958e" stroke="#de958e" points="1496.8754,-772.554 1494.6486,-762.1958 1489.9299,-771.6818 1496.8754,-772.554"/>
</g>
<!-- pyparsing -->
<g id="node33" class="node">
<title>pyparsing</title>
<polygon fill="#343434" stroke="#343434" points="724.5,-1006 633.5,-1006 633.5,-970 724.5,-970 724.5,-1006"/>
<text text-anchor="middle" x="679" y="-984.3" font-family="Courier,monospace" font-size="14.00" fill="#de958e">pyparsing</text>
</g>
<!-- pyparsing&#45;&gt;shekels.core.data_tools -->
<g id="edge73" class="edge">
<title>pyparsing&#45;&gt;shekels.core.data_tools</title>
<path fill="none" stroke="#de958e" d="M724.6458,-985.1949C750.2233,-982.0035 781.9212,-975.2473 807,-961 827.5104,-949.348 826.6153,-938.9702 843,-922 868.6879,-895.3943 898.8245,-865.7231 919.8378,-845.2729"/>
<polygon fill="#de958e" stroke="#de958e" points="922.407,-847.6566 927.1416,-838.1785 917.5298,-842.6354 922.407,-847.6566"/>
</g>
<!-- cufflinks -->
<g id="node34" class="node">
<title>cufflinks</title>
<polygon fill="#343434" stroke="#343434" points="724.5,-952 633.5,-952 633.5,-916 724.5,-916 724.5,-952"/>
<text text-anchor="middle" x="679" y="-930.3" font-family="Courier,monospace" font-size="14.00" fill="#de958e">cufflinks</text>
</g>
<!-- cufflinks&#45;&gt;shekels.core.data_tools -->
<g id="edge74" class="edge">
<title>cufflinks&#45;&gt;shekels.core.data_tools</title>
<path fill="none" stroke="#de958e" d="M724.5686,-928.3714C749.5392,-924.3104 780.6738,-917.6241 807,-907 846.5448,-891.0415 887.401,-863.9729 914.4954,-844.2591"/>
<polygon fill="#de958e" stroke="#de958e" points="916.8202,-846.8934 922.7896,-838.1404 912.6646,-841.2604 916.8202,-846.8934"/>
</g>
<!-- webcolors -->
<g id="node35" class="node">
<title>webcolors</title>
<polygon fill="#343434" stroke="#343434" points="724.5,-898 633.5,-898 633.5,-862 724.5,-862 724.5,-898"/>
<text text-anchor="middle" x="679" y="-876.3" font-family="Courier,monospace" font-size="14.00" fill="#de958e">webcolors</text>
</g>
<!-- webcolors&#45;&gt;shekels.core.data_tools -->
<g id="edge75" class="edge">
<title>webcolors&#45;&gt;shekels.core.data_tools</title>
<path fill="none" stroke="#de958e" d="M724.5956,-869.7538C760.5284,-861.679 811.7563,-850.1671 855.8871,-840.2501"/>
<polygon fill="#de958e" stroke="#de958e" points="856.7793,-843.637 865.7685,-838.0295 855.2445,-836.8073 856.7793,-843.637"/>
</g>
<!-- jsoncomment -->
<g id="node36" class="node">
<title>jsoncomment</title>
<polygon fill="#343434" stroke="#343434" points="999.5,-1152 892.5,-1152 892.5,-1116 999.5,-1116 999.5,-1152"/>
<text text-anchor="middle" x="946" y="-1130.3" font-family="Courier,monospace" font-size="14.00" fill="#de958e">jsoncomment</text>
</g>
<!-- jsoncomment&#45;&gt;shekels.core.database -->
<g id="edge76" class="edge">
<title>jsoncomment&#45;&gt;shekels.core.database</title>
<path fill="none" stroke="#de958e" d="M999.6248,-1125.6728C1016.8039,-1120.947 1034.9857,-1113.5544 1049,-1102 1075.0823,-1080.4959 1062.7019,-1060.4069 1085,-1035 1109.4899,-1007.0958 1143.9703,-982.9298 1170.9749,-966.3765"/>
<polygon fill="#de958e" stroke="#de958e" points="1173.0528,-969.2112 1179.8212,-961.0602 1169.447,-963.2113 1173.0528,-969.2112"/>
</g>
<!-- jsoncomment&#45;&gt;shekels.server.app -->
<g id="edge77" class="edge">
<title>jsoncomment&#45;&gt;shekels.server.app</title>
<path fill="none" stroke="#de958e" d="M999.7429,-1127.9171C1077.3411,-1117.867 1224.2559,-1094.0526 1341,-1047 1599.1202,-942.9671 1699.6609,-936.1136 1875,-720 1951.7739,-625.3726 1980.7432,-477.1832 1989.8765,-415.4641"/>
<polygon fill="#de958e" stroke="#de958e" points="1993.3773,-415.7043 1991.3132,-405.3125 1986.4464,-414.7234 1993.3773,-415.7043"/>
</g>
<!-- jsoncomment&#45;&gt;shekels.server.server_tools -->
<g id="edge78" class="edge">
<title>jsoncomment&#45;&gt;shekels.server.server_tools</title>
<path fill="none" stroke="#de958e" d="M999.6099,-1122.6209C1080.9875,-1103.1304 1237.1803,-1056.7999 1341,-970 1409.5655,-912.6749 1461.164,-817.9574 1483.8284,-771.4676"/>
<polygon fill="#de958e" stroke="#de958e" points="1487.0519,-772.8401 1488.2213,-762.31 1480.7405,-769.8125 1487.0519,-772.8401"/>
</g>
<!-- flask_caching -->
<g id="node37" class="node">
<title>flask_caching</title>
<polygon fill="#343434" stroke="#343434" points="1825.5,-144 1701.5,-144 1701.5,-108 1825.5,-108 1825.5,-144"/>
<text text-anchor="middle" x="1763.5" y="-122.3" font-family="Courier,monospace" font-size="14.00" fill="#de958e">flask_caching</text>
</g>
<!-- flask_caching&#45;&gt;shekels.server.app -->
<g id="edge79" class="edge">
<title>flask_caching&#45;&gt;shekels.server.app</title>
<path fill="none" stroke="#de958e" d="M1825.661,-134.4263C1843.036,-139.1482 1860.9793,-146.5134 1875,-158 1940.3271,-211.5202 1973.725,-310.524 1986.7756,-358.9079"/>
<polygon fill="#de958e" stroke="#de958e" points="1983.4188,-359.9065 1989.3243,-368.7029 1990.1933,-358.1437 1983.4188,-359.9065"/>
</g>
<!-- flask_healthz -->
<g id="node38" class="node">
<title>flask_healthz</title>
<polygon fill="#343434" stroke="#343434" points="1825.5,-90 1701.5,-90 1701.5,-54 1825.5,-54 1825.5,-90"/>
<text text-anchor="middle" x="1763.5" y="-68.3" font-family="Courier,monospace" font-size="14.00" fill="#de958e">flask_healthz</text>
</g>
<!-- flask_healthz&#45;&gt;shekels.server.app -->
<g id="edge80" class="edge">
<title>flask_healthz&#45;&gt;shekels.server.app</title>
<path fill="none" stroke="#de958e" d="M1825.6053,-76.4838C1843.178,-80.3765 1861.2434,-87.1993 1875,-99 1955.5745,-168.1183 1982.2595,-300.6289 1990.3207,-358.6322"/>
<polygon fill="#de958e" stroke="#de958e" points="1986.8935,-359.4179 1991.6567,-368.8816 1993.8347,-358.5131 1986.8935,-359.4179"/>
</g>
<!-- flask_monitoringdashboard -->
<g id="node39" class="node">
<title>flask_monitoringdashboard</title>
<polygon fill="#343434" stroke="#343434" points="1875,-36 1652,-36 1652,0 1875,0 1875,-36"/>
<text text-anchor="middle" x="1763.5" y="-14.3" font-family="Courier,monospace" font-size="14.00" fill="#de958e">flask_monitoringdashboard</text>
</g>
<!-- flask_monitoringdashboard&#45;&gt;shekels.server.app -->
<g id="edge81" class="edge">
<title>flask_monitoringdashboard&#45;&gt;shekels.server.app</title>
<path fill="none" stroke="#de958e" d="M1863.0147,-36.0999C1867.2851,-38.7005 1871.3143,-41.6521 1875,-45 1923.1014,-88.6934 1970.8279,-285.0216 1987.3877,-358.8301"/>
<polygon fill="#de958e" stroke="#de958e" points="1984.0165,-359.7947 1989.6011,-368.7982 1990.8501,-358.2772 1984.0165,-359.7947"/>
</g>
<!-- selenium.webdriver.chrome.options -->
<g id="node40" class="node">
<title>selenium.webdriver.chrome.options</title>
<polygon fill="#343434" stroke="#343434" points="289,-822 0,-822 0,-786 289,-786 289,-822"/>
<text text-anchor="middle" x="144.5" y="-800.3" font-family="Courier,monospace" font-size="14.00" fill="#de958e">selenium.webdriver.chrome.options</text>
</g>
</g>
</svg>
