<?xml version="1.0" encoding="UTF-8" standalone="no"?>
<!DOCTYPE svg PUBLIC "-//W3C//DTD SVG 1.1//EN"
 "http://www.w3.org/Graphics/SVG/1.1/DTD/svg11.dtd">
<!-- Generated by graphviz version 2.40.1 (20161225.0304)
 -->
<!-- Title: %3 Pages: 1 -->
<svg width="1792pt" height="1146pt"
 viewBox="0.00 0.00 1792.00 1146.16" xmlns="http://www.w3.org/2000/svg" xmlns:xlink="http://www.w3.org/1999/xlink">
<g id="graph0" class="graph" transform="scale(1 1) rotate(0) translate(4 1142.1595)">
<title>%3</title>
<polygon fill="#242424" stroke="transparent" points="-4,4 -4,-1142.1595 1788,-1142.1595 1788,4 -4,4"/>
<!-- cli -->
<g id="node1" class="node">
<title>cli</title>
<polygon fill="#343434" stroke="#343434" points="171.5,-794 117.5,-794 117.5,-758 171.5,-758 171.5,-794"/>
<text text-anchor="middle" x="144.5" y="-772.3" font-family="Courier,monospace" font-size="14.00" fill="#b6ecf3">cli</text>
</g>
<!-- shekels.core.config -->
<g id="node2" class="node">
<title>shekels.core.config</title>
<polygon fill="#343434" stroke="#343434" points="765.5,-918 592.5,-918 592.5,-882 765.5,-882 765.5,-918"/>
<text text-anchor="middle" x="679" y="-896.3" font-family="Courier,monospace" font-size="14.00" fill="#b6ecf3">shekels.core.config</text>
</g>
<!-- shekels.core.data_tools -->
<g id="node3" class="node">
<title>shekels.core.data_tools</title>
<polygon fill="#343434" stroke="#343434" points="1049,-513 843,-513 843,-477 1049,-477 1049,-513"/>
<text text-anchor="middle" x="946" y="-491.3" font-family="Courier,monospace" font-size="14.00" fill="#b6ecf3">shekels.core.data_tools</text>
</g>
<!-- shekels.core.config&#45;&gt;shekels.core.data_tools -->
<g id="edge1" class="edge">
<title>shekels.core.config&#45;&gt;shekels.core.data_tools</title>
<path fill="none" stroke="#b6ecf3" d="M765.6755,-896.9318C781.3384,-892.4871 796.124,-885.0583 807,-873 909.3667,-759.5052 748.1227,-650.8261 843,-531 846.6912,-526.3382 851.0258,-522.2783 855.7906,-518.7429"/>
<polygon fill="#b6ecf3" stroke="#b6ecf3" points="857.7126,-521.668 864.1778,-513.2745 853.8894,-515.8043 857.7126,-521.668"/>
</g>
<!-- shekels.core.database -->
<g id="node4" class="node">
<title>shekels.core.database</title>
<polygon fill="#343434" stroke="#343434" points="1299.5,-784 1109.5,-784 1109.5,-748 1299.5,-748 1299.5,-784"/>
<text text-anchor="middle" x="1204.5" y="-762.3" font-family="Courier,monospace" font-size="14.00" fill="#b6ecf3">shekels.core.database</text>
</g>
<!-- shekels.core.config&#45;&gt;shekels.core.database -->
<g id="edge2" class="edge">
<title>shekels.core.config&#45;&gt;shekels.core.database</title>
<path fill="none" stroke="#b6ecf3" d="M765.7133,-890.6937C780.2326,-886.6745 794.5918,-880.9976 807,-873 829.7142,-858.3598 819.9353,-838.0816 843,-824 884.9635,-798.3801 1008.2218,-782.544 1099.1979,-774.0229"/>
<polygon fill="#b6ecf3" stroke="#b6ecf3" points="1099.6496,-777.4963 1109.2872,-773.0953 1099.0087,-770.5257 1099.6496,-777.4963"/>
</g>
<!-- shekels.server.app -->
<g id="node7" class="node">
<title>shekels.server.app</title>
<polygon fill="#343434" stroke="#343434" points="1784,-536 1619,-536 1619,-500 1784,-500 1784,-536"/>
<text text-anchor="middle" x="1701.5" y="-514.3" font-family="Courier,monospace" font-size="14.00" fill="#b6ecf3">shekels.server.app</text>
</g>
<!-- shekels.core.config&#45;&gt;shekels.server.app -->
<g id="edge3" class="edge">
<title>shekels.core.config&#45;&gt;shekels.server.app</title>
<path fill="none" stroke="#b6ecf3" d="M686.2992,-918.0643C704.8474,-961.1838 758.4004,-1069.6065 843,-1111 1059.4092,-1216.8863 1547.9047,-979.2688 1583,-943 1639.4447,-884.6679 1683.6481,-631.635 1697.193,-546.2557"/>
<polygon fill="#b6ecf3" stroke="#b6ecf3" points="1700.6706,-546.6705 1698.7612,-536.2492 1693.755,-545.5866 1700.6706,-546.6705"/>
</g>
<!-- shekels.server.components -->
<g id="node8" class="node">
<title>shekels.server.components</title>
<polygon fill="#343434" stroke="#343434" points="1316,-358 1093,-358 1093,-322 1316,-322 1316,-358"/>
<text text-anchor="middle" x="1204.5" y="-336.3" font-family="Courier,monospace" font-size="14.00" fill="#b6ecf3">shekels.server.components</text>
</g>
<!-- shekels.core.config&#45;&gt;shekels.server.components -->
<g id="edge4" class="edge">
<title>shekels.core.config&#45;&gt;shekels.server.components</title>
<path fill="none" stroke="#b6ecf3" d="M765.5466,-896.8146C781.2191,-892.3788 796.0413,-884.9831 807,-873 898.2226,-773.2501 753.0634,-671.9109 843,-571 905.6158,-500.7437 968.7021,-571.0809 1049,-522 1113.6436,-482.4875 1165.0745,-406.9574 1189.3298,-366.7434"/>
<polygon fill="#b6ecf3" stroke="#b6ecf3" points="1192.4105,-368.41 1194.4966,-358.0225 1186.3881,-364.8419 1192.4105,-368.41"/>
</g>
<!-- shekels.core.data_tools&#45;&gt;shekels.core.database -->
<g id="edge5" class="edge">
<title>shekels.core.data_tools&#45;&gt;shekels.core.database</title>
<path fill="none" stroke="#b6ecf3" d="M974.6593,-513.1644C996.243,-527.5281 1025.9518,-548.8 1049,-571 1105.3926,-625.3173 1159.7025,-700.191 1186.7363,-739.4813"/>
<polygon fill="#b6ecf3" stroke="#b6ecf3" points="1183.8609,-741.477 1192.3911,-747.7609 1189.6414,-737.5291 1183.8609,-741.477"/>
</g>
<!-- shekels.core.data_tools&#45;&gt;shekels.server.app -->
<g id="edge6" class="edge">
<title>shekels.core.data_tools&#45;&gt;shekels.server.app</title>
<path fill="none" stroke="#b6ecf3" d="M1049.0113,-493.1847C1175.075,-491.7174 1394.9716,-491.5979 1583,-504 1591.3201,-504.5488 1599.9533,-505.2711 1608.5954,-506.0988"/>
<polygon fill="#b6ecf3" stroke="#b6ecf3" points="1608.427,-509.5993 1618.7264,-507.1147 1609.1255,-502.6343 1608.427,-509.5993"/>
</g>
<!-- shekels.core.data_tools&#45;&gt;shekels.server.components -->
<g id="edge7" class="edge">
<title>shekels.core.data_tools&#45;&gt;shekels.server.components</title>
<path fill="none" stroke="#b6ecf3" d="M976.1591,-476.9162C1023.1195,-448.7581 1113.695,-394.4479 1165.5402,-363.3608"/>
<polygon fill="#b6ecf3" stroke="#b6ecf3" points="1167.3569,-366.3525 1174.1334,-358.2082 1163.7571,-360.3491 1167.3569,-366.3525"/>
</g>
<!-- shekels.server.api -->
<g id="node6" class="node">
<title>shekels.server.api</title>
<polygon fill="#343434" stroke="#343434" points="1554,-704 1389,-704 1389,-668 1554,-668 1554,-704"/>
<text text-anchor="middle" x="1471.5" y="-682.3" font-family="Courier,monospace" font-size="14.00" fill="#b6ecf3">shekels.server.api</text>
</g>
<!-- shekels.core.database&#45;&gt;shekels.server.api -->
<g id="edge8" class="edge">
<title>shekels.core.database&#45;&gt;shekels.server.api</title>
<path fill="none" stroke="#b6ecf3" d="M1274.4986,-747.9212C1290.7929,-743.5287 1308.0411,-738.7298 1324,-734 1351.9313,-725.7218 1382.5956,-715.8685 1408.6954,-707.2496"/>
<polygon fill="#b6ecf3" stroke="#b6ecf3" points="1410.069,-710.4816 1418.4597,-704.0126 1407.8663,-703.8372 1410.069,-710.4816"/>
</g>
<!-- shekels.enforce.enforce_tools -->
<g id="node5" class="node">
<title>shekels.enforce.enforce_tools</title>
<polygon fill="#343434" stroke="#343434" points="807,-312 551,-312 551,-276 807,-276 807,-312"/>
<text text-anchor="middle" x="679" y="-290.3" font-family="Courier,monospace" font-size="14.00" fill="#b6ecf3">shekels.enforce.enforce_tools</text>
</g>
<!-- shekels.enforce.enforce_tools&#45;&gt;shekels.core.data_tools -->
<g id="edge9" class="edge">
<title>shekels.enforce.enforce_tools&#45;&gt;shekels.core.data_tools</title>
<path fill="none" stroke="#b6ecf3" d="M722.3658,-312.015C748.0748,-323.65 780.6712,-340.1167 807,-359 852.8912,-391.9136 898.1563,-439.8798 924.0204,-469.175"/>
<polygon fill="#b6ecf3" stroke="#b6ecf3" points="921.569,-471.6888 930.7854,-476.9147 926.8395,-467.082 921.569,-471.6888"/>
</g>
<!-- shekels.server.api&#45;&gt;shekels.server.app -->
<g id="edge10" class="edge">
<title>shekels.server.api&#45;&gt;shekels.server.app</title>
<path fill="none" stroke="#b6ecf3" d="M1513.5972,-667.9094C1535.1763,-657.8003 1561.3895,-644.1895 1583,-629 1619.2091,-603.5495 1655.5772,-567.5644 1678.2892,-543.5399"/>
<polygon fill="#b6ecf3" stroke="#b6ecf3" points="1680.8905,-545.8825 1685.1658,-536.1885 1675.7784,-541.1005 1680.8905,-545.8825"/>
</g>
<!-- shekels.server.components&#45;&gt;shekels.server.app -->
<g id="edge11" class="edge">
<title>shekels.server.components&#45;&gt;shekels.server.app</title>
<path fill="none" stroke="#b6ecf3" d="M1264.4312,-358.0742C1339.5685,-381.1622 1471.9905,-423.2707 1583,-466 1606.5608,-475.0689 1632.2698,-486.1954 1653.7014,-495.8258"/>
<polygon fill="#b6ecf3" stroke="#b6ecf3" points="1652.3602,-499.0605 1662.9141,-499.9914 1655.2443,-492.6822 1652.3602,-499.0605"/>
</g>
<!-- shekels.server.server_tools -->
<g id="node9" class="node">
<title>shekels.server.server_tools</title>
<polygon fill="#343434" stroke="#343434" points="1324,-914 1085,-914 1085,-878 1324,-878 1324,-914"/>
<text text-anchor="middle" x="1204.5" y="-892.3" font-family="Courier,monospace" font-size="14.00" fill="#b6ecf3">shekels.server.server_tools</text>
</g>
<!-- shekels.server.server_tools&#45;&gt;shekels.server.api -->
<g id="edge12" class="edge">
<title>shekels.server.server_tools&#45;&gt;shekels.server.api</title>
<path fill="none" stroke="#b6ecf3" d="M1240.0915,-877.9432C1264.5876,-864.8573 1297.3815,-846.0099 1324,-826 1371.4086,-790.3617 1420.1118,-741.2108 1447.9963,-711.6274"/>
<polygon fill="#b6ecf3" stroke="#b6ecf3" points="1450.6799,-713.882 1454.9572,-704.1889 1445.5688,-709.0991 1450.6799,-713.882"/>
</g>
<!-- shekels.server.server_tools&#45;&gt;shekels.server.app -->
<g id="edge13" class="edge">
<title>shekels.server.server_tools&#45;&gt;shekels.server.app</title>
<path fill="none" stroke="#b6ecf3" d="M1294.7123,-914.028C1378.2954,-925.3111 1501.6322,-927.488 1583,-864 1634.8878,-823.5141 1680.4462,-621.7083 1695.9006,-546.3998"/>
<polygon fill="#b6ecf3" stroke="#b6ecf3" points="1699.4034,-546.7368 1697.9595,-536.2409 1692.5429,-545.3464 1699.4034,-546.7368"/>
</g>
<!-- dash.dependencies -->
<g id="node10" class="node">
<title>dash.dependencies</title>
<polygon fill="#343434" stroke="#343434" points="1550,-620 1393,-620 1393,-584 1550,-584 1550,-620"/>
<text text-anchor="middle" x="1471.5" y="-598.3" font-family="Courier,monospace" font-size="14.00" fill="#de958e">dash.dependencies</text>
</g>
<!-- dash.dependencies&#45;&gt;shekels.server.app -->
<g id="edge14" class="edge">
<title>dash.dependencies&#45;&gt;shekels.server.app</title>
<path fill="none" stroke="#de958e" d="M1539.7732,-583.9761C1554.1641,-579.7401 1569.1722,-574.9928 1583,-570 1607.0216,-561.3266 1633.0757,-550.1026 1654.6205,-540.3034"/>
<polygon fill="#de958e" stroke="#de958e" points="1656.2391,-543.4116 1663.8679,-536.0595 1653.3194,-537.0496 1656.2391,-543.4116"/>
</g>
<!-- dash -->
<g id="node11" class="node">
<title>dash</title>
<polygon fill="#343434" stroke="#343434" points="973,-144 919,-144 919,-108 973,-108 973,-144"/>
<text text-anchor="middle" x="946" y="-122.3" font-family="Courier,monospace" font-size="14.00" fill="#de958e">dash</text>
</g>
<!-- dash&#45;&gt;shekels.server.app -->
<g id="edge15" class="edge">
<title>dash&#45;&gt;shekels.server.app</title>
<path fill="none" stroke="#de958e" d="M973.1429,-126.1196C996.2085,-127.6816 1028.717,-133.554 1049,-153 1088.2726,-190.6519 1044.2828,-233.9152 1085,-270 1165.7728,-341.5832 1218.8692,-288.5887 1324,-313 1440.6149,-340.0778 1481.3708,-323.7248 1583,-387 1626.4115,-414.0284 1663.5464,-461.4265 1684.1629,-491.1905"/>
<polygon fill="#de958e" stroke="#de958e" points="1681.5076,-493.5107 1690.0195,-499.8194 1687.2996,-489.5796 1681.5076,-493.5107"/>
</g>
<!-- dash&#45;&gt;shekels.server.components -->
<g id="edge16" class="edge">
<title>dash&#45;&gt;shekels.server.components</title>
<path fill="none" stroke="#de958e" d="M973.029,-125.7468C996.3438,-127.0374 1029.2839,-132.7208 1049,-153 1098.2995,-203.7074 1035.8345,-257.1627 1085,-308 1087.9815,-311.0829 1091.225,-313.8795 1094.6714,-316.4158"/>
<polygon fill="#de958e" stroke="#de958e" points="1092.7637,-319.3502 1103.0536,-321.8736 1096.5832,-313.4841 1092.7637,-319.3502"/>
</g>
<!-- shekels.server -->
<g id="node12" class="node">
<title>shekels.server</title>
<polygon fill="#343434" stroke="#343434" points="1012,-902 880,-902 880,-866 1012,-866 1012,-902"/>
<text text-anchor="middle" x="946" y="-880.3" font-family="Courier,monospace" font-size="14.00" fill="#a0d17b">shekels.server</text>
</g>
<!-- shekels.server&#45;&gt;shekels.server.api -->
<g id="edge17" class="edge">
<title>shekels.server&#45;&gt;shekels.server.api</title>
<path fill="none" stroke="#a0d17b" d="M1008.2178,-865.9581C1021.7621,-861.6733 1035.9427,-856.9107 1049,-852 1065.3884,-845.8365 1068.2632,-841.1428 1085,-836 1188.1671,-804.2993 1224.71,-835.3071 1324,-793 1370.8859,-773.0221 1417.1728,-735.8156 1445.0477,-710.9752"/>
<polygon fill="#a0d17b" stroke="#a0d17b" points="1447.6799,-713.3136 1452.7471,-704.0091 1442.9835,-708.1229 1447.6799,-713.3136"/>
</g>
<!-- shekels.server&#45;&gt;shekels.server.app -->
<g id="edge18" class="edge">
<title>shekels.server&#45;&gt;shekels.server.app</title>
<path fill="none" stroke="#a0d17b" d="M1012.1575,-876.3866C1104.4377,-865.3926 1266.898,-844.5729 1324,-828 1444.9566,-792.8944 1488.4198,-796.1715 1583,-713 1637.141,-665.3898 1674.1926,-586.9202 1691.0901,-545.5302"/>
<polygon fill="#a0d17b" stroke="#a0d17b" points="1694.403,-546.6716 1694.8571,-536.0865 1687.9012,-544.078 1694.403,-546.6716"/>
</g>
<!-- shekels.server&#45;&gt;shekels.server.components -->
<g id="edge19" class="edge">
<title>shekels.server&#45;&gt;shekels.server.components</title>
<path fill="none" stroke="#a0d17b" d="M953.2367,-865.8174C981.2238,-795.5136 1081.0135,-544.9833 1085,-537 1116.5491,-473.8201 1161.4143,-404.0941 1186.2265,-366.896"/>
<polygon fill="#a0d17b" stroke="#a0d17b" points="1189.4197,-368.4183 1192.0823,-358.1635 1183.6059,-364.5197 1189.4197,-368.4183"/>
</g>
<!-- shekels.server&#45;&gt;shekels.server.server_tools -->
<g id="edge20" class="edge">
<title>shekels.server&#45;&gt;shekels.server.server_tools</title>
<path fill="none" stroke="#a0d17b" d="M1012.2345,-887.0747C1031.4115,-887.9649 1053.0389,-888.9689 1074.6873,-889.9739"/>
<polygon fill="#a0d17b" stroke="#a0d17b" points="1074.8131,-893.4834 1084.9647,-890.451 1075.1378,-886.4909 1074.8131,-893.4834"/>
</g>
<!-- dash_core_components -->
<g id="node13" class="node">
<title>dash_core_components</title>
<polygon fill="#343434" stroke="#343434" points="1037,-90 855,-90 855,-54 1037,-54 1037,-90"/>
<text text-anchor="middle" x="946" y="-68.3" font-family="Courier,monospace" font-size="14.00" fill="#de958e">dash_core_components</text>
</g>
<!-- dash_core_components&#45;&gt;shekels.server.app -->
<g id="edge21" class="edge">
<title>dash_core_components&#45;&gt;shekels.server.app</title>
<path fill="none" stroke="#de958e" d="M1037.2983,-89.7238C1041.5149,-92.4107 1045.4566,-95.4848 1049,-99 1092.4743,-142.129 1039.4512,-191.0679 1085,-232 1125,-267.9457 1270.9843,-260.9762 1324,-270 1439.3323,-289.6308 1487.0284,-250.0943 1583,-317 1644.5044,-359.8772 1679.0159,-445.8185 1693.4167,-490.1429"/>
<polygon fill="#de958e" stroke="#de958e" points="1690.0837,-491.2114 1696.4192,-499.7033 1696.7621,-489.114 1690.0837,-491.2114"/>
</g>
<!-- dash_core_components&#45;&gt;shekels.server.components -->
<g id="edge22" class="edge">
<title>dash_core_components&#45;&gt;shekels.server.components</title>
<path fill="none" stroke="#de958e" d="M1037.0788,-89.1818C1041.4096,-92.0002 1045.4305,-95.2516 1049,-99 1102.5599,-155.2436 1039.6083,-206.9794 1085,-270 1100.0061,-290.8341 1123.2865,-306.4671 1145.3269,-317.6129"/>
<polygon fill="#de958e" stroke="#de958e" points="1143.8144,-320.7692 1154.3414,-321.9662 1146.8585,-314.4658 1143.8144,-320.7692"/>
</g>
<!-- shekels -->
<g id="node14" class="node">
<title>shekels</title>
<polygon fill="#343434" stroke="#343434" points="181.5,-848 107.5,-848 107.5,-812 181.5,-812 181.5,-848"/>
<text text-anchor="middle" x="144.5" y="-826.3" font-family="Courier,monospace" font-size="14.00" fill="#a0d17b">shekels</text>
</g>
<!-- shekels&#45;&gt;shekels.server -->
<g id="edge23" class="edge">
<title>shekels&#45;&gt;shekels.server</title>
<path fill="none" stroke="#a0d17b" d="M181.5568,-827.1359C213.6989,-826.7112 259.5641,-831.3446 289,-857 327.1425,-890.2438 283.954,-935.4157 325,-965 360.5499,-990.6229 746.5112,-991.2718 807,-960 831.0053,-947.5896 820.6473,-926.1864 843,-911 851.2571,-905.3901 860.6137,-900.9456 870.2385,-897.4243"/>
<polygon fill="#a0d17b" stroke="#a0d17b" points="871.5387,-900.6804 879.922,-894.2019 869.3284,-894.0385 871.5387,-900.6804"/>
</g>
<!-- shekels.enforce -->
<g id="node19" class="node">
<title>shekels.enforce</title>
<polygon fill="#343434" stroke="#343434" points="490,-339 350,-339 350,-303 490,-303 490,-339"/>
<text text-anchor="middle" x="420" y="-317.3" font-family="Courier,monospace" font-size="14.00" fill="#a0d17b">shekels.enforce</text>
</g>
<!-- shekels&#45;&gt;shekels.enforce -->
<g id="edge24" class="edge">
<title>shekels&#45;&gt;shekels.enforce</title>
<path fill="none" stroke="#a0d17b" d="M181.5053,-834.3817C214.7649,-836.0538 262.3554,-832.4105 289,-803 351.4478,-734.0697 278.1056,-466.3245 325,-386 335.296,-368.3642 352.5093,-354.4509 369.477,-344.0983"/>
<polygon fill="#a0d17b" stroke="#a0d17b" points="371.3808,-347.0406 378.2896,-339.0082 367.8797,-340.979 371.3808,-347.0406"/>
</g>
<!-- shekels.core -->
<g id="node21" class="node">
<title>shekels.core</title>
<polygon fill="#343434" stroke="#343434" points="478,-848 362,-848 362,-812 478,-812 478,-848"/>
<text text-anchor="middle" x="420" y="-826.3" font-family="Courier,monospace" font-size="14.00" fill="#a0d17b">shekels.core</text>
</g>
<!-- shekels&#45;&gt;shekels.core -->
<g id="edge25" class="edge">
<title>shekels&#45;&gt;shekels.core</title>
<path fill="none" stroke="#a0d17b" d="M181.6552,-830C225.1194,-830 297.9631,-830 351.7047,-830"/>
<polygon fill="#a0d17b" stroke="#a0d17b" points="351.8445,-833.5001 361.8445,-830 351.8444,-826.5001 351.8445,-833.5001"/>
</g>
<!-- dash_html_components -->
<g id="node15" class="node">
<title>dash_html_components</title>
<polygon fill="#343434" stroke="#343434" points="1037,-198 855,-198 855,-162 1037,-162 1037,-198"/>
<text text-anchor="middle" x="946" y="-176.3" font-family="Courier,monospace" font-size="14.00" fill="#de958e">dash_html_components</text>
</g>
<!-- dash_html_components&#45;&gt;shekels.server.components -->
<g id="edge26" class="edge">
<title>dash_html_components&#45;&gt;shekels.server.components</title>
<path fill="none" stroke="#de958e" d="M1029.0986,-198.1155C1036.3511,-201.8994 1043.1451,-206.4727 1049,-212 1082.1351,-243.2812 1051.2524,-277.3807 1085,-308 1088.6361,-311.299 1092.5756,-314.264 1096.7354,-316.9283"/>
<polygon fill="#de958e" stroke="#de958e" points="1095.1405,-320.0483 1105.5567,-321.9856 1098.6221,-313.9755 1095.1405,-320.0483"/>
</g>
<!-- dash.exceptions -->
<g id="node16" class="node">
<title>dash.exceptions</title>
<polygon fill="#343434" stroke="#343434" points="1016,-1102 876,-1102 876,-1066 1016,-1066 1016,-1102"/>
<text text-anchor="middle" x="946" y="-1080.3" font-family="Courier,monospace" font-size="14.00" fill="#de958e">dash.exceptions</text>
</g>
<!-- dash.exceptions&#45;&gt;shekels.server.server_tools -->
<g id="edge27" class="edge">
<title>dash.exceptions&#45;&gt;shekels.server.server_tools</title>
<path fill="none" stroke="#de958e" d="M1016.1464,-1067.2729C1027.5435,-1063.1458 1038.9068,-1058.1067 1049,-1052 1106.4582,-1017.2357 1158.2619,-956.7544 1185.1291,-922.2002"/>
<polygon fill="#de958e" stroke="#de958e" points="1188.1049,-924.0712 1191.4108,-914.0053 1182.5493,-919.8126 1188.1049,-924.0712"/>
</g>
<!-- dash_table -->
<g id="node17" class="node">
<title>dash_table</title>
<polygon fill="#343434" stroke="#343434" points="995.5,-36 896.5,-36 896.5,0 995.5,0 995.5,-36"/>
<text text-anchor="middle" x="946" y="-14.3" font-family="Courier,monospace" font-size="14.00" fill="#de958e">dash_table</text>
</g>
<!-- dash_table&#45;&gt;shekels.server.app -->
<g id="edge28" class="edge">
<title>dash_table&#45;&gt;shekels.server.app</title>
<path fill="none" stroke="#de958e" d="M995.6231,-28.8377C1012.7671,-33.1503 1031.9461,-38.6183 1049,-45 1193.4572,-99.0568 1217.111,-140.9247 1360,-199 1456.4843,-238.2147 1504.5554,-202.4912 1583,-271 1651.3936,-330.7309 1683.6824,-438.7482 1695.6791,-489.8081"/>
<polygon fill="#de958e" stroke="#de958e" points="1692.319,-490.8184 1697.9367,-499.8013 1699.147,-489.2758 1692.319,-490.8184"/>
</g>
<!-- dash_table&#45;&gt;shekels.server.components -->
<g id="edge29" class="edge">
<title>dash_table&#45;&gt;shekels.server.components</title>
<path fill="none" stroke="#de958e" d="M995.5276,-19.9766C1014.7043,-23.2748 1035.2942,-30.3558 1049,-45 1106.8348,-106.7948 1043.4573,-158.2595 1085,-232 1104.6925,-266.9552 1139.8462,-296.6519 1166.9457,-316.005"/>
<polygon fill="#de958e" stroke="#de958e" points="1165.2259,-319.0726 1175.4314,-321.9186 1169.2282,-313.3296 1165.2259,-319.0726"/>
</g>
<!-- flask -->
<g id="node18" class="node">
<title>flask</title>
<polygon fill="#343434" stroke="#343434" points="975,-616 917,-616 917,-580 975,-580 975,-616"/>
<text text-anchor="middle" x="946" y="-594.3" font-family="Courier,monospace" font-size="14.00" fill="#de958e">flask</text>
</g>
<!-- flask&#45;&gt;shekels.server.api -->
<g id="edge30" class="edge">
<title>flask&#45;&gt;shekels.server.api</title>
<path fill="none" stroke="#de958e" d="M975.3026,-598.3698C1039.3302,-599.7029 1196.2122,-605.8338 1324,-634 1356.4955,-641.1624 1391.681,-653.3841 1419.5342,-664.1796"/>
<polygon fill="#de958e" stroke="#de958e" points="1418.4768,-667.5247 1429.064,-667.9281 1421.0391,-661.0105 1418.4768,-667.5247"/>
</g>
<!-- flask&#45;&gt;shekels.server.app -->
<g id="edge31" class="edge">
<title>flask&#45;&gt;shekels.server.app</title>
<path fill="none" stroke="#de958e" d="M975.1948,-589.6025C996.2551,-583.0487 1025.0709,-573.048 1049,-561 1066.1754,-552.3523 1066.6835,-542.8553 1085,-537 1179.5641,-506.7704 1460.576,-510.3643 1608.3302,-514.6434"/>
<polygon fill="#de958e" stroke="#de958e" points="1608.6343,-518.1539 1618.7338,-514.9522 1608.842,-511.157 1608.6343,-518.1539"/>
</g>
<!-- flask&#45;&gt;shekels.server.components -->
<g id="edge32" class="edge">
<title>flask&#45;&gt;shekels.server.components</title>
<path fill="none" stroke="#de958e" d="M975.108,-592.1531C997.2094,-586.5662 1027.3824,-576.36 1049,-559 1071.7794,-540.7071 1068.3923,-528.0357 1085,-504 1119.0095,-454.7793 1160.4849,-398.6912 1184.5543,-366.5074"/>
<polygon fill="#de958e" stroke="#de958e" points="1187.378,-368.5759 1190.5723,-358.4741 1181.7756,-364.3791 1187.378,-368.5759"/>
</g>
<!-- flask&#45;&gt;shekels.server.server_tools -->
<g id="edge33" class="edge">
<title>flask&#45;&gt;shekels.server.server_tools</title>
<path fill="none" stroke="#de958e" d="M956.7782,-616.0097C978.5843,-651.7294 1030.5141,-733.2499 1085,-793 1111.861,-822.4562 1146.806,-851.7119 1171.9602,-871.4738"/>
<polygon fill="#de958e" stroke="#de958e" points="1170.0477,-874.4203 1180.0897,-877.7982 1174.346,-868.8953 1170.0477,-874.4203"/>
</g>
<!-- shekels.enforce&#45;&gt;shekels.enforce.enforce_tools -->
<g id="edge34" class="edge">
<title>shekels.enforce&#45;&gt;shekels.enforce.enforce_tools</title>
<path fill="none" stroke="#a0d17b" d="M490.0891,-313.6934C505.8686,-312.0484 523.1505,-310.2469 540.649,-308.4227"/>
<polygon fill="#a0d17b" stroke="#a0d17b" points="541.384,-311.8651 550.9672,-307.3471 540.6581,-304.9029 541.384,-311.8651"/>
</g>
<!-- numpy -->
<g id="node20" class="node">
<title>numpy</title>
<polygon fill="#343434" stroke="#343434" points="708,-734 650,-734 650,-698 708,-698 708,-734"/>
<text text-anchor="middle" x="679" y="-712.3" font-family="Courier,monospace" font-size="14.00" fill="#de958e">numpy</text>
</g>
<!-- numpy&#45;&gt;shekels.core.data_tools -->
<g id="edge35" class="edge">
<title>numpy&#45;&gt;shekels.core.data_tools</title>
<path fill="none" stroke="#de958e" d="M708.0308,-718.2002C737.0293,-718.7133 780.9369,-714.646 807,-689 858.3364,-638.4853 795.0089,-584.7031 843,-531 847.3488,-526.1336 852.3926,-521.9251 857.8656,-518.2854"/>
<polygon fill="#de958e" stroke="#de958e" points="859.9495,-521.1196 866.7811,-513.0214 856.3905,-515.0918 859.9495,-521.1196"/>
</g>
<!-- numpy&#45;&gt;shekels.core.database -->
<g id="edge36" class="edge">
<title>numpy&#45;&gt;shekels.core.database</title>
<path fill="none" stroke="#de958e" d="M708.2855,-718.2428C770.8772,-723.1 922.3059,-735.1913 1049,-748 1065.122,-749.6299 1082.1694,-751.477 1098.8367,-753.3518"/>
<polygon fill="#de958e" stroke="#de958e" points="1098.8231,-756.8726 1109.1536,-754.5209 1099.6114,-749.9171 1098.8231,-756.8726"/>
</g>
<!-- shekels.core&#45;&gt;shekels.core.config -->
<g id="edge37" class="edge">
<title>shekels.core&#45;&gt;shekels.core.config</title>
<path fill="none" stroke="#a0d17b" d="M478.1902,-845.1299C490.4502,-848.7093 503.2317,-852.7367 515,-857 531.4621,-862.9638 534.3419,-867.6078 551,-873 561.0913,-876.2666 571.7608,-879.2399 582.4615,-881.9183"/>
<polygon fill="#a0d17b" stroke="#a0d17b" points="581.7391,-885.3444 592.2819,-884.295 583.3858,-878.5408 581.7391,-885.3444"/>
</g>
<!-- shekels.core&#45;&gt;shekels.core.data_tools -->
<g id="edge38" class="edge">
<title>shekels.core&#45;&gt;shekels.core.data_tools</title>
<path fill="none" stroke="#a0d17b" d="M431.0074,-811.8733C459.2377,-765.6479 533.2414,-646.2157 551,-635 648.2525,-573.5787 712.6813,-662.8377 807,-597 834.3985,-577.8749 817.5271,-552.6235 843,-531 849.0924,-525.8283 855.9739,-521.3835 863.2192,-517.5664"/>
<polygon fill="#a0d17b" stroke="#a0d17b" points="865.0737,-520.5578 872.559,-513.0597 862.0316,-514.2533 865.0737,-520.5578"/>
</g>
<!-- shekels.core&#45;&gt;shekels.core.database -->
<g id="edge39" class="edge">
<title>shekels.core&#45;&gt;shekels.core.database</title>
<path fill="none" stroke="#a0d17b" d="M478.4157,-838.5627C491.4635,-842.5587 504.5216,-848.416 515,-857 542.0627,-879.1701 521.1366,-908.777 551,-927 599.5617,-956.6328 758.4383,-956.6328 807,-927 836.8634,-908.777 815.0677,-878.0639 843,-857 917.5339,-800.7935 963.7612,-854.0634 1049,-816 1067.2619,-807.8451 1066.7124,-797.0971 1085,-789 1089.7089,-786.9151 1094.6044,-785.0187 1099.6083,-783.2938"/>
<polygon fill="#a0d17b" stroke="#a0d17b" points="1100.8836,-786.5607 1109.3444,-780.1836 1098.7535,-779.8927 1100.8836,-786.5607"/>
</g>
<!-- schematics.models -->
<g id="node22" class="node">
<title>schematics.models</title>
<polygon fill="#343434" stroke="#343434" points="498.5,-956 341.5,-956 341.5,-920 498.5,-920 498.5,-956"/>
<text text-anchor="middle" x="420" y="-934.3" font-family="Courier,monospace" font-size="14.00" fill="#de958e">schematics.models</text>
</g>
<!-- schematics.models&#45;&gt;shekels.core.config -->
<g id="edge40" class="edge">
<title>schematics.models&#45;&gt;shekels.core.config</title>
<path fill="none" stroke="#de958e" d="M498.7634,-926.444C525.1406,-922.574 554.8536,-918.2145 582.4322,-914.1683"/>
<polygon fill="#de958e" stroke="#de958e" points="583.1,-917.6078 592.486,-912.6932 582.0838,-910.682 583.1,-917.6078"/>
</g>
<!-- cufflinks -->
<g id="node23" class="node">
<title>cufflinks</title>
<polygon fill="#343434" stroke="#343434" points="724.5,-496 633.5,-496 633.5,-460 724.5,-460 724.5,-496"/>
<text text-anchor="middle" x="679" y="-474.3" font-family="Courier,monospace" font-size="14.00" fill="#de958e">cufflinks</text>
</g>
<!-- cufflinks&#45;&gt;shekels.core.data_tools -->
<g id="edge41" class="edge">
<title>cufflinks&#45;&gt;shekels.core.data_tools</title>
<path fill="none" stroke="#de958e" d="M724.5956,-480.9031C754.4014,-482.8008 794.7311,-485.3686 832.8046,-487.7928"/>
<polygon fill="#de958e" stroke="#de958e" points="832.7462,-491.2961 842.9484,-488.4387 833.191,-484.3102 832.7462,-491.2961"/>
</g>
<!-- pandasql -->
<g id="node24" class="node">
<title>pandasql</title>
<polygon fill="#343434" stroke="#343434" points="720.5,-680 637.5,-680 637.5,-644 720.5,-644 720.5,-680"/>
<text text-anchor="middle" x="679" y="-658.3" font-family="Courier,monospace" font-size="14.00" fill="#de958e">pandasql</text>
</g>
<!-- pandasql&#45;&gt;shekels.core.data_tools -->
<g id="edge42" class="edge">
<title>pandasql&#45;&gt;shekels.core.data_tools</title>
<path fill="none" stroke="#de958e" d="M720.5485,-661.3599C748.1578,-658.8079 783.5186,-651.1624 807,-630 841.7786,-598.656 809.6874,-563.8979 843,-531 848.1428,-525.9213 854.0407,-521.5567 860.3543,-517.8063"/>
<polygon fill="#de958e" stroke="#de958e" points="862.0344,-520.8769 869.1898,-513.0634 858.7236,-514.7094 862.0344,-520.8769"/>
</g>
<!-- pandasql&#45;&gt;shekels.server.api -->
<g id="edge43" class="edge">
<title>pandasql&#45;&gt;shekels.server.api</title>
<path fill="none" stroke="#de958e" d="M720.7702,-663.265C843.7033,-666.9879 1206.3808,-677.9712 1378.6364,-683.1877"/>
<polygon fill="#de958e" stroke="#de958e" points="1378.5991,-686.6881 1388.7005,-683.4925 1378.8111,-679.6913 1378.5991,-686.6881"/>
</g>
<!-- schematics.exceptions -->
<g id="node25" class="node">
<title>schematics.exceptions</title>
<polygon fill="#343434" stroke="#343434" points="515,-668 325,-668 325,-632 515,-632 515,-668"/>
<text text-anchor="middle" x="420" y="-646.3" font-family="Courier,monospace" font-size="14.00" fill="#de958e">schematics.exceptions</text>
</g>
<!-- schematics.exceptions&#45;&gt;shekels.core.config -->
<g id="edge44" class="edge">
<title>schematics.exceptions&#45;&gt;shekels.core.config</title>
<path fill="none" stroke="#de958e" d="M431.8902,-668.0828C450.3731,-696.4229 486.8018,-753.2134 515,-803 532.2411,-833.4408 523.1885,-851.7768 551,-873 560.4505,-880.2118 571.3877,-885.6032 582.8085,-889.6172"/>
<polygon fill="#de958e" stroke="#de958e" points="581.9039,-893.0018 592.4937,-892.6746 584.0112,-886.3265 581.9039,-893.0018"/>
</g>
<!-- schematics.exceptions&#45;&gt;shekels.core.data_tools -->
<g id="edge45" class="edge">
<title>schematics.exceptions&#45;&gt;shekels.core.data_tools</title>
<path fill="none" stroke="#de958e" d="M435.6814,-631.9612C458.3651,-607.2194 502.9152,-563.4952 551,-543 576.4718,-532.1432 724.9689,-516.0582 832.4036,-505.5521"/>
<polygon fill="#de958e" stroke="#de958e" points="833.0529,-509.0055 842.6668,-504.5531 832.3747,-502.0384 833.0529,-509.0055"/>
</g>
<!-- schematics.exceptions&#45;&gt;shekels.server.api -->
<g id="edge46" class="edge">
<title>schematics.exceptions&#45;&gt;shekels.server.api</title>
<path fill="none" stroke="#de958e" d="M437.8847,-668.366C461.3651,-691.0233 505.0283,-728.341 551,-743 703.0776,-791.493 1176.6391,-729.873 1378.663,-700.2459"/>
<polygon fill="#de958e" stroke="#de958e" points="1379.2763,-703.6934 1388.6595,-698.7734 1378.2562,-696.7681 1379.2763,-703.6934"/>
</g>
<!-- schematics.exceptions&#45;&gt;shekels.server.components -->
<g id="edge47" class="edge">
<title>schematics.exceptions&#45;&gt;shekels.server.components</title>
<path fill="none" stroke="#de958e" d="M428.3003,-631.7599C444.8615,-595.3427 483.1555,-511.0171 515,-440 531.1189,-404.0531 518.2827,-380.9449 551,-359 593.8528,-330.2568 905.5634,-332.7612 1082.5531,-336.6238"/>
<polygon fill="#de958e" stroke="#de958e" points="1082.6298,-340.1263 1092.7054,-336.8501 1082.7859,-333.128 1082.6298,-340.1263"/>
</g>
<!-- lunchbox.enforce -->
<g id="node26" class="node">
<title>lunchbox.enforce</title>
<polygon fill="#343434" stroke="#343434" points="494.5,-266 345.5,-266 345.5,-230 494.5,-230 494.5,-266"/>
<text text-anchor="middle" x="420" y="-244.3" font-family="Courier,monospace" font-size="14.00" fill="#de958e">lunchbox.enforce</text>
</g>
<!-- lunchbox.enforce&#45;&gt;shekels.core.data_tools -->
<g id="edge48" class="edge">
<title>lunchbox.enforce&#45;&gt;shekels.core.data_tools</title>
<path fill="none" stroke="#de958e" d="M494.8495,-243.5471C592.2765,-239.1189 756.1111,-236.7591 807,-267 816.9776,-272.9292 896.4239,-409.1381 930.5321,-468.1452"/>
<polygon fill="#de958e" stroke="#de958e" points="927.5679,-470.011 935.5994,-476.9208 933.6299,-466.5107 927.5679,-470.011"/>
</g>
<!-- lunchbox.enforce&#45;&gt;shekels.enforce.enforce_tools -->
<g id="edge49" class="edge">
<title>lunchbox.enforce&#45;&gt;shekels.enforce.enforce_tools</title>
<path fill="none" stroke="#de958e" d="M494.5661,-261.2434C517.2887,-265.2791 542.7811,-269.8067 567.3943,-274.1781"/>
<polygon fill="#de958e" stroke="#de958e" points="567.0501,-277.6717 577.5081,-275.9744 568.2743,-270.7796 567.0501,-277.6717"/>
</g>
<!-- lunchbox.enforce&#45;&gt;shekels.server.components -->
<g id="edge50" class="edge">
<title>lunchbox.enforce&#45;&gt;shekels.server.components</title>
<path fill="none" stroke="#de958e" d="M435.9802,-229.7652C458.681,-205.4007 502.8859,-163.3944 551,-147 658.6974,-110.3033 707.9906,-90.9418 807,-147 834.0618,-162.3221 817.2391,-189.5791 843,-207 919.8085,-258.9421 973.6088,-186.0214 1049,-240 1076.8043,-259.9074 1058.2552,-286.6904 1085,-308 1089.3569,-311.4714 1094.0576,-314.5679 1098.9877,-317.3298"/>
<polygon fill="#de958e" stroke="#de958e" points="1097.584,-320.5423 1108.0851,-321.9485 1100.7529,-314.3007 1097.584,-320.5423"/>
</g>
<!-- lunchbox.tools -->
<g id="node27" class="node">
<title>lunchbox.tools</title>
<polygon fill="#343434" stroke="#343434" points="745,-864 613,-864 613,-828 745,-828 745,-864"/>
<text text-anchor="middle" x="679" y="-842.3" font-family="Courier,monospace" font-size="14.00" fill="#de958e">lunchbox.tools</text>
</g>
<!-- lunchbox.tools&#45;&gt;shekels.core.data_tools -->
<g id="edge51" class="edge">
<title>lunchbox.tools&#45;&gt;shekels.core.data_tools</title>
<path fill="none" stroke="#de958e" d="M713.4701,-827.8468C743.2341,-810.2702 784.8393,-780.7612 807,-743 855.3725,-660.5747 781.3306,-604.0117 843,-531 847.091,-526.1566 851.8727,-521.9644 857.0948,-518.3357"/>
<polygon fill="#de958e" stroke="#de958e" points="858.945,-521.3068 865.6272,-513.0849 855.2763,-515.3452 858.945,-521.3068"/>
</g>
<!-- lunchbox.tools&#45;&gt;shekels.server.server_tools -->
<g id="edge52" class="edge">
<title>lunchbox.tools&#45;&gt;shekels.server.server_tools</title>
<path fill="none" stroke="#de958e" d="M745.1431,-846.224C767.3368,-849.5666 790.5895,-857.136 807,-873 855.051,-919.4508 790.3888,-977.7856 843,-1019 915.0736,-1075.4607 962.5224,-1049.0672 1049,-1019 1104.2133,-999.803 1154.6028,-951.9474 1182.2708,-921.9039"/>
<polygon fill="#de958e" stroke="#de958e" points="1185.025,-924.0764 1189.1311,-914.3096 1179.8305,-919.384 1185.025,-924.0764"/>
</g>
<!-- schematics.types -->
<g id="node28" class="node">
<title>schematics.types</title>
<polygon fill="#343434" stroke="#343434" points="494.5,-902 345.5,-902 345.5,-866 494.5,-866 494.5,-902"/>
<text text-anchor="middle" x="420" y="-880.3" font-family="Courier,monospace" font-size="14.00" fill="#de958e">schematics.types</text>
</g>
<!-- schematics.types&#45;&gt;shekels.core.config -->
<g id="edge53" class="edge">
<title>schematics.types&#45;&gt;shekels.core.config</title>
<path fill="none" stroke="#de958e" d="M494.5661,-888.6064C521.8367,-890.2911 553.0969,-892.2222 582.0386,-894.0101"/>
<polygon fill="#de958e" stroke="#de958e" points="581.9718,-897.5126 592.1686,-894.6359 582.4035,-890.5259 581.9718,-897.5126"/>
</g>
<!-- pyparsing -->
<g id="node29" class="node">
<title>pyparsing</title>
<polygon fill="#343434" stroke="#343434" points="724.5,-404 633.5,-404 633.5,-368 724.5,-368 724.5,-404"/>
<text text-anchor="middle" x="679" y="-382.3" font-family="Courier,monospace" font-size="14.00" fill="#de958e">pyparsing</text>
</g>
<!-- pyparsing&#45;&gt;shekels.core.data_tools -->
<g id="edge54" class="edge">
<title>pyparsing&#45;&gt;shekels.core.data_tools</title>
<path fill="none" stroke="#de958e" d="M724.6223,-394.3788C749.4687,-399.6888 780.4681,-407.5432 807,-418 843.5487,-432.4046 882.4463,-454.6095 909.7705,-471.4796"/>
<polygon fill="#de958e" stroke="#de958e" points="908.2374,-474.6486 918.5732,-476.9772 911.9455,-468.7114 908.2374,-474.6486"/>
</g>
<!-- pandas -->
<g id="node30" class="node">
<title>pandas</title>
<polygon fill="#343434" stroke="#343434" points="453,-431 387,-431 387,-395 453,-395 453,-431"/>
<text text-anchor="middle" x="420" y="-409.3" font-family="Courier,monospace" font-size="14.00" fill="#de958e">pandas</text>
</g>
<!-- pandas&#45;&gt;shekels.core.data_tools -->
<g id="edge55" class="edge">
<title>pandas&#45;&gt;shekels.core.data_tools</title>
<path fill="none" stroke="#de958e" d="M453.2216,-413.9315C520.5949,-416.3302 677.8716,-424.5255 807,-451 834.1442,-456.5652 863.4905,-465.4164 888.1922,-473.7258"/>
<polygon fill="#de958e" stroke="#de958e" points="887.1731,-477.0762 897.7676,-476.9972 889.4362,-470.4521 887.1731,-477.0762"/>
</g>
<!-- pandas&#45;&gt;shekels.core.database -->
<g id="edge56" class="edge">
<title>pandas&#45;&gt;shekels.core.database</title>
<path fill="none" stroke="#de958e" d="M429.2292,-431.1929C447.2625,-467.1852 487.7879,-550.2959 515,-623 534.5185,-675.1486 506.9186,-708.9813 551,-743 593.2145,-775.5779 925.4611,-772.7255 1099.2837,-768.901"/>
<polygon fill="#de958e" stroke="#de958e" points="1099.5607,-772.3957 1109.4794,-768.6715 1099.4031,-765.3975 1099.5607,-772.3957"/>
</g>
<!-- pandas&#45;&gt;shekels.enforce.enforce_tools -->
<g id="edge57" class="edge">
<title>pandas&#45;&gt;shekels.enforce.enforce_tools</title>
<path fill="none" stroke="#de958e" d="M446.2724,-394.8553C481.2246,-370.8248 539.9162,-330.8914 551,-326 560.2903,-321.9 570.2015,-318.2605 580.2399,-315.0447"/>
<polygon fill="#de958e" stroke="#de958e" points="581.3505,-318.3652 589.8873,-312.0903 579.3007,-311.672 581.3505,-318.3652"/>
</g>
<!-- pandas&#45;&gt;shekels.server.components -->
<g id="edge58" class="edge">
<title>pandas&#45;&gt;shekels.server.components</title>
<path fill="none" stroke="#de958e" d="M453.1157,-398.4499C474.0558,-387.5459 499.9252,-370.6145 515,-348 558.5608,-282.652 490.0719,-224.5546 551,-175 595.1343,-139.1042 757.988,-146.118 807,-175 835.4513,-191.7659 816.1941,-220.7125 843,-240 918.5711,-294.3753 964.7111,-238.4649 1049,-278 1067.8562,-286.8444 1066.5089,-298.4158 1085,-308 1092.6892,-311.9854 1100.9209,-315.5092 1109.3336,-318.618"/>
<polygon fill="#de958e" stroke="#de958e" points="1108.2946,-321.9624 1118.8894,-321.9541 1110.6019,-315.3535 1108.2946,-321.9624"/>
</g>
<!-- rolling_pin.blob_etl -->
<g id="node31" class="node">
<title>rolling_pin.blob_etl</title>
<polygon fill="#343434" stroke="#343434" points="770,-220 588,-220 588,-184 770,-184 770,-220"/>
<text text-anchor="middle" x="679" y="-198.3" font-family="Courier,monospace" font-size="14.00" fill="#de958e">rolling_pin.blob_etl</text>
</g>
<!-- rolling_pin.blob_etl&#45;&gt;shekels.core.data_tools -->
<g id="edge59" class="edge">
<title>rolling_pin.blob_etl&#45;&gt;shekels.core.data_tools</title>
<path fill="none" stroke="#de958e" d="M770.0749,-213.7274C783.4658,-218.4529 796.3224,-224.9874 807,-234 837.4155,-259.6729 825.0481,-280.4764 843,-316 870.9822,-371.3718 908.1948,-433.67 929.3753,-468.233"/>
<polygon fill="#de958e" stroke="#de958e" points="926.4306,-470.1261 934.6514,-476.8096 932.3928,-466.4583 926.4306,-470.1261"/>
</g>
<!-- rolling_pin.blob_etl&#45;&gt;shekels.server.components -->
<g id="edge60" class="edge">
<title>rolling_pin.blob_etl&#45;&gt;shekels.server.components</title>
<path fill="none" stroke="#de958e" d="M770.1294,-217.0505C783.0727,-221.3536 795.7793,-226.8864 807,-234 828.3399,-247.5288 821.1671,-265.2821 843,-278 883.0003,-301.3006 994.1739,-318.1333 1082.7714,-328.329"/>
<polygon fill="#de958e" stroke="#de958e" points="1082.5783,-331.8294 1092.909,-329.4782 1083.3669,-324.874 1082.5783,-331.8294"/>
</g>
<!-- webcolors -->
<g id="node32" class="node">
<title>webcolors</title>
<polygon fill="#343434" stroke="#343434" points="724.5,-588 633.5,-588 633.5,-552 724.5,-552 724.5,-588"/>
<text text-anchor="middle" x="679" y="-566.3" font-family="Courier,monospace" font-size="14.00" fill="#de958e">webcolors</text>
</g>
<!-- webcolors&#45;&gt;shekels.core.data_tools -->
<g id="edge61" class="edge">
<title>webcolors&#45;&gt;shekels.core.data_tools</title>
<path fill="none" stroke="#de958e" d="M724.7759,-559.2031C749.2562,-553.2662 779.865,-545.5828 807,-538 831.0545,-531.278 857.263,-523.334 880.3734,-516.1147"/>
<polygon fill="#de958e" stroke="#de958e" points="881.5796,-519.4045 890.0728,-513.0708 879.4836,-512.7257 881.5796,-519.4045"/>
</g>
<!-- jsoncomment -->
<g id="node33" class="node">
<title>jsoncomment</title>
<polygon fill="#343434" stroke="#343434" points="999.5,-956 892.5,-956 892.5,-920 999.5,-920 999.5,-956"/>
<text text-anchor="middle" x="946" y="-934.3" font-family="Courier,monospace" font-size="14.00" fill="#de958e">jsoncomment</text>
</g>
<!-- jsoncomment&#45;&gt;shekels.core.database -->
<g id="edge62" class="edge">
<title>jsoncomment&#45;&gt;shekels.core.database</title>
<path fill="none" stroke="#de958e" d="M999.5764,-930.3875C1016.2814,-926.3736 1034.1922,-920.2687 1049,-911 1069.8397,-897.9558 1067.6394,-886.4084 1085,-869 1113.4972,-840.4243 1148.7775,-810.6218 1173.5924,-790.4711"/>
<polygon fill="#de958e" stroke="#de958e" points="1175.9982,-793.0272 1181.5818,-784.023 1171.6019,-787.5799 1175.9982,-793.0272"/>
</g>
<!-- jsoncomment&#45;&gt;shekels.server.app -->
<g id="edge63" class="edge">
<title>jsoncomment&#45;&gt;shekels.server.app</title>
<path fill="none" stroke="#de958e" d="M999.6736,-942.9614C1136.4756,-954.4395 1493.7097,-976.7351 1583,-906 1641.1197,-859.958 1683.7944,-627.1987 1697.1162,-545.9967"/>
<polygon fill="#de958e" stroke="#de958e" points="1700.5904,-546.437 1698.7318,-536.0064 1693.6801,-545.3194 1700.5904,-546.437"/>
</g>
<!-- jsoncomment&#45;&gt;shekels.server.server_tools -->
<g id="edge64" class="edge">
<title>jsoncomment&#45;&gt;shekels.server.server_tools</title>
<path fill="none" stroke="#de958e" d="M999.5614,-929.2976C1024.0748,-925.3147 1054.1965,-920.4207 1083.7256,-915.6229"/>
<polygon fill="#de958e" stroke="#de958e" points="1084.399,-919.0595 1093.7082,-914.001 1083.2763,-912.1501 1084.399,-919.0595"/>
</g>
<!-- jinja2 -->
<g id="node34" class="node">
<title>jinja2</title>
<polygon fill="#343434" stroke="#343434" points="979,-1010 913,-1010 913,-974 979,-974 979,-1010"/>
<text text-anchor="middle" x="946" y="-988.3" font-family="Courier,monospace" font-size="14.00" fill="#de958e">jinja2</text>
</g>
<!-- jinja2&#45;&gt;shekels.server.server_tools -->
<g id="edge65" class="edge">
<title>jinja2&#45;&gt;shekels.server.server_tools</title>
<path fill="none" stroke="#de958e" d="M979.3429,-984.7019C999.7098,-979.8899 1026.1453,-973.0074 1049,-965 1087.0171,-951.6803 1128.6637,-932.9677 1159.2812,-918.3895"/>
<polygon fill="#de958e" stroke="#de958e" points="1160.9108,-921.4897 1168.4129,-914.0085 1157.8828,-915.1785 1160.9108,-921.4897"/>
</g>
<!-- flasgger -->
<g id="node35" class="node">
<title>flasgger</title>
<polygon fill="#343434" stroke="#343434" points="1246,-582 1163,-582 1163,-546 1246,-546 1246,-582"/>
<text text-anchor="middle" x="1204.5" y="-560.3" font-family="Courier,monospace" font-size="14.00" fill="#de958e">flasgger</text>
</g>
<!-- flasgger&#45;&gt;shekels.server.api -->
<g id="edge66" class="edge">
<title>flasgger&#45;&gt;shekels.server.api</title>
<path fill="none" stroke="#de958e" d="M1246.1734,-570.0825C1270.0229,-574.7767 1299.8979,-582.7767 1324,-596 1343.0293,-606.4402 1342.1755,-616.6146 1360,-629 1378.8034,-642.0655 1401.0071,-654.0282 1420.6308,-663.5839"/>
<polygon fill="#de958e" stroke="#de958e" points="1419.2047,-666.7816 1429.7363,-667.9377 1422.2244,-660.4663 1419.2047,-666.7816"/>
</g>
<!-- flasgger&#45;&gt;shekels.server.app -->
<g id="edge67" class="edge">
<title>flasgger&#45;&gt;shekels.server.app</title>
<path fill="none" stroke="#de958e" d="M1246.2682,-560.9252C1316.0659,-555.6845 1460.8007,-544.3807 1583,-532 1591.3698,-531.152 1600.0661,-530.2208 1608.7746,-529.254"/>
<polygon fill="#de958e" stroke="#de958e" points="1609.4384,-532.7015 1618.9845,-528.1057 1608.656,-525.7454 1609.4384,-532.7015"/>
</g>
<!-- flask_caching -->
<g id="node36" class="node">
<title>flask_caching</title>
<polygon fill="#343434" stroke="#343434" points="1533.5,-190 1409.5,-190 1409.5,-154 1533.5,-154 1533.5,-190"/>
<text text-anchor="middle" x="1471.5" y="-168.3" font-family="Courier,monospace" font-size="14.00" fill="#de958e">flask_caching</text>
</g>
<!-- flask_caching&#45;&gt;shekels.server.app -->
<g id="edge68" class="edge">
<title>flask_caching&#45;&gt;shekels.server.app</title>
<path fill="none" stroke="#de958e" d="M1533.6661,-179.1876C1551.3429,-183.8614 1569.4507,-191.5108 1583,-204 1668.0757,-282.4195 1692.4676,-428.1134 1699.1296,-489.5285"/>
<polygon fill="#de958e" stroke="#de958e" points="1695.664,-490.047 1700.1472,-499.6465 1702.6289,-489.3465 1695.664,-490.047"/>
</g>
<!-- flask_monitoringdashboard -->
<g id="node37" class="node">
<title>flask_monitoringdashboard</title>
<polygon fill="#343434" stroke="#343434" points="1583,-136 1360,-136 1360,-100 1583,-100 1583,-136"/>
<text text-anchor="middle" x="1471.5" y="-114.3" font-family="Courier,monospace" font-size="14.00" fill="#de958e">flask_monitoringdashboard</text>
</g>
<!-- flask_monitoringdashboard&#45;&gt;shekels.server.app -->
<g id="edge69" class="edge">
<title>flask_monitoringdashboard&#45;&gt;shekels.server.app</title>
<path fill="none" stroke="#de958e" d="M1571.3757,-136.1421C1575.5236,-138.7345 1579.4309,-141.6724 1583,-145 1634.8559,-193.3458 1680.9129,-410.7329 1696.1666,-489.4389"/>
<polygon fill="#de958e" stroke="#de958e" points="1692.7926,-490.4295 1698.1119,-499.5923 1699.6676,-489.1123 1692.7926,-490.4295"/>
</g>
<!-- filelock -->
<g id="node38" class="node">
<title>filelock</title>
<polygon fill="#343434" stroke="#343434" points="186,-902 103,-902 103,-866 186,-866 186,-902"/>
<text text-anchor="middle" x="144.5" y="-880.3" font-family="Courier,monospace" font-size="14.00" fill="#de958e">filelock</text>
</g>
<!-- selenium.webdriver.chrome.options -->
<g id="node39" class="node">
<title>selenium.webdriver.chrome.options</title>
<polygon fill="#343434" stroke="#343434" points="289,-956 0,-956 0,-920 289,-920 289,-956"/>
<text text-anchor="middle" x="144.5" y="-934.3" font-family="Courier,monospace" font-size="14.00" fill="#de958e">selenium.webdriver.chrome.options</text>
</g>
</g>
</svg>
