<?xml version="1.0" encoding="UTF-8" standalone="no"?>
<!DOCTYPE svg PUBLIC "-//W3C//DTD SVG 1.1//EN"
 "http://www.w3.org/Graphics/SVG/1.1/DTD/svg11.dtd">
<!-- Generated by graphviz version 2.40.1 (20161225.0304)
 -->
<!-- Title: %3 Pages: 1 -->
<svg width="1734pt" height="1186pt"
 viewBox="0.00 0.00 1734.00 1186.00" xmlns="http://www.w3.org/2000/svg" xmlns:xlink="http://www.w3.org/1999/xlink">
<g id="graph0" class="graph" transform="scale(1 1) rotate(0) translate(4 1182)">
<title>%3</title>
<polygon fill="#242424" stroke="transparent" points="-4,4 -4,-1182 1730,-1182 1730,4 -4,4"/>
<!-- cli -->
<g id="node1" class="node">
<title>cli</title>
<polygon fill="#343434" stroke="#343434" points="171.5,-864 117.5,-864 117.5,-828 171.5,-828 171.5,-864"/>
<text text-anchor="middle" x="144.5" y="-842.3" font-family="Courier,monospace" font-size="14.00" fill="#b6ecf3">cli</text>
</g>
<!-- shekels.core.config -->
<g id="node2" class="node">
<title>shekels.core.config</title>
<polygon fill="#343434" stroke="#343434" points="765.5,-864 592.5,-864 592.5,-828 765.5,-828 765.5,-864"/>
<text text-anchor="middle" x="679" y="-842.3" font-family="Courier,monospace" font-size="14.00" fill="#b6ecf3">shekels.core.config</text>
</g>
<!-- shekels.core.data_tools -->
<g id="node3" class="node">
<title>shekels.core.data_tools</title>
<polygon fill="#343434" stroke="#343434" points="1049,-550 843,-550 843,-514 1049,-514 1049,-550"/>
<text text-anchor="middle" x="946" y="-528.3" font-family="Courier,monospace" font-size="14.00" fill="#b6ecf3">shekels.core.data_tools</text>
</g>
<!-- shekels.core.config&#45;&gt;shekels.core.data_tools -->
<g id="edge1" class="edge">
<title>shekels.core.config&#45;&gt;shekels.core.data_tools</title>
<path fill="none" stroke="#b6ecf3" d="M712.8684,-827.8319C742.4421,-810.1506 784.1136,-780.493 807,-743 848.3722,-675.223 790.7171,-627.7652 843,-568 847.2562,-563.1347 852.2078,-558.9268 857.594,-555.2876"/>
<polygon fill="#b6ecf3" stroke="#b6ecf3" points="859.5992,-558.1663 866.378,-550.0239 856.0011,-552.1618 859.5992,-558.1663"/>
</g>
<!-- shekels.core.database -->
<g id="node4" class="node">
<title>shekels.core.database</title>
<polygon fill="#343434" stroke="#343434" points="1299.5,-772 1109.5,-772 1109.5,-736 1299.5,-736 1299.5,-772"/>
<text text-anchor="middle" x="1204.5" y="-750.3" font-family="Courier,monospace" font-size="14.00" fill="#b6ecf3">shekels.core.database</text>
</g>
<!-- shekels.core.config&#45;&gt;shekels.core.database -->
<g id="edge2" class="edge">
<title>shekels.core.config&#45;&gt;shekels.core.database</title>
<path fill="none" stroke="#b6ecf3" d="M765.7756,-830.8081C857.232,-814.7967 1001.3315,-789.569 1099.2225,-772.4311"/>
<polygon fill="#b6ecf3" stroke="#b6ecf3" points="1099.8942,-775.8668 1109.1408,-770.6947 1098.687,-768.9717 1099.8942,-775.8668"/>
</g>
<!-- shekels.server.app -->
<g id="node7" class="node">
<title>shekels.server.app</title>
<polygon fill="#343434" stroke="#343434" points="1726,-620 1561,-620 1561,-584 1726,-584 1726,-620"/>
<text text-anchor="middle" x="1643.5" y="-598.3" font-family="Courier,monospace" font-size="14.00" fill="#b6ecf3">shekels.server.app</text>
</g>
<!-- shekels.core.config&#45;&gt;shekels.server.app -->
<g id="edge3" class="edge">
<title>shekels.core.config&#45;&gt;shekels.server.app</title>
<path fill="none" stroke="#b6ecf3" d="M765.5176,-862.1554C928.4925,-887.7085 1286.0563,-920.0914 1525,-767 1577.7476,-733.2046 1614.3469,-666.8706 1631.8125,-629.4225"/>
<polygon fill="#b6ecf3" stroke="#b6ecf3" points="1635.0891,-630.6717 1636.0342,-620.119 1628.7147,-627.779 1635.0891,-630.6717"/>
</g>
<!-- shekels.server.components -->
<g id="node8" class="node">
<title>shekels.server.components</title>
<polygon fill="#343434" stroke="#343434" points="1316,-339 1093,-339 1093,-303 1316,-303 1316,-339"/>
<text text-anchor="middle" x="1204.5" y="-317.3" font-family="Courier,monospace" font-size="14.00" fill="#b6ecf3">shekels.server.components</text>
</g>
<!-- shekels.core.config&#45;&gt;shekels.server.components -->
<g id="edge4" class="edge">
<title>shekels.core.config&#45;&gt;shekels.server.components</title>
<path fill="none" stroke="#b6ecf3" d="M711.7738,-827.8467C741.0213,-809.9809 782.8513,-780.0337 807,-743 840.6833,-691.3444 798.867,-652.0714 843,-609 910.4252,-543.1966 972.0534,-613.3642 1049,-559 1125.9341,-504.6446 1174.5828,-399.0564 1194.3612,-348.8351"/>
<polygon fill="#b6ecf3" stroke="#b6ecf3" points="1197.7136,-349.8685 1198.0377,-339.2786 1191.1804,-347.355 1197.7136,-349.8685"/>
</g>
<!-- shekels.core.data_tools&#45;&gt;shekels.core.database -->
<g id="edge5" class="edge">
<title>shekels.core.data_tools&#45;&gt;shekels.core.database</title>
<path fill="none" stroke="#b6ecf3" d="M971.9909,-550.2354C993.1826,-565.3845 1023.6467,-587.809 1049,-609 1096.7803,-648.9361 1149.1165,-699.2068 1179.2541,-728.8478"/>
<polygon fill="#b6ecf3" stroke="#b6ecf3" points="1176.8452,-731.3879 1186.4216,-735.9204 1181.7618,-726.4052 1176.8452,-731.3879"/>
</g>
<!-- shekels.core.data_tools&#45;&gt;shekels.server.components -->
<g id="edge6" class="edge">
<title>shekels.core.data_tools&#45;&gt;shekels.server.components</title>
<path fill="none" stroke="#b6ecf3" d="M968.488,-513.6442C1015.0102,-475.6706 1121.8488,-388.4638 1174.3124,-345.6405"/>
<polygon fill="#b6ecf3" stroke="#b6ecf3" points="1176.7144,-348.1979 1182.2481,-339.1631 1172.288,-342.7751 1176.7144,-348.1979"/>
</g>
<!-- shekels.server.api -->
<g id="node6" class="node">
<title>shekels.server.api</title>
<polygon fill="#343434" stroke="#343434" points="1525,-704 1360,-704 1360,-668 1525,-668 1525,-704"/>
<text text-anchor="middle" x="1442.5" y="-682.3" font-family="Courier,monospace" font-size="14.00" fill="#b6ecf3">shekels.server.api</text>
</g>
<!-- shekels.core.database&#45;&gt;shekels.server.api -->
<g id="edge7" class="edge">
<title>shekels.core.database&#45;&gt;shekels.server.api</title>
<path fill="none" stroke="#b6ecf3" d="M1267.6548,-735.9558C1298.98,-727.0057 1336.9822,-716.1479 1369.5456,-706.8441"/>
<polygon fill="#b6ecf3" stroke="#b6ecf3" points="1370.8097,-710.1231 1379.4634,-704.0105 1368.8866,-703.3924 1370.8097,-710.1231"/>
</g>
<!-- shekels.enforce.enforce_tools -->
<g id="node5" class="node">
<title>shekels.enforce.enforce_tools</title>
<polygon fill="#343434" stroke="#343434" points="807,-312 551,-312 551,-276 807,-276 807,-312"/>
<text text-anchor="middle" x="679" y="-290.3" font-family="Courier,monospace" font-size="14.00" fill="#b6ecf3">shekels.enforce.enforce_tools</text>
</g>
<!-- shekels.enforce.enforce_tools&#45;&gt;shekels.core.data_tools -->
<g id="edge8" class="edge">
<title>shekels.enforce.enforce_tools&#45;&gt;shekels.core.data_tools</title>
<path fill="none" stroke="#b6ecf3" d="M721.2592,-312.0999C747.4857,-324.5007 781.0197,-342.557 807,-364 858.4072,-406.4292 904.8557,-469.9691 928.8472,-505.5074"/>
<polygon fill="#b6ecf3" stroke="#b6ecf3" points="925.9911,-507.5329 934.4522,-513.9093 931.8142,-503.6482 925.9911,-507.5329"/>
</g>
<!-- shekels.server.api&#45;&gt;shekels.server.app -->
<g id="edge9" class="edge">
<title>shekels.server.api&#45;&gt;shekels.server.app</title>
<path fill="none" stroke="#b6ecf3" d="M1485.6195,-667.9799C1516.3812,-655.1243 1557.9291,-637.761 1590.682,-624.0732"/>
<polygon fill="#b6ecf3" stroke="#b6ecf3" points="1592.2283,-627.2204 1600.1054,-620.135 1589.5292,-620.7617 1592.2283,-627.2204"/>
</g>
<!-- shekels.server.components&#45;&gt;shekels.server.app -->
<g id="edge10" class="edge">
<title>shekels.server.components&#45;&gt;shekels.server.app</title>
<path fill="none" stroke="#b6ecf3" d="M1232.6292,-339.0053C1309.1201,-387.9664 1520.9045,-523.5277 1606.698,-578.4434"/>
<polygon fill="#b6ecf3" stroke="#b6ecf3" points="1605.0123,-581.5199 1615.3216,-583.9632 1608.7861,-575.6243 1605.0123,-581.5199"/>
</g>
<!-- shekels.server.server_tools -->
<g id="node9" class="node">
<title>shekels.server.server_tools</title>
<polygon fill="#343434" stroke="#343434" points="1324,-1012 1085,-1012 1085,-976 1324,-976 1324,-1012"/>
<text text-anchor="middle" x="1204.5" y="-990.3" font-family="Courier,monospace" font-size="14.00" fill="#b6ecf3">shekels.server.server_tools</text>
</g>
<!-- shekels.server.server_tools&#45;&gt;shekels.server.api -->
<g id="edge11" class="edge">
<title>shekels.server.server_tools&#45;&gt;shekels.server.api</title>
<path fill="none" stroke="#b6ecf3" d="M1224.5958,-975.8286C1251.2611,-950.612 1297.9896,-902.3916 1324,-852 1353.2704,-795.2925 1316.3156,-759.5206 1360,-713 1360.8994,-712.0422 1361.8333,-711.1182 1362.7982,-710.227"/>
<polygon fill="#b6ecf3" stroke="#b6ecf3" points="1365.0227,-712.9307 1370.7475,-704.0157 1360.7127,-707.4149 1365.0227,-712.9307"/>
</g>
<!-- shekels.server.server_tools&#45;&gt;shekels.server.app -->
<g id="edge12" class="edge">
<title>shekels.server.server_tools&#45;&gt;shekels.server.app</title>
<path fill="none" stroke="#b6ecf3" d="M1324.1211,-1001.4442C1390.2916,-999.2677 1470.0067,-985.4435 1525,-939 1573.9997,-897.6183 1621.173,-703.1301 1637.4871,-629.9432"/>
<polygon fill="#b6ecf3" stroke="#b6ecf3" points="1640.9313,-630.577 1639.6667,-620.0579 1634.0955,-629.0697 1640.9313,-630.577"/>
</g>
<!-- dash.dependencies -->
<g id="node10" class="node">
<title>dash.dependencies</title>
<polygon fill="#343434" stroke="#343434" points="1521,-758 1364,-758 1364,-722 1521,-722 1521,-758"/>
<text text-anchor="middle" x="1442.5" y="-736.3" font-family="Courier,monospace" font-size="14.00" fill="#de958e">dash.dependencies</text>
</g>
<!-- dash.dependencies&#45;&gt;shekels.server.app -->
<g id="edge13" class="edge">
<title>dash.dependencies&#45;&gt;shekels.server.app</title>
<path fill="none" stroke="#de958e" d="M1507.2178,-721.8854C1513.3929,-719.2551 1519.4236,-716.3012 1525,-713 1563.5232,-690.1947 1599.8543,-652.9663 1621.8875,-627.9865"/>
<polygon fill="#de958e" stroke="#de958e" points="1624.6122,-630.1868 1628.5234,-620.3403 1619.3255,-625.5986 1624.6122,-630.1868"/>
</g>
<!-- shekels.server -->
<g id="node11" class="node">
<title>shekels.server</title>
<polygon fill="#343434" stroke="#343434" points="1012,-978 880,-978 880,-942 1012,-942 1012,-978"/>
<text text-anchor="middle" x="946" y="-956.3" font-family="Courier,monospace" font-size="14.00" fill="#a0d17b">shekels.server</text>
</g>
<!-- shekels.server&#45;&gt;shekels.server.api -->
<g id="edge14" class="edge">
<title>shekels.server&#45;&gt;shekels.server.api</title>
<path fill="none" stroke="#a0d17b" d="M1009.1226,-941.9233C1022.4128,-937.6909 1036.2617,-932.9584 1049,-928 1065.4891,-921.5817 1068.796,-918.1076 1085,-911 1189.9821,-864.9512 1244.7067,-896.7907 1324,-814 1356.9625,-779.5836 1325.8657,-746.2545 1360,-713 1361.0795,-711.9484 1362.2005,-710.9377 1363.3582,-709.9664"/>
<polygon fill="#a0d17b" stroke="#a0d17b" points="1365.4151,-712.7982 1371.479,-704.1103 1361.3207,-707.1205 1365.4151,-712.7982"/>
</g>
<!-- shekels.server&#45;&gt;shekels.server.app -->
<g id="edge15" class="edge">
<title>shekels.server&#45;&gt;shekels.server.app</title>
<path fill="none" stroke="#a0d17b" d="M1012.2062,-960.177C1146.6842,-959.2535 1445.7776,-950.2731 1525,-890 1609.8645,-825.4344 1634.3016,-689.4161 1641.0492,-630.3622"/>
<polygon fill="#a0d17b" stroke="#a0d17b" points="1644.5458,-630.5778 1642.1139,-620.2658 1637.5844,-629.8436 1644.5458,-630.5778"/>
</g>
<!-- shekels.server&#45;&gt;shekels.server.components -->
<g id="edge16" class="edge">
<title>shekels.server&#45;&gt;shekels.server.components</title>
<path fill="none" stroke="#a0d17b" d="M951.921,-941.7298C970.1082,-886.0521 1027.426,-713.8341 1085,-575 1119.857,-490.9458 1167.4384,-394.3817 1190.6393,-348.2717"/>
<polygon fill="#a0d17b" stroke="#a0d17b" points="1193.8262,-349.7252 1195.2068,-339.2207 1187.5768,-346.5716 1193.8262,-349.7252"/>
</g>
<!-- shekels.server&#45;&gt;shekels.server.server_tools -->
<g id="edge17" class="edge">
<title>shekels.server&#45;&gt;shekels.server.server_tools</title>
<path fill="none" stroke="#a0d17b" d="M1012.2345,-968.7117C1031.4983,-971.2454 1053.2346,-974.1044 1074.9812,-976.9646"/>
<polygon fill="#a0d17b" stroke="#a0d17b" points="1074.5936,-980.4437 1084.9647,-978.2778 1075.5065,-973.5035 1074.5936,-980.4437"/>
</g>
<!-- dash -->
<g id="node12" class="node">
<title>dash</title>
<polygon fill="#343434" stroke="#343434" points="973,-144 919,-144 919,-108 973,-108 973,-144"/>
<text text-anchor="middle" x="946" y="-122.3" font-family="Courier,monospace" font-size="14.00" fill="#de958e">dash</text>
</g>
<!-- dash&#45;&gt;shekels.server.app -->
<g id="edge18" class="edge">
<title>dash&#45;&gt;shekels.server.app</title>
<path fill="none" stroke="#de958e" d="M973.3293,-125.4833C996.1968,-126.506 1028.3153,-131.5387 1049,-150 1084.5539,-181.7322 1048.6499,-220.183 1085,-251 1167.3244,-320.7932 1223.6837,-254.1875 1324,-294 1423.1115,-333.3344 1449.1357,-350.0675 1525,-425 1571.492,-470.921 1610.2619,-537.7818 1629.8182,-574.7941"/>
<polygon fill="#de958e" stroke="#de958e" points="1626.8704,-576.7113 1634.5925,-583.9653 1633.0795,-573.479 1626.8704,-576.7113"/>
</g>
<!-- dash&#45;&gt;shekels.server.components -->
<g id="edge19" class="edge">
<title>dash&#45;&gt;shekels.server.components</title>
<path fill="none" stroke="#de958e" d="M973.3867,-127.4249C996.6086,-130.0987 1029.2094,-137.5446 1049,-158 1090.9845,-201.395 1042.1649,-246.4444 1085,-289 1088.1282,-292.1078 1091.5233,-294.923 1095.1224,-297.4724"/>
<polygon fill="#de958e" stroke="#de958e" points="1093.529,-300.6045 1103.8606,-302.9516 1097.2477,-294.6739 1093.529,-300.6045"/>
</g>
<!-- dash.exceptions -->
<g id="node13" class="node">
<title>dash.exceptions</title>
<polygon fill="#343434" stroke="#343434" points="1016,-1178 876,-1178 876,-1142 1016,-1142 1016,-1178"/>
<text text-anchor="middle" x="946" y="-1156.3" font-family="Courier,monospace" font-size="14.00" fill="#de958e">dash.exceptions</text>
</g>
<!-- dash.exceptions&#45;&gt;shekels.server.server_tools -->
<g id="edge20" class="edge">
<title>dash.exceptions&#45;&gt;shekels.server.server_tools</title>
<path fill="none" stroke="#de958e" d="M1016.1342,-1146.4125C1027.4737,-1142.874 1038.8215,-1138.4671 1049,-1133 1103.4663,-1103.7452 1154.451,-1051.6816 1182.3696,-1020.248"/>
<polygon fill="#de958e" stroke="#de958e" points="1185.3337,-1022.1758 1189.2877,-1012.3464 1180.067,-1017.5647 1185.3337,-1022.1758"/>
</g>
<!-- dash_core_components -->
<g id="node14" class="node">
<title>dash_core_components</title>
<polygon fill="#343434" stroke="#343434" points="1037,-90 855,-90 855,-54 1037,-54 1037,-90"/>
<text text-anchor="middle" x="946" y="-68.3" font-family="Courier,monospace" font-size="14.00" fill="#de958e">dash_core_components</text>
</g>
<!-- dash_core_components&#45;&gt;shekels.server.app -->
<g id="edge21" class="edge">
<title>dash_core_components&#45;&gt;shekels.server.app</title>
<path fill="none" stroke="#de958e" d="M1037.1249,-89.9022C1041.3857,-92.5437 1045.3844,-95.5591 1049,-99 1087.4892,-135.6292 1044.7509,-178.3139 1085,-213 1166.4757,-283.2147 1218.8602,-228.328 1324,-251 1414.5363,-270.523 1455.8942,-244.3367 1525,-306 1606.4577,-378.6849 1632.7372,-515.0604 1640.5105,-573.8503"/>
<polygon fill="#de958e" stroke="#de958e" points="1637.0516,-574.3986 1641.7557,-583.8919 1643.9984,-573.5371 1637.0516,-574.3986"/>
</g>
<!-- dash_core_components&#45;&gt;shekels.server.components -->
<g id="edge22" class="edge">
<title>dash_core_components&#45;&gt;shekels.server.components</title>
<path fill="none" stroke="#de958e" d="M1037.4335,-89.5897C1041.6157,-92.3107 1045.5129,-95.4289 1049,-99 1097.5026,-148.6714 1043.7224,-195.1797 1085,-251 1100.3288,-271.7294 1123.7815,-287.3743 1145.8633,-298.5573"/>
<polygon fill="#de958e" stroke="#de958e" points="1144.3618,-301.719 1154.8876,-302.9272 1147.4127,-295.4188 1144.3618,-301.719"/>
</g>
<!-- shekels -->
<g id="node15" class="node">
<title>shekels</title>
<polygon fill="#343434" stroke="#343434" points="181.5,-918 107.5,-918 107.5,-882 181.5,-882 181.5,-918"/>
<text text-anchor="middle" x="144.5" y="-896.3" font-family="Courier,monospace" font-size="14.00" fill="#a0d17b">shekels</text>
</g>
<!-- shekels&#45;&gt;shekels.server -->
<g id="edge23" class="edge">
<title>shekels&#45;&gt;shekels.server</title>
<path fill="none" stroke="#a0d17b" d="M181.8295,-905.6227C218.3263,-911.1109 275.475,-919.6802 325,-927 425.4187,-941.8419 449.757,-952.6474 551,-960 661.4593,-968.022 789.7525,-965.9225 869.4179,-963.2794"/>
<polygon fill="#a0d17b" stroke="#a0d17b" points="869.9744,-966.7624 879.8482,-962.921 869.7339,-959.7666 869.9744,-966.7624"/>
</g>
<!-- shekels.enforce -->
<g id="node18" class="node">
<title>shekels.enforce</title>
<polygon fill="#343434" stroke="#343434" points="490,-320 350,-320 350,-284 490,-284 490,-320"/>
<text text-anchor="middle" x="420" y="-298.3" font-family="Courier,monospace" font-size="14.00" fill="#a0d17b">shekels.enforce</text>
</g>
<!-- shekels&#45;&gt;shekels.enforce -->
<g id="edge24" class="edge">
<title>shekels&#45;&gt;shekels.enforce</title>
<path fill="none" stroke="#a0d17b" d="M181.6422,-904.5044C214.9973,-906.2622 262.6514,-902.6759 289,-873 369.4387,-782.4035 248.8212,-423.2067 325,-329 329.3462,-323.6253 334.6793,-319.2738 340.5807,-315.7565"/>
<polygon fill="#a0d17b" stroke="#a0d17b" points="342.2574,-318.8305 349.5849,-311.1782 339.0846,-312.5908 342.2574,-318.8305"/>
</g>
<!-- shekels.core -->
<g id="node21" class="node">
<title>shekels.core</title>
<polygon fill="#343434" stroke="#343434" points="478,-918 362,-918 362,-882 478,-882 478,-918"/>
<text text-anchor="middle" x="420" y="-896.3" font-family="Courier,monospace" font-size="14.00" fill="#a0d17b">shekels.core</text>
</g>
<!-- shekels&#45;&gt;shekels.core -->
<g id="edge25" class="edge">
<title>shekels&#45;&gt;shekels.core</title>
<path fill="none" stroke="#a0d17b" d="M181.6552,-900C225.1194,-900 297.9631,-900 351.7047,-900"/>
<polygon fill="#a0d17b" stroke="#a0d17b" points="351.8445,-903.5001 361.8445,-900 351.8444,-896.5001 351.8445,-903.5001"/>
</g>
<!-- dash_html_components -->
<g id="node16" class="node">
<title>dash_html_components</title>
<polygon fill="#343434" stroke="#343434" points="1037,-236 855,-236 855,-200 1037,-200 1037,-236"/>
<text text-anchor="middle" x="946" y="-214.3" font-family="Courier,monospace" font-size="14.00" fill="#de958e">dash_html_components</text>
</g>
<!-- dash_html_components&#45;&gt;shekels.server.components -->
<g id="edge26" class="edge">
<title>dash_html_components&#45;&gt;shekels.server.components</title>
<path fill="none" stroke="#de958e" d="M1020.6762,-236.033C1030.5721,-239.8873 1040.2924,-244.5007 1049,-250 1068.9445,-262.5961 1064.8101,-276.8011 1085,-289 1091.319,-292.818 1098.0956,-296.1877 1105.0931,-299.1605"/>
<polygon fill="#de958e" stroke="#de958e" points="1104.163,-302.5562 1114.7497,-302.9733 1106.7338,-296.0453 1104.163,-302.5562"/>
</g>
<!-- dash_table -->
<g id="node17" class="node">
<title>dash_table</title>
<polygon fill="#343434" stroke="#343434" points="995.5,-36 896.5,-36 896.5,0 995.5,0 995.5,-36"/>
<text text-anchor="middle" x="946" y="-14.3" font-family="Courier,monospace" font-size="14.00" fill="#de958e">dash_table</text>
</g>
<!-- dash_table&#45;&gt;shekels.server.app -->
<g id="edge27" class="edge">
<title>dash_table&#45;&gt;shekels.server.app</title>
<path fill="none" stroke="#de958e" d="M995.7164,-29.369C1012.7804,-33.7088 1031.8857,-39.0581 1049,-45 1052.4078,-46.1832 1522.5594,-250.3436 1525,-253 1611.9632,-347.654 1635.413,-508.6502 1641.4796,-573.5922"/>
<polygon fill="#de958e" stroke="#de958e" points="1638.0194,-574.2055 1642.3668,-583.8673 1644.9934,-573.6033 1638.0194,-574.2055"/>
</g>
<!-- dash_table&#45;&gt;shekels.server.components -->
<g id="edge28" class="edge">
<title>dash_table&#45;&gt;shekels.server.components</title>
<path fill="none" stroke="#de958e" d="M995.6408,-20.1662C1014.7186,-23.506 1035.2058,-30.5667 1049,-45 1101.7598,-100.2043 1046.8257,-146.865 1085,-213 1105.1199,-247.8567 1140.3874,-277.6561 1167.4112,-297.0674"/>
<polygon fill="#de958e" stroke="#de958e" points="1165.6692,-300.1207 1175.8658,-302.998 1169.6891,-294.39 1165.6692,-300.1207"/>
</g>
<!-- shekels.enforce&#45;&gt;shekels.enforce.enforce_tools -->
<g id="edge29" class="edge">
<title>shekels.enforce&#45;&gt;shekels.enforce.enforce_tools</title>
<path fill="none" stroke="#a0d17b" d="M490.0891,-299.8351C505.8686,-299.3477 523.1505,-298.8139 540.649,-298.2734"/>
<polygon fill="#a0d17b" stroke="#a0d17b" points="541.08,-301.7618 550.9672,-297.9547 540.8638,-294.7652 541.08,-301.7618"/>
</g>
<!-- flask -->
<g id="node19" class="node">
<title>flask</title>
<polygon fill="#343434" stroke="#343434" points="975,-654 917,-654 917,-618 975,-618 975,-654"/>
<text text-anchor="middle" x="946" y="-632.3" font-family="Courier,monospace" font-size="14.00" fill="#de958e">flask</text>
</g>
<!-- flask&#45;&gt;shekels.server.api -->
<g id="edge30" class="edge">
<title>flask&#45;&gt;shekels.server.api</title>
<path fill="none" stroke="#de958e" d="M975.4305,-638.5743C1039.0676,-644.1909 1194.211,-658.1545 1324,-672 1332.3652,-672.8924 1341.0583,-673.8539 1349.7648,-674.8402"/>
<polygon fill="#de958e" stroke="#de958e" points="1349.6401,-678.3487 1359.9728,-676.0068 1350.4349,-671.3939 1349.6401,-678.3487"/>
</g>
<!-- flask&#45;&gt;shekels.server.app -->
<g id="edge31" class="edge">
<title>flask&#45;&gt;shekels.server.app</title>
<path fill="none" stroke="#de958e" d="M975.1098,-627.1218C996.129,-620.2682 1024.9306,-609.9546 1049,-598 1066.0048,-589.5542 1066.7753,-580.3248 1085,-575 1249.0006,-527.0832 1451.4881,-557.8165 1562.0208,-581.7023"/>
<polygon fill="#de958e" stroke="#de958e" points="1561.5818,-585.1892 1572.1,-583.9167 1563.084,-578.3523 1561.5818,-585.1892"/>
</g>
<!-- flask&#45;&gt;shekels.server.components -->
<g id="edge32" class="edge">
<title>flask&#45;&gt;shekels.server.components</title>
<path fill="none" stroke="#de958e" d="M975.437,-630.2262C997.7153,-624.6158 1027.9657,-614.2004 1049,-596 1059.6459,-586.7884 1153.2606,-415.4219 1189.8933,-347.9614"/>
<polygon fill="#de958e" stroke="#de958e" points="1192.9762,-349.6183 1194.6696,-339.1597 1186.8237,-346.2796 1192.9762,-349.6183"/>
</g>
<!-- flask&#45;&gt;shekels.server.server_tools -->
<g id="edge33" class="edge">
<title>flask&#45;&gt;shekels.server.server_tools</title>
<path fill="none" stroke="#de958e" d="M959.1744,-654.2455C1001.6992,-713.1386 1135.441,-898.3593 1185.4135,-967.5669"/>
<polygon fill="#de958e" stroke="#de958e" points="1182.6604,-969.7328 1191.3521,-975.7913 1188.3356,-965.6349 1182.6604,-969.7328"/>
</g>
<!-- jinja2 -->
<g id="node20" class="node">
<title>jinja2</title>
<polygon fill="#343434" stroke="#343434" points="979,-1070 913,-1070 913,-1034 979,-1034 979,-1070"/>
<text text-anchor="middle" x="946" y="-1048.3" font-family="Courier,monospace" font-size="14.00" fill="#de958e">jinja2</text>
</g>
<!-- jinja2&#45;&gt;shekels.server.server_tools -->
<g id="edge34" class="edge">
<title>jinja2&#45;&gt;shekels.server.server_tools</title>
<path fill="none" stroke="#de958e" d="M979.0018,-1044.5953C1012.9934,-1036.9686 1067.4747,-1024.7445 1114.3702,-1014.2225"/>
<polygon fill="#de958e" stroke="#de958e" points="1115.2608,-1017.6098 1124.252,-1012.0054 1113.7283,-1010.7796 1115.2608,-1017.6098"/>
</g>
<!-- shekels.core&#45;&gt;shekels.core.config -->
<g id="edge35" class="edge">
<title>shekels.core&#45;&gt;shekels.core.config</title>
<path fill="none" stroke="#a0d17b" d="M478.1247,-887.8813C508.9346,-881.4577 547.5831,-873.3997 582.7294,-866.0719"/>
<polygon fill="#a0d17b" stroke="#a0d17b" points="583.4651,-869.4938 592.5402,-864.0264 582.0363,-862.6412 583.4651,-869.4938"/>
</g>
<!-- shekels.core&#45;&gt;shekels.core.data_tools -->
<g id="edge36" class="edge">
<title>shekels.core&#45;&gt;shekels.core.data_tools</title>
<path fill="none" stroke="#a0d17b" d="M478.1368,-894.4514C491.981,-890.4317 505.4813,-883.8091 515,-873 585.7028,-792.7127 475.6822,-710.9748 551,-635 632.1237,-553.1686 700.5191,-638.0369 807,-594 825.2384,-586.4572 825.5017,-577.129 843,-568 853.1968,-562.6803 864.3504,-557.8589 875.4336,-553.5988"/>
<polygon fill="#a0d17b" stroke="#a0d17b" points="876.9715,-556.7614 885.1293,-550.0011 874.5363,-550.1986 876.9715,-556.7614"/>
</g>
<!-- shekels.core&#45;&gt;shekels.core.database -->
<g id="edge37" class="edge">
<title>shekels.core&#45;&gt;shekels.core.database</title>
<path fill="none" stroke="#a0d17b" d="M478.2964,-914.6611C500.8498,-919.6344 526.9747,-924.5499 551,-927 664.1907,-938.5434 695.6104,-950.189 807,-927 843.2337,-919.4569 1058.4608,-821.3704 1156.2274,-776.3335"/>
<polygon fill="#a0d17b" stroke="#a0d17b" points="1157.9764,-779.3813 1165.5925,-772.0161 1155.0457,-773.0242 1157.9764,-779.3813"/>
</g>
<!-- schematics.exceptions -->
<g id="node22" class="node">
<title>schematics.exceptions</title>
<polygon fill="#343434" stroke="#343434" points="515,-676 325,-676 325,-640 515,-640 515,-676"/>
<text text-anchor="middle" x="420" y="-654.3" font-family="Courier,monospace" font-size="14.00" fill="#de958e">schematics.exceptions</text>
</g>
<!-- schematics.exceptions&#45;&gt;shekels.core.config -->
<g id="edge38" class="edge">
<title>schematics.exceptions&#45;&gt;shekels.core.config</title>
<path fill="none" stroke="#de958e" d="M437.006,-676.1075C456.4382,-697.0338 488.9192,-732.7381 515,-765 531.989,-786.0154 528.5612,-798.9411 551,-814 560.6586,-820.482 571.5219,-825.6515 582.732,-829.7742"/>
<polygon fill="#de958e" stroke="#de958e" points="581.6168,-833.0917 592.2112,-832.9969 583.87,-826.4643 581.6168,-833.0917"/>
</g>
<!-- schematics.exceptions&#45;&gt;shekels.core.data_tools -->
<g id="edge39" class="edge">
<title>schematics.exceptions&#45;&gt;shekels.core.data_tools</title>
<path fill="none" stroke="#de958e" d="M455.8482,-639.9268C481.7079,-627.5769 517.7712,-611.7422 551,-602 661.7115,-569.5411 693.4745,-579.5568 807,-559 819.2158,-556.788 832.021,-554.3981 844.7079,-551.9864"/>
<polygon fill="#de958e" stroke="#de958e" points="845.6777,-555.3645 854.8435,-550.0507 844.3645,-548.4888 845.6777,-555.3645"/>
</g>
<!-- schematics.exceptions&#45;&gt;shekels.server.api -->
<g id="edge40" class="edge">
<title>schematics.exceptions&#45;&gt;shekels.server.api</title>
<path fill="none" stroke="#de958e" d="M434.5474,-676.4286C456.5163,-702.6446 500.9465,-749.6674 551,-769 631.13,-799.9493 1250.4097,-825.3074 1324,-781 1353.2961,-763.3614 1333.8473,-735.0322 1360,-713 1361.5127,-711.7256 1363.0872,-710.5109 1364.7131,-709.3531"/>
<polygon fill="#de958e" stroke="#de958e" points="1366.6043,-712.2985 1373.2236,-704.0259 1362.8902,-706.3651 1366.6043,-712.2985"/>
</g>
<!-- schematics.exceptions&#45;&gt;shekels.server.components -->
<g id="edge41" class="edge">
<title>schematics.exceptions&#45;&gt;shekels.server.components</title>
<path fill="none" stroke="#de958e" d="M423.0438,-639.9416C432.2781,-591.3317 464.8134,-457.3269 551,-397 634.2916,-338.6994 917.7624,-324.7311 1082.7243,-321.6308"/>
<polygon fill="#de958e" stroke="#de958e" points="1082.9907,-325.1268 1092.9271,-321.4501 1082.8666,-318.1279 1082.9907,-325.1268"/>
</g>
<!-- pandas -->
<g id="node23" class="node">
<title>pandas</title>
<polygon fill="#343434" stroke="#343434" points="453,-266 387,-266 387,-230 453,-230 453,-266"/>
<text text-anchor="middle" x="420" y="-244.3" font-family="Courier,monospace" font-size="14.00" fill="#de958e">pandas</text>
</g>
<!-- pandas&#45;&gt;shekels.core.data_tools -->
<g id="edge42" class="edge">
<title>pandas&#45;&gt;shekels.core.data_tools</title>
<path fill="none" stroke="#de958e" d="M453.0395,-245.5428C535.6832,-240.0286 748.8909,-229.8859 807,-267 829.2283,-281.1971 903.6587,-439.6255 933.4838,-504.5249"/>
<polygon fill="#de958e" stroke="#de958e" points="930.3628,-506.1158 937.7113,-513.748 936.7262,-503.1991 930.3628,-506.1158"/>
</g>
<!-- pandas&#45;&gt;shekels.core.database -->
<g id="edge43" class="edge">
<title>pandas&#45;&gt;shekels.core.database</title>
<path fill="none" stroke="#de958e" d="M453.3237,-248.3354C474.3517,-250.4545 500.2408,-256.9463 515,-275 581.019,-355.7558 475.077,-671.4759 551,-743 589.8451,-779.5944 924.5126,-768.3448 1099.2411,-759.8073"/>
<polygon fill="#de958e" stroke="#de958e" points="1099.674,-763.2902 1109.489,-759.3007 1099.3284,-756.2988 1099.674,-763.2902"/>
</g>
<!-- pandas&#45;&gt;shekels.enforce.enforce_tools -->
<g id="edge44" class="edge">
<title>pandas&#45;&gt;shekels.enforce.enforce_tools</title>
<path fill="none" stroke="#de958e" d="M453.0656,-253.8727C482.1035,-259.03 526.0654,-266.8379 567.5159,-274.1997"/>
<polygon fill="#de958e" stroke="#de958e" points="566.9696,-277.6574 577.4276,-275.9601 568.1937,-270.7653 566.9696,-277.6574"/>
</g>
<!-- pandas&#45;&gt;shekels.server.components -->
<g id="edge45" class="edge">
<title>pandas&#45;&gt;shekels.server.components</title>
<path fill="none" stroke="#de958e" d="M435.9802,-229.7652C458.681,-205.4007 502.8859,-163.3944 551,-147 658.6974,-110.3033 693.682,-136.7821 807,-147 810.4024,-147.3068 1046.3856,-188.801 1049,-191 1084.5106,-220.8678 1050.7402,-257.7053 1085,-289 1088.5779,-292.2682 1092.4533,-295.2089 1096.5461,-297.8544"/>
<polygon fill="#de958e" stroke="#de958e" points="1094.8187,-300.8986 1105.2266,-302.8805 1098.3263,-294.8408 1094.8187,-300.8986"/>
</g>
<!-- jsoncomment -->
<g id="node24" class="node">
<title>jsoncomment</title>
<polygon fill="#343434" stroke="#343434" points="999.5,-1124 892.5,-1124 892.5,-1088 999.5,-1088 999.5,-1124"/>
<text text-anchor="middle" x="946" y="-1102.3" font-family="Courier,monospace" font-size="14.00" fill="#de958e">jsoncomment</text>
</g>
<!-- jsoncomment&#45;&gt;shekels.core.database -->
<g id="edge46" class="edge">
<title>jsoncomment&#45;&gt;shekels.core.database</title>
<path fill="none" stroke="#de958e" d="M999.7073,-1102.1882C1017.2957,-1098.4713 1035.7104,-1091.5827 1049,-1079 1086.9678,-1043.0518 1064.1038,-1014.9289 1085,-967 1115.4349,-897.1925 1161.9832,-820.4962 1187.0555,-780.9362"/>
<polygon fill="#de958e" stroke="#de958e" points="1190.2261,-782.4738 1192.6522,-772.1605 1184.3241,-778.7099 1190.2261,-782.4738"/>
</g>
<!-- jsoncomment&#45;&gt;shekels.server.app -->
<g id="edge47" class="edge">
<title>jsoncomment&#45;&gt;shekels.server.app</title>
<path fill="none" stroke="#de958e" d="M999.821,-1111.0024C1112.5127,-1118.3548 1375.2231,-1118.6892 1525,-982 1578.3826,-933.282 1623.6389,-710.5027 1638.4122,-630.6139"/>
<polygon fill="#de958e" stroke="#de958e" points="1641.9381,-630.7888 1640.2921,-620.3226 1635.052,-629.5308 1641.9381,-630.7888"/>
</g>
<!-- jsoncomment&#45;&gt;shekels.server.server_tools -->
<g id="edge48" class="edge">
<title>jsoncomment&#45;&gt;shekels.server.server_tools</title>
<path fill="none" stroke="#de958e" d="M999.7255,-1094.5529C1015.8334,-1090.421 1033.3671,-1085.2133 1049,-1079 1091.4164,-1062.1415 1136.8935,-1036.2764 1167.639,-1017.5053"/>
<polygon fill="#de958e" stroke="#de958e" points="1169.6197,-1020.3959 1176.2961,-1012.1693 1165.9468,-1014.4369 1169.6197,-1020.3959"/>
</g>
<!-- lunchbox.tools -->
<g id="node25" class="node">
<title>lunchbox.tools</title>
<polygon fill="#343434" stroke="#343434" points="745,-918 613,-918 613,-882 745,-882 745,-918"/>
<text text-anchor="middle" x="679" y="-896.3" font-family="Courier,monospace" font-size="14.00" fill="#de958e">lunchbox.tools</text>
</g>
<!-- lunchbox.tools&#45;&gt;shekels.core.data_tools -->
<g id="edge49" class="edge">
<title>lunchbox.tools&#45;&gt;shekels.core.data_tools</title>
<path fill="none" stroke="#de958e" d="M745.1036,-900.8581C767.6978,-897.694 791.2228,-889.9623 807,-873 887.6513,-786.2908 782.9116,-711.0416 843,-609 856.3327,-586.3585 879.1748,-568.2612 899.9654,-555.3151"/>
<polygon fill="#de958e" stroke="#de958e" points="901.9289,-558.2191 908.7163,-550.0839 898.3371,-552.2108 901.9289,-558.2191"/>
</g>
<!-- lunchbox.tools&#45;&gt;shekels.server.server_tools -->
<g id="edge50" class="edge">
<title>lunchbox.tools&#45;&gt;shekels.server.server_tools</title>
<path fill="none" stroke="#de958e" d="M703.8596,-918.0183C734.7201,-939.2012 789.804,-973.2155 843,-987 918.1471,-1006.4727 1005.0516,-1008.7652 1074.8174,-1005.9322"/>
<polygon fill="#de958e" stroke="#de958e" points="1075.1489,-1009.4209 1084.9829,-1005.4784 1074.8367,-1002.4279 1075.1489,-1009.4209"/>
</g>
<!-- pandasql -->
<g id="node26" class="node">
<title>pandasql</title>
<polygon fill="#343434" stroke="#343434" points="720.5,-680 637.5,-680 637.5,-644 720.5,-644 720.5,-680"/>
<text text-anchor="middle" x="679" y="-658.3" font-family="Courier,monospace" font-size="14.00" fill="#de958e">pandasql</text>
</g>
<!-- pandasql&#45;&gt;shekels.core.data_tools -->
<g id="edge51" class="edge">
<title>pandasql&#45;&gt;shekels.core.data_tools</title>
<path fill="none" stroke="#de958e" d="M720.5965,-659.8413C747.5345,-656.586 782.1034,-648.7251 807,-630 832.4652,-610.8472 818.435,-588.2945 843,-568 849.2636,-562.8253 856.3196,-558.3741 863.7266,-554.5491"/>
<polygon fill="#de958e" stroke="#de958e" points="865.7243,-557.4757 873.2634,-550.0317 862.7277,-551.1495 865.7243,-557.4757"/>
</g>
<!-- pandasql&#45;&gt;shekels.server.api -->
<g id="edge52" class="edge">
<title>pandasql&#45;&gt;shekels.server.api</title>
<path fill="none" stroke="#de958e" d="M720.5913,-663.3074C839.4635,-667.044 1182.814,-677.837 1349.5058,-683.0768"/>
<polygon fill="#de958e" stroke="#de958e" points="1349.6349,-686.5825 1359.74,-683.3985 1349.8549,-679.586 1349.6349,-686.5825"/>
</g>
<!-- lunchbox.enforce -->
<g id="node27" class="node">
<title>lunchbox.enforce</title>
<polygon fill="#343434" stroke="#343434" points="494.5,-374 345.5,-374 345.5,-338 494.5,-338 494.5,-374"/>
<text text-anchor="middle" x="420" y="-352.3" font-family="Courier,monospace" font-size="14.00" fill="#de958e">lunchbox.enforce</text>
</g>
<!-- lunchbox.enforce&#45;&gt;shekels.core.data_tools -->
<g id="edge53" class="edge">
<title>lunchbox.enforce&#45;&gt;shekels.core.data_tools</title>
<path fill="none" stroke="#de958e" d="M494.7746,-349.8804C575.6601,-346.3722 706.5109,-349.9155 807,-397 859.0689,-421.397 903.574,-473.3996 927.4027,-505.2671"/>
<polygon fill="#de958e" stroke="#de958e" points="924.8325,-507.6814 933.5645,-513.6817 930.4802,-503.5457 924.8325,-507.6814"/>
</g>
<!-- lunchbox.enforce&#45;&gt;shekels.enforce.enforce_tools -->
<g id="edge54" class="edge">
<title>lunchbox.enforce&#45;&gt;shekels.enforce.enforce_tools</title>
<path fill="none" stroke="#de958e" d="M494.5661,-338.1502C525.5797,-330.7261 561.7533,-322.0668 593.8085,-314.3933"/>
<polygon fill="#de958e" stroke="#de958e" points="594.7037,-317.778 603.6141,-312.046 593.074,-310.9703 594.7037,-317.778"/>
</g>
<!-- lunchbox.enforce&#45;&gt;shekels.server.components -->
<g id="edge55" class="edge">
<title>lunchbox.enforce&#45;&gt;shekels.server.components</title>
<path fill="none" stroke="#de958e" d="M494.5168,-343.5138C502.1418,-339.821 509.2012,-335.0796 515,-329 563.5139,-278.137 495.9306,-218.6807 551,-175 595.5704,-139.6471 758.4383,-145.3672 807,-175 836.8634,-193.223 814.6765,-224.4652 843,-245 918.069,-299.4258 958.6704,-257.0694 1049,-278 1065.2984,-281.7766 1068.9171,-284.3911 1085,-289 1098.125,-292.7613 1112.1004,-296.6278 1125.6944,-300.3153"/>
<polygon fill="#de958e" stroke="#de958e" points="1124.9414,-303.7373 1135.508,-302.9647 1126.7659,-296.9792 1124.9414,-303.7373"/>
</g>
<!-- numpy -->
<g id="node28" class="node">
<title>numpy</title>
<polygon fill="#343434" stroke="#343434" points="708,-734 650,-734 650,-698 708,-698 708,-734"/>
<text text-anchor="middle" x="679" y="-712.3" font-family="Courier,monospace" font-size="14.00" fill="#de958e">numpy</text>
</g>
<!-- numpy&#45;&gt;shekels.core.data_tools -->
<g id="edge56" class="edge">
<title>numpy&#45;&gt;shekels.core.data_tools</title>
<path fill="none" stroke="#de958e" d="M708.2285,-717.8476C736.9617,-718.019 780.2823,-713.6295 807,-689 848.2533,-650.9709 804.2705,-608.5965 843,-568 847.744,-563.0273 853.2122,-558.741 859.1039,-555.0465"/>
<polygon fill="#de958e" stroke="#de958e" points="861.0003,-557.9956 868.0041,-550.0459 857.5715,-551.8929 861.0003,-557.9956"/>
</g>
<!-- numpy&#45;&gt;shekels.core.database -->
<g id="edge57" class="edge">
<title>numpy&#45;&gt;shekels.core.database</title>
<path fill="none" stroke="#de958e" d="M708.0017,-718.0972C781.2508,-723.394 976.5921,-737.5195 1099.2839,-746.3916"/>
<polygon fill="#de958e" stroke="#de958e" points="1099.2284,-749.8966 1109.4548,-747.1271 1099.7333,-742.9149 1099.2284,-749.8966"/>
</g>
<!-- schematics.models -->
<g id="node29" class="node">
<title>schematics.models</title>
<polygon fill="#343434" stroke="#343434" points="498.5,-864 341.5,-864 341.5,-828 498.5,-828 498.5,-864"/>
<text text-anchor="middle" x="420" y="-842.3" font-family="Courier,monospace" font-size="14.00" fill="#de958e">schematics.models</text>
</g>
<!-- schematics.models&#45;&gt;shekels.core.config -->
<g id="edge58" class="edge">
<title>schematics.models&#45;&gt;shekels.core.config</title>
<path fill="none" stroke="#de958e" d="M498.7634,-846C525.1406,-846 554.8536,-846 582.4322,-846"/>
<polygon fill="#de958e" stroke="#de958e" points="582.486,-849.5001 592.486,-846 582.486,-842.5001 582.486,-849.5001"/>
</g>
<!-- cufflinks -->
<g id="node30" class="node">
<title>cufflinks</title>
<polygon fill="#343434" stroke="#343434" points="724.5,-550 633.5,-550 633.5,-514 724.5,-514 724.5,-550"/>
<text text-anchor="middle" x="679" y="-528.3" font-family="Courier,monospace" font-size="14.00" fill="#de958e">cufflinks</text>
</g>
<!-- cufflinks&#45;&gt;shekels.core.data_tools -->
<g id="edge59" class="edge">
<title>cufflinks&#45;&gt;shekels.core.data_tools</title>
<path fill="none" stroke="#de958e" d="M724.5956,-532C754.4014,-532 794.7311,-532 832.8046,-532"/>
<polygon fill="#de958e" stroke="#de958e" points="832.9484,-535.5001 842.9484,-532 832.9484,-528.5001 832.9484,-535.5001"/>
</g>
<!-- schematics.types -->
<g id="node31" class="node">
<title>schematics.types</title>
<polygon fill="#343434" stroke="#343434" points="494.5,-810 345.5,-810 345.5,-774 494.5,-774 494.5,-810"/>
<text text-anchor="middle" x="420" y="-788.3" font-family="Courier,monospace" font-size="14.00" fill="#de958e">schematics.types</text>
</g>
<!-- schematics.types&#45;&gt;shekels.core.config -->
<g id="edge60" class="edge">
<title>schematics.types&#45;&gt;shekels.core.config</title>
<path fill="none" stroke="#de958e" d="M494.5661,-807.5466C521.9704,-813.2602 553.4035,-819.8139 582.4641,-825.8728"/>
<polygon fill="#de958e" stroke="#de958e" points="582.1298,-829.3783 592.6337,-827.9931 583.5586,-822.5257 582.1298,-829.3783"/>
</g>
<!-- pyparsing -->
<g id="node32" class="node">
<title>pyparsing</title>
<polygon fill="#343434" stroke="#343434" points="724.5,-496 633.5,-496 633.5,-460 724.5,-460 724.5,-496"/>
<text text-anchor="middle" x="679" y="-474.3" font-family="Courier,monospace" font-size="14.00" fill="#de958e">pyparsing</text>
</g>
<!-- pyparsing&#45;&gt;shekels.core.data_tools -->
<g id="edge61" class="edge">
<title>pyparsing&#45;&gt;shekels.core.data_tools</title>
<path fill="none" stroke="#de958e" d="M724.5956,-487.2216C758.1023,-493.9982 804.9084,-503.4646 846.8581,-511.9488"/>
<polygon fill="#de958e" stroke="#de958e" points="846.3488,-515.4166 856.8442,-513.9685 847.7365,-508.5555 846.3488,-515.4166"/>
</g>
<!-- rolling_pin.blob_etl -->
<g id="node33" class="node">
<title>rolling_pin.blob_etl</title>
<polygon fill="#343434" stroke="#343434" points="770,-220 588,-220 588,-184 770,-184 770,-220"/>
<text text-anchor="middle" x="679" y="-198.3" font-family="Courier,monospace" font-size="14.00" fill="#de958e">rolling_pin.blob_etl</text>
</g>
<!-- rolling_pin.blob_etl&#45;&gt;shekels.core.data_tools -->
<g id="edge62" class="edge">
<title>rolling_pin.blob_etl&#45;&gt;shekels.core.data_tools</title>
<path fill="none" stroke="#de958e" d="M770.0749,-213.7274C783.4658,-218.4529 796.3224,-224.9874 807,-234 837.4155,-259.6729 826.4322,-279.8102 843,-316 874.2995,-384.369 912.8254,-464.0305 932.7149,-504.8435"/>
<polygon fill="#de958e" stroke="#de958e" points="929.5954,-506.4317 937.1258,-513.8844 935.8866,-503.3623 929.5954,-506.4317"/>
</g>
<!-- rolling_pin.blob_etl&#45;&gt;shekels.server.components -->
<g id="edge63" class="edge">
<title>rolling_pin.blob_etl&#45;&gt;shekels.server.components</title>
<path fill="none" stroke="#de958e" d="M770.1294,-217.0505C783.0727,-221.3536 795.7793,-226.8864 807,-234 828.3399,-247.5288 820.8471,-265.848 843,-278 883.2177,-300.0615 994.0517,-310.9293 1082.4907,-316.2046"/>
<polygon fill="#de958e" stroke="#de958e" points="1082.4254,-319.7065 1092.6108,-316.7899 1082.8296,-312.7182 1082.4254,-319.7065"/>
</g>
<!-- webcolors -->
<g id="node34" class="node">
<title>webcolors</title>
<polygon fill="#343434" stroke="#343434" points="724.5,-442 633.5,-442 633.5,-406 724.5,-406 724.5,-442"/>
<text text-anchor="middle" x="679" y="-420.3" font-family="Courier,monospace" font-size="14.00" fill="#de958e">webcolors</text>
</g>
<!-- webcolors&#45;&gt;shekels.core.data_tools -->
<g id="edge64" class="edge">
<title>webcolors&#45;&gt;shekels.core.data_tools</title>
<path fill="none" stroke="#de958e" d="M724.7387,-430.0066C749.6198,-434.1704 780.6151,-440.8343 807,-451 845.0985,-465.6789 885.0094,-490.0047 912.2406,-508.1742"/>
<polygon fill="#de958e" stroke="#de958e" points="910.3731,-511.1365 920.618,-513.8371 914.2933,-505.3371 910.3731,-511.1365"/>
</g>
<!-- flasgger -->
<g id="node35" class="node">
<title>flasgger</title>
<polygon fill="#343434" stroke="#343434" points="1246,-620 1163,-620 1163,-584 1246,-584 1246,-620"/>
<text text-anchor="middle" x="1204.5" y="-598.3" font-family="Courier,monospace" font-size="14.00" fill="#de958e">flasgger</text>
</g>
<!-- flasgger&#45;&gt;shekels.server.api -->
<g id="edge65" class="edge">
<title>flasgger&#45;&gt;shekels.server.api</title>
<path fill="none" stroke="#de958e" d="M1246.1732,-611.5091C1269.3509,-617.2077 1298.5671,-625.0726 1324,-634 1348.1903,-642.4912 1374.3604,-653.7447 1395.9387,-663.6107"/>
<polygon fill="#de958e" stroke="#de958e" points="1394.6493,-666.8704 1405.1953,-667.886 1397.5844,-660.5154 1394.6493,-666.8704"/>
</g>
<!-- flasgger&#45;&gt;shekels.server.app -->
<g id="edge66" class="edge">
<title>flasgger&#45;&gt;shekels.server.app</title>
<path fill="none" stroke="#de958e" d="M1246.1958,-602C1315.6839,-602 1456.804,-602 1550.7676,-602"/>
<polygon fill="#de958e" stroke="#de958e" points="1550.8454,-605.5001 1560.8454,-602 1550.8453,-598.5001 1550.8454,-605.5001"/>
</g>
<!-- flask_caching -->
<g id="node36" class="node">
<title>flask_caching</title>
<polygon fill="#343434" stroke="#343434" points="1504.5,-171 1380.5,-171 1380.5,-135 1504.5,-135 1504.5,-171"/>
<text text-anchor="middle" x="1442.5" y="-149.3" font-family="Courier,monospace" font-size="14.00" fill="#de958e">flask_caching</text>
</g>
<!-- flask_caching&#45;&gt;shekels.server.app -->
<g id="edge67" class="edge">
<title>flask_caching&#45;&gt;shekels.server.app</title>
<path fill="none" stroke="#de958e" d="M1504.689,-169.6515C1512.2568,-173.7143 1519.31,-178.7537 1525,-185 1578.5318,-243.7653 1624.4043,-489.4792 1638.8086,-573.6045"/>
<polygon fill="#de958e" stroke="#de958e" points="1635.3986,-574.431 1640.5194,-583.7061 1642.3004,-573.2621 1635.3986,-574.431"/>
</g>
<!-- selenium.webdriver.chrome.options -->
<g id="node37" class="node">
<title>selenium.webdriver.chrome.options</title>
<polygon fill="#343434" stroke="#343434" points="289,-972 0,-972 0,-936 289,-936 289,-972"/>
<text text-anchor="middle" x="144.5" y="-950.3" font-family="Courier,monospace" font-size="14.00" fill="#de958e">selenium.webdriver.chrome.options</text>
</g>
</g>
</svg>
