<?xml version="1.0" encoding="UTF-8" standalone="no"?>
<!DOCTYPE svg PUBLIC "-//W3C//DTD SVG 1.1//EN"
 "http://www.w3.org/Graphics/SVG/1.1/DTD/svg11.dtd">
<!-- Generated by graphviz version 2.43.0 (0)
 -->
<!-- Title: %3 Pages: 1 -->
<svg width="1869pt" height="1308pt"
 viewBox="0.00 0.00 1869.00 1307.97" xmlns="http://www.w3.org/2000/svg" xmlns:xlink="http://www.w3.org/1999/xlink">
<g id="graph0" class="graph" transform="scale(1 1) rotate(0) translate(4 1303.97)">
<title>%3</title>
<polygon fill="#242424" stroke="transparent" points="-4,4 -4,-1303.97 1865,-1303.97 1865,4 -4,4"/>
<!-- cli -->
<g id="node1" class="node">
<title>cli</title>
<polygon fill="#343434" stroke="#343434" points="64,-1069 10,-1069 10,-1033 64,-1033 64,-1069"/>
<text text-anchor="middle" x="37" y="-1047.3" font-family="Courier,monospace" font-size="14.00" fill="#b6ecf3">cli</text>
</g>
<!-- shekels.command -->
<g id="node2" class="node">
<title>shekels.command</title>
<polygon fill="#343434" stroke="#343434" points="275,-1268 135,-1268 135,-1232 275,-1232 275,-1268"/>
<text text-anchor="middle" x="205" y="-1246.3" font-family="Courier,monospace" font-size="14.00" fill="#b6ecf3">shekels.command</text>
</g>
<!-- shekels.core.config -->
<g id="node3" class="node">
<title>shekels.core.config</title>
<polygon fill="#343434" stroke="#343434" points="550.5,-288 377.5,-288 377.5,-252 550.5,-252 550.5,-288"/>
<text text-anchor="middle" x="464" y="-266.3" font-family="Courier,monospace" font-size="14.00" fill="#b6ecf3">shekels.core.config</text>
</g>
<!-- shekels.core.data_tools -->
<g id="node4" class="node">
<title>shekels.core.data_tools</title>
<polygon fill="#343434" stroke="#343434" points="834,-721 628,-721 628,-685 834,-685 834,-721"/>
<text text-anchor="middle" x="731" y="-699.3" font-family="Courier,monospace" font-size="14.00" fill="#b6ecf3">shekels.core.data_tools</text>
</g>
<!-- shekels.core.config&#45;&gt;shekels.core.data_tools -->
<g id="edge1" class="edge">
<title>shekels.core.config&#45;&gt;shekels.core.data_tools</title>
<path fill="none" stroke="#b6ecf3" d="M498.72,-288.16C528.14,-305.84 569.53,-335.5 592,-373 635.5,-445.6 594.66,-482.21 628,-560 647.27,-604.96 682.44,-649.72 706.01,-676.88"/>
<polygon fill="#b6ecf3" stroke="#b6ecf3" points="703.69,-679.54 712.93,-684.72 708.94,-674.91 703.69,-679.54"/>
</g>
<!-- shekels.core.database -->
<g id="node5" class="node">
<title>shekels.core.database</title>
<polygon fill="#343434" stroke="#343434" points="1093,-358 903,-358 903,-322 1093,-322 1093,-358"/>
<text text-anchor="middle" x="998" y="-336.3" font-family="Courier,monospace" font-size="14.00" fill="#b6ecf3">shekels.core.database</text>
</g>
<!-- shekels.core.config&#45;&gt;shekels.core.database -->
<g id="edge2" class="edge">
<title>shekels.core.config&#45;&gt;shekels.core.database</title>
<path fill="none" stroke="#b6ecf3" d="M550.77,-281.29C643.97,-293.55 792.89,-313.14 892.77,-326.29"/>
<polygon fill="#b6ecf3" stroke="#b6ecf3" points="892.51,-329.78 902.88,-327.62 893.42,-322.84 892.51,-329.78"/>
</g>
<!-- shekels.server.app -->
<g id="node8" class="node">
<title>shekels.server.app</title>
<polygon fill="#343434" stroke="#343434" points="1861,-339 1696,-339 1696,-303 1861,-303 1861,-339"/>
<text text-anchor="middle" x="1778.5" y="-317.3" font-family="Courier,monospace" font-size="14.00" fill="#b6ecf3">shekels.server.app</text>
</g>
<!-- shekels.core.config&#45;&gt;shekels.server.app -->
<g id="edge3" class="edge">
<title>shekels.core.config&#45;&gt;shekels.server.app</title>
<path fill="none" stroke="#b6ecf3" d="M493.38,-251.87C524.88,-232.82 577.9,-203.87 628,-191 787.06,-150.15 832.78,-172 997,-172 997,-172 997,-172 1282.5,-172 1450.49,-172 1508.23,-118.98 1660,-191 1706.53,-213.08 1742.9,-262.81 1762.2,-293.96"/>
<polygon fill="#b6ecf3" stroke="#b6ecf3" points="1759.25,-295.84 1767.42,-302.6 1765.25,-292.23 1759.25,-295.84"/>
</g>
<!-- shekels.server.components -->
<g id="node9" class="node">
<title>shekels.server.components</title>
<polygon fill="#343434" stroke="#343434" points="1109.5,-932 886.5,-932 886.5,-896 1109.5,-896 1109.5,-932"/>
<text text-anchor="middle" x="998" y="-910.3" font-family="Courier,monospace" font-size="14.00" fill="#b6ecf3">shekels.server.components</text>
</g>
<!-- shekels.core.config&#45;&gt;shekels.server.components -->
<g id="edge4" class="edge">
<title>shekels.core.config&#45;&gt;shekels.server.components</title>
<path fill="none" stroke="#b6ecf3" d="M497.8,-288.03C527.01,-305.81 568.65,-335.71 592,-373 629.31,-432.57 589.06,-468.48 628,-527 690.6,-621.07 755.13,-595.08 834,-676 899.73,-743.44 956.85,-840.22 982.54,-886.85"/>
<polygon fill="#b6ecf3" stroke="#b6ecf3" points="979.53,-888.64 987.39,-895.75 985.67,-885.29 979.53,-888.64"/>
</g>
<!-- shekels.server.server_tools -->
<g id="node11" class="node">
<title>shekels.server.server_tools</title>
<polygon fill="#343434" stroke="#343434" points="1401,-675 1162,-675 1162,-639 1401,-639 1401,-675"/>
<text text-anchor="middle" x="1281.5" y="-653.3" font-family="Courier,monospace" font-size="14.00" fill="#b6ecf3">shekels.server.server_tools</text>
</g>
<!-- shekels.core.config&#45;&gt;shekels.server.server_tools -->
<g id="edge5" class="edge">
<title>shekels.core.config&#45;&gt;shekels.server.server_tools</title>
<path fill="none" stroke="#b6ecf3" d="M550.62,-270.62C718.84,-272.55 1080.16,-280.48 1126,-313 1153.98,-332.85 1239.7,-550.78 1269.87,-629.14"/>
<polygon fill="#b6ecf3" stroke="#b6ecf3" points="1266.73,-630.74 1273.58,-638.82 1273.27,-628.23 1266.73,-630.74"/>
</g>
<!-- shekels.core.data_tools&#45;&gt;shekels.core.database -->
<g id="edge6" class="edge">
<title>shekels.core.data_tools&#45;&gt;shekels.core.database</title>
<path fill="none" stroke="#b6ecf3" d="M745.14,-685C788.41,-625.73 926.55,-436.5 977.71,-366.43"/>
<polygon fill="#b6ecf3" stroke="#b6ecf3" points="980.71,-368.25 983.78,-358.11 975.06,-364.12 980.71,-368.25"/>
</g>
<!-- shekels.core.data_tools&#45;&gt;shekels.server.components -->
<g id="edge7" class="edge">
<title>shekels.core.data_tools&#45;&gt;shekels.server.components</title>
<path fill="none" stroke="#b6ecf3" d="M767.69,-721.07C787.86,-731.9 813.12,-746.54 834,-762 887.32,-801.49 942.34,-856.27 972.86,-888.14"/>
<polygon fill="#b6ecf3" stroke="#b6ecf3" points="970.65,-890.89 980.08,-895.73 975.72,-886.07 970.65,-890.89"/>
</g>
<!-- shekels.core.data_tools&#45;&gt;shekels.server.server_tools -->
<g id="edge8" class="edge">
<title>shekels.core.data_tools&#45;&gt;shekels.server.server_tools</title>
<path fill="none" stroke="#b6ecf3" d="M834.41,-715.53C914.39,-722.81 1028.03,-727.63 1126,-711 1162.4,-704.82 1201.65,-691 1231.48,-678.89"/>
<polygon fill="#b6ecf3" stroke="#b6ecf3" points="1232.92,-682.09 1240.82,-675.03 1230.24,-675.62 1232.92,-682.09"/>
</g>
<!-- shekels.server.api -->
<g id="node7" class="node">
<title>shekels.server.api</title>
<polygon fill="#343434" stroke="#343434" points="1631,-461 1466,-461 1466,-425 1631,-425 1631,-461"/>
<text text-anchor="middle" x="1548.5" y="-439.3" font-family="Courier,monospace" font-size="14.00" fill="#b6ecf3">shekels.server.api</text>
</g>
<!-- shekels.core.database&#45;&gt;shekels.server.api -->
<g id="edge9" class="edge">
<title>shekels.core.database&#45;&gt;shekels.server.api</title>
<path fill="none" stroke="#b6ecf3" d="M1093.1,-355.83C1192.8,-372.71 1343.6,-398.54 1401,-410 1420.47,-413.88 1441.31,-418.38 1460.99,-422.77"/>
<polygon fill="#b6ecf3" stroke="#b6ecf3" points="1460.33,-426.21 1470.86,-424.99 1461.87,-419.38 1460.33,-426.21"/>
</g>
<!-- shekels.enforce.enforce_tools -->
<g id="node6" class="node">
<title>shekels.enforce.enforce_tools</title>
<polygon fill="#343434" stroke="#343434" points="592,-1008 336,-1008 336,-972 592,-972 592,-1008"/>
<text text-anchor="middle" x="464" y="-986.3" font-family="Courier,monospace" font-size="14.00" fill="#b6ecf3">shekels.enforce.enforce_tools</text>
</g>
<!-- shekels.enforce.enforce_tools&#45;&gt;shekels.core.data_tools -->
<g id="edge10" class="edge">
<title>shekels.enforce.enforce_tools&#45;&gt;shekels.core.data_tools</title>
<path fill="none" stroke="#b6ecf3" d="M514.99,-971.9C540.12,-961.05 569.85,-945.38 592,-925 654.38,-867.6 699.2,-775.77 718.87,-730.32"/>
<polygon fill="#b6ecf3" stroke="#b6ecf3" points="722.1,-731.66 722.8,-721.09 715.66,-728.92 722.1,-731.66"/>
</g>
<!-- shekels.server.api&#45;&gt;shekels.server.app -->
<g id="edge11" class="edge">
<title>shekels.server.api&#45;&gt;shekels.server.app</title>
<path fill="none" stroke="#b6ecf3" d="M1583.14,-425C1623.39,-403.46 1690.82,-367.38 1734.73,-343.89"/>
<polygon fill="#b6ecf3" stroke="#b6ecf3" points="1736.55,-346.88 1743.72,-339.08 1733.25,-340.71 1736.55,-346.88"/>
</g>
<!-- shekels.server.components&#45;&gt;shekels.server.app -->
<g id="edge12" class="edge">
<title>shekels.server.components&#45;&gt;shekels.server.app</title>
<path fill="none" stroke="#b6ecf3" d="M1053.75,-895.89C1176.39,-852.95 1476.75,-734.21 1660,-546 1717.3,-487.14 1753.45,-394.71 1768.87,-348.8"/>
<polygon fill="#b6ecf3" stroke="#b6ecf3" points="1772.23,-349.81 1772.02,-339.21 1765.58,-347.62 1772.23,-349.81"/>
</g>
<!-- shekels.server.components&#45;&gt;shekels.server.server_tools -->
<g id="edge13" class="edge">
<title>shekels.server.components&#45;&gt;shekels.server.server_tools</title>
<path fill="none" stroke="#b6ecf3" d="M1104.86,-895.92C1112.47,-892.1 1119.65,-887.51 1126,-882 1157.92,-854.31 1139.89,-830.01 1162,-794 1188.21,-751.32 1227.68,-708.71 1253.76,-682.61"/>
<polygon fill="#b6ecf3" stroke="#b6ecf3" points="1256.42,-684.9 1261.07,-675.38 1251.5,-679.93 1256.42,-684.9"/>
</g>
<!-- shekels.server.event_listener -->
<g id="node10" class="node">
<title>shekels.server.event_listener</title>
<polygon fill="#343434" stroke="#343434" points="1126,-1146 870,-1146 870,-1110 1126,-1110 1126,-1146"/>
<text text-anchor="middle" x="998" y="-1124.3" font-family="Courier,monospace" font-size="14.00" fill="#b6ecf3">shekels.server.event_listener</text>
</g>
<!-- shekels.server.event_listener&#45;&gt;shekels.server.app -->
<g id="edge14" class="edge">
<title>shekels.server.event_listener&#45;&gt;shekels.server.app</title>
<path fill="none" stroke="#b6ecf3" d="M1055.09,-1146.04C1181.17,-1182.73 1489.23,-1250.17 1660,-1096 1773.24,-993.77 1778.25,-476.11 1777.75,-349.15"/>
<polygon fill="#b6ecf3" stroke="#b6ecf3" points="1781.25,-349.04 1777.7,-339.06 1774.25,-349.08 1781.25,-349.04"/>
</g>
<!-- shekels.server.server_tools&#45;&gt;shekels.server.api -->
<g id="edge15" class="edge">
<title>shekels.server.server_tools&#45;&gt;shekels.server.api</title>
<path fill="none" stroke="#b6ecf3" d="M1305.09,-638.75C1352.72,-600.3 1463.42,-510.9 1517.15,-467.51"/>
<polygon fill="#b6ecf3" stroke="#b6ecf3" points="1519.38,-470.21 1524.96,-461.2 1514.98,-464.76 1519.38,-470.21"/>
</g>
<!-- shekels.server.server_tools&#45;&gt;shekels.server.app -->
<g id="edge16" class="edge">
<title>shekels.server.server_tools&#45;&gt;shekels.server.app</title>
<path fill="none" stroke="#b6ecf3" d="M1336.49,-638.92C1413.87,-611.2 1558.18,-552.59 1660,-470 1703.55,-434.68 1741.13,-380.46 1761.43,-348.09"/>
<polygon fill="#b6ecf3" stroke="#b6ecf3" points="1764.65,-349.53 1766.92,-339.18 1758.69,-345.85 1764.65,-349.53"/>
</g>
<!-- click -->
<g id="node12" class="node">
<title>click</title>
<polygon fill="#343434" stroke="#343434" points="66,-1268 8,-1268 8,-1232 66,-1232 66,-1268"/>
<text text-anchor="middle" x="37" y="-1246.3" font-family="Courier,monospace" font-size="14.00" fill="#de958e">click</text>
</g>
<!-- click&#45;&gt;shekels.command -->
<g id="edge17" class="edge">
<title>click&#45;&gt;shekels.command</title>
<path fill="none" stroke="#de958e" d="M66.16,-1250C82.38,-1250 103.65,-1250 124.61,-1250"/>
<polygon fill="#de958e" stroke="#de958e" points="124.86,-1253.5 134.86,-1250 124.86,-1246.5 124.86,-1253.5"/>
</g>
<!-- shekels.server -->
<g id="node13" class="node">
<title>shekels.server</title>
<polygon fill="#343434" stroke="#343434" points="797,-1230 665,-1230 665,-1194 797,-1194 797,-1230"/>
<text text-anchor="middle" x="731" y="-1208.3" font-family="Courier,monospace" font-size="14.00" fill="#a0d17b">shekels.server</text>
</g>
<!-- shekels.server&#45;&gt;shekels.server.api -->
<g id="edge18" class="edge">
<title>shekels.server&#45;&gt;shekels.server.api</title>
<path fill="none" stroke="#a0d17b" d="M797.27,-1215.38C894.82,-1219.22 1072.89,-1221.18 1126,-1188 1404.68,-1013.91 1516.41,-584.75 1541.68,-471.03"/>
<polygon fill="#a0d17b" stroke="#a0d17b" points="1545.15,-471.54 1543.86,-461.03 1538.31,-470.06 1545.15,-471.54"/>
</g>
<!-- shekels.server&#45;&gt;shekels.server.app -->
<g id="edge19" class="edge">
<title>shekels.server&#45;&gt;shekels.server.app</title>
<path fill="none" stroke="#a0d17b" d="M787.6,-1230.05C948.28,-1278.36 1417.19,-1391.52 1660,-1155 1777.92,-1040.13 1779.31,-482.11 1777.93,-349.38"/>
<polygon fill="#a0d17b" stroke="#a0d17b" points="1781.43,-349.17 1777.81,-339.21 1774.43,-349.25 1781.43,-349.17"/>
</g>
<!-- shekels.server&#45;&gt;shekels.server.components -->
<g id="edge20" class="edge">
<title>shekels.server&#45;&gt;shekels.server.components</title>
<path fill="none" stroke="#a0d17b" d="M767.48,-1193.98C788.29,-1182.35 814.29,-1165.88 834,-1147 851.77,-1129.98 940.69,-998.2 979.19,-940.69"/>
<polygon fill="#a0d17b" stroke="#a0d17b" points="982.27,-942.39 984.92,-932.13 976.45,-938.5 982.27,-942.39"/>
</g>
<!-- shekels.server&#45;&gt;shekels.server.event_listener -->
<g id="edge21" class="edge">
<title>shekels.server&#45;&gt;shekels.server.event_listener</title>
<path fill="none" stroke="#a0d17b" d="M796.39,-1193.99C809.03,-1189.84 822.06,-1185.13 834,-1180 850.82,-1172.78 852.98,-1166.74 870,-1160 880.38,-1155.89 891.46,-1152.18 902.57,-1148.86"/>
<polygon fill="#a0d17b" stroke="#a0d17b" points="903.7,-1152.18 912.34,-1146.05 901.76,-1145.46 903.7,-1152.18"/>
</g>
<!-- shekels.server&#45;&gt;shekels.server.server_tools -->
<g id="edge22" class="edge">
<title>shekels.server&#45;&gt;shekels.server.server_tools</title>
<path fill="none" stroke="#a0d17b" d="M797.15,-1204.41C905.85,-1191.48 1113.62,-1165.58 1126,-1155 1271.89,-1030.41 1282.11,-770.79 1281.31,-685.11"/>
<polygon fill="#a0d17b" stroke="#a0d17b" points="1284.81,-685.04 1281.16,-675.1 1277.81,-685.15 1284.81,-685.04"/>
</g>
<!-- shekels -->
<g id="node14" class="node">
<title>shekels</title>
<polygon fill="#343434" stroke="#343434" points="74,-1123 0,-1123 0,-1087 74,-1087 74,-1123"/>
<text text-anchor="middle" x="37" y="-1101.3" font-family="Courier,monospace" font-size="14.00" fill="#a0d17b">shekels</text>
</g>
<!-- shekels&#45;&gt;shekels.command -->
<g id="edge23" class="edge">
<title>shekels&#45;&gt;shekels.command</title>
<path fill="none" stroke="#a0d17b" d="M45.09,-1123.38C55.6,-1148.28 77.62,-1192.57 110,-1218 114.89,-1221.84 120.28,-1225.24 125.91,-1228.24"/>
<polygon fill="#a0d17b" stroke="#a0d17b" points="124.42,-1231.4 134.94,-1232.63 127.48,-1225.11 124.42,-1231.4"/>
</g>
<!-- shekels&#45;&gt;shekels.server -->
<g id="edge24" class="edge">
<title>shekels&#45;&gt;shekels.server</title>
<path fill="none" stroke="#a0d17b" d="M74.04,-1113.61C129.88,-1126.7 240.78,-1151.69 336,-1167 446.27,-1184.73 574.99,-1198.06 654.51,-1205.45"/>
<polygon fill="#a0d17b" stroke="#a0d17b" points="654.63,-1208.97 664.91,-1206.4 655.28,-1202 654.63,-1208.97"/>
</g>
<!-- shekels.enforce -->
<g id="node16" class="node">
<title>shekels.enforce</title>
<polygon fill="#343434" stroke="#343434" points="275,-1031 135,-1031 135,-995 275,-995 275,-1031"/>
<text text-anchor="middle" x="205" y="-1009.3" font-family="Courier,monospace" font-size="14.00" fill="#a0d17b">shekels.enforce</text>
</g>
<!-- shekels&#45;&gt;shekels.enforce -->
<g id="edge25" class="edge">
<title>shekels&#45;&gt;shekels.enforce</title>
<path fill="none" stroke="#a0d17b" d="M68.33,-1086.95C81.12,-1079.43 96.22,-1070.68 110,-1063 126.2,-1053.97 144.13,-1044.34 159.96,-1035.97"/>
<polygon fill="#a0d17b" stroke="#a0d17b" points="161.79,-1038.96 169,-1031.2 158.53,-1032.77 161.79,-1038.96"/>
</g>
<!-- shekels.core -->
<g id="node20" class="node">
<title>shekels.core</title>
<polygon fill="#343434" stroke="#343434" points="263,-436 147,-436 147,-400 263,-400 263,-436"/>
<text text-anchor="middle" x="205" y="-414.3" font-family="Courier,monospace" font-size="14.00" fill="#a0d17b">shekels.core</text>
</g>
<!-- shekels&#45;&gt;shekels.core -->
<g id="edge26" class="edge">
<title>shekels&#45;&gt;shekels.core</title>
<path fill="none" stroke="#a0d17b" d="M67.48,-1086.68C70.04,-1084.06 72.29,-1081.16 74,-1078 134.01,-966.92 57.7,-625.91 110,-511 122.68,-483.15 147.64,-459.08 168.66,-442.42"/>
<polygon fill="#a0d17b" stroke="#a0d17b" points="170.98,-445.05 176.78,-436.18 166.72,-439.49 170.98,-445.05"/>
</g>
<!-- dash -->
<g id="node15" class="node">
<title>dash</title>
<polygon fill="#343434" stroke="#343434" points="758,-1138 704,-1138 704,-1102 758,-1102 758,-1138"/>
<text text-anchor="middle" x="731" y="-1116.3" font-family="Courier,monospace" font-size="14.00" fill="#de958e">dash</text>
</g>
<!-- dash&#45;&gt;shekels.server.app -->
<g id="edge27" class="edge">
<title>dash&#45;&gt;shekels.server.app</title>
<path fill="none" stroke="#de958e" d="M758.06,-1116.26C843.24,-1104 1108.93,-1065.36 1126,-1058 1401.5,-939.18 1483.19,-887.4 1660,-645 1729.54,-549.66 1761.67,-408.92 1772.76,-349.32"/>
<polygon fill="#de958e" stroke="#de958e" points="1776.26,-349.62 1774.59,-339.16 1769.37,-348.38 1776.26,-349.62"/>
</g>
<!-- dash&#45;&gt;shekels.server.components -->
<g id="edge28" class="edge">
<title>dash&#45;&gt;shekels.server.components</title>
<path fill="none" stroke="#de958e" d="M758.23,-1116.93C780.35,-1113.22 811.85,-1105.17 834,-1088 857.97,-1069.41 850.62,-1053.34 870,-1030 899.05,-995.02 938.46,-960.62 965.64,-938.48"/>
<polygon fill="#de958e" stroke="#de958e" points="968.07,-941.02 973.66,-932.02 963.68,-935.57 968.07,-941.02"/>
</g>
<!-- dash&#45;&gt;shekels.server.event_listener -->
<g id="edge29" class="edge">
<title>dash&#45;&gt;shekels.server.event_listener</title>
<path fill="none" stroke="#de958e" d="M758.38,-1120.8C782.71,-1121.53 820.83,-1122.68 859.52,-1123.85"/>
<polygon fill="#de958e" stroke="#de958e" points="859.79,-1127.36 869.89,-1124.16 860,-1120.36 859.79,-1127.36"/>
</g>
<!-- dash&#45;&gt;shekels.server.server_tools -->
<g id="edge30" class="edge">
<title>dash&#45;&gt;shekels.server.server_tools</title>
<path fill="none" stroke="#de958e" d="M758.09,-1113.39C779.02,-1107.72 808.93,-1098.76 834,-1088 850.82,-1080.78 852.78,-1074.21 870,-1068 978.89,-1028.72 1035.76,-1092.51 1126,-1020 1234.71,-932.65 1268.23,-754.62 1277.39,-685.41"/>
<polygon fill="#de958e" stroke="#de958e" points="1280.9,-685.63 1278.66,-675.27 1273.95,-684.76 1280.9,-685.63"/>
</g>
<!-- shekels.enforce&#45;&gt;shekels.enforce.enforce_tools -->
<g id="edge31" class="edge">
<title>shekels.enforce&#45;&gt;shekels.enforce.enforce_tools</title>
<path fill="none" stroke="#a0d17b" d="M275.21,-1006.81C290.87,-1005.4 308.03,-1003.87 325.42,-1002.31"/>
<polygon fill="#a0d17b" stroke="#a0d17b" points="326.02,-1005.77 335.67,-1001.4 325.4,-998.8 326.02,-1005.77"/>
</g>
<!-- flask -->
<g id="node17" class="node">
<title>flask</title>
<polygon fill="#343434" stroke="#343434" points="760,-518 702,-518 702,-482 760,-482 760,-518"/>
<text text-anchor="middle" x="731" y="-496.3" font-family="Courier,monospace" font-size="14.00" fill="#de958e">flask</text>
</g>
<!-- flask&#45;&gt;shekels.server.api -->
<g id="edge32" class="edge">
<title>flask&#45;&gt;shekels.server.api</title>
<path fill="none" stroke="#de958e" d="M760.27,-501.34C852.86,-505.24 1155.21,-514 1401,-476 1417.41,-473.46 1420.86,-469.92 1437,-466 1443.12,-464.51 1449.45,-463.04 1455.84,-461.59"/>
<polygon fill="#de958e" stroke="#de958e" points="1456.9,-464.94 1465.9,-459.35 1455.38,-458.11 1456.9,-464.94"/>
</g>
<!-- flask&#45;&gt;shekels.server.app -->
<g id="edge33" class="edge">
<title>flask&#45;&gt;shekels.server.app</title>
<path fill="none" stroke="#de958e" d="M760.21,-496.79C829.21,-487.71 1009.41,-456.4 1126,-367 1148.89,-349.45 1136.57,-326.61 1162,-313 1249.9,-265.96 1536.64,-291.74 1685.68,-309.18"/>
<polygon fill="#de958e" stroke="#de958e" points="1685.38,-312.67 1695.73,-310.37 1686.21,-305.72 1685.38,-312.67"/>
</g>
<!-- flask&#45;&gt;shekels.server.components -->
<g id="edge34" class="edge">
<title>flask&#45;&gt;shekels.server.components</title>
<path fill="none" stroke="#de958e" d="M760.4,-501.27C783.56,-503.87 815.38,-511.3 834,-532 888.27,-592.33 839.99,-635.6 870,-711 897.25,-779.48 947.67,-850.47 976.09,-887.65"/>
<polygon fill="#de958e" stroke="#de958e" points="973.6,-890.15 982.48,-895.92 979.14,-885.87 973.6,-890.15"/>
</g>
<!-- flask&#45;&gt;shekels.server.server_tools -->
<g id="edge35" class="edge">
<title>flask&#45;&gt;shekels.server.server_tools</title>
<path fill="none" stroke="#de958e" d="M760.05,-503.73C838.3,-514.34 1057.66,-545.49 1126,-570 1169.91,-585.75 1215.97,-613.34 1246.25,-633.23"/>
<polygon fill="#de958e" stroke="#de958e" points="1244.48,-636.25 1254.74,-638.88 1248.36,-630.43 1244.48,-636.25"/>
</g>
<!-- dash.dependencies -->
<g id="node18" class="node">
<title>dash.dependencies</title>
<polygon fill="#343434" stroke="#343434" points="1627,-236 1470,-236 1470,-200 1627,-200 1627,-236"/>
<text text-anchor="middle" x="1548.5" y="-214.3" font-family="Courier,monospace" font-size="14.00" fill="#de958e">dash.dependencies</text>
</g>
<!-- dash.dependencies&#45;&gt;shekels.server.app -->
<g id="edge36" class="edge">
<title>dash.dependencies&#45;&gt;shekels.server.app</title>
<path fill="none" stroke="#de958e" d="M1622.09,-236.07C1634.93,-240.1 1648.02,-244.75 1660,-250 1689.62,-262.97 1720.85,-282.13 1743.66,-297.28"/>
<polygon fill="#de958e" stroke="#de958e" points="1741.71,-300.19 1751.97,-302.87 1745.62,-294.39 1741.71,-300.19"/>
</g>
<!-- dash.exceptions -->
<g id="node19" class="node">
<title>dash.exceptions</title>
<polygon fill="#343434" stroke="#343434" points="1068,-648 928,-648 928,-612 1068,-612 1068,-648"/>
<text text-anchor="middle" x="998" y="-626.3" font-family="Courier,monospace" font-size="14.00" fill="#de958e">dash.exceptions</text>
</g>
<!-- dash.exceptions&#45;&gt;shekels.server.server_tools -->
<g id="edge37" class="edge">
<title>dash.exceptions&#45;&gt;shekels.server.server_tools</title>
<path fill="none" stroke="#de958e" d="M1068.22,-636.64C1093.49,-639.06 1122.94,-641.89 1151.72,-644.65"/>
<polygon fill="#de958e" stroke="#de958e" points="1151.58,-648.15 1161.87,-645.62 1152.25,-641.18 1151.58,-648.15"/>
</g>
<!-- shekels.core&#45;&gt;shekels.core.config -->
<g id="edge38" class="edge">
<title>shekels.core&#45;&gt;shekels.core.config</title>
<path fill="none" stroke="#a0d17b" d="M221.23,-399.72C243.67,-373.98 288.17,-327.37 336,-302 345.87,-296.77 356.62,-292.36 367.56,-288.67"/>
<polygon fill="#a0d17b" stroke="#a0d17b" points="368.74,-291.96 377.2,-285.59 366.61,-285.29 368.74,-291.96"/>
</g>
<!-- shekels.core&#45;&gt;shekels.core.data_tools -->
<g id="edge39" class="edge">
<title>shekels.core&#45;&gt;shekels.core.data_tools</title>
<path fill="none" stroke="#a0d17b" d="M238.91,-436.09C264.75,-449.76 301.93,-468.28 336,-481 446.4,-522.21 491.55,-488.4 592,-550 645.19,-582.61 689.96,-641.81 713.09,-676.22"/>
<polygon fill="#a0d17b" stroke="#a0d17b" points="710.34,-678.4 718.77,-684.82 716.18,-674.55 710.34,-678.4"/>
</g>
<!-- shekels.core&#45;&gt;shekels.core.database -->
<g id="edge40" class="edge">
<title>shekels.core&#45;&gt;shekels.core.database</title>
<path fill="none" stroke="#a0d17b" d="M227.74,-399.83C252.24,-380.64 294.15,-351.59 336,-340 437.52,-311.88 733.4,-324.09 892.64,-333.25"/>
<polygon fill="#a0d17b" stroke="#a0d17b" points="892.74,-336.76 902.93,-333.85 893.15,-329.78 892.74,-336.76"/>
</g>
<!-- flasgger -->
<g id="node21" class="node">
<title>flasgger</title>
<polygon fill="#343434" stroke="#343434" points="1323,-358 1240,-358 1240,-322 1323,-322 1323,-358"/>
<text text-anchor="middle" x="1281.5" y="-336.3" font-family="Courier,monospace" font-size="14.00" fill="#de958e">flasgger</text>
</g>
<!-- flasgger&#45;&gt;shekels.server.api -->
<g id="edge41" class="edge">
<title>flasgger&#45;&gt;shekels.server.api</title>
<path fill="none" stroke="#de958e" d="M1323.13,-348.97C1346.29,-354.58 1375.65,-362.53 1401,-372 1437.43,-385.61 1477.03,-405.1 1505.86,-420.22"/>
<polygon fill="#de958e" stroke="#de958e" points="1504.35,-423.38 1514.82,-424.96 1507.62,-417.19 1504.35,-423.38"/>
</g>
<!-- flasgger&#45;&gt;shekels.server.app -->
<g id="edge42" class="edge">
<title>flasgger&#45;&gt;shekels.server.app</title>
<path fill="none" stroke="#de958e" d="M1323.01,-338.45C1401.74,-335.42 1577.2,-328.69 1685.62,-324.53"/>
<polygon fill="#de958e" stroke="#de958e" points="1686.04,-328.01 1695.9,-324.13 1685.77,-321.02 1686.04,-328.01"/>
</g>
<!-- lunchbox.enforce -->
<g id="node22" class="node">
<title>lunchbox.enforce</title>
<polygon fill="#343434" stroke="#343434" points="279.5,-1108 130.5,-1108 130.5,-1072 279.5,-1072 279.5,-1108"/>
<text text-anchor="middle" x="205" y="-1086.3" font-family="Courier,monospace" font-size="14.00" fill="#de958e">lunchbox.enforce</text>
</g>
<!-- lunchbox.enforce&#45;&gt;shekels.core.data_tools -->
<g id="edge43" class="edge">
<title>lunchbox.enforce&#45;&gt;shekels.core.data_tools</title>
<path fill="none" stroke="#de958e" d="M267.15,-1071.97C288.77,-1066.02 313.35,-1059.71 336,-1055 448.61,-1031.56 500.57,-1086.8 592,-1017 604.32,-1007.6 687.88,-805.79 718.65,-730.76"/>
<polygon fill="#de958e" stroke="#de958e" points="722.08,-731.63 722.63,-721.05 715.6,-728.98 722.08,-731.63"/>
</g>
<!-- lunchbox.enforce&#45;&gt;shekels.enforce.enforce_tools -->
<g id="edge44" class="edge">
<title>lunchbox.enforce&#45;&gt;shekels.enforce.enforce_tools</title>
<path fill="none" stroke="#de958e" d="M240.08,-1071.92C276.9,-1052.43 331.02,-1023.9 336,-1022 346.79,-1017.89 358.29,-1014.14 369.81,-1010.79"/>
<polygon fill="#de958e" stroke="#de958e" points="370.79,-1014.15 379.47,-1008.06 368.89,-1007.41 370.79,-1014.15"/>
</g>
<!-- lunchbox.enforce&#45;&gt;shekels.server.components -->
<g id="edge45" class="edge">
<title>lunchbox.enforce&#45;&gt;shekels.server.components</title>
<path fill="none" stroke="#de958e" d="M279.54,-1105.08C357.94,-1118.52 485.23,-1132.7 592,-1109 599.24,-1107.39 827.32,-999.24 834,-996 874.34,-976.44 919.9,-953.44 952.57,-936.79"/>
<polygon fill="#de958e" stroke="#de958e" points="954.54,-939.72 961.85,-932.05 951.36,-933.48 954.54,-939.72"/>
</g>
<!-- lunchbox.enforce&#45;&gt;shekels.server.event_listener -->
<g id="edge46" class="edge">
<title>lunchbox.enforce&#45;&gt;shekels.server.event_listener</title>
<path fill="none" stroke="#de958e" d="M241.06,-1108.08C266.63,-1120.25 302.52,-1135.25 336,-1142 517.95,-1178.66 733.77,-1163.42 868.08,-1147.22"/>
<polygon fill="#de958e" stroke="#de958e" points="868.51,-1150.69 878.01,-1146 867.66,-1143.75 868.51,-1150.69"/>
</g>
<!-- pandas -->
<g id="node23" class="node">
<title>pandas</title>
<polygon fill="#343434" stroke="#343434" points="238,-916 172,-916 172,-880 238,-880 238,-916"/>
<text text-anchor="middle" x="205" y="-894.3" font-family="Courier,monospace" font-size="14.00" fill="#de958e">pandas</text>
</g>
<!-- pandas&#45;&gt;shekels.core.data_tools -->
<g id="edge47" class="edge">
<title>pandas&#45;&gt;shekels.core.data_tools</title>
<path fill="none" stroke="#de958e" d="M238.1,-881.81C264.12,-869.02 301.92,-851.19 336,-838 447.29,-794.91 479.48,-796.77 592,-757 620.18,-747.04 651.2,-735 676.68,-724.82"/>
<polygon fill="#de958e" stroke="#de958e" points="678.18,-727.99 686.15,-721.02 675.57,-721.49 678.18,-727.99"/>
</g>
<!-- pandas&#45;&gt;shekels.core.database -->
<g id="edge48" class="edge">
<title>pandas&#45;&gt;shekels.core.database</title>
<path fill="none" stroke="#de958e" d="M238.05,-891.46C360.12,-866.29 791.24,-774.81 834,-730 874.5,-687.56 849.17,-657.84 870,-603 903.86,-513.87 956.5,-413.77 982.06,-366.92"/>
<polygon fill="#de958e" stroke="#de958e" points="985.21,-368.46 986.94,-358.01 979.07,-365.1 985.21,-368.46"/>
</g>
<!-- pandas&#45;&gt;shekels.enforce.enforce_tools -->
<g id="edge49" class="edge">
<title>pandas&#45;&gt;shekels.enforce.enforce_tools</title>
<path fill="none" stroke="#de958e" d="M238.16,-914.88C264.05,-927.97 301.66,-945.87 336,-958 347.59,-962.09 359.94,-965.89 372.23,-969.32"/>
<polygon fill="#de958e" stroke="#de958e" points="371.48,-972.74 382.05,-972 373.32,-965.99 371.48,-972.74"/>
</g>
<!-- pandas&#45;&gt;shekels.server.components -->
<g id="edge50" class="edge">
<title>pandas&#45;&gt;shekels.server.components</title>
<path fill="none" stroke="#de958e" d="M238.03,-906.57C264.17,-913.09 302.18,-921.52 336,-925 556.19,-947.62 612.75,-926.36 834,-920 847.55,-919.61 861.74,-919.16 875.84,-918.68"/>
<polygon fill="#de958e" stroke="#de958e" points="876.22,-922.17 886.09,-918.32 875.98,-915.17 876.22,-922.17"/>
</g>
<!-- cufflinks -->
<g id="node24" class="node">
<title>cufflinks</title>
<polygon fill="#343434" stroke="#343434" points="509.5,-694 418.5,-694 418.5,-658 509.5,-658 509.5,-694"/>
<text text-anchor="middle" x="464" y="-672.3" font-family="Courier,monospace" font-size="14.00" fill="#de958e">cufflinks</text>
</g>
<!-- cufflinks&#45;&gt;shekels.core.data_tools -->
<g id="edge51" class="edge">
<title>cufflinks&#45;&gt;shekels.core.data_tools</title>
<path fill="none" stroke="#de958e" d="M509.65,-680.55C539.31,-683.57 579.65,-687.68 617.71,-691.56"/>
<polygon fill="#de958e" stroke="#de958e" points="617.54,-695.06 627.85,-692.59 618.25,-688.1 617.54,-695.06"/>
</g>
<!-- schematics.exceptions -->
<g id="node25" class="node">
<title>schematics.exceptions</title>
<polygon fill="#343434" stroke="#343434" points="300,-556 110,-556 110,-520 300,-520 300,-556"/>
<text text-anchor="middle" x="205" y="-534.3" font-family="Courier,monospace" font-size="14.00" fill="#de958e">schematics.exceptions</text>
</g>
<!-- schematics.exceptions&#45;&gt;shekels.core.config -->
<g id="edge52" class="edge">
<title>schematics.exceptions&#45;&gt;shekels.core.config</title>
<path fill="none" stroke="#de958e" d="M229.93,-519.73C251.01,-502.52 281.21,-474.94 300,-445 326.23,-403.22 304.27,-377.77 336,-340 353.44,-319.24 378.69,-303.56 402.08,-292.35"/>
<polygon fill="#de958e" stroke="#de958e" points="403.65,-295.48 411.28,-288.13 400.73,-289.12 403.65,-295.48"/>
</g>
<!-- schematics.exceptions&#45;&gt;shekels.core.data_tools -->
<g id="edge53" class="edge">
<title>schematics.exceptions&#45;&gt;shekels.core.data_tools</title>
<path fill="none" stroke="#de958e" d="M300.33,-549.36C405.9,-562.49 565.7,-583.71 592,-595 637.29,-614.44 680.53,-652.52 706.17,-677.87"/>
<polygon fill="#de958e" stroke="#de958e" points="703.7,-680.36 713.23,-684.98 708.66,-675.42 703.7,-680.36"/>
</g>
<!-- schematics.exceptions&#45;&gt;shekels.server.api -->
<g id="edge54" class="edge">
<title>schematics.exceptions&#45;&gt;shekels.server.api</title>
<path fill="none" stroke="#de958e" d="M228.2,-519.79C248.67,-502.19 278.98,-474 300,-445 321,-416.03 305.57,-391.81 336,-373 383.41,-343.7 1180.55,-410.7 1455.3,-434.79"/>
<polygon fill="#de958e" stroke="#de958e" points="1455.37,-438.31 1465.64,-435.7 1455.98,-431.33 1455.37,-438.31"/>
</g>
<!-- schematics.exceptions&#45;&gt;shekels.server.components -->
<g id="edge55" class="edge">
<title>schematics.exceptions&#45;&gt;shekels.server.components</title>
<path fill="none" stroke="#de958e" d="M211.31,-556.06C224.71,-598.32 264.05,-704.08 336,-757 420.93,-819.46 709.54,-871.24 875.98,-896.8"/>
<polygon fill="#de958e" stroke="#de958e" points="875.85,-900.33 886.27,-898.38 876.91,-893.41 875.85,-900.33"/>
</g>
<!-- schematics.exceptions&#45;&gt;shekels.server.server_tools -->
<g id="edge56" class="edge">
<title>schematics.exceptions&#45;&gt;shekels.server.server_tools</title>
<path fill="none" stroke="#de958e" d="M300.32,-535.73C468.38,-533.64 829.8,-538.09 1126,-603 1160.79,-610.62 1198.54,-623.73 1228.02,-635.11"/>
<polygon fill="#de958e" stroke="#de958e" points="1227.1,-638.51 1237.69,-638.9 1229.65,-631.99 1227.1,-638.51"/>
</g>
<!-- numpy -->
<g id="node26" class="node">
<title>numpy</title>
<polygon fill="#343434" stroke="#343434" points="493,-418 435,-418 435,-382 493,-382 493,-418"/>
<text text-anchor="middle" x="464" y="-396.3" font-family="Courier,monospace" font-size="14.00" fill="#de958e">numpy</text>
</g>
<!-- numpy&#45;&gt;shekels.core.data_tools -->
<g id="edge57" class="edge">
<title>numpy&#45;&gt;shekels.core.data_tools</title>
<path fill="none" stroke="#de958e" d="M493.07,-398.09C521.67,-397.75 565.48,-401.9 592,-427 636.47,-469.1 601.81,-504.65 628,-560 649.04,-604.47 684.06,-649.67 707.1,-677.03"/>
<polygon fill="#de958e" stroke="#de958e" points="704.68,-679.59 713.83,-684.93 710,-675.05 704.68,-679.59"/>
</g>
<!-- numpy&#45;&gt;shekels.core.database -->
<g id="edge58" class="edge">
<title>numpy&#45;&gt;shekels.core.database</title>
<path fill="none" stroke="#de958e" d="M493.23,-396.82C566.95,-388.5 768.2,-365.8 892.88,-351.74"/>
<polygon fill="#de958e" stroke="#de958e" points="893.29,-355.22 902.84,-350.62 892.51,-348.26 893.29,-355.22"/>
</g>
<!-- pandasql -->
<g id="node27" class="node">
<title>pandasql</title>
<polygon fill="#343434" stroke="#343434" points="505.5,-472 422.5,-472 422.5,-436 505.5,-436 505.5,-472"/>
<text text-anchor="middle" x="464" y="-450.3" font-family="Courier,monospace" font-size="14.00" fill="#de958e">pandasql</text>
</g>
<!-- pandasql&#45;&gt;shekels.core.data_tools -->
<g id="edge59" class="edge">
<title>pandasql&#45;&gt;shekels.core.data_tools</title>
<path fill="none" stroke="#de958e" d="M505.55,-455.52C532.65,-458.46 567.65,-466.21 592,-486 620.38,-509.07 609.32,-528.56 628,-560 653.27,-602.53 687.47,-648.58 709.14,-676.61"/>
<polygon fill="#de958e" stroke="#de958e" points="706.53,-678.96 715.44,-684.71 712.06,-674.66 706.53,-678.96"/>
</g>
<!-- pandasql&#45;&gt;shekels.server.api -->
<g id="edge60" class="edge">
<title>pandasql&#45;&gt;shekels.server.api</title>
<path fill="none" stroke="#de958e" d="M505.79,-453.59C662.96,-451.99 1231.73,-446.21 1455.83,-443.93"/>
<polygon fill="#de958e" stroke="#de958e" points="1455.96,-447.43 1465.92,-443.83 1455.89,-440.43 1455.96,-447.43"/>
</g>
<!-- pyparsing -->
<g id="node28" class="node">
<title>pyparsing</title>
<polygon fill="#343434" stroke="#343434" points="509.5,-640 418.5,-640 418.5,-604 509.5,-604 509.5,-640"/>
<text text-anchor="middle" x="464" y="-618.3" font-family="Courier,monospace" font-size="14.00" fill="#de958e">pyparsing</text>
</g>
<!-- pyparsing&#45;&gt;shekels.core.data_tools -->
<g id="edge61" class="edge">
<title>pyparsing&#45;&gt;shekels.core.data_tools</title>
<path fill="none" stroke="#de958e" d="M509.53,-629.62C534.1,-634.28 565.01,-640.91 592,-649 621.5,-657.84 653.59,-670.22 679.39,-680.9"/>
<polygon fill="#de958e" stroke="#de958e" points="678.38,-684.27 688.95,-684.9 681.08,-677.81 678.38,-684.27"/>
</g>
<!-- lunchbox.tools -->
<g id="node29" class="node">
<title>lunchbox.tools</title>
<polygon fill="#343434" stroke="#343434" points="530,-916 398,-916 398,-880 530,-880 530,-916"/>
<text text-anchor="middle" x="464" y="-894.3" font-family="Courier,monospace" font-size="14.00" fill="#de958e">lunchbox.tools</text>
</g>
<!-- lunchbox.tools&#45;&gt;shekels.core.data_tools -->
<g id="edge62" class="edge">
<title>lunchbox.tools&#45;&gt;shekels.core.data_tools</title>
<path fill="none" stroke="#de958e" d="M503.05,-879.96C529.03,-866.95 563.72,-848.18 592,-828 634.63,-797.58 678.57,-755.6 705.09,-728.87"/>
<polygon fill="#de958e" stroke="#de958e" points="707.9,-731.01 712.42,-721.43 702.91,-726.1 707.9,-731.01"/>
</g>
<!-- lunchbox.tools&#45;&gt;shekels.server.components -->
<g id="edge63" class="edge">
<title>lunchbox.tools&#45;&gt;shekels.server.components</title>
<path fill="none" stroke="#de958e" d="M530.23,-899.96C616.11,-902.54 768.74,-907.13 876.03,-910.36"/>
<polygon fill="#de958e" stroke="#de958e" points="876.16,-913.87 886.26,-910.67 876.37,-906.87 876.16,-913.87"/>
</g>
<!-- lunchbox.tools&#45;&gt;shekels.server.server_tools -->
<g id="edge64" class="edge">
<title>lunchbox.tools&#45;&gt;shekels.server.server_tools</title>
<path fill="none" stroke="#de958e" d="M530.22,-892.96C604.67,-886.17 729.63,-871.63 834,-844 968.68,-808.35 998.05,-785.12 1126,-730 1163.04,-714.04 1204.3,-694.45 1234.87,-679.58"/>
<polygon fill="#de958e" stroke="#de958e" points="1236.54,-682.66 1243.99,-675.13 1233.47,-676.37 1236.54,-682.66"/>
</g>
<!-- schematics.models -->
<g id="node30" class="node">
<title>schematics.models</title>
<polygon fill="#343434" stroke="#343434" points="283.5,-261 126.5,-261 126.5,-225 283.5,-225 283.5,-261"/>
<text text-anchor="middle" x="205" y="-239.3" font-family="Courier,monospace" font-size="14.00" fill="#de958e">schematics.models</text>
</g>
<!-- schematics.models&#45;&gt;shekels.core.config -->
<g id="edge65" class="edge">
<title>schematics.models&#45;&gt;shekels.core.config</title>
<path fill="none" stroke="#de958e" d="M283.81,-251.17C310.12,-253.94 339.82,-257.06 367.35,-259.95"/>
<polygon fill="#de958e" stroke="#de958e" points="367.08,-263.44 377.39,-261.01 367.81,-256.48 367.08,-263.44"/>
</g>
<!-- rolling_pin.blob_etl -->
<g id="node31" class="node">
<title>rolling_pin.blob_etl</title>
<polygon fill="#343434" stroke="#343434" points="555,-1100 373,-1100 373,-1064 555,-1064 555,-1100"/>
<text text-anchor="middle" x="464" y="-1078.3" font-family="Courier,monospace" font-size="14.00" fill="#de958e">rolling_pin.blob_etl</text>
</g>
<!-- rolling_pin.blob_etl&#45;&gt;shekels.core.data_tools -->
<g id="edge66" class="edge">
<title>rolling_pin.blob_etl&#45;&gt;shekels.core.data_tools</title>
<path fill="none" stroke="#de958e" d="M555.32,-1070.61C568.69,-1065.85 581.48,-1059.22 592,-1050 598.43,-1044.37 687.99,-812.34 719.29,-730.9"/>
<polygon fill="#de958e" stroke="#de958e" points="722.66,-731.9 722.98,-721.31 716.12,-729.39 722.66,-731.9"/>
</g>
<!-- rolling_pin.blob_etl&#45;&gt;shekels.server.components -->
<g id="edge67" class="edge">
<title>rolling_pin.blob_etl&#45;&gt;shekels.server.components</title>
<path fill="none" stroke="#de958e" d="M555.09,-1066.98C568.04,-1062.68 580.77,-1057.13 592,-1050 613.33,-1036.45 606.55,-1019.36 628,-1006 707.8,-956.3 742.83,-980.92 834,-958 862.86,-950.74 894.47,-942.32 922.11,-934.8"/>
<polygon fill="#de958e" stroke="#de958e" points="923.37,-938.08 932.09,-932.08 921.53,-931.33 923.37,-938.08"/>
</g>
<!-- rolling_pin.blob_etl&#45;&gt;shekels.server.server_tools -->
<g id="edge68" class="edge">
<title>rolling_pin.blob_etl&#45;&gt;shekels.server.server_tools</title>
<path fill="none" stroke="#de958e" d="M555.17,-1067.08C725.23,-1038.3 1080.46,-975 1126,-941 1214.49,-874.93 1258.22,-742.66 1273.72,-684.98"/>
<polygon fill="#de958e" stroke="#de958e" points="1277.16,-685.67 1276.29,-675.11 1270.39,-683.9 1277.16,-685.67"/>
</g>
<!-- schematics.types -->
<g id="node32" class="node">
<title>schematics.types</title>
<polygon fill="#343434" stroke="#343434" points="279.5,-315 130.5,-315 130.5,-279 279.5,-279 279.5,-315"/>
<text text-anchor="middle" x="205" y="-293.3" font-family="Courier,monospace" font-size="14.00" fill="#de958e">schematics.types</text>
</g>
<!-- schematics.types&#45;&gt;shekels.core.config -->
<g id="edge69" class="edge">
<title>schematics.types&#45;&gt;shekels.core.config</title>
<path fill="none" stroke="#de958e" d="M279.65,-289.26C306.85,-286.41 338.08,-283.12 366.97,-280.09"/>
<polygon fill="#de958e" stroke="#de958e" points="367.51,-283.55 377.09,-279.03 366.78,-276.59 367.51,-283.55"/>
</g>
<!-- webcolors -->
<g id="node33" class="node">
<title>webcolors</title>
<polygon fill="#343434" stroke="#343434" points="509.5,-748 418.5,-748 418.5,-712 509.5,-712 509.5,-748"/>
<text text-anchor="middle" x="464" y="-726.3" font-family="Courier,monospace" font-size="14.00" fill="#de958e">webcolors</text>
</g>
<!-- webcolors&#45;&gt;shekels.core.data_tools -->
<g id="edge70" class="edge">
<title>webcolors&#45;&gt;shekels.core.data_tools</title>
<path fill="none" stroke="#de958e" d="M509.65,-725.45C539.31,-722.43 579.65,-718.32 617.71,-714.44"/>
<polygon fill="#de958e" stroke="#de958e" points="618.25,-717.9 627.85,-713.41 617.54,-710.94 618.25,-717.9"/>
</g>
<!-- jsoncomment -->
<g id="node34" class="node">
<title>jsoncomment</title>
<polygon fill="#343434" stroke="#343434" points="784.5,-236 677.5,-236 677.5,-200 784.5,-200 784.5,-236"/>
<text text-anchor="middle" x="731" y="-214.3" font-family="Courier,monospace" font-size="14.00" fill="#de958e">jsoncomment</text>
</g>
<!-- jsoncomment&#45;&gt;shekels.core.database -->
<g id="edge71" class="edge">
<title>jsoncomment&#45;&gt;shekels.core.database</title>
<path fill="none" stroke="#de958e" d="M771.1,-236C818.27,-257.72 897.56,-294.22 948.56,-317.7"/>
<polygon fill="#de958e" stroke="#de958e" points="947.19,-320.92 957.74,-321.92 950.12,-314.56 947.19,-320.92"/>
</g>
<!-- jsoncomment&#45;&gt;shekels.server.app -->
<g id="edge72" class="edge">
<title>jsoncomment&#45;&gt;shekels.server.app</title>
<path fill="none" stroke="#de958e" d="M784.62,-217.8C927.02,-218.15 1331.32,-225.08 1660,-288 1676.54,-291.17 1694.14,-295.55 1710.55,-300.09"/>
<polygon fill="#de958e" stroke="#de958e" points="1710.01,-303.57 1720.59,-302.92 1711.92,-296.84 1710.01,-303.57"/>
</g>
<!-- jsoncomment&#45;&gt;shekels.server.server_tools -->
<g id="edge73" class="edge">
<title>jsoncomment&#45;&gt;shekels.server.server_tools</title>
<path fill="none" stroke="#de958e" d="M784.72,-223.4C885.88,-234.18 1099.59,-259.12 1126,-280 1126.93,-280.73 1233.81,-542.57 1269.24,-629.39"/>
<polygon fill="#de958e" stroke="#de958e" points="1266.08,-630.92 1273.1,-638.86 1272.56,-628.28 1266.08,-630.92"/>
</g>
<!-- jinja2 -->
<g id="node35" class="node">
<title>jinja2</title>
<polygon fill="#343434" stroke="#343434" points="1031,-702 965,-702 965,-666 1031,-666 1031,-702"/>
<text text-anchor="middle" x="998" y="-680.3" font-family="Courier,monospace" font-size="14.00" fill="#de958e">jinja2</text>
</g>
<!-- jinja2&#45;&gt;shekels.server.server_tools -->
<g id="edge74" class="edge">
<title>jinja2&#45;&gt;shekels.server.server_tools</title>
<path fill="none" stroke="#de958e" d="M1031.02,-680.93C1060.76,-678.08 1107.06,-673.64 1151.74,-669.35"/>
<polygon fill="#de958e" stroke="#de958e" points="1152.22,-672.82 1161.84,-668.38 1151.56,-665.85 1152.22,-672.82"/>
</g>
<!-- flask_caching -->
<g id="node36" class="node">
<title>flask_caching</title>
<polygon fill="#343434" stroke="#343434" points="1610.5,-144 1486.5,-144 1486.5,-108 1610.5,-108 1610.5,-144"/>
<text text-anchor="middle" x="1548.5" y="-122.3" font-family="Courier,monospace" font-size="14.00" fill="#de958e">flask_caching</text>
</g>
<!-- flask_caching&#45;&gt;shekels.server.app -->
<g id="edge75" class="edge">
<title>flask_caching&#45;&gt;shekels.server.app</title>
<path fill="none" stroke="#de958e" d="M1610.67,-136.01C1627.69,-140.77 1645.47,-147.76 1660,-158 1710.25,-193.43 1747,-257.33 1765.03,-293.71"/>
<polygon fill="#de958e" stroke="#de958e" points="1761.9,-295.29 1769.4,-302.77 1768.2,-292.24 1761.9,-295.29"/>
</g>
<!-- flask_healthz -->
<g id="node37" class="node">
<title>flask_healthz</title>
<polygon fill="#343434" stroke="#343434" points="1610.5,-90 1486.5,-90 1486.5,-54 1610.5,-54 1610.5,-90"/>
<text text-anchor="middle" x="1548.5" y="-68.3" font-family="Courier,monospace" font-size="14.00" fill="#de958e">flask_healthz</text>
</g>
<!-- flask_healthz&#45;&gt;shekels.server.app -->
<g id="edge76" class="edge">
<title>flask_healthz&#45;&gt;shekels.server.app</title>
<path fill="none" stroke="#de958e" d="M1610.66,-77.49C1627.96,-81.42 1645.9,-88.02 1660,-99 1724.6,-149.33 1757.65,-245.28 1770.68,-292.84"/>
<polygon fill="#de958e" stroke="#de958e" points="1767.36,-293.98 1773.3,-302.76 1774.13,-292.2 1767.36,-293.98"/>
</g>
<!-- flask_monitoringdashboard -->
<g id="node38" class="node">
<title>flask_monitoringdashboard</title>
<polygon fill="#343434" stroke="#343434" points="1660,-36 1437,-36 1437,0 1660,0 1660,-36"/>
<text text-anchor="middle" x="1548.5" y="-14.3" font-family="Courier,monospace" font-size="14.00" fill="#de958e">flask_monitoringdashboard</text>
</g>
<!-- flask_monitoringdashboard&#45;&gt;shekels.server.app -->
<g id="edge77" class="edge">
<title>flask_monitoringdashboard&#45;&gt;shekels.server.app</title>
<path fill="none" stroke="#de958e" d="M1647.07,-36.02C1651.66,-38.64 1656.01,-41.61 1660,-45 1737.57,-110.87 1765.18,-236.99 1773.91,-293"/>
<polygon fill="#de958e" stroke="#de958e" points="1770.45,-293.54 1775.37,-302.92 1777.37,-292.52 1770.45,-293.54"/>
</g>
</g>
</svg>
