<?xml version="1.0" encoding="UTF-8" standalone="no"?>
<!DOCTYPE svg PUBLIC "-//W3C//DTD SVG 1.1//EN"
 "http://www.w3.org/Graphics/SVG/1.1/DTD/svg11.dtd">
<!-- Generated by graphviz version 2.40.1 (20161225.0304)
 -->
<!-- Title: %3 Pages: 1 -->
<svg width="1519pt" height="945pt"
 viewBox="0.00 0.00 1519.00 945.01" xmlns="http://www.w3.org/2000/svg" xmlns:xlink="http://www.w3.org/1999/xlink">
<g id="graph0" class="graph" transform="scale(1 1) rotate(0) translate(4 941.0065)">
<title>%3</title>
<polygon fill="#242424" stroke="transparent" points="-4,4 -4,-941.0065 1515,-941.0065 1515,4 -4,4"/>
<!-- cli -->
<g id="node1" class="node">
<title>cli</title>
<polygon fill="#343434" stroke="#343434" points="64,-558.7962 10,-558.7962 10,-522.7962 64,-522.7962 64,-558.7962"/>
<text text-anchor="middle" x="37" y="-537.0962" font-family="Courier,monospace" font-size="14.00" fill="#b6ecf3">cli</text>
</g>
<!-- shekels.core.config -->
<g id="node2" class="node">
<title>shekels.core.config</title>
<polygon fill="#343434" stroke="#343434" points="550.5,-589.7962 377.5,-589.7962 377.5,-553.7962 550.5,-553.7962 550.5,-589.7962"/>
<text text-anchor="middle" x="464" y="-568.0962" font-family="Courier,monospace" font-size="14.00" fill="#b6ecf3">shekels.core.config</text>
</g>
<!-- shekels.core.data_tools -->
<g id="node3" class="node">
<title>shekels.core.data_tools</title>
<polygon fill="#343434" stroke="#343434" points="834,-387.7962 628,-387.7962 628,-351.7962 834,-351.7962 834,-387.7962"/>
<text text-anchor="middle" x="731" y="-366.0962" font-family="Courier,monospace" font-size="14.00" fill="#b6ecf3">shekels.core.data_tools</text>
</g>
<!-- shekels.core.config&#45;&gt;shekels.core.data_tools -->
<g id="edge1" class="edge">
<title>shekels.core.config&#45;&gt;shekels.core.data_tools</title>
<path fill="none" stroke="#b6ecf3" d="M507.688,-553.6819C533.3596,-542.0669 565.807,-525.6548 592,-506.7962 637.9959,-473.6797 683.2289,-425.3488 709.0582,-395.8251"/>
<polygon fill="#b6ecf3" stroke="#b6ecf3" points="711.9125,-397.8756 715.8133,-388.0249 706.621,-393.293 711.9125,-397.8756"/>
</g>
<!-- shekels.core.database -->
<g id="node4" class="node">
<title>shekels.core.database</title>
<polygon fill="#343434" stroke="#343434" points="1084.5,-635.7962 894.5,-635.7962 894.5,-599.7962 1084.5,-599.7962 1084.5,-635.7962"/>
<text text-anchor="middle" x="989.5" y="-614.0962" font-family="Courier,monospace" font-size="14.00" fill="#b6ecf3">shekels.core.database</text>
</g>
<!-- shekels.core.config&#45;&gt;shekels.core.database -->
<g id="edge2" class="edge">
<title>shekels.core.config&#45;&gt;shekels.core.database</title>
<path fill="none" stroke="#b6ecf3" d="M550.7283,-579.2102C625.716,-585.6414 737.0184,-595.2367 834,-603.7962 850.0992,-605.2171 867.1345,-606.7355 883.7965,-608.2291"/>
<polygon fill="#b6ecf3" stroke="#b6ecf3" points="883.8382,-611.7468 894.111,-609.1547 884.4639,-604.7748 883.8382,-611.7468"/>
</g>
<!-- shekels.server.app -->
<g id="node7" class="node">
<title>shekels.server.app</title>
<polygon fill="#343434" stroke="#343434" points="1511,-341.7962 1346,-341.7962 1346,-305.7962 1511,-305.7962 1511,-341.7962"/>
<text text-anchor="middle" x="1428.5" y="-320.0962" font-family="Courier,monospace" font-size="14.00" fill="#b6ecf3">shekels.server.app</text>
</g>
<!-- shekels.core.config&#45;&gt;shekels.server.app -->
<g id="edge3" class="edge">
<title>shekels.core.config&#45;&gt;shekels.server.app</title>
<path fill="none" stroke="#b6ecf3" d="M534.1414,-553.7609C708.9815,-508.8046 1163.3578,-391.9717 1348.362,-344.4019"/>
<polygon fill="#b6ecf3" stroke="#b6ecf3" points="1349.4833,-347.7275 1358.2966,-341.8474 1347.74,-340.948 1349.4833,-347.7275"/>
</g>
<!-- shekels.server.components -->
<g id="node8" class="node">
<title>shekels.server.components</title>
<polygon fill="#343434" stroke="#343434" points="1101,-341.7962 878,-341.7962 878,-305.7962 1101,-305.7962 1101,-341.7962"/>
<text text-anchor="middle" x="989.5" y="-320.0962" font-family="Courier,monospace" font-size="14.00" fill="#b6ecf3">shekels.server.components</text>
</g>
<!-- shekels.core.config&#45;&gt;shekels.server.components -->
<g id="edge4" class="edge">
<title>shekels.core.config&#45;&gt;shekels.server.components</title>
<path fill="none" stroke="#b6ecf3" d="M502.216,-553.7609C596.2347,-509.3905 838.6125,-395.0047 941.8223,-346.2968"/>
<polygon fill="#b6ecf3" stroke="#b6ecf3" points="943.5232,-349.3643 951.0729,-341.9311 940.5356,-343.0339 943.5232,-349.3643"/>
</g>
<!-- shekels.core.data_tools&#45;&gt;shekels.core.database -->
<g id="edge5" class="edge">
<title>shekels.core.data_tools&#45;&gt;shekels.core.database</title>
<path fill="none" stroke="#b6ecf3" d="M799.106,-387.8526C812.2988,-394.1472 824.8474,-402.567 834,-413.7962 884.7187,-476.0221 813.8505,-533.423 870,-590.7962 874.5398,-595.4349 879.6952,-599.3513 885.255,-602.6518"/>
<polygon fill="#b6ecf3" stroke="#b6ecf3" points="883.8068,-605.8435 894.2944,-607.3466 887.0331,-599.6313 883.8068,-605.8435"/>
</g>
<!-- shekels.core.data_tools&#45;&gt;shekels.server.components -->
<g id="edge6" class="edge">
<title>shekels.core.data_tools&#45;&gt;shekels.server.components</title>
<path fill="none" stroke="#b6ecf3" d="M832.4241,-351.7478C847.392,-349.0843 862.8824,-346.3277 878.0402,-343.6304"/>
<polygon fill="#b6ecf3" stroke="#b6ecf3" points="878.712,-347.0659 887.9441,-341.868 877.4855,-340.1742 878.712,-347.0659"/>
</g>
<!-- shekels.server.api -->
<g id="node6" class="node">
<title>shekels.server.api</title>
<polygon fill="#343434" stroke="#343434" points="1310,-700.7962 1145,-700.7962 1145,-664.7962 1310,-664.7962 1310,-700.7962"/>
<text text-anchor="middle" x="1227.5" y="-679.0962" font-family="Courier,monospace" font-size="14.00" fill="#b6ecf3">shekels.server.api</text>
</g>
<!-- shekels.core.database&#45;&gt;shekels.server.api -->
<g id="edge7" class="edge">
<title>shekels.core.database&#45;&gt;shekels.server.api</title>
<path fill="none" stroke="#b6ecf3" d="M1057.4672,-635.871C1074.316,-640.3862 1092.3215,-645.2409 1109,-649.7962 1123.3114,-653.705 1138.5817,-657.9224 1153.2366,-661.9931"/>
<polygon fill="#b6ecf3" stroke="#b6ecf3" points="1152.6924,-665.4746 1163.2646,-664.7823 1154.5682,-658.7306 1152.6924,-665.4746"/>
</g>
<!-- shekels.enforce.enforce_tools -->
<g id="node5" class="node">
<title>shekels.enforce.enforce_tools</title>
<polygon fill="#343434" stroke="#343434" points="592,-183.7962 336,-183.7962 336,-147.7962 592,-147.7962 592,-183.7962"/>
<text text-anchor="middle" x="464" y="-162.0962" font-family="Courier,monospace" font-size="14.00" fill="#b6ecf3">shekels.enforce.enforce_tools</text>
</g>
<!-- shekels.enforce.enforce_tools&#45;&gt;shekels.core.data_tools -->
<g id="edge8" class="edge">
<title>shekels.enforce.enforce_tools&#45;&gt;shekels.core.data_tools</title>
<path fill="none" stroke="#b6ecf3" d="M516.6214,-183.7991C541.7721,-194.4284 570.913,-209.94 592,-230.7962 616.5928,-255.1197 605.0007,-273.9606 628,-299.7962 644.5807,-318.4216 667.1279,-334.4728 686.8999,-346.4888"/>
<polygon fill="#b6ecf3" stroke="#b6ecf3" points="685.3674,-349.6485 695.7577,-351.7205 688.9273,-343.6213 685.3674,-349.6485"/>
</g>
<!-- shekels.server.api&#45;&gt;shekels.server.app -->
<g id="edge9" class="edge">
<title>shekels.server.api&#45;&gt;shekels.server.app</title>
<path fill="none" stroke="#b6ecf3" d="M1243.0274,-664.7207C1260.5992,-643.7432 1289.4442,-607.6828 1310,-573.7962 1356.6487,-496.8947 1398.4575,-398.7305 1417.5467,-351.5578"/>
<polygon fill="#b6ecf3" stroke="#b6ecf3" points="1420.8958,-352.61 1421.3747,-342.026 1414.4001,-350.0013 1420.8958,-352.61"/>
</g>
<!-- shekels.server.components&#45;&gt;shekels.server.app -->
<g id="edge10" class="edge">
<title>shekels.server.components&#45;&gt;shekels.server.app</title>
<path fill="none" stroke="#b6ecf3" d="M1101.1298,-323.7962C1173.6168,-323.7962 1266.9915,-323.7962 1335.4559,-323.7962"/>
<polygon fill="#b6ecf3" stroke="#b6ecf3" points="1335.7966,-327.2963 1345.7965,-323.7962 1335.7965,-320.2963 1335.7966,-327.2963"/>
</g>
<!-- shekels.server.server_tools -->
<g id="node9" class="node">
<title>shekels.server.server_tools</title>
<polygon fill="#343434" stroke="#343434" points="1109,-841.7962 870,-841.7962 870,-805.7962 1109,-805.7962 1109,-841.7962"/>
<text text-anchor="middle" x="989.5" y="-820.0962" font-family="Courier,monospace" font-size="14.00" fill="#b6ecf3">shekels.server.server_tools</text>
</g>
<!-- shekels.server.server_tools&#45;&gt;shekels.server.api -->
<g id="edge11" class="edge">
<title>shekels.server.server_tools&#45;&gt;shekels.server.api</title>
<path fill="none" stroke="#b6ecf3" d="M1020.4993,-805.7505C1044.6513,-791.6635 1079.0052,-771.5665 1109,-753.7962 1135.5949,-738.0401 1165.4486,-720.1519 1188.538,-706.2725"/>
<polygon fill="#b6ecf3" stroke="#b6ecf3" points="1190.5862,-709.1249 1197.3518,-700.9716 1186.9784,-703.1263 1190.5862,-709.1249"/>
</g>
<!-- shekels.server.server_tools&#45;&gt;shekels.server.app -->
<g id="edge12" class="edge">
<title>shekels.server.server_tools&#45;&gt;shekels.server.app</title>
<path fill="none" stroke="#b6ecf3" d="M1094.1215,-841.803C1163.2915,-847.509 1251.6428,-842.0736 1310,-791.7962 1378.1802,-733.0558 1415.3597,-443.5424 1425.5717,-351.7615"/>
<polygon fill="#b6ecf3" stroke="#b6ecf3" points="1429.0514,-352.1371 1426.6581,-341.8161 1422.0928,-351.3769 1429.0514,-352.1371"/>
</g>
<!-- dash.dependencies -->
<g id="node10" class="node">
<title>dash.dependencies</title>
<polygon fill="#343434" stroke="#343434" points="1306,-173.7962 1149,-173.7962 1149,-137.7962 1306,-137.7962 1306,-173.7962"/>
<text text-anchor="middle" x="1227.5" y="-152.0962" font-family="Courier,monospace" font-size="14.00" fill="#de958e">dash.dependencies</text>
</g>
<!-- dash.dependencies&#45;&gt;shekels.server.app -->
<g id="edge13" class="edge">
<title>dash.dependencies&#45;&gt;shekels.server.app</title>
<path fill="none" stroke="#de958e" d="M1284.8287,-173.8396C1293.6308,-177.777 1302.3298,-182.4121 1310,-187.7962 1352.9257,-217.9278 1390.401,-266.8372 1411.1871,-297.0618"/>
<polygon fill="#de958e" stroke="#de958e" points="1408.344,-299.1056 1416.844,-305.4302 1414.1433,-295.1854 1408.344,-299.1056"/>
</g>
<!-- dash.exceptions -->
<g id="node11" class="node">
<title>dash.exceptions</title>
<polygon fill="#343434" stroke="#343434" points="1297.5,-119.7962 1157.5,-119.7962 1157.5,-83.7962 1297.5,-83.7962 1297.5,-119.7962"/>
<text text-anchor="middle" x="1227.5" y="-98.0962" font-family="Courier,monospace" font-size="14.00" fill="#de958e">dash.exceptions</text>
</g>
<!-- dash.exceptions&#45;&gt;shekels.server.app -->
<g id="edge14" class="edge">
<title>dash.exceptions&#45;&gt;shekels.server.app</title>
<path fill="none" stroke="#de958e" d="M1296.1465,-119.8753C1301.0625,-122.4679 1305.7492,-125.4249 1310,-128.7962 1366.6316,-173.7101 1402.7326,-253.6558 1418.8011,-295.8829"/>
<polygon fill="#de958e" stroke="#de958e" points="1415.6137,-297.3547 1422.3674,-305.518 1422.1785,-294.9248 1415.6137,-297.3547"/>
</g>
<!-- shekels.server -->
<g id="node12" class="node">
<title>shekels.server</title>
<polygon fill="#343434" stroke="#343434" points="797,-919.7962 665,-919.7962 665,-883.7962 797,-883.7962 797,-919.7962"/>
<text text-anchor="middle" x="731" y="-898.0962" font-family="Courier,monospace" font-size="14.00" fill="#a0d17b">shekels.server</text>
</g>
<!-- shekels.server&#45;&gt;shekels.server.api -->
<g id="edge15" class="edge">
<title>shekels.server&#45;&gt;shekels.server.api</title>
<path fill="none" stroke="#a0d17b" d="M797.2892,-895.7515C898.5753,-886.0828 1082.9213,-866.6169 1109,-850.7962 1163.4847,-817.7429 1199.6109,-749.0758 1216.4839,-710.5499"/>
<polygon fill="#a0d17b" stroke="#a0d17b" points="1219.8562,-711.563 1220.5454,-700.9906 1213.4136,-708.8257 1219.8562,-711.563"/>
</g>
<!-- shekels.server&#45;&gt;shekels.server.app -->
<g id="edge16" class="edge">
<title>shekels.server&#45;&gt;shekels.server.app</title>
<path fill="none" stroke="#a0d17b" d="M797.411,-917.06C918.3917,-940.5141 1174.6654,-969.3561 1310,-830.7962 1378.1907,-760.9804 1415.6536,-448.239 1425.711,-352.0426"/>
<polygon fill="#a0d17b" stroke="#a0d17b" points="1429.2114,-352.217 1426.7519,-341.9117 1422.248,-351.5015 1429.2114,-352.217"/>
</g>
<!-- shekels.server&#45;&gt;shekels.server.components -->
<g id="edge17" class="edge">
<title>shekels.server&#45;&gt;shekels.server.components</title>
<path fill="none" stroke="#a0d17b" d="M797.2381,-896.7238C811.1938,-892.5923 824.5379,-885.7987 834,-874.7962 883.2523,-817.5258 847.0513,-608.7617 870,-536.7962 893.1142,-464.3117 942.5323,-388.7978 970.0266,-350.1097"/>
<polygon fill="#a0d17b" stroke="#a0d17b" points="972.8745,-352.1441 975.8677,-341.9808 967.1899,-348.0593 972.8745,-352.1441"/>
</g>
<!-- shekels.server&#45;&gt;shekels.server.server_tools -->
<g id="edge18" class="edge">
<title>shekels.server&#45;&gt;shekels.server.server_tools</title>
<path fill="none" stroke="#a0d17b" d="M797.1043,-886.8727C809.5257,-883.3948 822.2847,-879.3535 834,-874.7962 850.8608,-868.2372 853.1565,-862.3996 870,-855.7962 880.2845,-851.7641 891.2602,-848.0606 902.2341,-844.7163"/>
<polygon fill="#a0d17b" stroke="#a0d17b" points="903.2626,-848.062 911.86,-841.8705 901.278,-841.3492 903.2626,-848.062"/>
</g>
<!-- dash -->
<g id="node13" class="node">
<title>dash</title>
<polygon fill="#343434" stroke="#343434" points="758,-219.7962 704,-219.7962 704,-183.7962 758,-183.7962 758,-219.7962"/>
<text text-anchor="middle" x="731" y="-198.0962" font-family="Courier,monospace" font-size="14.00" fill="#de958e">dash</text>
</g>
<!-- dash&#45;&gt;shekels.server.app -->
<g id="edge19" class="edge">
<title>dash&#45;&gt;shekels.server.app</title>
<path fill="none" stroke="#de958e" d="M758.2207,-208.6053C779.3076,-214.2709 809.0362,-223.1189 834,-233.7962 850.8287,-240.9939 852.6023,-248.11 870,-253.7962 954.3875,-281.3771 1200.3454,-305.0702 1336.0027,-316.4997"/>
<polygon fill="#de958e" stroke="#de958e" points="1335.7186,-319.9881 1345.9757,-317.3346 1336.3026,-313.0125 1335.7186,-319.9881"/>
</g>
<!-- dash&#45;&gt;shekels.server.components -->
<g id="edge20" class="edge">
<title>dash&#45;&gt;shekels.server.components</title>
<path fill="none" stroke="#de958e" d="M758.3728,-204.9488C780.6579,-208.6882 811.9293,-216.7283 834,-233.7962 858.0003,-252.3563 845.6371,-273.7147 870,-291.7962 874.8061,-295.3632 879.9819,-298.5328 885.39,-301.3492"/>
<polygon fill="#de958e" stroke="#de958e" points="884.1517,-304.6357 894.6864,-305.7635 887.1544,-298.3124 884.1517,-304.6357"/>
</g>
<!-- dash_core_components -->
<g id="node14" class="node">
<title>dash_core_components</title>
<polygon fill="#343434" stroke="#343434" points="822,-165.7962 640,-165.7962 640,-129.7962 822,-129.7962 822,-165.7962"/>
<text text-anchor="middle" x="731" y="-144.0962" font-family="Courier,monospace" font-size="14.00" fill="#de958e">dash_core_components</text>
</g>
<!-- dash_core_components&#45;&gt;shekels.server.app -->
<g id="edge21" class="edge">
<title>dash_core_components&#45;&gt;shekels.server.app</title>
<path fill="none" stroke="#de958e" d="M816.4433,-165.8184C822.5704,-168.4211 828.4953,-171.3961 834,-174.7962 854.6315,-187.5395 848.7651,-204.0861 870,-215.7962 964.1848,-267.7348 1003.2167,-234.3464 1109,-253.7962 1198.7582,-270.2995 1220.9173,-275.968 1310,-295.7962 1320.8524,-298.2117 1332.2473,-300.8166 1343.5037,-303.4309"/>
<polygon fill="#de958e" stroke="#de958e" points="1342.8092,-306.8628 1353.3429,-305.7264 1344.3996,-300.0459 1342.8092,-306.8628"/>
</g>
<!-- dash_core_components&#45;&gt;shekels.server.components -->
<g id="edge22" class="edge">
<title>dash_core_components&#45;&gt;shekels.server.components</title>
<path fill="none" stroke="#de958e" d="M821.1506,-165.9648C825.7148,-168.535 830.0404,-171.4625 834,-174.7962 863.5165,-199.6471 844.1472,-225.1531 870,-253.7962 888.0529,-273.7975 913.1988,-289.7012 935.7687,-301.262"/>
<polygon fill="#de958e" stroke="#de958e" points="934.4106,-304.495 944.9257,-305.7925 937.5148,-298.2209 934.4106,-304.495"/>
</g>
<!-- shekels -->
<g id="node15" class="node">
<title>shekels</title>
<polygon fill="#343434" stroke="#343434" points="74,-612.7962 0,-612.7962 0,-576.7962 74,-576.7962 74,-612.7962"/>
<text text-anchor="middle" x="37" y="-591.0962" font-family="Courier,monospace" font-size="14.00" fill="#a0d17b">shekels</text>
</g>
<!-- shekels&#45;&gt;shekels.server -->
<g id="edge23" class="edge">
<title>shekels&#45;&gt;shekels.server</title>
<path fill="none" stroke="#a0d17b" d="M49.3197,-612.8501C62.4832,-630.948 84.8802,-658.5353 110,-675.7962 284.9782,-796.0306 531.4667,-860.5293 654.6575,-887.0459"/>
<polygon fill="#a0d17b" stroke="#a0d17b" points="654.2411,-890.5355 664.7505,-889.1925 655.6974,-883.6887 654.2411,-890.5355"/>
</g>
<!-- shekels.enforce -->
<g id="node18" class="node">
<title>shekels.enforce</title>
<polygon fill="#343434" stroke="#343434" points="275,-224.7962 135,-224.7962 135,-188.7962 275,-188.7962 275,-224.7962"/>
<text text-anchor="middle" x="205" y="-203.0962" font-family="Courier,monospace" font-size="14.00" fill="#a0d17b">shekels.enforce</text>
</g>
<!-- shekels&#45;&gt;shekels.enforce -->
<g id="edge24" class="edge">
<title>shekels&#45;&gt;shekels.enforce</title>
<path fill="none" stroke="#a0d17b" d="M66.7202,-576.7844C69.5277,-574.0759 72.0483,-571.0765 74,-567.7962 135.6758,-464.1351 55.6693,-406.4888 110,-298.7962 123.7856,-271.4707 148.9736,-247.6573 169.9511,-231.1076"/>
<polygon fill="#a0d17b" stroke="#a0d17b" points="172.2337,-233.7681 178.0459,-224.9098 167.9782,-228.2101 172.2337,-233.7681"/>
</g>
<!-- shekels.core -->
<g id="node21" class="node">
<title>shekels.core</title>
<polygon fill="#343434" stroke="#343434" points="263,-612.7962 147,-612.7962 147,-576.7962 263,-576.7962 263,-612.7962"/>
<text text-anchor="middle" x="205" y="-591.0962" font-family="Courier,monospace" font-size="14.00" fill="#a0d17b">shekels.core</text>
</g>
<!-- shekels&#45;&gt;shekels.core -->
<g id="edge25" class="edge">
<title>shekels&#45;&gt;shekels.core</title>
<path fill="none" stroke="#a0d17b" d="M74.2846,-594.7962C92.6441,-594.7962 115.369,-594.7962 136.6946,-594.7962"/>
<polygon fill="#a0d17b" stroke="#a0d17b" points="136.6986,-598.2963 146.6985,-594.7962 136.6985,-591.2963 136.6986,-598.2963"/>
</g>
<!-- dash_html_components -->
<g id="node16" class="node">
<title>dash_html_components</title>
<polygon fill="#343434" stroke="#343434" points="822,-111.7962 640,-111.7962 640,-75.7962 822,-75.7962 822,-111.7962"/>
<text text-anchor="middle" x="731" y="-90.0962" font-family="Courier,monospace" font-size="14.00" fill="#de958e">dash_html_components</text>
</g>
<!-- dash_html_components&#45;&gt;shekels.server.app -->
<g id="edge26" class="edge">
<title>dash_html_components&#45;&gt;shekels.server.app</title>
<path fill="none" stroke="#de958e" d="M819,-111.8965C934.3957,-137.1582 1141.9145,-187.8758 1310,-257.7962 1338.4079,-269.6133 1368.6857,-286.56 1391.5249,-300.3221"/>
<polygon fill="#de958e" stroke="#de958e" points="1389.845,-303.3971 1400.2052,-305.6148 1393.4892,-297.4204 1389.845,-303.3971"/>
</g>
<!-- dash_html_components&#45;&gt;shekels.server.components -->
<g id="edge27" class="edge">
<title>dash_html_components&#45;&gt;shekels.server.components</title>
<path fill="none" stroke="#de958e" d="M821.8957,-111.9462C826.2148,-114.5245 830.2889,-117.4585 834,-120.7962 867.5718,-150.9897 844.54,-178.5067 870,-215.7962 892.9074,-249.347 928.2997,-279.5992 954.6296,-299.4917"/>
<polygon fill="#de958e" stroke="#de958e" points="952.7159,-302.43 962.8325,-305.5773 956.8867,-296.8082 952.7159,-302.43"/>
</g>
<!-- dash_table -->
<g id="node17" class="node">
<title>dash_table</title>
<polygon fill="#343434" stroke="#343434" points="780.5,-57.7962 681.5,-57.7962 681.5,-21.7962 780.5,-21.7962 780.5,-57.7962"/>
<text text-anchor="middle" x="731" y="-36.0962" font-family="Courier,monospace" font-size="14.00" fill="#de958e">dash_table</text>
</g>
<!-- dash_table&#45;&gt;shekels.server.app -->
<g id="edge28" class="edge">
<title>dash_table&#45;&gt;shekels.server.app</title>
<path fill="none" stroke="#de958e" d="M780.8334,-27.29C888.0925,-3.4308 1144.4948,36.8581 1310,-74.7962 1386.6732,-126.522 1415.1089,-241.9827 1424.4468,-295.5256"/>
<polygon fill="#de958e" stroke="#de958e" points="1421.0385,-296.3693 1426.1144,-305.6691 1427.9458,-295.2337 1421.0385,-296.3693"/>
</g>
<!-- dash_table&#45;&gt;shekels.server.components -->
<g id="edge29" class="edge">
<title>dash_table&#45;&gt;shekels.server.components</title>
<path fill="none" stroke="#de958e" d="M780.5238,-44.8809C798.7095,-48.6782 818.5967,-55.2914 834,-66.7962 914.6909,-127.0645 962.133,-242.6622 980.5697,-295.8095"/>
<polygon fill="#de958e" stroke="#de958e" points="977.3519,-297.2201 983.8715,-305.5714 983.9829,-294.9772 977.3519,-297.2201"/>
</g>
<!-- shekels.enforce&#45;&gt;shekels.enforce.enforce_tools -->
<g id="edge30" class="edge">
<title>shekels.enforce&#45;&gt;shekels.enforce.enforce_tools</title>
<path fill="none" stroke="#a0d17b" d="M275.0891,-195.701C295.1862,-192.5196 317.7206,-188.9524 340.0353,-185.4199"/>
<polygon fill="#a0d17b" stroke="#a0d17b" points="340.5891,-188.8759 349.9188,-183.8554 339.4946,-181.962 340.5891,-188.8759"/>
</g>
<!-- flask -->
<g id="node19" class="node">
<title>flask</title>
<polygon fill="#343434" stroke="#343434" points="760,-773.7962 702,-773.7962 702,-737.7962 760,-737.7962 760,-773.7962"/>
<text text-anchor="middle" x="731" y="-752.0962" font-family="Courier,monospace" font-size="14.00" fill="#de958e">flask</text>
</g>
<!-- flask&#45;&gt;shekels.server.api -->
<g id="edge31" class="edge">
<title>flask&#45;&gt;shekels.server.api</title>
<path fill="none" stroke="#de958e" d="M760.1687,-754.364C823.9328,-750.8728 980.3277,-740.3441 1109,-715.7962 1125.8344,-712.5845 1143.7591,-708.1436 1160.4363,-703.5597"/>
<polygon fill="#de958e" stroke="#de958e" points="1161.4097,-706.9218 1170.0937,-700.8525 1159.5202,-700.1817 1161.4097,-706.9218"/>
</g>
<!-- flask&#45;&gt;shekels.server.app -->
<g id="edge32" class="edge">
<title>flask&#45;&gt;shekels.server.app</title>
<path fill="none" stroke="#de958e" d="M760.0358,-757.8616C865.6589,-764.7348 1227.5604,-782.4913 1310,-709.7962 1365.2255,-661.0984 1409.6092,-432.408 1423.7581,-351.9122"/>
<polygon fill="#de958e" stroke="#de958e" points="1427.2175,-352.4471 1425.4793,-341.9958 1420.3207,-351.25 1427.2175,-352.4471"/>
</g>
<!-- flask&#45;&gt;shekels.server.components -->
<g id="edge33" class="edge">
<title>flask&#45;&gt;shekels.server.components</title>
<path fill="none" stroke="#de958e" d="M760.3627,-744.6733C783.8319,-734.2699 815.7261,-716.4612 834,-690.7962 874.7689,-633.5376 844.5521,-602.3175 870,-536.7962 897.4998,-465.9917 945.028,-389.981 971.0887,-350.7207"/>
<polygon fill="#de958e" stroke="#de958e" points="974.2665,-352.2655 976.9212,-342.0086 968.4496,-348.3713 974.2665,-352.2655"/>
</g>
<!-- flask&#45;&gt;shekels.server.server_tools -->
<g id="edge34" class="edge">
<title>flask&#45;&gt;shekels.server.server_tools</title>
<path fill="none" stroke="#de958e" d="M760.1507,-763.4645C796.558,-773.0416 860.2678,-789.8009 911.3146,-803.229"/>
<polygon fill="#de958e" stroke="#de958e" points="910.4545,-806.6218 921.0159,-805.781 912.2354,-799.8521 910.4545,-806.6218"/>
</g>
<!-- jinja2 -->
<g id="node20" class="node">
<title>jinja2</title>
<polygon fill="#343434" stroke="#343434" points="764,-865.7962 698,-865.7962 698,-829.7962 764,-829.7962 764,-865.7962"/>
<text text-anchor="middle" x="731" y="-844.0962" font-family="Courier,monospace" font-size="14.00" fill="#de958e">jinja2</text>
</g>
<!-- jinja2&#45;&gt;shekels.server.server_tools -->
<g id="edge35" class="edge">
<title>jinja2&#45;&gt;shekels.server.server_tools</title>
<path fill="none" stroke="#de958e" d="M764.0018,-844.7322C788.6978,-842.4393 824.2092,-839.1423 859.7692,-835.8408"/>
<polygon fill="#de958e" stroke="#de958e" points="860.1577,-839.3199 869.7913,-834.9103 859.5105,-832.3499 860.1577,-839.3199"/>
</g>
<!-- shekels.core&#45;&gt;shekels.core.config -->
<g id="edge36" class="edge">
<title>shekels.core&#45;&gt;shekels.core.config</title>
<path fill="none" stroke="#a0d17b" d="M263.1247,-589.6345C293.6672,-586.9223 331.9128,-583.5259 366.8135,-580.4266"/>
<polygon fill="#a0d17b" stroke="#a0d17b" points="367.3893,-583.8894 377.0405,-579.5184 366.77,-576.9168 367.3893,-583.8894"/>
</g>
<!-- shekels.core&#45;&gt;shekels.core.data_tools -->
<g id="edge37" class="edge">
<title>shekels.core&#45;&gt;shekels.core.data_tools</title>
<path fill="none" stroke="#a0d17b" d="M263.4908,-588.3721C276.9995,-584.3374 290.2503,-577.9266 300,-567.7962 346.9427,-519.0202 285.512,-464.8925 336,-419.7962 376.4745,-383.644 515.903,-373.03 617.6686,-370.2267"/>
<polygon fill="#a0d17b" stroke="#a0d17b" points="617.7966,-373.7247 627.7046,-369.972 617.619,-366.7269 617.7966,-373.7247"/>
</g>
<!-- shekels.core&#45;&gt;shekels.core.database -->
<g id="edge38" class="edge">
<title>shekels.core&#45;&gt;shekels.core.database</title>
<path fill="none" stroke="#a0d17b" d="M263.0388,-596.5865C285.7903,-597.2836 312.1193,-598.0844 336,-598.7962 529.3068,-604.5575 754.7845,-611.0664 883.9777,-614.7755"/>
<polygon fill="#a0d17b" stroke="#a0d17b" points="884.1631,-618.2822 894.2594,-615.0707 884.364,-611.2851 884.1631,-618.2822"/>
</g>
<!-- rolling_pin.blob_etl -->
<g id="node22" class="node">
<title>rolling_pin.blob_etl</title>
<polygon fill="#343434" stroke="#343434" points="555,-91.7962 373,-91.7962 373,-55.7962 555,-55.7962 555,-91.7962"/>
<text text-anchor="middle" x="464" y="-70.0962" font-family="Courier,monospace" font-size="14.00" fill="#de958e">rolling_pin.blob_etl</text>
</g>
<!-- rolling_pin.blob_etl&#45;&gt;shekels.core.data_tools -->
<g id="edge39" class="edge">
<title>rolling_pin.blob_etl&#45;&gt;shekels.core.data_tools</title>
<path fill="none" stroke="#de958e" d="M555.0532,-82.7738C568.9362,-87.7763 581.9575,-95.1162 592,-105.7962 652.0734,-169.6825 580.0382,-226.38 628,-299.7962 640.9717,-319.6523 661.7395,-335.3448 681.2401,-346.796"/>
<polygon fill="#de958e" stroke="#de958e" points="679.645,-349.9143 690.078,-351.7587 683.0722,-343.8107 679.645,-349.9143"/>
</g>
<!-- rolling_pin.blob_etl&#45;&gt;shekels.server.components -->
<g id="edge40" class="edge">
<title>rolling_pin.blob_etl&#45;&gt;shekels.server.components</title>
<path fill="none" stroke="#de958e" d="M555.3191,-83.3793C569.0026,-88.333 581.889,-95.4997 592,-105.7962 641.8551,-156.566 576.2735,-212.9344 628,-261.7962 645.5935,-278.4153 769.7819,-297.1612 867.7551,-309.6467"/>
<polygon fill="#de958e" stroke="#de958e" points="867.3911,-313.1285 877.7511,-310.9106 868.2692,-306.1837 867.3911,-313.1285"/>
</g>
<!-- schematics.exceptions -->
<g id="node23" class="node">
<title>schematics.exceptions</title>
<polygon fill="#343434" stroke="#343434" points="300,-666.7962 110,-666.7962 110,-630.7962 300,-630.7962 300,-666.7962"/>
<text text-anchor="middle" x="205" y="-645.0962" font-family="Courier,monospace" font-size="14.00" fill="#de958e">schematics.exceptions</text>
</g>
<!-- schematics.exceptions&#45;&gt;shekels.core.config -->
<g id="edge41" class="edge">
<title>schematics.exceptions&#45;&gt;shekels.core.config</title>
<path fill="none" stroke="#de958e" d="M269.1804,-630.7348C279.4957,-627.7803 290.0491,-624.7269 300,-621.7962 331.5538,-612.5031 366.4256,-601.9161 395.8712,-592.884"/>
<polygon fill="#de958e" stroke="#de958e" points="397.1048,-596.1666 405.6364,-589.8847 395.0495,-589.4751 397.1048,-596.1666"/>
</g>
<!-- schematics.exceptions&#45;&gt;shekels.core.data_tools -->
<g id="edge42" class="edge">
<title>schematics.exceptions&#45;&gt;shekels.core.data_tools</title>
<path fill="none" stroke="#de958e" d="M289.4621,-630.7511C293.2862,-628.146 296.838,-625.1776 300,-621.7962 352.4531,-565.7039 280.6305,-506.0117 336,-452.7962 419.2357,-372.7985 479.3839,-434.2014 592,-408.7962 615.0015,-403.6072 639.8694,-396.9651 662.1254,-390.6386"/>
<polygon fill="#de958e" stroke="#de958e" points="663.1733,-393.9793 671.8198,-387.8565 661.2423,-387.2508 663.1733,-393.9793"/>
</g>
<!-- schematics.exceptions&#45;&gt;shekels.server.api -->
<g id="edge43" class="edge">
<title>schematics.exceptions&#45;&gt;shekels.server.api</title>
<path fill="none" stroke="#de958e" d="M285.7614,-666.8712C290.6178,-668.4137 295.397,-670.0553 300,-671.7962 316.9219,-678.1961 318.439,-686.4464 336,-690.7962 484.9648,-727.6945 938.0771,-702.6284 1134.7571,-689.4551"/>
<polygon fill="#de958e" stroke="#de958e" points="1135.0388,-692.9442 1144.7806,-688.7792 1134.5677,-685.96 1135.0388,-692.9442"/>
</g>
<!-- pandas -->
<g id="node24" class="node">
<title>pandas</title>
<polygon fill="#343434" stroke="#343434" points="238,-343.7962 172,-343.7962 172,-307.7962 238,-307.7962 238,-343.7962"/>
<text text-anchor="middle" x="205" y="-322.0962" font-family="Courier,monospace" font-size="14.00" fill="#de958e">pandas</text>
</g>
<!-- pandas&#45;&gt;shekels.core.data_tools -->
<g id="edge44" class="edge">
<title>pandas&#45;&gt;shekels.core.data_tools</title>
<path fill="none" stroke="#de958e" d="M238.0934,-329.2704C264.5685,-332.0039 302.6491,-335.833 336,-338.7962 430.9467,-347.2321 538.8418,-355.6185 617.8471,-361.5372"/>
<polygon fill="#de958e" stroke="#de958e" points="617.5894,-365.0276 627.8225,-362.2829 618.1112,-358.0471 617.5894,-365.0276"/>
</g>
<!-- pandas&#45;&gt;shekels.core.database -->
<g id="edge45" class="edge">
<title>pandas&#45;&gt;shekels.core.database</title>
<path fill="none" stroke="#de958e" d="M217.7848,-343.8456C249.9059,-389.1425 331.7418,-504.2098 336,-506.7962 434.3108,-566.5088 478.2593,-527.6595 592,-544.7962 699.5911,-561.0063 727.3279,-560.3561 834,-581.7962 850.1691,-585.046 853.9555,-586.9786 870,-590.7962 879.2143,-592.9886 888.8389,-595.2353 898.4522,-597.451"/>
<polygon fill="#de958e" stroke="#de958e" points="897.9189,-600.9195 908.4485,-599.7452 899.4848,-594.0969 897.9189,-600.9195"/>
</g>
<!-- pandas&#45;&gt;shekels.enforce.enforce_tools -->
<g id="edge46" class="edge">
<title>pandas&#45;&gt;shekels.enforce.enforce_tools</title>
<path fill="none" stroke="#de958e" d="M224.0126,-307.557C243.2533,-289.0585 273.8169,-259.5626 300,-233.7962 316.1278,-217.925 316.3096,-208.9447 336,-197.7962 342.9438,-193.8646 350.368,-190.4106 358.0133,-187.3768"/>
<polygon fill="#de958e" stroke="#de958e" points="359.2742,-190.6422 367.4311,-183.8808 356.8382,-184.0797 359.2742,-190.6422"/>
</g>
<!-- pandas&#45;&gt;shekels.server.components -->
<g id="edge47" class="edge">
<title>pandas&#45;&gt;shekels.server.components</title>
<path fill="none" stroke="#de958e" d="M222.3995,-307.4426C245.6938,-284.3478 289.5024,-245.8814 336,-230.7962 444.2246,-195.6848 494.3459,-172.409 592,-230.7962 621.0136,-248.1434 599.6277,-279.4188 628,-297.7962 666.5205,-322.7467 778.5239,-327.7044 867.7558,-327.3527"/>
<polygon fill="#de958e" stroke="#de958e" points="867.9877,-330.8514 877.9657,-327.2892 867.9441,-323.8516 867.9877,-330.8514"/>
</g>
<!-- lunchbox.tools -->
<g id="node25" class="node">
<title>lunchbox.tools</title>
<polygon fill="#343434" stroke="#343434" points="530,-681.7962 398,-681.7962 398,-645.7962 530,-645.7962 530,-681.7962"/>
<text text-anchor="middle" x="464" y="-660.0962" font-family="Courier,monospace" font-size="14.00" fill="#de958e">lunchbox.tools</text>
</g>
<!-- lunchbox.tools&#45;&gt;shekels.core.data_tools -->
<g id="edge48" class="edge">
<title>lunchbox.tools&#45;&gt;shekels.core.data_tools</title>
<path fill="none" stroke="#de958e" d="M514.7942,-645.7376C540.0792,-634.9412 569.8843,-619.2987 592,-598.7962 656.0261,-539.4401 700.8961,-443.995 720.2754,-397.3071"/>
<polygon fill="#de958e" stroke="#de958e" points="723.5962,-398.4324 724.1271,-387.8509 717.1134,-395.7918 723.5962,-398.4324"/>
</g>
<!-- lunchbox.tools&#45;&gt;shekels.server.server_tools -->
<g id="edge49" class="edge">
<title>lunchbox.tools&#45;&gt;shekels.server.server_tools</title>
<path fill="none" stroke="#de958e" d="M482.2268,-682.0692C510.6044,-709.2539 568.3161,-759.625 628,-782.7962 669.2753,-798.8206 773.7638,-809.5902 859.8483,-816.0546"/>
<polygon fill="#de958e" stroke="#de958e" points="859.7515,-819.5569 869.9819,-816.8022 860.2666,-812.5758 859.7515,-819.5569"/>
</g>
<!-- lunchbox.enforce -->
<g id="node26" class="node">
<title>lunchbox.enforce</title>
<polygon fill="#343434" stroke="#343434" points="279.5,-137.7962 130.5,-137.7962 130.5,-101.7962 279.5,-101.7962 279.5,-137.7962"/>
<text text-anchor="middle" x="205" y="-116.0962" font-family="Courier,monospace" font-size="14.00" fill="#de958e">lunchbox.enforce</text>
</g>
<!-- lunchbox.enforce&#45;&gt;shekels.core.data_tools -->
<g id="edge50" class="edge">
<title>lunchbox.enforce&#45;&gt;shekels.core.data_tools</title>
<path fill="none" stroke="#de958e" d="M279.7926,-113.1691C378.8619,-106.0825 546.4132,-100.5082 592,-138.7962 647.4824,-185.3953 587.5869,-237.6584 628,-297.7962 641.7807,-318.3029 663.5241,-334.7558 683.489,-346.7288"/>
<polygon fill="#de958e" stroke="#de958e" points="681.7917,-349.7901 692.204,-351.7484 685.2855,-343.7244 681.7917,-349.7901"/>
</g>
<!-- lunchbox.enforce&#45;&gt;shekels.enforce.enforce_tools -->
<g id="edge51" class="edge">
<title>lunchbox.enforce&#45;&gt;shekels.enforce.enforce_tools</title>
<path fill="none" stroke="#de958e" d="M279.5661,-133.0396C302.2887,-137.0752 327.7811,-141.6029 352.3943,-145.9743"/>
<polygon fill="#de958e" stroke="#de958e" points="352.0501,-149.4679 362.5081,-147.7706 353.2743,-142.5757 352.0501,-149.4679"/>
</g>
<!-- lunchbox.enforce&#45;&gt;shekels.server.components -->
<g id="edge52" class="edge">
<title>lunchbox.enforce&#45;&gt;shekels.server.components</title>
<path fill="none" stroke="#de958e" d="M232.0635,-101.6649C300.6851,-58.1559 483.6998,42.1804 592,-46.7962 655.7115,-99.1398 568.6422,-171.5627 628,-228.7962 694.7485,-293.1558 748.639,-225.588 834,-261.7962 852.4121,-269.6061 852.1165,-279.8418 870,-288.7962 880.4203,-294.0136 891.7508,-298.5857 903.1462,-302.5528"/>
<polygon fill="#de958e" stroke="#de958e" points="902.1213,-305.9005 912.715,-305.7439 904.3358,-299.26 902.1213,-305.9005"/>
</g>
<!-- numpy -->
<g id="node27" class="node">
<title>numpy</title>
<polygon fill="#343434" stroke="#343434" points="493,-497.7962 435,-497.7962 435,-461.7962 493,-461.7962 493,-497.7962"/>
<text text-anchor="middle" x="464" y="-476.0962" font-family="Courier,monospace" font-size="14.00" fill="#de958e">numpy</text>
</g>
<!-- numpy&#45;&gt;shekels.core.data_tools -->
<g id="edge53" class="edge">
<title>numpy&#45;&gt;shekels.core.data_tools</title>
<path fill="none" stroke="#de958e" d="M493.247,-476.7816C520.2422,-473.033 560.7568,-464.9012 592,-447.7962 611.3041,-437.2275 609.5946,-425.8621 628,-413.7962 640.8065,-405.4007 655.4807,-398.0067 669.6617,-391.7926"/>
<polygon fill="#de958e" stroke="#de958e" points="671.0454,-395.0076 678.8849,-387.8807 668.312,-388.5633 671.0454,-395.0076"/>
</g>
<!-- numpy&#45;&gt;shekels.core.database -->
<g id="edge54" class="edge">
<title>numpy&#45;&gt;shekels.core.database</title>
<path fill="none" stroke="#de958e" d="M493.1176,-472.7571C570.8886,-454.6913 781.1467,-410.8876 834,-451.7962 884.4656,-490.8566 824.1765,-546.3811 870,-590.7962 874.6104,-595.2649 879.7952,-599.0552 885.3548,-602.2648"/>
<polygon fill="#de958e" stroke="#de958e" points="883.8702,-605.4364 894.371,-606.8448 887.0404,-599.1954 883.8702,-605.4364"/>
</g>
<!-- cufflinks -->
<g id="node28" class="node">
<title>cufflinks</title>
<polygon fill="#343434" stroke="#343434" points="509.5,-329.7962 418.5,-329.7962 418.5,-293.7962 509.5,-293.7962 509.5,-329.7962"/>
<text text-anchor="middle" x="464" y="-308.0962" font-family="Courier,monospace" font-size="14.00" fill="#de958e">cufflinks</text>
</g>
<!-- cufflinks&#45;&gt;shekels.core.data_tools -->
<g id="edge55" class="edge">
<title>cufflinks&#45;&gt;shekels.core.data_tools</title>
<path fill="none" stroke="#de958e" d="M509.5956,-321.7008C544.7621,-329.34 594.5781,-340.1615 638.054,-349.6057"/>
<polygon fill="#de958e" stroke="#de958e" points="637.5732,-353.0828 648.0883,-351.7854 639.0592,-346.2423 637.5732,-353.0828"/>
</g>
<!-- schematics.models -->
<g id="node29" class="node">
<title>schematics.models</title>
<polygon fill="#343434" stroke="#343434" points="283.5,-504.7962 126.5,-504.7962 126.5,-468.7962 283.5,-468.7962 283.5,-504.7962"/>
<text text-anchor="middle" x="205" y="-483.0962" font-family="Courier,monospace" font-size="14.00" fill="#de958e">schematics.models</text>
</g>
<!-- schematics.models&#45;&gt;shekels.core.config -->
<g id="edge56" class="edge">
<title>schematics.models&#45;&gt;shekels.core.config</title>
<path fill="none" stroke="#de958e" d="M278.3259,-504.8196C285.7836,-507.4829 293.1335,-510.4691 300,-513.7962 317.7614,-522.4022 318.1035,-531.4748 336,-539.7962 346.0405,-544.4647 356.8531,-548.5111 367.7882,-552.0039"/>
<polygon fill="#de958e" stroke="#de958e" points="366.8273,-555.3699 377.4131,-554.9325 368.865,-548.673 366.8273,-555.3699"/>
</g>
<!-- schematics.types -->
<g id="node30" class="node">
<title>schematics.types</title>
<polygon fill="#343434" stroke="#343434" points="279.5,-558.7962 130.5,-558.7962 130.5,-522.7962 279.5,-522.7962 279.5,-558.7962"/>
<text text-anchor="middle" x="205" y="-537.0962" font-family="Courier,monospace" font-size="14.00" fill="#de958e">schematics.types</text>
</g>
<!-- schematics.types&#45;&gt;shekels.core.config -->
<g id="edge57" class="edge">
<title>schematics.types&#45;&gt;shekels.core.config</title>
<path fill="none" stroke="#de958e" d="M279.5661,-549.7211C306.8367,-552.9851 338.0969,-556.7267 367.0386,-560.1908"/>
<polygon fill="#de958e" stroke="#de958e" points="366.8235,-563.6899 377.1686,-561.4032 367.6555,-556.7395 366.8235,-563.6899"/>
</g>
<!-- webcolors -->
<g id="node31" class="node">
<title>webcolors</title>
<polygon fill="#343434" stroke="#343434" points="509.5,-275.7962 418.5,-275.7962 418.5,-239.7962 509.5,-239.7962 509.5,-275.7962"/>
<text text-anchor="middle" x="464" y="-254.0962" font-family="Courier,monospace" font-size="14.00" fill="#de958e">webcolors</text>
</g>
<!-- webcolors&#45;&gt;shekels.core.data_tools -->
<g id="edge58" class="edge">
<title>webcolors&#45;&gt;shekels.core.data_tools</title>
<path fill="none" stroke="#de958e" d="M509.5915,-259.1162C535.6105,-261.7955 567.7663,-268.5348 592,-284.7962 615.6455,-300.6629 605.1204,-320.8436 628,-337.7962 632.771,-341.3312 637.9404,-344.4815 643.3364,-347.288"/>
<polygon fill="#de958e" stroke="#de958e" points="642.067,-350.5599 652.6009,-351.6941 645.0734,-344.2384 642.067,-350.5599"/>
</g>
<!-- pandasql -->
<g id="node32" class="node">
<title>pandasql</title>
<polygon fill="#343434" stroke="#343434" points="772.5,-681.7962 689.5,-681.7962 689.5,-645.7962 772.5,-645.7962 772.5,-681.7962"/>
<text text-anchor="middle" x="731" y="-660.0962" font-family="Courier,monospace" font-size="14.00" fill="#de958e">pandasql</text>
</g>
<!-- pandasql&#45;&gt;shekels.core.database -->
<g id="edge59" class="edge">
<title>pandasql&#45;&gt;shekels.core.database</title>
<path fill="none" stroke="#de958e" d="M772.5325,-656.4055C802.7933,-651.0206 845.2003,-643.4743 884.5037,-636.4802"/>
<polygon fill="#de958e" stroke="#de958e" points="885.1878,-639.9136 894.4199,-634.7156 883.9613,-633.0218 885.1878,-639.9136"/>
</g>
<!-- pandasql&#45;&gt;shekels.server.api -->
<g id="edge60" class="edge">
<title>pandasql&#45;&gt;shekels.server.api</title>
<path fill="none" stroke="#de958e" d="M772.9034,-665.3997C852.2854,-668.4375 1026.3123,-675.0971 1134.5388,-679.2387"/>
<polygon fill="#de958e" stroke="#de958e" points="1134.6749,-682.7464 1144.8015,-679.6315 1134.9427,-675.7515 1134.6749,-682.7464"/>
</g>
<!-- flasgger -->
<g id="node33" class="node">
<title>flasgger</title>
<polygon fill="#343434" stroke="#343434" points="1031,-581.7962 948,-581.7962 948,-545.7962 1031,-545.7962 1031,-581.7962"/>
<text text-anchor="middle" x="989.5" y="-560.0962" font-family="Courier,monospace" font-size="14.00" fill="#de958e">flasgger</text>
</g>
<!-- flasgger&#45;&gt;shekels.server.api -->
<g id="edge61" class="edge">
<title>flasgger&#45;&gt;shekels.server.api</title>
<path fill="none" stroke="#de958e" d="M1031.0647,-568.6223C1054.7403,-572.4735 1084.4781,-579.2161 1109,-590.7962 1144.6039,-607.6095 1179.4815,-636.6481 1202.0745,-657.6099"/>
<polygon fill="#de958e" stroke="#de958e" points="1199.8609,-660.3335 1209.5347,-664.6542 1204.6668,-655.2439 1199.8609,-660.3335"/>
</g>
<!-- flasgger&#45;&gt;shekels.server.app -->
<g id="edge62" class="edge">
<title>flasgger&#45;&gt;shekels.server.app</title>
<path fill="none" stroke="#de958e" d="M1031.0874,-570.9664C1096.246,-579.8838 1223.8408,-587.7819 1310,-531.7962 1375.2838,-489.3752 1408.4772,-397.6586 1421.5873,-351.5077"/>
<polygon fill="#de958e" stroke="#de958e" points="1424.964,-352.4283 1424.2224,-341.8594 1418.2113,-350.5839 1424.964,-352.4283"/>
</g>
</g>
</svg>
